o ApophisFromLightcurve
v -0.014435 0.088615 0.145936
v -0.016473 0.087844 0.146093
v -0.010646 0.087443 0.146014
v -0.012216 0.089241 0.145795
v -0.016969 0.087691 0.146090
v -0.017175 0.087654 0.146059
v -0.025939 0.079962 0.145733
v -0.025976 0.079785 0.145754
v -0.055447 0.029139 0.143327
v -0.055140 0.034252 0.143598
v -0.062556 0.026221 0.141872
v -0.061866 0.016368 0.141589
v -0.060067 0.014308 0.141841
v -0.009815 0.087174 0.145992
v -0.016876 0.087731 0.146091
v -0.053401 0.037127 0.143736
v -0.000435 0.077426 0.145377
v 0.010099 0.087924 0.141388
v -0.001686 0.093663 0.143161
v -0.002903 0.093291 0.143493
v -0.006770 0.091675 0.144613
v -0.008221 0.090882 0.145062
v -0.008519 0.090635 0.145167
v 0.016032 0.068136 0.143094
v 0.016767 0.068079 0.142938
v -0.008960 0.090548 0.145226
v -0.025973 0.080140 0.145683
v -0.017413 0.087654 0.146002
v -0.033417 0.077520 0.143323
v -0.079252 0.019890 0.134811
v -0.079760 0.019485 0.134584
v -0.070239 -0.008853 0.136797
v -0.070241 -0.016248 0.136027
v -0.061625 -0.014305 0.138460
v -0.073179 -0.022833 0.133751
v -0.069285 -0.034174 0.131865
v -0.061701 -0.037918 0.132675
v -0.060776 -0.016366 0.138149
v 0.042839 -0.053201 0.126424
v -0.054514 -0.057464 0.127529
v -0.035587 -0.082212 0.120793
v -0.025297 -0.091017 0.118316
v 0.052777 -0.064392 0.123347
v 0.100484 0.005970 0.119968
v 0.058250 0.047004 0.132447
v 0.056617 -0.066261 0.122383
v 0.066242 -0.063242 0.120675
v 0.062342 0.055755 0.129282
v 0.105221 0.004084 0.118151
v 0.100155 0.029980 0.116426
v 0.039133 0.081491 0.132410
v 0.021152 0.087365 0.137599
v 0.009262 0.100981 0.135937
v 0.008186 0.100435 0.136571
v 0.004116 0.098067 0.139101
v -0.001628 0.093889 0.143041
v -0.001663 0.093824 0.143082
v -0.001867 0.093771 0.143133
v -0.017407 0.087732 0.145964
v -0.025904 0.092131 0.139335
v -0.053935 0.087055 0.127896
v -0.062193 0.079807 0.127588
v -0.020169 0.090144 0.143286
v -0.093002 0.073472 0.113114
v -0.148449 0.078547 0.076462
v -0.161343 0.071478 0.069926
v -0.177688 0.023619 0.071014
v -0.168952 0.017734 0.078015
v -0.096092 0.014886 0.125257
v -0.162383 -0.015843 0.080252
v -0.155425 -0.020620 0.084490
v -0.109945 -0.019997 0.114124
v -0.101474 -0.022598 0.118444
v -0.088118 -0.037893 0.120310
v -0.069870 -0.043127 0.128388
v -0.056869 -0.058191 0.126580
v -0.046122 -0.078638 0.119751
v -0.024259 -0.092452 0.117702
v -0.010506 -0.108844 0.109562
v 0.005187 -0.120058 0.103843
v 0.012999 -0.124574 0.101504
v 0.022824 -0.124571 0.101270
v 0.041107 -0.120907 0.102579
v -0.024306 -0.092405 0.117722
v 0.050860 -0.121068 0.101878
v 0.056693 -0.115652 0.103560
v 0.081530 -0.065031 0.115456
v 0.057388 -0.115555 0.103391
v 0.085217 -0.091128 0.104427
v 0.112166 -0.018944 0.112448
v 0.105254 0.004055 0.118137
v 0.119808 -0.012416 0.110023
v 0.120990 -0.008955 0.109944
v 0.114352 -0.002025 0.113574
v 0.122420 0.014481 0.105378
v 0.124433 -0.010125 0.107693
v 0.126004 -0.010281 0.106609
v 0.122874 0.014075 0.105119
v 0.110905 0.028526 0.109949
v 0.109649 0.038041 0.106216
v 0.066066 0.114015 0.098808
v 0.049080 0.110917 0.111634
v 0.044475 0.107473 0.116362
v 0.022203 0.107637 0.126509
v 0.013353 0.104582 0.132174
v 0.013083 0.104372 0.132408
v 0.040636 0.117413 0.110615
v 0.005511 0.099222 0.137966
v 0.006948 0.100115 0.137027
v -0.018058 0.090173 0.143767
v -0.081774 0.099261 0.101108
v -0.094015 0.092177 0.100467
v -0.042795 0.106355 0.116984
v -0.148368 0.081245 0.074775
v -0.159632 0.085332 0.062380
v -0.171863 0.080309 0.055085
v -0.178844 0.071219 0.054975
v -0.184753 0.068698 0.050695
v -0.190290 0.063056 0.047722
v -0.195187 0.056904 0.045460
v -0.197968 0.052088 0.044594
v -0.190822 0.024003 0.059611
v -0.207533 0.037220 0.039667
v -0.209678 0.033416 0.038698
v -0.212375 0.023439 0.038983
v -0.194989 0.023012 0.055877
v -0.214035 0.022128 0.037283
v -0.219545 0.016002 0.031528
v -0.224271 0.006501 0.026321
v -0.222307 -0.008779 0.027256
v -0.208801 -0.012308 0.040176
v -0.208611 -0.012408 0.040331
v -0.198674 -0.029730 0.042020
v -0.183218 -0.037759 0.052508
v -0.156359 -0.029526 0.079952
v -0.122798 -0.039662 0.097141
v -0.069036 -0.081027 0.103628
v -0.045840 -0.087704 0.113881
v -0.037240 -0.096608 0.110795
v -0.032715 -0.102903 0.107447
v 0.021170 -0.132707 0.095258
v 0.031015 -0.132656 0.095060
v 0.038723 -0.131630 0.095638
v 0.050339 -0.131639 0.094925
v 0.058376 -0.138117 0.087840
v 0.059407 -0.138431 0.087280
v 0.061689 -0.138110 0.086726
v 0.090786 -0.121269 0.088250
v 0.096318 -0.120433 0.086576
v 0.095674 -0.109700 0.091837
v 0.100841 -0.122236 0.083143
v 0.107479 -0.120056 0.080304
v 0.112400 -0.113648 0.080382
v 0.125024 -0.012000 0.107006
v 0.130202 -0.013968 0.103208
v 0.144863 0.009924 0.084375
v 0.143428 0.009902 0.085884
v 0.131806 -0.015097 0.101857
v 0.148428 -0.030215 0.086699
v 0.154134 0.021907 0.068351
v 0.153960 0.023016 0.067944
v 0.122666 0.096465 0.061667
v 0.120201 0.111054 0.055314
v 0.116886 0.112910 0.057012
v 0.074210 0.119884 0.088624
v 0.100350 0.131847 0.054702
v 0.080649 0.129050 0.074691
v 0.074409 0.122438 0.086157
v 0.045564 0.122725 0.102833
v 0.042062 0.119255 0.108083
v 0.072636 0.133826 0.073794
v 0.046084 0.124259 0.100721
v 0.017266 0.113881 0.120131
v 0.025890 0.128816 0.098840
v 0.019151 0.124430 0.105943
v -0.039855 0.118927 0.101401
v -0.039911 0.116862 0.104242
v -0.053272 0.127279 0.080887
v -0.084093 0.121027 0.069231
v -0.122609 0.104419 0.066925
v -0.151225 0.097980 0.054161
v -0.158026 0.092782 0.055208
v -0.161173 0.091481 0.053341
v -0.173553 0.080614 0.052880
v -0.173788 0.080215 0.053102
v -0.184735 0.069193 0.050315
v -0.188125 0.066688 0.047715
v -0.187374 0.067380 0.048179
v -0.214677 0.025181 0.035244
v -0.218957 0.018572 0.031446
v -0.224980 0.005581 0.025274
v -0.225863 0.004532 0.023920
v -0.233668 -0.007435 0.011759
v -0.233204 -0.012661 0.012062
v -0.231106 -0.012330 0.015126
v -0.229006 -0.012581 0.017900
v -0.235651 -0.017666 0.006166
v -0.233496 -0.022724 0.006598
v -0.231015 -0.024760 0.009000
v -0.230198 -0.024813 0.010102
v -0.225851 -0.027217 0.013587
v -0.197881 -0.059248 0.017495
v -0.181247 -0.067944 0.028733
v -0.173022 -0.076331 0.028002
v -0.144400 -0.085778 0.041988
v -0.075968 -0.126562 0.049645
v -0.043440 -0.136736 0.063152
v -0.029752 -0.128969 0.081745
v -0.026259 -0.129479 0.082514
v 0.010277 -0.137725 0.085917
v 0.021364 -0.139316 0.087963
v 0.021695 -0.139568 0.087677
v 0.032874 -0.139428 0.087542
v 0.044813 -0.138315 0.088461
v 0.099494 -0.144903 0.064905
v 0.073930 -0.147465 0.072199
v 0.087743 -0.150070 0.064098
v 0.089903 -0.149716 0.063625
v 0.099826 -0.145437 0.064219
v 0.140739 -0.121401 0.055689
v 0.116697 -0.151846 0.046885
v 0.142900 -0.128847 0.047861
v 0.141243 -0.119749 0.056258
v 0.139786 -0.100068 0.068383
v 0.160613 -0.068758 0.066331
v 0.165720 -0.078695 0.056179
v 0.151409 -0.035184 0.083220
v 0.160114 -0.059662 0.069699
v 0.160283 -0.058479 0.069805
v 0.154888 -0.039875 0.078947
v 0.162431 -0.049085 0.069505
v 0.168939 -0.049957 0.060016
v 0.177949 -0.053046 0.046328
v 0.206073 -0.056932 0.002719
v 0.207965 -0.054534 -0.000624
v 0.211826 -0.048491 -0.007623
v 0.211710 -0.039250 -0.008864
v 0.208712 0.008709 -0.011537
v 0.208034 0.009425 -0.010583
v 0.193318 0.010557 0.012376
v 0.187396 0.070849 -0.015380
v 0.176553 0.083520 -0.005783
v 0.166590 0.089058 0.006810
v 0.151332 0.102536 0.018610
v 0.121728 0.111822 0.052726
v 0.141902 0.116729 0.017121
v 0.130264 0.126284 0.024038
v 0.122614 0.128206 0.033379
v 0.122348 0.128044 0.033955
v 0.101324 0.132644 0.052708
v 0.104369 0.144258 0.031075
v 0.101079 0.140186 0.041392
v 0.078616 0.141477 0.057343
v 0.103238 0.147682 0.025589
v 0.082004 0.158164 0.023323
v 0.078861 0.148512 0.043968
v 0.103454 0.147440 0.025865
v 0.032275 0.141837 0.072108
v 0.026002 0.129301 0.097887
v 0.081807 0.158414 0.022875
v 0.059529 0.162830 0.020831
v 0.058808 0.162943 0.020826
v 0.040265 0.157689 0.037318
v 0.035743 0.156045 0.042078
v -0.007504 0.153153 0.038691
v -0.030842 0.147514 0.045705
v -0.031850 0.147045 0.046497
v -0.047756 0.140311 0.055922
v -0.076224 0.134028 0.046311
v -0.109037 0.122837 0.044196
v -0.129696 0.117677 0.035939
v -0.145745 0.107832 0.040457
v -0.147966 0.105675 0.042573
v -0.166734 0.093110 0.041675
v -0.167746 0.092019 0.042507
v -0.168228 0.090664 0.044684
v -0.172465 0.084377 0.048536
v -0.189033 0.065972 0.046826
v -0.195033 0.058517 0.043963
v -0.199182 0.054099 0.039495
v -0.225919 0.010144 0.020849
v -0.226466 0.009189 0.020170
v -0.232259 -0.000185 0.011393
v -0.233722 -0.007451 0.011642
v -0.233842 -0.007704 0.011352
v -0.237907 -0.015974 0.001235
v -0.237781 -0.018001 0.001348
v -0.237704 -0.018093 0.001517
v -0.236488 -0.017946 0.004337
v -0.236230 -0.017993 0.004883
v -0.236930 -0.020396 0.001697
v -0.236365 -0.021119 0.002475
v -0.235852 -0.021938 0.002843
v -0.235520 -0.022247 0.003236
v -0.230343 -0.030037 0.004053
v -0.229507 -0.031832 0.003235
v -0.206661 -0.057994 0.006427
v -0.204408 -0.061410 0.004506
v -0.169302 -0.092297 0.008938
v -0.169059 -0.092633 0.008694
v -0.141272 -0.116137 0.001965
v -0.109992 -0.127432 0.015874
v -0.097103 -0.133795 0.017250
v -0.062891 -0.145282 0.030117
v -0.052027 -0.146013 0.039177
v -0.042068 -0.142873 0.053985
v -0.023651 -0.145782 0.057691
v -0.007541 -0.148975 0.059169
v 0.015671 -0.152461 0.063192
v 0.022454 -0.149417 0.071271
v 0.039718 -0.149087 0.071251
v 0.057601 -0.147891 0.072651
v 0.098507 -0.154207 0.052302
v 0.106818 -0.154722 0.047480
v 0.111694 -0.153816 0.046584
v 0.113707 -0.153129 0.046714
v 0.116779 -0.152498 0.045969
v 0.116851 -0.152045 0.046539
v 0.125250 -0.154260 0.035971
v 0.125478 -0.154236 0.035803
v 0.141469 -0.152288 0.024312
v 0.141809 -0.152204 0.024127
v 0.142272 -0.152036 0.023950
v 0.146130 -0.150987 0.021628
v 0.148856 -0.149915 0.020336
v 0.150267 -0.135177 0.034633
v 0.150757 -0.149910 0.018033
v 0.152029 -0.149544 0.016885
v 0.157373 -0.147837 0.012249
v 0.158584 -0.147439 0.011210
v 0.162589 -0.145624 0.008318
v 0.168499 -0.142282 0.004771
v 0.175791 -0.133968 0.004946
v 0.174901 -0.133482 0.006555
v 0.172665 -0.082559 0.045194
v 0.176022 -0.133903 0.004662
v 0.178751 -0.131664 0.002324
v 0.196717 -0.095351 0.001953
v 0.199900 -0.085343 0.004376
v 0.184753 -0.082296 0.028120
v 0.200493 -0.084644 0.003667
v 0.215907 -0.049236 -0.017957
v 0.216399 -0.048125 -0.019404
v 0.218055 -0.043726 -0.024380
v 0.218776 -0.039466 -0.026936
v 0.222099 -0.019035 -0.038851
v 0.223548 -0.004614 -0.044965
v 0.223473 -0.000323 -0.045487
v 0.223469 0.000857 -0.045722
v 0.223369 0.004594 -0.046255
v 0.212582 0.009389 -0.021070
v 0.224487 0.009816 -0.053518
v 0.224585 0.018063 -0.060493
v 0.224321 0.024466 -0.064988
v 0.223308 0.029659 -0.066481
v 0.220201 0.040973 -0.067307
v 0.217846 0.045135 -0.064345
v 0.216627 0.046554 -0.062212
v 0.206465 0.060687 -0.050796
v 0.202692 0.067715 -0.051460
v 0.189138 0.084282 -0.040575
v 0.175977 0.094183 -0.020546
v 0.162321 0.107217 -0.011441
v 0.141709 0.130822 -0.014321
v 0.130895 0.140114 -0.008828
v 0.129742 0.140669 -0.007256
v 0.127954 0.139527 -0.000284
v 0.102093 0.160728 -0.010531
v 0.100912 0.159304 -0.003953
v 0.085024 0.161697 0.009596
v 0.101300 0.161619 -0.012537
v 0.095176 0.164224 -0.013170
v 0.095004 0.164285 -0.013149
v 0.093273 0.164448 -0.011331
v 0.085481 0.165147 -0.003034
v 0.084981 0.163781 0.002405
v 0.083670 0.165471 -0.003199
v 0.083005 0.165577 -0.003212
v 0.079888 0.165709 -0.001891
v 0.067535 0.164767 0.008863
v 0.059176 0.163850 0.017191
v 0.046962 0.163263 0.016223
v 0.027292 0.160077 0.023886
v 0.004849 0.156209 0.031155
v -0.043050 0.144699 0.042133
v -0.081974 0.133818 0.039504
v -0.116405 0.124696 0.027658
v -0.128460 0.119224 0.031884
v -0.141029 0.113501 0.026079
v -0.156172 0.105294 0.025257
v -0.160322 0.103148 0.022963
v -0.163927 0.101524 0.016209
v -0.167636 0.098821 0.013699
v -0.180913 0.087167 0.013204
v -0.180266 0.086560 0.018278
v -0.187839 0.081788 -0.000993
v -0.192704 0.076460 -0.005733
v -0.215829 0.044540 -0.006007
v -0.219845 0.039286 -0.011371
v -0.226812 0.030531 -0.027330
v -0.232442 0.021221 -0.035436
v -0.242764 -0.002949 -0.035055
v -0.243011 -0.004586 -0.032779
v -0.239343 -0.003923 -0.015913
v -0.239228 -0.015967 -0.004492
v -0.238795 -0.016082 -0.002515
v -0.240530 -0.016150 -0.010529
v -0.243070 -0.004912 -0.032767
v -0.243050 -0.005318 -0.032306
v -0.242778 -0.008558 -0.028082
v -0.242256 -0.011227 -0.023189
v -0.241534 -0.013912 -0.017330
v -0.240553 -0.016108 -0.010675
v -0.239169 -0.017820 -0.004495
v -0.239039 -0.017807 -0.003893
v -0.240384 -0.016438 -0.009899
v -0.237990 -0.018153 0.000438
v -0.237907 -0.019590 -0.000865
v -0.237612 -0.020061 -0.000341
v -0.236201 -0.022689 -0.000093
v -0.235430 -0.023715 0.000884
v -0.229622 -0.031784 0.002994
v -0.224658 -0.039018 -0.000460
v -0.203841 -0.062857 0.002448
v -0.196835 -0.071900 -0.003128
v -0.177252 -0.090552 -0.003850
v -0.174410 -0.093406 -0.005884
v -0.144375 -0.115196 -0.002326
v -0.140691 -0.117346 -0.000322
v -0.133324 -0.122233 -0.002725
v -0.104378 -0.133314 0.008543
v -0.103822 -0.133550 0.008601
v -0.082992 -0.140853 0.015495
v -0.063367 -0.145297 0.029404
v -0.022121 -0.150953 0.044605
v -0.013383 -0.152516 0.045399
v 0.015668 -0.157010 0.050056
v 0.016427 -0.156856 0.050961
v 0.049613 -0.156072 0.051339
v 0.065445 -0.155311 0.052594
v 0.115129 -0.155911 0.038619
v 0.117893 -0.155691 0.037323
v 0.123516 -0.154562 0.036517
v 0.147012 -0.150912 0.020696
v 0.150073 -0.150147 0.018417
v 0.164004 -0.144982 0.007144
v 0.164956 -0.144471 0.006519
v 0.168584 -0.142281 0.004624
v 0.168606 -0.142261 0.004625
v 0.172748 -0.139492 0.001867
v 0.173047 -0.139223 0.001767
v 0.175524 -0.136684 0.001410
v 0.176409 -0.135916 0.000716
v 0.179624 -0.131479 0.000754
v 0.179714 -0.131392 0.000659
v 0.184515 -0.124704 -0.002406
v 0.191373 -0.113798 -0.005453
v 0.195163 -0.105003 -0.004416
v 0.196532 -0.101225 -0.003450
v 0.202013 -0.088389 -0.003652
v 0.203357 -0.084385 -0.002849
v 0.205423 -0.080472 -0.005940
v 0.209962 -0.068592 -0.011315
v 0.214579 -0.056528 -0.017696
v 0.224228 0.005662 -0.051005
v 0.224312 0.024651 -0.065209
v 0.224052 0.028088 -0.068777
v 0.223614 0.030956 -0.070370
v 0.223465 0.031867 -0.070809
v 0.223198 0.033029 -0.070890
v 0.222346 0.036674 -0.071917
v 0.221552 0.039566 -0.072128
v 0.221313 0.040301 -0.072821
v 0.218284 0.047038 -0.073409
v 0.216755 0.050079 -0.072554
v 0.214830 0.053664 -0.072893
v 0.209509 0.061489 -0.068084
v 0.197641 0.078137 -0.069897
v 0.185172 0.093854 -0.062400
v 0.179398 0.100466 -0.063207
v 0.166182 0.113539 -0.056331
v 0.146150 0.132366 -0.058922
v 0.141731 0.136255 -0.057400
v 0.140280 0.137501 -0.056653
v 0.127572 0.148189 -0.048374
v 0.124690 0.150365 -0.044549
v 0.124669 0.150361 -0.044365
v 0.101722 0.161735 -0.015055
v 0.123252 0.151261 -0.044712
v 0.121837 0.152036 -0.043700
v 0.112306 0.157078 -0.035000
v 0.110601 0.157950 -0.033116
v 0.101367 0.162424 -0.020205
v 0.101280 0.162464 -0.020053
v 0.101215 0.162431 -0.019266
v 0.100974 0.162559 -0.019809
v 0.098784 0.163226 -0.017840
v 0.096192 0.164011 -0.015444
v 0.095015 0.164298 -0.013382
v 0.074877 0.165538 -0.002292
v 0.069384 0.165335 -0.002363
v 0.062998 0.164835 0.003497
v -0.030637 0.147881 0.028677
v -0.050807 0.143069 0.031436
v -0.116201 0.124788 0.027018
v -0.127163 0.119787 0.016630
v -0.147154 0.110699 0.015457
v -0.161158 0.103386 0.009190
v -0.165511 0.100131 0.001595
v -0.176555 0.092049 -0.007683
v -0.178309 0.090613 -0.009791
v -0.182824 0.086796 -0.012863
v -0.188745 0.080121 -0.025195
v -0.192247 0.076239 -0.030205
v -0.200899 0.066821 -0.036664
v -0.201749 0.065714 -0.037908
v -0.215967 0.046898 -0.052991
v -0.216758 0.045806 -0.053000
v -0.225638 0.031359 -0.058785
v -0.234538 0.017073 -0.058789
v -0.235097 0.016185 -0.058541
v -0.235547 0.015484 -0.057897
v -0.237066 0.011928 -0.057841
v -0.237556 0.010762 -0.057564
v -0.242821 -0.002756 -0.039878
v -0.242826 -0.002859 -0.038541
v -0.238753 0.007597 -0.057502
v -0.239220 0.006376 -0.056950
v -0.239572 0.005456 -0.056463
v -0.240629 0.002724 -0.053650
v -0.241702 -0.000036 -0.050354
v -0.242632 -0.002365 -0.044659
v -0.242876 -0.002956 -0.042231
v -0.243137 -0.004828 -0.036376
v -0.243151 -0.004866 -0.037246
v -0.243124 -0.004657 -0.038102
v -0.243037 -0.006368 -0.033259
v -0.241363 -0.014731 -0.018188
v -0.241347 -0.014781 -0.018141
v -0.239189 -0.019336 -0.013632
v -0.239168 -0.019627 -0.017718
v -0.236735 -0.023373 -0.022541
v -0.236123 -0.024274 -0.023094
v -0.217311 -0.050663 -0.020221
v -0.205666 -0.065341 -0.027222
v -0.200017 -0.071393 -0.036276
v -0.166392 -0.102996 -0.031928
v -0.165611 -0.103619 -0.030355
v -0.156651 -0.109552 -0.025513
v -0.146539 -0.115852 -0.024368
v -0.135450 -0.121795 -0.012613
v -0.132034 -0.123452 -0.007093
v -0.109673 -0.132226 0.000172
v -0.101774 -0.135199 0.000968
v -0.090310 -0.138951 0.007144
v -0.034045 -0.150540 0.032066
v -0.023198 -0.152368 0.033790
v 0.016622 -0.158911 0.037375
v 0.023000 -0.159590 0.031975
v 0.068210 -0.158052 0.035591
v 0.078606 -0.157667 0.035724
v 0.132863 -0.154225 0.025443
v 0.134520 -0.153939 0.024906
v 0.136244 -0.153534 0.025026
v 0.151060 -0.149894 0.017349
v 0.152451 -0.149448 0.016358
v 0.165346 -0.144253 0.006230
v 0.169094 -0.142087 0.003785
v 0.169244 -0.141999 0.003647
v 0.172581 -0.139638 0.001860
v 0.174900 -0.137537 0.000638
v 0.176425 -0.135909 0.000680
v 0.177263 -0.135035 -0.000045
v 0.179557 -0.131870 -0.000019
v 0.183676 -0.126052 -0.002406
v 0.201867 -0.089305 -0.004663
v 0.203999 -0.084235 -0.005866
v 0.214955 -0.055558 -0.018695
v 0.216432 -0.050703 -0.021744
v 0.217385 -0.047438 -0.023992
v 0.224329 0.023297 -0.066439
v 0.224189 0.024960 -0.068608
v 0.222745 0.034826 -0.073222
v 0.222586 0.035526 -0.073119
v 0.221589 0.039156 -0.073385
v 0.221278 0.040360 -0.073151
v 0.220200 0.042697 -0.074368
v 0.219360 0.044560 -0.074611
v 0.218479 0.046568 -0.074016
v 0.216275 0.050673 -0.074404
v 0.216184 0.050851 -0.074370
v 0.214745 0.053759 -0.073277
v 0.212267 0.057202 -0.074177
v 0.209005 0.061830 -0.073865
v 0.201165 0.072991 -0.072519
v 0.197727 0.078002 -0.070128
v 0.192823 0.083618 -0.070813
v 0.181099 0.097744 -0.067951
v 0.178113 0.101421 -0.066713
v 0.176538 0.102914 -0.066746
v 0.167220 0.111789 -0.066403
v 0.153839 0.124792 -0.062514
v 0.147005 0.131509 -0.059533
v 0.139199 0.138374 -0.056189
v 0.132185 0.144076 -0.052922
v 0.128176 0.147406 -0.050595
v 0.127105 0.148340 -0.049676
v 0.126984 0.148459 -0.049484
v 0.126259 0.148967 -0.048950
v 0.123433 0.151090 -0.045326
v 0.111178 0.157620 -0.034061
v 0.096202 0.163991 -0.015578
v 0.090640 0.163860 -0.015641
v 0.082611 0.163474 -0.016277
v 0.077527 0.163304 -0.016233
v 0.069160 0.164501 -0.007313
v -0.005349 0.149528 0.003364
v -0.072300 0.130812 -0.001158
v -0.128210 0.118114 0.009676
v -0.159586 0.101480 -0.005797
v -0.169741 0.093452 -0.016799
v -0.180013 0.087884 -0.017356
v -0.202644 0.063901 -0.041397
v -0.192837 0.075195 -0.031996
v -0.204548 0.061186 -0.044211
v -0.215455 0.047371 -0.053274
v -0.215869 0.046947 -0.053215
v -0.222685 0.035343 -0.058990
v -0.223055 0.034765 -0.059168
v -0.225735 0.031065 -0.059200
v -0.229234 0.024587 -0.061800
v -0.230834 0.022233 -0.061153
v -0.235688 0.014552 -0.058958
v -0.237219 0.010967 -0.058902
v -0.237575 0.009907 -0.059114
v -0.237837 0.009333 -0.058874
v -0.239926 0.003509 -0.056393
v -0.240619 0.001946 -0.054357
v -0.241365 -0.000033 -0.052118
v -0.241662 -0.000049 -0.050574
v -0.242007 -0.002236 -0.048169
v -0.242516 -0.002428 -0.045288
v -0.241338 -0.000647 -0.052085
v -0.241673 -0.002214 -0.049906
v -0.242436 -0.004904 -0.042047
v -0.240333 -0.007094 -0.049549
v -0.240327 -0.007106 -0.049557
v -0.232838 -0.015818 -0.062662
v -0.220047 -0.033608 -0.077031
v -0.214414 -0.044100 -0.076040
v -0.207010 -0.053150 -0.081986
v -0.199449 -0.071398 -0.040381
v -0.204472 -0.055059 -0.085848
v -0.201118 -0.058261 -0.088084
v -0.183234 -0.078742 -0.085586
v -0.181600 -0.080853 -0.084342
v -0.178447 -0.085303 -0.080350
v -0.177779 -0.086702 -0.077580
v -0.172567 -0.092253 -0.071747
v -0.166079 -0.102933 -0.034712
v -0.156685 -0.107588 -0.046710
v -0.171827 -0.092790 -0.071660
v -0.160988 -0.102761 -0.057582
v -0.148081 -0.113734 -0.037179
v -0.126573 -0.124430 -0.021575
v -0.136929 -0.118478 -0.036027
v -0.011220 -0.152970 0.012737
v -0.072790 -0.141962 0.007149
v 0.024631 -0.158705 0.013448
v 0.026744 -0.158544 0.011608
v 0.062789 -0.157430 0.017016
v 0.101102 -0.155588 0.020053
v 0.149786 -0.150162 0.015592
v 0.154989 -0.148432 0.010730
v 0.158659 -0.147406 0.010977
v 0.163819 -0.145066 0.007209
v 0.168794 -0.142229 0.003336
v 0.169354 -0.141925 0.003366
v 0.172184 -0.139932 0.001358
v 0.172364 -0.139803 0.001340
v 0.173956 -0.138340 0.000102
v 0.175108 -0.137329 0.000145
v 0.176973 -0.135376 -0.001141
v 0.177063 -0.135238 -0.001392
v 0.179695 -0.131498 -0.003336
v 0.184020 -0.125528 -0.003285
v 0.190060 -0.115969 -0.007340
v 0.191230 -0.114064 -0.006492
v 0.199824 -0.093540 -0.012670
v 0.206094 -0.078858 -0.012901
v 0.218727 -0.038568 -0.036328
v 0.220282 -0.029926 -0.037424
v 0.220824 -0.026667 -0.038031
v 0.223601 0.024878 -0.071329
v 0.223037 0.026860 -0.073642
v 0.223034 0.026867 -0.073652
v 0.222625 0.033408 -0.074017
v 0.222572 0.034883 -0.073936
v 0.222019 0.036150 -0.074950
v 0.221669 0.037768 -0.074644
v 0.220698 0.040658 -0.074870
v 0.218928 0.045252 -0.074922
v 0.217050 0.048834 -0.075076
v 0.213540 0.054830 -0.074787
v 0.198735 0.075775 -0.072859
v 0.172822 0.106184 -0.067215
v 0.168641 0.110154 -0.067089
v 0.145824 0.132507 -0.059247
v 0.142876 0.135122 -0.058170
v 0.141958 0.136018 -0.057588
v 0.127410 0.147951 -0.050252
v 0.126995 0.148347 -0.049807
v 0.126892 0.148415 -0.049747
v 0.126564 0.148651 -0.049486
v 0.107127 0.157543 -0.034056
v 0.086316 0.156151 -0.035686
v 0.076510 0.155895 -0.035414
v 0.051374 0.142156 -0.055119
v -0.025526 0.127861 -0.040992
v -0.125660 0.093713 -0.047444
v -0.172500 0.084082 -0.036083
v -0.184460 0.075908 -0.040845
v -0.187948 0.071464 -0.044994
v -0.204840 0.060155 -0.045802
v -0.214137 0.047622 -0.055076
v -0.215234 0.043838 -0.058812
v -0.214315 0.045537 -0.057835
v -0.227504 0.026005 -0.063281
v -0.235760 0.012276 -0.061052
v -0.235878 0.011904 -0.061141
v -0.238894 0.004083 -0.058694
v -0.238997 0.003395 -0.058725
v -0.239238 0.003383 -0.058137
v -0.240507 -0.000819 -0.054184
v -0.238203 0.001879 -0.060335
v -0.237964 -0.001949 -0.060122
v -0.232367 -0.011492 -0.067450
v -0.226539 -0.017651 -0.075663
v -0.217052 -0.029475 -0.087494
v -0.214707 -0.036453 -0.086949
v -0.209398 -0.042658 -0.091648
v -0.206771 -0.046646 -0.092570
v -0.205936 -0.048256 -0.092339
v -0.205415 -0.049402 -0.091979
v -0.204668 -0.051447 -0.090849
v -0.202293 -0.055021 -0.090474
v -0.200165 -0.058595 -0.089582
v -0.200128 -0.058670 -0.089547
v -0.200102 -0.058734 -0.089505
v -0.186716 -0.074064 -0.087635
v -0.184084 -0.077540 -0.086220
v -0.183302 -0.078626 -0.085680
v -0.181377 -0.081049 -0.084314
v -0.179386 -0.083460 -0.082649
v -0.178140 -0.085403 -0.080678
v -0.177682 -0.085797 -0.080442
v -0.171941 -0.092221 -0.073106
v -0.159160 -0.103036 -0.059141
v -0.168053 -0.094141 -0.072691
v -0.167197 -0.094702 -0.072210
v -0.136947 -0.117618 -0.038990
v -0.106531 -0.122672 -0.039580
v -0.019297 -0.139963 -0.031577
v 0.014918 -0.145318 -0.031346
v 0.029188 -0.152506 -0.012576
v 0.077154 -0.151178 -0.004742
v 0.111890 -0.148855 -0.002022
v 0.155933 -0.147197 0.006338
v 0.160698 -0.145180 0.003514
v 0.162038 -0.144324 0.002135
v 0.169023 -0.141943 0.002585
v 0.171597 -0.140075 0.000503
v 0.172117 -0.139361 -0.000680
v 0.173826 -0.137701 -0.002308
v 0.174766 -0.137071 -0.002263
v 0.176063 -0.135675 -0.003328
v 0.177313 -0.132157 -0.008978
v 0.181735 -0.125596 -0.012998
v 0.182656 -0.124546 -0.012976
v 0.186768 -0.117860 -0.016340
v 0.187110 -0.114192 -0.022010
v 0.189346 -0.105520 -0.029960
v 0.191804 -0.099229 -0.032529
v 0.205105 -0.066304 -0.044299
v 0.205789 -0.064922 -0.044313
v 0.214801 -0.040640 -0.051461
v 0.214258 -0.036060 -0.057965
v 0.214304 -0.034487 -0.059193
v 0.215062 -0.024186 -0.065248
v 0.219366 0.000365 -0.068860
v 0.220510 0.006049 -0.069054
v 0.222511 0.026848 -0.074861
v 0.222375 0.027107 -0.075152
v 0.222174 0.027822 -0.075553
v 0.221945 0.028982 -0.075978
v 0.221911 0.030643 -0.075910
v 0.221560 0.034600 -0.076139
v 0.221515 0.036242 -0.076018
v 0.221227 0.036704 -0.076351
v 0.220652 0.039586 -0.075695
v 0.219669 0.041893 -0.075892
v 0.214726 0.051839 -0.076026
v 0.202315 0.069492 -0.074799
v 0.198803 0.075615 -0.072940
v 0.153413 0.125046 -0.062561
v 0.126559 0.148143 -0.050331
v 0.126588 0.148343 -0.050000
v 0.124221 0.146536 -0.052927
v 0.114757 0.146417 -0.052813
v 0.051869 0.140552 -0.057654
v 0.051218 0.140542 -0.057624
v -0.007564 0.098923 -0.095920
v -0.019525 0.093569 -0.098729
v -0.068582 0.085528 -0.087993
v -0.002713 0.101513 -0.094110
v -0.163639 0.044541 -0.093684
v -0.185977 0.040596 -0.087397
v -0.189187 0.041815 -0.084100
v -0.192058 0.045545 -0.077612
v -0.211903 0.021876 -0.084946
v -0.216924 0.026189 -0.075931
v -0.226619 0.025522 -0.064880
v -0.210710 0.017764 -0.089269
v -0.217536 0.006315 -0.089247
v -0.225982 0.011015 -0.075888
v -0.230922 0.010908 -0.068912
v -0.216442 0.004187 -0.091421
v -0.217989 -0.002576 -0.091205
v -0.220339 -0.002262 -0.087778
v -0.228510 0.000539 -0.075365
v -0.214520 -0.006812 -0.095547
v -0.212768 -0.026542 -0.094405
v -0.212740 -0.030724 -0.093653
v -0.209374 -0.035663 -0.096010
v -0.208783 -0.039444 -0.094623
v -0.207831 -0.041680 -0.094432
v -0.207227 -0.043944 -0.093747
v -0.186763 -0.073976 -0.087680
v -0.181943 -0.080052 -0.085154
v -0.181997 -0.079976 -0.085204
v -0.177522 -0.085806 -0.080555
v -0.178590 -0.083934 -0.082560
v -0.110997 -0.103467 -0.074379
v -0.057214 -0.115605 -0.069370
v -0.003322 -0.123732 -0.069631
v 0.016386 -0.139301 -0.044062
v 0.076396 -0.137968 -0.033552
v 0.103836 -0.135409 -0.031439
v 0.157200 -0.133924 -0.020250
v 0.164251 -0.138313 -0.009470
v 0.164376 -0.138800 -0.008449
v 0.175648 -0.133398 -0.008788
v 0.176709 -0.132227 -0.009719
v 0.177020 -0.130838 -0.011450
v 0.182928 -0.121471 -0.017760
v 0.183330 -0.120625 -0.018421
v 0.192970 -0.096073 -0.033857
v 0.205393 -0.063284 -0.047102
v 0.208056 -0.053612 -0.052079
v 0.214768 -0.021164 -0.067470
v 0.215881 -0.014258 -0.068697
v 0.218903 0.003942 -0.071739
v 0.218995 0.004739 -0.071926
v 0.220896 0.031708 -0.077305
v 0.220883 0.032622 -0.077260
v 0.220361 0.036685 -0.077508
v 0.220359 0.036808 -0.077497
v 0.220066 0.037182 -0.077713
v 0.219511 0.040273 -0.076925
v 0.215038 0.048071 -0.077686
v 0.214283 0.051880 -0.076490
v 0.205122 0.062372 -0.077770
v 0.172875 0.095564 -0.076069
v 0.166990 0.110049 -0.068439
v 0.156053 0.121373 -0.064515
v 0.124063 0.140154 -0.059962
v 0.124362 0.141733 -0.058229
v 0.101585 0.120163 -0.081434
v 0.097458 0.114845 -0.086600
v -0.067013 0.052690 -0.122849
v -0.089091 0.041872 -0.125525
v -0.122568 0.037161 -0.117390
v -0.157390 0.017006 -0.119214
v -0.162779 0.015434 -0.118213
v -0.187038 0.011770 -0.110871
v -0.187676 0.012024 -0.110387
v -0.188969 0.011599 -0.109834
v -0.202974 0.012166 -0.099469
v -0.193937 0.005130 -0.109912
v -0.195235 0.004259 -0.109471
v -0.200157 0.002659 -0.106841
v -0.202041 0.002464 -0.105600
v -0.202266 0.002603 -0.105360
v -0.210738 0.002764 -0.097460
v -0.202754 -0.000177 -0.105525
v -0.207671 -0.006501 -0.102366
v -0.207996 -0.006694 -0.102108
v -0.208879 -0.007460 -0.101369
v -0.208901 -0.018224 -0.099720
v -0.208845 -0.035770 -0.096506
v -0.208695 -0.019826 -0.099622
v -0.208566 -0.036111 -0.096617
v -0.206186 -0.046490 -0.093148
v -0.206612 -0.045016 -0.093642
v -0.186780 -0.073924 -0.087712
v -0.182361 -0.078866 -0.086012
v -0.178573 -0.083662 -0.082890
v -0.109771 -0.093417 -0.086717
v -0.089564 -0.098822 -0.084793
v -0.012240 -0.109967 -0.085844
v -0.002673 -0.120101 -0.074515
v 0.061813 -0.119089 -0.062639
v 0.088739 -0.115506 -0.060620
v 0.142715 -0.114756 -0.048339
v 0.158510 -0.128057 -0.027438
v 0.158683 -0.128522 -0.026800
v 0.185038 -0.112704 -0.026048
v 0.189122 -0.105716 -0.029969
v 0.208061 -0.053479 -0.052182
v 0.208208 -0.052839 -0.052505
v 0.218560 0.003306 -0.071948
v 0.218974 0.004838 -0.071992
v 0.219159 0.033613 -0.078874
v 0.218058 0.034355 -0.079757
v 0.217467 0.037375 -0.079958
v 0.214154 0.039650 -0.081976
v 0.210663 0.039602 -0.084251
v 0.206362 0.040923 -0.086444
v 0.188378 0.061518 -0.088956
v 0.183118 0.063026 -0.091285
v 0.173541 0.074123 -0.089953
v 0.170369 0.074485 -0.090736
v 0.096730 0.099469 -0.098019
v 0.097442 0.102328 -0.095909
v 0.069125 0.071036 -0.118502
v 0.055254 0.071032 -0.118172
v -0.038612 0.052220 -0.124889
v -0.115576 0.024978 -0.127969
v -0.140223 0.019407 -0.123397
v -0.098206 0.033408 -0.128153
v -0.176157 0.011165 -0.115216
v -0.186901 0.009493 -0.111987
v -0.164475 0.013945 -0.118276
v -0.189855 0.007042 -0.111398
v -0.196111 0.003634 -0.109065
v -0.199930 0.001938 -0.107106
v -0.195264 0.004174 -0.109470
v -0.207752 -0.017898 -0.100579
v -0.207764 -0.036220 -0.097100
v -0.207288 -0.020271 -0.100421
v -0.207698 -0.036150 -0.097154
v -0.182202 -0.073958 -0.089797
v -0.181933 -0.074040 -0.089859
v -0.179426 -0.072582 -0.091417
v -0.110554 -0.081311 -0.096058
v -0.089949 -0.088301 -0.094021
v -0.010741 -0.099345 -0.095426
v -0.008144 -0.097114 -0.096985
v 0.044601 -0.096531 -0.087044
v 0.145289 -0.100115 -0.059966
v 0.093053 -0.086820 -0.083577
v 0.132235 -0.086863 -0.074170
v 0.143451 -0.096655 -0.063299
v 0.208609 -0.039463 -0.060872
v 0.214670 -0.021166 -0.067554
v 0.213954 -0.019993 -0.068539
v 0.216241 -0.003399 -0.071820
v 0.218548 0.003354 -0.071974
v 0.208724 0.034720 -0.085809
v 0.206612 0.034125 -0.087015
v 0.193984 0.034682 -0.093799
v 0.191847 0.041043 -0.094296
v 0.181993 0.045784 -0.097982
v 0.160305 0.038002 -0.107129
v 0.127462 0.041744 -0.115242
v 0.103152 0.053745 -0.117836
v 0.068823 0.058460 -0.124487
v 0.054173 0.042612 -0.131688
v -0.015512 0.042165 -0.130233
v -0.043835 0.032506 -0.132058
v -0.152546 0.015540 -0.121210
v -0.189768 0.006754 -0.111469
v -0.192597 0.004743 -0.110523
v -0.178358 -0.037634 -0.107213
v -0.174727 -0.039403 -0.107759
v -0.154470 -0.033221 -0.113276
v -0.113388 -0.038425 -0.116045
v -0.055544 -0.066981 -0.109873
v -0.005515 -0.074255 -0.110586
v 0.010473 -0.058863 -0.116967
v 0.026586 -0.058589 -0.113989
v 0.113146 -0.029070 -0.108412
v 0.136366 -0.029097 -0.102837
v 0.141881 -0.024256 -0.102631
v 0.165035 -0.016105 -0.095289
v 0.189279 0.032897 -0.095790
v 0.159115 0.034416 -0.107810
v 0.100735 0.025112 -0.123893
v 0.092997 0.033974 -0.124974
v 0.132775 0.023289 -0.115788
v 0.054130 0.041599 -0.131945
v 0.044711 0.032317 -0.134100
v -0.030044 0.027603 -0.133619
v -0.047910 0.017762 -0.133572
v -0.115047 0.022586 -0.128297
v -0.039588 0.019226 -0.133974
v -0.136669 0.014303 -0.124598
v -0.015686 -0.019141 -0.129070
v 0.013666 -0.025074 -0.128910
v 0.029399 -0.010350 -0.131373
v 0.053911 -0.008571 -0.127349
v 0.089924 0.023039 -0.126007
v 0.044319 0.025774 -0.134447
v 0.031293 0.014341 -0.134932
s 0
f 1 2 3
f 1 3 4
f 5 6 7
f 5 7 8
f 9 10 11
f 9 11 12
f 9 12 13
f 14 3 2
f 14 2 15
f 14 15 5
f 14 5 8
f 14 8 16
f 14 16 10
f 14 10 9
f 14 9 17
f 18 19 20
f 18 20 21
f 18 21 22
f 18 22 23
f 18 23 14
f 18 14 17
f 18 17 24
f 18 24 25
f 23 26 4
f 23 4 3
f 23 3 14
f 22 26 23
f 27 7 6
f 27 6 28
f 8 7 27
f 8 27 29
f 8 29 16
f 11 30 31
f 11 31 32
f 11 32 12
f 13 12 32
f 13 32 33
f 13 33 34
f 34 33 35
f 34 35 36
f 34 36 37
f 34 37 38
f 39 38 37
f 39 37 40
f 39 40 41
f 39 41 42
f 39 42 43
f 24 17 9
f 24 9 13
f 24 13 34
f 24 34 38
f 24 38 39
f 44 45 25
f 44 25 24
f 44 24 39
f 44 39 43
f 44 43 46
f 44 46 47
f 48 45 44
f 48 44 49
f 48 49 50
f 51 52 18
f 51 18 25
f 51 25 45
f 51 45 48
f 53 54 55
f 53 55 56
f 53 56 57
f 53 57 19
f 53 19 18
f 53 18 52
f 57 58 20
f 57 20 19
f 56 58 57
f 15 59 28
f 15 28 6
f 15 6 5
f 60 61 62
f 60 62 29
f 60 29 27
f 60 27 28
f 60 28 59
f 60 59 63
f 16 29 62
f 16 62 64
f 16 64 30
f 16 30 11
f 16 11 10
f 64 65 66
f 64 66 67
f 64 67 68
f 64 68 69
f 64 69 31
f 64 31 30
f 69 68 70
f 69 70 71
f 69 71 72
f 32 31 69
f 32 69 72
f 32 72 73
f 32 73 35
f 32 35 33
f 35 73 74
f 35 74 75
f 35 75 36
f 37 36 75
f 37 75 76
f 37 76 40
f 40 76 77
f 40 77 41
f 78 79 80
f 78 80 81
f 78 81 82
f 78 82 83
f 46 43 42
f 46 42 84
f 46 84 78
f 46 78 83
f 46 83 85
f 46 85 86
f 87 47 46
f 87 46 86
f 87 86 88
f 87 88 89
f 90 91 49
f 90 49 44
f 90 44 47
f 90 47 87
f 92 93 94
f 92 94 91
f 92 91 90
f 95 94 93
f 95 93 96
f 95 96 97
f 95 97 98
f 99 50 49
f 99 49 91
f 99 91 94
f 99 94 95
f 100 101 102
f 100 102 103
f 100 103 51
f 100 51 48
f 100 48 50
f 100 50 99
f 103 104 105
f 103 105 106
f 103 106 53
f 103 53 52
f 103 52 51
f 102 107 104
f 102 104 103
f 108 55 54
f 108 54 109
f 106 109 54
f 106 54 53
f 21 110 1
f 21 1 4
f 21 4 26
f 21 26 22
f 63 59 15
f 63 15 2
f 63 2 1
f 63 1 110
f 111 112 61
f 111 61 60
f 111 60 113
f 114 65 64
f 114 64 62
f 114 62 61
f 114 61 112
f 115 116 117
f 115 117 66
f 115 66 65
f 115 65 114
f 117 118 119
f 117 119 120
f 117 120 121
f 117 121 122
f 117 122 67
f 117 67 66
f 121 123 124
f 121 124 125
f 121 125 126
f 121 126 122
f 126 125 127
f 126 127 128
f 126 128 129
f 126 129 130
f 126 130 131
f 67 122 126
f 67 126 131
f 67 131 132
f 67 132 70
f 67 70 68
f 71 70 132
f 71 132 133
f 71 133 134
f 71 134 135
f 74 73 72
f 74 72 71
f 74 71 135
f 74 135 136
f 77 76 75
f 77 75 74
f 77 74 136
f 77 136 137
f 77 137 138
f 42 41 77
f 42 77 138
f 42 138 139
f 42 139 84
f 84 139 140
f 84 140 79
f 84 79 78
f 81 141 142
f 81 142 143
f 81 143 82
f 83 82 143
f 83 143 144
f 83 144 85
f 86 85 144
f 86 144 145
f 86 145 146
f 86 146 147
f 86 147 148
f 86 148 88
f 89 88 148
f 89 148 149
f 89 149 150
f 150 149 151
f 150 151 152
f 150 152 153
f 154 96 93
f 154 93 92
f 155 97 96
f 155 96 154
f 156 157 158
f 156 158 159
f 98 97 155
f 98 155 158
f 98 158 157
f 160 161 162
f 160 162 100
f 160 100 99
f 160 99 95
f 160 95 98
f 160 98 157
f 160 157 156
f 162 163 164
f 162 164 165
f 162 165 101
f 162 101 100
f 164 166 167
f 164 167 168
f 164 168 165
f 165 168 169
f 165 169 170
f 165 170 107
f 165 107 102
f 165 102 101
f 167 171 172
f 167 172 169
f 167 169 168
f 170 173 105
f 170 105 104
f 170 104 107
f 169 172 174
f 169 174 175
f 169 175 173
f 169 173 170
f 105 173 175
f 105 175 176
f 105 176 177
f 105 177 108
f 105 108 109
f 105 109 106
f 177 113 60
f 177 60 63
f 177 63 110
f 177 110 21
f 177 21 20
f 177 20 58
f 177 58 56
f 177 56 55
f 177 55 108
f 176 178 179
f 176 179 180
f 176 180 111
f 176 111 113
f 176 113 177
f 180 181 182
f 180 182 115
f 180 115 114
f 180 114 112
f 180 112 111
f 182 183 184
f 182 184 185
f 182 185 116
f 182 116 115
f 185 186 118
f 185 118 117
f 185 117 116
f 187 119 118
f 187 118 186
f 187 186 188
f 124 189 127
f 124 127 125
f 127 189 190
f 127 190 128
f 191 192 193
f 191 193 194
f 191 194 195
f 130 129 191
f 130 191 195
f 130 195 196
f 196 195 194
f 196 194 197
f 196 197 198
f 196 198 199
f 196 199 200
f 132 131 130
f 132 130 196
f 132 196 200
f 132 200 201
f 132 201 133
f 134 133 201
f 134 201 202
f 134 202 203
f 136 135 134
f 136 134 203
f 136 203 204
f 136 204 205
f 136 205 137
f 138 137 205
f 138 205 206
f 138 206 207
f 138 207 208
f 138 208 140
f 138 140 139
f 140 208 209
f 140 209 80
f 140 80 79
f 80 209 210
f 80 210 211
f 80 211 141
f 80 141 81
f 142 141 211
f 142 211 212
f 142 212 213
f 142 213 214
f 144 143 142
f 144 142 214
f 144 214 145
f 215 147 146
f 215 146 216
f 215 216 217
f 215 217 218
f 215 218 219
f 148 147 215
f 148 215 151
f 148 151 149
f 220 152 151
f 220 151 215
f 220 215 219
f 220 219 221
f 220 221 222
f 153 152 220
f 153 220 223
f 153 223 224
f 225 224 223
f 225 223 226
f 227 228 229
f 227 229 230
f 230 229 231
f 232 233 234
f 232 234 235
f 232 235 236
f 232 236 237
f 232 237 238
f 232 238 239
f 232 239 240
f 240 160 156
f 240 156 159
f 240 159 227
f 240 227 230
f 240 230 231
f 240 231 232
f 239 241 242
f 239 242 243
f 239 243 161
f 239 161 160
f 239 160 240
f 243 244 245
f 243 245 163
f 243 163 162
f 243 162 161
f 246 247 248
f 246 248 249
f 246 249 245
f 246 245 244
f 245 249 250
f 245 250 166
f 245 166 164
f 245 164 163
f 248 251 252
f 248 252 250
f 248 250 249
f 250 252 253
f 250 253 171
f 250 171 167
f 250 167 166
f 254 255 256
f 254 256 253
f 254 253 252
f 254 252 251
f 254 251 257
f 253 256 258
f 253 258 259
f 253 259 174
f 253 174 172
f 253 172 171
f 260 261 262
f 260 262 263
f 260 263 264
f 260 264 258
f 260 258 256
f 260 256 255
f 258 264 265
f 258 265 266
f 258 266 267
f 258 267 259
f 174 259 267
f 174 267 268
f 174 268 178
f 174 178 176
f 174 176 175
f 268 269 270
f 268 270 179
f 268 179 178
f 179 270 271
f 179 271 272
f 179 272 273
f 179 273 181
f 179 181 180
f 273 274 275
f 273 275 276
f 273 276 183
f 273 183 182
f 273 182 181
f 276 277 184
f 276 184 183
f 184 277 188
f 184 188 186
f 184 186 185
f 278 279 120
f 278 120 119
f 278 119 187
f 120 279 280
f 120 280 123
f 120 123 121
f 128 190 281
f 128 281 282
f 128 282 192
f 128 192 191
f 128 191 129
f 282 283 284
f 282 284 193
f 282 193 192
f 285 286 287
f 285 287 288
f 285 288 289
f 194 193 284
f 194 284 285
f 194 285 289
f 194 289 290
f 194 290 197
f 289 288 291
f 289 291 292
f 289 292 290
f 197 290 292
f 197 292 293
f 197 293 294
f 197 294 198
f 199 198 294
f 199 294 295
f 201 200 199
f 201 199 295
f 201 295 296
f 201 296 297
f 201 297 202
f 203 202 297
f 203 297 298
f 203 298 299
f 203 299 204
f 205 204 299
f 205 299 300
f 205 300 301
f 205 301 302
f 205 302 206
f 206 302 303
f 206 303 304
f 206 304 305
f 206 305 306
f 206 306 207
f 207 306 307
f 207 307 210
f 207 210 209
f 207 209 208
f 210 307 308
f 210 308 309
f 210 309 310
f 210 310 212
f 210 212 211
f 213 212 310
f 213 310 311
f 213 311 312
f 145 214 213
f 145 213 312
f 145 312 216
f 145 216 146
f 217 313 314
f 217 314 315
f 217 315 316
f 217 316 218
f 219 218 316
f 219 316 317
f 219 317 318
f 219 318 221
f 318 317 319
f 318 319 320
f 318 320 321
f 318 321 322
f 318 322 323
f 222 221 318
f 222 318 323
f 222 323 324
f 222 324 325
f 222 325 326
f 326 325 327
f 326 327 328
f 326 328 329
f 326 329 330
f 326 330 331
f 326 331 332
f 326 332 333
f 326 333 334
f 226 223 220
f 226 220 222
f 226 222 326
f 226 326 334
f 226 334 335
f 335 334 333
f 335 333 336
f 335 336 337
f 335 337 338
f 335 338 339
f 335 339 340
f 232 231 229
f 232 229 228
f 232 228 225
f 232 225 226
f 232 226 335
f 232 335 340
f 232 340 233
f 233 340 339
f 233 339 341
f 233 341 234
f 236 342 343
f 236 343 344
f 236 344 345
f 236 345 346
f 236 346 347
f 236 347 348
f 236 348 237
f 237 348 349
f 237 349 350
f 237 350 351
f 237 351 238
f 350 352 353
f 350 353 354
f 350 354 355
f 350 355 356
f 350 356 357
f 350 357 358
f 350 358 351
f 238 351 358
f 238 358 359
f 238 359 241
f 238 241 239
f 359 360 361
f 359 361 362
f 359 362 242
f 359 242 241
f 242 362 363
f 242 363 246
f 242 246 244
f 242 244 243
f 363 364 365
f 363 365 366
f 363 366 367
f 363 367 247
f 363 247 246
f 367 257 251
f 367 251 248
f 367 248 247
f 366 368 369
f 366 369 254
f 366 254 257
f 366 257 367
f 369 370 260
f 369 260 255
f 369 255 254
f 371 372 373
f 371 373 374
f 371 374 375
f 371 375 376
f 371 376 370
f 371 370 369
f 371 369 368
f 376 261 260
f 376 260 370
f 375 377 378
f 375 378 379
f 375 379 380
f 375 380 381
f 375 381 262
f 375 262 261
f 375 261 376
f 381 382 383
f 381 383 263
f 381 263 262
f 263 383 384
f 263 384 265
f 263 265 264
f 267 266 385
f 267 385 386
f 267 386 269
f 267 269 268
f 386 387 388
f 386 388 271
f 386 271 270
f 386 270 269
f 271 388 389
f 271 389 390
f 271 390 272
f 272 390 391
f 272 391 274
f 272 274 273
f 391 392 393
f 391 393 394
f 391 394 395
f 391 395 275
f 391 275 274
f 275 395 278
f 275 278 187
f 275 187 188
f 275 188 277
f 275 277 276
f 394 396 397
f 394 397 398
f 394 398 280
f 394 280 279
f 394 279 278
f 394 278 395
f 398 399 281
f 398 281 190
f 398 190 189
f 398 189 124
f 398 124 123
f 398 123 280
f 400 401 402
f 400 402 403
f 400 403 404
f 400 404 283
f 400 283 282
f 400 282 281
f 400 281 399
f 284 283 404
f 284 404 405
f 284 405 406
f 284 406 286
f 284 286 285
f 407 405 404
f 407 404 403
f 407 403 408
f 407 408 409
f 407 409 410
f 407 410 411
f 407 411 412
f 407 412 413
f 414 415 406
f 414 406 405
f 414 405 407
f 414 407 416
f 406 415 417
f 406 417 287
f 406 287 286
f 418 417 415
f 418 415 414
f 291 288 287
f 291 287 417
f 291 417 418
f 291 418 419
f 293 292 291
f 293 291 419
f 293 419 420
f 293 420 421
f 295 294 293
f 295 293 421
f 295 421 422
f 295 422 296
f 297 296 422
f 297 422 423
f 297 423 424
f 297 424 298
f 299 298 424
f 299 424 425
f 299 425 426
f 299 426 300
f 300 426 427
f 300 427 428
f 300 428 429
f 300 429 301
f 301 429 430
f 301 430 431
f 301 431 303
f 301 303 302
f 303 431 432
f 303 432 433
f 303 433 434
f 303 434 304
f 305 435 308
f 305 308 307
f 305 307 306
f 309 308 435
f 309 435 436
f 309 436 437
f 309 437 438
f 311 310 309
f 311 309 438
f 311 438 439
f 311 439 440
f 216 312 311
f 216 311 440
f 216 440 313
f 216 313 217
f 314 441 442
f 314 442 443
f 314 443 315
f 316 315 443
f 316 443 319
f 316 319 317
f 323 322 444
f 323 444 324
f 324 444 445
f 324 445 327
f 324 327 325
f 331 446 447
f 331 447 448
f 331 448 449
f 331 449 332
f 333 332 449
f 333 449 450
f 333 450 451
f 333 451 452
f 333 452 336
f 336 452 453
f 336 453 454
f 336 454 337
f 337 454 455
f 337 455 456
f 337 456 457
f 337 457 458
f 337 458 459
f 337 459 338
f 339 338 459
f 339 459 460
f 339 460 461
f 339 461 341
f 234 341 461
f 234 461 462
f 234 462 463
f 234 463 235
f 235 463 464
f 235 464 342
f 235 342 236
f 347 465 349
f 347 349 348
f 349 465 352
f 349 352 350
f 354 466 467
f 354 467 468
f 354 468 469
f 354 469 470
f 354 470 355
f 355 470 471
f 355 471 472
f 355 472 356
f 356 472 473
f 356 473 474
f 356 474 475
f 356 475 357
f 358 357 475
f 358 475 476
f 358 476 477
f 358 477 360
f 358 360 359
f 477 478 479
f 477 479 361
f 477 361 360
f 361 479 480
f 361 480 481
f 361 481 364
f 361 364 363
f 361 363 362
f 481 482 483
f 481 483 484
f 481 484 485
f 481 485 486
f 481 486 487
f 481 487 365
f 481 365 364
f 365 487 488
f 365 488 371
f 365 371 368
f 365 368 366
f 486 489 490
f 486 490 491
f 486 491 492
f 486 492 493
f 486 493 494
f 486 494 495
f 486 495 488
f 486 488 487
f 488 495 372
f 488 372 371
f 494 496 497
f 494 497 498
f 494 498 499
f 494 499 373
f 494 373 372
f 494 372 495
f 374 377 375
f 373 499 378
f 373 378 377
f 373 377 374
f 379 500 501
f 379 501 502
f 379 502 380
f 380 502 382
f 380 382 381
f 265 384 503
f 265 503 504
f 265 504 385
f 265 385 266
f 385 504 505
f 385 505 387
f 385 387 386
f 505 506 507
f 505 507 389
f 505 389 388
f 505 388 387
f 389 507 508
f 389 508 392
f 389 392 391
f 389 391 390
f 508 509 510
f 508 510 393
f 508 393 392
f 393 510 511
f 393 511 512
f 393 512 396
f 393 396 394
f 512 513 514
f 512 514 515
f 512 515 397
f 512 397 396
f 397 515 516
f 397 516 517
f 397 517 518
f 397 518 400
f 397 400 399
f 397 399 398
f 518 519 520
f 518 520 521
f 518 521 522
f 518 522 401
f 518 401 400
f 522 523 524
f 522 524 525
f 522 525 526
f 522 526 402
f 522 402 401
f 525 524 527
f 525 527 528
f 525 528 529
f 525 529 530
f 525 530 531
f 525 531 532
f 525 532 533
f 402 526 534
f 402 534 408
f 402 408 403
f 535 534 526
f 535 526 525
f 535 525 533
f 535 533 536
f 537 409 408
f 537 408 534
f 537 534 535
f 410 409 537
f 538 412 411
f 413 412 538
f 413 538 539
f 540 416 407
f 540 407 413
f 540 413 539
f 540 539 541
f 420 419 418
f 420 418 414
f 420 414 416
f 420 416 540
f 422 421 420
f 422 420 540
f 422 540 541
f 422 541 542
f 422 542 543
f 422 543 544
f 422 544 423
f 424 423 544
f 424 544 545
f 424 545 425
f 425 545 546
f 425 546 547
f 425 547 548
f 425 548 427
f 425 427 426
f 427 548 549
f 427 549 428
f 428 549 550
f 428 550 551
f 428 551 552
f 428 552 430
f 428 430 429
f 430 552 553
f 430 553 432
f 430 432 431
f 432 553 554
f 432 554 555
f 432 555 433
f 304 434 556
f 304 556 557
f 304 557 436
f 304 436 435
f 304 435 305
f 436 557 558
f 436 558 437
f 438 437 558
f 438 558 559
f 438 559 560
f 438 560 439
f 440 439 560
f 440 560 561
f 440 561 441
f 440 441 314
f 440 314 313
f 319 443 442
f 319 442 562
f 319 562 563
f 319 563 564
f 319 564 320
f 320 564 321
f 327 445 565
f 327 565 566
f 327 566 328
f 328 566 329
f 447 567 568
f 447 568 448
f 449 448 568
f 449 568 569
f 449 569 570
f 449 570 450
f 451 571 572
f 451 572 453
f 451 453 452
f 453 572 573
f 453 573 574
f 453 574 455
f 453 455 454
f 455 574 575
f 455 575 456
f 459 458 576
f 459 576 460
f 461 460 576
f 461 576 577
f 461 577 462
f 464 578 579
f 464 579 343
f 464 343 342
f 343 579 580
f 343 580 344
f 581 466 354
f 581 354 353
f 582 467 466
f 582 466 581
f 469 583 584
f 469 584 471
f 469 471 470
f 471 584 585
f 471 585 586
f 471 586 473
f 471 473 472
f 473 586 587
f 473 587 588
f 473 588 589
f 473 589 474
f 475 474 589
f 475 589 590
f 475 590 591
f 475 591 592
f 475 592 476
f 476 592 593
f 476 593 594
f 476 594 595
f 476 595 596
f 476 596 478
f 476 478 477
f 596 597 598
f 596 598 599
f 596 599 480
f 596 480 479
f 596 479 478
f 480 599 600
f 480 600 601
f 480 601 602
f 480 602 603
f 480 603 482
f 480 482 481
f 484 604 605
f 484 605 606
f 484 606 607
f 484 607 608
f 484 608 485
f 485 608 609
f 485 609 610
f 485 610 489
f 485 489 486
f 610 490 489
f 491 611 492
f 493 496 494
f 612 498 497
f 613 500 379
f 613 379 378
f 613 378 499
f 613 499 498
f 613 498 612
f 614 615 616
f 614 616 501
f 614 501 500
f 614 500 613
f 616 617 503
f 616 503 384
f 616 384 383
f 616 383 382
f 616 382 502
f 616 502 501
f 503 617 618
f 503 618 619
f 503 619 506
f 503 506 505
f 503 505 504
f 619 620 509
f 619 509 508
f 619 508 507
f 619 507 506
f 621 622 511
f 621 511 510
f 621 510 509
f 621 509 620
f 511 622 513
f 511 513 512
f 623 516 515
f 623 515 514
f 623 514 624
f 625 626 627
f 625 627 517
f 625 517 516
f 625 516 623
f 517 627 628
f 517 628 629
f 517 629 630
f 517 630 519
f 517 519 518
f 630 631 632
f 630 632 520
f 630 520 519
f 521 633 634
f 521 634 523
f 521 523 522
f 634 635 636
f 634 636 527
f 634 527 524
f 634 524 523
f 529 637 638
f 529 638 530
f 530 638 639
f 530 639 640
f 530 640 531
f 532 531 640
f 532 640 641
f 532 641 642
f 641 640 639
f 641 639 643
f 641 643 644
f 536 533 532
f 536 532 642
f 536 642 645
f 645 642 641
f 645 641 644
f 645 644 646
f 541 539 538
f 541 538 411
f 541 411 410
f 541 410 537
f 541 537 535
f 541 535 536
f 541 536 645
f 541 645 646
f 541 646 647
f 541 647 542
f 542 647 648
f 542 648 649
f 542 649 650
f 542 650 543
f 544 543 650
f 544 650 651
f 544 651 652
f 544 652 546
f 544 546 545
f 651 653 654
f 651 654 655
f 651 655 656
f 651 656 657
f 651 657 658
f 651 658 652
f 546 652 658
f 546 658 659
f 546 659 660
f 546 660 547
f 661 660 659
f 661 659 662
f 661 662 663
f 547 660 661
f 547 661 664
f 547 664 550
f 547 550 549
f 547 549 548
f 665 551 550
f 665 550 664
f 665 664 666
f 554 553 552
f 554 552 551
f 554 551 665
f 667 556 434
f 667 434 433
f 667 433 555
f 667 555 668
f 558 557 556
f 558 556 667
f 558 667 669
f 558 669 559
f 560 559 669
f 560 669 670
f 560 670 671
f 560 671 561
f 442 441 561
f 442 561 671
f 442 671 672
f 442 672 562
f 321 564 563
f 321 563 673
f 321 673 565
f 321 565 445
f 321 445 444
f 321 444 322
f 329 566 565
f 329 565 673
f 329 673 674
f 329 674 675
f 329 675 330
f 330 675 676
f 330 676 446
f 330 446 331
f 568 567 677
f 568 677 678
f 568 678 569
f 569 678 679
f 569 679 680
f 569 680 570
f 450 570 680
f 450 680 681
f 450 681 682
f 450 682 571
f 450 571 451
f 682 683 573
f 682 573 572
f 682 572 571
f 573 683 684
f 573 684 685
f 573 685 686
f 573 686 575
f 573 575 574
f 456 575 686
f 456 686 687
f 456 687 688
f 456 688 457
f 576 458 457
f 576 457 688
f 576 688 689
f 576 689 690
f 576 690 577
f 462 577 690
f 462 690 578
f 462 578 464
f 462 464 463
f 344 580 691
f 344 691 692
f 344 692 345
f 345 692 693
f 345 693 346
f 694 695 468
f 694 468 467
f 694 467 582
f 696 697 698
f 696 698 583
f 696 583 469
f 696 469 468
f 696 468 695
f 698 699 700
f 698 700 585
f 698 585 584
f 698 584 583
f 585 700 701
f 585 701 587
f 585 587 586
f 589 588 702
f 589 702 703
f 589 703 590
f 591 704 593
f 591 593 592
f 595 705 597
f 595 597 596
f 600 706 707
f 600 707 601
f 603 708 709
f 603 709 710
f 603 710 483
f 603 483 482
f 606 711 712
f 606 712 607
f 607 712 713
f 607 713 714
f 607 714 609
f 607 609 608
f 492 611 715
f 492 715 614
f 492 614 613
f 492 613 612
f 492 612 497
f 492 497 496
f 492 496 493
f 716 717 615
f 716 615 614
f 716 614 715
f 718 719 618
f 718 618 617
f 718 617 616
f 718 616 615
f 718 615 717
f 720 721 621
f 720 621 620
f 720 620 619
f 720 619 618
f 720 618 719
f 722 624 514
f 722 514 513
f 722 513 622
f 722 622 621
f 722 621 721
f 723 724 625
f 723 625 623
f 723 623 624
f 723 624 722
f 725 626 625
f 725 625 724
f 726 628 627
f 726 627 626
f 726 626 725
f 726 725 727
f 728 631 630
f 728 630 629
f 520 632 729
f 520 729 633
f 520 633 521
f 730 635 634
f 730 634 633
f 730 633 729
f 527 636 731
f 527 731 528
f 528 731 732
f 528 732 733
f 528 733 637
f 528 637 529
f 643 639 638
f 643 638 637
f 643 637 733
f 643 733 734
f 734 733 732
f 734 732 735
f 734 735 736
f 646 644 643
f 646 643 734
f 646 734 736
f 646 736 737
f 646 737 648
f 646 648 647
f 648 737 738
f 648 738 739
f 648 739 740
f 648 740 649
f 650 649 740
f 650 740 741
f 650 741 742
f 650 742 743
f 650 743 744
f 650 744 745
f 650 745 653
f 650 653 651
f 745 746 747
f 745 747 748
f 745 748 749
f 745 749 654
f 745 654 653
f 655 654 749
f 655 749 750
f 655 750 751
f 655 751 752
f 657 656 753
f 657 753 754
f 657 754 755
f 662 659 658
f 662 658 657
f 662 657 755
f 662 755 756
f 662 756 757
f 758 663 662
f 758 662 757
f 758 757 759
f 758 759 760
f 666 664 661
f 666 661 663
f 666 663 758
f 666 758 761
f 668 555 554
f 668 554 665
f 668 665 666
f 668 666 761
f 668 761 762
f 668 762 763
f 670 669 667
f 670 667 668
f 670 668 763
f 670 763 764
f 670 764 765
f 672 671 670
f 672 670 765
f 672 765 766
f 673 563 562
f 673 562 672
f 673 672 766
f 673 766 767
f 673 767 768
f 673 768 674
f 674 768 769
f 674 769 676
f 674 676 675
f 676 769 770
f 676 770 771
f 676 771 677
f 676 677 567
f 676 567 447
f 676 447 446
f 771 772 679
f 771 679 678
f 771 678 677
f 680 679 772
f 680 772 773
f 680 773 774
f 680 774 775
f 680 775 681
f 681 775 776
f 681 776 684
f 681 684 683
f 681 683 682
f 776 777 778
f 776 778 779
f 776 779 685
f 776 685 684
f 686 685 779
f 686 779 780
f 686 780 687
f 688 687 780
f 688 780 781
f 688 781 782
f 688 782 783
f 688 783 784
f 688 784 785
f 688 785 689
f 690 689 785
f 690 785 786
f 690 786 691
f 690 691 580
f 690 580 579
f 690 579 578
f 691 786 787
f 691 787 788
f 691 788 789
f 691 789 790
f 691 790 791
f 691 791 693
f 691 693 692
f 346 693 791
f 346 791 694
f 346 694 582
f 346 582 581
f 346 581 353
f 346 353 352
f 346 352 465
f 346 465 347
f 792 793 794
f 792 794 795
f 792 795 796
f 792 796 697
f 792 697 696
f 796 797 798
f 796 798 699
f 796 699 698
f 796 698 697
f 798 799 800
f 798 800 701
f 798 701 700
f 798 700 699
f 587 701 800
f 587 800 801
f 587 801 702
f 587 702 588
f 590 703 802
f 590 802 704
f 590 704 591
f 594 803 804
f 594 804 705
f 594 705 595
f 598 706 600
f 598 600 599
f 602 805 708
f 602 708 603
f 483 710 604
f 483 604 484
f 806 807 713
f 806 713 712
f 806 712 711
f 713 807 714
f 609 714 807
f 609 807 806
f 609 806 808
f 609 808 809
f 609 809 716
f 609 716 715
f 609 715 611
f 609 611 491
f 609 491 490
f 609 490 610
f 809 810 811
f 809 811 718
f 809 718 717
f 809 717 716
f 812 813 814
f 812 814 720
f 812 720 719
f 812 719 718
f 812 718 811
f 812 811 815
f 814 816 817
f 814 817 818
f 814 818 819
f 814 819 723
f 814 723 722
f 814 722 721
f 814 721 720
f 819 727 725
f 819 725 724
f 819 724 723
f 818 820 821
f 818 821 726
f 818 726 727
f 818 727 819
f 821 822 728
f 821 728 629
f 821 629 628
f 821 628 726
f 823 824 825
f 823 825 822
f 823 822 821
f 823 821 820
f 825 826 730
f 825 730 729
f 825 729 632
f 825 632 631
f 825 631 728
f 825 728 822
f 827 828 829
f 827 829 830
f 827 830 826
f 827 826 825
f 827 825 824
f 830 735 732
f 830 732 731
f 830 731 636
f 830 636 635
f 830 635 730
f 830 730 826
f 736 735 830
f 736 830 829
f 736 829 738
f 736 738 737
f 738 829 828
f 738 828 831
f 738 831 832
f 738 832 833
f 738 833 739
f 740 739 833
f 740 833 834
f 740 834 835
f 740 835 741
f 741 835 836
f 741 836 837
f 741 837 742
f 744 746 745
f 750 749 748
f 750 748 838
f 839 753 656
f 839 656 655
f 839 655 752
f 839 752 840
f 841 756 755
f 841 755 754
f 841 754 842
f 757 756 841
f 757 841 759
f 762 761 758
f 762 758 760
f 762 760 843
f 762 843 844
f 764 763 762
f 764 762 844
f 764 844 845
f 764 845 846
f 766 765 764
f 766 764 846
f 766 846 847
f 766 847 767
f 767 847 848
f 767 848 849
f 767 849 850
f 767 850 851
f 767 851 770
f 767 770 769
f 767 769 768
f 770 851 773
f 770 773 772
f 770 772 771
f 773 851 850
f 773 850 852
f 773 852 774
f 774 852 853
f 774 853 777
f 774 777 776
f 774 776 775
f 778 777 853
f 778 853 854
f 778 854 855
f 780 779 778
f 780 778 855
f 780 855 856
f 780 856 781
f 783 857 858
f 783 858 784
f 785 784 858
f 785 858 859
f 785 859 787
f 785 787 786
f 789 860 861
f 789 861 862
f 789 862 790
f 791 790 862
f 791 862 863
f 791 863 792
f 791 792 696
f 791 696 695
f 791 695 694
f 795 864 865
f 795 865 797
f 795 797 796
f 865 866 867
f 865 867 799
f 865 799 798
f 865 798 797
f 800 799 867
f 800 867 868
f 800 868 869
f 800 869 801
f 702 801 869
f 702 869 870
f 702 870 871
f 702 871 802
f 702 802 703
f 593 704 802
f 593 802 871
f 593 871 872
f 593 872 803
f 593 803 594
f 804 873 874
f 804 874 707
f 804 707 706
f 804 706 598
f 804 598 597
f 804 597 705
f 601 707 874
f 601 874 875
f 601 875 805
f 601 805 602
f 709 876 877
f 709 877 605
f 709 605 604
f 709 604 710
f 605 877 808
f 605 808 806
f 605 806 711
f 605 711 606
f 878 810 809
f 878 809 808
f 878 808 877
f 878 877 876
f 879 815 811
f 879 811 810
f 879 810 878
f 880 881 882
f 880 882 816
f 880 816 814
f 880 814 813
f 882 883 884
f 882 884 885
f 882 885 886
f 882 886 817
f 882 817 816
f 817 886 887
f 817 887 888
f 817 888 823
f 817 823 820
f 817 820 818
f 887 889 890
f 887 890 891
f 887 891 892
f 887 892 893
f 887 893 888
f 888 893 894
f 888 894 827
f 888 827 824
f 888 824 823
f 892 895 896
f 892 896 897
f 892 897 894
f 892 894 893
f 894 897 898
f 894 898 831
f 894 831 828
f 894 828 827
f 832 831 898
f 832 898 899
f 900 834 833
f 900 833 832
f 900 832 899
f 900 899 901
f 836 835 834
f 836 834 900
f 836 900 902
f 903 743 742
f 903 742 837
f 903 837 904
f 838 748 747
f 838 747 905
f 840 752 751
f 840 751 906
f 842 754 753
f 842 753 839
f 842 839 907
f 760 759 841
f 760 841 842
f 760 842 907
f 760 907 908
f 760 908 909
f 760 909 843
f 844 843 909
f 844 909 910
f 844 910 911
f 844 911 845
f 846 845 911
f 846 911 912
f 846 912 848
f 846 848 847
f 848 912 913
f 848 913 914
f 848 914 915
f 848 915 916
f 848 916 849
f 849 916 854
f 849 854 853
f 849 853 852
f 849 852 850
f 855 854 916
f 855 916 915
f 855 915 917
f 855 917 856
f 781 856 917
f 781 917 918
f 781 918 782
f 858 857 919
f 858 919 859
f 787 859 919
f 787 919 920
f 787 920 788
f 862 861 921
f 862 921 922
f 862 922 863
f 863 922 793
f 863 793 792
f 923 866 865
f 923 865 864
f 924 925 868
f 924 868 867
f 924 867 866
f 924 866 923
f 869 868 925
f 869 925 926
f 869 926 870
f 871 870 926
f 871 926 927
f 871 927 928
f 871 928 929
f 871 929 872
f 872 929 930
f 872 930 931
f 872 931 873
f 872 873 804
f 872 804 803
f 931 932 933
f 931 933 934
f 931 934 875
f 931 875 874
f 931 874 873
f 875 934 879
f 875 879 878
f 875 878 876
f 875 876 709
f 875 709 708
f 875 708 805
f 933 935 936
f 933 936 812
f 933 812 815
f 933 815 879
f 933 879 934
f 936 937 880
f 936 880 813
f 936 813 812
f 938 939 883
f 938 883 882
f 938 882 881
f 938 881 940
f 941 942 885
f 941 885 884
f 941 884 943
f 885 942 944
f 885 944 889
f 885 889 887
f 885 887 886
f 945 946 891
f 945 891 890
f 945 890 947
f 891 946 895
f 891 895 892
f 901 899 898
f 901 898 897
f 901 897 896
f 901 896 948
f 949 902 900
f 949 900 901
f 949 901 948
f 949 948 950
f 949 950 951
f 904 837 836
f 904 836 902
f 904 902 949
f 905 747 746
f 905 746 744
f 905 744 743
f 905 743 903
f 905 903 952
f 906 751 750
f 906 750 838
f 906 838 905
f 906 905 952
f 906 952 953
f 908 907 839
f 908 839 840
f 908 840 906
f 908 906 953
f 908 953 954
f 908 954 955
f 908 955 956
f 910 909 908
f 910 908 956
f 910 956 957
f 913 912 911
f 913 911 910
f 913 910 957
f 913 957 958
f 913 958 959
f 960 914 913
f 960 913 959
f 960 959 961
f 960 961 962
f 960 962 963
f 917 915 914
f 917 914 960
f 917 960 918
f 782 918 960
f 782 960 963
f 782 963 964
f 782 964 920
f 782 920 919
f 782 919 857
f 782 857 783
f 788 920 964
f 788 964 965
f 788 965 860
f 788 860 789
f 965 966 967
f 965 967 968
f 965 968 921
f 965 921 861
f 965 861 860
f 921 968 794
f 921 794 793
f 921 793 922
f 969 927 926
f 969 926 925
f 969 925 924
f 970 971 972
f 970 972 928
f 970 928 927
f 970 927 969
f 928 972 973
f 928 973 930
f 928 930 929
f 930 973 974
f 930 974 975
f 930 975 976
f 930 976 932
f 930 932 931
f 976 977 935
f 976 935 933
f 976 933 932
f 978 979 937
f 978 937 936
f 978 936 935
f 978 935 977
f 980 940 881
f 980 881 880
f 980 880 937
f 980 937 979
f 943 884 883
f 943 883 939
f 943 939 981
f 982 944 942
f 982 942 941
f 983 947 890
f 983 890 889
f 983 889 944
f 983 944 982
f 948 896 895
f 948 895 946
f 948 946 945
f 948 945 950
f 951 950 945
f 951 945 947
f 951 947 983
f 951 983 984
f 953 952 903
f 953 903 904
f 953 904 949
f 953 949 951
f 953 951 984
f 953 984 985
f 953 985 954
f 955 954 985
f 955 985 986
f 955 986 987
f 955 987 988
f 957 956 955
f 957 955 988
f 957 988 989
f 957 989 958
f 959 958 989
f 959 989 990
f 959 990 991
f 959 991 961
f 962 961 991
f 962 991 992
f 962 992 993
f 964 963 962
f 964 962 993
f 964 993 994
f 964 994 995
f 964 995 966
f 964 966 965
f 995 996 971
f 995 971 970
f 995 970 967
f 995 967 966
f 794 968 967
f 794 967 970
f 794 970 969
f 794 969 924
f 794 924 923
f 794 923 864
f 794 864 795
f 997 974 973
f 997 973 972
f 997 972 971
f 997 971 996
f 998 999 975
f 998 975 974
f 998 974 997
f 998 997 1000
f 975 999 1001
f 975 1001 978
f 975 978 977
f 975 977 976
f 1002 1003 980
f 1002 980 979
f 1002 979 978
f 1002 978 1001
f 1004 1005 938
f 1004 938 940
f 1004 940 980
f 1004 980 1003
f 1004 1003 1006
f 1007 981 939
f 1007 939 938
f 1007 938 1005
f 985 984 983
f 985 983 982
f 985 982 941
f 985 941 943
f 985 943 981
f 985 981 1007
f 985 1007 986
f 987 986 1007
f 987 1007 1005
f 987 1005 1004
f 987 1004 1008
f 989 988 987
f 989 987 1008
f 989 1008 1009
f 989 1009 990
f 991 990 1009
f 991 1009 1010
f 991 1010 1011
f 991 1011 992
f 993 992 1011
f 993 1011 1012
f 993 1012 998
f 993 998 1000
f 993 1000 994
f 994 1000 997
f 994 997 996
f 994 996 995
f 1012 1013 1002
f 1012 1002 1001
f 1012 1001 999
f 1012 999 998
f 1014 1006 1003
f 1014 1003 1002
f 1014 1002 1013
f 1009 1008 1004
f 1009 1004 1006
f 1009 1006 1014
f 1009 1014 1010
f 1011 1010 1014
f 1011 1014 1013
f 1011 1013 1012
f 159 158 155
f 159 155 154
f 159 154 92
f 159 92 90
f 159 90 87
f 159 87 89
f 159 89 150
f 159 150 153
f 159 153 224
f 159 224 225
f 159 225 228
f 159 228 227
