o didymain2019
v -0.024873 0.029654 0.374347
v -0.063697 0.021027 0.382870
v -0.073352 -0.018226 0.370263
v 0.003316 -0.000648 0.352267
v -0.018857 -0.072799 0.355783
v 0.054727 -0.055940 0.355704
v 0.079938 0.016936 0.370238
v 0.015365 0.038611 0.372128
v -0.012967 0.069892 0.393745
v -0.053910 0.060871 0.395736
v -0.083262 0.092442 0.387508
v -0.113714 0.125193 0.386202
v -0.105845 0.054680 0.386095
v -0.116899 0.015450 0.379178
v -0.113875 -0.027519 0.367552
v -0.091693 -0.061947 0.359722
v -0.063932 -0.088680 0.348723
v -0.108593 -0.104712 0.343485
v -0.040006 -0.141673 0.331751
v 0.008867 -0.108087 0.341098
v 0.045792 -0.100932 0.346215
v 0.104767 -0.109746 0.335043
v 0.102324 -0.050803 0.350241
v 0.115502 -0.014378 0.359944
v 0.121478 0.026461 0.370163
v 0.105156 0.066746 0.381820
v 0.054029 0.047798 0.381485
v 0.077424 0.096505 0.384962
v 0.090593 0.138697 0.382851
v 0.053237 0.161886 0.382321
v 0.040230 0.119553 0.384023
v -0.003465 0.120792 0.382926
v -0.043698 0.111849 0.384085
v -0.074532 0.145584 0.385566
v -0.137451 0.150737 0.359605
v -0.161140 0.176230 0.332708
v -0.162777 0.117409 0.359980
v -0.136691 0.087638 0.385225
v -0.184915 0.079111 0.356260
v -0.211480 0.109189 0.332357
v -0.190883 0.038195 0.346968
v -0.157985 0.048920 0.379256
v -0.189545 -0.004503 0.339967
v -0.155184 0.006067 0.369056
v -0.152924 -0.036481 0.360200
v -0.184301 -0.043688 0.335083
v -0.170001 -0.080032 0.336689
v -0.130896 -0.070650 0.352203
v -0.147351 -0.114045 0.327398
v -0.186681 -0.123674 0.311911
v -0.130482 -0.177730 0.305862
v -0.085422 -0.160056 0.319593
v -0.060310 -0.207841 0.298788
v -0.012946 -0.178418 0.314233
v 0.036399 -0.144840 0.332752
v 0.025249 -0.178959 0.312706
v 0.014269 -0.214698 0.295509
v 0.085482 -0.194898 0.290814
v 0.095403 -0.152637 0.313909
v 0.145268 -0.153276 0.287407
v 0.147882 -0.103270 0.313168
v 0.149232 -0.045487 0.343277
v 0.170200 -0.071026 0.317393
v 0.191392 -0.096810 0.291332
v 0.223268 -0.027982 0.305599
v 0.192717 0.003914 0.336112
v 0.156305 -0.004946 0.356432
v 0.162907 0.035961 0.368390
v 0.196162 0.043581 0.343303
v 0.182469 0.082058 0.347192
v 0.145237 0.075509 0.375099
v 0.165028 0.121595 0.354387
v 0.201895 0.127886 0.326061
v 0.135598 0.149963 0.351110
v 0.098563 0.173575 0.351767
v 0.061506 0.188678 0.346219
v 0.022463 0.194958 0.348931
v 0.009284 0.163379 0.382046
v -0.021509 0.196594 0.348919
v -0.008300 0.227829 0.315247
v -0.087593 0.214429 0.321697
v -0.100425 0.169417 0.353128
v -0.181635 0.198291 0.302086
v -0.203064 0.221353 0.273172
v -0.211562 0.166619 0.305413
v -0.186147 0.142646 0.332286
v -0.236486 0.132973 0.304838
v -0.261984 0.157009 0.278119
v -0.247564 0.090946 0.299554
v -0.217401 0.068143 0.323343
v -0.253134 0.050018 0.290517
v -0.284411 0.072985 0.267712
v -0.250506 0.008630 0.284485
v -0.224235 0.027617 0.315838
v -0.245895 -0.030715 0.280892
v -0.215918 -0.050949 0.309900
v -0.237678 -0.069459 0.279735
v -0.223778 -0.106115 0.281622
v -0.208923 -0.143510 0.284273
v -0.183085 -0.175555 0.287197
v -0.154050 -0.201320 0.282385
v -0.179210 -0.226956 0.262109
v -0.119045 -0.222867 0.283517
v -0.083651 -0.237149 0.278923
v -0.107399 -0.267641 0.260663
v -0.044122 -0.249103 0.280801
v -0.006838 -0.252186 0.278745
v 0.013311 -0.287261 0.261339
v 0.054576 -0.285454 0.261071
v 0.070276 -0.241111 0.277047
v 0.128549 -0.251107 0.252723
v 0.137499 -0.202982 0.271330
v 0.188756 -0.200021 0.245688
v 0.192547 -0.147354 0.268180
v 0.238904 -0.140614 0.247348
v 0.233958 -0.083641 0.272789
v 0.250122 -0.049315 0.280354
v 0.276317 -0.070519 0.254303
v 0.261371 -0.009158 0.286602
v 0.265710 0.030783 0.295513
v 0.227560 0.011902 0.314423
v 0.232353 0.051870 0.323994
v 0.260129 0.072847 0.297301
v 0.244381 0.110677 0.297781
v 0.217341 0.090034 0.325415
v 0.222947 0.147017 0.295241
v 0.192150 0.174359 0.291720
v 0.173489 0.157082 0.324832
v 0.162874 0.202907 0.288899
v 0.181972 0.220645 0.256592
v 0.126809 0.220454 0.285782
v 0.143720 0.185079 0.320910
v 0.070660 0.218395 0.315835
v 0.090290 0.237246 0.283363
v 0.109661 0.255411 0.250073
v 0.052107 0.248230 0.284347
v 0.012615 0.253010 0.284133
v -0.007054 0.280574 0.256363
v -0.047854 0.284369 0.261146
v -0.067721 0.249139 0.291283
v -0.107718 0.238165 0.293109
v -0.144631 0.219333 0.298928
v -0.123975 0.194779 0.326208
v -0.218556 0.238034 0.237521
v -0.232761 0.253333 0.200432
v -0.249318 0.208258 0.239776
v -0.231629 0.188503 0.274571
v -0.278911 0.176224 0.242350
v -0.296677 0.195971 0.207314
v -0.298311 0.137670 0.242622
v -0.272440 0.114730 0.272147
v -0.310392 0.095925 0.238048
v -0.335063 0.118455 0.207348
v -0.312294 0.052787 0.233501
v -0.279934 0.031198 0.259568
v -0.309486 0.011173 0.226741
v -0.332299 -0.007740 0.195525
v -0.321371 -0.048085 0.189700
v -0.275025 -0.010437 0.251025
v -0.288907 -0.067685 0.218462
v -0.260233 -0.088226 0.250406
v -0.297194 -0.123056 0.187669
v -0.263645 -0.143095 0.222288
v -0.244461 -0.125363 0.252537
v -0.232968 -0.164549 0.259259
v -0.265483 -0.196029 0.192180
v -0.223703 -0.211711 0.227318
v -0.205354 -0.195152 0.259767
v -0.197068 -0.243219 0.229123
v -0.214464 -0.258906 0.195402
v -0.162790 -0.265075 0.228869
v -0.142989 -0.246664 0.260703
v -0.126160 -0.284089 0.226901
v -0.145722 -0.302310 0.194657
v -0.089061 -0.301678 0.229717
v -0.067670 -0.278868 0.261634
v -0.049145 -0.312236 0.230138
v -0.070458 -0.334898 0.198077
v -0.007972 -0.320912 0.232771
v 0.033284 -0.319787 0.232928
v 0.074843 -0.311501 0.231617
v 0.111360 -0.293191 0.226409
v 0.091426 -0.268080 0.256670
v 0.147206 -0.271916 0.222856
v 0.178642 -0.248441 0.221380
v 0.230333 -0.244704 0.193037
v 0.235926 -0.191912 0.219573
v 0.261432 -0.162576 0.220721
v 0.284985 -0.185181 0.195058
v 0.281812 -0.127197 0.222381
v 0.300388 -0.092073 0.225842
v 0.325135 -0.113914 0.197659
v 0.312061 -0.052343 0.227453
v 0.287872 -0.030447 0.260857
v 0.323443 -0.012191 0.233806
v 0.349740 0.007772 0.202247
v 0.348531 0.049671 0.202078
v 0.299157 0.009705 0.267141
v 0.317645 0.071658 0.235957
v 0.292149 0.051512 0.267505
v 0.286713 0.093435 0.269384
v 0.304747 0.111352 0.234627
v 0.283388 0.147712 0.231925
v 0.265045 0.129545 0.266423
v 0.244045 0.166194 0.264272
v 0.260004 0.181764 0.229267
v 0.231048 0.209973 0.228436
v 0.213073 0.193468 0.260510
v 0.218364 0.254010 0.192947
v 0.163423 0.253244 0.220538
v 0.145621 0.286816 0.185623
v 0.090835 0.282606 0.216917
v 0.033486 0.277536 0.252318
v 0.052866 0.293988 0.218318
v 0.072361 0.311022 0.184715
v 0.014530 0.306752 0.223941
v -0.026186 0.308526 0.226934
v -0.067131 0.306880 0.229482
v -0.107266 0.295809 0.231479
v -0.087966 0.273153 0.262898
v -0.128136 0.262497 0.265178
v -0.144680 0.278983 0.230470
v -0.181751 0.257864 0.234003
v -0.165362 0.241504 0.268714
v -0.237396 0.258342 0.158463
v -0.245700 0.267297 0.119069
v -0.267703 0.232134 0.160691
v -0.264856 0.224831 0.204009
v -0.298278 0.202576 0.163305
v -0.302512 0.210935 0.121011
v -0.320956 0.169009 0.164978
v -0.317891 0.158255 0.208724
v -0.341593 0.130783 0.165683
v -0.346535 0.142536 0.123055
v -0.355369 0.091807 0.166343
v -0.338069 0.075599 0.203683
v -0.360755 0.049231 0.163809
v -0.376956 0.065301 0.125647
v -0.359113 0.007376 0.161781
v -0.350721 -0.033036 0.157377
v -0.368126 -0.057569 0.123031
v -0.357327 -0.097293 0.121546
v -0.326183 -0.109788 0.154001
v -0.309203 -0.146118 0.153149
v -0.295544 -0.183769 0.156644
v -0.272069 -0.216010 0.155754
v -0.247531 -0.248236 0.157963
v -0.239345 -0.226888 0.193262
v -0.219797 -0.277281 0.158694
v -0.184297 -0.297511 0.157460
v -0.179955 -0.280428 0.194889
v -0.150821 -0.319655 0.158258
v -0.112577 -0.331983 0.157693
v -0.107927 -0.318084 0.196030
v -0.074947 -0.348188 0.159345
v -0.079940 -0.363706 0.121509
v -0.035349 -0.357978 0.161259
v -0.029192 -0.343356 0.200660
v 0.005957 -0.366392 0.163935
v -0.000022 -0.380284 0.123889
v 0.046395 -0.360915 0.163454
v 0.011921 -0.353411 0.204232
v 0.053220 -0.343476 0.201944
v 0.087723 -0.351884 0.161875
v 0.081050 -0.369275 0.122978
v 0.124387 -0.335341 0.160567
v 0.094835 -0.336534 0.201508
v 0.130571 -0.315073 0.197800
v 0.160547 -0.314603 0.157265
v 0.154025 -0.334144 0.119500
v 0.195219 -0.295238 0.157535
v 0.166679 -0.294320 0.194585
v 0.226104 -0.269252 0.156039
v 0.223989 -0.296405 0.120533
v 0.259619 -0.246217 0.158206
v 0.286392 -0.216060 0.158840
v 0.310247 -0.182893 0.159117
v 0.331233 -0.147821 0.160862
v 0.304734 -0.149440 0.196148
v 0.347641 -0.110089 0.161403
v 0.358157 -0.069812 0.162470
v 0.336654 -0.073989 0.199174
v 0.348720 -0.034203 0.201038
v 0.361491 -0.029183 0.160887
v 0.362641 0.012523 0.162011
v 0.359698 0.052856 0.161695
v 0.349215 0.091770 0.161591
v 0.336470 0.089788 0.201425
v 0.336045 0.131339 0.160327
v 0.351916 0.134393 0.122112
v 0.316624 0.166421 0.159907
v 0.323377 0.129546 0.200101
v 0.301140 0.164541 0.198646
v 0.294089 0.200925 0.158272
v 0.310559 0.203368 0.120370
v 0.266242 0.228992 0.157304
v 0.279105 0.199561 0.197308
v 0.249750 0.227712 0.195979
v 0.234697 0.254786 0.154235
v 0.253842 0.258726 0.117681
v 0.201878 0.274890 0.153003
v 0.165342 0.290676 0.149111
v 0.186321 0.296872 0.113948
v 0.131003 0.305530 0.148948
v 0.094364 0.317651 0.148464
v 0.116250 0.323949 0.112095
v 0.044556 0.346844 0.114094
v 0.019925 0.338297 0.152773
v -0.004562 0.331727 0.192296
v -0.018393 0.345412 0.155131
v -0.059080 0.343039 0.157181
v -0.045651 0.332434 0.196221
v -0.086111 0.328325 0.197152
v -0.096729 0.333336 0.156373
v -0.134935 0.318925 0.156763
v -0.124191 0.313121 0.197324
v -0.161250 0.295545 0.195909
v -0.169154 0.300638 0.155701
v -0.205100 0.279952 0.158196
v -0.196929 0.274307 0.198077
v -0.256327 0.278748 0.080601
v -0.266634 0.289856 0.041865
v -0.282394 0.246609 0.080337
v -0.310384 0.218117 0.081230
v -0.319852 0.226423 0.041672
v -0.329899 0.182252 0.081471
v -0.323370 0.176324 0.121615
v -0.348959 0.146556 0.081537
v -0.354601 0.151913 0.041043
v -0.368721 0.109548 0.082723
v -0.362972 0.104330 0.124797
v -0.382360 0.070635 0.083600
v -0.385904 0.075554 0.041812
v -0.392159 0.028756 0.084174
v -0.378925 0.023586 0.125419
v -0.394348 -0.012620 0.084091
v -0.407186 -0.007306 0.043285
v -0.389391 -0.055551 0.084103
v -0.376166 -0.094675 0.082040
v -0.396799 -0.092552 0.043302
v -0.363977 -0.135830 0.082664
v -0.322950 -0.169919 0.119690
v -0.342783 -0.170306 0.080775
v -0.366554 -0.172662 0.043069
v -0.324210 -0.208821 0.081700
v -0.281340 -0.238135 0.120788
v -0.302212 -0.242087 0.081817
v -0.320446 -0.244146 0.042809
v -0.274749 -0.275270 0.082267
v -0.223724 -0.293925 0.120872
v -0.245204 -0.302277 0.082111
v -0.264679 -0.308387 0.043179
v -0.211039 -0.328719 0.082532
v -0.154731 -0.334554 0.120449
v -0.174822 -0.345857 0.081506
v -0.195323 -0.358276 0.043345
v -0.135554 -0.362937 0.081828
v -0.098075 -0.376850 0.082165
v -0.116164 -0.390276 0.043258
v -0.056245 -0.385259 0.082427
v -0.040193 -0.373900 0.123365
v -0.016283 -0.393367 0.083584
v -0.031998 -0.400286 0.042633
v 0.025963 -0.389211 0.083101
v 0.040663 -0.375965 0.123848
v 0.066822 -0.386485 0.083307
v 0.051708 -0.397676 0.042584
v 0.106113 -0.371074 0.082400
v 0.143244 -0.355260 0.081133
v 0.131156 -0.373045 0.041987
v 0.181537 -0.339068 0.081196
v 0.217132 -0.321008 0.081909
v 0.207011 -0.340446 0.042277
v 0.255458 -0.301006 0.082603
v 0.256638 -0.272221 0.122030
v 0.289859 -0.278407 0.084634
v 0.313425 -0.270704 0.044160
v 0.343412 -0.239422 0.044397
v 0.290055 -0.248720 0.123881
v 0.340314 -0.210584 0.084140
v 0.312662 -0.214452 0.123568
v 0.336765 -0.181368 0.123913
v 0.359916 -0.171973 0.084155
v 0.375943 -0.134153 0.084191
v 0.352651 -0.143678 0.124079
v 0.367522 -0.105422 0.123846
v 0.383002 -0.091600 0.083051
v 0.390959 -0.051808 0.083168
v 0.371834 -0.064718 0.122923
v 0.377812 -0.024477 0.122597
v 0.390907 -0.009315 0.082493
v 0.387862 0.030786 0.082043
v 0.372496 0.056283 0.122052
v 0.385422 0.073065 0.082636
v 0.374269 0.111841 0.082489
v 0.360673 0.151862 0.082462
v 0.340112 0.186426 0.081824
v 0.315155 0.219978 0.081684
v 0.286155 0.247522 0.080140
v 0.251809 0.270222 0.078779
v 0.220371 0.292434 0.077825
v 0.186321 0.312425 0.076824
v 0.152347 0.327898 0.076342
v 0.116577 0.346120 0.076348
v 0.081066 0.358145 0.077446
v 0.041691 0.371206 0.078294
v 0.003167 0.375925 0.079815
v -0.032390 0.360288 0.118224
v -0.038302 0.376609 0.080095
v -0.076238 0.366711 0.079617
v -0.108454 0.342009 0.117411
v -0.114978 0.353075 0.078972
v -0.149863 0.336220 0.078591
v -0.177976 0.307328 0.116377
v -0.186907 0.319770 0.078762
v -0.219812 0.298319 0.079746
v -0.297913 0.262867 -0.000424
v -0.291027 0.256190 0.041441
v -0.325473 0.230384 -0.000546
v -0.342370 0.192784 -0.000843
v -0.336374 0.188674 0.041248
v -0.360364 0.154369 -0.000699
v -0.378761 0.117052 -0.000162
v -0.371637 0.114010 0.041584
v -0.390249 0.076403 -0.000288
v -0.397568 0.034642 0.000408
v -0.396681 0.034174 0.042564
v -0.407864 -0.007323 0.000275
v -0.410395 -0.051149 0.000340
v -0.402357 -0.050027 0.043335
v -0.395503 -0.092271 0.000340
v -0.384645 -0.133792 0.000179
v -0.378718 -0.131560 0.042836
v -0.368453 -0.173569 -0.000014
v -0.347423 -0.210671 -0.000028
v -0.342920 -0.208187 0.042871
v -0.325745 -0.248160 -0.000279
v -0.299365 -0.281874 -0.000134
v -0.293049 -0.276671 0.043065
v -0.270081 -0.314636 -0.000244
v -0.238953 -0.345201 -0.000169
v -0.229038 -0.331958 0.043074
v -0.199466 -0.365809 -0.000014
v -0.158026 -0.378479 -0.000173
v -0.154568 -0.371222 0.042935
v -0.117653 -0.395260 0.000194
v -0.075348 -0.401625 0.000065
v -0.074023 -0.395890 0.043012
v -0.032721 -0.408980 0.000225
v 0.009538 -0.404531 0.000021
v 0.009689 -0.399077 0.042619
v 0.052339 -0.402606 0.000097
v 0.092655 -0.393034 -0.000298
v 0.091581 -0.386381 0.042401
v 0.132594 -0.377172 0.000012
v 0.170659 -0.361229 0.000292
v 0.169497 -0.357331 0.042211
v 0.208730 -0.343274 0.000223
v 0.248444 -0.326069 0.001049
v 0.244705 -0.320384 0.042992
v 0.283428 -0.301720 0.043903
v 0.285956 -0.304413 0.000679
v 0.314547 -0.271725 0.000821
v 0.341145 -0.237816 0.000917
v 0.360082 -0.199202 0.000587
v 0.360588 -0.199679 0.043939
v 0.377202 -0.159953 0.043426
v 0.381582 -0.161825 0.000672
v 0.392249 -0.120403 0.000536
v 0.389398 -0.119426 0.043406
v 0.403415 -0.079045 0.043586
v 0.407811 -0.079910 0.000280
v 0.404475 -0.037015 0.000106
v 0.403964 -0.036500 0.043225
v 0.406209 0.005731 0.043059
v 0.410286 0.005790 0.000160
v 0.407329 0.047658 0.000139
v 0.398205 0.047165 0.042712
v 0.395844 0.089255 0.043006
v 0.404411 0.091190 0.000269
v 0.391733 0.131840 0.000276
v 0.385012 0.130039 0.043320
v 0.370540 0.169765 0.043206
v 0.373035 0.170897 0.000433
v 0.345080 0.202661 -0.000326
v 0.344479 0.202607 0.042608
v 0.318010 0.235528 0.041976
v 0.317032 0.234760 0.000480
v 0.284638 0.259379 -0.000310
v 0.283784 0.258811 0.040957
v 0.250248 0.282241 0.040006
v 0.254219 0.286705 -0.039504
v 0.221016 0.308501 0.000333
v 0.187387 0.329789 0.040231
v 0.191125 0.336437 -0.000498
v 0.157284 0.358666 -0.000022
v 0.152675 0.350479 0.040777
v 0.117904 0.371379 0.041342
v 0.121946 0.384420 -0.000902
v 0.083689 0.402665 -0.000698
v 0.077935 0.380326 0.041415
v 0.038516 0.392369 0.041842
v 0.039843 0.407029 -0.000830
v -0.001774 0.408238 -0.000878
v -0.002782 0.394878 0.042166
v -0.044027 0.391453 0.041826
v -0.045409 0.403059 -0.000730
v -0.085182 0.392555 -0.001143
v -0.082898 0.377889 0.041315
v -0.122624 0.367433 0.041163
v -0.125789 0.376750 -0.000728
v -0.164377 0.363203 -0.000801
v -0.194603 0.330146 0.040730
v -0.200632 0.340245 -0.000524
v -0.234475 0.316527 -0.000062
v -0.229586 0.308810 0.041123
v -0.269187 0.292625 -0.000334
v -0.272572 0.296291 -0.042478
v -0.287637 0.250274 -0.080666
v -0.302308 0.265823 -0.042754
v -0.330010 0.233582 -0.042727
v -0.315036 0.221430 -0.081570
v -0.337723 0.185771 -0.082298
v -0.349541 0.195846 -0.042599
v -0.370533 0.158714 -0.042648
v -0.360487 0.151423 -0.083534
v -0.375413 0.111500 -0.083960
v -0.378980 0.116688 -0.042159
v -0.396188 0.077569 -0.042710
v -0.387083 0.071532 -0.084034
v -0.391528 0.028841 -0.084016
v -0.401099 0.035114 -0.042822
v -0.406364 -0.007309 -0.042974
v -0.391142 -0.012564 -0.083145
v -0.384139 -0.054874 -0.082694
v -0.402802 -0.050064 -0.043141
v -0.399278 -0.093141 -0.043316
v -0.380086 -0.095810 -0.083208
v -0.370379 -0.138104 -0.083964
v -0.385396 -0.134292 -0.043306
v -0.373127 -0.175760 -0.043480
v -0.353939 -0.176033 -0.083795
v -0.335494 -0.215706 -0.084479
v -0.354541 -0.215568 -0.043944
v -0.332011 -0.252901 -0.043884
v -0.313459 -0.251191 -0.084677
v -0.284035 -0.284320 -0.084716
v -0.305034 -0.287929 -0.044306
v -0.275411 -0.320801 -0.044344
v -0.249790 -0.307930 -0.082768
v -0.214856 -0.334889 -0.083299
v -0.241671 -0.349800 -0.044803
v -0.203305 -0.372799 -0.044414
v -0.179472 -0.354864 -0.082492
v -0.135787 -0.364511 -0.080999
v -0.160568 -0.385159 -0.043795
v -0.119809 -0.402443 -0.043770
v -0.098807 -0.379457 -0.081370
v -0.055517 -0.383545 -0.080518
v -0.075883 -0.406005 -0.043190
v -0.033197 -0.414809 -0.043211
v -0.016415 -0.395080 -0.082436
v 0.026763 -0.393828 -0.082326
v 0.010158 -0.411367 -0.042875
v 0.053464 -0.411524 -0.042939
v 0.067433 -0.390545 -0.082565
v 0.109280 -0.380827 -0.082817
v 0.095407 -0.402126 -0.042949
v 0.136050 -0.387142 -0.042320
v 0.145051 -0.360124 -0.080462
v 0.183807 -0.342844 -0.080477
v 0.173993 -0.367263 -0.042062
v 0.212903 -0.350190 -0.042133
v 0.216920 -0.321154 -0.079781
v 0.254265 -0.299225 -0.080408
v 0.250678 -0.328925 -0.042721
v 0.290048 -0.308789 -0.043515
v 0.281190 -0.270520 -0.079772
v 0.315951 -0.273155 -0.043076
v 0.307613 -0.236455 -0.079309
v 0.277349 -0.237619 -0.116879
v 0.334025 -0.206940 -0.080600
v 0.341774 -0.238249 -0.042682
v 0.363626 -0.201069 -0.042792
v 0.354430 -0.168952 -0.080537
v 0.327033 -0.176052 -0.118800
v 0.374350 -0.133603 -0.082210
v 0.384035 -0.162871 -0.042709
v 0.399570 -0.122157 -0.043015
v 0.389629 -0.093017 -0.082520
v 0.365243 -0.104762 -0.121476
v 0.399064 -0.053012 -0.083201
v 0.416414 -0.081609 -0.043465
v 0.417110 -0.037586 -0.043120
v 0.401776 -0.009495 -0.083023
v 0.382911 -0.024847 -0.122731
v 0.395207 0.030973 -0.081556
v 0.421993 0.005949 -0.043242
v 0.417854 0.049350 -0.043391
v 0.385281 0.073132 -0.080673
v 0.368004 0.055517 -0.119012
v 0.376248 0.111830 -0.080707
v 0.411070 0.092694 -0.043246
v 0.392872 0.132470 -0.042796
v 0.361068 0.152120 -0.080634
v 0.345688 0.131852 -0.118520
v 0.337871 0.184510 -0.079171
v 0.375431 0.171984 -0.042417
v 0.344968 0.202731 -0.041340
v 0.311184 0.217238 -0.078769
v 0.306342 0.200384 -0.117477
v 0.286463 0.247515 -0.078836
v 0.316225 0.234123 -0.040463
v 0.284772 0.260029 -0.039917
v 0.255424 0.274140 -0.078380
v 0.254663 0.259336 -0.116872
v 0.226907 0.302087 -0.079984
v 0.225305 0.316284 -0.040335
v 0.196981 0.330357 -0.080434
v 0.197424 0.314594 -0.119706
v 0.163476 0.354154 -0.082450
v 0.198394 0.349458 -0.041625
v 0.162548 0.374341 -0.042597
v 0.126775 0.376613 -0.082940
v 0.127959 0.357092 -0.122626
v 0.087324 0.387844 -0.083386
v 0.125538 0.395986 -0.043186
v 0.083709 0.408767 -0.043718
v 0.044348 0.395163 -0.083055
v 0.048126 0.375462 -0.122720
v 0.003317 0.397796 -0.083710
v 0.041261 0.422721 -0.044365
v -0.002932 0.418232 -0.043986
v -0.040348 0.396268 -0.083750
v -0.033781 0.376187 -0.122727
v -0.080123 0.385092 -0.083045
v -0.046454 0.411953 -0.043405
v -0.088005 0.400643 -0.043264
v -0.120942 0.371212 -0.082571
v -0.114011 0.359520 -0.122901
v -0.155891 0.350613 -0.081049
v -0.129322 0.387129 -0.042877
v -0.166623 0.366389 -0.042572
v -0.203972 0.345865 -0.042291
v -0.226809 0.304890 -0.080506
v -0.239205 0.322036 -0.042534
v -0.257670 0.280287 -0.080135
v -0.245264 0.266966 -0.118604
v -0.258846 0.222508 -0.152710
v -0.304248 0.212207 -0.121492
v -0.287726 0.195827 -0.155349
v -0.308730 0.160483 -0.155548
v -0.326844 0.177920 -0.122645
v -0.349005 0.143556 -0.123653
v -0.331337 0.127294 -0.158679
v -0.342632 0.087444 -0.158551
v -0.359786 0.103742 -0.123422
v -0.374357 0.064815 -0.124537
v -0.357343 0.048795 -0.161785
v -0.356241 0.007217 -0.160272
v -0.373653 0.023395 -0.123410
v -0.376488 -0.017842 -0.123511
v -0.358484 -0.034454 -0.162150
v -0.351273 -0.074879 -0.161646
v -0.369494 -0.058423 -0.123243
v -0.362156 -0.098700 -0.122840
v -0.338122 -0.114522 -0.160495
v -0.350427 -0.138310 -0.123954
v -0.325702 -0.153740 -0.161400
v -0.317017 -0.131343 -0.199682
v -0.301592 -0.187013 -0.158254
v -0.336285 -0.176989 -0.124168
v -0.313272 -0.211321 -0.124098
v -0.278112 -0.221268 -0.158039
v -0.265268 -0.196179 -0.191679
v -0.245190 -0.243965 -0.152979
v -0.290816 -0.246250 -0.124304
v -0.258251 -0.271593 -0.122833
v -0.213622 -0.270474 -0.152166
v -0.199564 -0.241681 -0.181653
v -0.180572 -0.288984 -0.150605
v -0.226952 -0.298389 -0.122031
v -0.153747 -0.332920 -0.119046
v -0.105945 -0.317987 -0.148442
v -0.078298 -0.357401 -0.118432
v -0.064816 -0.310789 -0.182863
v -0.032160 -0.341840 -0.151422
v 0.000216 -0.374098 -0.120763
v 0.005867 -0.348254 -0.153168
v 0.046338 -0.347659 -0.154604
v 0.040715 -0.372316 -0.121486
v 0.081163 -0.368995 -0.121678
v 0.085261 -0.342208 -0.154670
v 0.122655 -0.326910 -0.153847
v 0.155303 -0.336624 -0.119103
v 0.158574 -0.311041 -0.153082
v 0.190840 -0.287629 -0.151633
v 0.220911 -0.292091 -0.117405
v 0.223254 -0.265806 -0.152372
v 0.250758 -0.237729 -0.151533
v 0.224392 -0.238093 -0.186417
v 0.278306 -0.209612 -0.153050
v 0.301222 -0.177507 -0.153021
v 0.277471 -0.180156 -0.188267
v 0.321371 -0.143340 -0.154518
v 0.347453 -0.140812 -0.120610
v 0.337740 -0.106758 -0.154354
v 0.314651 -0.110210 -0.189605
v 0.348169 -0.068775 -0.155196
v 0.376316 -0.065268 -0.122891
v 0.355525 -0.028569 -0.155197
v 0.330540 -0.032500 -0.188892
v 0.352726 0.010396 -0.153983
v 0.373493 0.015427 -0.120194
v 0.331597 0.088167 -0.150663
v 0.300598 0.120062 -0.184433
v 0.303897 0.160427 -0.151208
v 0.267100 0.190533 -0.187362
v 0.262554 0.226435 -0.153147
v 0.237178 0.257219 -0.154782
v 0.208163 0.284490 -0.155827
v 0.175592 0.308615 -0.157313
v 0.141775 0.331906 -0.159919
v 0.162402 0.335052 -0.120874
v 0.102327 0.343138 -0.158643
v 0.088210 0.366737 -0.122842
v 0.062611 0.353416 -0.159287
v 0.077014 0.330674 -0.195605
v 0.021826 0.356138 -0.158732
v 0.007044 0.375682 -0.122674
v -0.019173 0.357508 -0.159064
v -0.004409 0.337495 -0.195008
v -0.059507 0.351650 -0.159108
v -0.073464 0.366474 -0.122315
v -0.099214 0.341478 -0.158464
v -0.085392 0.326685 -0.195679
v -0.134590 0.322189 -0.155738
v -0.148270 0.337249 -0.120880
v -0.183006 0.316113 -0.119284
v -0.200667 0.276648 -0.153972
v -0.214029 0.233412 -0.184425
v -0.227362 0.190638 -0.219434
v -0.268316 0.177489 -0.187590
v -0.235693 0.141499 -0.250566
v -0.273273 0.125690 -0.221394
v -0.312088 0.110379 -0.193139
v -0.292160 0.090074 -0.224818
v -0.303370 0.050927 -0.226070
v -0.325437 0.071558 -0.195887
v -0.337880 0.032383 -0.198041
v -0.315708 0.010454 -0.233108
v -0.338778 -0.009417 -0.199092
v -0.318429 -0.031195 -0.235362
v -0.295861 -0.011305 -0.269766
v -0.312353 -0.073693 -0.236761
v -0.340584 -0.051025 -0.200703
v -0.329845 -0.091511 -0.200869
v -0.301198 -0.114136 -0.236725
v -0.283888 -0.096342 -0.272705
v -0.276142 -0.148523 -0.230073
v -0.290835 -0.163522 -0.195442
v -0.214593 -0.201994 -0.218563
v -0.166361 -0.211635 -0.243600
v -0.150200 -0.245436 -0.211345
v -0.133799 -0.278870 -0.178733
v -0.100862 -0.252938 -0.245360
v -0.082909 -0.281971 -0.214279
v -0.045420 -0.293801 -0.216246
v -0.007257 -0.301501 -0.218413
v 0.011565 -0.326389 -0.187502
v 0.032132 -0.300059 -0.218197
v 0.089390 -0.315515 -0.187747
v 0.070969 -0.293877 -0.217796
v 0.052646 -0.272672 -0.248188
v 0.109390 -0.284036 -0.220137
v 0.160111 -0.282075 -0.185168
v 0.177320 -0.245485 -0.219715
v 0.212589 -0.225378 -0.223089
v 0.239724 -0.196888 -0.224640
v 0.264002 -0.163777 -0.223058
v 0.283051 -0.129057 -0.224133
v 0.292455 -0.089526 -0.218482
v 0.300685 -0.050925 -0.218415
v 0.304156 -0.011813 -0.217615
v 0.323279 0.045849 -0.185831
v 0.300046 0.027242 -0.215786
v 0.278358 0.008837 -0.246755
v 0.295817 0.066554 -0.218287
v 0.268972 0.087283 -0.250989
v 0.270034 0.141359 -0.221076
v 0.229794 0.209028 -0.225485
v 0.219664 0.255111 -0.192791
v 0.204949 0.242681 -0.229764
v 0.172406 0.267449 -0.231385
v 0.187222 0.279965 -0.194560
v 0.154795 0.304688 -0.196266
v 0.137004 0.291058 -0.233572
v 0.098251 0.304140 -0.233421
v 0.116500 0.319195 -0.196940
v 0.056631 0.315177 -0.233742
v 0.015944 0.318675 -0.233434
v 0.036371 0.335436 -0.196141
v -0.026690 0.315177 -0.231643
v -0.044922 0.332633 -0.195677
v -0.067123 0.309525 -0.231857
v -0.049031 0.293053 -0.268521
v -0.105054 0.291243 -0.227056
v -0.120389 0.305954 -0.192192
v -0.155252 0.285192 -0.188654
v -0.169430 0.245124 -0.221763
v -0.186633 0.203989 -0.251530
v -0.192382 0.152646 -0.279792
v -0.215147 0.121042 -0.278646
v -0.233971 0.085516 -0.282152
v -0.273109 0.070068 -0.257120
v -0.248636 0.048715 -0.286712
v -0.260706 0.008236 -0.293934
v -0.284690 0.029435 -0.263645
v -0.264018 -0.033074 -0.301292
v -0.290622 -0.053957 -0.271968
v -0.258319 -0.075749 -0.303128
v -0.231274 -0.054736 -0.331742
v -0.240314 -0.113500 -0.300631
v -0.257705 -0.130092 -0.265108
v -0.229883 -0.162807 -0.255643
v -0.182022 -0.171560 -0.286863
v -0.198624 -0.187534 -0.250184
v -0.150914 -0.198427 -0.281043
v -0.119398 -0.220728 -0.284307
v -0.083224 -0.239571 -0.284476
v -0.045373 -0.250376 -0.285058
v -0.026154 -0.277513 -0.250136
v -0.005502 -0.251191 -0.279115
v 0.033808 -0.247370 -0.276474
v 0.015177 -0.223648 -0.306604
v 0.070410 -0.236256 -0.272736
v 0.128754 -0.250868 -0.251132
v 0.144546 -0.206827 -0.279255
v 0.164478 -0.231373 -0.255028
v 0.200388 -0.212236 -0.259312
v 0.155656 -0.164101 -0.306324
v 0.203457 -0.155977 -0.282449
v 0.224936 -0.179380 -0.257868
v 0.250622 -0.147466 -0.257847
v 0.228535 -0.126072 -0.284666
v 0.236848 -0.085628 -0.276736
v 0.260262 -0.107965 -0.252101
v 0.272180 -0.069480 -0.248756
v 0.247336 -0.048765 -0.275598
v 0.252446 -0.009637 -0.277100
v 0.251885 0.029442 -0.279573
v 0.247275 0.068667 -0.281769
v 0.225562 0.050048 -0.312526
v 0.235096 0.107074 -0.286944
v 0.254139 0.124912 -0.254236
v 0.238561 0.161992 -0.256599
v 0.195284 0.178171 -0.294297
v 0.213154 0.194740 -0.259945
v 0.189647 0.229536 -0.265983
v 0.168411 0.209195 -0.296407
v 0.133511 0.233760 -0.299433
v 0.154252 0.253343 -0.268135
v 0.119326 0.277610 -0.270900
v 0.097044 0.253670 -0.301058
v 0.055308 0.263970 -0.300664
v 0.077870 0.288629 -0.271318
v 0.036311 0.299829 -0.271882
v 0.014014 0.268238 -0.299408
v -0.006332 0.296205 -0.269974
v -0.028618 0.264720 -0.297600
v -0.008271 0.236753 -0.327033
v -0.067587 0.252426 -0.293052
v -0.086797 0.274134 -0.262972
v -0.125006 0.256911 -0.259106
v -0.136793 0.208607 -0.285494
v -0.155915 0.230621 -0.255506
v -0.149895 0.164512 -0.310426
v -0.149522 0.107604 -0.329982
v -0.196169 0.101456 -0.308881
v -0.170657 0.073175 -0.329435
v -0.185013 0.036272 -0.333170
v -0.225671 0.027703 -0.317984
v -0.188492 -0.004748 -0.341501
v -0.228138 -0.013419 -0.324359
v -0.191959 -0.045730 -0.346701
v -0.176523 -0.084170 -0.348599
v -0.214007 -0.092697 -0.330149
v -0.197206 -0.130958 -0.329368
v -0.158906 -0.123696 -0.355125
v -0.129563 -0.152921 -0.353020
v -0.167188 -0.159377 -0.325595
v -0.138069 -0.188559 -0.323571
v -0.092520 -0.170407 -0.350960
v -0.101846 -0.207149 -0.323704
v -0.064564 -0.223369 -0.319989
v -0.054557 -0.190876 -0.344781
v -0.014718 -0.191530 -0.339120
v -0.024808 -0.224202 -0.314339
v 0.026713 -0.187602 -0.326353
v 0.088679 -0.201536 -0.299425
v 0.096873 -0.157100 -0.324921
v 0.106291 -0.110992 -0.337346
v 0.153598 -0.106272 -0.320636
v 0.201208 -0.101738 -0.304523
v 0.176521 -0.073937 -0.326057
v 0.221426 -0.027838 -0.301150
v 0.189148 0.001667 -0.330999
v 0.195295 0.043095 -0.341729
v 0.182982 0.081403 -0.346815
v 0.212016 0.087863 -0.315584
v 0.201036 0.126851 -0.322822
v 0.163948 0.120302 -0.350249
v 0.173994 0.157831 -0.324614
v 0.137614 0.151773 -0.353452
v 0.127878 0.114478 -0.379808
v 0.100430 0.174338 -0.351658
v 0.147499 0.189265 -0.327458
v 0.111412 0.210044 -0.330456
v 0.074481 0.229065 -0.330568
v 0.022199 0.197074 -0.349378
v 0.033063 0.232567 -0.328293
v -0.020163 0.196236 -0.343721
v -0.047370 0.225024 -0.323345
v -0.086278 0.212322 -0.318188
v -0.090868 0.159975 -0.335076
v -0.102201 0.113241 -0.349437
v -0.097348 0.050767 -0.358936
v -0.146015 0.045238 -0.351841
v -0.102310 0.009658 -0.367142
v -0.150730 0.003896 -0.359288
v -0.155321 -0.037331 -0.366440
v -0.114763 -0.028030 -0.370546
v -0.096506 -0.067116 -0.375441
v -0.137438 -0.076391 -0.372232
v -0.119300 -0.115354 -0.377357
v -0.058782 -0.088261 -0.370064
v -0.082039 -0.136954 -0.373905
v -0.044534 -0.158326 -0.369652
v -0.032002 -0.117553 -0.371630
v 0.009277 -0.113450 -0.358648
v -0.003237 -0.154178 -0.356507
v 0.038051 -0.149949 -0.343155
v 0.043435 -0.093976 -0.355747
v 0.057469 -0.058466 -0.369923
v 0.106813 -0.053279 -0.365285
v 0.153204 -0.046712 -0.350369
v 0.111263 -0.011004 -0.369807
v 0.157827 -0.005206 -0.357400
v 0.165325 0.036209 -0.371498
v 0.125725 0.027121 -0.383592
v 0.106700 0.066167 -0.386713
v 0.146601 0.075344 -0.375653
v 0.069382 0.088339 -0.384879
v 0.090312 0.136345 -0.376529
v 0.052743 0.158213 -0.373249
v 0.040625 0.118753 -0.383232
v -0.001869 0.117718 -0.377421
v 0.010304 0.156227 -0.364970
v -0.032073 0.155854 -0.360659
v -0.037048 0.096206 -0.371123
v -0.067306 0.134774 -0.355738
v -0.050004 0.057120 -0.371946
v 0.003884 -0.000826 -0.390174
v -0.073729 -0.018619 -0.374324
v -0.019369 -0.076439 -0.371593
v 0.044730 0.008544 -0.385661
v 0.070890 -0.019997 -0.377920
v 0.084905 0.017758 -0.390375
v 0.056686 0.048100 -0.390443
v 0.016158 0.039126 -0.385846
v -0.010579 0.067325 -0.377814
v -0.059020 0.183653 -0.338607
v 0.187915 -0.037372 -0.326748
v 0.063339 -0.175691 -0.321227
v -0.213136 -0.146628 -0.291700
v -0.105224 0.233698 -0.287387
v -0.192621 0.329541 -0.080582
v -0.140752 0.272232 -0.224938
v 0.219756 0.144408 -0.289469
v -0.143629 -0.305594 -0.148732
v -0.060930 0.189034 0.350480
v 0.344865 0.050579 -0.151736
v 0.127594 0.114937 0.381727
v 0.063381 0.192884 -0.350461
v 0.186959 -0.036912 0.325976
v -0.034743 0.165191 0.382541
v 0.027806 0.079163 0.393367
v 0.028212 0.078336 -0.389030
v 0.323354 0.029615 0.234309
v -0.120048 -0.141743 0.326233
v -0.028171 0.257125 0.289555
v 0.034415 -0.249880 0.277995
v 0.320001 -0.246532 0.084901
v -0.379390 -0.017906 0.124678
v -0.027921 -0.290094 0.262598
v 0.061152 -0.170508 0.313068
v -0.340511 0.032700 0.199674
v -0.298887 -0.029311 0.220938
v 0.058222 0.327437 0.148704
v -0.339801 -0.072772 0.155864
s 0
f 1 2 3
f 4 3 5
f 4 5 6
f 4 6 7
f 4 7 8
f 1 9 10
f 11 12 13
f 2 14 3
f 3 14 15
f 3 15 16
f 3 16 5
f 17 18 19
f 5 19 20
f 5 21 6
f 6 21 22
f 6 22 23
f 6 24 7
f 7 24 25
f 7 25 26
f 7 26 27
f 28 29 30
f 31 30 32
f 9 32 10
f 33 34 12
f 35 36 37
f 12 37 38
f 39 40 41
f 42 43 44
f 45 43 46
f 45 46 47
f 45 47 48
f 49 50 51
f 18 52 19
f 19 52 53
f 19 53 54
f 19 54 55
f 56 57 58
f 55 59 22
f 22 59 60
f 22 60 61
f 22 61 62
f 63 64 65
f 62 66 67
f 68 66 69
f 68 69 70
f 68 70 71
f 72 73 74
f 29 75 30
f 30 75 76
f 30 76 77
f 30 77 78
f 79 80 81
f 34 82 12
f 35 82 36
f 83 84 85
f 36 85 86
f 87 88 89
f 40 89 90
f 91 92 93
f 94 95 96
f 96 95 97
f 96 98 50
f 50 98 99
f 50 99 100
f 50 100 51
f 101 102 103
f 51 103 53
f 104 105 106
f 53 106 57
f 107 108 109
f 57 110 58
f 58 110 111
f 58 112 60
f 60 112 113
f 60 113 114
f 60 114 64
f 64 115 116
f 64 116 65
f 117 118 119
f 65 120 121
f 122 120 123
f 122 124 125
f 73 124 126
f 73 126 127
f 73 127 128
f 129 130 131
f 132 131 133
f 134 135 136
f 133 136 80
f 137 138 139
f 80 140 81
f 81 140 141
f 81 142 143
f 83 142 84
f 144 145 146
f 84 146 147
f 148 149 150
f 88 150 151
f 152 153 154
f 92 154 155
f 156 157 158
f 159 160 161
f 161 160 162
f 161 163 164
f 165 163 166
f 165 166 167
f 165 167 168
f 169 170 171
f 102 171 172
f 173 174 175
f 105 175 176
f 177 178 179
f 108 180 109
f 109 180 181
f 109 182 183
f 111 182 184
f 111 185 113
f 113 185 186
f 113 186 187
f 113 187 115
f 188 189 190
f 115 190 118
f 191 192 193
f 118 193 194
f 195 196 197
f 198 199 200
f 201 199 202
f 201 203 204
f 205 203 206
f 205 206 207
f 205 207 208
f 130 209 210
f 130 210 135
f 135 211 212
f 135 212 213
f 214 215 216
f 138 217 139
f 139 217 218
f 139 219 220
f 221 219 222
f 221 223 224
f 144 223 145
f 225 226 227
f 145 227 228
f 229 230 231
f 149 231 232
f 233 234 235
f 153 235 236
f 237 238 239
f 157 239 158
f 240 241 242
f 158 243 162
f 162 243 244
f 162 245 166
f 166 245 246
f 166 247 248
f 170 247 249
f 170 250 251
f 174 250 252
f 174 252 253
f 174 253 254
f 255 256 257
f 178 257 258
f 259 260 261
f 262 261 263
f 264 265 266
f 267 266 268
f 269 270 271
f 272 271 186
f 273 274 275
f 186 276 189
f 189 276 277
f 189 278 279
f 192 278 280
f 192 281 282
f 283 281 284
f 196 285 197
f 197 285 286
f 197 286 287
f 197 287 288
f 289 290 291
f 292 291 293
f 294 295 296
f 297 296 298
f 299 300 301
f 209 301 211
f 302 303 304
f 211 304 215
f 305 306 307
f 215 308 309
f 309 308 310
f 309 311 312
f 313 311 314
f 313 315 316
f 317 315 318
f 317 319 320
f 225 319 226
f 321 322 323
f 226 323 230
f 324 325 326
f 230 326 327
f 328 329 330
f 234 330 331
f 332 333 334
f 238 334 335
f 336 337 338
f 241 338 242
f 339 340 341
f 242 341 342
f 343 344 345
f 342 345 346
f 347 348 349
f 346 349 350
f 351 352 353
f 350 353 354
f 355 356 357
f 354 357 256
f 358 359 360
f 256 360 361
f 362 363 364
f 260 364 365
f 366 367 368
f 265 368 270
f 369 370 371
f 270 371 274
f 372 373 374
f 274 374 375
f 376 377 378
f 379 380 381
f 382 380 383
f 382 384 385
f 386 384 387
f 386 388 389
f 390 388 391
f 390 392 393
f 393 392 394
f 393 395 290
f 290 395 396
f 290 397 295
f 295 397 398
f 295 399 300
f 300 399 400
f 300 401 303
f 303 401 402
f 303 403 306
f 306 403 404
f 306 405 307
f 307 405 406
f 307 407 408
f 408 407 409
f 408 410 411
f 411 410 412
f 411 413 414
f 414 413 415
f 414 416 226
f 321 416 322
f 322 417 418
f 325 417 419
f 325 420 421
f 329 420 422
f 329 423 424
f 333 423 425
f 333 426 427
f 337 426 428
f 337 429 430
f 340 429 431
f 340 432 433
f 344 432 434
f 344 435 436
f 348 435 437
f 348 438 439
f 352 438 440
f 352 441 442
f 356 441 443
f 356 444 445
f 359 444 446
f 359 447 448
f 363 447 449
f 363 450 451
f 367 450 452
f 367 453 454
f 370 453 455
f 370 456 457
f 373 456 458
f 373 459 460
f 461 459 462
f 377 463 378
f 378 463 464
f 378 465 466
f 467 465 468
f 467 469 470
f 471 469 472
f 471 473 474
f 475 473 476
f 475 477 478
f 479 477 480
f 479 481 482
f 483 481 484
f 483 485 486
f 487 485 488
f 487 489 490
f 491 489 492
f 491 493 494
f 494 493 495
f 494 496 497
f 498 496 499
f 498 500 501
f 502 500 503
f 502 504 505
f 506 504 507
f 506 508 509
f 510 508 511
f 510 512 513
f 513 512 514
f 513 515 516
f 322 515 517
f 518 519 520
f 521 519 522
f 521 523 524
f 525 523 526
f 525 527 528
f 529 527 530
f 529 531 532
f 533 531 534
f 533 535 536
f 537 535 538
f 537 539 540
f 541 539 542
f 541 543 544
f 545 543 546
f 545 547 548
f 549 547 550
f 549 551 552
f 553 551 554
f 553 555 556
f 557 555 558
f 557 559 560
f 561 559 562
f 561 563 564
f 565 563 566
f 565 567 568
f 569 567 570
f 569 571 572
f 573 571 574
f 573 575 576
f 577 575 578
f 577 578 579
f 580 581 582
f 583 582 584
f 585 586 587
f 588 587 589
f 590 591 592
f 593 592 594
f 595 596 597
f 598 597 599
f 600 601 602
f 603 602 604
f 605 606 607
f 608 607 609
f 610 611 612
f 613 612 614
f 615 616 617
f 492 617 618
f 619 620 621
f 622 621 623
f 624 625 626
f 627 626 628
f 629 630 631
f 632 631 633
f 634 635 636
f 637 636 638
f 639 640 641
f 642 641 643
f 644 645 646
f 518 645 647
f 648 649 650
f 650 649 651
f 650 652 653
f 654 652 655
f 654 656 657
f 658 656 659
f 658 660 661
f 662 660 663
f 662 664 665
f 666 664 667
f 666 667 668
f 669 670 671
f 672 671 673
f 674 675 676
f 677 676 678
f 679 680 681
f 682 681 683
f 683 684 685
f 685 684 686
f 685 687 688
f 688 687 689
f 688 690 691
f 692 690 693
f 692 694 695
f 695 694 696
f 695 697 698
f 698 697 699
f 698 699 581
f 700 701 702
f 581 702 586
f 703 704 705
f 586 705 706
f 707 708 709
f 591 709 710
f 711 712 713
f 596 713 714
f 601 715 606
f 606 715 716
f 606 717 611
f 611 717 718
f 611 719 616
f 616 719 720
f 616 721 620
f 620 721 722
f 620 723 724
f 625 723 725
f 625 725 726
f 727 728 729
f 630 729 730
f 731 732 733
f 635 733 734
f 735 736 737
f 640 737 738
f 739 740 648
f 648 740 741
f 741 742 743
f 743 742 744
f 743 745 746
f 746 745 747
f 746 748 749
f 750 748 751
f 750 751 752
f 753 754 755
f 756 755 757
f 758 759 760
f 670 760 761
f 675 762 680
f 680 762 763
f 680 764 765
f 765 764 766
f 765 767 686
f 686 767 768
f 686 769 770
f 770 769 771
f 770 771 772
f 773 774 775
f 772 775 776
f 776 777 701
f 701 777 778
f 701 779 704
f 704 779 780
f 704 781 708
f 708 781 782
f 708 783 712
f 712 783 784
f 712 784 785
f 786 787 788
f 785 788 716
f 716 789 790
f 716 790 718
f 718 791 792
f 792 791 793
f 792 794 795
f 796 794 797
f 796 798 799
f 728 798 800
f 728 801 802
f 732 801 803
f 732 803 804
f 805 806 807
f 736 807 808
f 809 810 741
f 741 810 811
f 811 812 744
f 744 812 813
f 744 814 815
f 815 814 816
f 815 817 818
f 754 817 819
f 754 819 820
f 821 822 823
f 759 823 824
f 825 826 827
f 763 826 828
f 763 829 766
f 766 829 830
f 766 831 832
f 832 831 833
f 832 833 774
f 834 835 836
f 774 836 837
f 837 838 839
f 840 838 841
f 840 842 843
f 844 842 845
f 844 846 847
f 848 846 849
f 848 850 787
f 787 850 851
f 787 851 789
f 852 853 854
f 789 854 855
f 856 857 858
f 859 857 860
f 859 861 862
f 863 861 864
f 863 865 866
f 867 865 868
f 867 868 869
f 870 871 872
f 806 872 873
f 874 875 876
f 811 875 877
f 877 878 879
f 879 878 880
f 879 881 882
f 882 883 884
f 822 883 885
f 822 886 887
f 888 886 889
f 888 890 891
f 892 893 894
f 895 893 896
f 895 897 898
f 835 897 899
f 835 899 900
f 900 901 841
f 841 901 902
f 841 903 904
f 904 903 905
f 904 905 906
f 906 907 853
f 853 907 908
f 853 909 910
f 911 909 912
f 911 912 913
f 914 915 916
f 917 916 918
f 919 920 921
f 871 920 922
f 871 922 923
f 924 925 877
f 877 925 926
f 926 927 928
f 928 929 930
f 931 929 932
f 931 933 934
f 935 936 937
f 938 936 939
f 938 940 941
f 942 943 902
f 902 943 944
f 902 945 946
f 946 947 948
f 949 947 950
f 949 951 952
f 915 953 954
f 955 953 956
f 955 957 958
f 959 960 961
f 926 960 962
f 962 963 964
f 964 963 965
f 965 963 944
f 944 966 967
f 968 966 969
f 970 963 962
f 915 951 953
f 953 968 969
f 946 945 947
f 947 944 967
f 935 933 936
f 936 964 965
f 928 927 929
f 929 962 964
f 959 957 960
f 960 971 962
f 942 940 943
f 943 965 944
f 892 890 893
f 893 935 937
f 882 881 883
f 883 928 930
f 972 959 925
f 925 959 961
f 973 946 907
f 907 946 948
f 352 440 441
f 441 549 552
f 974 942 901
f 901 942 902
f 348 437 438
f 438 545 548
f 356 443 444
f 444 553 556
f 461 462 463
f 463 577 579
f 502 503 504
f 504 632 633
f 471 472 473
f 473 593 594
f 344 434 435
f 435 541 544
f 337 428 429
f 429 533 536
f 378 464 465
f 465 583 584
f 475 476 477
f 477 598 599
f 373 458 459
f 459 573 576
f 498 499 500
f 500 627 628
f 506 507 508
f 508 637 638
f 359 446 447
f 447 557 560
f 333 425 426
f 426 529 532
f 340 431 432
f 432 537 540
f 467 468 469
f 469 588 589
f 479 480 481
f 481 603 604
f 975 888 826
f 826 888 891
f 363 449 450
f 450 561 564
f 976 924 875
f 875 924 877
f 367 452 453
f 453 565 568
f 483 484 485
f 485 608 609
f 977 739 645
f 645 739 648
f 325 419 420
f 420 521 524
f 370 455 456
f 456 569 572
f 329 422 423
f 423 525 528
f 837 900 838
f 838 900 841
f 510 511 512
f 512 642 643
f 322 517 417
f 417 518 520
f 978 874 810
f 810 874 876
f 518 647 519
f 519 648 650
f 513 514 515
f 515 644 646
f 127 205 208
f 127 130 129
f 979 911 857
f 857 911 913
f 494 495 496
f 496 622 623
f 146 145 228
f 146 149 148
f 636 635 734
f 636 640 639
f 85 84 147
f 85 88 87
f 776 837 777
f 777 837 839
f 287 393 290
f 287 290 289
f 641 640 738
f 641 739 977
f 207 297 298
f 207 209 130
f 253 354 256
f 253 256 255
f 521 522 523
f 523 650 653
f 739 809 740
f 740 809 741
f 631 630 730
f 631 635 634
f 167 166 248
f 167 170 169
f 487 488 489
f 489 613 614
f 221 222 223
f 223 317 320
f 100 165 168
f 100 102 101
f 525 526 527
f 527 654 657
f 323 322 418
f 323 325 324
f 718 856 791
f 791 856 858
f 81 141 142
f 142 221 224
f 317 318 319
f 319 414 226
f 227 226 230
f 227 230 229
f 334 333 427
f 334 337 336
f 980 765 684
f 684 765 686
f 529 530 531
f 531 658 661
f 981 81 82
f 82 81 143
f 491 492 493
f 493 492 618
f 414 415 416
f 416 513 516
f 626 625 726
f 626 630 629
f 37 36 86
f 37 40 39
f 675 825 762
f 762 825 827
f 330 329 424
f 330 333 332
f 338 337 430
f 338 340 339
f 326 325 421
f 326 329 328
f 77 133 80
f 77 80 79
f 283 284 285
f 285 390 393
f 713 712 785
f 713 982 601
f 648 741 649
f 649 741 743
f 983 74 75
f 75 132 133
f 257 256 361
f 257 260 259
f 533 534 535
f 535 662 665
f 231 230 327
f 231 234 233
f 601 982 715
f 715 785 716
f 408 409 410
f 410 506 509
f 537 538 539
f 539 666 668
f 411 412 413
f 413 510 513
f 541 542 543
f 543 672 673
f 685 686 687
f 687 686 770
f 681 680 765
f 681 765 980
f 341 340 433
f 341 344 343
f 701 778 779
f 779 840 843
f 545 546 547
f 547 677 678
f 916 915 954
f 916 984 919
f 919 984 920
f 920 955 958
f 111 184 185
f 185 272 186
f 187 186 189
f 187 189 188
f 291 290 295
f 291 295 294
f 307 406 407
f 407 502 505
f 650 651 652
f 652 743 746
f 823 822 887
f 823 888 975
f 822 885 886
f 886 931 934
f 26 68 71
f 26 983 28
f 853 908 909
f 909 949 952
f 150 149 232
f 150 153 152
f 859 860 861
f 861 917 918
f 895 896 897
f 897 938 941
f 760 759 824
f 760 825 675
f 70 122 125
f 70 73 72
f 345 344 436
f 345 348 347
f 201 202 203
f 203 292 293
f 792 793 794
f 794 859 862
f 549 550 551
f 551 682 683
f 10 13 14
f 14 42 44
f 122 123 124
f 124 201 204
f 840 841 842
f 842 841 904
f 676 675 680
f 676 680 679
f 261 260 365
f 261 265 264
f 931 932 933
f 933 964 936
f 170 249 250
f 250 350 354
f 763 828 829
f 829 892 894
f 985 65 66
f 66 65 121
f 621 620 724
f 621 625 624
f 349 348 439
f 349 352 351
f 737 736 808
f 737 809 739
f 811 877 812
f 812 877 879
f 741 811 742
f 742 811 744
f 171 170 251
f 171 174 173
f 32 30 78
f 32 986 33
f 11 33 12
f 32 33 10
f 31 28 30
f 26 28 987
f 306 404 405
f 405 498 501
f 949 950 951
f 951 968 953
f 192 280 281
f 281 386 389
f 42 41 43
f 43 94 96
f 854 853 910
f 854 911 979
f 353 352 442
f 353 356 355
f 13 12 38
f 13 42 14
f 47 96 50
f 47 50 49
f 235 234 331
f 235 238 237
f 607 606 611
f 607 611 610
f 109 181 182
f 182 267 268
f 131 130 135
f 131 135 134
f 313 314 315
f 315 411 414
f 553 554 555
f 555 683 685
f 709 708 712
f 709 712 711
f 688 689 690
f 690 770 772
f 602 601 606
f 602 606 605
f 161 162 163
f 163 162 166
f 58 111 112
f 112 111 113
f 606 716 717
f 717 716 718
f 790 789 855
f 790 856 718
f 89 88 151
f 89 92 91
f 597 596 714
f 597 601 600
f 139 218 219
f 219 313 316
f 210 209 211
f 210 211 135
f 357 356 445
f 357 359 358
f 103 102 172
f 103 105 104
f 290 396 397
f 397 483 486
f 654 655 656
f 656 746 749
f 877 926 878
f 878 926 928
f 557 558 559
f 559 685 688
f 617 616 620
f 617 620 619
f 955 956 957
f 957 988 960
f 190 189 279
f 190 192 191
f 733 732 804
f 733 736 735
f 296 295 300
f 296 300 299
f 114 113 115
f 114 115 64
f 755 754 820
f 755 759 758
f 807 806 873
f 807 874 978
f 166 246 247
f 247 346 350
f 96 97 98
f 98 161 164
f 303 402 403
f 403 494 497
f 612 611 616
f 612 616 615
f 592 591 710
f 592 596 595
f 796 797 798
f 798 863 866
f 872 871 923
f 872 924 976
f 266 265 270
f 266 270 269
f 393 394 395
f 395 479 482
f 989 197 199
f 199 197 288
f 295 398 399
f 399 487 490
f 841 902 903
f 903 902 946
f 704 780 781
f 781 844 847
f 990 51 52
f 52 51 53
f 991 139 140
f 140 139 220
f 309 310 311
f 311 408 411
f 360 359 448
f 360 363 362
f 743 744 745
f 745 744 815
f 189 277 278
f 278 382 385
f 671 670 761
f 671 675 674
f 561 562 563
f 563 688 691
f 992 109 110
f 110 109 183
f 390 391 392
f 392 475 478
f 578 698 581
f 578 581 580
f 573 574 575
f 575 698 578
f 863 864 865
f 865 919 921
f 582 581 586
f 582 586 585
f 819 882 884
f 819 822 821
f 386 387 388
f 388 471 474
f 611 718 719
f 719 718 792
f 300 400 401
f 401 491 494
f 587 586 706
f 587 591 590
f 993 378 380
f 380 378 466
f 175 174 254
f 175 178 177
f 680 763 764
f 764 763 766
f 775 774 837
f 775 837 776
f 926 962 927
f 927 962 929
f 382 383 384
f 384 467 470
f 239 238 335
f 239 994 240
f 374 373 460
f 374 461 376
f 995 179 180
f 180 262 263
f 902 944 945
f 945 944 947
f 996 58 59
f 59 58 60
f 61 60 64
f 61 64 63
f 364 363 451
f 364 367 366
f 744 813 814
f 814 879 882
f 583 580 582
f 578 580 583
f 938 939 940
f 940 965 943
f 54 53 57
f 54 57 56
f 6 23 24
f 24 62 67
f 16 45 48
f 16 18 17
f 658 659 660
f 660 750 752
f 692 693 694
f 694 772 776
f 565 566 567
f 567 692 695
f 705 704 708
f 705 708 707
f 65 119 120
f 120 198 200
f 616 720 721
f 721 792 795
f 993 376 378
f 374 376 379
f 569 570 571
f 571 695 698
f 729 728 802
f 729 732 731
f 154 153 236
f 154 997 156
f 5 17 19
f 16 17 5
f 766 830 831
f 831 895 898
f 803 867 869
f 803 806 805
f 379 993 380
f 379 376 993
f 116 115 118
f 116 118 117
f 23 22 62
f 23 62 24
f 193 192 282
f 193 283 195
f 162 244 245
f 245 342 346
f 844 845 846
f 846 904 906
f 106 105 176
f 106 995 107
f 554 551 683
f 554 683 555
f 588 585 587
f 582 585 588
f 574 571 698
f 574 698 575
f 301 300 303
f 301 303 302
f 667 756 757
f 667 670 669
f 981 79 81
f 77 79 986
f 368 367 454
f 368 370 369
f 186 275 276
f 276 379 381
f 746 747 748
f 748 815 818
f 998 158 160
f 160 158 162
f 868 865 871
f 868 871 870
f 179 178 258
f 179 262 180
f 836 835 900
f 836 900 837
f 728 800 801
f 801 867 803
f 371 370 457
f 371 373 372
f 593 590 592
f 587 590 593
f 136 135 213
f 136 213 137
f 620 722 723
f 723 796 799
f 788 787 789
f 788 789 716
f 74 73 128
f 74 132 75
f 986 981 82
f 986 79 981
f 662 663 664
f 664 756 667
f 41 40 90
f 41 94 43
f 851 906 853
f 851 853 852
f 751 748 754
f 751 754 753
f 213 216 217
f 217 309 312
f 999 307 308
f 308 307 408
f 815 816 817
f 817 882 819
f 212 211 215
f 212 215 214
f 271 270 274
f 271 274 273
f 983 72 74
f 70 72 983
f 912 909 915
f 912 915 914
f 5 20 21
f 21 55 22
f 998 156 158
f 154 156 159
f 550 547 682
f 550 682 551
f 558 555 685
f 558 685 559
f 383 380 467
f 383 467 384
f 989 195 197
f 193 195 198
f 917 914 916
f 912 914 917
f 20 19 55
f 20 55 21
f 42 39 41
f 37 39 42
f 1000 242 243
f 243 242 342
f 888 889 890
f 890 935 893
f 119 118 194
f 119 198 120
f 889 886 935
f 889 935 890
f 725 723 728
f 725 728 727
f 570 567 695
f 570 695 571
f 598 595 597
f 592 595 598
f 94 93 95
f 95 159 161
f 566 563 692
f 566 692 567
f 992 107 109
f 106 107 57
f 765 766 767
f 767 766 832
f 1000 240 242
f 239 240 158
f 562 559 688
f 562 688 563
f 274 372 374
f 371 372 274
f 603 600 602
f 597 600 603
f 354 355 357
f 353 355 354
f 800 798 867
f 800 867 801
f 387 384 471
f 387 471 388
f 702 701 704
f 702 704 703
f 695 696 697
f 697 776 701
f 708 782 783
f 783 848 787
f 158 1000 243
f 158 240 1000
f 663 660 756
f 663 756 664
f 756 753 755
f 751 753 756
f 275 274 375
f 275 379 276
f 93 92 155
f 93 159 95
f 771 832 774
f 771 774 773
f 256 358 360
f 357 358 256
f 806 870 872
f 868 870 806
f 92 152 154
f 150 152 92
f 922 920 959
f 922 959 972
f 198 989 199
f 198 195 989
f 608 605 607
f 602 605 608
f 672 669 671
f 667 669 672
f 546 543 677
f 546 677 547
f 991 137 139
f 136 137 80
f 265 366 368
f 364 366 265
f 260 362 364
f 360 362 260
f 350 351 353
f 349 351 350
f 630 727 729
f 725 727 630
f 391 388 475
f 391 475 392
f 270 369 371
f 368 369 270
f 216 215 309
f 216 309 217
f 759 821 823
f 819 821 759
f 995 177 179
f 175 177 995
f 94 91 93
f 89 91 94
f 186 273 275
f 271 273 186
f 394 392 479
f 394 479 395
f 346 347 349
f 345 347 346
f 10 11 13
f 10 33 11
f 864 861 919
f 864 919 865
f 342 343 345
f 341 343 342
f 924 972 925
f 922 972 924
f 632 629 631
f 626 629 632
f 76 75 133
f 76 133 77
f 242 339 341
f 338 339 242
f 33 986 34
f 986 82 34
f 38 37 42
f 13 38 42
f 879 880 881
f 881 928 883
f 4 1 3
f 4 8 1
f 627 624 626
f 621 624 627
f 57 992 110
f 57 107 992
f 396 395 483
f 396 483 397
f 181 180 267
f 181 267 182
f 499 496 627
f 499 627 500
f 542 539 672
f 542 672 543
f 816 814 882
f 816 882 817
f 503 500 632
f 503 632 504
f 153 233 235
f 231 233 153
f 833 831 835
f 833 835 834
f 722 721 796
f 722 796 723
f 440 438 549
f 440 549 441
f 830 829 895
f 830 895 831
f 997 237 239
f 235 237 997
f 659 656 750
f 659 750 660
f 40 87 89
f 85 87 40
f 552 551 553
f 441 552 553
f 784 783 787
f 784 787 786
f 548 547 549
f 438 548 549
f 12 35 37
f 12 82 35
f 686 768 769
f 769 832 771
f 277 276 382
f 277 382 278
f 736 805 807
f 803 805 736
f 78 77 986
f 32 78 986
f 28 983 29
f 983 75 29
f 88 148 150
f 146 148 88
f 443 441 553
f 443 553 444
f 8 7 27
f 8 987 1
f 828 826 892
f 828 892 829
f 437 435 545
f 437 545 438
f 699 697 701
f 699 701 700
f 677 674 676
f 671 674 677
f 123 120 201
f 123 201 124
f 304 303 306
f 304 306 305
f 151 150 92
f 89 151 92
f 581 700 702
f 699 700 581
f 71 70 983
f 26 71 983
f 80 991 140
f 80 137 991
f 987 31 32
f 987 28 31
f 635 731 733
f 729 731 635
f 670 758 760
f 755 758 670
f 149 229 231
f 227 229 149
f 556 555 557
f 444 556 557
f 147 146 88
f 85 147 88
f 637 634 636
f 631 634 637
f 544 543 545
f 435 544 545
f 44 43 45
f 14 44 45
f 797 794 863
f 797 863 798
f 507 504 637
f 507 637 508
f 464 463 583
f 464 583 465
f 954 953 955
f 916 954 955
f 952 951 915
f 909 952 915
f 994 336 338
f 334 336 994
f 628 626 632
f 500 628 632
f 462 459 577
f 462 577 463
f 941 940 942
f 897 941 942
f 472 469 593
f 472 593 473
f 848 849 850
f 850 906 851
f 633 631 637
f 504 633 637
f 538 535 666
f 538 666 539
f 594 592 598
f 473 594 598
f 824 823 825
f 760 824 825
f 476 473 598
f 476 598 477
f 376 461 377
f 461 463 377
f 434 432 541
f 434 541 435
f 934 933 935
f 886 934 935
f 937 936 938
f 893 937 938
f 880 878 928
f 880 928 881
f 589 587 593
f 469 589 593
f 431 429 537
f 431 537 432
f 623 621 627
f 496 623 627
f 446 444 557
f 446 557 447
f 466 465 467
f 380 466 467
f 599 597 603
f 477 599 603
f 202 199 292
f 202 292 203
f 579 578 583
f 463 579 583
f 244 243 342
f 244 342 245
f 534 531 662
f 534 662 535
f 428 426 533
f 428 533 429
f 430 429 340
f 338 430 340
f 267 264 266
f 261 264 267
f 218 217 313
f 218 313 219
f 948 947 949
f 907 948 949
f 232 231 153
f 150 232 153
f 468 465 588
f 468 588 469
f 990 49 51
f 47 49 18
f 460 459 461
f 374 460 461
f 560 559 561
f 447 560 561
f 540 539 541
f 432 540 541
f 682 679 681
f 676 679 682
f 576 575 577
f 459 576 577
f 480 477 603
f 480 603 481
f 442 441 356
f 353 442 356
f 433 432 344
f 341 433 344
f 584 582 588
f 465 584 588
f 905 903 946
f 905 946 973
f 638 636 642
f 508 638 642
f 906 973 907
f 905 973 906
f 449 447 561
f 449 561 450
f 228 227 149
f 146 228 149
f 118 191 193
f 190 191 118
f 445 444 359
f 357 445 359
f 866 865 867
f 798 866 867
f 236 235 997
f 154 236 997
f 647 645 648
f 647 648 519
f 224 223 84
f 142 224 84
f 272 269 271
f 266 269 272
f 604 602 608
f 481 604 608
f 427 426 337
f 334 427 337
f 564 563 565
f 450 564 565
f 439 438 352
f 349 439 352
f 825 975 826
f 823 975 825
f 820 819 759
f 755 820 759
f 999 305 307
f 304 305 215
f 655 652 746
f 655 746 656
f 452 450 565
f 452 565 453
f 406 405 502
f 406 502 407
f 958 957 959
f 920 958 959
f 696 694 776
f 696 776 697
f 436 435 348
f 345 436 348
f 536 535 537
f 429 536 537
f 159 998 160
f 159 156 998
f 36 83 85
f 36 142 83
f 484 481 608
f 484 608 485
f 530 527 658
f 530 658 531
f 869 868 806
f 803 869 806
f 262 259 261
f 257 259 262
f 862 861 863
f 794 862 863
f 522 519 650
f 522 650 523
f 916 955 984
f 984 955 920
f 693 690 772
f 693 772 694
f 470 469 471
f 384 470 471
f 591 707 709
f 705 707 591
f 532 531 533
f 426 532 533
f 568 567 569
f 453 568 569
f 511 508 642
f 511 642 512
f 404 403 498
f 404 498 405
f 944 963 966
f 966 963 970
f 899 897 942
f 899 942 974
f 908 907 949
f 908 949 909
f 67 66 68
f 24 67 68
f 609 607 613
f 485 609 613
f 818 817 754
f 748 818 754
f 885 883 931
f 885 931 886
f 419 417 521
f 419 521 420
f 18 990 52
f 18 49 990
f 448 447 363
f 360 448 363
f 65 117 119
f 116 117 65
f 939 936 965
f 939 965 940
f 586 703 705
f 702 703 586
f 613 610 612
f 607 610 613
f 53 104 106
f 103 104 53
f 985 63 65
f 61 63 62
f 62 985 66
f 62 63 985
f 967 966 968
f 947 967 968
f 622 619 621
f 617 619 622
f 425 423 529
f 425 529 426
f 280 278 386
f 280 386 281
f 458 456 573
f 458 573 459
f 642 639 641
f 636 639 642
f 747 745 815
f 747 815 748
f 155 154 159
f 93 155 159
f 213 214 216
f 212 214 213
f 956 953 988
f 956 988 957
f 520 519 521
f 417 520 521
f 774 834 836
f 833 834 774
f 524 523 525
f 420 524 525
f 572 571 573
f 456 572 573
f 133 134 136
f 131 134 133
f 84 144 146
f 84 223 144
f 526 523 654
f 526 654 527
f 528 527 529
f 423 528 529
f 422 420 525
f 422 525 423
f 200 199 201
f 120 200 201
f 474 473 475
f 388 474 475
f 596 711 713
f 709 711 596
f 204 203 205
f 124 204 205
f 455 453 569
f 455 569 456
f 950 947 968
f 950 968 951
f 517 515 518
f 517 518 417
f 398 397 487
f 398 487 399
f 932 929 964
f 932 964 933
f 930 929 931
f 883 930 931
f 263 261 267
f 180 263 267
f 640 735 737
f 733 735 640
f 258 257 262
f 179 258 262
f 860 857 917
f 860 917 861
f 141 140 221
f 141 221 142
f 451 450 367
f 364 451 367
f 643 641 644
f 512 643 644
f 482 481 483
f 395 482 483
f 238 332 334
f 330 332 238
f 971 970 962
f 966 970 988
f 900 974 901
f 899 974 900
f 873 872 874
f 807 873 874
f 478 477 479
f 392 478 479
f 768 767 832
f 768 832 769
f 646 645 518
f 515 646 518
f 194 193 198
f 119 194 198
f 25 24 68
f 25 68 26
f 126 124 205
f 126 205 127
f 486 485 487
f 397 486 487
f 849 846 906
f 849 906 850
f 896 893 938
f 896 938 897
f 310 308 408
f 310 408 311
f 495 493 622
f 495 622 496
f 644 977 645
f 641 977 644
f 246 245 346
f 246 346 247
f 785 786 788
f 784 786 785
f 789 852 854
f 851 852 789
f 960 988 971
f 988 970 971
f 215 999 308
f 215 305 999
f 284 281 390
f 284 390 285
f 514 512 644
f 514 644 515
f 314 311 411
f 314 411 315
f 268 266 272
f 182 268 272
f 757 755 670
f 667 757 670
f 105 173 175
f 171 173 105
f 69 66 122
f 69 122 70
f 86 85 40
f 37 86 40
f 858 857 859
f 791 858 859
f 761 760 675
f 671 761 675
f 90 89 94
f 41 90 94
f 145 225 227
f 145 319 225
f 48 47 18
f 16 48 18
f 969 966 988
f 953 969 988
f 884 883 822
f 819 884 822
f 195 283 196
f 283 285 196
f 720 719 792
f 720 792 721
f 143 142 36
f 82 143 36
f 222 219 317
f 222 317 223
f 288 287 292
f 199 288 292
f 156 997 157
f 997 239 157
f 286 285 393
f 286 393 287
f 752 751 756
f 660 752 756
f 454 453 370
f 368 454 370
f 782 781 848
f 782 848 783
f 874 976 875
f 872 976 874
f 887 886 888
f 823 887 888
f 1 10 2
f 10 14 2
f 409 407 506
f 409 506 410
f 856 979 857
f 854 979 856
f 209 299 301
f 296 299 209
f 618 617 622
f 493 618 622
f 297 294 296
f 291 294 297
f 320 319 145
f 223 320 145
f 211 302 304
f 301 302 211
f 220 219 221
f 140 220 221
f 918 916 919
f 861 918 919
f 921 920 871
f 865 921 871
f 689 687 770
f 689 770 690
f 424 423 333
f 330 424 333
f 132 129 131
f 127 129 132
f 97 95 161
f 97 161 98
f 793 791 859
f 793 859 794
f 292 289 291
f 287 289 292
f 673 671 677
f 543 673 677
f 1 987 9
f 987 32 9
f 651 649 743
f 651 743 652
f 457 456 373
f 371 457 373
f 226 321 323
f 226 416 321
f 27 26 987
f 8 27 987
f 282 281 283
f 193 282 283
f 208 207 130
f 127 208 130
f 657 656 658
f 527 657 658
f 683 980 684
f 681 980 683
f 15 14 45
f 15 45 16
f 335 334 994
f 239 335 994
f 668 667 672
f 539 668 672
f 293 291 297
f 203 293 297
f 249 247 350
f 249 350 250
f 961 960 926
f 925 961 926
f 172 171 105
f 103 172 105
f 230 324 326
f 323 324 230
f 418 417 325
f 323 418 325
f 772 773 775
f 771 773 772
f 107 995 108
f 995 180 108
f 661 660 662
f 531 661 662
f 46 43 96
f 46 96 47
f 176 175 995
f 106 176 995
f 115 188 190
f 187 188 115
f 206 203 297
f 206 297 207
f 168 167 102
f 100 168 102
f 505 504 506
f 407 505 506
f 891 890 892
f 826 891 892
f 234 328 330
f 326 328 234
f 492 615 617
f 612 615 492
f 678 676 682
f 547 678 682
f 488 485 613
f 488 613 489
f 240 994 241
f 994 338 241
f 331 330 238
f 235 331 238
f 516 515 322
f 416 516 322
f 653 652 654
f 523 653 654
f 121 120 122
f 66 121 122
f 178 255 257
f 253 255 178
f 913 912 917
f 857 913 917
f 501 500 502
f 405 501 502
f 923 922 924
f 872 923 924
f 665 664 666
f 535 665 666
f 51 101 103
f 100 101 51
f 318 315 414
f 318 414 319
f 713 785 982
f 982 785 715
f 421 420 329
f 326 421 329
f 509 508 510
f 410 509 510
f 734 733 640
f 636 734 640
f 730 729 635
f 631 730 635
f 996 56 58
f 54 56 55
f 102 169 171
f 167 169 102
f 843 842 844
f 779 843 844
f 254 253 178
f 175 254 178
f 125 124 73
f 70 125 73
f 183 182 111
f 110 183 111
f 845 842 904
f 845 904 846
f 316 315 317
f 219 316 317
f 710 709 596
f 592 710 596
f 726 725 630
f 626 726 630
f 749 748 750
f 656 749 750
f 128 127 132
f 74 128 132
f 184 182 272
f 184 272 185
f 799 798 728
f 723 799 728
f 839 838 840
f 777 839 840
f 809 978 810
f 807 978 809
f 714 713 601
f 597 714 601
f 614 612 492
f 489 614 492
f 381 380 382
f 276 381 382
f 385 384 386
f 278 385 386
f 312 311 313
f 217 312 313
f 795 794 796
f 721 795 796
f 298 296 209
f 207 298 209
f 876 875 811
f 810 876 811
f 137 213 138
f 213 217 138
f 827 826 763
f 762 827 763
f 55 996 59
f 55 56 996
f 724 723 625
f 621 724 625
f 802 801 732
f 729 802 732
f 804 803 736
f 733 804 736
f 780 779 844
f 780 844 781
f 164 163 165
f 98 164 165
f 365 364 265
f 261 365 265
f 279 278 192
f 190 279 192
f 847 846 848
f 781 847 848
f 400 399 491
f 400 491 401
f 738 737 739
f 641 738 739
f 490 489 491
f 399 490 491
f 894 893 895
f 829 894 895
f 252 250 354
f 252 354 253
f 389 388 390
f 281 389 390
f 361 360 260
f 257 361 260
f 251 250 174
f 171 251 174
f 706 705 591
f 587 706 591
f 412 410 510
f 412 510 413
f 808 807 809
f 737 808 809
f 402 401 494
f 402 494 403
f 691 690 692
f 563 691 692
f 375 374 379
f 275 375 379
f 855 854 856
f 790 855 856
f 497 496 498
f 403 497 498
f 813 812 879
f 813 879 814
f 415 413 513
f 415 513 416
f 327 326 234
f 231 327 234
f 99 98 165
f 99 165 100
f 898 897 835
f 831 898 835
f 778 777 840
f 778 840 779
f 910 909 911
f 854 910 911
f 248 247 170
f 167 248 170
