o dimorphos_ellipsoid
v -0.052910 0.046400 0.042310
v -0.048370 0.042430 0.047130
v -0.045380 0.048500 0.044220
v -0.056080 0.040360 0.044840
v -0.050850 0.036310 0.049540
v -0.058650 0.034370 0.046900
v -0.052840 0.030190 0.051490
v -0.060700 0.028460 0.048540
v -0.054410 0.024090 0.053020
v -0.062300 0.022630 0.049820
v -0.055590 0.018020 0.054170
v -0.063490 0.016890 0.050770
v -0.056420 0.011990 0.054970
v -0.064310 0.011220 0.051420
v -0.056900 0.005990 0.055440
v -0.064790 0.005600 0.051810
v -0.057060 0.000000 0.055600
v -0.064950 0.000000 0.051940
v -0.064790 -0.005600 0.051810
v -0.056900 -0.005990 0.055440
v -0.064310 -0.011220 0.051420
v -0.056420 -0.011990 0.054970
v -0.063490 -0.016890 0.050770
v -0.055590 -0.018020 0.054170
v -0.062300 -0.022630 0.049820
v -0.054410 -0.024090 0.053020
v -0.060700 -0.028460 0.048540
v -0.052840 -0.030190 0.051490
v -0.058650 -0.034370 0.046900
v -0.050850 -0.036310 0.049540
v -0.056080 -0.040360 0.044840
v -0.048370 -0.042430 0.047130
v -0.052910 -0.046400 0.042310
v -0.045380 -0.048500 0.044220
v -0.040910 0.044060 0.048950
v -0.038190 0.050130 0.045710
v -0.043170 0.037870 0.051670
v -0.045030 0.031590 0.053890
v -0.046500 0.025280 0.055650
v -0.047610 0.018960 0.056980
v -0.048400 0.012640 0.057920
v -0.048860 0.006320 0.058470
v -0.049010 0.000000 0.058650
v -0.048860 -0.006320 0.058470
v -0.048400 -0.012640 0.057920
v -0.047610 -0.018960 0.056980
v -0.046500 -0.025280 0.055650
v -0.045030 -0.031590 0.053890
v -0.043170 -0.037870 0.051670
v -0.040910 -0.044060 0.048950
v -0.038190 -0.050130 0.045710
v -0.033670 0.045350 0.050380
v -0.031320 0.051400 0.046860
v -0.035660 0.039100 0.053350
v -0.037300 0.032710 0.055800
v -0.038610 0.026240 0.057760
v -0.039610 0.019720 0.059260
v -0.040320 0.013160 0.060320
v -0.040740 0.006580 0.060940
v -0.040870 0.000000 0.061150
v -0.040740 -0.006580 0.060940
v -0.040320 -0.013160 0.060320
v -0.039610 -0.019720 0.059260
v -0.038610 -0.026240 0.057760
v -0.037300 -0.032710 0.055800
v -0.035660 -0.039100 0.053350
v -0.033670 -0.045350 0.050380
v -0.031320 -0.051400 0.046860
v -0.026660 0.046330 0.051470
v -0.024730 0.052350 0.047730
v -0.028310 0.040050 0.054650
v -0.029680 0.033590 0.057290
v -0.030780 0.027000 0.059420
v -0.031630 0.020310 0.061060
v -0.032230 0.013570 0.062210
v -0.032580 0.006790 0.062900
v -0.032700 0.000000 0.063130
v -0.032580 -0.006790 0.062900
v -0.032230 -0.013570 0.062210
v -0.031630 -0.020310 0.061060
v -0.030780 -0.027000 0.059420
v -0.029680 -0.033590 0.057290
v -0.028310 -0.040050 0.054650
v -0.026660 -0.046330 0.051470
v -0.024730 -0.052350 0.047730
v -0.019830 0.047050 0.052270
v -0.018350 0.053050 0.048370
v -0.021100 0.040760 0.055610
v -0.022160 0.034240 0.058410
v -0.023020 0.027560 0.060670
v -0.023680 0.020770 0.062410
v -0.024140 0.013890 0.063650
v -0.024420 0.006950 0.064380
v -0.024520 0.000000 0.064630
v -0.024420 -0.006950 0.064380
v -0.024140 -0.013890 0.063650
v -0.023680 -0.020770 0.062410
v -0.023020 -0.027560 0.060670
v -0.022160 -0.034240 0.058410
v -0.021100 -0.040760 0.055610
v -0.019830 -0.047050 0.052270
v -0.018350 -0.053050 0.048370
v -0.013140 0.047540 0.052820
v -0.012140 0.053530 0.048810
v -0.014000 0.041240 0.056270
v -0.014720 0.034690 0.059180
v -0.015310 0.027960 0.061530
v -0.015760 0.021080 0.063350
v -0.016080 0.014100 0.064650
v -0.016270 0.007070 0.065420
v -0.016340 0.000000 0.065670
v -0.016270 -0.007070 0.065420
v -0.016080 -0.014100 0.064650
v -0.015760 -0.021080 0.063350
v -0.015310 -0.027960 0.061530
v -0.014720 -0.034690 0.059180
v -0.014000 -0.041240 0.056270
v -0.013140 -0.047540 0.052820
v -0.012140 -0.053530 0.048810
v -0.006550 0.047830 0.053140
v -0.006040 0.053810 0.049060
v -0.006980 0.041530 0.056660
v -0.007340 0.034960 0.059630
v -0.007640 0.028190 0.062040
v -0.007870 0.021260 0.063910
v -0.008040 0.014230 0.065240
v -0.008130 0.007130 0.066030
v -0.008170 0.000000 0.066290
v -0.008130 -0.007130 0.066030
v -0.008040 -0.014230 0.065240
v -0.007870 -0.021260 0.063910
v -0.007640 -0.028190 0.062040
v -0.007340 -0.034960 0.059630
v -0.006980 -0.041530 0.056660
v -0.006550 -0.047830 0.053140
v -0.006040 -0.053810 0.049060
v 0.000000 0.047930 0.053250
v 0.000000 0.053900 0.049140
v 0.000000 0.041620 0.056790
v 0.000000 0.035050 0.059780
v 0.000000 0.028260 0.062210
v 0.000000 0.021330 0.064090
v 0.000000 0.014280 0.065430
v 0.000000 0.007160 0.066230
v 0.000000 0.000000 0.066500
v 0.000000 -0.007160 0.066230
v 0.000000 -0.014280 0.065430
v 0.000000 -0.021330 0.064090
v 0.000000 -0.028260 0.062210
v 0.000000 -0.035050 0.059780
v 0.000000 -0.041620 0.056790
v 0.000000 -0.047930 0.053250
v 0.000000 -0.053900 0.049140
v 0.006040 0.053810 0.049060
v 0.006550 0.047830 0.053140
v 0.006980 0.041530 0.056660
v 0.007340 0.034960 0.059630
v 0.007640 0.028190 0.062040
v 0.007870 0.021260 0.063910
v 0.008040 0.014230 0.065240
v 0.008130 0.007130 0.066030
v 0.008170 0.000000 0.066290
v 0.008130 -0.007130 0.066030
v 0.008040 -0.014230 0.065240
v 0.007870 -0.021260 0.063910
v 0.007640 -0.028190 0.062040
v 0.007340 -0.034960 0.059630
v 0.006980 -0.041530 0.056660
v 0.006550 -0.047830 0.053140
v 0.006040 -0.053810 0.049060
v 0.012140 0.053530 0.048810
v 0.013140 0.047540 0.052820
v 0.014000 0.041240 0.056270
v 0.014720 0.034690 0.059180
v 0.015310 0.027960 0.061530
v 0.015760 0.021080 0.063350
v 0.016080 0.014100 0.064650
v 0.016270 0.007070 0.065420
v 0.016340 0.000000 0.065670
v 0.016270 -0.007070 0.065420
v 0.016080 -0.014100 0.064650
v 0.015760 -0.021080 0.063350
v 0.015310 -0.027960 0.061530
v 0.014720 -0.034690 0.059180
v 0.014000 -0.041240 0.056270
v 0.013140 -0.047540 0.052820
v 0.012140 -0.053530 0.048810
v 0.018350 0.053050 0.048370
v 0.019830 0.047050 0.052270
v 0.021100 0.040760 0.055610
v 0.022160 0.034240 0.058410
v 0.023020 0.027560 0.060670
v 0.023680 0.020770 0.062410
v 0.024140 0.013890 0.063650
v 0.024420 0.006950 0.064380
v 0.024520 0.000000 0.064630
v 0.024420 -0.006950 0.064380
v 0.024140 -0.013890 0.063650
v 0.023680 -0.020770 0.062410
v 0.023020 -0.027560 0.060670
v 0.022160 -0.034240 0.058410
v 0.021100 -0.040760 0.055610
v 0.019830 -0.047050 0.052270
v 0.018350 -0.053050 0.048370
v 0.024730 0.052350 0.047730
v 0.026660 0.046330 0.051470
v 0.028310 0.040050 0.054650
v 0.029680 0.033590 0.057290
v 0.030780 0.027000 0.059420
v 0.031630 0.020310 0.061060
v 0.032230 0.013570 0.062210
v 0.032580 0.006790 0.062900
v 0.032700 0.000000 0.063130
v 0.032580 -0.006790 0.062900
v 0.032230 -0.013570 0.062210
v 0.031630 -0.020310 0.061060
v 0.030780 -0.027000 0.059420
v 0.029680 -0.033590 0.057290
v 0.028310 -0.040050 0.054650
v 0.026660 -0.046330 0.051470
v 0.024730 -0.052350 0.047730
v 0.031320 0.051400 0.046860
v 0.033670 0.045350 0.050380
v 0.035660 0.039100 0.053350
v 0.037300 0.032710 0.055800
v 0.038610 0.026240 0.057760
v 0.039610 0.019720 0.059260
v 0.040320 0.013160 0.060320
v 0.040740 0.006580 0.060940
v 0.040870 0.000000 0.061150
v 0.040740 -0.006580 0.060940
v 0.040320 -0.013160 0.060320
v 0.039610 -0.019720 0.059260
v 0.038610 -0.026240 0.057760
v 0.037300 -0.032710 0.055800
v 0.035660 -0.039100 0.053350
v 0.033670 -0.045350 0.050380
v 0.031320 -0.051400 0.046860
v 0.038190 0.050130 0.045710
v 0.040910 0.044060 0.048950
v 0.043170 0.037870 0.051670
v 0.045030 0.031590 0.053890
v 0.046500 0.025280 0.055650
v 0.047610 0.018960 0.056980
v 0.048400 0.012640 0.057920
v 0.048860 0.006320 0.058470
v 0.049010 0.000000 0.058650
v 0.048860 -0.006320 0.058470
v 0.048400 -0.012640 0.057920
v 0.047610 -0.018960 0.056980
v 0.046500 -0.025280 0.055650
v 0.045030 -0.031590 0.053890
v 0.043170 -0.037870 0.051670
v 0.040910 -0.044060 0.048950
v 0.038190 -0.050130 0.045710
v 0.045380 0.048500 0.044220
v 0.048370 0.042430 0.047130
v 0.050850 0.036310 0.049540
v 0.052840 0.030190 0.051490
v 0.054410 0.024090 0.053020
v 0.055590 0.018020 0.054170
v 0.056420 0.011990 0.054970
v 0.056900 0.005990 0.055440
v 0.057060 0.000000 0.055600
v 0.056900 -0.005990 0.055440
v 0.056420 -0.011990 0.054970
v 0.055590 -0.018020 0.054170
v 0.054410 -0.024090 0.053020
v 0.052840 -0.030190 0.051490
v 0.050850 -0.036310 0.049540
v 0.048370 -0.042430 0.047130
v 0.045380 -0.048500 0.044220
v 0.052910 0.046400 0.042310
v 0.056080 0.040360 0.044840
v 0.058650 0.034370 0.046900
v 0.060700 0.028460 0.048540
v 0.062300 0.022630 0.049820
v 0.063490 0.016890 0.050770
v 0.064310 0.011220 0.051420
v 0.064790 0.005600 0.051810
v 0.064950 0.000000 0.051940
v 0.064790 -0.005600 0.051810
v 0.064310 -0.011220 0.051420
v 0.063490 -0.016890 0.050770
v 0.062300 -0.022630 0.049820
v 0.060700 -0.028460 0.048540
v 0.058650 -0.034370 0.046900
v 0.056080 -0.040360 0.044840
v 0.052910 -0.046400 0.042310
v -0.049060 -0.052430 0.039230
v -0.056790 -0.049810 0.037270
v -0.052220 -0.055800 0.034000
v -0.060060 -0.052680 0.032090
v -0.054860 -0.058630 0.028570
v -0.062750 -0.055040 0.026820
v -0.057000 -0.060920 0.023010
v -0.064890 -0.056920 0.021490
v -0.058650 -0.062680 0.017340
v -0.066530 -0.058350 0.016140
v -0.059820 -0.063930 0.011590
v -0.067670 -0.059350 0.010760
v -0.060520 -0.064680 0.005810
v -0.068350 -0.059950 0.005380
v -0.060760 -0.064930 0.000000
v -0.068580 -0.060140 0.000000
v -0.068350 -0.059950 -0.005380
v -0.060520 -0.064680 -0.005810
v -0.067670 -0.059350 -0.010760
v -0.059820 -0.063930 -0.011590
v -0.066530 -0.058350 -0.016140
v -0.058650 -0.062680 -0.017340
v -0.064890 -0.056920 -0.021490
v -0.057000 -0.060920 -0.023010
v -0.062750 -0.055040 -0.026820
v -0.054860 -0.058630 -0.028570
v -0.060060 -0.052680 -0.032090
v -0.052220 -0.055800 -0.034000
v -0.056790 -0.049810 -0.037270
v -0.049060 -0.052430 -0.039230
v -0.052910 -0.046400 -0.042310
v -0.045380 -0.048500 -0.044220
v -0.041530 -0.054510 0.040790
v -0.044440 -0.058340 0.035540
v -0.046920 -0.061590 0.030010
v -0.048960 -0.064260 0.024270
v -0.050540 -0.066340 0.018350
v -0.051680 -0.067830 0.012300
v -0.052360 -0.068720 0.006170
v -0.052580 -0.069020 0.000000
v -0.052360 -0.068720 -0.006170
v -0.051680 -0.067830 -0.012300
v -0.050540 -0.066340 -0.018350
v -0.048960 -0.064260 -0.024270
v -0.046920 -0.061590 -0.030010
v -0.044440 -0.058340 -0.035540
v -0.041530 -0.054510 -0.040790
v -0.038190 -0.050130 -0.045710
v -0.034220 -0.056150 0.042010
v -0.036780 -0.060360 0.036770
v -0.038990 -0.063980 0.031180
v -0.040830 -0.066990 0.025300
v -0.042270 -0.069360 0.019180
v -0.043310 -0.071060 0.012890
v -0.043940 -0.072090 0.006470
v -0.044140 -0.072440 0.000000
v -0.043940 -0.072090 -0.006470
v -0.043310 -0.071060 -0.012890
v -0.042270 -0.069360 -0.019180
v -0.040830 -0.066990 -0.025300
v -0.038990 -0.063980 -0.031180
v -0.036780 -0.060360 -0.036770
v -0.034220 -0.056150 -0.042010
v -0.031320 -0.051400 -0.046860
v -0.027110 -0.057400 0.042950
v -0.029240 -0.061920 0.037720
v -0.031100 -0.065860 0.032090
v -0.032660 -0.069150 0.026110
v -0.033890 -0.071760 0.019850
v -0.034790 -0.073660 0.013360
v -0.035330 -0.074810 0.006720
v -0.035510 -0.075190 0.000000
v -0.035330 -0.074810 -0.006720
v -0.034790 -0.073660 -0.013360
v -0.033890 -0.071760 -0.019850
v -0.032660 -0.069150 -0.026110
v -0.031100 -0.065860 -0.032090
v -0.029240 -0.061920 -0.037720
v -0.027110 -0.057400 -0.042950
v -0.024730 -0.052350 -0.047730
v -0.020170 -0.058330 0.043640
v -0.021820 -0.063090 0.038430
v -0.023260 -0.067270 0.032780
v -0.024480 -0.070790 0.026730
v -0.025460 -0.073600 0.020360
v -0.026160 -0.075650 0.013720
v -0.026590 -0.076890 0.006900
v -0.026740 -0.077310 0.000000
v -0.026590 -0.076890 -0.006900
v -0.026160 -0.075650 -0.013720
v -0.025460 -0.073600 -0.020360
v -0.024480 -0.070790 -0.026730
v -0.023260 -0.067270 -0.032780
v -0.021820 -0.063090 -0.038430
v -0.020170 -0.058330 -0.043640
v -0.018350 -0.053050 -0.048370
v -0.013370 -0.058970 0.044120
v -0.014490 -0.063900 0.038930
v -0.015480 -0.068250 0.033260
v -0.016310 -0.071930 0.027170
v -0.016980 -0.074890 0.020710
v -0.017470 -0.077050 0.013970
v -0.017770 -0.078370 0.007040
v -0.017870 -0.078810 0.000000
v -0.017770 -0.078370 -0.007040
v -0.017470 -0.077050 -0.013970
v -0.016980 -0.074890 -0.020710
v -0.016310 -0.071930 -0.027170
v -0.015480 -0.068250 -0.033260
v -0.014490 -0.063900 -0.038930
v -0.013370 -0.058970 -0.044120
v -0.012140 -0.053530 -0.048810
v -0.006660 -0.059340 0.044400
v -0.007230 -0.064370 0.039210
v -0.007730 -0.068820 0.033540
v -0.008150 -0.072610 0.027420
v -0.008500 -0.075660 0.020920
v -0.008750 -0.077880 0.014120
v -0.008900 -0.079250 0.007120
v -0.008950 -0.079700 0.000000
v -0.008900 -0.079250 -0.007120
v -0.008750 -0.077880 -0.014120
v -0.008500 -0.075660 -0.020920
v -0.008150 -0.072610 -0.027420
v -0.007730 -0.068820 -0.033540
v -0.007230 -0.064370 -0.039210
v -0.006660 -0.059340 -0.044400
v -0.006040 -0.053810 -0.049060
v 0.000000 -0.059460 0.044490
v 0.000000 -0.064530 0.039310
v 0.000000 -0.069010 0.033630
v 0.000000 -0.072840 0.027510
v 0.000000 -0.075910 0.020990
v 0.000000 -0.078160 0.014170
v 0.000000 -0.079540 0.007140
v 0.000000 -0.080000 0.000000
v 0.000000 -0.079540 -0.007140
v 0.000000 -0.078160 -0.014170
v 0.000000 -0.075910 -0.020990
v 0.000000 -0.072840 -0.027510
v 0.000000 -0.069010 -0.033630
v 0.000000 -0.064530 -0.039310
v 0.000000 -0.059460 -0.044490
v 0.000000 -0.053900 -0.049140
v 0.006660 -0.059340 0.044400
v 0.007230 -0.064370 0.039210
v 0.007730 -0.068820 0.033540
v 0.008150 -0.072610 0.027420
v 0.008500 -0.075660 0.020920
v 0.008750 -0.077880 0.014120
v 0.008900 -0.079250 0.007120
v 0.008950 -0.079700 0.000000
v 0.008900 -0.079250 -0.007120
v 0.008750 -0.077880 -0.014120
v 0.008500 -0.075660 -0.020920
v 0.008150 -0.072610 -0.027420
v 0.007730 -0.068820 -0.033540
v 0.007230 -0.064370 -0.039210
v 0.006660 -0.059340 -0.044400
v 0.006040 -0.053810 -0.049060
v 0.013370 -0.058970 0.044120
v 0.014490 -0.063900 0.038930
v 0.015480 -0.068250 0.033260
v 0.016310 -0.071930 0.027170
v 0.016980 -0.074890 0.020710
v 0.017470 -0.077050 0.013970
v 0.017770 -0.078370 0.007040
v 0.017870 -0.078810 0.000000
v 0.017770 -0.078370 -0.007040
v 0.017470 -0.077050 -0.013970
v 0.016980 -0.074890 -0.020710
v 0.016310 -0.071930 -0.027170
v 0.015480 -0.068250 -0.033260
v 0.014490 -0.063900 -0.038930
v 0.013370 -0.058970 -0.044120
v 0.012140 -0.053530 -0.048810
v 0.020170 -0.058330 0.043640
v 0.021820 -0.063090 0.038430
v 0.023260 -0.067270 0.032780
v 0.024480 -0.070790 0.026730
v 0.025460 -0.073600 0.020360
v 0.026160 -0.075650 0.013720
v 0.026590 -0.076890 0.006900
v 0.026740 -0.077310 0.000000
v 0.026590 -0.076890 -0.006900
v 0.026160 -0.075650 -0.013720
v 0.025460 -0.073600 -0.020360
v 0.024480 -0.070790 -0.026730
v 0.023260 -0.067270 -0.032780
v 0.021820 -0.063090 -0.038430
v 0.020170 -0.058330 -0.043640
v 0.018350 -0.053050 -0.048370
v 0.027110 -0.057400 0.042950
v 0.029240 -0.061920 0.037720
v 0.031100 -0.065860 0.032090
v 0.032660 -0.069150 0.026110
v 0.033890 -0.071760 0.019850
v 0.034790 -0.073660 0.013360
v 0.035330 -0.074810 0.006720
v 0.035510 -0.075190 0.000000
v 0.035330 -0.074810 -0.006720
v 0.034790 -0.073660 -0.013360
v 0.033890 -0.071760 -0.019850
v 0.032660 -0.069150 -0.026110
v 0.031100 -0.065860 -0.032090
v 0.029240 -0.061920 -0.037720
v 0.027110 -0.057400 -0.042950
v 0.024730 -0.052350 -0.047730
v 0.034220 -0.056150 0.042010
v 0.036780 -0.060360 0.036770
v 0.038990 -0.063980 0.031180
v 0.040830 -0.066990 0.025300
v 0.042270 -0.069360 0.019180
v 0.043310 -0.071060 0.012890
v 0.043940 -0.072090 0.006470
v 0.044140 -0.072440 0.000000
v 0.043940 -0.072090 -0.006470
v 0.043310 -0.071060 -0.012890
v 0.042270 -0.069360 -0.019180
v 0.040830 -0.066990 -0.025300
v 0.038990 -0.063980 -0.031180
v 0.036780 -0.060360 -0.036770
v 0.034220 -0.056150 -0.042010
v 0.031320 -0.051400 -0.046860
v 0.041530 -0.054510 0.040790
v 0.044440 -0.058340 0.035540
v 0.046920 -0.061590 0.030010
v 0.048960 -0.064260 0.024270
v 0.050540 -0.066340 0.018350
v 0.051680 -0.067830 0.012300
v 0.052360 -0.068720 0.006170
v 0.052580 -0.069020 0.000000
v 0.052360 -0.068720 -0.006170
v 0.051680 -0.067830 -0.012300
v 0.050540 -0.066340 -0.018350
v 0.048960 -0.064260 -0.024270
v 0.046920 -0.061590 -0.030010
v 0.044440 -0.058340 -0.035540
v 0.041530 -0.054510 -0.040790
v 0.038190 -0.050130 -0.045710
v 0.049060 -0.052430 0.039230
v 0.052220 -0.055800 0.034000
v 0.054860 -0.058630 0.028570
v 0.057000 -0.060920 0.023010
v 0.058650 -0.062680 0.017340
v 0.059820 -0.063930 0.011590
v 0.060520 -0.064680 0.005810
v 0.060760 -0.064930 0.000000
v 0.060520 -0.064680 -0.005810
v 0.059820 -0.063930 -0.011590
v 0.058650 -0.062680 -0.017340
v 0.057000 -0.060920 -0.023010
v 0.054860 -0.058630 -0.028570
v 0.052220 -0.055800 -0.034000
v 0.049060 -0.052430 -0.039230
v 0.045380 -0.048500 -0.044220
v 0.056790 -0.049810 0.037270
v 0.060060 -0.052680 0.032090
v 0.062750 -0.055040 0.026820
v 0.064890 -0.056920 0.021490
v 0.066530 -0.058350 0.016140
v 0.067670 -0.059350 0.010760
v 0.068350 -0.059950 0.005380
v 0.068580 -0.060140 0.000000
v 0.068350 -0.059950 -0.005380
v 0.067670 -0.059350 -0.010760
v 0.066530 -0.058350 -0.016140
v 0.064890 -0.056920 -0.021490
v 0.062750 -0.055040 -0.026820
v 0.060060 -0.052680 -0.032090
v 0.056790 -0.049810 -0.037270
v 0.052910 -0.046400 -0.042310
v -0.060770 0.043740 0.039880
v -0.056790 0.049810 0.037270
v -0.064830 0.046660 0.034640
v -0.060060 0.052680 0.032090
v -0.068240 0.049120 0.029170
v -0.062750 0.055040 0.026820
v -0.071030 0.051130 0.023530
v -0.064890 0.056920 0.021490
v -0.073180 0.052680 0.017750
v -0.066530 0.058350 0.016140
v -0.074720 0.053780 0.011880
v -0.067670 0.059350 0.010760
v -0.075630 0.054440 0.005960
v -0.068350 0.059950 0.005380
v -0.075940 0.054660 0.000000
v -0.068580 0.060140 0.000000
v -0.068350 0.059950 -0.005380
v -0.075630 0.054440 -0.005960
v -0.067670 0.059350 -0.010760
v -0.074720 0.053780 -0.011880
v -0.066530 0.058350 -0.016140
v -0.073180 0.052680 -0.017750
v -0.064890 0.056920 -0.021490
v -0.071030 0.051130 -0.023530
v -0.062750 0.055040 -0.026820
v -0.068240 0.049120 -0.029170
v -0.060060 0.052680 -0.032090
v -0.064830 0.046660 -0.034640
v -0.056790 0.049810 -0.037270
v -0.060770 0.043740 -0.039880
v -0.052910 0.046400 -0.042310
v -0.056080 0.040360 -0.044840
v -0.064080 0.037560 0.042050
v -0.068900 0.040380 0.036810
v -0.073040 0.042810 0.031220
v -0.076490 0.044820 0.025330
v -0.079200 0.046410 0.019210
v -0.081150 0.047560 0.012910
v -0.082330 0.048250 0.006480
v -0.082730 0.048480 0.000000
v -0.082330 0.048250 -0.006480
v -0.081150 0.047560 -0.012910
v -0.079200 0.046410 -0.019210
v -0.076490 0.044820 -0.025330
v -0.073040 0.042810 -0.031220
v -0.068900 0.040380 -0.036810
v -0.064080 0.037560 -0.042050
v -0.058650 0.034370 -0.046900
v -0.066790 0.031310 0.043830
v -0.072290 0.033890 0.038630
v -0.077130 0.036160 0.032970
v -0.081220 0.038070 0.026900
v -0.084490 0.039610 0.020490
v -0.086870 0.040720 0.013820
v -0.088320 0.041400 0.006960
v -0.088810 0.041630 0.000000
v -0.088320 0.041400 -0.006960
v -0.086870 0.040720 -0.013820
v -0.084490 0.039610 -0.020490
v -0.081220 0.038070 -0.026900
v -0.077130 0.036160 -0.032970
v -0.072290 0.033890 -0.038630
v -0.066790 0.031310 -0.043830
v -0.060700 0.028460 -0.048540
v -0.068930 0.025040 0.045240
v -0.075030 0.027260 0.040090
v -0.080480 0.029240 0.034400
v -0.085160 0.030940 0.028210
v -0.088950 0.032320 0.021580
v -0.091750 0.033330 0.014590
v -0.093460 0.033950 0.007360
v -0.094040 0.034160 0.000000
v -0.093460 0.033950 -0.007360
v -0.091750 0.033330 -0.014590
v -0.088950 0.032320 -0.021580
v -0.085160 0.030940 -0.028210
v -0.080480 0.029240 -0.034400
v -0.075030 0.027260 -0.040090
v -0.068930 0.025040 -0.045240
v -0.062300 0.022630 -0.049820
v -0.070550 0.018770 0.046300
v -0.077140 0.020520 0.041210
v -0.083100 0.022110 0.035520
v -0.088280 0.023490 0.029240
v -0.092520 0.024620 0.022440
v -0.095680 0.025460 0.015220
v -0.097630 0.025970 0.007690
v -0.098290 0.026150 0.000000
v -0.097630 0.025970 -0.007690
v -0.095680 0.025460 -0.015220
v -0.092520 0.024620 -0.022440
v -0.088280 0.023490 -0.029240
v -0.083100 0.022110 -0.035520
v -0.077140 0.020520 -0.041210
v -0.070550 0.018770 -0.046300
v -0.063490 0.016890 -0.050770
v -0.071690 0.012510 0.047040
v -0.078620 0.013720 0.042010
v -0.084970 0.014820 0.036320
v -0.090530 0.015790 0.029990
v -0.095120 0.016590 0.023070
v -0.098570 0.017200 0.015680
v -0.100700 0.017570 0.007930
v -0.101420 0.017690 0.000000
v -0.100700 0.017570 -0.007930
v -0.098570 0.017200 -0.015680
v -0.095120 0.016590 -0.023070
v -0.090530 0.015790 -0.029990
v -0.084970 0.014820 -0.036320
v -0.078620 0.013720 -0.042010
v -0.071690 0.012510 -0.047040
v -0.064310 0.011220 -0.051420
v -0.072360 0.006250 0.047480
v -0.079510 0.006870 0.042480
v -0.086090 0.007440 0.036800
v -0.091890 0.007940 0.030440
v -0.096710 0.008350 0.023460
v -0.100330 0.008670 0.015960
v -0.102580 0.008860 0.008080
v -0.103350 0.008930 0.000000
v -0.102580 0.008860 -0.008080
v -0.100330 0.008670 -0.015960
v -0.096710 0.008350 -0.023460
v -0.091890 0.007940 -0.030440
v -0.086090 0.007440 -0.036800
v -0.079510 0.006870 -0.042480
v -0.072360 0.006250 -0.047480
v -0.064790 0.005600 -0.051810
v -0.072580 0.000000 0.047630
v -0.079810 0.000000 0.042640
v -0.086460 0.000000 0.036960
v -0.092350 0.000000 0.030590
v -0.097240 0.000000 0.023590
v -0.100920 0.000000 0.016050
v -0.103220 0.000000 0.008130
v -0.104000 0.000000 0.000000
v -0.103220 0.000000 -0.008130
v -0.100920 0.000000 -0.016050
v -0.097240 0.000000 -0.023590
v -0.092350 0.000000 -0.030590
v -0.086460 0.000000 -0.036960
v -0.079810 0.000000 -0.042640
v -0.072580 0.000000 -0.047630
v -0.064950 0.000000 -0.051940
v -0.072360 -0.006250 0.047480
v -0.079510 -0.006870 0.042480
v -0.086090 -0.007440 0.036800
v -0.091890 -0.007940 0.030440
v -0.096710 -0.008350 0.023460
v -0.100330 -0.008670 0.015960
v -0.102580 -0.008860 0.008080
v -0.103350 -0.008930 0.000000
v -0.102580 -0.008860 -0.008080
v -0.100330 -0.008670 -0.015960
v -0.096710 -0.008350 -0.023460
v -0.091890 -0.007940 -0.030440
v -0.086090 -0.007440 -0.036800
v -0.079510 -0.006870 -0.042480
v -0.072360 -0.006250 -0.047480
v -0.064790 -0.005600 -0.051810
v -0.071690 -0.012510 0.047040
v -0.078620 -0.013720 0.042010
v -0.084970 -0.014820 0.036320
v -0.090530 -0.015790 0.029990
v -0.095120 -0.016590 0.023070
v -0.098570 -0.017200 0.015680
v -0.100700 -0.017570 0.007930
v -0.101420 -0.017690 0.000000
v -0.100700 -0.017570 -0.007930
v -0.098570 -0.017200 -0.015680
v -0.095120 -0.016590 -0.023070
v -0.090530 -0.015790 -0.029990
v -0.084970 -0.014820 -0.036320
v -0.078620 -0.013720 -0.042010
v -0.071690 -0.012510 -0.047040
v -0.064310 -0.011220 -0.051420
v -0.070550 -0.018770 0.046300
v -0.077140 -0.020520 0.041210
v -0.083100 -0.022110 0.035520
v -0.088280 -0.023490 0.029240
v -0.092520 -0.024620 0.022440
v -0.095680 -0.025460 0.015220
v -0.097630 -0.025970 0.007690
v -0.098290 -0.026150 0.000000
v -0.097630 -0.025970 -0.007690
v -0.095680 -0.025460 -0.015220
v -0.092520 -0.024620 -0.022440
v -0.088280 -0.023490 -0.029240
v -0.083100 -0.022110 -0.035520
v -0.077140 -0.020520 -0.041210
v -0.070550 -0.018770 -0.046300
v -0.063490 -0.016890 -0.050770
v -0.068930 -0.025040 0.045240
v -0.075030 -0.027260 0.040090
v -0.080480 -0.029240 0.034400
v -0.085160 -0.030940 0.028210
v -0.088950 -0.032320 0.021580
v -0.091750 -0.033330 0.014590
v -0.093460 -0.033950 0.007360
v -0.094040 -0.034160 0.000000
v -0.093460 -0.033950 -0.007360
v -0.091750 -0.033330 -0.014590
v -0.088950 -0.032320 -0.021580
v -0.085160 -0.030940 -0.028210
v -0.080480 -0.029240 -0.034400
v -0.075030 -0.027260 -0.040090
v -0.068930 -0.025040 -0.045240
v -0.062300 -0.022630 -0.049820
v -0.066790 -0.031310 0.043830
v -0.072290 -0.033890 0.038630
v -0.077130 -0.036160 0.032970
v -0.081220 -0.038070 0.026900
v -0.084490 -0.039610 0.020490
v -0.086870 -0.040720 0.013820
v -0.088320 -0.041400 0.006960
v -0.088810 -0.041630 0.000000
v -0.088320 -0.041400 -0.006960
v -0.086870 -0.040720 -0.013820
v -0.084490 -0.039610 -0.020490
v -0.081220 -0.038070 -0.026900
v -0.077130 -0.036160 -0.032970
v -0.072290 -0.033890 -0.038630
v -0.066790 -0.031310 -0.043830
v -0.060700 -0.028460 -0.048540
v -0.064080 -0.037560 0.042050
v -0.068900 -0.040380 0.036810
v -0.073040 -0.042810 0.031220
v -0.076490 -0.044820 0.025330
v -0.079200 -0.046410 0.019210
v -0.081150 -0.047560 0.012910
v -0.082330 -0.048250 0.006480
v -0.082730 -0.048480 0.000000
v -0.082330 -0.048250 -0.006480
v -0.081150 -0.047560 -0.012910
v -0.079200 -0.046410 -0.019210
v -0.076490 -0.044820 -0.025330
v -0.073040 -0.042810 -0.031220
v -0.068900 -0.040380 -0.036810
v -0.064080 -0.037560 -0.042050
v -0.058650 -0.034370 -0.046900
v -0.060770 -0.043740 0.039880
v -0.064830 -0.046660 0.034640
v -0.068240 -0.049120 0.029170
v -0.071030 -0.051130 0.023530
v -0.073180 -0.052680 0.017750
v -0.074720 -0.053780 0.011880
v -0.075630 -0.054440 0.005960
v -0.075940 -0.054660 0.000000
v -0.075630 -0.054440 -0.005960
v -0.074720 -0.053780 -0.011880
v -0.073180 -0.052680 -0.017750
v -0.071030 -0.051130 -0.023530
v -0.068240 -0.049120 -0.029170
v -0.064830 -0.046660 -0.034640
v -0.060770 -0.043740 -0.039880
v -0.056080 -0.040360 -0.044840
v 0.049060 0.052430 0.039230
v 0.056790 0.049810 0.037270
v 0.052220 0.055800 0.034000
v 0.060060 0.052680 0.032090
v 0.054860 0.058630 0.028570
v 0.062750 0.055040 0.026820
v 0.057000 0.060920 0.023010
v 0.064890 0.056920 0.021490
v 0.058650 0.062680 0.017340
v 0.066530 0.058350 0.016140
v 0.059820 0.063930 0.011590
v 0.067670 0.059350 0.010760
v 0.060520 0.064680 0.005810
v 0.068350 0.059950 0.005380
v 0.060760 0.064930 0.000000
v 0.068580 0.060140 0.000000
v 0.068350 0.059950 -0.005380
v 0.060520 0.064680 -0.005810
v 0.067670 0.059350 -0.010760
v 0.059820 0.063930 -0.011590
v 0.066530 0.058350 -0.016140
v 0.058650 0.062680 -0.017340
v 0.064890 0.056920 -0.021490
v 0.057000 0.060920 -0.023010
v 0.062750 0.055040 -0.026820
v 0.054860 0.058630 -0.028570
v 0.060060 0.052680 -0.032090
v 0.052220 0.055800 -0.034000
v 0.056790 0.049810 -0.037270
v 0.049060 0.052430 -0.039230
v 0.052910 0.046400 -0.042310
v 0.045380 0.048500 -0.044220
v 0.041530 0.054510 0.040790
v 0.044440 0.058340 0.035540
v 0.046920 0.061590 0.030010
v 0.048960 0.064260 0.024270
v 0.050540 0.066340 0.018350
v 0.051680 0.067830 0.012300
v 0.052360 0.068720 0.006170
v 0.052580 0.069020 0.000000
v 0.052360 0.068720 -0.006170
v 0.051680 0.067830 -0.012300
v 0.050540 0.066340 -0.018350
v 0.048960 0.064260 -0.024270
v 0.046920 0.061590 -0.030010
v 0.044440 0.058340 -0.035540
v 0.041530 0.054510 -0.040790
v 0.038190 0.050130 -0.045710
v 0.034220 0.056150 0.042010
v 0.036780 0.060360 0.036770
v 0.038990 0.063980 0.031180
v 0.040830 0.066990 0.025300
v 0.042270 0.069360 0.019180
v 0.043310 0.071060 0.012890
v 0.043940 0.072090 0.006470
v 0.044140 0.072440 0.000000
v 0.043940 0.072090 -0.006470
v 0.043310 0.071060 -0.012890
v 0.042270 0.069360 -0.019180
v 0.040830 0.066990 -0.025300
v 0.038990 0.063980 -0.031180
v 0.036780 0.060360 -0.036770
v 0.034220 0.056150 -0.042010
v 0.031320 0.051400 -0.046860
v 0.027110 0.057400 0.042950
v 0.029240 0.061920 0.037720
v 0.031100 0.065860 0.032090
v 0.032660 0.069150 0.026110
v 0.033890 0.071760 0.019850
v 0.034790 0.073660 0.013360
v 0.035330 0.074810 0.006720
v 0.035510 0.075190 0.000000
v 0.035330 0.074810 -0.006720
v 0.034790 0.073660 -0.013360
v 0.033890 0.071760 -0.019850
v 0.032660 0.069150 -0.026110
v 0.031100 0.065860 -0.032090
v 0.029240 0.061920 -0.037720
v 0.027110 0.057400 -0.042950
v 0.024730 0.052350 -0.047730
v 0.020170 0.058330 0.043640
v 0.021820 0.063090 0.038430
v 0.023260 0.067270 0.032780
v 0.024480 0.070790 0.026730
v 0.025460 0.073600 0.020360
v 0.026160 0.075650 0.013720
v 0.026590 0.076890 0.006900
v 0.026740 0.077310 0.000000
v 0.026590 0.076890 -0.006900
v 0.026160 0.075650 -0.013720
v 0.025460 0.073600 -0.020360
v 0.024480 0.070790 -0.026730
v 0.023260 0.067270 -0.032780
v 0.021820 0.063090 -0.038430
v 0.020170 0.058330 -0.043640
v 0.018350 0.053050 -0.048370
v 0.013370 0.058970 0.044120
v 0.014490 0.063900 0.038930
v 0.015480 0.068250 0.033260
v 0.016310 0.071930 0.027170
v 0.016980 0.074890 0.020710
v 0.017470 0.077050 0.013970
v 0.017770 0.078370 0.007040
v 0.017870 0.078810 0.000000
v 0.017770 0.078370 -0.007040
v 0.017470 0.077050 -0.013970
v 0.016980 0.074890 -0.020710
v 0.016310 0.071930 -0.027170
v 0.015480 0.068250 -0.033260
v 0.014490 0.063900 -0.038930
v 0.013370 0.058970 -0.044120
v 0.012140 0.053530 -0.048810
v 0.006660 0.059340 0.044400
v 0.007230 0.064370 0.039210
v 0.007730 0.068820 0.033540
v 0.008150 0.072610 0.027420
v 0.008500 0.075660 0.020920
v 0.008750 0.077880 0.014120
v 0.008900 0.079250 0.007120
v 0.008950 0.079700 0.000000
v 0.008900 0.079250 -0.007120
v 0.008750 0.077880 -0.014120
v 0.008500 0.075660 -0.020920
v 0.008150 0.072610 -0.027420
v 0.007730 0.068820 -0.033540
v 0.007230 0.064370 -0.039210
v 0.006660 0.059340 -0.044400
v 0.006040 0.053810 -0.049060
v 0.000000 0.059460 0.044490
v 0.000000 0.064530 0.039310
v 0.000000 0.069010 0.033630
v 0.000000 0.072840 0.027510
v 0.000000 0.075910 0.020990
v 0.000000 0.078160 0.014170
v 0.000000 0.079540 0.007140
v 0.000000 0.080000 0.000000
v 0.000000 0.079540 -0.007140
v 0.000000 0.078160 -0.014170
v 0.000000 0.075910 -0.020990
v 0.000000 0.072840 -0.027510
v 0.000000 0.069010 -0.033630
v 0.000000 0.064530 -0.039310
v 0.000000 0.059460 -0.044490
v 0.000000 0.053900 -0.049140
v -0.006660 0.059340 0.044400
v -0.007230 0.064370 0.039210
v -0.007730 0.068820 0.033540
v -0.008150 0.072610 0.027420
v -0.008500 0.075660 0.020920
v -0.008750 0.077880 0.014120
v -0.008900 0.079250 0.007120
v -0.008950 0.079700 0.000000
v -0.008900 0.079250 -0.007120
v -0.008750 0.077880 -0.014120
v -0.008500 0.075660 -0.020920
v -0.008150 0.072610 -0.027420
v -0.007730 0.068820 -0.033540
v -0.007230 0.064370 -0.039210
v -0.006660 0.059340 -0.044400
v -0.006040 0.053810 -0.049060
v -0.013370 0.058970 0.044120
v -0.014490 0.063900 0.038930
v -0.015480 0.068250 0.033260
v -0.016310 0.071930 0.027170
v -0.016980 0.074890 0.020710
v -0.017470 0.077050 0.013970
v -0.017770 0.078370 0.007040
v -0.017870 0.078810 0.000000
v -0.017770 0.078370 -0.007040
v -0.017470 0.077050 -0.013970
v -0.016980 0.074890 -0.020710
v -0.016310 0.071930 -0.027170
v -0.015480 0.068250 -0.033260
v -0.014490 0.063900 -0.038930
v -0.013370 0.058970 -0.044120
v -0.012140 0.053530 -0.048810
v -0.020170 0.058330 0.043640
v -0.021820 0.063090 0.038430
v -0.023260 0.067270 0.032780
v -0.024480 0.070790 0.026730
v -0.025460 0.073600 0.020360
v -0.026160 0.075650 0.013720
v -0.026590 0.076890 0.006900
v -0.026740 0.077310 0.000000
v -0.026590 0.076890 -0.006900
v -0.026160 0.075650 -0.013720
v -0.025460 0.073600 -0.020360
v -0.024480 0.070790 -0.026730
v -0.023260 0.067270 -0.032780
v -0.021820 0.063090 -0.038430
v -0.020170 0.058330 -0.043640
v -0.018350 0.053050 -0.048370
v -0.027110 0.057400 0.042950
v -0.029240 0.061920 0.037720
v -0.031100 0.065860 0.032090
v -0.032660 0.069150 0.026110
v -0.033890 0.071760 0.019850
v -0.034790 0.073660 0.013360
v -0.035330 0.074810 0.006720
v -0.035510 0.075190 0.000000
v -0.035330 0.074810 -0.006720
v -0.034790 0.073660 -0.013360
v -0.033890 0.071760 -0.019850
v -0.032660 0.069150 -0.026110
v -0.031100 0.065860 -0.032090
v -0.029240 0.061920 -0.037720
v -0.027110 0.057400 -0.042950
v -0.024730 0.052350 -0.047730
v -0.034220 0.056150 0.042010
v -0.036780 0.060360 0.036770
v -0.038990 0.063980 0.031180
v -0.040830 0.066990 0.025300
v -0.042270 0.069360 0.019180
v -0.043310 0.071060 0.012890
v -0.043940 0.072090 0.006470
v -0.044140 0.072440 0.000000
v -0.043940 0.072090 -0.006470
v -0.043310 0.071060 -0.012890
v -0.042270 0.069360 -0.019180
v -0.040830 0.066990 -0.025300
v -0.038990 0.063980 -0.031180
v -0.036780 0.060360 -0.036770
v -0.034220 0.056150 -0.042010
v -0.031320 0.051400 -0.046860
v -0.041530 0.054510 0.040790
v -0.044440 0.058340 0.035540
v -0.046920 0.061590 0.030010
v -0.048960 0.064260 0.024270
v -0.050540 0.066340 0.018350
v -0.051680 0.067830 0.012300
v -0.052360 0.068720 0.006170
v -0.052580 0.069020 0.000000
v -0.052360 0.068720 -0.006170
v -0.051680 0.067830 -0.012300
v -0.050540 0.066340 -0.018350
v -0.048960 0.064260 -0.024270
v -0.046920 0.061590 -0.030010
v -0.044440 0.058340 -0.035540
v -0.041530 0.054510 -0.040790
v -0.038190 0.050130 -0.045710
v -0.049060 0.052430 0.039230
v -0.052220 0.055800 0.034000
v -0.054860 0.058630 0.028570
v -0.057000 0.060920 0.023010
v -0.058650 0.062680 0.017340
v -0.059820 0.063930 0.011590
v -0.060520 0.064680 0.005810
v -0.060760 0.064930 0.000000
v -0.060520 0.064680 -0.005810
v -0.059820 0.063930 -0.011590
v -0.058650 0.062680 -0.017340
v -0.057000 0.060920 -0.023010
v -0.054860 0.058630 -0.028570
v -0.052220 0.055800 -0.034000
v -0.049060 0.052430 -0.039230
v -0.045380 0.048500 -0.044220
v 0.060770 -0.043740 0.039880
v 0.064830 -0.046660 0.034640
v 0.068240 -0.049120 0.029170
v 0.071030 -0.051130 0.023530
v 0.073180 -0.052680 0.017750
v 0.074720 -0.053780 0.011880
v 0.075630 -0.054440 0.005960
v 0.075940 -0.054660 0.000000
v 0.075630 -0.054440 -0.005960
v 0.074720 -0.053780 -0.011880
v 0.073180 -0.052680 -0.017750
v 0.071030 -0.051130 -0.023530
v 0.068240 -0.049120 -0.029170
v 0.064830 -0.046660 -0.034640
v 0.060770 -0.043740 -0.039880
v 0.056080 -0.040360 -0.044840
v 0.064080 -0.037560 0.042050
v 0.068900 -0.040380 0.036810
v 0.073040 -0.042810 0.031220
v 0.076490 -0.044820 0.025330
v 0.079200 -0.046410 0.019210
v 0.081150 -0.047560 0.012910
v 0.082330 -0.048250 0.006480
v 0.082730 -0.048480 0.000000
v 0.082330 -0.048250 -0.006480
v 0.081150 -0.047560 -0.012910
v 0.079200 -0.046410 -0.019210
v 0.076490 -0.044820 -0.025330
v 0.073040 -0.042810 -0.031220
v 0.068900 -0.040380 -0.036810
v 0.064080 -0.037560 -0.042050
v 0.058650 -0.034370 -0.046900
v 0.066790 -0.031310 0.043830
v 0.072290 -0.033890 0.038630
v 0.077130 -0.036160 0.032970
v 0.081220 -0.038070 0.026900
v 0.084490 -0.039610 0.020490
v 0.086870 -0.040720 0.013820
v 0.088320 -0.041400 0.006960
v 0.088810 -0.041630 0.000000
v 0.088320 -0.041400 -0.006960
v 0.086870 -0.040720 -0.013820
v 0.084490 -0.039610 -0.020490
v 0.081220 -0.038070 -0.026900
v 0.077130 -0.036160 -0.032970
v 0.072290 -0.033890 -0.038630
v 0.066790 -0.031310 -0.043830
v 0.060700 -0.028460 -0.048540
v 0.068930 -0.025040 0.045240
v 0.075030 -0.027260 0.040090
v 0.080480 -0.029240 0.034400
v 0.085160 -0.030940 0.028210
v 0.088950 -0.032320 0.021580
v 0.091750 -0.033330 0.014590
v 0.093460 -0.033950 0.007360
v 0.094040 -0.034160 0.000000
v 0.093460 -0.033950 -0.007360
v 0.091750 -0.033330 -0.014590
v 0.088950 -0.032320 -0.021580
v 0.085160 -0.030940 -0.028210
v 0.080480 -0.029240 -0.034400
v 0.075030 -0.027260 -0.040090
v 0.068930 -0.025040 -0.045240
v 0.062300 -0.022630 -0.049820
v 0.070550 -0.018770 0.046300
v 0.077140 -0.020520 0.041210
v 0.083100 -0.022110 0.035520
v 0.088280 -0.023490 0.029240
v 0.092520 -0.024620 0.022440
v 0.095680 -0.025460 0.015220
v 0.097630 -0.025970 0.007690
v 0.098290 -0.026150 0.000000
v 0.097630 -0.025970 -0.007690
v 0.095680 -0.025460 -0.015220
v 0.092520 -0.024620 -0.022440
v 0.088280 -0.023490 -0.029240
v 0.083100 -0.022110 -0.035520
v 0.077140 -0.020520 -0.041210
v 0.070550 -0.018770 -0.046300
v 0.063490 -0.016890 -0.050770
v 0.071690 -0.012510 0.047040
v 0.078620 -0.013720 0.042010
v 0.084970 -0.014820 0.036320
v 0.090530 -0.015790 0.029990
v 0.095120 -0.016590 0.023070
v 0.098570 -0.017200 0.015680
v 0.100700 -0.017570 0.007930
v 0.101420 -0.017690 0.000000
v 0.100700 -0.017570 -0.007930
v 0.098570 -0.017200 -0.015680
v 0.095120 -0.016590 -0.023070
v 0.090530 -0.015790 -0.029990
v 0.084970 -0.014820 -0.036320
v 0.078620 -0.013720 -0.042010
v 0.071690 -0.012510 -0.047040
v 0.064310 -0.011220 -0.051420
v 0.072360 -0.006250 0.047480
v 0.079510 -0.006870 0.042480
v 0.086090 -0.007440 0.036800
v 0.091890 -0.007940 0.030440
v 0.096710 -0.008350 0.023460
v 0.100330 -0.008670 0.015960
v 0.102580 -0.008860 0.008080
v 0.103350 -0.008930 0.000000
v 0.102580 -0.008860 -0.008080
v 0.100330 -0.008670 -0.015960
v 0.096710 -0.008350 -0.023460
v 0.091890 -0.007940 -0.030440
v 0.086090 -0.007440 -0.036800
v 0.079510 -0.006870 -0.042480
v 0.072360 -0.006250 -0.047480
v 0.064790 -0.005600 -0.051810
v 0.072580 0.000000 0.047630
v 0.079810 0.000000 0.042640
v 0.086460 0.000000 0.036960
v 0.092350 0.000000 0.030590
v 0.097240 0.000000 0.023590
v 0.100920 0.000000 0.016050
v 0.103220 0.000000 0.008130
v 0.104000 0.000000 0.000000
v 0.103220 0.000000 -0.008130
v 0.100920 0.000000 -0.016050
v 0.097240 0.000000 -0.023590
v 0.092350 0.000000 -0.030590
v 0.086460 0.000000 -0.036960
v 0.079810 0.000000 -0.042640
v 0.072580 0.000000 -0.047630
v 0.064950 0.000000 -0.051940
v 0.072360 0.006250 0.047480
v 0.079510 0.006870 0.042480
v 0.086090 0.007440 0.036800
v 0.091890 0.007940 0.030440
v 0.096710 0.008350 0.023460
v 0.100330 0.008670 0.015960
v 0.102580 0.008860 0.008080
v 0.103350 0.008930 0.000000
v 0.102580 0.008860 -0.008080
v 0.100330 0.008670 -0.015960
v 0.096710 0.008350 -0.023460
v 0.091890 0.007940 -0.030440
v 0.086090 0.007440 -0.036800
v 0.079510 0.006870 -0.042480
v 0.072360 0.006250 -0.047480
v 0.064790 0.005600 -0.051810
v 0.071690 0.012510 0.047040
v 0.078620 0.013720 0.042010
v 0.084970 0.014820 0.036320
v 0.090530 0.015790 0.029990
v 0.095120 0.016590 0.023070
v 0.098570 0.017200 0.015680
v 0.100700 0.017570 0.007930
v 0.101420 0.017690 0.000000
v 0.100700 0.017570 -0.007930
v 0.098570 0.017200 -0.015680
v 0.095120 0.016590 -0.023070
v 0.090530 0.015790 -0.029990
v 0.084970 0.014820 -0.036320
v 0.078620 0.013720 -0.042010
v 0.071690 0.012510 -0.047040
v 0.064310 0.011220 -0.051420
v 0.070550 0.018770 0.046300
v 0.077140 0.020520 0.041210
v 0.083100 0.022110 0.035520
v 0.088280 0.023490 0.029240
v 0.092520 0.024620 0.022440
v 0.095680 0.025460 0.015220
v 0.097630 0.025970 0.007690
v 0.098290 0.026150 0.000000
v 0.097630 0.025970 -0.007690
v 0.095680 0.025460 -0.015220
v 0.092520 0.024620 -0.022440
v 0.088280 0.023490 -0.029240
v 0.083100 0.022110 -0.035520
v 0.077140 0.020520 -0.041210
v 0.070550 0.018770 -0.046300
v 0.063490 0.016890 -0.050770
v 0.068930 0.025040 0.045240
v 0.075030 0.027260 0.040090
v 0.080480 0.029240 0.034400
v 0.085160 0.030940 0.028210
v 0.088950 0.032320 0.021580
v 0.091750 0.033330 0.014590
v 0.093460 0.033950 0.007360
v 0.094040 0.034160 0.000000
v 0.093460 0.033950 -0.007360
v 0.091750 0.033330 -0.014590
v 0.088950 0.032320 -0.021580
v 0.085160 0.030940 -0.028210
v 0.080480 0.029240 -0.034400
v 0.075030 0.027260 -0.040090
v 0.068930 0.025040 -0.045240
v 0.062300 0.022630 -0.049820
v 0.066790 0.031310 0.043830
v 0.072290 0.033890 0.038630
v 0.077130 0.036160 0.032970
v 0.081220 0.038070 0.026900
v 0.084490 0.039610 0.020490
v 0.086870 0.040720 0.013820
v 0.088320 0.041400 0.006960
v 0.088810 0.041630 0.000000
v 0.088320 0.041400 -0.006960
v 0.086870 0.040720 -0.013820
v 0.084490 0.039610 -0.020490
v 0.081220 0.038070 -0.026900
v 0.077130 0.036160 -0.032970
v 0.072290 0.033890 -0.038630
v 0.066790 0.031310 -0.043830
v 0.060700 0.028460 -0.048540
v 0.064080 0.037560 0.042050
v 0.068900 0.040380 0.036810
v 0.073040 0.042810 0.031220
v 0.076490 0.044820 0.025330
v 0.079200 0.046410 0.019210
v 0.081150 0.047560 0.012910
v 0.082330 0.048250 0.006480
v 0.082730 0.048480 0.000000
v 0.082330 0.048250 -0.006480
v 0.081150 0.047560 -0.012910
v 0.079200 0.046410 -0.019210
v 0.076490 0.044820 -0.025330
v 0.073040 0.042810 -0.031220
v 0.068900 0.040380 -0.036810
v 0.064080 0.037560 -0.042050
v 0.058650 0.034370 -0.046900
v 0.060770 0.043740 0.039880
v 0.064830 0.046660 0.034640
v 0.068240 0.049120 0.029170
v 0.071030 0.051130 0.023530
v 0.073180 0.052680 0.017750
v 0.074720 0.053780 0.011880
v 0.075630 0.054440 0.005960
v 0.075940 0.054660 0.000000
v 0.075630 0.054440 -0.005960
v 0.074720 0.053780 -0.011880
v 0.073180 0.052680 -0.017750
v 0.071030 0.051130 -0.023530
v 0.068240 0.049120 -0.029170
v 0.064830 0.046660 -0.034640
v 0.060770 0.043740 -0.039880
v 0.056080 0.040360 -0.044840
v -0.048370 -0.042430 -0.047130
v -0.050850 -0.036310 -0.049540
v -0.052840 -0.030190 -0.051490
v -0.054410 -0.024090 -0.053020
v -0.055590 -0.018020 -0.054170
v -0.056420 -0.011990 -0.054970
v -0.056900 -0.005990 -0.055440
v -0.057060 0.000000 -0.055600
v -0.056900 0.005990 -0.055440
v -0.056420 0.011990 -0.054970
v -0.055590 0.018020 -0.054170
v -0.054410 0.024090 -0.053020
v -0.052840 0.030190 -0.051490
v -0.050850 0.036310 -0.049540
v -0.048370 0.042430 -0.047130
v -0.040910 -0.044060 -0.048950
v -0.043170 -0.037870 -0.051670
v -0.045030 -0.031590 -0.053890
v -0.046500 -0.025280 -0.055650
v -0.047610 -0.018960 -0.056980
v -0.048400 -0.012640 -0.057920
v -0.048860 -0.006320 -0.058470
v -0.049010 0.000000 -0.058650
v -0.048860 0.006320 -0.058470
v -0.048400 0.012640 -0.057920
v -0.047610 0.018960 -0.056980
v -0.046500 0.025280 -0.055650
v -0.045030 0.031590 -0.053890
v -0.043170 0.037870 -0.051670
v -0.040910 0.044060 -0.048950
v -0.033670 -0.045350 -0.050380
v -0.035660 -0.039100 -0.053350
v -0.037300 -0.032710 -0.055800
v -0.038610 -0.026240 -0.057760
v -0.039610 -0.019720 -0.059260
v -0.040320 -0.013160 -0.060320
v -0.040740 -0.006580 -0.060940
v -0.040870 0.000000 -0.061150
v -0.040740 0.006580 -0.060940
v -0.040320 0.013160 -0.060320
v -0.039610 0.019720 -0.059260
v -0.038610 0.026240 -0.057760
v -0.037300 0.032710 -0.055800
v -0.035660 0.039100 -0.053350
v -0.033670 0.045350 -0.050380
v -0.026660 -0.046330 -0.051470
v -0.028310 -0.040050 -0.054650
v -0.029680 -0.033590 -0.057290
v -0.030780 -0.027000 -0.059420
v -0.031630 -0.020310 -0.061060
v -0.032230 -0.013570 -0.062210
v -0.032580 -0.006790 -0.062900
v -0.032700 0.000000 -0.063130
v -0.032580 0.006790 -0.062900
v -0.032230 0.013570 -0.062210
v -0.031630 0.020310 -0.061060
v -0.030780 0.027000 -0.059420
v -0.029680 0.033590 -0.057290
v -0.028310 0.040050 -0.054650
v -0.026660 0.046330 -0.051470
v -0.019830 -0.047050 -0.052270
v -0.021100 -0.040760 -0.055610
v -0.022160 -0.034240 -0.058410
v -0.023020 -0.027560 -0.060670
v -0.023680 -0.020770 -0.062410
v -0.024140 -0.013890 -0.063650
v -0.024420 -0.006950 -0.064380
v -0.024520 0.000000 -0.064630
v -0.024420 0.006950 -0.064380
v -0.024140 0.013890 -0.063650
v -0.023680 0.020770 -0.062410
v -0.023020 0.027560 -0.060670
v -0.022160 0.034240 -0.058410
v -0.021100 0.040760 -0.055610
v -0.019830 0.047050 -0.052270
v -0.013140 -0.047540 -0.052820
v -0.014000 -0.041240 -0.056270
v -0.014720 -0.034690 -0.059180
v -0.015310 -0.027960 -0.061530
v -0.015760 -0.021080 -0.063350
v -0.016080 -0.014100 -0.064650
v -0.016270 -0.007070 -0.065420
v -0.016340 0.000000 -0.065670
v -0.016270 0.007070 -0.065420
v -0.016080 0.014100 -0.064650
v -0.015760 0.021080 -0.063350
v -0.015310 0.027960 -0.061530
v -0.014720 0.034690 -0.059180
v -0.014000 0.041240 -0.056270
v -0.013140 0.047540 -0.052820
v -0.006550 -0.047830 -0.053140
v -0.006980 -0.041530 -0.056660
v -0.007340 -0.034960 -0.059630
v -0.007640 -0.028190 -0.062040
v -0.007870 -0.021260 -0.063910
v -0.008040 -0.014230 -0.065240
v -0.008130 -0.007130 -0.066030
v -0.008170 0.000000 -0.066290
v -0.008130 0.007130 -0.066030
v -0.008040 0.014230 -0.065240
v -0.007870 0.021260 -0.063910
v -0.007640 0.028190 -0.062040
v -0.007340 0.034960 -0.059630
v -0.006980 0.041530 -0.056660
v -0.006550 0.047830 -0.053140
v 0.000000 -0.047930 -0.053250
v 0.000000 -0.041620 -0.056790
v 0.000000 -0.035050 -0.059780
v 0.000000 -0.028260 -0.062210
v 0.000000 -0.021330 -0.064090
v 0.000000 -0.014280 -0.065430
v 0.000000 -0.007160 -0.066230
v 0.000000 0.000000 -0.066500
v 0.000000 0.007160 -0.066230
v 0.000000 0.014280 -0.065430
v 0.000000 0.021330 -0.064090
v 0.000000 0.028260 -0.062210
v 0.000000 0.035050 -0.059780
v 0.000000 0.041620 -0.056790
v 0.000000 0.047930 -0.053250
v 0.006550 -0.047830 -0.053140
v 0.006980 -0.041530 -0.056660
v 0.007340 -0.034960 -0.059630
v 0.007640 -0.028190 -0.062040
v 0.007870 -0.021260 -0.063910
v 0.008040 -0.014230 -0.065240
v 0.008130 -0.007130 -0.066030
v 0.008170 0.000000 -0.066290
v 0.008130 0.007130 -0.066030
v 0.008040 0.014230 -0.065240
v 0.007870 0.021260 -0.063910
v 0.007640 0.028190 -0.062040
v 0.007340 0.034960 -0.059630
v 0.006980 0.041530 -0.056660
v 0.006550 0.047830 -0.053140
v 0.013140 -0.047540 -0.052820
v 0.014000 -0.041240 -0.056270
v 0.014720 -0.034690 -0.059180
v 0.015310 -0.027960 -0.061530
v 0.015760 -0.021080 -0.063350
v 0.016080 -0.014100 -0.064650
v 0.016270 -0.007070 -0.065420
v 0.016340 0.000000 -0.065670
v 0.016270 0.007070 -0.065420
v 0.016080 0.014100 -0.064650
v 0.015760 0.021080 -0.063350
v 0.015310 0.027960 -0.061530
v 0.014720 0.034690 -0.059180
v 0.014000 0.041240 -0.056270
v 0.013140 0.047540 -0.052820
v 0.019830 -0.047050 -0.052270
v 0.021100 -0.040760 -0.055610
v 0.022160 -0.034240 -0.058410
v 0.023020 -0.027560 -0.060670
v 0.023680 -0.020770 -0.062410
v 0.024140 -0.013890 -0.063650
v 0.024420 -0.006950 -0.064380
v 0.024520 0.000000 -0.064630
v 0.024420 0.006950 -0.064380
v 0.024140 0.013890 -0.063650
v 0.023680 0.020770 -0.062410
v 0.023020 0.027560 -0.060670
v 0.022160 0.034240 -0.058410
v 0.021100 0.040760 -0.055610
v 0.019830 0.047050 -0.052270
v 0.026660 -0.046330 -0.051470
v 0.028310 -0.040050 -0.054650
v 0.029680 -0.033590 -0.057290
v 0.030780 -0.027000 -0.059420
v 0.031630 -0.020310 -0.061060
v 0.032230 -0.013570 -0.062210
v 0.032580 -0.006790 -0.062900
v 0.032700 0.000000 -0.063130
v 0.032580 0.006790 -0.062900
v 0.032230 0.013570 -0.062210
v 0.031630 0.020310 -0.061060
v 0.030780 0.027000 -0.059420
v 0.029680 0.033590 -0.057290
v 0.028310 0.040050 -0.054650
v 0.026660 0.046330 -0.051470
v 0.033670 -0.045350 -0.050380
v 0.035660 -0.039100 -0.053350
v 0.037300 -0.032710 -0.055800
v 0.038610 -0.026240 -0.057760
v 0.039610 -0.019720 -0.059260
v 0.040320 -0.013160 -0.060320
v 0.040740 -0.006580 -0.060940
v 0.040870 0.000000 -0.061150
v 0.040740 0.006580 -0.060940
v 0.040320 0.013160 -0.060320
v 0.039610 0.019720 -0.059260
v 0.038610 0.026240 -0.057760
v 0.037300 0.032710 -0.055800
v 0.035660 0.039100 -0.053350
v 0.033670 0.045350 -0.050380
v 0.040910 -0.044060 -0.048950
v 0.043170 -0.037870 -0.051670
v 0.045030 -0.031590 -0.053890
v 0.046500 -0.025280 -0.055650
v 0.047610 -0.018960 -0.056980
v 0.048400 -0.012640 -0.057920
v 0.048860 -0.006320 -0.058470
v 0.049010 0.000000 -0.058650
v 0.048860 0.006320 -0.058470
v 0.048400 0.012640 -0.057920
v 0.047610 0.018960 -0.056980
v 0.046500 0.025280 -0.055650
v 0.045030 0.031590 -0.053890
v 0.043170 0.037870 -0.051670
v 0.040910 0.044060 -0.048950
v 0.048370 -0.042430 -0.047130
v 0.050850 -0.036310 -0.049540
v 0.052840 -0.030190 -0.051490
v 0.054410 -0.024090 -0.053020
v 0.055590 -0.018020 -0.054170
v 0.056420 -0.011990 -0.054970
v 0.056900 -0.005990 -0.055440
v 0.057060 0.000000 -0.055600
v 0.056900 0.005990 -0.055440
v 0.056420 0.011990 -0.054970
v 0.055590 0.018020 -0.054170
v 0.054410 0.024090 -0.053020
v 0.052840 0.030190 -0.051490
v 0.050850 0.036310 -0.049540
v 0.048370 0.042430 -0.047130
s 0
f 1 2 3
f 1 4 2
f 4 5 2
f 4 6 5
f 6 7 5
f 6 8 7
f 8 9 7
f 8 10 9
f 10 11 9
f 10 12 11
f 12 13 11
f 12 14 13
f 14 15 13
f 14 16 15
f 16 17 15
f 16 18 17
f 18 19 17
f 17 19 20
f 19 21 20
f 20 21 22
f 21 23 22
f 22 23 24
f 23 25 24
f 24 25 26
f 25 27 26
f 26 27 28
f 27 29 28
f 28 29 30
f 29 31 30
f 30 31 32
f 31 33 32
f 32 33 34
f 3 35 36
f 3 2 35
f 2 37 35
f 2 5 37
f 5 38 37
f 5 7 38
f 7 39 38
f 7 9 39
f 9 40 39
f 9 11 40
f 11 41 40
f 11 13 41
f 13 42 41
f 13 15 42
f 15 43 42
f 15 17 43
f 17 20 43
f 43 20 44
f 20 22 44
f 44 22 45
f 22 24 45
f 45 24 46
f 24 26 46
f 46 26 47
f 26 28 47
f 47 28 48
f 28 30 48
f 48 30 49
f 30 32 49
f 49 32 50
f 32 34 50
f 50 34 51
f 36 52 53
f 36 35 52
f 35 54 52
f 35 37 54
f 37 55 54
f 37 38 55
f 38 56 55
f 38 39 56
f 39 57 56
f 39 40 57
f 40 58 57
f 40 41 58
f 41 59 58
f 41 42 59
f 42 60 59
f 42 43 60
f 43 44 60
f 60 44 61
f 44 45 61
f 61 45 62
f 45 46 62
f 62 46 63
f 46 47 63
f 63 47 64
f 47 48 64
f 64 48 65
f 48 49 65
f 65 49 66
f 49 50 66
f 66 50 67
f 50 51 67
f 67 51 68
f 53 69 70
f 53 52 69
f 52 71 69
f 52 54 71
f 54 72 71
f 54 55 72
f 55 73 72
f 55 56 73
f 56 74 73
f 56 57 74
f 57 75 74
f 57 58 75
f 58 76 75
f 58 59 76
f 59 77 76
f 59 60 77
f 60 61 77
f 77 61 78
f 61 62 78
f 78 62 79
f 62 63 79
f 79 63 80
f 63 64 80
f 80 64 81
f 64 65 81
f 81 65 82
f 65 66 82
f 82 66 83
f 66 67 83
f 83 67 84
f 67 68 84
f 84 68 85
f 70 86 87
f 70 69 86
f 69 88 86
f 69 71 88
f 71 89 88
f 71 72 89
f 72 90 89
f 72 73 90
f 73 91 90
f 73 74 91
f 74 92 91
f 74 75 92
f 75 93 92
f 75 76 93
f 76 94 93
f 76 77 94
f 77 78 94
f 94 78 95
f 78 79 95
f 95 79 96
f 79 80 96
f 96 80 97
f 80 81 97
f 97 81 98
f 81 82 98
f 98 82 99
f 82 83 99
f 99 83 100
f 83 84 100
f 100 84 101
f 84 85 101
f 101 85 102
f 87 103 104
f 87 86 103
f 86 105 103
f 86 88 105
f 88 106 105
f 88 89 106
f 89 107 106
f 89 90 107
f 90 108 107
f 90 91 108
f 91 109 108
f 91 92 109
f 92 110 109
f 92 93 110
f 93 111 110
f 93 94 111
f 94 95 111
f 111 95 112
f 95 96 112
f 112 96 113
f 96 97 113
f 113 97 114
f 97 98 114
f 114 98 115
f 98 99 115
f 115 99 116
f 99 100 116
f 116 100 117
f 100 101 117
f 117 101 118
f 101 102 118
f 118 102 119
f 104 120 121
f 104 103 120
f 103 122 120
f 103 105 122
f 105 123 122
f 105 106 123
f 106 124 123
f 106 107 124
f 107 125 124
f 107 108 125
f 108 126 125
f 108 109 126
f 109 127 126
f 109 110 127
f 110 128 127
f 110 111 128
f 111 112 128
f 128 112 129
f 112 113 129
f 129 113 130
f 113 114 130
f 130 114 131
f 114 115 131
f 131 115 132
f 115 116 132
f 132 116 133
f 116 117 133
f 133 117 134
f 117 118 134
f 134 118 135
f 118 119 135
f 135 119 136
f 121 137 138
f 121 120 137
f 120 139 137
f 120 122 139
f 122 140 139
f 122 123 140
f 123 141 140
f 123 124 141
f 124 142 141
f 124 125 142
f 125 143 142
f 125 126 143
f 126 144 143
f 126 127 144
f 127 145 144
f 127 128 145
f 128 129 145
f 145 129 146
f 129 130 146
f 146 130 147
f 130 131 147
f 147 131 148
f 131 132 148
f 148 132 149
f 132 133 149
f 149 133 150
f 133 134 150
f 150 134 151
f 134 135 151
f 151 135 152
f 135 136 152
f 152 136 153
f 138 137 154
f 154 137 155
f 137 139 155
f 155 139 156
f 139 140 156
f 156 140 157
f 140 141 157
f 157 141 158
f 141 142 158
f 158 142 159
f 142 143 159
f 159 143 160
f 143 144 160
f 160 144 161
f 144 145 161
f 161 145 162
f 145 163 162
f 145 146 163
f 146 164 163
f 146 147 164
f 147 165 164
f 147 148 165
f 148 166 165
f 148 149 166
f 149 167 166
f 149 150 167
f 150 168 167
f 150 151 168
f 151 169 168
f 151 152 169
f 152 170 169
f 152 153 170
f 154 155 171
f 171 155 172
f 155 156 172
f 172 156 173
f 156 157 173
f 173 157 174
f 157 158 174
f 174 158 175
f 158 159 175
f 175 159 176
f 159 160 176
f 176 160 177
f 160 161 177
f 177 161 178
f 161 162 178
f 178 162 179
f 162 180 179
f 162 163 180
f 163 181 180
f 163 164 181
f 164 182 181
f 164 165 182
f 165 183 182
f 165 166 183
f 166 184 183
f 166 167 184
f 167 185 184
f 167 168 185
f 168 186 185
f 168 169 186
f 169 187 186
f 169 170 187
f 171 172 188
f 188 172 189
f 172 173 189
f 189 173 190
f 173 174 190
f 190 174 191
f 174 175 191
f 191 175 192
f 175 176 192
f 192 176 193
f 176 177 193
f 193 177 194
f 177 178 194
f 194 178 195
f 178 179 195
f 195 179 196
f 179 197 196
f 179 180 197
f 180 198 197
f 180 181 198
f 181 199 198
f 181 182 199
f 182 200 199
f 182 183 200
f 183 201 200
f 183 184 201
f 184 202 201
f 184 185 202
f 185 203 202
f 185 186 203
f 186 204 203
f 186 187 204
f 188 189 205
f 205 189 206
f 189 190 206
f 206 190 207
f 190 191 207
f 207 191 208
f 191 192 208
f 208 192 209
f 192 193 209
f 209 193 210
f 193 194 210
f 210 194 211
f 194 195 211
f 211 195 212
f 195 196 212
f 212 196 213
f 196 214 213
f 196 197 214
f 197 215 214
f 197 198 215
f 198 216 215
f 198 199 216
f 199 217 216
f 199 200 217
f 200 218 217
f 200 201 218
f 201 219 218
f 201 202 219
f 202 220 219
f 202 203 220
f 203 221 220
f 203 204 221
f 205 206 222
f 222 206 223
f 206 207 223
f 223 207 224
f 207 208 224
f 224 208 225
f 208 209 225
f 225 209 226
f 209 210 226
f 226 210 227
f 210 211 227
f 227 211 228
f 211 212 228
f 228 212 229
f 212 213 229
f 229 213 230
f 213 231 230
f 213 214 231
f 214 232 231
f 214 215 232
f 215 233 232
f 215 216 233
f 216 234 233
f 216 217 234
f 217 235 234
f 217 218 235
f 218 236 235
f 218 219 236
f 219 237 236
f 219 220 237
f 220 238 237
f 220 221 238
f 222 223 239
f 239 223 240
f 223 224 240
f 240 224 241
f 224 225 241
f 241 225 242
f 225 226 242
f 242 226 243
f 226 227 243
f 243 227 244
f 227 228 244
f 244 228 245
f 228 229 245
f 245 229 246
f 229 230 246
f 246 230 247
f 230 248 247
f 230 231 248
f 231 249 248
f 231 232 249
f 232 250 249
f 232 233 250
f 233 251 250
f 233 234 251
f 234 252 251
f 234 235 252
f 235 253 252
f 235 236 253
f 236 254 253
f 236 237 254
f 237 255 254
f 237 238 255
f 239 240 256
f 256 240 257
f 240 241 257
f 257 241 258
f 241 242 258
f 258 242 259
f 242 243 259
f 259 243 260
f 243 244 260
f 260 244 261
f 244 245 261
f 261 245 262
f 245 246 262
f 262 246 263
f 246 247 263
f 263 247 264
f 247 265 264
f 247 248 265
f 248 266 265
f 248 249 266
f 249 267 266
f 249 250 267
f 250 268 267
f 250 251 268
f 251 269 268
f 251 252 269
f 252 270 269
f 252 253 270
f 253 271 270
f 253 254 271
f 254 272 271
f 254 255 272
f 256 257 273
f 273 257 274
f 257 258 274
f 274 258 275
f 258 259 275
f 275 259 276
f 259 260 276
f 276 260 277
f 260 261 277
f 277 261 278
f 261 262 278
f 278 262 279
f 262 263 279
f 279 263 280
f 263 264 280
f 280 264 281
f 264 282 281
f 264 265 282
f 265 283 282
f 265 266 283
f 266 284 283
f 266 267 284
f 267 285 284
f 267 268 285
f 268 286 285
f 268 269 286
f 269 287 286
f 269 270 287
f 270 288 287
f 270 271 288
f 271 289 288
f 271 272 289
f 33 290 34
f 33 291 290
f 291 292 290
f 291 293 292
f 293 294 292
f 293 295 294
f 295 296 294
f 295 297 296
f 297 298 296
f 297 299 298
f 299 300 298
f 299 301 300
f 301 302 300
f 301 303 302
f 303 304 302
f 303 305 304
f 305 306 304
f 304 306 307
f 306 308 307
f 307 308 309
f 308 310 309
f 309 310 311
f 310 312 311
f 311 312 313
f 312 314 313
f 313 314 315
f 314 316 315
f 315 316 317
f 316 318 317
f 317 318 319
f 318 320 319
f 319 320 321
f 34 322 51
f 34 290 322
f 290 323 322
f 290 292 323
f 292 324 323
f 292 294 324
f 294 325 324
f 294 296 325
f 296 326 325
f 296 298 326
f 298 327 326
f 298 300 327
f 300 328 327
f 300 302 328
f 302 329 328
f 302 304 329
f 304 307 329
f 329 307 330
f 307 309 330
f 330 309 331
f 309 311 331
f 331 311 332
f 311 313 332
f 332 313 333
f 313 315 333
f 333 315 334
f 315 317 334
f 334 317 335
f 317 319 335
f 335 319 336
f 319 321 336
f 336 321 337
f 51 338 68
f 51 322 338
f 322 339 338
f 322 323 339
f 323 340 339
f 323 324 340
f 324 341 340
f 324 325 341
f 325 342 341
f 325 326 342
f 326 343 342
f 326 327 343
f 327 344 343
f 327 328 344
f 328 345 344
f 328 329 345
f 329 330 345
f 345 330 346
f 330 331 346
f 346 331 347
f 331 332 347
f 347 332 348
f 332 333 348
f 348 333 349
f 333 334 349
f 349 334 350
f 334 335 350
f 350 335 351
f 335 336 351
f 351 336 352
f 336 337 352
f 352 337 353
f 68 354 85
f 68 338 354
f 338 355 354
f 338 339 355
f 339 356 355
f 339 340 356
f 340 357 356
f 340 341 357
f 341 358 357
f 341 342 358
f 342 359 358
f 342 343 359
f 343 360 359
f 343 344 360
f 344 361 360
f 344 345 361
f 345 346 361
f 361 346 362
f 346 347 362
f 362 347 363
f 347 348 363
f 363 348 364
f 348 349 364
f 364 349 365
f 349 350 365
f 365 350 366
f 350 351 366
f 366 351 367
f 351 352 367
f 367 352 368
f 352 353 368
f 368 353 369
f 85 370 102
f 85 354 370
f 354 371 370
f 354 355 371
f 355 372 371
f 355 356 372
f 356 373 372
f 356 357 373
f 357 374 373
f 357 358 374
f 358 375 374
f 358 359 375
f 359 376 375
f 359 360 376
f 360 377 376
f 360 361 377
f 361 362 377
f 377 362 378
f 362 363 378
f 378 363 379
f 363 364 379
f 379 364 380
f 364 365 380
f 380 365 381
f 365 366 381
f 381 366 382
f 366 367 382
f 382 367 383
f 367 368 383
f 383 368 384
f 368 369 384
f 384 369 385
f 102 386 119
f 102 370 386
f 370 387 386
f 370 371 387
f 371 388 387
f 371 372 388
f 372 389 388
f 372 373 389
f 373 390 389
f 373 374 390
f 374 391 390
f 374 375 391
f 375 392 391
f 375 376 392
f 376 393 392
f 376 377 393
f 377 378 393
f 393 378 394
f 378 379 394
f 394 379 395
f 379 380 395
f 395 380 396
f 380 381 396
f 396 381 397
f 381 382 397
f 397 382 398
f 382 383 398
f 398 383 399
f 383 384 399
f 399 384 400
f 384 385 400
f 400 385 401
f 119 402 136
f 119 386 402
f 386 403 402
f 386 387 403
f 387 404 403
f 387 388 404
f 388 405 404
f 388 389 405
f 389 406 405
f 389 390 406
f 390 407 406
f 390 391 407
f 391 408 407
f 391 392 408
f 392 409 408
f 392 393 409
f 393 394 409
f 409 394 410
f 394 395 410
f 410 395 411
f 395 396 411
f 411 396 412
f 396 397 412
f 412 397 413
f 397 398 413
f 413 398 414
f 398 399 414
f 414 399 415
f 399 400 415
f 415 400 416
f 400 401 416
f 416 401 417
f 136 418 153
f 136 402 418
f 402 419 418
f 402 403 419
f 403 420 419
f 403 404 420
f 404 421 420
f 404 405 421
f 405 422 421
f 405 406 422
f 406 423 422
f 406 407 423
f 407 424 423
f 407 408 424
f 408 425 424
f 408 409 425
f 409 410 425
f 425 410 426
f 410 411 426
f 426 411 427
f 411 412 427
f 427 412 428
f 412 413 428
f 428 413 429
f 413 414 429
f 429 414 430
f 414 415 430
f 430 415 431
f 415 416 431
f 431 416 432
f 416 417 432
f 432 417 433
f 153 418 170
f 170 418 434
f 418 419 434
f 434 419 435
f 419 420 435
f 435 420 436
f 420 421 436
f 436 421 437
f 421 422 437
f 437 422 438
f 422 423 438
f 438 423 439
f 423 424 439
f 439 424 440
f 424 425 440
f 440 425 441
f 425 442 441
f 425 426 442
f 426 443 442
f 426 427 443
f 427 444 443
f 427 428 444
f 428 445 444
f 428 429 445
f 429 446 445
f 429 430 446
f 430 447 446
f 430 431 447
f 431 448 447
f 431 432 448
f 432 449 448
f 432 433 449
f 170 434 187
f 187 434 450
f 434 435 450
f 450 435 451
f 435 436 451
f 451 436 452
f 436 437 452
f 452 437 453
f 437 438 453
f 453 438 454
f 438 439 454
f 454 439 455
f 439 440 455
f 455 440 456
f 440 441 456
f 456 441 457
f 441 458 457
f 441 442 458
f 442 459 458
f 442 443 459
f 443 460 459
f 443 444 460
f 444 461 460
f 444 445 461
f 445 462 461
f 445 446 462
f 446 463 462
f 446 447 463
f 447 464 463
f 447 448 464
f 448 465 464
f 448 449 465
f 187 450 204
f 204 450 466
f 450 451 466
f 466 451 467
f 451 452 467
f 467 452 468
f 452 453 468
f 468 453 469
f 453 454 469
f 469 454 470
f 454 455 470
f 470 455 471
f 455 456 471
f 471 456 472
f 456 457 472
f 472 457 473
f 457 474 473
f 457 458 474
f 458 475 474
f 458 459 475
f 459 476 475
f 459 460 476
f 460 477 476
f 460 461 477
f 461 478 477
f 461 462 478
f 462 479 478
f 462 463 479
f 463 480 479
f 463 464 480
f 464 481 480
f 464 465 481
f 204 466 221
f 221 466 482
f 466 467 482
f 482 467 483
f 467 468 483
f 483 468 484
f 468 469 484
f 484 469 485
f 469 470 485
f 485 470 486
f 470 471 486
f 486 471 487
f 471 472 487
f 487 472 488
f 472 473 488
f 488 473 489
f 473 490 489
f 473 474 490
f 474 491 490
f 474 475 491
f 475 492 491
f 475 476 492
f 476 493 492
f 476 477 493
f 477 494 493
f 477 478 494
f 478 495 494
f 478 479 495
f 479 496 495
f 479 480 496
f 480 497 496
f 480 481 497
f 221 482 238
f 238 482 498
f 482 483 498
f 498 483 499
f 483 484 499
f 499 484 500
f 484 485 500
f 500 485 501
f 485 486 501
f 501 486 502
f 486 487 502
f 502 487 503
f 487 488 503
f 503 488 504
f 488 489 504
f 504 489 505
f 489 506 505
f 489 490 506
f 490 507 506
f 490 491 507
f 491 508 507
f 491 492 508
f 492 509 508
f 492 493 509
f 493 510 509
f 493 494 510
f 494 511 510
f 494 495 511
f 495 512 511
f 495 496 512
f 496 513 512
f 496 497 513
f 238 498 255
f 255 498 514
f 498 499 514
f 514 499 515
f 499 500 515
f 515 500 516
f 500 501 516
f 516 501 517
f 501 502 517
f 517 502 518
f 502 503 518
f 518 503 519
f 503 504 519
f 519 504 520
f 504 505 520
f 520 505 521
f 505 522 521
f 505 506 522
f 506 523 522
f 506 507 523
f 507 524 523
f 507 508 524
f 508 525 524
f 508 509 525
f 509 526 525
f 509 510 526
f 510 527 526
f 510 511 527
f 511 528 527
f 511 512 528
f 512 529 528
f 512 513 529
f 255 514 272
f 272 514 530
f 514 515 530
f 530 515 531
f 515 516 531
f 531 516 532
f 516 517 532
f 532 517 533
f 517 518 533
f 533 518 534
f 518 519 534
f 534 519 535
f 519 520 535
f 535 520 536
f 520 521 536
f 536 521 537
f 521 538 537
f 521 522 538
f 522 539 538
f 522 523 539
f 523 540 539
f 523 524 540
f 524 541 540
f 524 525 541
f 525 542 541
f 525 526 542
f 526 543 542
f 526 527 543
f 527 544 543
f 527 528 544
f 528 545 544
f 528 529 545
f 272 530 289
f 289 530 546
f 530 531 546
f 546 531 547
f 531 532 547
f 547 532 548
f 532 533 548
f 548 533 549
f 533 534 549
f 549 534 550
f 534 535 550
f 550 535 551
f 535 536 551
f 551 536 552
f 536 537 552
f 552 537 553
f 537 554 553
f 537 538 554
f 538 555 554
f 538 539 555
f 539 556 555
f 539 540 556
f 540 557 556
f 540 541 557
f 541 558 557
f 541 542 558
f 542 559 558
f 542 543 559
f 543 560 559
f 543 544 560
f 544 561 560
f 544 545 561
f 1 562 4
f 1 563 562
f 563 564 562
f 563 565 564
f 565 566 564
f 565 567 566
f 567 568 566
f 567 569 568
f 569 570 568
f 569 571 570
f 571 572 570
f 571 573 572
f 573 574 572
f 573 575 574
f 575 576 574
f 575 577 576
f 577 578 576
f 576 578 579
f 578 580 579
f 579 580 581
f 580 582 581
f 581 582 583
f 582 584 583
f 583 584 585
f 584 586 585
f 585 586 587
f 586 588 587
f 587 588 589
f 588 590 589
f 589 590 591
f 590 592 591
f 591 592 593
f 4 594 6
f 4 562 594
f 562 595 594
f 562 564 595
f 564 596 595
f 564 566 596
f 566 597 596
f 566 568 597
f 568 598 597
f 568 570 598
f 570 599 598
f 570 572 599
f 572 600 599
f 572 574 600
f 574 601 600
f 574 576 601
f 576 579 601
f 601 579 602
f 579 581 602
f 602 581 603
f 581 583 603
f 603 583 604
f 583 585 604
f 604 585 605
f 585 587 605
f 605 587 606
f 587 589 606
f 606 589 607
f 589 591 607
f 607 591 608
f 591 593 608
f 608 593 609
f 6 610 8
f 6 594 610
f 594 611 610
f 594 595 611
f 595 612 611
f 595 596 612
f 596 613 612
f 596 597 613
f 597 614 613
f 597 598 614
f 598 615 614
f 598 599 615
f 599 616 615
f 599 600 616
f 600 617 616
f 600 601 617
f 601 602 617
f 617 602 618
f 602 603 618
f 618 603 619
f 603 604 619
f 619 604 620
f 604 605 620
f 620 605 621
f 605 606 621
f 621 606 622
f 606 607 622
f 622 607 623
f 607 608 623
f 623 608 624
f 608 609 624
f 624 609 625
f 8 626 10
f 8 610 626
f 610 627 626
f 610 611 627
f 611 628 627
f 611 612 628
f 612 629 628
f 612 613 629
f 613 630 629
f 613 614 630
f 614 631 630
f 614 615 631
f 615 632 631
f 615 616 632
f 616 633 632
f 616 617 633
f 617 618 633
f 633 618 634
f 618 619 634
f 634 619 635
f 619 620 635
f 635 620 636
f 620 621 636
f 636 621 637
f 621 622 637
f 637 622 638
f 622 623 638
f 638 623 639
f 623 624 639
f 639 624 640
f 624 625 640
f 640 625 641
f 10 642 12
f 10 626 642
f 626 643 642
f 626 627 643
f 627 644 643
f 627 628 644
f 628 645 644
f 628 629 645
f 629 646 645
f 629 630 646
f 630 647 646
f 630 631 647
f 631 648 647
f 631 632 648
f 632 649 648
f 632 633 649
f 633 634 649
f 649 634 650
f 634 635 650
f 650 635 651
f 635 636 651
f 651 636 652
f 636 637 652
f 652 637 653
f 637 638 653
f 653 638 654
f 638 639 654
f 654 639 655
f 639 640 655
f 655 640 656
f 640 641 656
f 656 641 657
f 12 658 14
f 12 642 658
f 642 659 658
f 642 643 659
f 643 660 659
f 643 644 660
f 644 661 660
f 644 645 661
f 645 662 661
f 645 646 662
f 646 663 662
f 646 647 663
f 647 664 663
f 647 648 664
f 648 665 664
f 648 649 665
f 649 650 665
f 665 650 666
f 650 651 666
f 666 651 667
f 651 652 667
f 667 652 668
f 652 653 668
f 668 653 669
f 653 654 669
f 669 654 670
f 654 655 670
f 670 655 671
f 655 656 671
f 671 656 672
f 656 657 672
f 672 657 673
f 14 674 16
f 14 658 674
f 658 675 674
f 658 659 675
f 659 676 675
f 659 660 676
f 660 677 676
f 660 661 677
f 661 678 677
f 661 662 678
f 662 679 678
f 662 663 679
f 663 680 679
f 663 664 680
f 664 681 680
f 664 665 681
f 665 666 681
f 681 666 682
f 666 667 682
f 682 667 683
f 667 668 683
f 683 668 684
f 668 669 684
f 684 669 685
f 669 670 685
f 685 670 686
f 670 671 686
f 686 671 687
f 671 672 687
f 687 672 688
f 672 673 688
f 688 673 689
f 16 690 18
f 16 674 690
f 674 691 690
f 674 675 691
f 675 692 691
f 675 676 692
f 676 693 692
f 676 677 693
f 677 694 693
f 677 678 694
f 678 695 694
f 678 679 695
f 679 696 695
f 679 680 696
f 680 697 696
f 680 681 697
f 681 682 697
f 697 682 698
f 682 683 698
f 698 683 699
f 683 684 699
f 699 684 700
f 684 685 700
f 700 685 701
f 685 686 701
f 701 686 702
f 686 687 702
f 702 687 703
f 687 688 703
f 703 688 704
f 688 689 704
f 704 689 705
f 18 690 19
f 19 690 706
f 690 691 706
f 706 691 707
f 691 692 707
f 707 692 708
f 692 693 708
f 708 693 709
f 693 694 709
f 709 694 710
f 694 695 710
f 710 695 711
f 695 696 711
f 711 696 712
f 696 697 712
f 712 697 713
f 697 714 713
f 697 698 714
f 698 715 714
f 698 699 715
f 699 716 715
f 699 700 716
f 700 717 716
f 700 701 717
f 701 718 717
f 701 702 718
f 702 719 718
f 702 703 719
f 703 720 719
f 703 704 720
f 704 721 720
f 704 705 721
f 19 706 21
f 21 706 722
f 706 707 722
f 722 707 723
f 707 708 723
f 723 708 724
f 708 709 724
f 724 709 725
f 709 710 725
f 725 710 726
f 710 711 726
f 726 711 727
f 711 712 727
f 727 712 728
f 712 713 728
f 728 713 729
f 713 730 729
f 713 714 730
f 714 731 730
f 714 715 731
f 715 732 731
f 715 716 732
f 716 733 732
f 716 717 733
f 717 734 733
f 717 718 734
f 718 735 734
f 718 719 735
f 719 736 735
f 719 720 736
f 720 737 736
f 720 721 737
f 21 722 23
f 23 722 738
f 722 723 738
f 738 723 739
f 723 724 739
f 739 724 740
f 724 725 740
f 740 725 741
f 725 726 741
f 741 726 742
f 726 727 742
f 742 727 743
f 727 728 743
f 743 728 744
f 728 729 744
f 744 729 745
f 729 746 745
f 729 730 746
f 730 747 746
f 730 731 747
f 731 748 747
f 731 732 748
f 732 749 748
f 732 733 749
f 733 750 749
f 733 734 750
f 734 751 750
f 734 735 751
f 735 752 751
f 735 736 752
f 736 753 752
f 736 737 753
f 23 738 25
f 25 738 754
f 738 739 754
f 754 739 755
f 739 740 755
f 755 740 756
f 740 741 756
f 756 741 757
f 741 742 757
f 757 742 758
f 742 743 758
f 758 743 759
f 743 744 759
f 759 744 760
f 744 745 760
f 760 745 761
f 745 762 761
f 745 746 762
f 746 763 762
f 746 747 763
f 747 764 763
f 747 748 764
f 748 765 764
f 748 749 765
f 749 766 765
f 749 750 766
f 750 767 766
f 750 751 767
f 751 768 767
f 751 752 768
f 752 769 768
f 752 753 769
f 25 754 27
f 27 754 770
f 754 755 770
f 770 755 771
f 755 756 771
f 771 756 772
f 756 757 772
f 772 757 773
f 757 758 773
f 773 758 774
f 758 759 774
f 774 759 775
f 759 760 775
f 775 760 776
f 760 761 776
f 776 761 777
f 761 778 777
f 761 762 778
f 762 779 778
f 762 763 779
f 763 780 779
f 763 764 780
f 764 781 780
f 764 765 781
f 765 782 781
f 765 766 782
f 766 783 782
f 766 767 783
f 767 784 783
f 767 768 784
f 768 785 784
f 768 769 785
f 27 770 29
f 29 770 786
f 770 771 786
f 786 771 787
f 771 772 787
f 787 772 788
f 772 773 788
f 788 773 789
f 773 774 789
f 789 774 790
f 774 775 790
f 790 775 791
f 775 776 791
f 791 776 792
f 776 777 792
f 792 777 793
f 777 794 793
f 777 778 794
f 778 795 794
f 778 779 795
f 779 796 795
f 779 780 796
f 780 797 796
f 780 781 797
f 781 798 797
f 781 782 798
f 782 799 798
f 782 783 799
f 783 800 799
f 783 784 800
f 784 801 800
f 784 785 801
f 29 786 31
f 31 786 802
f 786 787 802
f 802 787 803
f 787 788 803
f 803 788 804
f 788 789 804
f 804 789 805
f 789 790 805
f 805 790 806
f 790 791 806
f 806 791 807
f 791 792 807
f 807 792 808
f 792 793 808
f 808 793 809
f 793 810 809
f 793 794 810
f 794 811 810
f 794 795 811
f 795 812 811
f 795 796 812
f 796 813 812
f 796 797 813
f 797 814 813
f 797 798 814
f 798 815 814
f 798 799 815
f 799 816 815
f 799 800 816
f 800 817 816
f 800 801 817
f 31 802 33
f 33 802 291
f 802 803 291
f 291 803 293
f 803 804 293
f 293 804 295
f 804 805 295
f 295 805 297
f 805 806 297
f 297 806 299
f 806 807 299
f 299 807 301
f 807 808 301
f 301 808 303
f 808 809 303
f 303 809 305
f 809 306 305
f 809 810 306
f 810 308 306
f 810 811 308
f 811 310 308
f 811 812 310
f 812 312 310
f 812 813 312
f 813 314 312
f 813 814 314
f 814 316 314
f 814 815 316
f 815 318 316
f 815 816 318
f 816 320 318
f 816 817 320
f 273 818 256
f 273 819 818
f 819 820 818
f 819 821 820
f 821 822 820
f 821 823 822
f 823 824 822
f 823 825 824
f 825 826 824
f 825 827 826
f 827 828 826
f 827 829 828
f 829 830 828
f 829 831 830
f 831 832 830
f 831 833 832
f 833 834 832
f 832 834 835
f 834 836 835
f 835 836 837
f 836 838 837
f 837 838 839
f 838 840 839
f 839 840 841
f 840 842 841
f 841 842 843
f 842 844 843
f 843 844 845
f 844 846 845
f 845 846 847
f 846 848 847
f 847 848 849
f 256 850 239
f 256 818 850
f 818 851 850
f 818 820 851
f 820 852 851
f 820 822 852
f 822 853 852
f 822 824 853
f 824 854 853
f 824 826 854
f 826 855 854
f 826 828 855
f 828 856 855
f 828 830 856
f 830 857 856
f 830 832 857
f 832 835 857
f 857 835 858
f 835 837 858
f 858 837 859
f 837 839 859
f 859 839 860
f 839 841 860
f 860 841 861
f 841 843 861
f 861 843 862
f 843 845 862
f 862 845 863
f 845 847 863
f 863 847 864
f 847 849 864
f 864 849 865
f 239 866 222
f 239 850 866
f 850 867 866
f 850 851 867
f 851 868 867
f 851 852 868
f 852 869 868
f 852 853 869
f 853 870 869
f 853 854 870
f 854 871 870
f 854 855 871
f 855 872 871
f 855 856 872
f 856 873 872
f 856 857 873
f 857 858 873
f 873 858 874
f 858 859 874
f 874 859 875
f 859 860 875
f 875 860 876
f 860 861 876
f 876 861 877
f 861 862 877
f 877 862 878
f 862 863 878
f 878 863 879
f 863 864 879
f 879 864 880
f 864 865 880
f 880 865 881
f 222 882 205
f 222 866 882
f 866 883 882
f 866 867 883
f 867 884 883
f 867 868 884
f 868 885 884
f 868 869 885
f 869 886 885
f 869 870 886
f 870 887 886
f 870 871 887
f 871 888 887
f 871 872 888
f 872 889 888
f 872 873 889
f 873 874 889
f 889 874 890
f 874 875 890
f 890 875 891
f 875 876 891
f 891 876 892
f 876 877 892
f 892 877 893
f 877 878 893
f 893 878 894
f 878 879 894
f 894 879 895
f 879 880 895
f 895 880 896
f 880 881 896
f 896 881 897
f 205 898 188
f 205 882 898
f 882 899 898
f 882 883 899
f 883 900 899
f 883 884 900
f 884 901 900
f 884 885 901
f 885 902 901
f 885 886 902
f 886 903 902
f 886 887 903
f 887 904 903
f 887 888 904
f 888 905 904
f 888 889 905
f 889 890 905
f 905 890 906
f 890 891 906
f 906 891 907
f 891 892 907
f 907 892 908
f 892 893 908
f 908 893 909
f 893 894 909
f 909 894 910
f 894 895 910
f 910 895 911
f 895 896 911
f 911 896 912
f 896 897 912
f 912 897 913
f 188 914 171
f 188 898 914
f 898 915 914
f 898 899 915
f 899 916 915
f 899 900 916
f 900 917 916
f 900 901 917
f 901 918 917
f 901 902 918
f 902 919 918
f 902 903 919
f 903 920 919
f 903 904 920
f 904 921 920
f 904 905 921
f 905 906 921
f 921 906 922
f 906 907 922
f 922 907 923
f 907 908 923
f 923 908 924
f 908 909 924
f 924 909 925
f 909 910 925
f 925 910 926
f 910 911 926
f 926 911 927
f 911 912 927
f 927 912 928
f 912 913 928
f 928 913 929
f 171 930 154
f 171 914 930
f 914 931 930
f 914 915 931
f 915 932 931
f 915 916 932
f 916 933 932
f 916 917 933
f 917 934 933
f 917 918 934
f 918 935 934
f 918 919 935
f 919 936 935
f 919 920 936
f 920 937 936
f 920 921 937
f 921 922 937
f 937 922 938
f 922 923 938
f 938 923 939
f 923 924 939
f 939 924 940
f 924 925 940
f 940 925 941
f 925 926 941
f 941 926 942
f 926 927 942
f 942 927 943
f 927 928 943
f 943 928 944
f 928 929 944
f 944 929 945
f 154 946 138
f 154 930 946
f 930 947 946
f 930 931 947
f 931 948 947
f 931 932 948
f 932 949 948
f 932 933 949
f 933 950 949
f 933 934 950
f 934 951 950
f 934 935 951
f 935 952 951
f 935 936 952
f 936 953 952
f 936 937 953
f 937 938 953
f 953 938 954
f 938 939 954
f 954 939 955
f 939 940 955
f 955 940 956
f 940 941 956
f 956 941 957
f 941 942 957
f 957 942 958
f 942 943 958
f 958 943 959
f 943 944 959
f 959 944 960
f 944 945 960
f 960 945 961
f 138 946 121
f 121 946 962
f 946 947 962
f 962 947 963
f 947 948 963
f 963 948 964
f 948 949 964
f 964 949 965
f 949 950 965
f 965 950 966
f 950 951 966
f 966 951 967
f 951 952 967
f 967 952 968
f 952 953 968
f 968 953 969
f 953 970 969
f 953 954 970
f 954 971 970
f 954 955 971
f 955 972 971
f 955 956 972
f 956 973 972
f 956 957 973
f 957 974 973
f 957 958 974
f 958 975 974
f 958 959 975
f 959 976 975
f 959 960 976
f 960 977 976
f 960 961 977
f 121 962 104
f 104 962 978
f 962 963 978
f 978 963 979
f 963 964 979
f 979 964 980
f 964 965 980
f 980 965 981
f 965 966 981
f 981 966 982
f 966 967 982
f 982 967 983
f 967 968 983
f 983 968 984
f 968 969 984
f 984 969 985
f 969 986 985
f 969 970 986
f 970 987 986
f 970 971 987
f 971 988 987
f 971 972 988
f 972 989 988
f 972 973 989
f 973 990 989
f 973 974 990
f 974 991 990
f 974 975 991
f 975 992 991
f 975 976 992
f 976 993 992
f 976 977 993
f 104 978 87
f 87 978 994
f 978 979 994
f 994 979 995
f 979 980 995
f 995 980 996
f 980 981 996
f 996 981 997
f 981 982 997
f 997 982 998
f 982 983 998
f 998 983 999
f 983 984 999
f 999 984 1000
f 984 985 1000
f 1000 985 1001
f 985 1002 1001
f 985 986 1002
f 986 1003 1002
f 986 987 1003
f 987 1004 1003
f 987 988 1004
f 988 1005 1004
f 988 989 1005
f 989 1006 1005
f 989 990 1006
f 990 1007 1006
f 990 991 1007
f 991 1008 1007
f 991 992 1008
f 992 1009 1008
f 992 993 1009
f 87 994 70
f 70 994 1010
f 994 995 1010
f 1010 995 1011
f 995 996 1011
f 1011 996 1012
f 996 997 1012
f 1012 997 1013
f 997 998 1013
f 1013 998 1014
f 998 999 1014
f 1014 999 1015
f 999 1000 1015
f 1015 1000 1016
f 1000 1001 1016
f 1016 1001 1017
f 1001 1018 1017
f 1001 1002 1018
f 1002 1019 1018
f 1002 1003 1019
f 1003 1020 1019
f 1003 1004 1020
f 1004 1021 1020
f 1004 1005 1021
f 1005 1022 1021
f 1005 1006 1022
f 1006 1023 1022
f 1006 1007 1023
f 1007 1024 1023
f 1007 1008 1024
f 1008 1025 1024
f 1008 1009 1025
f 70 1010 53
f 53 1010 1026
f 1010 1011 1026
f 1026 1011 1027
f 1011 1012 1027
f 1027 1012 1028
f 1012 1013 1028
f 1028 1013 1029
f 1013 1014 1029
f 1029 1014 1030
f 1014 1015 1030
f 1030 1015 1031
f 1015 1016 1031
f 1031 1016 1032
f 1016 1017 1032
f 1032 1017 1033
f 1017 1034 1033
f 1017 1018 1034
f 1018 1035 1034
f 1018 1019 1035
f 1019 1036 1035
f 1019 1020 1036
f 1020 1037 1036
f 1020 1021 1037
f 1021 1038 1037
f 1021 1022 1038
f 1022 1039 1038
f 1022 1023 1039
f 1023 1040 1039
f 1023 1024 1040
f 1024 1041 1040
f 1024 1025 1041
f 53 1026 36
f 36 1026 1042
f 1026 1027 1042
f 1042 1027 1043
f 1027 1028 1043
f 1043 1028 1044
f 1028 1029 1044
f 1044 1029 1045
f 1029 1030 1045
f 1045 1030 1046
f 1030 1031 1046
f 1046 1031 1047
f 1031 1032 1047
f 1047 1032 1048
f 1032 1033 1048
f 1048 1033 1049
f 1033 1050 1049
f 1033 1034 1050
f 1034 1051 1050
f 1034 1035 1051
f 1035 1052 1051
f 1035 1036 1052
f 1036 1053 1052
f 1036 1037 1053
f 1037 1054 1053
f 1037 1038 1054
f 1038 1055 1054
f 1038 1039 1055
f 1039 1056 1055
f 1039 1040 1056
f 1040 1057 1056
f 1040 1041 1057
f 36 1042 3
f 3 1042 1058
f 1042 1043 1058
f 1058 1043 1059
f 1043 1044 1059
f 1059 1044 1060
f 1044 1045 1060
f 1060 1045 1061
f 1045 1046 1061
f 1061 1046 1062
f 1046 1047 1062
f 1062 1047 1063
f 1047 1048 1063
f 1063 1048 1064
f 1048 1049 1064
f 1064 1049 1065
f 1049 1066 1065
f 1049 1050 1066
f 1050 1067 1066
f 1050 1051 1067
f 1051 1068 1067
f 1051 1052 1068
f 1052 1069 1068
f 1052 1053 1069
f 1053 1070 1069
f 1053 1054 1070
f 1054 1071 1070
f 1054 1055 1071
f 1055 1072 1071
f 1055 1056 1072
f 1056 1073 1072
f 1056 1057 1073
f 3 1058 1
f 1 1058 563
f 1058 1059 563
f 563 1059 565
f 1059 1060 565
f 565 1060 567
f 1060 1061 567
f 567 1061 569
f 1061 1062 569
f 569 1062 571
f 1062 1063 571
f 571 1063 573
f 1063 1064 573
f 573 1064 575
f 1064 1065 575
f 575 1065 577
f 1065 578 577
f 1065 1066 578
f 1066 580 578
f 1066 1067 580
f 1067 582 580
f 1067 1068 582
f 1068 584 582
f 1068 1069 584
f 1069 586 584
f 1069 1070 586
f 1070 588 586
f 1070 1071 588
f 1071 590 588
f 1071 1072 590
f 1072 592 590
f 1072 1073 592
f 289 1074 288
f 289 546 1074
f 546 1075 1074
f 546 547 1075
f 547 1076 1075
f 547 548 1076
f 548 1077 1076
f 548 549 1077
f 549 1078 1077
f 549 550 1078
f 550 1079 1078
f 550 551 1079
f 551 1080 1079
f 551 552 1080
f 552 1081 1080
f 552 553 1081
f 553 554 1081
f 1081 554 1082
f 554 555 1082
f 1082 555 1083
f 555 556 1083
f 1083 556 1084
f 556 557 1084
f 1084 557 1085
f 557 558 1085
f 1085 558 1086
f 558 559 1086
f 1086 559 1087
f 559 560 1087
f 1087 560 1088
f 560 561 1088
f 1088 561 1089
f 288 1090 287
f 288 1074 1090
f 1074 1091 1090
f 1074 1075 1091
f 1075 1092 1091
f 1075 1076 1092
f 1076 1093 1092
f 1076 1077 1093
f 1077 1094 1093
f 1077 1078 1094
f 1078 1095 1094
f 1078 1079 1095
f 1079 1096 1095
f 1079 1080 1096
f 1080 1097 1096
f 1080 1081 1097
f 1081 1082 1097
f 1097 1082 1098
f 1082 1083 1098
f 1098 1083 1099
f 1083 1084 1099
f 1099 1084 1100
f 1084 1085 1100
f 1100 1085 1101
f 1085 1086 1101
f 1101 1086 1102
f 1086 1087 1102
f 1102 1087 1103
f 1087 1088 1103
f 1103 1088 1104
f 1088 1089 1104
f 1104 1089 1105
f 287 1106 286
f 287 1090 1106
f 1090 1107 1106
f 1090 1091 1107
f 1091 1108 1107
f 1091 1092 1108
f 1092 1109 1108
f 1092 1093 1109
f 1093 1110 1109
f 1093 1094 1110
f 1094 1111 1110
f 1094 1095 1111
f 1095 1112 1111
f 1095 1096 1112
f 1096 1113 1112
f 1096 1097 1113
f 1097 1098 1113
f 1113 1098 1114
f 1098 1099 1114
f 1114 1099 1115
f 1099 1100 1115
f 1115 1100 1116
f 1100 1101 1116
f 1116 1101 1117
f 1101 1102 1117
f 1117 1102 1118
f 1102 1103 1118
f 1118 1103 1119
f 1103 1104 1119
f 1119 1104 1120
f 1104 1105 1120
f 1120 1105 1121
f 286 1122 285
f 286 1106 1122
f 1106 1123 1122
f 1106 1107 1123
f 1107 1124 1123
f 1107 1108 1124
f 1108 1125 1124
f 1108 1109 1125
f 1109 1126 1125
f 1109 1110 1126
f 1110 1127 1126
f 1110 1111 1127
f 1111 1128 1127
f 1111 1112 1128
f 1112 1129 1128
f 1112 1113 1129
f 1113 1114 1129
f 1129 1114 1130
f 1114 1115 1130
f 1130 1115 1131
f 1115 1116 1131
f 1131 1116 1132
f 1116 1117 1132
f 1132 1117 1133
f 1117 1118 1133
f 1133 1118 1134
f 1118 1119 1134
f 1134 1119 1135
f 1119 1120 1135
f 1135 1120 1136
f 1120 1121 1136
f 1136 1121 1137
f 285 1138 284
f 285 1122 1138
f 1122 1139 1138
f 1122 1123 1139
f 1123 1140 1139
f 1123 1124 1140
f 1124 1141 1140
f 1124 1125 1141
f 1125 1142 1141
f 1125 1126 1142
f 1126 1143 1142
f 1126 1127 1143
f 1127 1144 1143
f 1127 1128 1144
f 1128 1145 1144
f 1128 1129 1145
f 1129 1130 1145
f 1145 1130 1146
f 1130 1131 1146
f 1146 1131 1147
f 1131 1132 1147
f 1147 1132 1148
f 1132 1133 1148
f 1148 1133 1149
f 1133 1134 1149
f 1149 1134 1150
f 1134 1135 1150
f 1150 1135 1151
f 1135 1136 1151
f 1151 1136 1152
f 1136 1137 1152
f 1152 1137 1153
f 284 1154 283
f 284 1138 1154
f 1138 1155 1154
f 1138 1139 1155
f 1139 1156 1155
f 1139 1140 1156
f 1140 1157 1156
f 1140 1141 1157
f 1141 1158 1157
f 1141 1142 1158
f 1142 1159 1158
f 1142 1143 1159
f 1143 1160 1159
f 1143 1144 1160
f 1144 1161 1160
f 1144 1145 1161
f 1145 1146 1161
f 1161 1146 1162
f 1146 1147 1162
f 1162 1147 1163
f 1147 1148 1163
f 1163 1148 1164
f 1148 1149 1164
f 1164 1149 1165
f 1149 1150 1165
f 1165 1150 1166
f 1150 1151 1166
f 1166 1151 1167
f 1151 1152 1167
f 1167 1152 1168
f 1152 1153 1168
f 1168 1153 1169
f 283 1170 282
f 283 1154 1170
f 1154 1171 1170
f 1154 1155 1171
f 1155 1172 1171
f 1155 1156 1172
f 1156 1173 1172
f 1156 1157 1173
f 1157 1174 1173
f 1157 1158 1174
f 1158 1175 1174
f 1158 1159 1175
f 1159 1176 1175
f 1159 1160 1176
f 1160 1177 1176
f 1160 1161 1177
f 1161 1162 1177
f 1177 1162 1178
f 1162 1163 1178
f 1178 1163 1179
f 1163 1164 1179
f 1179 1164 1180
f 1164 1165 1180
f 1180 1165 1181
f 1165 1166 1181
f 1181 1166 1182
f 1166 1167 1182
f 1182 1167 1183
f 1167 1168 1183
f 1183 1168 1184
f 1168 1169 1184
f 1184 1169 1185
f 282 1186 281
f 282 1170 1186
f 1170 1187 1186
f 1170 1171 1187
f 1171 1188 1187
f 1171 1172 1188
f 1172 1189 1188
f 1172 1173 1189
f 1173 1190 1189
f 1173 1174 1190
f 1174 1191 1190
f 1174 1175 1191
f 1175 1192 1191
f 1175 1176 1192
f 1176 1193 1192
f 1176 1177 1193
f 1177 1178 1193
f 1193 1178 1194
f 1178 1179 1194
f 1194 1179 1195
f 1179 1180 1195
f 1195 1180 1196
f 1180 1181 1196
f 1196 1181 1197
f 1181 1182 1197
f 1197 1182 1198
f 1182 1183 1198
f 1198 1183 1199
f 1183 1184 1199
f 1199 1184 1200
f 1184 1185 1200
f 1200 1185 1201
f 281 1186 280
f 280 1186 1202
f 1186 1187 1202
f 1202 1187 1203
f 1187 1188 1203
f 1203 1188 1204
f 1188 1189 1204
f 1204 1189 1205
f 1189 1190 1205
f 1205 1190 1206
f 1190 1191 1206
f 1206 1191 1207
f 1191 1192 1207
f 1207 1192 1208
f 1192 1193 1208
f 1208 1193 1209
f 1193 1210 1209
f 1193 1194 1210
f 1194 1211 1210
f 1194 1195 1211
f 1195 1212 1211
f 1195 1196 1212
f 1196 1213 1212
f 1196 1197 1213
f 1197 1214 1213
f 1197 1198 1214
f 1198 1215 1214
f 1198 1199 1215
f 1199 1216 1215
f 1199 1200 1216
f 1200 1217 1216
f 1200 1201 1217
f 280 1202 279
f 279 1202 1218
f 1202 1203 1218
f 1218 1203 1219
f 1203 1204 1219
f 1219 1204 1220
f 1204 1205 1220
f 1220 1205 1221
f 1205 1206 1221
f 1221 1206 1222
f 1206 1207 1222
f 1222 1207 1223
f 1207 1208 1223
f 1223 1208 1224
f 1208 1209 1224
f 1224 1209 1225
f 1209 1226 1225
f 1209 1210 1226
f 1210 1227 1226
f 1210 1211 1227
f 1211 1228 1227
f 1211 1212 1228
f 1212 1229 1228
f 1212 1213 1229
f 1213 1230 1229
f 1213 1214 1230
f 1214 1231 1230
f 1214 1215 1231
f 1215 1232 1231
f 1215 1216 1232
f 1216 1233 1232
f 1216 1217 1233
f 279 1218 278
f 278 1218 1234
f 1218 1219 1234
f 1234 1219 1235
f 1219 1220 1235
f 1235 1220 1236
f 1220 1221 1236
f 1236 1221 1237
f 1221 1222 1237
f 1237 1222 1238
f 1222 1223 1238
f 1238 1223 1239
f 1223 1224 1239
f 1239 1224 1240
f 1224 1225 1240
f 1240 1225 1241
f 1225 1242 1241
f 1225 1226 1242
f 1226 1243 1242
f 1226 1227 1243
f 1227 1244 1243
f 1227 1228 1244
f 1228 1245 1244
f 1228 1229 1245
f 1229 1246 1245
f 1229 1230 1246
f 1230 1247 1246
f 1230 1231 1247
f 1231 1248 1247
f 1231 1232 1248
f 1232 1249 1248
f 1232 1233 1249
f 278 1234 277
f 277 1234 1250
f 1234 1235 1250
f 1250 1235 1251
f 1235 1236 1251
f 1251 1236 1252
f 1236 1237 1252
f 1252 1237 1253
f 1237 1238 1253
f 1253 1238 1254
f 1238 1239 1254
f 1254 1239 1255
f 1239 1240 1255
f 1255 1240 1256
f 1240 1241 1256
f 1256 1241 1257
f 1241 1258 1257
f 1241 1242 1258
f 1242 1259 1258
f 1242 1243 1259
f 1243 1260 1259
f 1243 1244 1260
f 1244 1261 1260
f 1244 1245 1261
f 1245 1262 1261
f 1245 1246 1262
f 1246 1263 1262
f 1246 1247 1263
f 1247 1264 1263
f 1247 1248 1264
f 1248 1265 1264
f 1248 1249 1265
f 277 1250 276
f 276 1250 1266
f 1250 1251 1266
f 1266 1251 1267
f 1251 1252 1267
f 1267 1252 1268
f 1252 1253 1268
f 1268 1253 1269
f 1253 1254 1269
f 1269 1254 1270
f 1254 1255 1270
f 1270 1255 1271
f 1255 1256 1271
f 1271 1256 1272
f 1256 1257 1272
f 1272 1257 1273
f 1257 1274 1273
f 1257 1258 1274
f 1258 1275 1274
f 1258 1259 1275
f 1259 1276 1275
f 1259 1260 1276
f 1260 1277 1276
f 1260 1261 1277
f 1261 1278 1277
f 1261 1262 1278
f 1262 1279 1278
f 1262 1263 1279
f 1263 1280 1279
f 1263 1264 1280
f 1264 1281 1280
f 1264 1265 1281
f 276 1266 275
f 275 1266 1282
f 1266 1267 1282
f 1282 1267 1283
f 1267 1268 1283
f 1283 1268 1284
f 1268 1269 1284
f 1284 1269 1285
f 1269 1270 1285
f 1285 1270 1286
f 1270 1271 1286
f 1286 1271 1287
f 1271 1272 1287
f 1287 1272 1288
f 1272 1273 1288
f 1288 1273 1289
f 1273 1290 1289
f 1273 1274 1290
f 1274 1291 1290
f 1274 1275 1291
f 1275 1292 1291
f 1275 1276 1292
f 1276 1293 1292
f 1276 1277 1293
f 1277 1294 1293
f 1277 1278 1294
f 1278 1295 1294
f 1278 1279 1295
f 1279 1296 1295
f 1279 1280 1296
f 1280 1297 1296
f 1280 1281 1297
f 275 1282 274
f 274 1282 1298
f 1282 1283 1298
f 1298 1283 1299
f 1283 1284 1299
f 1299 1284 1300
f 1284 1285 1300
f 1300 1285 1301
f 1285 1286 1301
f 1301 1286 1302
f 1286 1287 1302
f 1302 1287 1303
f 1287 1288 1303
f 1303 1288 1304
f 1288 1289 1304
f 1304 1289 1305
f 1289 1306 1305
f 1289 1290 1306
f 1290 1307 1306
f 1290 1291 1307
f 1291 1308 1307
f 1291 1292 1308
f 1292 1309 1308
f 1292 1293 1309
f 1293 1310 1309
f 1293 1294 1310
f 1294 1311 1310
f 1294 1295 1311
f 1295 1312 1311
f 1295 1296 1312
f 1296 1313 1312
f 1296 1297 1313
f 274 1298 273
f 273 1298 819
f 1298 1299 819
f 819 1299 821
f 1299 1300 821
f 821 1300 823
f 1300 1301 823
f 823 1301 825
f 1301 1302 825
f 825 1302 827
f 1302 1303 827
f 827 1303 829
f 1303 1304 829
f 829 1304 831
f 1304 1305 831
f 831 1305 833
f 1305 834 833
f 1305 1306 834
f 1306 836 834
f 1306 1307 836
f 1307 838 836
f 1307 1308 838
f 1308 840 838
f 1308 1309 840
f 1309 842 840
f 1309 1310 842
f 1310 844 842
f 1310 1311 844
f 1311 846 844
f 1311 1312 846
f 1312 848 846
f 1312 1313 848
f 320 1314 321
f 320 817 1314
f 817 1315 1314
f 817 801 1315
f 801 1316 1315
f 801 785 1316
f 785 1317 1316
f 785 769 1317
f 769 1318 1317
f 769 753 1318
f 753 1319 1318
f 753 737 1319
f 737 1320 1319
f 737 721 1320
f 721 1321 1320
f 721 705 1321
f 705 689 1321
f 1321 689 1322
f 689 673 1322
f 1322 673 1323
f 673 657 1323
f 1323 657 1324
f 657 641 1324
f 1324 641 1325
f 641 625 1325
f 1325 625 1326
f 625 609 1326
f 1326 609 1327
f 609 593 1327
f 1327 593 1328
f 593 592 1328
f 1328 592 1073
f 321 1329 337
f 321 1314 1329
f 1314 1330 1329
f 1314 1315 1330
f 1315 1331 1330
f 1315 1316 1331
f 1316 1332 1331
f 1316 1317 1332
f 1317 1333 1332
f 1317 1318 1333
f 1318 1334 1333
f 1318 1319 1334
f 1319 1335 1334
f 1319 1320 1335
f 1320 1336 1335
f 1320 1321 1336
f 1321 1322 1336
f 1336 1322 1337
f 1322 1323 1337
f 1337 1323 1338
f 1323 1324 1338
f 1338 1324 1339
f 1324 1325 1339
f 1339 1325 1340
f 1325 1326 1340
f 1340 1326 1341
f 1326 1327 1341
f 1341 1327 1342
f 1327 1328 1342
f 1342 1328 1343
f 1328 1073 1343
f 1343 1073 1057
f 337 1344 353
f 337 1329 1344
f 1329 1345 1344
f 1329 1330 1345
f 1330 1346 1345
f 1330 1331 1346
f 1331 1347 1346
f 1331 1332 1347
f 1332 1348 1347
f 1332 1333 1348
f 1333 1349 1348
f 1333 1334 1349
f 1334 1350 1349
f 1334 1335 1350
f 1335 1351 1350
f 1335 1336 1351
f 1336 1337 1351
f 1351 1337 1352
f 1337 1338 1352
f 1352 1338 1353
f 1338 1339 1353
f 1353 1339 1354
f 1339 1340 1354
f 1354 1340 1355
f 1340 1341 1355
f 1355 1341 1356
f 1341 1342 1356
f 1356 1342 1357
f 1342 1343 1357
f 1357 1343 1358
f 1343 1057 1358
f 1358 1057 1041
f 353 1359 369
f 353 1344 1359
f 1344 1360 1359
f 1344 1345 1360
f 1345 1361 1360
f 1345 1346 1361
f 1346 1362 1361
f 1346 1347 1362
f 1347 1363 1362
f 1347 1348 1363
f 1348 1364 1363
f 1348 1349 1364
f 1349 1365 1364
f 1349 1350 1365
f 1350 1366 1365
f 1350 1351 1366
f 1351 1352 1366
f 1366 1352 1367
f 1352 1353 1367
f 1367 1353 1368
f 1353 1354 1368
f 1368 1354 1369
f 1354 1355 1369
f 1369 1355 1370
f 1355 1356 1370
f 1370 1356 1371
f 1356 1357 1371
f 1371 1357 1372
f 1357 1358 1372
f 1372 1358 1373
f 1358 1041 1373
f 1373 1041 1025
f 369 1374 385
f 369 1359 1374
f 1359 1375 1374
f 1359 1360 1375
f 1360 1376 1375
f 1360 1361 1376
f 1361 1377 1376
f 1361 1362 1377
f 1362 1378 1377
f 1362 1363 1378
f 1363 1379 1378
f 1363 1364 1379
f 1364 1380 1379
f 1364 1365 1380
f 1365 1381 1380
f 1365 1366 1381
f 1366 1367 1381
f 1381 1367 1382
f 1367 1368 1382
f 1382 1368 1383
f 1368 1369 1383
f 1383 1369 1384
f 1369 1370 1384
f 1384 1370 1385
f 1370 1371 1385
f 1385 1371 1386
f 1371 1372 1386
f 1386 1372 1387
f 1372 1373 1387
f 1387 1373 1388
f 1373 1025 1388
f 1388 1025 1009
f 385 1389 401
f 385 1374 1389
f 1374 1390 1389
f 1374 1375 1390
f 1375 1391 1390
f 1375 1376 1391
f 1376 1392 1391
f 1376 1377 1392
f 1377 1393 1392
f 1377 1378 1393
f 1378 1394 1393
f 1378 1379 1394
f 1379 1395 1394
f 1379 1380 1395
f 1380 1396 1395
f 1380 1381 1396
f 1381 1382 1396
f 1396 1382 1397
f 1382 1383 1397
f 1397 1383 1398
f 1383 1384 1398
f 1398 1384 1399
f 1384 1385 1399
f 1399 1385 1400
f 1385 1386 1400
f 1400 1386 1401
f 1386 1387 1401
f 1401 1387 1402
f 1387 1388 1402
f 1402 1388 1403
f 1388 1009 1403
f 1403 1009 993
f 401 1404 417
f 401 1389 1404
f 1389 1405 1404
f 1389 1390 1405
f 1390 1406 1405
f 1390 1391 1406
f 1391 1407 1406
f 1391 1392 1407
f 1392 1408 1407
f 1392 1393 1408
f 1393 1409 1408
f 1393 1394 1409
f 1394 1410 1409
f 1394 1395 1410
f 1395 1411 1410
f 1395 1396 1411
f 1396 1397 1411
f 1411 1397 1412
f 1397 1398 1412
f 1412 1398 1413
f 1398 1399 1413
f 1413 1399 1414
f 1399 1400 1414
f 1414 1400 1415
f 1400 1401 1415
f 1415 1401 1416
f 1401 1402 1416
f 1416 1402 1417
f 1402 1403 1417
f 1417 1403 1418
f 1403 993 1418
f 1418 993 977
f 417 1419 433
f 417 1404 1419
f 1404 1420 1419
f 1404 1405 1420
f 1405 1421 1420
f 1405 1406 1421
f 1406 1422 1421
f 1406 1407 1422
f 1407 1423 1422
f 1407 1408 1423
f 1408 1424 1423
f 1408 1409 1424
f 1409 1425 1424
f 1409 1410 1425
f 1410 1426 1425
f 1410 1411 1426
f 1411 1412 1426
f 1426 1412 1427
f 1412 1413 1427
f 1427 1413 1428
f 1413 1414 1428
f 1428 1414 1429
f 1414 1415 1429
f 1429 1415 1430
f 1415 1416 1430
f 1430 1416 1431
f 1416 1417 1431
f 1431 1417 1432
f 1417 1418 1432
f 1432 1418 1433
f 1418 977 1433
f 1433 977 961
f 433 1419 449
f 449 1419 1434
f 1419 1420 1434
f 1434 1420 1435
f 1420 1421 1435
f 1435 1421 1436
f 1421 1422 1436
f 1436 1422 1437
f 1422 1423 1437
f 1437 1423 1438
f 1423 1424 1438
f 1438 1424 1439
f 1424 1425 1439
f 1439 1425 1440
f 1425 1426 1440
f 1440 1426 1441
f 1426 1442 1441
f 1426 1427 1442
f 1427 1443 1442
f 1427 1428 1443
f 1428 1444 1443
f 1428 1429 1444
f 1429 1445 1444
f 1429 1430 1445
f 1430 1446 1445
f 1430 1431 1446
f 1431 1447 1446
f 1431 1432 1447
f 1432 1448 1447
f 1432 1433 1448
f 1433 945 1448
f 1433 961 945
f 449 1434 465
f 465 1434 1449
f 1434 1435 1449
f 1449 1435 1450
f 1435 1436 1450
f 1450 1436 1451
f 1436 1437 1451
f 1451 1437 1452
f 1437 1438 1452
f 1452 1438 1453
f 1438 1439 1453
f 1453 1439 1454
f 1439 1440 1454
f 1454 1440 1455
f 1440 1441 1455
f 1455 1441 1456
f 1441 1457 1456
f 1441 1442 1457
f 1442 1458 1457
f 1442 1443 1458
f 1443 1459 1458
f 1443 1444 1459
f 1444 1460 1459
f 1444 1445 1460
f 1445 1461 1460
f 1445 1446 1461
f 1446 1462 1461
f 1446 1447 1462
f 1447 1463 1462
f 1447 1448 1463
f 1448 929 1463
f 1448 945 929
f 465 1449 481
f 481 1449 1464
f 1449 1450 1464
f 1464 1450 1465
f 1450 1451 1465
f 1465 1451 1466
f 1451 1452 1466
f 1466 1452 1467
f 1452 1453 1467
f 1467 1453 1468
f 1453 1454 1468
f 1468 1454 1469
f 1454 1455 1469
f 1469 1455 1470
f 1455 1456 1470
f 1470 1456 1471
f 1456 1472 1471
f 1456 1457 1472
f 1457 1473 1472
f 1457 1458 1473
f 1458 1474 1473
f 1458 1459 1474
f 1459 1475 1474
f 1459 1460 1475
f 1460 1476 1475
f 1460 1461 1476
f 1461 1477 1476
f 1461 1462 1477
f 1462 1478 1477
f 1462 1463 1478
f 1463 913 1478
f 1463 929 913
f 481 1464 497
f 497 1464 1479
f 1464 1465 1479
f 1479 1465 1480
f 1465 1466 1480
f 1480 1466 1481
f 1466 1467 1481
f 1481 1467 1482
f 1467 1468 1482
f 1482 1468 1483
f 1468 1469 1483
f 1483 1469 1484
f 1469 1470 1484
f 1484 1470 1485
f 1470 1471 1485
f 1485 1471 1486
f 1471 1487 1486
f 1471 1472 1487
f 1472 1488 1487
f 1472 1473 1488
f 1473 1489 1488
f 1473 1474 1489
f 1474 1490 1489
f 1474 1475 1490
f 1475 1491 1490
f 1475 1476 1491
f 1476 1492 1491
f 1476 1477 1492
f 1477 1493 1492
f 1477 1478 1493
f 1478 897 1493
f 1478 913 897
f 497 1479 513
f 513 1479 1494
f 1479 1480 1494
f 1494 1480 1495
f 1480 1481 1495
f 1495 1481 1496
f 1481 1482 1496
f 1496 1482 1497
f 1482 1483 1497
f 1497 1483 1498
f 1483 1484 1498
f 1498 1484 1499
f 1484 1485 1499
f 1499 1485 1500
f 1485 1486 1500
f 1500 1486 1501
f 1486 1502 1501
f 1486 1487 1502
f 1487 1503 1502
f 1487 1488 1503
f 1488 1504 1503
f 1488 1489 1504
f 1489 1505 1504
f 1489 1490 1505
f 1490 1506 1505
f 1490 1491 1506
f 1491 1507 1506
f 1491 1492 1507
f 1492 1508 1507
f 1492 1493 1508
f 1493 881 1508
f 1493 897 881
f 513 1494 529
f 529 1494 1509
f 1494 1495 1509
f 1509 1495 1510
f 1495 1496 1510
f 1510 1496 1511
f 1496 1497 1511
f 1511 1497 1512
f 1497 1498 1512
f 1512 1498 1513
f 1498 1499 1513
f 1513 1499 1514
f 1499 1500 1514
f 1514 1500 1515
f 1500 1501 1515
f 1515 1501 1516
f 1501 1517 1516
f 1501 1502 1517
f 1502 1518 1517
f 1502 1503 1518
f 1503 1519 1518
f 1503 1504 1519
f 1504 1520 1519
f 1504 1505 1520
f 1505 1521 1520
f 1505 1506 1521
f 1506 1522 1521
f 1506 1507 1522
f 1507 1523 1522
f 1507 1508 1523
f 1508 865 1523
f 1508 881 865
f 529 1509 545
f 545 1509 1524
f 1509 1510 1524
f 1524 1510 1525
f 1510 1511 1525
f 1525 1511 1526
f 1511 1512 1526
f 1526 1512 1527
f 1512 1513 1527
f 1527 1513 1528
f 1513 1514 1528
f 1528 1514 1529
f 1514 1515 1529
f 1529 1515 1530
f 1515 1516 1530
f 1530 1516 1531
f 1516 1532 1531
f 1516 1517 1532
f 1517 1533 1532
f 1517 1518 1533
f 1518 1534 1533
f 1518 1519 1534
f 1519 1535 1534
f 1519 1520 1535
f 1520 1536 1535
f 1520 1521 1536
f 1521 1537 1536
f 1521 1522 1537
f 1522 1538 1537
f 1522 1523 1538
f 1523 849 1538
f 1523 865 849
f 545 1524 561
f 561 1524 1089
f 1524 1525 1089
f 1089 1525 1105
f 1525 1526 1105
f 1105 1526 1121
f 1526 1527 1121
f 1121 1527 1137
f 1527 1528 1137
f 1137 1528 1153
f 1528 1529 1153
f 1153 1529 1169
f 1529 1530 1169
f 1169 1530 1185
f 1530 1531 1185
f 1185 1531 1201
f 1531 1217 1201
f 1531 1532 1217
f 1532 1233 1217
f 1532 1533 1233
f 1533 1249 1233
f 1533 1534 1249
f 1534 1265 1249
f 1534 1535 1265
f 1535 1281 1265
f 1535 1536 1281
f 1536 1297 1281
f 1536 1537 1297
f 1537 1313 1297
f 1537 1538 1313
f 1538 848 1313
f 1538 849 848
