o Torus_knot
v 0.667926 -0.025468 -0.024212
v 0.814003 -0.264017 0.236944
v 1.166667 -0.347908 0.359571
v 1.519330 -0.228000 0.271837
v 1.665408 0.025468 0.025135
v 1.519330 0.264017 -0.236021
v 1.166667 0.347908 -0.358648
v 0.814003 0.228000 -0.270914
v 0.626181 0.456347 0.436812
v 0.764522 0.237534 0.718644
v 1.107569 0.191375 0.881846
v 1.454368 0.344910 0.830818
v 1.601770 0.608199 0.595451
v 1.463429 0.827013 0.313620
v 1.120382 0.873172 0.150417
v 0.773583 0.719637 0.201445
v 0.498679 0.910405 0.837523
v 0.613092 0.715097 1.146086
v 0.930098 0.709143 1.360372
v 1.263999 0.896029 1.354855
v 1.419200 1.166281 1.132767
v 1.304787 1.361589 0.824204
v 0.987781 1.367543 0.609918
v 0.653880 1.180657 0.615435
v 0.308732 1.303759 1.135964
v 0.377921 1.135903 1.472837
v 0.641933 1.177484 1.746727
v 0.946112 1.404144 1.797192
v 1.112275 1.683109 1.594670
v 1.043086 1.850965 1.257797
v 0.779075 1.809384 0.983907
v 0.474895 1.582723 0.933442
v 0.092144 1.607075 1.317505
v 0.094182 1.470757 1.675080
v 0.265419 1.571561 2.002132
v 0.505547 1.850435 2.107079
v 0.673903 2.144021 1.928444
v 0.671865 2.280339 1.570869
v 0.500628 2.179536 1.243817
v 0.260500 1.900661 1.138870
v -0.127367 1.816757 1.400786
v -0.207492 1.710305 1.759527
v -0.168726 1.871181 2.104581
v -0.033778 2.205146 2.233822
v 0.118302 2.516567 2.071541
v 0.198426 2.623019 1.712801
v 0.159660 2.462143 1.367746
v 0.024712 2.128178 1.238505
v -0.372730 1.955008 1.400400
v -0.531005 1.865761 1.737195
v -0.629900 2.062344 2.050279
v -0.611483 2.429600 2.156252
v -0.486543 2.752396 1.993037
v -0.328268 2.841643 1.656242
v -0.229373 2.645060 1.343158
v -0.247790 2.277804 1.237185
v -0.671689 2.024193 1.292802
v -0.887202 1.937063 1.596791
v -1.091145 2.138250 1.850518
v -1.164052 2.509901 1.905354
v -1.063214 2.834308 1.729176
v -0.847701 2.921437 1.425187
v -0.643758 2.720250 1.171460
v -0.570852 2.348599 1.116624
v -1.004242 2.006495 1.063111
v -1.255494 1.912430 1.336004
v -1.528256 2.099251 1.528735
v -1.662749 2.457522 1.528404
v -1.580187 2.777373 1.335205
v -1.328936 2.871439 1.062312
v -1.056173 2.684618 0.869581
v -0.921681 2.326346 0.869912
v -1.329153 1.894135 0.732499
v -1.601266 1.789321 0.980320
v -1.918721 1.952309 1.118538
v -2.095556 2.287622 1.066187
v -2.028184 2.598840 0.853934
v -1.756071 2.703654 0.606113
v -1.438617 2.540666 0.467895
v -1.261781 2.205352 0.520246
v -1.610307 1.694728 0.343918
v -1.894129 1.577962 0.572517
v -2.242001 1.710452 0.661275
v -2.450144 2.014588 0.558200
v -2.396631 2.312210 0.323672
v -2.112809 2.428977 0.095073
v -1.764938 2.296486 0.006314
v -1.556794 1.992351 0.109389
v -1.821860 1.427690 -0.051971
v -2.111797 1.298657 0.161884
v -2.480633 1.392230 0.202512
v -2.712310 1.653595 0.046112
v -2.671114 1.929648 -0.215698
v -2.381178 2.058680 -0.429554
v -2.012341 1.965107 -0.470181
v -1.780665 1.703742 -0.313781
v -1.949034 1.122358 -0.406121
v -2.241084 0.980323 -0.203687
v -2.621500 1.020990 -0.212435
v -2.867439 1.220537 -0.427241
v -2.834834 1.462071 -0.722274
v -2.542784 1.604106 -0.924708
v -2.162368 1.563439 -0.915960
v -1.916429 1.363893 -0.701154
v -1.990380 0.814853 -0.682339
v -2.279859 0.657864 -0.487395
v -2.656849 0.623649 -0.543558
v -2.900515 0.732250 -0.817929
v -2.868120 0.920051 -1.149785
v -2.578641 1.077039 -1.344729
v -2.201651 1.111254 -1.288566
v -1.957985 1.002653 -1.014195
v -1.955999 0.532627 -0.871451
v -2.235796 0.360036 -0.675562
v -2.584661 0.228217 -0.761372
v -2.798234 0.214386 -1.078613
v -2.751405 0.326646 -1.441451
v -2.471608 0.499237 -1.637340
v -2.122743 0.631056 -1.551530
v -1.909170 0.644887 -1.234289
v -1.847264 0.268722 -0.984213
v -2.111459 0.088514 -0.774041
v -2.407992 -0.140888 -0.850784
v -2.563157 -0.285105 -1.169487
v -2.486060 -0.259656 -1.543459
v -2.221864 -0.079449 -1.753632
v -1.925332 0.149954 -1.676889
v -1.770167 0.294171 -1.358185
v -1.643569 0.001101 -1.009664
v -1.893963 -0.171616 -0.777461
v -2.133569 -0.468174 -0.810463
v -2.222030 -0.714851 -1.089339
v -2.107527 -0.767148 -1.450726
v -1.857134 -0.594430 -1.682929
v -1.617527 -0.297873 -1.649927
v -1.529066 -0.051196 -1.371051
v -1.336431 -0.258249 -0.917457
v -1.578736 -0.416013 -0.666767
v -1.771072 -0.746286 -0.647443
v -1.800771 -1.055598 -0.870805
v -1.650437 -1.162758 -1.206011
v -1.408132 -1.004994 -1.456701
v -1.215796 -0.674721 -1.476025
v -1.186097 -0.365409 -1.252662
v -0.945769 -0.473698 -0.700940
v -1.181649 -0.621423 -0.438290
v -1.333582 -0.966860 -0.374762
v -1.312568 -1.307658 -0.547568
v -1.130917 -1.444181 -0.855482
v -0.895037 -1.296456 -1.118131
v -0.743104 -0.951019 -1.181660
v -0.764118 -0.610221 -1.008854
v -0.501381 -0.615502 -0.387043
v -0.726634 -0.761502 -0.114295
v -0.838034 -1.113975 -0.015305
v -0.770323 -1.466449 -0.148061
v -0.563166 -1.612449 -0.434795
v -0.337912 -1.466449 -0.707544
v -0.226513 -1.113975 -0.806534
v -0.294224 -0.761502 -0.673778
v -0.030892 -0.668193 -0.023414
v -0.238049 -0.814193 0.263320
v -0.305760 -1.166667 0.396076
v -0.194361 -1.519140 0.297086
v 0.030892 -1.665140 0.024337
v 0.238049 -1.519140 -0.262397
v 0.305760 -1.166667 -0.395153
v 0.194361 -0.814193 -0.296163
v 0.439699 -0.628734 0.334571
v 0.258048 -0.765257 0.642485
v 0.237034 -1.106055 0.815291
v 0.388968 -1.451492 0.751763
v 0.624847 -1.599217 0.489113
v 0.806498 -1.462694 0.181199
v 0.827512 -1.121896 0.008393
v 0.675579 -0.776459 0.071922
v 0.881341 -0.506685 0.634857
v 0.731006 -0.613845 0.970062
v 0.760705 -0.923157 1.193424
v 0.953041 -1.253430 1.174100
v 1.195346 -1.411194 0.923411
v 1.345680 -1.304034 0.588205
v 1.315981 -0.994722 0.364843
v 1.123645 -0.664449 0.384167
v 1.261455 -0.326379 0.842126
v 1.146952 -0.378676 1.203513
v 1.235413 -0.625353 1.482388
v 1.475019 -0.921911 1.515391
v 1.725413 -1.094629 1.283188
v 1.839916 -1.042331 0.921801
v 1.751455 -0.795654 0.642925
v 1.511848 -0.499097 0.609923
v 1.556150 -0.118834 0.951495
v 1.479053 -0.093385 1.325467
v 1.634218 -0.237602 1.644170
v 1.930750 -0.467005 1.720913
v 2.194946 -0.647212 1.510741
v 2.272043 -0.672662 1.136769
v 2.116878 -0.528445 0.818065
v 1.820346 -0.299042 0.741322
v 1.768959 0.107523 0.979759
v 1.722130 0.219783 1.342597
v 1.935703 0.205953 1.659838
v 2.284568 0.074133 1.745648
v 2.564365 -0.098458 1.549759
v 2.611194 -0.210718 1.186921
v 2.397621 -0.196887 0.869680
v 2.048756 -0.065067 0.783870
v 1.914832 0.377037 0.923651
v 1.882437 0.564838 1.255507
v 2.126103 0.673439 1.529877
v 2.503093 0.639224 1.586041
v 2.792572 0.482236 1.391097
v 2.824967 0.294435 1.059241
v 2.581301 0.185834 0.784870
v 2.204311 0.220049 0.728707
v 1.986350 0.697595 0.758908
v 1.953745 0.939130 1.053941
v 2.199684 1.138676 1.268747
v 2.580101 1.179343 1.277495
v 2.872150 1.037308 1.075061
v 2.904755 0.795774 0.780028
v 2.658816 0.596227 0.565222
v 2.278400 0.555560 0.556474
v 1.967307 1.041236 0.483257
v 1.926112 1.317289 0.745067
v 2.157789 1.578653 0.901467
v 2.526625 1.672226 0.860840
v 2.816561 1.543194 0.646984
v 2.857757 1.267141 0.385174
v 2.626080 1.005776 0.228774
v 2.257244 0.912203 0.269401
v 1.853325 1.369928 0.124634
v 1.799812 1.667550 0.359163
v 2.007956 1.971686 0.462238
v 2.355827 2.104176 0.373479
v 2.639649 1.987410 0.144881
v 2.693162 1.689787 -0.089648
v 2.485019 1.385652 -0.192723
v 2.137147 1.253161 -0.103964
v 1.653954 1.651117 -0.272155
v 1.586582 1.962334 -0.059901
v 1.763417 2.297648 -0.007551
v 2.080872 2.460636 -0.145769
v 2.352985 2.355822 -0.393589
v 2.420357 2.044605 -0.605843
v 2.243521 1.709291 -0.658193
v 1.926067 1.546303 -0.519975
v 1.390696 1.861048 -0.656246
v 1.308135 2.180899 -0.463048
v 1.442627 2.539171 -0.462717
v 1.715390 2.725992 -0.655447
v 1.966641 2.631926 -0.928341
v 2.049203 2.312075 -1.121540
v 1.914710 1.953804 -1.121871
v 1.641948 1.766983 -0.929140
v 1.096452 1.986877 -0.980048
v 0.995615 2.311283 -0.803870
v 1.068521 2.682934 -0.858706
v 1.272465 2.884121 -1.112433
v 1.487977 2.796992 -1.416422
v 1.588815 2.472585 -1.592601
v 1.515908 2.100934 -1.537765
v 1.311965 1.899747 -1.284037
v 0.810545 2.030556 -1.213748
v 0.685605 2.353352 -1.050532
v 0.667189 2.720608 -1.156506
v 0.766083 2.917191 -1.469590
v 0.924358 2.827945 -1.806385
v 1.049298 2.505148 -1.969600
v 1.067715 2.137892 -1.863627
v 0.968820 1.941310 -1.550543
v 0.552471 2.003797 -1.360418
v 0.400391 2.315218 -1.198138
v 0.265443 2.649183 -1.327378
v 0.226678 2.810059 -1.672433
v 0.306802 2.703607 -2.031173
v 0.458882 2.392186 -2.193454
v 0.593830 2.058221 -2.064214
v 0.632595 1.897345 -1.719159
v 0.295412 1.898189 -1.429771
v 0.127056 2.191775 -1.251136
v -0.113072 2.470649 -1.356083
v -0.284309 2.571453 -1.683135
v -0.286346 2.435135 -2.040710
v -0.117991 2.141549 -2.219346
v 0.122137 1.862674 -2.114399
v 0.293374 1.761871 -1.787346
v 0.018748 1.685873 -1.392699
v -0.147415 1.964838 -1.190177
v -0.451594 2.191498 -1.240642
v -0.715606 2.233079 -1.514531
v -0.784795 2.065223 -1.851405
v -0.618632 1.786259 -2.053927
v -0.314452 1.559598 -2.003462
v -0.050441 1.518017 -1.729572
v -0.250243 1.365496 -1.216772
v -0.405444 1.635748 -0.994684
v -0.739345 1.822634 -0.989167
v -1.056351 1.816680 -1.203453
v -1.170764 1.621372 -1.512016
v -1.015563 1.351120 -1.734104
v -0.681662 1.164234 -1.739621
v -0.364657 1.170188 -1.525335
v -0.471145 0.962417 -0.904903
v -0.618547 1.225707 -0.669535
v -0.965346 1.379241 -0.618507
v -1.308393 1.333082 -0.781710
v -1.446734 1.114269 -1.063542
v -1.299332 0.850979 -1.298909
v -0.952533 0.697445 -1.349937
v -0.609486 0.743604 -1.186734
v -0.615234 0.506805 -0.490535
v -0.761312 0.760273 -0.243833
v -1.113975 0.880182 -0.156099
v -1.466639 0.796290 -0.278727
v -1.612716 0.557741 -0.539882
v -1.466639 0.304274 -0.786585
v -1.113975 0.184365 -0.874319
v -0.761312 0.268257 -0.751691
v -0.667926 0.025468 -0.024212
v -0.814003 0.264017 0.236944
v -1.166667 0.347908 0.359571
v -1.519330 0.228000 0.271837
v -1.665408 -0.025468 0.025135
v -1.519330 -0.264017 -0.236021
v -1.166667 -0.347908 -0.358648
v -0.814003 -0.228000 -0.270914
v -0.626181 -0.456347 0.436812
v -0.764522 -0.237534 0.718644
v -1.107569 -0.191375 0.881846
v -1.454368 -0.344910 0.830818
v -1.601770 -0.608199 0.595451
v -1.463429 -0.827013 0.313620
v -1.120382 -0.873172 0.150417
v -0.773583 -0.719637 0.201445
v -0.498679 -0.910405 0.837523
v -0.613092 -0.715097 1.146086
v -0.930098 -0.709143 1.360372
v -1.263999 -0.896029 1.354855
v -1.419200 -1.166281 1.132767
v -1.304787 -1.361589 0.824204
v -0.987781 -1.367543 0.609918
v -0.653880 -1.180657 0.615435
v -0.308732 -1.303759 1.135964
v -0.377921 -1.135903 1.472837
v -0.641933 -1.177484 1.746727
v -0.946112 -1.404144 1.797192
v -1.112275 -1.683109 1.594670
v -1.043086 -1.850965 1.257797
v -0.779075 -1.809384 0.983907
v -0.474895 -1.582723 0.933442
v -0.092144 -1.607075 1.317505
v -0.094182 -1.470757 1.675080
v -0.265419 -1.571561 2.002132
v -0.505547 -1.850435 2.107079
v -0.673903 -2.144021 1.928444
v -0.671865 -2.280339 1.570869
v -0.500628 -2.179536 1.243817
v -0.260500 -1.900661 1.138870
v 0.127367 -1.816757 1.400786
v 0.207492 -1.710305 1.759527
v 0.168726 -1.871181 2.104581
v 0.033778 -2.205146 2.233822
v -0.118302 -2.516567 2.071541
v -0.198426 -2.623019 1.712801
v -0.159660 -2.462143 1.367746
v -0.024712 -2.128178 1.238505
v 0.372730 -1.955008 1.400400
v 0.531005 -1.865761 1.737195
v 0.629900 -2.062344 2.050279
v 0.611483 -2.429600 2.156252
v 0.486543 -2.752396 1.993037
v 0.328268 -2.841643 1.656242
v 0.229373 -2.645060 1.343158
v 0.247790 -2.277804 1.237185
v 0.671689 -2.024193 1.292802
v 0.887202 -1.937063 1.596791
v 1.091145 -2.138250 1.850518
v 1.164052 -2.509901 1.905354
v 1.063214 -2.834308 1.729176
v 0.847701 -2.921437 1.425187
v 0.643758 -2.720250 1.171460
v 0.570852 -2.348599 1.116624
v 1.004242 -2.006495 1.063111
v 1.255494 -1.912430 1.336004
v 1.528256 -2.099251 1.528735
v 1.662749 -2.457522 1.528404
v 1.580187 -2.777373 1.335205
v 1.328936 -2.871439 1.062312
v 1.056173 -2.684618 0.869581
v 0.921681 -2.326346 0.869912
v 1.329153 -1.894135 0.732499
v 1.601266 -1.789321 0.980320
v 1.918721 -1.952309 1.118538
v 2.095556 -2.287622 1.066187
v 2.028184 -2.598840 0.853934
v 1.756071 -2.703654 0.606113
v 1.438617 -2.540666 0.467895
v 1.261781 -2.205352 0.520246
v 1.610307 -1.694728 0.343918
v 1.894129 -1.577962 0.572517
v 2.242001 -1.710452 0.661275
v 2.450144 -2.014588 0.558200
v 2.396631 -2.312210 0.323672
v 2.112809 -2.428977 0.095073
v 1.764938 -2.296486 0.006314
v 1.556794 -1.992351 0.109389
v 1.821860 -1.427690 -0.051971
v 2.111797 -1.298657 0.161884
v 2.480633 -1.392230 0.202512
v 2.712310 -1.653595 0.046112
v 2.671114 -1.929648 -0.215698
v 2.381178 -2.058680 -0.429554
v 2.012341 -1.965107 -0.470181
v 1.780665 -1.703742 -0.313781
v 1.949034 -1.122358 -0.406121
v 2.241084 -0.980323 -0.203687
v 2.621500 -1.020990 -0.212435
v 2.867439 -1.220537 -0.427241
v 2.834834 -1.462071 -0.722274
v 2.542784 -1.604106 -0.924708
v 2.162368 -1.563439 -0.915960
v 1.916429 -1.363893 -0.701154
v 1.990380 -0.814853 -0.682339
v 2.279859 -0.657864 -0.487395
v 2.656849 -0.623649 -0.543558
v 2.900515 -0.732250 -0.817929
v 2.868120 -0.920051 -1.149785
v 2.578641 -1.077039 -1.344729
v 2.201651 -1.111254 -1.288566
v 1.957985 -1.002653 -1.014195
v 1.955999 -0.532627 -0.871451
v 2.235796 -0.360036 -0.675562
v 2.584661 -0.228217 -0.761372
v 2.798234 -0.214386 -1.078613
v 2.751405 -0.326646 -1.441451
v 2.471608 -0.499237 -1.637340
v 2.122743 -0.631056 -1.551530
v 1.909170 -0.644887 -1.234289
v 1.847264 -0.268722 -0.984213
v 2.111459 -0.088514 -0.774041
v 2.407992 0.140888 -0.850784
v 2.563157 0.285105 -1.169487
v 2.486060 0.259656 -1.543459
v 2.221864 0.079449 -1.753632
v 1.925332 -0.149954 -1.676889
v 1.770167 -0.294171 -1.358185
v 1.643569 -0.001101 -1.009664
v 1.893963 0.171616 -0.777461
v 2.133569 0.468174 -0.810463
v 2.222030 0.714851 -1.089339
v 2.107527 0.767148 -1.450726
v 1.857134 0.594430 -1.682929
v 1.617527 0.297873 -1.649927
v 1.529066 0.051196 -1.371051
v 1.336431 0.258249 -0.917457
v 1.578736 0.416013 -0.666767
v 1.771072 0.746286 -0.647443
v 1.800771 1.055598 -0.870805
v 1.650437 1.162758 -1.206011
v 1.408132 1.004994 -1.456701
v 1.215796 0.674721 -1.476025
v 1.186097 0.365409 -1.252662
v 0.945769 0.473698 -0.700940
v 1.181649 0.621423 -0.438290
v 1.333582 0.966860 -0.374762
v 1.312568 1.307658 -0.547568
v 1.130917 1.444181 -0.855482
v 0.895037 1.296456 -1.118131
v 0.743104 0.951019 -1.181660
v 0.764118 0.610221 -1.008854
v 0.501381 0.615502 -0.387043
v 0.726634 0.761502 -0.114295
v 0.838034 1.113975 -0.015305
v 0.770323 1.466449 -0.148061
v 0.563166 1.612449 -0.434795
v 0.337912 1.466449 -0.707544
v 0.226513 1.113975 -0.806534
v 0.294224 0.761502 -0.673778
v 0.030892 0.668193 -0.023414
v 0.238049 0.814193 0.263320
v 0.305760 1.166667 0.396076
v 0.194361 1.519140 0.297086
v -0.030892 1.665140 0.024337
v -0.238049 1.519140 -0.262397
v -0.305760 1.166667 -0.395153
v -0.194361 0.814193 -0.296163
v -0.439699 0.628734 0.334571
v -0.258048 0.765257 0.642485
v -0.237034 1.106055 0.815291
v -0.388968 1.451492 0.751763
v -0.624847 1.599217 0.489113
v -0.806498 1.462694 0.181199
v -0.827512 1.121896 0.008393
v -0.675579 0.776459 0.071922
v -0.881341 0.506685 0.634857
v -0.731006 0.613845 0.970062
v -0.760705 0.923157 1.193424
v -0.953041 1.253430 1.174100
v -1.195346 1.411194 0.923411
v -1.345680 1.304034 0.588205
v -1.315981 0.994722 0.364843
v -1.123645 0.664449 0.384167
v -1.261455 0.326379 0.842126
v -1.146952 0.378676 1.203513
v -1.235413 0.625353 1.482388
v -1.475019 0.921911 1.515391
v -1.725413 1.094629 1.283188
v -1.839916 1.042331 0.921801
v -1.751455 0.795654 0.642925
v -1.511848 0.499097 0.609923
v -1.556150 0.118834 0.951495
v -1.479053 0.093385 1.325467
v -1.634218 0.237602 1.644170
v -1.930750 0.467005 1.720913
v -2.194946 0.647212 1.510741
v -2.272043 0.672662 1.136769
v -2.116878 0.528445 0.818065
v -1.820346 0.299042 0.741322
v -1.768959 -0.107523 0.979759
v -1.722130 -0.219783 1.342597
v -1.935703 -0.205953 1.659838
v -2.284568 -0.074133 1.745648
v -2.564365 0.098458 1.549759
v -2.611194 0.210718 1.186921
v -2.397621 0.196887 0.869680
v -2.048756 0.065067 0.783870
v -1.914832 -0.377037 0.923651
v -1.882437 -0.564838 1.255507
v -2.126103 -0.673439 1.529877
v -2.503093 -0.639224 1.586041
v -2.792572 -0.482236 1.391097
v -2.824967 -0.294435 1.059241
v -2.581301 -0.185834 0.784870
v -2.204311 -0.220049 0.728707
v -1.986350 -0.697595 0.758908
v -1.953745 -0.939130 1.053941
v -2.199684 -1.138676 1.268747
v -2.580101 -1.179343 1.277495
v -2.872150 -1.037308 1.075061
v -2.904755 -0.795774 0.780028
v -2.658816 -0.596227 0.565222
v -2.278400 -0.555560 0.556474
v -1.967307 -1.041236 0.483257
v -1.926112 -1.317289 0.745067
v -2.157789 -1.578653 0.901467
v -2.526625 -1.672226 0.860840
v -2.816561 -1.543194 0.646984
v -2.857757 -1.267141 0.385174
v -2.626080 -1.005776 0.228774
v -2.257244 -0.912203 0.269401
v -1.853325 -1.369928 0.124634
v -1.799812 -1.667550 0.359163
v -2.007956 -1.971686 0.462238
v -2.355827 -2.104176 0.373479
v -2.639649 -1.987410 0.144881
v -2.693162 -1.689787 -0.089648
v -2.485019 -1.385652 -0.192723
v -2.137147 -1.253161 -0.103964
v -1.653954 -1.651117 -0.272155
v -1.586582 -1.962334 -0.059901
v -1.763417 -2.297648 -0.007551
v -2.080872 -2.460636 -0.145769
v -2.352985 -2.355822 -0.393589
v -2.420357 -2.044605 -0.605843
v -2.243521 -1.709291 -0.658193
v -1.926067 -1.546303 -0.519975
v -1.390696 -1.861048 -0.656246
v -1.308135 -2.180899 -0.463048
v -1.442627 -2.539171 -0.462717
v -1.715390 -2.725992 -0.655447
v -1.966641 -2.631926 -0.928341
v -2.049203 -2.312075 -1.121540
v -1.914710 -1.953804 -1.121871
v -1.641948 -1.766983 -0.929140
v -1.096452 -1.986877 -0.980048
v -0.995615 -2.311283 -0.803870
v -1.068521 -2.682934 -0.858706
v -1.272465 -2.884121 -1.112433
v -1.487977 -2.796992 -1.416422
v -1.588815 -2.472585 -1.592601
v -1.515908 -2.100934 -1.537765
v -1.311965 -1.899747 -1.284037
v -0.810545 -2.030556 -1.213748
v -0.685605 -2.353352 -1.050532
v -0.667189 -2.720608 -1.156506
v -0.766083 -2.917191 -1.469590
v -0.924358 -2.827945 -1.806385
v -1.049298 -2.505148 -1.969600
v -1.067715 -2.137892 -1.863627
v -0.968820 -1.941310 -1.550543
v -0.552471 -2.003797 -1.360418
v -0.400391 -2.315218 -1.198138
v -0.265443 -2.649183 -1.327378
v -0.226678 -2.810059 -1.672433
v -0.306802 -2.703607 -2.031173
v -0.458882 -2.392186 -2.193454
v -0.593830 -2.058221 -2.064214
v -0.632595 -1.897345 -1.719159
v -0.295412 -1.898189 -1.429771
v -0.127056 -2.191775 -1.251136
v 0.113072 -2.470649 -1.356083
v 0.284309 -2.571453 -1.683135
v 0.286346 -2.435135 -2.040710
v 0.117991 -2.141549 -2.219346
v -0.122137 -1.862674 -2.114399
v -0.293374 -1.761871 -1.787346
v -0.018748 -1.685873 -1.392699
v 0.147415 -1.964838 -1.190177
v 0.451594 -2.191498 -1.240642
v 0.715606 -2.233079 -1.514531
v 0.784795 -2.065223 -1.851405
v 0.618632 -1.786259 -2.053927
v 0.314452 -1.559598 -2.003462
v 0.050441 -1.518017 -1.729572
v 0.250243 -1.365496 -1.216772
v 0.405444 -1.635748 -0.994684
v 0.739345 -1.822634 -0.989167
v 1.056351 -1.816680 -1.203453
v 1.170764 -1.621372 -1.512016
v 1.015563 -1.351120 -1.734104
v 0.681662 -1.164234 -1.739621
v 0.364657 -1.170188 -1.525335
v 0.471145 -0.962417 -0.904903
v 0.618547 -1.225707 -0.669535
v 0.965346 -1.379241 -0.618507
v 1.308393 -1.333082 -0.781710
v 1.446734 -1.114269 -1.063542
v 1.299332 -0.850979 -1.298909
v 0.952533 -0.697445 -1.349937
v 0.609486 -0.743604 -1.186734
v 0.615234 -0.506805 -0.490535
v 0.761312 -0.760273 -0.243833
v 1.113975 -0.880182 -0.156099
v 1.466639 -0.796290 -0.278727
v 1.612716 -0.557741 -0.539882
v 1.466639 -0.304274 -0.786585
v 1.113975 -0.184365 -0.874319
v 0.761312 -0.268257 -0.751691
s 0
f 2 9 1
f 3 10 2
f 4 11 3
f 5 12 4
f 14 5 6
f 15 6 7
f 16 7 8
f 9 8 1
f 10 17 9
f 11 18 10
f 12 19 11
f 21 12 13
f 22 13 14
f 23 14 15
f 24 15 16
f 17 16 9
f 18 25 17
f 19 26 18
f 20 27 19
f 29 20 21
f 30 21 22
f 31 22 23
f 32 23 24
f 25 24 17
f 26 33 25
f 27 34 26
f 28 35 27
f 37 28 29
f 38 29 30
f 39 30 31
f 40 31 32
f 33 32 25
f 34 41 33
f 35 42 34
f 36 43 35
f 45 36 37
f 46 37 38
f 47 38 39
f 48 39 40
f 41 40 33
f 42 49 41
f 43 50 42
f 44 51 43
f 45 52 44
f 54 45 46
f 55 46 47
f 56 47 48
f 49 48 41
f 50 57 49
f 51 58 50
f 52 59 51
f 53 60 52
f 62 53 54
f 63 54 55
f 64 55 56
f 57 56 49
f 58 65 57
f 59 66 58
f 60 67 59
f 61 68 60
f 70 61 62
f 71 62 63
f 72 63 64
f 65 64 57
f 66 73 65
f 67 74 66
f 68 75 67
f 69 76 68
f 78 69 70
f 79 70 71
f 80 71 72
f 73 72 65
f 74 81 73
f 75 82 74
f 76 83 75
f 77 84 76
f 86 77 78
f 87 78 79
f 88 79 80
f 81 80 73
f 82 89 81
f 83 90 82
f 84 91 83
f 85 92 84
f 94 85 86
f 95 86 87
f 96 87 88
f 89 88 81
f 90 97 89
f 91 98 90
f 92 99 91
f 93 100 92
f 102 93 94
f 103 94 95
f 104 95 96
f 97 96 89
f 98 105 97
f 99 106 98
f 100 107 99
f 101 108 100
f 110 101 102
f 111 102 103
f 112 103 104
f 105 104 97
f 114 105 106
f 107 114 106
f 108 115 107
f 109 116 108
f 118 109 110
f 119 110 111
f 120 111 112
f 113 112 105
f 122 113 114
f 115 122 114
f 116 123 115
f 117 124 116
f 126 117 118
f 127 118 119
f 128 119 120
f 121 120 113
f 130 121 122
f 123 130 122
f 124 131 123
f 125 132 124
f 134 125 126
f 135 126 127
f 136 127 128
f 129 128 121
f 138 129 130
f 131 138 130
f 132 139 131
f 133 140 132
f 142 133 134
f 143 134 135
f 144 135 136
f 137 136 129
f 146 137 138
f 139 146 138
f 140 147 139
f 141 148 140
f 150 141 142
f 151 142 143
f 152 143 144
f 145 144 137
f 146 153 145
f 147 154 146
f 148 155 147
f 149 156 148
f 158 149 150
f 159 150 151
f 160 151 152
f 153 152 145
f 154 161 153
f 155 162 154
f 156 163 155
f 157 164 156
f 166 157 158
f 167 158 159
f 168 159 160
f 161 160 153
f 162 169 161
f 163 170 162
f 164 171 163
f 165 172 164
f 174 165 166
f 175 166 167
f 176 167 168
f 169 168 161
f 170 177 169
f 171 178 170
f 172 179 171
f 181 172 173
f 182 173 174
f 183 174 175
f 184 175 176
f 177 176 169
f 178 185 177
f 179 186 178
f 180 187 179
f 189 180 181
f 190 181 182
f 191 182 183
f 192 183 184
f 185 184 177
f 186 193 185
f 187 194 186
f 188 195 187
f 197 188 189
f 198 189 190
f 199 190 191
f 200 191 192
f 193 192 185
f 194 201 193
f 195 202 194
f 196 203 195
f 205 196 197
f 206 197 198
f 207 198 199
f 208 199 200
f 201 200 193
f 202 209 201
f 203 210 202
f 204 211 203
f 205 212 204
f 214 205 206
f 215 206 207
f 216 207 208
f 209 208 201
f 210 217 209
f 211 218 210
f 212 219 211
f 213 220 212
f 222 213 214
f 223 214 215
f 224 215 216
f 217 216 209
f 218 225 217
f 219 226 218
f 220 227 219
f 221 228 220
f 230 221 222
f 231 222 223
f 232 223 224
f 225 224 217
f 226 233 225
f 227 234 226
f 228 235 227
f 229 236 228
f 238 229 230
f 239 230 231
f 240 231 232
f 233 232 225
f 234 241 233
f 235 242 234
f 236 243 235
f 237 244 236
f 246 237 238
f 247 238 239
f 248 239 240
f 241 240 233
f 242 249 241
f 243 250 242
f 244 251 243
f 245 252 244
f 254 245 246
f 255 246 247
f 256 247 248
f 249 248 241
f 250 257 249
f 251 258 250
f 252 259 251
f 253 260 252
f 262 253 254
f 263 254 255
f 264 255 256
f 257 256 249
f 258 265 257
f 259 266 258
f 260 267 259
f 261 268 260
f 270 261 262
f 271 262 263
f 272 263 264
f 265 264 257
f 266 273 265
f 267 274 266
f 268 275 267
f 269 276 268
f 278 269 270
f 279 270 271
f 280 271 272
f 273 272 265
f 282 273 274
f 275 282 274
f 276 283 275
f 277 284 276
f 286 277 278
f 287 278 279
f 288 279 280
f 281 280 273
f 290 281 282
f 283 290 282
f 284 291 283
f 285 292 284
f 294 285 286
f 295 286 287
f 296 287 288
f 289 288 281
f 298 289 290
f 291 298 290
f 292 299 291
f 293 300 292
f 302 293 294
f 303 294 295
f 304 295 296
f 297 296 289
f 306 297 298
f 299 306 298
f 300 307 299
f 301 308 300
f 310 301 302
f 311 302 303
f 312 303 304
f 305 304 297
f 306 313 305
f 307 314 306
f 308 315 307
f 309 316 308
f 318 309 310
f 319 310 311
f 320 311 312
f 313 312 305
f 314 321 313
f 315 322 314
f 316 323 315
f 317 324 316
f 326 317 318
f 327 318 319
f 328 319 320
f 321 320 313
f 322 329 321
f 323 330 322
f 324 331 323
f 325 332 324
f 334 325 326
f 335 326 327
f 336 327 328
f 329 328 321
f 330 337 329
f 331 338 330
f 332 339 331
f 341 332 333
f 342 333 334
f 343 334 335
f 344 335 336
f 337 336 329
f 338 345 337
f 339 346 338
f 340 347 339
f 349 340 341
f 350 341 342
f 351 342 343
f 352 343 344
f 345 344 337
f 346 353 345
f 347 354 346
f 348 355 347
f 357 348 349
f 358 349 350
f 359 350 351
f 360 351 352
f 353 352 345
f 354 361 353
f 355 362 354
f 356 363 355
f 365 356 357
f 366 357 358
f 367 358 359
f 368 359 360
f 361 360 353
f 362 369 361
f 363 370 362
f 364 371 363
f 365 372 364
f 374 365 366
f 375 366 367
f 376 367 368
f 369 368 361
f 370 377 369
f 371 378 370
f 372 379 371
f 373 380 372
f 382 373 374
f 383 374 375
f 384 375 376
f 377 376 369
f 378 385 377
f 379 386 378
f 380 387 379
f 381 388 380
f 390 381 382
f 391 382 383
f 392 383 384
f 385 384 377
f 386 393 385
f 387 394 386
f 388 395 387
f 389 396 388
f 398 389 390
f 399 390 391
f 400 391 392
f 393 392 385
f 394 401 393
f 395 402 394
f 396 403 395
f 397 404 396
f 406 397 398
f 407 398 399
f 408 399 400
f 401 400 393
f 402 409 401
f 403 410 402
f 404 411 403
f 405 412 404
f 414 405 406
f 415 406 407
f 416 407 408
f 409 408 401
f 410 417 409
f 411 418 410
f 412 419 411
f 413 420 412
f 422 413 414
f 423 414 415
f 424 415 416
f 417 416 409
f 418 425 417
f 419 426 418
f 420 427 419
f 421 428 420
f 430 421 422
f 431 422 423
f 432 423 424
f 425 424 417
f 434 425 426
f 427 434 426
f 428 435 427
f 429 436 428
f 438 429 430
f 439 430 431
f 440 431 432
f 433 432 425
f 442 433 434
f 435 442 434
f 436 443 435
f 437 444 436
f 446 437 438
f 447 438 439
f 448 439 440
f 441 440 433
f 450 441 442
f 443 450 442
f 444 451 443
f 445 452 444
f 454 445 446
f 455 446 447
f 456 447 448
f 449 448 441
f 458 449 450
f 451 458 450
f 452 459 451
f 453 460 452
f 462 453 454
f 463 454 455
f 464 455 456
f 457 456 449
f 466 457 458
f 459 466 458
f 460 467 459
f 461 468 460
f 470 461 462
f 471 462 463
f 472 463 464
f 465 464 457
f 466 473 465
f 467 474 466
f 468 475 467
f 469 476 468
f 478 469 470
f 479 470 471
f 480 471 472
f 473 472 465
f 474 481 473
f 475 482 474
f 476 483 475
f 477 484 476
f 486 477 478
f 487 478 479
f 488 479 480
f 481 480 473
f 482 489 481
f 483 490 482
f 484 491 483
f 485 492 484
f 494 485 486
f 495 486 487
f 496 487 488
f 489 488 481
f 490 497 489
f 491 498 490
f 492 499 491
f 501 492 493
f 502 493 494
f 503 494 495
f 504 495 496
f 497 496 489
f 498 505 497
f 499 506 498
f 500 507 499
f 509 500 501
f 510 501 502
f 511 502 503
f 512 503 504
f 505 504 497
f 506 513 505
f 507 514 506
f 508 515 507
f 517 508 509
f 518 509 510
f 519 510 511
f 520 511 512
f 513 512 505
f 514 521 513
f 515 522 514
f 516 523 515
f 525 516 517
f 526 517 518
f 527 518 519
f 528 519 520
f 521 520 513
f 522 529 521
f 523 530 522
f 524 531 523
f 525 532 524
f 534 525 526
f 535 526 527
f 536 527 528
f 529 528 521
f 530 537 529
f 531 538 530
f 532 539 531
f 533 540 532
f 542 533 534
f 543 534 535
f 544 535 536
f 537 536 529
f 538 545 537
f 539 546 538
f 540 547 539
f 541 548 540
f 550 541 542
f 551 542 543
f 552 543 544
f 545 544 537
f 546 553 545
f 547 554 546
f 548 555 547
f 549 556 548
f 558 549 550
f 559 550 551
f 560 551 552
f 553 552 545
f 554 561 553
f 555 562 554
f 556 563 555
f 557 564 556
f 566 557 558
f 567 558 559
f 568 559 560
f 561 560 553
f 562 569 561
f 563 570 562
f 564 571 563
f 565 572 564
f 574 565 566
f 575 566 567
f 576 567 568
f 569 568 561
f 570 577 569
f 571 578 570
f 572 579 571
f 573 580 572
f 582 573 574
f 583 574 575
f 584 575 576
f 577 576 569
f 578 585 577
f 579 586 578
f 580 587 579
f 581 588 580
f 590 581 582
f 591 582 583
f 592 583 584
f 585 584 577
f 586 593 585
f 587 594 586
f 588 595 587
f 589 596 588
f 598 589 590
f 599 590 591
f 600 591 592
f 593 592 585
f 602 593 594
f 595 602 594
f 596 603 595
f 597 604 596
f 606 597 598
f 607 598 599
f 608 599 600
f 601 600 593
f 610 601 602
f 603 610 602
f 604 611 603
f 605 612 604
f 614 605 606
f 615 606 607
f 616 607 608
f 609 608 601
f 618 609 610
f 611 618 610
f 612 619 611
f 613 620 612
f 622 613 614
f 623 614 615
f 624 615 616
f 617 616 609
f 626 617 618
f 619 626 618
f 620 627 619
f 621 628 620
f 630 621 622
f 631 622 623
f 632 623 624
f 625 624 617
f 626 633 625
f 627 634 626
f 628 635 627
f 629 636 628
f 638 629 630
f 639 630 631
f 640 631 632
f 633 632 625
f 634 1 633
f 635 2 634
f 636 3 635
f 637 4 636
f 6 637 638
f 7 638 639
f 8 639 640
f 1 640 633
f 2 10 9
f 3 11 10
f 4 12 11
f 5 13 12
f 14 13 5
f 15 14 6
f 16 15 7
f 9 16 8
f 10 18 17
f 11 19 18
f 12 20 19
f 21 20 12
f 22 21 13
f 23 22 14
f 24 23 15
f 17 24 16
f 18 26 25
f 19 27 26
f 20 28 27
f 29 28 20
f 30 29 21
f 31 30 22
f 32 31 23
f 25 32 24
f 26 34 33
f 27 35 34
f 28 36 35
f 37 36 28
f 38 37 29
f 39 38 30
f 40 39 31
f 33 40 32
f 34 42 41
f 35 43 42
f 36 44 43
f 45 44 36
f 46 45 37
f 47 46 38
f 48 47 39
f 41 48 40
f 42 50 49
f 43 51 50
f 44 52 51
f 45 53 52
f 54 53 45
f 55 54 46
f 56 55 47
f 49 56 48
f 50 58 57
f 51 59 58
f 52 60 59
f 53 61 60
f 62 61 53
f 63 62 54
f 64 63 55
f 57 64 56
f 58 66 65
f 59 67 66
f 60 68 67
f 61 69 68
f 70 69 61
f 71 70 62
f 72 71 63
f 65 72 64
f 66 74 73
f 67 75 74
f 68 76 75
f 69 77 76
f 78 77 69
f 79 78 70
f 80 79 71
f 73 80 72
f 74 82 81
f 75 83 82
f 76 84 83
f 77 85 84
f 86 85 77
f 87 86 78
f 88 87 79
f 81 88 80
f 82 90 89
f 83 91 90
f 84 92 91
f 85 93 92
f 94 93 85
f 95 94 86
f 96 95 87
f 89 96 88
f 90 98 97
f 91 99 98
f 92 100 99
f 93 101 100
f 102 101 93
f 103 102 94
f 104 103 95
f 97 104 96
f 98 106 105
f 99 107 106
f 100 108 107
f 101 109 108
f 110 109 101
f 111 110 102
f 112 111 103
f 105 112 104
f 114 113 105
f 107 115 114
f 108 116 115
f 109 117 116
f 118 117 109
f 119 118 110
f 120 119 111
f 113 120 112
f 122 121 113
f 115 123 122
f 116 124 123
f 117 125 124
f 126 125 117
f 127 126 118
f 128 127 119
f 121 128 120
f 130 129 121
f 123 131 130
f 124 132 131
f 125 133 132
f 134 133 125
f 135 134 126
f 136 135 127
f 129 136 128
f 138 137 129
f 131 139 138
f 132 140 139
f 133 141 140
f 142 141 133
f 143 142 134
f 144 143 135
f 137 144 136
f 146 145 137
f 139 147 146
f 140 148 147
f 141 149 148
f 150 149 141
f 151 150 142
f 152 151 143
f 145 152 144
f 146 154 153
f 147 155 154
f 148 156 155
f 149 157 156
f 158 157 149
f 159 158 150
f 160 159 151
f 153 160 152
f 154 162 161
f 155 163 162
f 156 164 163
f 157 165 164
f 166 165 157
f 167 166 158
f 168 167 159
f 161 168 160
f 162 170 169
f 163 171 170
f 164 172 171
f 165 173 172
f 174 173 165
f 175 174 166
f 176 175 167
f 169 176 168
f 170 178 177
f 171 179 178
f 172 180 179
f 181 180 172
f 182 181 173
f 183 182 174
f 184 183 175
f 177 184 176
f 178 186 185
f 179 187 186
f 180 188 187
f 189 188 180
f 190 189 181
f 191 190 182
f 192 191 183
f 185 192 184
f 186 194 193
f 187 195 194
f 188 196 195
f 197 196 188
f 198 197 189
f 199 198 190
f 200 199 191
f 193 200 192
f 194 202 201
f 195 203 202
f 196 204 203
f 205 204 196
f 206 205 197
f 207 206 198
f 208 207 199
f 201 208 200
f 202 210 209
f 203 211 210
f 204 212 211
f 205 213 212
f 214 213 205
f 215 214 206
f 216 215 207
f 209 216 208
f 210 218 217
f 211 219 218
f 212 220 219
f 213 221 220
f 222 221 213
f 223 222 214
f 224 223 215
f 217 224 216
f 218 226 225
f 219 227 226
f 220 228 227
f 221 229 228
f 230 229 221
f 231 230 222
f 232 231 223
f 225 232 224
f 226 234 233
f 227 235 234
f 228 236 235
f 229 237 236
f 238 237 229
f 239 238 230
f 240 239 231
f 233 240 232
f 234 242 241
f 235 243 242
f 236 244 243
f 237 245 244
f 246 245 237
f 247 246 238
f 248 247 239
f 241 248 240
f 242 250 249
f 243 251 250
f 244 252 251
f 245 253 252
f 254 253 245
f 255 254 246
f 256 255 247
f 249 256 248
f 250 258 257
f 251 259 258
f 252 260 259
f 253 261 260
f 262 261 253
f 263 262 254
f 264 263 255
f 257 264 256
f 258 266 265
f 259 267 266
f 260 268 267
f 261 269 268
f 270 269 261
f 271 270 262
f 272 271 263
f 265 272 264
f 266 274 273
f 267 275 274
f 268 276 275
f 269 277 276
f 278 277 269
f 279 278 270
f 280 279 271
f 273 280 272
f 282 281 273
f 275 283 282
f 276 284 283
f 277 285 284
f 286 285 277
f 287 286 278
f 288 287 279
f 281 288 280
f 290 289 281
f 283 291 290
f 284 292 291
f 285 293 292
f 294 293 285
f 295 294 286
f 296 295 287
f 289 296 288
f 298 297 289
f 291 299 298
f 292 300 299
f 293 301 300
f 302 301 293
f 303 302 294
f 304 303 295
f 297 304 296
f 306 305 297
f 299 307 306
f 300 308 307
f 301 309 308
f 310 309 301
f 311 310 302
f 312 311 303
f 305 312 304
f 306 314 313
f 307 315 314
f 308 316 315
f 309 317 316
f 318 317 309
f 319 318 310
f 320 319 311
f 313 320 312
f 314 322 321
f 315 323 322
f 316 324 323
f 317 325 324
f 326 325 317
f 327 326 318
f 328 327 319
f 321 328 320
f 322 330 329
f 323 331 330
f 324 332 331
f 325 333 332
f 334 333 325
f 335 334 326
f 336 335 327
f 329 336 328
f 330 338 337
f 331 339 338
f 332 340 339
f 341 340 332
f 342 341 333
f 343 342 334
f 344 343 335
f 337 344 336
f 338 346 345
f 339 347 346
f 340 348 347
f 349 348 340
f 350 349 341
f 351 350 342
f 352 351 343
f 345 352 344
f 346 354 353
f 347 355 354
f 348 356 355
f 357 356 348
f 358 357 349
f 359 358 350
f 360 359 351
f 353 360 352
f 354 362 361
f 355 363 362
f 356 364 363
f 365 364 356
f 366 365 357
f 367 366 358
f 368 367 359
f 361 368 360
f 362 370 369
f 363 371 370
f 364 372 371
f 365 373 372
f 374 373 365
f 375 374 366
f 376 375 367
f 369 376 368
f 370 378 377
f 371 379 378
f 372 380 379
f 373 381 380
f 382 381 373
f 383 382 374
f 384 383 375
f 377 384 376
f 378 386 385
f 379 387 386
f 380 388 387
f 381 389 388
f 390 389 381
f 391 390 382
f 392 391 383
f 385 392 384
f 386 394 393
f 387 395 394
f 388 396 395
f 389 397 396
f 398 397 389
f 399 398 390
f 400 399 391
f 393 400 392
f 394 402 401
f 395 403 402
f 396 404 403
f 397 405 404
f 406 405 397
f 407 406 398
f 408 407 399
f 401 408 400
f 402 410 409
f 403 411 410
f 404 412 411
f 405 413 412
f 414 413 405
f 415 414 406
f 416 415 407
f 409 416 408
f 410 418 417
f 411 419 418
f 412 420 419
f 413 421 420
f 422 421 413
f 423 422 414
f 424 423 415
f 417 424 416
f 418 426 425
f 419 427 426
f 420 428 427
f 421 429 428
f 430 429 421
f 431 430 422
f 432 431 423
f 425 432 424
f 434 433 425
f 427 435 434
f 428 436 435
f 429 437 436
f 438 437 429
f 439 438 430
f 440 439 431
f 433 440 432
f 442 441 433
f 435 443 442
f 436 444 443
f 437 445 444
f 446 445 437
f 447 446 438
f 448 447 439
f 441 448 440
f 450 449 441
f 443 451 450
f 444 452 451
f 445 453 452
f 454 453 445
f 455 454 446
f 456 455 447
f 449 456 448
f 458 457 449
f 451 459 458
f 452 460 459
f 453 461 460
f 462 461 453
f 463 462 454
f 464 463 455
f 457 464 456
f 466 465 457
f 459 467 466
f 460 468 467
f 461 469 468
f 470 469 461
f 471 470 462
f 472 471 463
f 465 472 464
f 466 474 473
f 467 475 474
f 468 476 475
f 469 477 476
f 478 477 469
f 479 478 470
f 480 479 471
f 473 480 472
f 474 482 481
f 475 483 482
f 476 484 483
f 477 485 484
f 486 485 477
f 487 486 478
f 488 487 479
f 481 488 480
f 482 490 489
f 483 491 490
f 484 492 491
f 485 493 492
f 494 493 485
f 495 494 486
f 496 495 487
f 489 496 488
f 490 498 497
f 491 499 498
f 492 500 499
f 501 500 492
f 502 501 493
f 503 502 494
f 504 503 495
f 497 504 496
f 498 506 505
f 499 507 506
f 500 508 507
f 509 508 500
f 510 509 501
f 511 510 502
f 512 511 503
f 505 512 504
f 506 514 513
f 507 515 514
f 508 516 515
f 517 516 508
f 518 517 509
f 519 518 510
f 520 519 511
f 513 520 512
f 514 522 521
f 515 523 522
f 516 524 523
f 525 524 516
f 526 525 517
f 527 526 518
f 528 527 519
f 521 528 520
f 522 530 529
f 523 531 530
f 524 532 531
f 525 533 532
f 534 533 525
f 535 534 526
f 536 535 527
f 529 536 528
f 530 538 537
f 531 539 538
f 532 540 539
f 533 541 540
f 542 541 533
f 543 542 534
f 544 543 535
f 537 544 536
f 538 546 545
f 539 547 546
f 540 548 547
f 541 549 548
f 550 549 541
f 551 550 542
f 552 551 543
f 545 552 544
f 546 554 553
f 547 555 554
f 548 556 555
f 549 557 556
f 558 557 549
f 559 558 550
f 560 559 551
f 553 560 552
f 554 562 561
f 555 563 562
f 556 564 563
f 557 565 564
f 566 565 557
f 567 566 558
f 568 567 559
f 561 568 560
f 562 570 569
f 563 571 570
f 564 572 571
f 565 573 572
f 574 573 565
f 575 574 566
f 576 575 567
f 569 576 568
f 570 578 577
f 571 579 578
f 572 580 579
f 573 581 580
f 582 581 573
f 583 582 574
f 584 583 575
f 577 584 576
f 578 586 585
f 579 587 586
f 580 588 587
f 581 589 588
f 590 589 581
f 591 590 582
f 592 591 583
f 585 592 584
f 586 594 593
f 587 595 594
f 588 596 595
f 589 597 596
f 598 597 589
f 599 598 590
f 600 599 591
f 593 600 592
f 602 601 593
f 595 603 602
f 596 604 603
f 597 605 604
f 606 605 597
f 607 606 598
f 608 607 599
f 601 608 600
f 610 609 601
f 603 611 610
f 604 612 611
f 605 613 612
f 614 613 605
f 615 614 606
f 616 615 607
f 609 616 608
f 618 617 609
f 611 619 618
f 612 620 619
f 613 621 620
f 622 621 613
f 623 622 614
f 624 623 615
f 617 624 616
f 626 625 617
f 619 627 626
f 620 628 627
f 621 629 628
f 630 629 621
f 631 630 622
f 632 631 623
f 625 632 624
f 626 634 633
f 627 635 634
f 628 636 635
f 629 637 636
f 638 637 629
f 639 638 630
f 640 639 631
f 633 640 632
f 634 2 1
f 635 3 2
f 636 4 3
f 637 5 4
f 6 5 637
f 7 6 638
f 8 7 639
f 1 8 640
