# Blender 4.0.2
# www.blender.org
o Arrokoth_Stern_2019
v 6.159264 -0.162698 3.375265
v 7.721069 -0.162698 3.293325
v 6.159264 1.333729 3.359434
v 4.570709 -0.162698 3.387177
v 6.159264 -1.673872 3.330754
v 9.237612 -0.162698 3.176993
v 8.317239 1.858032 3.220019
v 6.159264 2.781533 3.282295
v 3.959746 1.927744 3.245235
v 3.038642 -0.162698 3.288221
v 3.925717 -2.298453 3.342360
v 6.159264 -3.149091 3.223423
v 8.354976 -2.252184 3.163019
v 10.737134 -0.162698 3.037541
v 9.999904 1.887294 3.018378
v 8.401963 3.439654 3.083575
v 6.159264 4.166321 3.140971
v 3.878973 3.563601 3.058054
v 2.319837 1.927847 2.970870
v 1.672433 -0.162698 3.061506
v 2.147252 -2.357676 3.210357
v 3.837049 -4.001846 3.190344
v 6.159264 -4.534670 3.048783
v 8.443768 -3.948100 2.998938
v 10.187350 -2.362775 3.043502
v 12.240837 -0.162698 2.860514
v 11.489511 1.861665 2.777746
v 10.174979 3.502398 2.782097
v 8.409205 4.830542 2.873190
v 6.159264 5.482212 2.933404
v 3.880030 4.984890 2.844098
v 2.168676 3.565199 2.673592
v 1.093886 1.788607 2.612332
v 0.537262 -0.162698 2.731377
v 0.707351 -2.272051 2.920260
v 1.878589 -4.196282 3.007235
v 3.866997 -5.429479 2.932570
v 6.159264 -5.788751 2.804714
v 8.410610 -5.389983 2.774320
v 10.469962 -4.279301 2.857764
v 11.931272 -2.417498 2.916729
v 13.709941 -0.162698 2.619270
v 12.876255 1.835702 2.496637
v 11.644787 3.443239 2.446330
v 10.205749 4.872547 2.490914
v 8.393143 6.109214 2.593029
v 6.159264 6.713724 2.660353
v 3.904349 6.271219 2.595756
v 2.140454 4.956816 2.416209
v 0.963776 3.308319 2.258660
v 0.151905 1.620747 2.235562
v -0.388291 -0.162698 2.351432
v -0.436877 -2.129274 2.523957
v 0.308460 -4.098996 2.649598
v 1.871043 -5.687388 2.668004
v 3.945204 -6.622074 2.590138
v 6.159264 -6.887001 2.496349
v 8.326611 -6.609022 2.484537
v 10.441819 -5.845944 2.582702
v 12.371391 -4.476408 2.704513
v 13.611365 -2.450010 2.722471
v 15.029119 -0.162698 2.295804
v 14.134656 1.807575 2.169439
v 12.927238 3.376459 2.098874
v 11.646914 4.760301 2.098308
v 10.190989 6.112911 2.158938
v 8.357394 7.275925 2.254300
v 6.159264 7.821786 2.325910
v 3.945985 7.426946 2.300276
v 2.143576 6.217255 2.162329
v 0.892780 4.636062 1.990173
v 0.026463 3.034603 1.882780
v -0.663041 1.476200 1.883827
v -1.193805 -0.162698 1.973061
v -1.361236 -1.976484 2.094552
v -0.905886 -3.867268 2.195608
v 0.261855 -5.573206 2.248824
v 2.000624 -6.850698 2.245119
v 4.047901 -7.592321 2.193854
v 6.159264 -7.817172 2.137701
v 8.219383 -7.618498 2.137927
v 10.260648 -7.069536 2.225882
v 12.301862 -6.106799 2.362993
v 14.091034 -4.560478 2.451158
v 15.104266 -2.443311 2.418691
v 16.049587 -0.162698 1.896299
v 15.176512 1.763429 1.797985
v 14.035755 3.311939 1.740295
v 12.859713 4.649081 1.724742
v 11.617220 5.956227 1.744409
v 10.137534 7.241643 1.795832
v 8.294640 8.284017 1.870447
v 6.159264 8.744318 1.937233
v 4.012110 8.407675 1.946220
v 2.178472 7.354525 1.869367
v 0.817801 5.893105 1.737437
v -0.138082 4.337018 1.617019
v -0.867158 2.838727 1.557348
v -1.491400 1.374676 1.566726
v -1.979743 -0.162698 1.620624
v -2.162012 -1.840138 1.683596
v -1.847057 -3.596502 1.733637
v -0.956740 -5.262605 1.768945
v 0.443266 -6.667439 1.791649
v 2.206820 -7.709266 1.794888
v 4.164498 -8.344381 1.774303
v 6.159264 -8.569062 1.747928
v 8.103510 -8.429761 1.752575
v 10.018227 -7.997585 1.815661
v 11.967244 -7.279423 1.927279
v 13.886913 -6.159816 2.032708
v 15.455483 -4.500756 2.065033
v 16.232702 -2.378185 2.004914
v 16.673912 -0.162698 1.449449
v 15.920188 1.693545 1.393381
v 14.932029 3.233543 1.364993
v 13.892025 4.560444 1.358178
v 12.803159 5.818273 1.362957
v 11.555062 7.064195 1.377095
v 10.030440 8.213493 1.406364
v 8.198989 9.067631 1.453282
v 6.159264 9.414845 1.504620
v 4.110498 9.144632 1.531073
v 2.270848 8.301953 1.506781
v 0.783799 7.057194 1.434673
v -0.334713 5.621820 1.347431
v -1.173733 4.158781 1.281791
v -1.846368 2.731835 1.255743
v -2.069242 1.335755 1.375297
v -2.060390 0.117128 1.553013
v -2.093429 -0.162698 1.574337
v -2.246256 -0.612459 1.529321
v -2.863626 -1.960197 1.303553
v -2.604856 -3.336646 1.307639
v -1.854382 -4.881083 1.309941
v -0.704311 -6.256520 1.320423
v 0.760818 -7.403238 1.338523
v 2.456361 -8.289440 1.352492
v 4.290420 -8.877165 1.352428
v 6.159264 -9.128737 1.344123
v 7.985598 -9.047028 1.348121
v 9.764624 -8.684803 1.384115
v 11.548780 -8.088490 1.454196
v 13.354071 -7.226250 1.534889
v 15.046121 -5.986994 1.585991
v 16.322748 -4.293294 1.579079
v 16.884087 -2.252888 1.521953
v 16.916945 -0.162698 0.989074
v 16.351124 1.598749 0.969626
v 15.586971 3.128302 0.967380
v 14.740528 4.474360 0.974909
v 13.814643 5.724013 0.981979
v 12.737372 6.922895 0.983632
v 11.429017 8.036288 0.983858
v 9.859936 8.960891 0.991546
v 8.071529 9.574760 1.012265
v 6.159264 9.790658 1.041983
v 4.242666 9.579662 1.066743
v 2.442177 8.965149 1.070383
v 0.859200 8.010310 1.046810
v -0.447967 6.808876 1.005753
v -1.479966 5.467774 0.965506
v -2.283593 4.076387 0.940475
v -3.027238 -2.267568 1.154438
v -3.230286 -3.101362 0.913097
v -2.515625 -4.497744 0.894528
v -1.509176 -5.764245 0.886890
v -0.273428 -6.876909 0.894136
v 1.149232 -7.834154 0.911276
v 2.729817 -8.621344 0.927804
v 4.423651 -9.190777 0.935455
v 6.159264 -9.481592 0.935222
v 7.866731 -9.464831 0.937074
v 9.519260 -9.167079 0.952440
v 11.140403 -8.641783 0.985706
v 12.758709 -7.911091 1.029468
v 14.335478 -6.932576 1.066126
v 15.719931 -5.629595 1.077788
v 16.690769 -3.978689 1.059578
v 17.086016 -2.086013 1.023587
v 16.889706 -0.162698 0.536453
v 16.530220 1.488031 0.536052
v 16.013340 2.993909 0.543957
v 15.394335 4.366314 0.555735
v 14.658388 5.640365 0.565086
v 13.746592 6.829329 0.567436
v 12.603079 7.901722 0.562896
v 11.216500 8.791559 0.556027
v 9.630627 9.432819 0.552648
v 7.920603 9.791805 0.556313
v 6.159264 9.872775 0.566431
v 4.401753 9.696969 0.578413
v 2.693916 9.278248 0.585941
v 1.087295 8.617645 0.584755
v -0.359273 7.719539 0.575528
v -1.595496 6.612369 0.563276
v -2.597700 5.352583 0.553845
v -3.370092 4.006274 0.550394
v -2.908641 2.788474 0.917136
v -2.993766 -4.135738 0.501144
v -2.061064 -5.273485 0.488993
v -0.974728 -6.291307 0.486100
v 0.235355 -7.205216 0.491968
v 1.564903 -8.027540 0.502784
v 3.014254 -8.741783 0.513214
v 4.562437 -9.295684 0.519285
v 6.159264 -9.621624 0.520811
v 7.745056 -9.673841 0.521288
v 9.281852 -9.453959 0.525304
v 10.767202 -9.001637 0.535452
v 12.215931 -8.357112 0.550448
v 13.620422 -7.526409 0.565190
v 14.916145 -6.477165 0.573170
v 15.982255 -5.171904 0.570589
v 16.691103 -3.619611 0.559255
v 16.980322 -1.904979 0.545541
v 16.724098 -0.162698 0.095498
v 16.547390 1.370986 0.095498
v 16.252535 2.833413 0.095498
v 15.851875 4.216485 0.095498
v 15.312136 5.519257 0.095498
v 14.574339 6.724204 0.095498
v 13.589761 7.786979 0.095498
v 12.353825 8.648026 0.095498
v 10.916138 9.260515 0.095498
v 9.358620 9.615590 0.095498
v 7.757961 9.745769 0.095498
v 6.159264 9.703863 0.095498
v 4.575237 9.532423 0.095498
v 3.005725 9.242316 0.095498
v 1.462005 8.810672 0.095498
v -0.019127 8.197963 0.095498
v -1.379357 7.375331 0.095498
v -2.557529 6.346934 0.095498
v -3.509558 5.153532 0.095498
v -4.215845 3.856064 0.095498
v -4.195663 3.770314 0.127264
v -3.301164 -3.792956 0.095498
v -2.423545 -4.814274 0.095498
v -1.440541 -5.731744 0.095498
v -0.379298 -6.564205 0.095498
v 0.757062 -7.334298 0.095498
v 1.980466 -8.050622 0.095498
v 3.299814 -8.694146 0.095498
v 4.704305 -9.217274 0.095498
v 6.159264 -9.559104 0.095498
v 7.618262 -9.671082 0.095498
v 9.042996 -9.537735 0.095498
v 10.415575 -9.177869 0.095498
v 11.733633 -8.625549 0.095498
v 12.991427 -7.905278 0.095498
v 14.159621 -7.018631 0.095498
v 15.178691 -5.950862 0.095498
v 15.974982 -4.693370 0.095498
v 16.493906 -3.267432 0.095498
v 16.728916 -1.731272 0.095498
v 16.499273 -0.162698 -0.339139
v 16.441969 1.532306 -0.353805
v 16.256756 3.195424 -0.378320
v 15.906723 4.798733 -0.405334
v 15.300859 6.294553 -0.424549
v 14.347665 7.596848 -0.428069
v 13.024835 8.600074 -0.415551
v 11.412593 9.232601 -0.394202
v 9.655949 9.504151 -0.373676
v 7.885013 9.503454 -0.360823
v 6.159264 9.346071 -0.357561
v 4.469650 9.112602 -0.361508
v 2.782283 8.813767 -0.368095
v 1.089374 8.393433 -0.373419
v -0.560877 7.764584 -0.376535
v -2.071104 6.862893 -0.379582
v -3.333132 5.688707 -0.385566
v -4.269507 4.309035 -0.395436
v -3.654930 -3.156205 -0.271764
v -2.956139 -4.027971 -0.329424
v -1.918752 -5.062803 -0.309350
v -0.790291 -5.981051 -0.301312
v 0.411808 -6.815556 -0.304945
v 1.699155 -7.592044 -0.316268
v 3.091140 -8.304923 -0.329340
v 4.588438 -8.906462 -0.338950
v 6.159264 -9.319674 -0.343263
v 7.749089 -9.472093 -0.344318
v 9.305255 -9.329585 -0.345839
v 10.794054 -8.904637 -0.350191
v 12.195171 -8.234076 -0.356562
v 13.480102 -7.347778 -0.361337
v 14.596500 -6.255000 -0.360592
v 15.477885 -4.957012 -0.353378
v 16.077496 -3.472494 -0.343222
v 16.399828 -1.851363 -0.336503
v 16.209883 -0.162698 -0.769399
v 16.260220 1.701835 -0.809766
v 16.146645 3.575070 -0.871925
v 15.764198 5.386956 -0.933656
v 14.960405 7.006436 -0.966935
v 13.650415 8.256073 -0.956251
v 11.913546 9.000540 -0.910448
v 9.964749 9.243291 -0.854311
v 8.015386 9.130581 -0.810257
v 6.159264 8.853887 -0.787843
v 4.370775 8.539369 -0.784345
v 2.583008 8.195920 -0.791045
v 0.775622 7.730009 -0.800818
v -0.978037 7.010983 -0.812982
v -2.530635 5.958720 -0.831914
v -3.732502 4.599302 -0.860432
v -3.425704 -3.033061 -0.810922
v -3.534615 -2.988708 -0.695275
v -3.496424 -2.910296 -0.816200
v -3.584650 -3.071704 -0.516079
v -2.407660 -4.249605 -0.754508
v -1.237728 -5.309906 -0.719063
v 0.035750 -6.240596 -0.711451
v 1.403887 -7.078731 -0.726903
v 2.881817 -7.838193 -0.752807
v 4.476033 -8.483729 -0.775475
v 6.159264 -8.934254 -0.787903
v 7.873047 -9.099615 -0.792632
v 9.552385 -8.926761 -0.796709
v 11.144346 -8.417617 -0.803722
v 12.602054 -7.607159 -0.809879
v 13.867647 -6.530117 -0.807245
v 14.874803 -5.210249 -0.792033
v 15.581578 -3.675413 -0.770837
v 16.004295 -1.972885 -0.758450
v 15.781679 -0.162698 -1.185726
v 15.907677 1.861733 -1.253432
v 15.791198 3.921068 -1.353217
v 15.249909 5.869531 -1.440540
v 14.101893 7.461056 -1.467717
v 12.356855 8.452513 -1.422140
v 10.267963 8.782391 -1.335531
v 8.148708 8.626895 -1.252544
v 6.159264 8.257082 -1.199213
v 4.275301 7.853062 -1.177351
v 2.407823 7.423939 -1.176479
v 0.539017 6.843063 -1.188577
v -1.218395 5.956923 -1.214842
v -2.672625 4.707209 -1.259544
v -3.665231 3.173782 -1.316791
v -4.245052 3.556409 -0.882333
v -3.329051 -2.600645 -1.126405
v -2.808418 -3.205547 -1.238979
v -3.458572 -2.840086 -0.887525
v -1.692831 -4.483924 -1.165542
v -0.380759 -5.579040 -1.127696
v 1.075161 -6.515620 -1.131060
v 2.658582 -7.320774 -1.161203
v 4.363132 -7.980894 -1.195559
v 6.159264 -8.425884 -1.218906
v 7.985843 -8.560193 -1.231248
v 9.767627 -8.317254 -1.240231
v 11.429635 -7.688065 -1.247352
v 12.893026 -6.704642 -1.243841
v 14.076642 -5.410533 -1.221566
v 14.930135 -3.852235 -1.187981
v 15.473166 -2.084103 -1.167335
v 15.123634 -0.162698 -1.569449
v 15.275339 1.985352 -1.657333
v 15.054206 4.161177 -1.782402
v 14.217618 6.107019 -1.874627
v 12.639456 7.469020 -1.875532
v 10.524716 8.043250 -1.792534
v 8.276526 7.962976 -1.683946
v 6.159264 7.559532 -1.599947
v 4.182882 7.075026 -1.555138
v 2.258304 6.527744 -1.542581
v 0.390331 5.774176 -1.557132
v -1.263785 4.673953 -1.601758
v -2.495934 3.227117 -1.672397
v -3.180438 1.564464 -1.740562
v -2.893230 -1.843274 -1.713353
v -3.097784 -1.818459 -1.605988
v -2.024766 -3.391056 -1.624909
v -0.786037 -4.735703 -1.549774
v 0.721458 -5.846308 -1.522241
v 2.417410 -6.732794 -1.540300
v 4.247613 -7.399641 -1.578130
v 6.159264 -7.801509 -1.611407
v 8.082103 -7.853965 -1.633639
v 9.930026 -7.488264 -1.647889
v 11.604428 -6.690627 -1.649032
v 12.999241 -5.496139 -1.625388
v 14.037077 -3.965039 -1.581383
v 14.721300 -2.166198 -1.549325
v 14.191571 -0.162698 -1.904386
v 14.306943 2.049270 -2.003004
v 13.872983 4.231954 -2.138069
v 12.646450 5.996776 -2.217852
v 10.676649 6.960351 -2.190274
v 8.383178 7.101365 -2.092770
v 6.159264 6.750578 -1.994845
v 4.096170 6.211584 -1.932548
v 2.138066 5.527528 -1.910666
v 0.333599 4.565621 -1.930948
v -1.122999 3.237386 -1.992445
v -2.039540 1.611149 -2.066870
v -2.328329 -0.162698 -2.097854
v -3.002715 0.985097 -1.822983
v -3.008146 1.000589 -1.820544
v -2.957715 -1.346796 -1.746838
v -1.979400 -1.940384 -2.052458
v -1.033517 -3.583034 -1.964372
v 0.402360 -4.962041 -1.897863
v 2.173596 -6.008230 -1.884865
v 4.131764 -6.710994 -1.911282
v 6.159264 -7.053377 -1.947278
v 8.156490 -6.980327 -1.976217
v 10.020143 -6.438054 -1.990303
v 11.629597 -5.422207 -1.975882
v 12.872418 -3.983854 -1.930012
v 13.711628 -2.203907 -1.887697
v 13.022448 -0.162698 -2.188121
v 13.036160 2.045823 -2.293583
v 12.297215 4.108108 -2.430801
v 10.665174 5.525329 -2.495284
v 8.450277 6.023391 -2.457373
v 6.159264 5.820827 -2.376879
v 4.020156 5.259342 -2.312603
v 2.057121 4.424023 -2.289531
v 0.387630 3.225634 -2.316716
v -0.761878 1.654231 -2.373759
v -1.209534 -0.162698 -2.398505
v -0.866040 -2.037108 -2.347618
v 0.251321 -3.739999 -2.259304
v 1.972013 -5.052937 -2.202734
v 4.023968 -5.867833 -2.199125
v 6.159264 -6.169338 -2.224309
v 8.205339 -5.945969 -2.249980
v 10.025278 -5.181820 -2.253118
v 11.482068 -3.904252 -2.218659
v 12.484508 -2.195607 -2.174243
v 11.711495 -0.162698 -2.432932
v 11.560066 1.985141 -2.550243
v 10.445801 3.800810 -2.691812
v 8.462286 4.744524 -2.749603
v 6.159264 4.773641 -2.722745
v 3.962651 4.206106 -2.676775
v 2.049357 3.181335 -2.659719
v 0.654757 1.690341 -2.677597
v 0.071169 -0.162698 -2.675478
v 0.496716 -2.113163 -2.604299
v 1.900034 -3.777825 -2.509286
v 3.939771 -4.825330 -2.458550
v 6.159264 -5.146394 -2.455692
v 8.227010 -4.766901 -2.464553
v 9.933968 -3.738393 -2.449060
v 11.125599 -2.153771 -2.414514
v 10.351921 -0.162698 -2.655358
v 9.964382 1.880714 -2.795317
v 8.405693 3.302515 -2.944410
v 6.159264 3.626891 -2.997019
v 3.940797 3.023020 -2.983055
v 2.233538 1.702147 -2.962105
v 1.511329 -0.162698 -2.918709
v 2.123748 -2.134727 -2.813662
v 3.906240 -3.556422 -2.708248
v 6.159264 -3.999654 -2.660507
v 8.216453 -3.455622 -2.643046
v 9.692468 -2.091188 -2.623103
v 8.986677 -0.162698 -2.861886
v 8.238080 1.707703 -3.032175
v 6.159264 2.406159 -3.166140
v 4.017998 1.635809 -3.174811
v 3.061353 -0.162698 -3.098419
v 3.994334 -2.036748 -2.956101
v 6.159264 -2.761256 -2.851280
v 8.133209 -1.980465 -2.815533
v 7.602303 -0.162698 -3.039512
v 6.159264 1.136152 -3.215486
v 4.636079 -0.162698 -3.182352
v 6.159264 -1.470522 -3.024445
v 6.159264 -0.162698 -3.157511
v -9.867790 -0.162698 4.639430
v -8.828453 -0.162698 4.551545
v -9.867790 0.819127 4.869477
v -10.924130 -0.162698 4.620068
v -9.867790 -1.056531 4.340175
v -7.815781 -0.162698 4.356742
v -8.321454 1.151545 4.714130
v -9.867790 1.860083 4.931652
v -11.423932 1.283505 4.854912
v -11.975392 -0.162698 4.512287
v -11.272194 -1.457359 4.086844
v -9.867790 -1.870883 4.043756
v -8.501584 -1.322978 4.184478
v -6.829423 -0.162698 4.080451
v -7.075514 1.176004 4.367239
v -8.199362 2.290129 4.656629
v -9.867790 2.892150 4.754212
v -11.526458 2.524827 4.711480
v -12.660409 1.309604 4.623550
v -12.990073 -0.162698 4.334692
v -12.449898 -1.513991 3.883575
v -11.278871 -2.423722 3.648254
v -9.867790 -2.633723 3.773014
v -8.487321 -2.197396 3.968707
v -7.390974 -1.357350 3.994232
v -5.865715 -0.162698 3.759498
v -5.977141 1.197555 3.964322
v -6.805199 2.350048 4.197752
v -8.191378 3.275797 4.339640
v -9.867790 3.830025 4.342098
v -11.525397 3.587808 4.279952
v -12.859393 2.563683 4.284239
v -13.691361 1.221065 4.293140
v -13.935207 -0.162698 4.089133
v -13.519627 -1.478513 3.681533
v -12.529902 -2.567131 3.343108
v -11.243859 -3.244769 3.286060
v -9.867790 -3.372016 3.508546
v -8.501648 -2.988265 3.771627
v -7.292010 -2.311331 3.811285
v -6.372720 -1.400925 3.720787
v -4.926884 -0.162698 3.419157
v -4.968283 1.239627 3.556359
v -5.628896 2.382191 3.692708
v -6.785642 3.283046 3.783260
v -8.248461 4.086647 3.818452
v -9.867790 4.606127 3.774924
v -11.471896 4.443879 3.692101
v -12.860433 3.574718 3.684936
v -13.901621 2.374808 3.792344
v -14.557153 1.114289 3.877870
v -14.786251 -0.162698 3.759010
v -14.496413 -1.423157 3.440971
v -13.674768 -2.551465 3.104600
v -12.504407 -3.434266 2.918285
v -11.207767 -3.984272 2.961057
v -9.867790 -4.097891 3.210960
v -8.514813 -3.764922 3.503739
v -7.258790 -3.160421 3.608549
v -6.211089 -2.425687 3.500499
v -5.405643 -1.465426 3.387992
v -4.030340 -0.162698 3.057036
v -4.035630 1.276080 3.148832
v -4.607625 2.422590 3.197117
v -5.628964 3.255285 3.198283
v -6.910823 3.996372 3.198275
v -8.343124 4.722266 3.197771
v -9.867790 5.195001 3.152975
v -11.388423 5.078566 3.067980
v -12.765351 4.347873 3.025370
v -13.889177 3.297187 3.097820
v -14.727004 2.177632 3.257214
v -15.285986 1.036430 3.373078
v -15.533854 -0.162698 3.323643
v -15.370695 -1.386668 3.116024
v -14.724926 -2.516556 2.857307
v -13.684664 -3.455482 2.651399
v -12.455564 -4.181564 2.564160
v -11.178421 -4.665021 2.632256
v -9.867790 -4.804948 2.847000
v -8.527649 -4.538112 3.111350
v -7.250491 -3.976191 3.258642
v -6.146606 -3.300981 3.209918
v -5.233422 -2.537202 3.074098
v -4.495611 -1.521519 3.008037
v -3.214271 -0.162698 2.643068
v -3.198581 1.267938 2.709441
v -3.718680 2.422636 2.701641
v -4.661834 3.231907 2.632462
v -5.831395 3.884560 2.570410
v -7.104356 4.553811 2.556462
v -8.453198 5.209706 2.565572
v -9.867790 5.612182 2.541937
v -11.290429 5.513315 2.471229
v -12.621408 4.908785 2.406717
v -13.770509 4.018590 2.416888
v -14.696471 3.049622 2.522889
v -15.404932 2.059925 2.675865
v -15.910034 1.002323 2.783101
v -16.183231 -0.162698 2.779044
v -16.133257 -1.382470 2.674456
v -15.664368 -2.524910 2.525627
v -14.786247 -3.481851 2.380861
v -13.644548 -4.242947 2.270406
v -12.409311 -4.850828 2.222880
v -11.155087 -5.295672 2.266749
v -9.867790 -5.473877 2.407315
v -8.546494 -5.283732 2.596358
v -7.271503 -4.767947 2.733594
v -6.148130 -4.096083 2.741869
v -5.201137 -3.386478 2.651954
v -4.379387 -2.585986 2.569836
v -3.674906 -1.528914 2.570559
v -2.534739 -0.162698 2.137365
v -2.504102 1.191481 2.189992
v -2.979864 2.330922 2.162162
v -3.859480 3.158988 2.068053
v -4.951251 3.789270 1.970243
v -6.115786 4.385736 1.921507
v -7.314249 5.013636 1.929137
v -8.563168 5.582339 1.956811
v -9.867790 5.893863 1.954908
v -11.188785 5.794194 1.905412
v -12.454851 5.303136 1.839930
v -13.596605 4.577643 1.809808
v -14.570872 3.768266 1.846107
v -15.365959 2.929387 1.941667
v -15.992239 2.027806 2.054459
v -16.459410 1.003117 2.132104
v -16.745293 -0.162698 2.148473
v -16.778444 -1.401022 2.116640
v -16.466574 -2.575981 2.064551
v -15.771475 -3.566890 2.007323
v -14.764738 -4.342828 1.945595
v -13.590994 -4.957167 1.883436
v -12.368848 -5.472147 1.840497
v -11.133615 -5.879994 1.843366
v -9.867790 -6.082254 1.904583
v -8.576462 -5.962041 2.005105
v -7.329492 -5.505273 2.094028
v -6.218974 -4.834841 2.120204
v -5.275630 -4.102129 2.079503
v -4.448688 -3.358133 2.021733
v -3.678051 -2.522422 2.005735
v -2.990319 -1.464309 2.054119
v -2.036470 0.294689 1.535714
v -2.011702 1.056838 1.560843
v -2.436491 2.140077 1.539235
v -3.238771 2.993256 1.463918
v -4.247983 3.658352 1.375785
v -5.323200 4.243707 1.315947
v -6.408194 4.827368 1.302586
v -7.513145 5.399568 1.326957
v -8.665129 5.859799 1.359909
v -9.867790 6.074774 1.368421
v -11.090120 5.970744 1.339241
v -12.281475 5.583017 1.289108
v -13.392967 5.016972 1.249739
v -14.388530 4.368460 1.245431
v -15.246004 3.674941 1.281798
v -15.956511 2.915751 1.345346
v -16.522766 2.041527 1.410530
v -16.949265 1.013075 1.454608
v -17.222868 -0.162698 1.472135
v -17.296982 -1.414272 1.474815
v -17.100435 -2.621203 1.476960
v -16.579582 -3.665894 1.481689
v -15.747583 -4.491496 1.479193
v -14.692130 -5.121453 1.457516
v -13.525958 -5.625662 1.416806
v -12.324980 -6.059834 1.373197
v -11.108092 -6.415709 1.348256
v -9.867790 -6.610693 1.354441
v -8.619371 -6.535734 1.386673
v -7.423247 -6.143770 1.423206
v -6.353516 -5.501698 1.438125
v -5.439433 -4.744072 1.421502
v -4.641763 -3.973511 1.389376
v -3.890314 -3.199723 1.371826
v -3.152514 -2.350527 1.391694
v -2.583467 -1.484755 1.441558
v -1.974467 1.032877 1.451029
v -2.964747 2.835289 0.888864
v -3.738083 3.455359 0.753478
v -4.711189 4.074972 0.716046
v -5.692656 4.655119 0.699092
v -6.678274 5.209177 0.704504
v -7.693018 5.696981 0.724705
v -8.757363 6.042262 0.745414
v -9.867790 6.176334 0.752157
v -10.997513 6.080148 0.739204
v -12.110683 5.791566 0.713344
v -13.175510 5.374594 0.688353
v -14.167136 4.879518 0.676200
v -15.063438 4.321520 0.682038
v -15.843016 3.683165 0.703487
v -16.489540 2.931520 0.732299
v -16.997091 2.038799 0.758314
v -17.367588 0.998970 0.775170
v -17.598127 -0.162698 0.783967
v -17.666807 -1.387352 0.791392
v -17.530790 -2.589371 0.803943
v -17.144836 -3.676379 0.822780
v -16.492662 -4.580209 0.842069
v -15.607494 -5.282883 0.851858
v -14.561445 -5.817869 0.844748
v -13.430103 -6.242949 0.821880
v -12.261428 -6.600476 0.792696
v -11.071752 -6.885818 0.768704
v -9.867790 -7.040200 0.756949
v -8.674482 -6.978522 0.757091
v -7.543673 -6.645586 0.762251
v -6.531599 -6.062988 0.763135
v -5.661638 -5.322593 0.754315
v -4.906180 -4.529283 0.738647
v -4.204771 -3.742747 0.725789
v -3.506144 -2.957784 0.726236
v -3.037707 -2.282544 1.145480
v -4.295163 3.845199 0.095498
v -5.161155 4.443597 0.095498
v -6.032247 4.994804 0.095498
v -6.923697 5.482789 0.095498
v -7.857126 5.870791 0.095498
v -8.841821 6.119039 0.095498
v -9.867790 6.206421 0.095498
v -10.911414 6.141165 0.095498
v -11.947073 5.953059 0.095498
v -12.954989 5.673825 0.095498
v -13.920312 5.319466 0.095498
v -14.826435 4.884099 0.095498
v -15.650003 4.346469 0.095498
v -16.363192 3.684102 0.095498
v -16.942524 2.886990 0.095498
v -17.377331 1.963463 0.095498
v -17.670265 0.936656 0.095498
v -17.828377 -0.162698 0.095498
v -17.850708 -1.299465 0.095498
v -17.721466 -2.431324 0.095498
v -17.414833 -3.506089 0.095498
v -16.910173 -4.467714 0.095498
v -16.208511 -5.272649 0.095498
v -15.338337 -5.906819 0.095498
v -14.345662 -6.389312 0.095498
v -13.275752 -6.757752 0.095498
v -12.160221 -7.043364 0.095498
v -11.018016 -7.249287 0.095498
v -9.867790 -7.343234 0.095498
v -8.740637 -7.270615 0.095498
v -7.680843 -6.985580 0.095498
v -6.730386 -6.483636 0.095498
v -5.906941 -5.811910 0.095498
v -5.192538 -5.047213 0.095498
v -4.542301 -4.258388 0.095498
v -3.908463 -3.479269 0.095498
v -3.601734 -3.085005 0.516345
v -4.440055 3.871258 -0.398616
v -4.825072 4.163830 -0.527850
v -5.727169 4.813653 -0.521166
v -6.663893 5.365108 -0.533758
v -7.663094 5.786977 -0.557695
v -8.736506 6.054023 -0.578653
v -9.867790 6.165174 -0.583167
v -11.023200 6.143513 -0.567587
v -12.171424 6.015988 -0.540653
v -13.292895 5.788387 -0.516883
v -14.371311 5.434429 -0.507781
v -15.377607 4.908569 -0.517272
v -16.263622 4.177503 -0.541208
v -16.974972 3.249378 -0.569411
v -17.475307 2.175654 -0.590707
v -17.761538 1.022426 -0.599816
v -17.856192 -0.162698 -0.600865
v -17.783638 -1.359585 -0.604039
v -17.549767 -2.556449 -0.618568
v -17.139841 -3.721911 -0.647145
v -16.534582 -4.794280 -0.683708
v -15.731159 -5.701943 -0.715310
v -14.752245 -6.401086 -0.728854
v -13.637251 -6.896638 -0.719645
v -12.426790 -7.226268 -0.694370
v -11.156916 -7.421641 -0.665463
v -9.867790 -7.477828 -0.642563
v -8.614322 -7.352815 -0.627716
v -7.460663 -6.999452 -0.615900
v -6.454578 -6.409118 -0.599643
v -5.600843 -5.631527 -0.575285
v -4.858477 -4.751631 -0.546704
v -4.167077 -3.844038 -0.523386
v -4.547693 3.700409 -1.174673
v -5.452755 4.455244 -1.157736
v -6.414259 5.081085 -1.175393
v -7.466270 5.554986 -1.216288
v -8.625317 5.871167 -1.251037
v -9.867790 6.049800 -1.251471
v -11.146175 6.119973 -1.213946
v -12.420418 6.083728 -1.163406
v -13.667159 5.889177 -1.133544
v -14.857552 5.443198 -1.145077
v -15.930126 4.674093 -1.196290
v -16.793797 3.604555 -1.263861
v -17.369438 2.357938 -1.314550
v -17.635719 1.077256 -1.327830
v -17.633961 -0.162698 -1.312175
v -17.428488 -1.370762 -1.296782
v -17.061380 -2.587026 -1.308489
v -16.536295 -3.813800 -1.355047
v -15.834227 -4.979473 -1.421379
v -14.940804 -5.967220 -1.478143
v -13.862480 -6.690170 -1.501178
v -12.625860 -7.140141 -1.488888
v -11.273439 -7.362869 -1.459875
v -9.867790 -7.394799 -1.433624
v -8.494976 -7.226375 -1.413956
v -7.245986 -6.820244 -1.387757
v -6.176393 -6.163005 -1.338738
v -5.278037 -5.299510 -1.265723
v -4.493845 -4.315224 -1.188337
v -3.768939 -3.287096 -1.134352
v -3.008862 0.986304 -1.829751
v -2.996911 0.925230 -1.827151
v -3.573598 2.071550 -1.844951
v -3.660173 2.615549 -1.398075
v -3.338987 2.002793 -1.614461
v -3.766030 2.818072 -1.326677
v -4.347213 3.059776 -1.828152
v -5.225595 3.920592 -1.813764
v -6.189224 4.628567 -1.831019
v -7.275791 5.172334 -1.874720
v -8.511537 5.568138 -1.906692
v -9.867790 5.854174 -1.889967
v -11.279313 6.049574 -1.829877
v -12.689754 6.097730 -1.775098
v -14.058188 5.848655 -1.777406
v -15.317837 5.142621 -1.854183
v -16.347488 3.972283 -1.973963
v -17.014194 2.544719 -2.068752
v -17.262426 1.124781 -2.082477
v -17.151970 -0.162698 -2.021891
v -16.800703 -1.361443 -1.947147
v -16.298531 -2.574024 -1.916095
v -15.668579 -3.835654 -1.946966
v -14.884249 -5.050273 -2.017905
v -13.908252 -6.043020 -2.090175
v -12.723934 -6.694604 -2.139915
v -11.353153 -7.010826 -2.171881
v -9.867790 -7.059983 -2.200013
v -8.386608 -6.877840 -2.217940
v -7.036209 -6.445714 -2.194223
v -5.888675 -5.742756 -2.103243
v -4.933867 -4.801254 -1.961694
v -4.121104 -3.703496 -1.824366
v -3.436527 -2.533621 -1.743385
v -3.256059 -2.426831 -1.282052
v -3.288080 -0.162698 -2.365668
v -3.601551 1.100913 -2.416538
v -4.234531 2.242971 -2.454717
v -5.053828 3.225961 -2.473844
v -5.999285 4.028698 -2.499305
v -7.101205 4.657006 -2.536293
v -8.400042 5.151796 -2.549447
v -9.867790 5.564247 -2.505769
v -11.416680 5.881097 -2.432362
v -12.958015 5.941959 -2.406677
v -14.403701 5.472021 -2.487232
v -15.611702 4.333075 -2.655448
v -16.396160 2.762450 -2.805596
v -16.652016 1.189314 -2.818156
v -16.451233 -0.162698 -2.681097
v -15.973820 -1.361096 -2.499487
v -15.362219 -2.568144 -2.382365
v -14.651078 -3.834751 -2.368275
v -13.791822 -5.017817 -2.436467
v -12.714725 -5.894111 -2.550354
v -11.389078 -6.362856 -2.688747
v -9.867790 -6.479400 -2.836955
v -8.293698 -6.317573 -2.951809
v -6.838517 -5.877722 -2.961038
v -5.608800 -5.126768 -2.830025
v -4.618422 -4.082667 -2.618963
v -3.859855 -2.835019 -2.437235
v -3.384733 -1.497206 -2.354295
v -2.971332 -1.395565 -1.736641
v -3.865119 -0.162698 -2.992229
v -4.248534 1.199280 -3.041756
v -4.949877 2.362371 -3.109454
v -5.852497 3.297367 -3.165477
v -6.951667 4.029464 -3.201959
v -8.297192 4.628524 -3.191506
v -9.867790 5.154838 -3.120178
v -11.544994 5.535220 -3.050814
v -13.177940 5.461818 -3.087931
v -14.585875 4.582753 -3.262781
v -15.533003 2.997891 -3.455653
v -15.851046 1.282091 -3.463882
v -15.609228 -0.162698 -3.227800
v -15.050423 -1.386596 -2.908396
v -14.366581 -2.593279 -2.690098
v -13.587620 -3.817683 -2.642491
v -12.626554 -4.855929 -2.751865
v -11.386376 -5.491941 -2.981550
v -9.867790 -5.706995 -3.277583
v -8.220214 -5.580549 -3.531092
v -6.671562 -5.119384 -3.599618
v -5.392288 -4.274450 -3.445028
v -4.458518 -3.067078 -3.200185
v -3.928536 -1.635058 -3.029857
v -4.550387 -0.162698 -3.649846
v -4.979594 1.260881 -3.702238
v -5.771465 2.410161 -3.793478
v -6.839271 3.290019 -3.850111
v -8.210785 3.995521 -3.828463
v -9.867790 4.594512 -3.738606
v -11.643225 4.926898 -3.688823
v -13.275913 4.533023 -3.790668
v -14.452884 3.175058 -3.972695
v -14.917549 1.392883 -3.964559
v -14.706444 -0.162698 -3.626247
v -14.117444 -1.438063 -3.174943
v -13.383825 -2.637460 -2.891134
v -12.509012 -3.742074 -2.879719
v -11.360959 -4.513328 -3.124264
v -9.867790 -4.824678 -3.538704
v -8.168780 -4.713893 -3.930382
v -6.567889 -4.171581 -4.065613
v -5.340279 -3.144333 -3.922845
v -4.646952 -1.720808 -3.723959
v -5.384034 -0.162698 -4.266662
v -5.845782 1.283799 -4.334972
v -6.792411 2.401408 -4.422528
v -8.150566 3.238625 -4.416078
v -9.867790 3.861219 -4.321628
v -11.685940 4.008113 -4.285385
v -13.166355 3.159930 -4.368984
v -13.890791 1.487408 -4.317747
v -13.794945 -0.162698 -3.893721
v -13.211519 -1.499678 -3.356505
v -12.404957 -2.652895 -3.096726
v -11.332279 -3.523179 -3.242008
v -9.867790 -3.906917 -3.704671
v -8.141639 -3.756704 -4.197302
v -6.579176 -3.030336 -4.390797
v -5.599158 -1.736761 -4.319205
v -6.381327 -0.162698 -4.731290
v -6.901577 1.280401 -4.831469
v -8.132386 2.334477 -4.868576
v -9.867790 2.962376 -4.780614
v -11.647512 2.805006 -4.705944
v -12.768817 1.513467 -4.572951
v -12.884948 -0.162698 -4.090529
v -12.303254 -1.542224 -3.545399
v -11.312508 -2.548508 -3.452844
v -9.867790 -2.993353 -3.873253
v -8.146781 -2.720779 -4.416569
v -6.801990 -1.688298 -4.662048
v -7.511344 -0.162698 -4.955953
v -8.204820 1.240486 -5.085952
v -9.867790 1.944523 -5.016971
v -11.487675 1.401009 -4.795015
v -11.951420 -0.162698 -4.283606
v -11.280801 -1.513693 -3.847478
v -9.867790 -2.083142 -4.109531
v -8.226412 -1.569223 -4.660488
v -8.701272 -0.162698 -4.936447
v -9.867790 0.880246 -4.989577
v -10.954681 -0.162698 -4.509738
v -9.867790 -1.149111 -4.421726
v -9.867790 -0.162698 -4.752207
v -2.489711 -1.302879 1.471513
v -4.368168 3.759227 -0.611920
v -2.726600 2.577271 1.003785
v -2.294616 2.023527 1.207637
v -4.262684 3.807140 0.035484
v -3.498152 -2.949289 0.705041
v -3.516756 -2.973054 0.682200
v -3.791014 2.872010 -1.303524
v -3.913564 3.059804 -1.203790
v -2.988744 -1.448659 -1.724645
v -3.630289 3.359343 0.551058
v -3.680648 -3.203708 0.095498
v -2.818787 2.683754 0.961771
v -2.877949 2.752214 0.934319
v -2.503581 -1.343684 1.468354
v -2.747069 -1.752099 1.384710
v -3.185933 1.485084 -1.741521
v -3.213239 1.562495 -1.727626
v -4.248111 3.803337 0.069935
v -4.235296 3.798971 0.095498
v -3.332535 -2.697288 0.918268
v -3.962051 3.127855 -1.165457
v -2.889734 -0.162698 -1.903484
v -2.957683 -1.318486 -1.750032
v -3.644336 3.369913 0.540445
v -3.615673 -3.107489 0.414558
v -4.250448 3.569264 -0.868069
v -3.546365 -3.014841 -0.645092
v -3.218250 -2.347736 -1.334014
v -4.389915 3.803306 -0.540018
v -2.039102 1.242935 1.398879
v -3.480242 -2.926723 0.726955
v -3.666927 -3.173699 -0.204922
v -2.217211 1.790184 1.261249
v -3.638951 -3.137826 -0.350814
v -3.171774 3.008261 0.782233
s 0
f 1 2 3
f 1 3 4
f 1 4 5
f 1 5 2
f 2 6 7
f 7 3 2
f 3 7 8
f 3 8 9
f 9 4 3
f 4 9 10
f 4 10 11
f 11 5 4
f 5 11 12
f 5 12 13
f 13 2 5
f 2 13 6
f 6 14 15
f 15 7 6
f 7 15 16
f 16 8 7
f 8 16 17
f 8 17 18
f 18 9 8
f 9 18 19
f 19 10 9
f 10 19 20
f 10 20 21
f 21 11 10
f 11 21 22
f 22 12 11
f 12 22 23
f 12 23 24
f 24 13 12
f 13 24 25
f 25 6 13
f 6 25 14
f 14 26 27
f 27 15 14
f 15 27 28
f 28 16 15
f 16 28 29
f 29 17 16
f 17 29 30
f 17 30 31
f 31 18 17
f 18 31 32
f 32 19 18
f 19 32 33
f 33 20 19
f 20 33 34
f 20 34 35
f 35 21 20
f 21 35 36
f 36 22 21
f 22 36 37
f 37 23 22
f 23 37 38
f 23 38 39
f 39 24 23
f 24 39 40
f 40 25 24
f 25 40 41
f 41 14 25
f 14 41 26
f 26 42 43
f 43 27 26
f 27 43 44
f 44 28 27
f 28 44 45
f 45 29 28
f 29 45 46
f 46 30 29
f 30 46 47
f 30 47 48
f 48 31 30
f 31 48 49
f 49 32 31
f 32 49 50
f 50 33 32
f 33 50 51
f 51 34 33
f 34 51 52
f 34 52 53
f 53 35 34
f 35 53 54
f 54 36 35
f 36 54 55
f 55 37 36
f 37 55 56
f 56 38 37
f 38 56 57
f 38 57 58
f 58 39 38
f 39 58 59
f 59 40 39
f 40 59 60
f 60 41 40
f 41 60 61
f 61 26 41
f 26 61 42
f 42 62 63
f 63 43 42
f 43 63 64
f 64 44 43
f 44 64 65
f 65 45 44
f 45 65 66
f 66 46 45
f 46 66 67
f 67 47 46
f 47 67 68
f 47 68 69
f 69 48 47
f 48 69 70
f 70 49 48
f 49 70 71
f 71 50 49
f 50 71 72
f 72 51 50
f 51 72 73
f 73 52 51
f 52 73 74
f 52 74 75
f 75 53 52
f 53 75 76
f 76 54 53
f 54 76 77
f 77 55 54
f 55 77 78
f 78 56 55
f 56 78 79
f 79 57 56
f 57 79 80
f 57 80 81
f 81 58 57
f 58 81 82
f 82 59 58
f 59 82 83
f 83 60 59
f 60 83 84
f 84 61 60
f 61 84 85
f 85 42 61
f 42 85 62
f 62 86 87
f 87 63 62
f 63 87 88
f 88 64 63
f 64 88 89
f 89 65 64
f 65 89 90
f 90 66 65
f 66 90 91
f 91 67 66
f 67 91 92
f 92 68 67
f 68 92 93
f 68 93 94
f 94 69 68
f 69 94 95
f 95 70 69
f 70 95 96
f 96 71 70
f 71 96 97
f 97 72 71
f 72 97 98
f 98 73 72
f 73 98 99
f 99 74 73
f 74 99 100
f 74 100 101
f 101 75 74
f 75 101 102
f 102 76 75
f 76 102 103
f 103 77 76
f 77 103 104
f 104 78 77
f 78 104 105
f 105 79 78
f 79 105 106
f 106 80 79
f 80 106 107
f 80 107 108
f 108 81 80
f 81 108 109
f 109 82 81
f 82 109 110
f 110 83 82
f 83 110 111
f 111 84 83
f 84 111 112
f 112 85 84
f 85 112 113
f 113 62 85
f 62 113 86
f 86 114 115
f 115 87 86
f 87 115 116
f 116 88 87
f 88 116 117
f 117 89 88
f 89 117 118
f 118 90 89
f 90 118 119
f 119 91 90
f 91 119 120
f 120 92 91
f 92 120 121
f 121 93 92
f 93 121 122
f 93 122 123
f 123 94 93
f 94 123 124
f 124 95 94
f 95 124 125
f 125 96 95
f 96 125 126
f 126 97 96
f 97 126 127
f 127 98 97
f 98 127 128
f 128 99 98
f 99 976 129
f 100 130 131
f 100 131 132
f 101 133 134
f 134 102 101
f 102 134 135
f 135 103 102
f 103 135 136
f 136 104 103
f 104 136 137
f 137 105 104
f 105 137 138
f 138 106 105
f 106 138 139
f 139 107 106
f 107 139 140
f 107 140 141
f 141 108 107
f 108 141 142
f 142 109 108
f 109 142 143
f 143 110 109
f 110 143 144
f 144 111 110
f 111 144 145
f 145 112 111
f 112 145 146
f 146 113 112
f 113 146 147
f 147 86 113
f 86 147 114
f 114 148 149
f 149 115 114
f 115 149 150
f 150 116 115
f 116 150 151
f 151 117 116
f 117 151 152
f 152 118 117
f 118 152 153
f 153 119 118
f 119 153 154
f 154 120 119
f 120 154 155
f 155 121 120
f 121 155 156
f 156 122 121
f 122 156 157
f 122 157 158
f 158 123 122
f 123 158 159
f 159 124 123
f 124 159 160
f 160 125 124
f 125 160 161
f 161 126 125
f 126 161 162
f 162 127 126
f 127 162 163
f 163 128 127
f 128 956 955
f 134 164 693
f 134 165 166
f 166 135 134
f 135 166 167
f 167 136 135
f 136 167 168
f 168 137 136
f 137 168 169
f 169 138 137
f 138 169 170
f 170 139 138
f 139 170 171
f 171 140 139
f 140 171 172
f 140 172 173
f 173 141 140
f 141 173 174
f 174 142 141
f 142 174 175
f 175 143 142
f 143 175 176
f 176 144 143
f 144 176 177
f 177 145 144
f 145 177 178
f 178 146 145
f 146 178 179
f 179 147 146
f 147 179 180
f 180 114 147
f 114 180 148
f 148 181 182
f 182 149 148
f 149 182 183
f 183 150 149
f 150 183 184
f 184 151 150
f 151 184 185
f 185 152 151
f 152 185 186
f 186 153 152
f 153 186 187
f 187 154 153
f 154 187 188
f 188 155 154
f 155 188 189
f 189 156 155
f 156 189 190
f 190 157 156
f 157 190 191
f 157 191 192
f 192 158 157
f 158 192 193
f 193 159 158
f 159 193 194
f 194 160 159
f 160 194 195
f 195 161 160
f 161 195 196
f 196 162 161
f 162 196 197
f 197 163 162
f 163 197 198
f 658 199 163
f 165 730 200
f 200 166 165
f 166 200 201
f 201 167 166
f 167 201 202
f 202 168 167
f 168 202 203
f 203 169 168
f 169 203 204
f 204 170 169
f 170 204 205
f 205 171 170
f 171 205 206
f 206 172 171
f 172 206 207
f 172 207 208
f 208 173 172
f 173 208 209
f 209 174 173
f 174 209 210
f 210 175 174
f 175 210 211
f 211 176 175
f 176 211 212
f 212 177 176
f 177 212 213
f 213 178 177
f 178 213 214
f 214 179 178
f 179 214 215
f 215 180 179
f 180 215 216
f 216 148 180
f 148 216 181
f 181 217 218
f 218 182 181
f 182 218 219
f 219 183 182
f 183 219 220
f 220 184 183
f 184 220 221
f 221 185 184
f 185 221 222
f 222 186 185
f 186 222 223
f 223 187 186
f 187 223 224
f 224 188 187
f 188 224 225
f 225 189 188
f 189 225 226
f 226 190 189
f 190 226 227
f 227 191 190
f 191 227 228
f 191 228 229
f 229 192 191
f 192 229 230
f 230 193 192
f 193 230 231
f 231 194 193
f 194 231 232
f 232 195 194
f 195 232 233
f 233 196 195
f 196 233 234
f 234 197 196
f 197 234 235
f 235 198 197
f 198 235 236
f 237 967 198
f 238 730 968
f 200 238 239
f 239 201 200
f 201 239 240
f 240 202 201
f 202 240 241
f 241 203 202
f 203 241 242
f 242 204 203
f 204 242 243
f 243 205 204
f 205 243 244
f 244 206 205
f 206 244 245
f 245 207 206
f 207 245 246
f 207 246 247
f 247 208 207
f 208 247 248
f 248 209 208
f 209 248 249
f 249 210 209
f 210 249 250
f 250 211 210
f 211 250 251
f 251 212 211
f 212 251 252
f 252 213 212
f 213 252 253
f 253 214 213
f 214 253 254
f 254 215 214
f 215 254 255
f 255 216 215
f 216 255 256
f 256 181 216
f 181 256 217
f 257 218 217
f 258 218 257
f 258 219 218
f 259 219 258
f 259 220 219
f 260 220 259
f 260 221 220
f 261 221 260
f 261 222 221
f 262 222 261
f 262 223 222
f 263 223 262
f 263 224 223
f 264 224 263
f 264 225 224
f 265 225 264
f 265 226 225
f 266 226 265
f 266 227 226
f 267 227 266
f 267 228 227
f 267 229 228
f 268 229 267
f 268 230 229
f 269 230 268
f 269 231 230
f 270 231 269
f 270 232 231
f 271 232 270
f 271 233 232
f 272 233 271
f 272 234 233
f 273 234 272
f 273 235 234
f 274 235 273
f 274 236 235
f 238 275 977
f 276 239 238
f 277 239 276
f 277 240 239
f 278 240 277
f 278 241 240
f 279 241 278
f 279 242 241
f 280 242 279
f 280 243 242
f 281 243 280
f 281 244 243
f 282 244 281
f 282 245 244
f 283 245 282
f 283 246 245
f 283 247 246
f 284 247 283
f 284 248 247
f 285 248 284
f 285 249 248
f 286 249 285
f 286 250 249
f 287 250 286
f 287 251 250
f 288 251 287
f 288 252 251
f 289 252 288
f 289 253 252
f 290 253 289
f 290 254 253
f 291 254 290
f 291 255 254
f 292 255 291
f 292 256 255
f 257 256 292
f 257 217 256
f 293 258 257
f 294 258 293
f 294 259 258
f 295 259 294
f 295 260 259
f 296 260 295
f 296 261 260
f 297 261 296
f 297 262 261
f 298 262 297
f 298 263 262
f 299 263 298
f 299 264 263
f 300 264 299
f 300 265 264
f 301 265 300
f 301 266 265
f 302 266 301
f 302 267 266
f 302 268 267
f 303 268 302
f 303 269 268
f 304 269 303
f 304 270 269
f 305 270 304
f 305 271 270
f 306 271 305
f 306 272 271
f 307 272 306
f 307 273 272
f 308 273 307
f 308 274 273
f 309 310 311
f 276 977 312
f 313 276 309
f 313 277 276
f 314 277 313
f 314 278 277
f 315 278 314
f 315 279 278
f 316 279 315
f 316 280 279
f 317 280 316
f 317 281 280
f 318 281 317
f 318 282 281
f 319 282 318
f 319 283 282
f 319 284 283
f 320 284 319
f 320 285 284
f 321 285 320
f 321 286 285
f 322 286 321
f 322 287 286
f 323 287 322
f 323 288 287
f 324 288 323
f 324 289 288
f 325 289 324
f 325 290 289
f 326 290 325
f 326 291 290
f 327 291 326
f 327 292 291
f 293 292 327
f 293 257 292
f 328 294 293
f 329 294 328
f 329 295 294
f 330 295 329
f 330 296 295
f 331 296 330
f 331 297 296
f 332 297 331
f 332 298 297
f 333 298 332
f 333 299 298
f 334 299 333
f 334 300 299
f 335 300 334
f 335 301 300
f 336 301 335
f 336 302 301
f 336 303 302
f 337 303 336
f 337 304 303
f 338 304 337
f 338 305 304
f 339 305 338
f 339 306 305
f 340 306 339
f 340 307 306
f 341 307 340
f 341 308 307
f 342 308 341
f 342 343 308
f 344 345 346
f 345 313 309
f 347 313 345
f 347 314 313
f 348 314 347
f 348 315 314
f 349 315 348
f 349 316 315
f 350 316 349
f 350 317 316
f 351 317 350
f 351 318 317
f 352 318 351
f 352 319 318
f 352 320 319
f 353 320 352
f 353 321 320
f 354 321 353
f 354 322 321
f 355 322 354
f 355 323 322
f 356 323 355
f 356 324 323
f 357 324 356
f 357 325 324
f 358 325 357
f 358 326 325
f 359 326 358
f 359 327 326
f 328 327 359
f 328 293 327
f 360 329 328
f 361 329 360
f 361 330 329
f 362 330 361
f 362 331 330
f 363 331 362
f 363 332 331
f 364 332 363
f 364 333 332
f 365 333 364
f 365 334 333
f 366 334 365
f 366 335 334
f 367 335 366
f 367 336 335
f 367 337 336
f 368 337 367
f 368 338 337
f 369 338 368
f 369 339 338
f 370 339 369
f 370 340 339
f 371 340 370
f 371 341 340
f 372 341 371
f 372 342 341
f 373 342 372
f 797 799 342
f 374 375 952
f 345 828 971
f 376 345 374
f 376 347 345
f 377 347 376
f 377 348 347
f 378 348 377
f 378 349 348
f 379 349 378
f 379 350 349
f 380 350 379
f 380 351 350
f 381 351 380
f 381 352 351
f 381 353 352
f 382 353 381
f 382 354 353
f 383 354 382
f 383 355 354
f 384 355 383
f 384 356 355
f 385 356 384
f 385 357 356
f 386 357 385
f 386 358 357
f 387 358 386
f 387 359 358
f 360 359 387
f 360 328 359
f 388 361 360
f 389 361 388
f 389 362 361
f 390 362 389
f 390 363 362
f 391 363 390
f 391 364 363
f 392 364 391
f 392 365 364
f 393 365 392
f 393 366 365
f 394 366 393
f 394 367 366
f 394 368 367
f 395 368 394
f 395 369 368
f 396 369 395
f 396 370 369
f 397 370 396
f 397 371 370
f 398 371 397
f 398 372 371
f 399 372 398
f 399 373 372
f 400 373 399
f 400 401 402
f 374 857 403
f 404 374 400
f 404 376 374
f 405 376 404
f 405 377 376
f 406 377 405
f 406 378 377
f 407 378 406
f 407 379 378
f 408 379 407
f 408 380 379
f 409 380 408
f 409 381 380
f 409 382 381
f 410 382 409
f 410 383 382
f 411 383 410
f 411 384 383
f 412 384 411
f 412 385 384
f 413 385 412
f 413 386 385
f 414 386 413
f 414 387 386
f 388 387 414
f 388 360 387
f 415 389 388
f 416 389 415
f 416 390 389
f 417 390 416
f 417 391 390
f 418 391 417
f 418 392 391
f 419 392 418
f 419 393 392
f 420 393 419
f 420 394 393
f 420 395 394
f 421 395 420
f 421 396 395
f 422 396 421
f 422 397 396
f 423 397 422
f 423 398 397
f 424 398 423
f 424 399 398
f 425 399 424
f 425 400 399
f 425 404 400
f 426 404 425
f 426 405 404
f 427 405 426
f 427 406 405
f 428 406 427
f 428 407 406
f 429 407 428
f 429 408 407
f 430 408 429
f 430 409 408
f 430 410 409
f 431 410 430
f 431 411 410
f 432 411 431
f 432 412 411
f 433 412 432
f 433 413 412
f 434 413 433
f 434 414 413
f 415 414 434
f 415 388 414
f 435 416 415
f 436 416 435
f 436 417 416
f 437 417 436
f 437 418 417
f 438 418 437
f 438 419 418
f 439 419 438
f 439 420 419
f 439 421 420
f 440 421 439
f 440 422 421
f 441 422 440
f 441 423 422
f 442 423 441
f 442 424 423
f 443 424 442
f 443 425 424
f 443 426 425
f 444 426 443
f 444 427 426
f 445 427 444
f 445 428 427
f 446 428 445
f 446 429 428
f 447 429 446
f 447 430 429
f 447 431 430
f 448 431 447
f 448 432 431
f 449 432 448
f 449 433 432
f 450 433 449
f 450 434 433
f 435 434 450
f 435 415 434
f 451 436 435
f 452 436 451
f 452 437 436
f 453 437 452
f 453 438 437
f 454 438 453
f 454 439 438
f 454 440 439
f 455 440 454
f 455 441 440
f 456 441 455
f 456 442 441
f 457 442 456
f 457 443 442
f 457 444 443
f 458 444 457
f 458 445 444
f 459 445 458
f 459 446 445
f 460 446 459
f 460 447 446
f 460 448 447
f 461 448 460
f 461 449 448
f 462 449 461
f 462 450 449
f 451 450 462
f 451 435 450
f 463 452 451
f 464 452 463
f 464 453 452
f 465 453 464
f 465 454 453
f 465 455 454
f 466 455 465
f 466 456 455
f 467 456 466
f 467 457 456
f 467 458 457
f 468 458 467
f 468 459 458
f 469 459 468
f 469 460 459
f 469 461 460
f 470 461 469
f 470 462 461
f 463 462 470
f 463 451 462
f 471 464 463
f 472 464 471
f 472 465 464
f 472 466 465
f 473 466 472
f 473 467 466
f 473 468 467
f 474 468 473
f 474 469 468
f 474 470 469
f 471 470 474
f 471 463 470
f 475 472 471
f 475 473 472
f 475 474 473
f 475 471 474
f 476 477 478
f 476 478 479
f 476 479 480
f 476 480 477
f 477 481 482
f 482 478 477
f 478 482 483
f 478 483 484
f 484 479 478
f 479 484 485
f 479 485 486
f 486 480 479
f 480 486 487
f 480 487 488
f 488 477 480
f 477 488 481
f 481 489 490
f 490 482 481
f 482 490 491
f 491 483 482
f 483 491 492
f 483 492 493
f 493 484 483
f 484 493 494
f 494 485 484
f 485 494 495
f 485 495 496
f 496 486 485
f 486 496 497
f 497 487 486
f 487 497 498
f 487 498 499
f 499 488 487
f 488 499 500
f 500 481 488
f 481 500 489
f 489 501 502
f 502 490 489
f 490 502 503
f 503 491 490
f 491 503 504
f 504 492 491
f 492 504 505
f 492 505 506
f 506 493 492
f 493 506 507
f 507 494 493
f 494 507 508
f 508 495 494
f 495 508 509
f 495 509 510
f 510 496 495
f 496 510 511
f 511 497 496
f 497 511 512
f 512 498 497
f 498 512 513
f 498 513 514
f 514 499 498
f 499 514 515
f 515 500 499
f 500 515 516
f 516 489 500
f 489 516 501
f 501 517 518
f 518 502 501
f 502 518 519
f 519 503 502
f 503 519 520
f 520 504 503
f 504 520 521
f 521 505 504
f 505 521 522
f 505 522 523
f 523 506 505
f 506 523 524
f 524 507 506
f 507 524 525
f 525 508 507
f 508 525 526
f 526 509 508
f 509 526 527
f 509 527 528
f 528 510 509
f 510 528 529
f 529 511 510
f 511 529 530
f 530 512 511
f 512 530 531
f 531 513 512
f 513 531 532
f 513 532 533
f 533 514 513
f 514 533 534
f 534 515 514
f 515 534 535
f 535 516 515
f 516 535 536
f 536 501 516
f 501 536 517
f 517 537 538
f 538 518 517
f 518 538 539
f 539 519 518
f 519 539 540
f 540 520 519
f 520 540 541
f 541 521 520
f 521 541 542
f 542 522 521
f 522 542 543
f 522 543 544
f 544 523 522
f 523 544 545
f 545 524 523
f 524 545 546
f 546 525 524
f 525 546 547
f 547 526 525
f 526 547 548
f 548 527 526
f 527 548 549
f 527 549 550
f 550 528 527
f 528 550 551
f 551 529 528
f 529 551 552
f 552 530 529
f 530 552 553
f 553 531 530
f 531 553 554
f 554 532 531
f 532 554 555
f 532 555 556
f 556 533 532
f 533 556 557
f 557 534 533
f 534 557 558
f 558 535 534
f 535 558 559
f 559 536 535
f 536 559 560
f 560 517 536
f 517 560 537
f 537 561 562
f 562 538 537
f 538 562 563
f 563 539 538
f 539 563 564
f 564 540 539
f 540 564 565
f 565 541 540
f 541 565 566
f 566 542 541
f 542 566 567
f 567 543 542
f 543 567 568
f 543 568 569
f 569 544 543
f 544 569 570
f 570 545 544
f 545 570 571
f 571 546 545
f 546 571 572
f 572 547 546
f 547 572 573
f 573 548 547
f 548 573 574
f 574 549 548
f 549 574 575
f 549 575 576
f 576 550 549
f 550 576 577
f 577 551 550
f 551 577 578
f 578 552 551
f 552 578 579
f 579 553 552
f 553 579 580
f 580 554 553
f 554 580 581
f 581 555 554
f 555 581 582
f 555 582 583
f 583 556 555
f 556 583 584
f 584 557 556
f 557 584 585
f 585 558 557
f 558 585 586
f 586 559 558
f 559 586 587
f 587 560 559
f 560 587 588
f 588 537 560
f 537 588 561
f 561 589 590
f 590 562 561
f 562 590 591
f 591 563 562
f 563 591 592
f 592 564 563
f 564 592 593
f 593 565 564
f 565 593 594
f 594 566 565
f 566 594 595
f 595 567 566
f 567 595 596
f 596 568 567
f 568 596 597
f 568 597 598
f 598 569 568
f 569 598 599
f 599 570 569
f 570 599 600
f 600 571 570
f 571 600 601
f 601 572 571
f 572 601 602
f 602 573 572
f 573 602 603
f 603 574 573
f 574 603 604
f 604 575 574
f 575 604 605
f 575 605 606
f 606 576 575
f 576 606 607
f 607 577 576
f 577 607 608
f 608 578 577
f 578 608 609
f 609 579 578
f 579 609 610
f 610 580 579
f 580 610 611
f 611 581 580
f 581 611 612
f 612 582 581
f 582 612 613
f 582 613 614
f 614 583 582
f 583 614 615
f 615 584 583
f 584 615 616
f 616 585 584
f 585 616 617
f 617 586 585
f 586 617 618
f 618 587 586
f 587 618 619
f 619 588 587
f 588 619 620
f 620 561 588
f 561 620 589
f 130 621 589
f 622 590 589
f 590 622 623
f 623 591 590
f 591 623 624
f 624 592 591
f 592 624 625
f 625 593 592
f 593 625 626
f 626 594 593
f 594 626 627
f 627 595 594
f 595 627 628
f 628 596 595
f 596 628 629
f 629 597 596
f 597 629 630
f 597 630 631
f 631 598 597
f 598 631 632
f 632 599 598
f 599 632 633
f 633 600 599
f 600 633 634
f 634 601 600
f 601 634 635
f 635 602 601
f 602 635 636
f 636 603 602
f 603 636 637
f 637 604 603
f 604 637 638
f 638 605 604
f 605 638 639
f 605 639 640
f 640 606 605
f 606 640 641
f 641 607 606
f 607 641 642
f 642 608 607
f 608 642 643
f 643 609 608
f 609 643 644
f 644 610 609
f 610 644 645
f 645 611 610
f 611 645 646
f 646 612 611
f 612 646 647
f 647 613 612
f 613 647 648
f 613 648 649
f 649 614 613
f 614 649 650
f 650 615 614
f 615 650 651
f 651 616 615
f 616 651 652
f 652 617 616
f 617 652 653
f 653 618 617
f 618 653 654
f 654 619 618
f 619 654 655
f 655 620 619
f 620 656 957
f 589 132 131
f 622 657 973
f 623 946 945
f 658 978 624
f 659 625 624
f 625 659 660
f 660 626 625
f 626 660 661
f 661 627 626
f 627 661 662
f 662 628 627
f 628 662 663
f 663 629 628
f 629 663 664
f 664 630 629
f 630 664 665
f 630 665 666
f 666 631 630
f 631 666 667
f 667 632 631
f 632 667 668
f 668 633 632
f 633 668 669
f 669 634 633
f 634 669 670
f 670 635 634
f 635 670 671
f 671 636 635
f 636 671 672
f 672 637 636
f 637 672 673
f 673 638 637
f 638 673 674
f 674 639 638
f 639 674 675
f 639 675 676
f 676 640 639
f 640 676 677
f 677 641 640
f 641 677 678
f 678 642 641
f 642 678 679
f 679 643 642
f 643 679 680
f 680 644 643
f 644 680 681
f 681 645 644
f 645 681 682
f 682 646 645
f 646 682 683
f 683 647 646
f 647 683 684
f 684 648 647
f 648 684 685
f 648 685 686
f 686 649 648
f 649 686 687
f 687 650 649
f 650 687 688
f 688 651 650
f 651 688 689
f 689 652 651
f 652 689 690
f 690 653 652
f 653 690 691
f 691 654 653
f 654 691 692
f 692 655 654
f 693 164 655
f 237 962 694
f 694 660 659
f 660 694 695
f 695 661 660
f 661 695 696
f 696 662 661
f 662 696 697
f 697 663 662
f 663 697 698
f 698 664 663
f 664 698 699
f 699 665 664
f 665 699 700
f 665 700 701
f 701 666 665
f 666 701 702
f 702 667 666
f 667 702 703
f 703 668 667
f 668 703 704
f 704 669 668
f 669 704 705
f 705 670 669
f 670 705 706
f 706 671 670
f 671 706 707
f 707 672 671
f 672 707 708
f 708 673 672
f 673 708 709
f 709 674 673
f 674 709 710
f 710 675 674
f 675 710 711
f 675 711 712
f 712 676 675
f 676 712 713
f 713 677 676
f 677 713 714
f 714 678 677
f 678 714 715
f 715 679 678
f 679 715 716
f 716 680 679
f 680 716 717
f 717 681 680
f 681 717 718
f 718 682 681
f 682 718 719
f 719 683 682
f 683 719 720
f 720 684 683
f 684 720 721
f 721 685 684
f 685 721 722
f 685 722 723
f 723 686 685
f 686 723 724
f 724 687 686
f 687 724 725
f 725 688 687
f 688 725 726
f 726 689 688
f 689 726 727
f 727 690 689
f 690 727 728
f 728 691 690
f 691 728 729
f 729 692 691
f 730 949 692
f 731 972 732
f 732 695 694
f 733 695 732
f 733 696 695
f 734 696 733
f 734 697 696
f 735 697 734
f 735 698 697
f 736 698 735
f 736 699 698
f 737 699 736
f 737 700 699
f 737 701 700
f 738 701 737
f 738 702 701
f 739 702 738
f 739 703 702
f 740 703 739
f 740 704 703
f 741 704 740
f 741 705 704
f 742 705 741
f 742 706 705
f 743 706 742
f 743 707 706
f 744 707 743
f 744 708 707
f 745 708 744
f 745 709 708
f 746 709 745
f 746 710 709
f 747 710 746
f 747 711 710
f 747 712 711
f 748 712 747
f 748 713 712
f 749 713 748
f 749 714 713
f 750 714 749
f 750 715 714
f 751 715 750
f 751 716 715
f 752 716 751
f 752 717 716
f 753 717 752
f 753 718 717
f 754 718 753
f 754 719 718
f 755 719 754
f 755 720 719
f 756 720 755
f 756 721 720
f 757 721 756
f 757 722 721
f 757 723 722
f 758 723 757
f 758 724 723
f 759 724 758
f 759 725 724
f 760 725 759
f 760 726 725
f 761 726 760
f 761 727 726
f 762 727 761
f 762 728 727
f 763 728 762
f 763 729 728
f 764 343 964
f 732 972 944
f 765 732 764
f 765 733 732
f 766 733 765
f 766 734 733
f 767 734 766
f 767 735 734
f 768 735 767
f 768 736 735
f 769 736 768
f 769 737 736
f 769 738 737
f 770 738 769
f 770 739 738
f 771 739 770
f 771 740 739
f 772 740 771
f 772 741 740
f 773 741 772
f 773 742 741
f 774 742 773
f 774 743 742
f 775 743 774
f 775 744 743
f 776 744 775
f 776 745 744
f 777 745 776
f 777 746 745
f 778 746 777
f 778 747 746
f 778 748 747
f 779 748 778
f 779 749 748
f 780 749 779
f 780 750 749
f 781 750 780
f 781 751 750
f 782 751 781
f 782 752 751
f 783 752 782
f 783 753 752
f 784 753 783
f 784 754 753
f 785 754 784
f 785 755 754
f 786 755 785
f 786 756 755
f 787 756 786
f 787 757 756
f 787 758 757
f 788 758 787
f 788 759 758
f 789 759 788
f 789 760 759
f 790 760 789
f 790 761 760
f 791 761 790
f 791 762 761
f 792 762 791
f 792 763 762
f 793 763 792
f 793 312 763
f 794 401 795
f 794 402 401
f 796 959 794
f 796 797 798
f 799 797 800
f 800 951 950
f 801 764 800
f 801 765 764
f 802 765 801
f 802 766 765
f 803 766 802
f 803 767 766
f 804 767 803
f 804 768 767
f 805 768 804
f 805 769 768
f 805 770 769
f 806 770 805
f 806 771 770
f 807 771 806
f 807 772 771
f 808 772 807
f 808 773 772
f 809 773 808
f 809 774 773
f 810 774 809
f 810 775 774
f 811 775 810
f 811 776 775
f 812 776 811
f 812 777 776
f 813 777 812
f 813 778 777
f 813 779 778
f 814 779 813
f 814 780 779
f 815 780 814
f 815 781 780
f 816 781 815
f 816 782 781
f 817 782 816
f 817 783 782
f 818 783 817
f 818 784 783
f 819 784 818
f 819 785 784
f 820 785 819
f 820 786 785
f 821 786 820
f 821 787 786
f 821 788 787
f 822 788 821
f 822 789 788
f 823 789 822
f 823 790 789
f 824 790 823
f 824 791 790
f 825 791 824
f 825 792 791
f 826 792 825
f 826 793 792
f 827 793 826
f 828 344 827
f 794 965 829
f 830 794 829
f 830 796 794
f 831 796 830
f 831 800 796
f 832 800 831
f 832 801 800
f 833 801 832
f 833 802 801
f 834 802 833
f 834 803 802
f 835 803 834
f 835 804 803
f 836 804 835
f 836 805 804
f 836 806 805
f 837 806 836
f 837 807 806
f 838 807 837
f 838 808 807
f 839 808 838
f 839 809 808
f 840 809 839
f 840 810 809
f 841 810 840
f 841 811 810
f 842 811 841
f 842 812 811
f 843 812 842
f 843 813 812
f 843 814 813
f 844 814 843
f 844 815 814
f 845 815 844
f 845 816 815
f 846 816 845
f 846 817 816
f 847 817 846
f 847 818 817
f 848 818 847
f 848 819 818
f 849 819 848
f 849 820 819
f 850 820 849
f 850 821 820
f 850 822 821
f 851 822 850
f 851 823 822
f 852 823 851
f 852 824 823
f 853 824 852
f 853 825 824
f 854 825 853
f 854 826 825
f 855 826 854
f 855 827 826
f 856 827 855
f 856 857 827
f 966 856 829
f 829 965 966
f 858 830 829
f 859 830 858
f 859 831 830
f 860 831 859
f 860 832 831
f 861 832 860
f 861 833 832
f 862 833 861
f 862 834 833
f 863 834 862
f 863 835 834
f 864 835 863
f 864 836 835
f 864 837 836
f 865 837 864
f 865 838 837
f 866 838 865
f 866 839 838
f 867 839 866
f 867 840 839
f 868 840 867
f 868 841 840
f 869 841 868
f 869 842 841
f 870 842 869
f 870 843 842
f 870 844 843
f 871 844 870
f 871 845 844
f 872 845 871
f 872 846 845
f 873 846 872
f 873 847 846
f 874 847 873
f 874 848 847
f 875 848 874
f 875 849 848
f 876 849 875
f 876 850 849
f 876 851 850
f 877 851 876
f 877 852 851
f 878 852 877
f 878 853 852
f 879 853 878
f 879 854 853
f 880 854 879
f 880 855 854
f 881 855 880
f 881 856 855
f 858 856 881
f 858 829 856
f 882 859 858
f 883 859 882
f 883 860 859
f 884 860 883
f 884 861 860
f 885 861 884
f 885 862 861
f 886 862 885
f 886 863 862
f 887 863 886
f 887 864 863
f 887 865 864
f 888 865 887
f 888 866 865
f 889 866 888
f 889 867 866
f 890 867 889
f 890 868 867
f 891 868 890
f 891 869 868
f 892 869 891
f 892 870 869
f 892 871 870
f 893 871 892
f 893 872 871
f 894 872 893
f 894 873 872
f 895 873 894
f 895 874 873
f 896 874 895
f 896 875 874
f 897 875 896
f 897 876 875
f 897 877 876
f 898 877 897
f 898 878 877
f 899 878 898
f 899 879 878
f 900 879 899
f 900 880 879
f 901 880 900
f 901 881 880
f 882 881 901
f 882 858 881
f 902 883 882
f 903 883 902
f 903 884 883
f 904 884 903
f 904 885 884
f 905 885 904
f 905 886 885
f 906 886 905
f 906 887 886
f 906 888 887
f 907 888 906
f 907 889 888
f 908 889 907
f 908 890 889
f 909 890 908
f 909 891 890
f 910 891 909
f 910 892 891
f 910 893 892
f 911 893 910
f 911 894 893
f 912 894 911
f 912 895 894
f 913 895 912
f 913 896 895
f 914 896 913
f 914 897 896
f 914 898 897
f 915 898 914
f 915 899 898
f 916 899 915
f 916 900 899
f 917 900 916
f 917 901 900
f 902 901 917
f 902 882 901
f 918 903 902
f 919 903 918
f 919 904 903
f 920 904 919
f 920 905 904
f 921 905 920
f 921 906 905
f 921 907 906
f 922 907 921
f 922 908 907
f 923 908 922
f 923 909 908
f 924 909 923
f 924 910 909
f 924 911 910
f 925 911 924
f 925 912 911
f 926 912 925
f 926 913 912
f 927 913 926
f 927 914 913
f 927 915 914
f 928 915 927
f 928 916 915
f 929 916 928
f 929 917 916
f 918 917 929
f 918 902 917
f 930 919 918
f 931 919 930
f 931 920 919
f 932 920 931
f 932 921 920
f 932 922 921
f 933 922 932
f 933 923 922
f 934 923 933
f 934 924 923
f 934 925 924
f 935 925 934
f 935 926 925
f 936 926 935
f 936 927 926
f 936 928 927
f 937 928 936
f 937 929 928
f 930 929 937
f 930 918 929
f 938 931 930
f 939 931 938
f 939 932 931
f 939 933 932
f 940 933 939
f 940 934 933
f 940 935 934
f 941 935 940
f 941 936 935
f 941 937 936
f 938 937 941
f 938 930 937
f 942 939 938
f 942 940 939
f 942 941 940
f 942 938 941
f 943 620 957
f 944 731 274
f 945 946 128
f 962 947 694
f 99 657 621
f 948 974 692
f 948 949 165
f 950 951 342
f 952 375 827
f 944 274 308
f 953 659 978
f 275 954 729
f 311 346 309
f 955 956 624
f 957 656 101
f 621 657 622
f 133 958 655
f 623 622 129
f 947 236 274
f 968 954 238
f 275 729 763
f 959 960 373
f 961 962 236
f 311 310 793
f 962 237 236
f 954 975 238
f 693 963 165
f 953 658 198
f 99 128 976
f 101 958 133
f 128 163 956
f 693 165 134
f 134 133 164
f 163 198 658
f 199 956 163
f 165 949 730
f 198 236 237
f 967 953 198
f 238 200 730
f 977 276 238
f 238 975 275
f 310 309 970
f 309 276 312
f 970 309 312
f 342 964 343
f 828 345 344
f 345 309 346
f 342 373 798
f 373 960 798
f 798 797 342
f 375 374 971
f 374 345 971
f 400 965 795
f 400 795 401
f 959 373 402
f 373 400 402
f 965 400 966
f 400 374 403
f 374 952 857
f 403 966 400
f 622 589 621
f 589 131 130
f 620 655 656
f 589 943 132
f 659 624 978
f 624 199 658
f 655 692 963
f 692 974 963
f 963 693 655
f 694 659 237
f 659 967 237
f 729 954 968
f 729 968 730
f 949 948 692
f 729 730 692
f 732 694 731
f 694 947 731
f 764 969 343
f 964 951 764
f 969 764 944
f 764 732 944
f 793 970 312
f 796 798 960
f 959 402 794
f 796 960 959
f 796 800 797
f 800 950 799
f 800 764 951
f 793 827 344
f 827 971 828
f 794 795 965
f 856 403 857
f 966 403 856
f 943 589 620
f 944 972 731
f 128 955 945
f 946 976 128
f 962 961 947
f 99 129 973
f 99 973 657
f 130 100 621
f 100 99 621
f 165 963 974
f 974 948 165
f 342 799 950
f 951 964 342
f 827 857 952
f 375 971 827
f 308 343 969
f 969 944 308
f 953 967 659
f 275 975 954
f 623 945 624
f 945 955 624
f 956 199 624
f 100 132 101
f 132 943 101
f 943 957 101
f 656 958 101
f 655 164 133
f 958 656 655
f 622 973 129
f 129 976 623
f 976 946 623
f 274 731 947
f 947 961 236
f 763 312 977
f 977 275 763
f 793 344 346
f 793 346 311
f 310 970 793
f 953 978 658
