o rock2
v -0.381048 -0.910018 -0.403196
v -0.377268 0.804461 -0.380570
v -0.340218 -0.854570 0.356128
v -0.321735 0.734078 0.330941
v 0.269049 -0.767660 -0.256601
v 0.376354 0.816450 -0.373831
v 0.346927 -0.833691 0.340338
v 0.371790 0.842325 0.368893
v -0.336106 -0.526777 0.352204
v -0.352414 -0.050332 0.364710
v -0.345538 0.422754 0.359146
v -0.430137 -0.560963 -0.444268
v -0.432130 -0.044121 -0.438690
v -0.348225 0.452794 -0.356433
v -0.464892 -1.044520 -0.227381
v -0.404731 -1.046474 -0.004969
v -0.375961 -0.983663 0.192271
v -0.423538 0.888171 -0.201773
v -0.478286 0.925560 0.011999
v -0.426123 0.854752 0.218537
v -0.193792 -0.979595 -0.445129
v 0.003870 -0.973793 -0.422365
v 0.168209 -0.879819 -0.324194
v -0.204073 0.903878 -0.441178
v 0.013409 0.958706 -0.495694
v 0.218076 0.914575 -0.445713
v 0.306946 -0.875837 -0.147318
v 0.381796 -0.949387 0.001967
v 0.369620 -0.922702 0.190733
v 0.420851 -0.507746 0.413589
v 0.376392 -0.006856 0.373695
v 0.387931 0.489578 0.384673
v 0.442521 0.938464 -0.215615
v 0.484351 1.009050 -0.000063
v 0.464123 0.972865 0.222944
v -0.186743 -0.942854 0.400938
v 0.013854 -0.981377 0.448355
v 0.211960 -0.946558 0.428013
v 0.318680 -0.467213 -0.307668
v 0.421373 -0.008282 -0.413791
v 0.367107 0.478769 -0.356777
v -0.202811 0.855057 0.424034
v -0.005188 0.947936 0.510264
v 0.216294 0.931864 0.461878
v -0.504023 -0.591188 -0.218733
v -0.449545 -0.603638 -0.010003
v -0.407001 -0.565408 0.177960
v -0.524572 -0.050964 -0.226675
v -0.503618 -0.057115 -0.006231
v -0.426290 -0.060327 0.181428
v -0.475592 0.473011 -0.204806
v -0.518641 0.478585 0.001475
v -0.447549 0.449638 0.193417
v -0.217284 -0.557531 -0.568659
v -0.216312 -0.032360 -0.540766
v -0.191173 0.471671 -0.440557
v 0.007804 -0.541179 -0.537494
v 0.011689 -0.024546 -0.560684
v 0.010349 0.497996 -0.473425
v 0.190308 -0.497479 -0.429541
v 0.233192 -0.015415 -0.542361
v 0.204165 0.489797 -0.464086
v -0.227283 -1.242822 -0.253851
v 0.022063 -1.254373 -0.252904
v 0.230775 -1.151690 -0.224567
v -0.205134 -1.263458 -0.004567
v 0.018756 -1.347461 -0.000997
v 0.304115 -1.289717 -0.007137
v -0.169544 -1.146285 0.171461
v 0.017895 -1.243345 0.233314
v 0.272264 -1.212416 0.260446
v 0.431426 0.522275 0.197685
v 0.434301 0.001702 0.196435
v 0.461801 -0.514075 0.206105
v 0.470252 0.537043 0.000431
v 0.478991 0.002192 0.005258
v 0.460590 -0.517184 0.000478
v 0.478223 0.514019 -0.195908
v 0.487281 -0.001018 -0.202326
v 0.437994 -0.495271 -0.174277
v 0.223475 0.498786 0.523096
v 0.006518 0.492682 0.564042
v -0.191454 0.451776 0.491911
v 0.220809 -0.018934 0.509191
v 0.007522 -0.028490 0.581424
v -0.201108 -0.038015 0.513759
v 0.234949 -0.537744 0.563253
v 0.007437 -0.557369 0.610147
v -0.192775 -0.537969 0.506677
v 0.256017 1.206484 0.276679
v 0.261036 1.259604 0.001711
v 0.231841 1.153369 -0.236427
v -0.001724 1.215350 0.262489
v -0.002257 1.343944 0.004007
v 0.004607 1.256325 -0.287188
v -0.216649 1.083743 0.225378
v -0.260722 1.205501 0.009659
v -0.233260 1.138925 -0.236785
v -0.361659 -0.810924 0.380270
v -0.356225 -0.733272 0.373009
v -0.340297 -0.635497 0.357387
v -0.356080 -0.413027 0.365039
v -0.348394 -0.289523 0.366289
v -0.383862 -0.171524 0.396311
v -0.343306 0.075069 0.352611
v -0.328611 0.194677 0.342501
v -0.345912 0.310604 0.357704
v -0.341456 0.518434 0.349266
v -0.336041 0.606226 0.343164
v -0.332035 0.682564 0.341466
v -0.420029 -0.865687 -0.444620
v -0.431758 -0.771695 -0.450443
v -0.435958 -0.672968 -0.451932
v -0.414941 -0.436604 -0.426453
v -0.419330 -0.306537 -0.429189
v -0.422831 -0.173969 -0.431143
v -0.404705 0.088737 -0.411886
v -0.363868 0.212897 -0.368525
v -0.359369 0.338369 -0.375666
v -0.357359 0.563212 -0.363794
v -0.377594 0.662436 -0.383828
v -0.381473 0.750713 -0.385621
v -0.401183 -0.944869 -0.366811
v -0.436018 -0.989173 -0.331397
v -0.455776 -1.019984 -0.282698
v -0.438548 -1.044359 -0.167861
v -0.432960 -1.053333 -0.111307
v -0.430392 -1.060568 -0.053854
v -0.404058 -1.045646 0.050547
v -0.375602 -1.016065 0.088541
v -0.371602 -0.998900 0.140181
v -0.360976 -0.947172 0.232784
v -0.355372 -0.916815 0.279192
v -0.347334 -0.883558 0.321815
v -0.390811 0.826084 -0.345545
v -0.424436 0.861974 -0.310684
v -0.405662 0.865521 -0.247601
v -0.434857 0.902889 -0.151686
v -0.448212 0.914663 -0.098604
v -0.453720 0.917074 -0.042575
v -0.481196 0.918580 0.069996
v -0.470855 0.904665 0.122826
v -0.442835 0.880449 0.167743
v -0.408635 0.825760 0.264713
v -0.352900 0.789041 0.272627
v -0.334744 0.758320 0.305752
v -0.353113 -0.948022 -0.444463
v -0.293123 -0.951380 -0.428221
v -0.253359 -0.977064 -0.456445
v -0.142612 -0.991489 -0.459976
v -0.092414 -1.000704 -0.478758
v -0.034424 -0.994330 -0.471337
v 0.070280 -0.961031 -0.430168
v 0.100555 -0.935066 -0.383943
v 0.137118 -0.908826 -0.354317
v 0.197495 -0.848763 -0.299361
v 0.219233 -0.817213 -0.276420
v 0.234308 -0.786614 -0.256381
v -0.339408 0.828684 -0.398375
v -0.303907 0.863763 -0.427105
v -0.251048 0.879864 -0.427073
v -0.149493 0.917846 -0.445574
v -0.092568 0.929461 -0.451107
v -0.039711 0.946358 -0.472697
v 0.069896 0.962622 -0.510598
v 0.124809 0.952776 -0.497169
v 0.173144 0.935903 -0.472281
v 0.269745 0.893866 -0.435119
v 0.308434 0.866947 -0.409735
v 0.343772 0.838984 -0.385276
v 0.255485 -0.786885 -0.226935
v 0.292346 -0.817965 -0.218419
v 0.289521 -0.847390 -0.179716
v 0.334335 -0.902230 -0.119723
v 0.349825 -0.925209 -0.081785
v 0.369470 -0.943157 -0.043483
v 0.363925 -0.951634 0.049339
v 0.361682 -0.947043 0.097700
v 0.356680 -0.937281 0.144709
v 0.369701 -0.903778 0.235121
v 0.354217 -0.878734 0.273069
v 0.349059 -0.854584 0.307799
v 0.345127 -0.775148 0.341372
v 0.363763 -0.697463 0.358736
v 0.380013 -0.602169 0.376728
v 0.412969 -0.395015 0.406726
v 0.392601 -0.270292 0.387842
v 0.375482 -0.142337 0.372483
v 0.404435 0.126526 0.401576
v 0.420715 0.249246 0.421212
v 0.396816 0.369144 0.397184
v 0.399223 0.598523 0.388594
v 0.380613 0.693556 0.371453
v 0.374243 0.780885 0.368177
v 0.391738 0.847617 -0.343294
v 0.415407 0.883757 -0.309955
v 0.433559 0.913467 -0.266102
v 0.449851 0.961148 -0.163791
v 0.458398 0.980532 -0.110317
v 0.455218 0.987004 -0.050655
v 0.480186 1.004822 0.059080
v 0.504310 1.010537 0.116233
v 0.480043 0.993182 0.169142
v 0.436019 0.944157 0.267545
v 0.437498 0.912905 0.322439
v 0.405870 0.876336 0.354124
v -0.308692 -0.876589 0.367316
v -0.281633 -0.913803 0.394898
v -0.238552 -0.934357 0.403630
v -0.135677 -0.951926 0.403653
v -0.093479 -0.976075 0.431963
v -0.037209 -0.975344 0.433229
v 0.064848 -0.983301 0.459942
v 0.115558 -0.982462 0.466226
v 0.166182 -0.968872 0.451644
v 0.254064 -0.920129 0.405020
v 0.296388 -0.892642 0.387562
v 0.313883 -0.857687 0.351065
v 0.266261 -0.712690 -0.260339
v 0.301397 -0.650379 -0.292433
v 0.301332 -0.564457 -0.293188
v 0.336485 -0.355356 -0.324777
v 0.375539 -0.242989 -0.365376
v 0.410228 -0.124911 -0.402030
v 0.416796 0.117529 -0.406470
v 0.380653 0.236114 -0.371474
v 0.362800 0.358940 -0.353506
v 0.382413 0.587013 -0.372933
v 0.402317 0.680476 -0.396152
v 0.391089 0.760843 -0.387232
v -0.294416 0.758518 0.341459
v -0.266284 0.790936 0.364209
v -0.227262 0.823003 0.381933
v -0.156656 0.881332 0.438515
v -0.106666 0.905897 0.457549
v -0.057251 0.929382 0.485895
v 0.051223 0.957054 0.518905
v 0.106242 0.951273 0.493578
v 0.160103 0.944256 0.476162
v 0.264275 0.913319 0.439378
v 0.298872 0.890964 0.407695
v 0.335327 0.866559 0.382840
v -0.484646 -0.599132 -0.165880
v -0.490620 -0.600474 -0.109557
v -0.459119 -0.606388 -0.061230
v -0.438062 -0.597602 0.039778
v -0.447386 -0.581955 0.090977
v -0.413414 -0.578153 0.133704
v -0.482883 -0.460669 -0.218998
v -0.496681 -0.323545 -0.222002
v -0.547004 -0.189003 -0.228719
v -0.406055 -0.468462 -0.020179
v -0.440488 -0.326783 -0.014938
v -0.506441 -0.193146 -0.006042
v -0.380874 -0.442355 0.169753
v -0.429088 -0.316724 0.180878
v -0.464128 -0.184647 0.195535
v -0.533276 -0.052411 -0.168949
v -0.543064 -0.052730 -0.110247
v -0.525966 -0.054839 -0.056602
v -0.476654 -0.059631 0.038191
v -0.461789 -0.059689 0.089067
v -0.464912 -0.056054 0.142508
v -0.512012 0.085688 -0.220113
v -0.501184 0.218690 -0.216171
v -0.463665 0.347213 -0.201179
v -0.450647 0.075570 -0.013892
v -0.452987 0.213280 -0.011453
v -0.460459 0.352856 -0.010303
v -0.400340 0.071666 0.170986
v -0.407899 0.198624 0.174097
v -0.417859 0.326416 0.180757
v -0.497773 0.477888 -0.156763
v -0.505017 0.482890 -0.102520
v -0.515399 0.484526 -0.051552
v -0.498890 0.474862 0.051451
v -0.478084 0.469323 0.098791
v -0.484662 0.453454 0.153512
v -0.504167 -0.941737 -0.225617
v -0.519150 -0.834647 -0.226496
v -0.528470 -0.714583 -0.222830
v -0.477793 -0.962774 0.001228
v -0.541598 -0.854797 0.004750
v -0.486216 -0.730673 -0.004921
v -0.421153 -0.891552 0.197975
v -0.458676 -0.798609 0.206756
v -0.422744 -0.688327 0.189079
v -0.365896 -0.532775 0.312534
v -0.390079 -0.541635 0.270307
v -0.392667 -0.554116 0.221905
v -0.380612 -0.052167 0.322711
v -0.408801 -0.052511 0.281409
v -0.409791 -0.058593 0.229211
v -0.372916 0.426082 0.318420
v -0.421153 0.428118 0.290024
v -0.425284 0.440550 0.236309
v -0.417595 0.756217 0.192332
v -0.446395 0.659527 0.198914
v -0.468270 0.561880 0.202645
v -0.513663 0.825893 0.013321
v -0.534907 0.719288 0.011588
v -0.540051 0.604646 0.007683
v -0.468880 0.804887 -0.204951
v -0.482576 0.704526 -0.204971
v -0.472137 0.592529 -0.200369
v -0.382049 0.455871 -0.321395
v -0.407632 0.462052 -0.279056
v -0.442364 0.467593 -0.243480
v -0.483668 -0.045478 -0.388283
v -0.518279 -0.046474 -0.337650
v -0.523701 -0.048822 -0.281923
v -0.472925 -0.566575 -0.385758
v -0.506586 -0.573731 -0.330595
v -0.491771 -0.584796 -0.273777
v -0.217438 -0.430890 -0.546672
v -0.217729 -0.299491 -0.543317
v -0.219499 -0.167222 -0.556908
v -0.201116 0.096764 -0.477196
v -0.189519 0.229642 -0.425828
v -0.178369 0.351487 -0.382257
v -0.156535 -0.557573 -0.560052
v -0.099943 -0.554883 -0.573049
v -0.047692 -0.548493 -0.551141
v -0.159416 -0.030461 -0.548281
v -0.103842 -0.025194 -0.564551
v -0.046627 -0.023010 -0.570160
v -0.137116 0.484190 -0.432840
v -0.087741 0.491783 -0.441389
v -0.039758 0.495935 -0.455667
v 0.003263 -0.413479 -0.542999
v 0.011275 -0.286613 -0.582625
v 0.014800 -0.155975 -0.582138
v 0.010841 0.105811 -0.510976
v 0.008103 0.240630 -0.482879
v 0.009796 0.369963 -0.461846
v 0.061699 -0.532047 -0.518297
v 0.101647 -0.519527 -0.476793
v 0.141066 -0.507131 -0.444468
v 0.067755 -0.021531 -0.568475
v 0.123677 -0.020498 -0.564145
v 0.178253 -0.017695 -0.557977
v 0.061862 0.498683 -0.488271
v 0.114717 0.498842 -0.484699
v 0.161824 0.494519 -0.492398
v 0.200432 -0.383746 -0.457069
v 0.212777 -0.261648 -0.493704
v 0.229027 -0.137614 -0.534528
v 0.231769 0.117913 -0.542247
v 0.212349 0.237559 -0.487009
v 0.201200 0.364582 -0.462137
v -0.375072 -0.557451 -0.493707
v -0.316483 -0.558465 -0.519648
v -0.273296 -0.557396 -0.554779
v -0.370691 -0.043569 -0.471909
v -0.316492 -0.041852 -0.495771
v -0.271205 -0.034273 -0.529998
v -0.309328 0.454534 -0.379981
v -0.265338 0.463379 -0.376034
v -0.228877 0.466963 -0.409892
v -0.206653 0.819908 -0.491174
v -0.195699 0.713682 -0.468429
v -0.184953 0.601282 -0.433276
v 0.015563 0.858114 -0.528264
v 0.013108 0.743879 -0.510088
v 0.010346 0.622418 -0.500215
v 0.220414 0.820365 -0.478916
v 0.215434 0.716551 -0.482347
v 0.209471 0.606831 -0.470437
v 0.331853 0.477206 -0.392388
v 0.289745 0.480307 -0.419396
v 0.250920 0.484692 -0.446531
v 0.387415 -0.009514 -0.466992
v 0.336560 -0.011258 -0.500331
v 0.287622 -0.013129 -0.529925
v 0.290492 -0.470451 -0.339057
v 0.257933 -0.476619 -0.365056
v 0.213103 -0.483201 -0.382010
v 0.161513 -0.789856 -0.342019
v 0.172797 -0.700476 -0.381393
v 0.174451 -0.602711 -0.403943
v 0.000163 -0.872822 -0.445382
v 0.001965 -0.765902 -0.476773
v 0.007163 -0.658904 -0.518634
v -0.205283 -0.900880 -0.516709
v -0.206515 -0.790392 -0.534625
v -0.214955 -0.681849 -0.573061
v -0.162670 -1.251971 -0.252652
v -0.101469 -1.264930 -0.254702
v -0.039206 -1.267543 -0.256391
v 0.082237 -1.246468 -0.255410
v 0.140015 -1.232165 -0.254875
v 0.194195 -1.204002 -0.249023
v -0.222472 -1.258028 -0.184154
v -0.223052 -1.278496 -0.120419
v -0.225226 -1.289079 -0.056990
v 0.019898 -1.291464 -0.186799
v 0.018354 -1.330532 -0.130399
v 0.017020 -1.332666 -0.064712
v 0.245795 -1.197726 -0.177318
v 0.275649 -1.241355 -0.132979
v 0.291437 -1.269443 -0.072194
v -0.164632 -1.312819 -0.000374
v -0.102323 -1.325593 -0.003812
v -0.044016 -1.347647 -0.001630
v 0.082547 -1.335675 -0.000561
v 0.150559 -1.325368 -0.001195
v 0.228026 -1.321168 -0.004921
v -0.205464 -1.253784 0.051146
v -0.187046 -1.219303 0.088054
v -0.175565 -1.184895 0.125771
v 0.021049 -1.335930 0.060042
v 0.018195 -1.326213 0.124550
v 0.018487 -1.286205 0.179723
v 0.297543 -1.282006 0.062979
v 0.291732 -1.269407 0.129491
v 0.300719 -1.266877 0.208302
v -0.133244 -1.184144 0.187703
v -0.081716 -1.202731 0.195809
v -0.035013 -1.228318 0.216890
v 0.075145 -1.252980 0.248674
v 0.139128 -1.250994 0.258654
v 0.204819 -1.232010 0.258680
v -0.199120 -1.068204 -0.408196
v -0.210375 -1.144654 -0.373816
v -0.224235 -1.209068 -0.324863
v 0.012127 -1.069054 -0.405632
v 0.022573 -1.157830 -0.388266
v 0.022780 -1.212795 -0.324230
v 0.190206 -0.960589 -0.319649
v 0.199837 -1.031501 -0.293099
v 0.220699 -1.097037 -0.268571
v 0.314708 -0.956460 -0.172192
v 0.283609 -1.026835 -0.177524
v 0.254712 -1.090616 -0.195247
v 0.368456 -1.045824 -0.000877
v 0.357496 -1.132678 -0.002618
v 0.350052 -1.219755 -0.006886
v 0.349547 -1.007680 0.199262
v 0.330069 -1.085582 0.214618
v 0.329679 -1.162957 0.247712
v 0.225235 -1.032353 0.401208
v 0.240870 -1.105927 0.364022
v 0.261046 -1.168622 0.322926
v 0.011766 -1.070033 0.400295
v 0.013705 -1.137029 0.341176
v 0.015637 -1.194848 0.286635
v -0.180089 -1.009919 0.337796
v -0.179596 -1.068385 0.284565
v -0.176258 -1.112870 0.229109
v -0.322926 -1.049439 0.187007
v -0.258546 -1.076890 0.171771
v -0.218624 -1.119436 0.173135
v -0.342929 -1.112232 -0.008621
v -0.291708 -1.167846 -0.008891
v -0.265593 -1.234749 0.002173
v -0.396223 -1.113454 -0.231873
v -0.342853 -1.170156 -0.239882
v -0.280896 -1.201414 -0.242590
v 0.454033 0.394664 0.200032
v 0.486049 0.262524 0.208164
v 0.490432 0.134309 0.208612
v 0.424616 -0.138804 0.194013
v 0.457018 -0.273960 0.201195
v 0.494833 -0.402251 0.211559
v 0.446405 0.528158 0.151027
v 0.447193 0.533644 0.101098
v 0.461259 0.536599 0.051546
v 0.458209 -0.000503 0.151731
v 0.455777 0.003208 0.101957
v 0.462520 0.004039 0.052813
v 0.463507 -0.517304 0.155096
v 0.453970 -0.514909 0.103248
v 0.456742 -0.516605 0.052013
v 0.480366 0.404563 0.003361
v 0.511267 0.272032 0.005255
v 0.535826 0.137483 0.005389
v 0.465992 -0.136746 0.005496
v 0.482198 -0.274120 0.002705
v 0.503823 -0.402848 -0.000259
v 0.474721 0.534345 -0.050781
v 0.495308 0.529750 -0.100023
v 0.489369 0.523572 -0.148870
v 0.485413 0.002108 -0.045834
v 0.502738 -0.000479 -0.098284
v 0.519663 -0.002880 -0.151603
v 0.473965 -0.519071 -0.047716
v 0.483808 -0.516527 -0.095775
v 0.463644 -0.504337 -0.136803
v 0.457337 0.388718 -0.187016
v 0.473854 0.255231 -0.193294
v 0.527373 0.129247 -0.212183
v 0.486111 -0.134023 -0.198796
v 0.497478 -0.259837 -0.199863
v 0.460100 -0.379087 -0.181734
v 0.426024 0.496953 0.342178
v 0.419824 0.505966 0.289587
v 0.430530 0.514472 0.244518
v 0.404917 -0.005618 0.331838
v 0.422672 -0.004601 0.289149
v 0.439390 -0.003644 0.245716
v 0.444729 -0.506982 0.355013
v 0.486349 -0.517058 0.310450
v 0.493196 -0.522270 0.257999
v 0.384700 -0.829424 0.185064
v 0.384434 -0.729497 0.187261
v 0.415391 -0.624653 0.194460
v 0.389566 -0.845796 0.006525
v 0.362971 -0.736930 0.004902
v 0.403329 -0.628785 0.002979
v 0.335836 -0.790837 -0.156268
v 0.350178 -0.693584 -0.147012
v 0.410170 -0.602417 -0.169859
v 0.343685 -0.468467 -0.272108
v 0.379024 -0.476683 -0.246579
v 0.412871 -0.486799 -0.214939
v 0.466059 -0.006288 -0.371023
v 0.476014 -0.005137 -0.313029
v 0.485032 -0.003229 -0.257944
v 0.398666 0.484823 -0.319324
v 0.443504 0.491294 -0.290314
v 0.455377 0.503569 -0.241173
v 0.491867 0.849538 -0.218018
v 0.514380 0.747083 -0.218331
v 0.487724 0.633580 -0.204314
v 0.523668 0.905026 0.001263
v 0.530843 0.787175 0.000932
v 0.483190 0.667721 -0.001257
v 0.482455 0.867575 0.214032
v 0.470648 0.758742 0.205391
v 0.459993 0.642955 0.203072
v 0.167867 0.499475 0.531892
v 0.114795 0.501006 0.559387
v 0.059251 0.498837 0.570612
v -0.048775 0.486845 0.568867
v -0.098605 0.475950 0.544434
v -0.144566 0.463118 0.513952
v 0.235284 0.377671 0.556530
v 0.231621 0.249487 0.554470
v 0.223304 0.119192 0.522053
v 0.004366 0.369979 0.596811
v 0.006680 0.239343 0.589351
v 0.008918 0.105811 0.577879
v -0.191205 0.337326 0.493900
v -0.198674 0.213630 0.500719
v -0.199834 0.089678 0.503840
v 0.168639 -0.021342 0.529211
v 0.116763 -0.023726 0.549966
v 0.060511 -0.025355 0.557336
v -0.049838 -0.030075 0.595712
v -0.099979 -0.033450 0.563045
v -0.147409 -0.037521 0.531642
v 0.216841 -0.151815 0.499249
v 0.227572 -0.283396 0.526780
v 0.230149 -0.413909 0.543821
v 0.009060 -0.161940 0.591531
v 0.004962 -0.296813 0.578880
v 0.006165 -0.432119 0.591590
v -0.216711 -0.165140 0.551303
v -0.203583 -0.293370 0.534325
v -0.197083 -0.417408 0.517624
v 0.171754 -0.543510 0.570465
v 0.120309 -0.551433 0.602222
v 0.065955 -0.556432 0.619006
v -0.055436 -0.556147 0.615304
v -0.104169 -0.550351 0.574591
v -0.163827 -0.545837 0.562607
v 0.211637 0.832292 0.474332
v 0.212259 0.726328 0.488500
v 0.213844 0.614450 0.502372
v 0.003555 0.840307 0.519343
v 0.004322 0.731586 0.541958
v 0.008071 0.614767 0.549834
v -0.182006 0.762463 0.422730
v -0.176573 0.663185 0.433975
v -0.177435 0.555696 0.452873
v -0.322188 0.425153 0.405611
v -0.295169 0.433603 0.454671
v -0.249528 0.443646 0.483372
v -0.329622 -0.044630 0.413733
v -0.276264 -0.046456 0.435940
v -0.236112 -0.043228 0.471161
v -0.306651 -0.524944 0.393560
v -0.278886 -0.527150 0.436941
v -0.238025 -0.532245 0.472723
v -0.190050 -0.853270 0.450478
v -0.198989 -0.764419 0.502009
v -0.205717 -0.655912 0.519278
v 0.009713 -0.895862 0.512037
v 0.005507 -0.788217 0.545861
v 0.006964 -0.679670 0.601627
v 0.201069 -0.849613 0.442712
v 0.207439 -0.751276 0.476395
v 0.214146 -0.644478 0.507536
v 0.365224 -0.509782 0.451021
v 0.319990 -0.517512 0.488892
v 0.280465 -0.527620 0.527725
v 0.342770 -0.009864 0.413391
v 0.317019 -0.014804 0.462437
v 0.270385 -0.016759 0.487125
v 0.356541 0.488636 0.434454
v 0.320297 0.492475 0.478720
v 0.268154 0.493857 0.494691
v 0.281380 1.263271 0.217279
v 0.266137 1.257986 0.137878
v 0.263471 1.261983 0.068305
v 0.252988 1.244087 -0.061365
v 0.257866 1.234483 -0.127192
v 0.237015 1.191713 -0.177325
v 0.202684 1.265080 0.309968
v 0.129220 1.239801 0.280932
v 0.057245 1.241553 0.282068
v 0.205466 1.310774 0.001186
v 0.134581 1.340156 0.003035
v 0.064292 1.367070 0.004009
v 0.178918 1.190560 -0.250168
v 0.124455 1.221200 -0.266005
v 0.066851 1.246250 -0.281204
v -0.000938 1.260962 0.201588
v -0.001726 1.301620 0.142370
v -0.007596 1.343331 0.080794
v -0.004510 1.349184 -0.073258
v -0.004546 1.335861 -0.150403
v -0.000516 1.303327 -0.221270
v -0.057981 1.190179 0.250100
v -0.117270 1.168358 0.248272
v -0.167885 1.129701 0.236911
v -0.067691 1.318110 0.004000
v -0.127299 1.277487 0.003050
v -0.199007 1.251737 0.008015
v -0.057294 1.239969 -0.275377
v -0.122706 1.217372 -0.266829
v -0.169138 1.169997 -0.239764
v -0.226449 1.124650 0.174943
v -0.232852 1.153552 0.120155
v -0.244748 1.180480 0.065988
v -0.274032 1.220809 -0.055037
v -0.243916 1.185874 -0.111832
v -0.235135 1.164458 -0.172421
v 0.438452 1.062225 0.244989
v 0.390416 1.128285 0.261111
v 0.317726 1.163501 0.265378
v 0.423336 1.089155 0.001215
v 0.368659 1.152963 0.001562
v 0.311147 1.203782 0.002907
v 0.385357 1.010040 -0.216791
v 0.335726 1.065751 -0.221029
v 0.282903 1.109669 -0.225817
v 0.224498 0.997292 -0.414804
v 0.228705 1.060671 -0.358361
v 0.232487 1.113761 -0.299573
v 0.015042 1.041458 -0.439532
v 0.014848 1.115307 -0.386421
v 0.008921 1.193708 -0.344583
v -0.196226 0.966373 -0.375919
v -0.206134 1.035927 -0.333655
v -0.214648 1.089238 -0.282829
v -0.373034 0.962388 -0.203235
v -0.317340 1.023114 -0.203954
v -0.284290 1.090194 -0.224209
v -0.425885 1.009117 0.011999
v -0.366537 1.080405 0.009571
v -0.310173 1.141950 0.007066
v -0.385311 0.932682 0.219705
v -0.332098 0.990976 0.222780
v -0.272859 1.040476 0.222848
v -0.209875 0.934677 0.389661
v -0.214213 0.994340 0.341065
v -0.214312 1.042344 0.283475
v -0.002106 1.025302 0.442874
v -0.000687 1.092894 0.381063
v 0.001764 1.153355 0.316409
v 0.223105 1.023357 0.434354
v 0.237181 1.102182 0.398915
v 0.251267 1.163723 0.346772
v -0.475319 -0.465238 -0.165846
v -0.453455 -0.468228 -0.116814
v -0.427338 -0.469601 -0.068499
v -0.487902 -0.326077 -0.167786
v -0.478764 -0.328542 -0.114795
v -0.448757 -0.325361 -0.067765
v -0.519655 -0.188927 -0.170664
v -0.550804 -0.196056 -0.109268
v -0.517012 -0.193150 -0.059393
v -0.396699 -0.463051 0.030690
v -0.380810 -0.456895 0.077607
v -0.386845 -0.449982 0.124624
v -0.424455 -0.323469 0.033224
v -0.432271 -0.325964 0.085238
v -0.427029 -0.321009 0.131912
v -0.496277 -0.192477 0.044384
v -0.471191 -0.188247 0.092568
v -0.469187 -0.187192 0.145058
v -0.498087 0.082606 -0.167444
v -0.483758 0.080106 -0.115342
v -0.483040 0.080140 -0.059255
v -0.488442 0.217706 -0.164298
v -0.477336 0.217799 -0.113424
v -0.465586 0.216069 -0.062150
v -0.495348 0.351823 -0.158836
v -0.486077 0.354905 -0.108888
v -0.475915 0.354697 -0.060407
v -0.439570 0.074982 0.034804
v -0.433155 0.075017 0.083792
v -0.418188 0.073462 0.128356
v -0.442407 0.209634 0.038417
v -0.455938 0.204175 0.091637
v -0.409039 0.202601 0.127193
v -0.465087 0.344433 0.043224
v -0.435982 0.342062 0.086290
v -0.444928 0.330424 0.139394
v -0.444594 -0.868148 -0.371790
v -0.476517 -0.898177 -0.326452
v -0.499533 -0.924397 -0.279487
v -0.488478 -0.784783 -0.396803
v -0.501544 -0.800020 -0.334568
v -0.509603 -0.818386 -0.281257
v -0.481506 -0.680924 -0.390402
v -0.501291 -0.693243 -0.331902
v -0.514887 -0.704760 -0.279299
v -0.493341 -0.951009 -0.168074
v -0.498363 -0.963322 -0.110348
v -0.477125 -0.960097 -0.056150
v -0.520602 -0.845842 -0.170445
v -0.528933 -0.852880 -0.112968
v -0.523342 -0.854386 -0.055837
v -0.508930 -0.725370 -0.167188
v -0.502438 -0.731330 -0.111693
v -0.495174 -0.733002 -0.056368
v -0.449832 -0.944573 0.046967
v -0.438059 -0.929454 0.097563
v -0.423834 -0.908706 0.146591
v -0.500801 -0.843053 0.051590
v -0.489230 -0.831259 0.105813
v -0.465770 -0.815239 0.154609
v -0.487776 -0.720717 0.049517
v -0.458622 -0.714336 0.096057
v -0.444754 -0.701546 0.144535
v -0.418694 -0.872280 0.248575
v -0.420057 -0.853473 0.302986
v -0.389768 -0.824952 0.341015
v -0.445875 -0.778950 0.254729
v -0.412064 -0.759664 0.293048
v -0.397516 -0.741463 0.340349
v -0.413166 -0.670998 0.235818
v -0.392204 -0.656022 0.277434
v -0.375355 -0.642324 0.321102
v -0.383607 -0.433490 0.216856
v -0.384127 -0.424765 0.266272
v -0.367916 -0.417430 0.313280
v -0.402550 -0.305794 0.225766
v -0.392801 -0.300127 0.274919
v -0.381038 -0.295550 0.325049
v -0.450614 -0.180952 0.247012
v -0.417893 -0.176852 0.292463
v -0.400749 -0.174239 0.342999
v -0.381440 0.070093 0.214171
v -0.371319 0.070460 0.259898
v -0.350185 0.071014 0.299938
v -0.382324 0.196536 0.213090
v -0.383146 0.193568 0.264178
v -0.369859 0.192767 0.310573
v -0.410620 0.318857 0.227707
v -0.372571 0.317787 0.263058
v -0.362256 0.312490 0.310798
v -0.442320 0.547803 0.244376
v -0.413513 0.534295 0.284719
v -0.384224 0.524584 0.323975
v -0.426068 0.642833 0.241696
v -0.407646 0.628299 0.286281
v -0.366357 0.610989 0.310391
v -0.397716 0.732312 0.234160
v -0.373237 0.709114 0.266756
v -0.351636 0.689957 0.303169
v -0.524783 0.597894 0.057389
v -0.513050 0.586847 0.108595
v -0.491597 0.574688 0.156814
v -0.533933 0.711773 0.062541
v -0.496309 0.695408 0.104173
v -0.471481 0.678162 0.152723
v -0.505884 0.818098 0.063625
v -0.475942 0.801425 0.107179
v -0.449811 0.781303 0.151678
v -0.502040 0.598753 -0.154558
v -0.505878 0.603580 -0.097099
v -0.538577 0.605654 -0.046878
v -0.501247 0.713169 -0.153781
v -0.502387 0.717371 -0.096391
v -0.516243 0.719571 -0.039961
v -0.495492 0.820397 -0.157116
v -0.485697 0.820790 -0.096142
v -0.510282 0.828648 -0.042272
v -0.397970 0.566495 -0.329838
v -0.421519 0.576206 -0.285139
v -0.444176 0.585333 -0.242111
v -0.410481 0.669184 -0.337686
v -0.446014 0.680605 -0.298037
v -0.462657 0.694125 -0.251228
v -0.412742 0.757595 -0.343021
v -0.445664 0.775227 -0.303263
v -0.452596 0.789667 -0.253241
v -0.437804 0.081009 -0.356527
v -0.477220 0.084186 -0.316197
v -0.515030 0.087734 -0.276064
v -0.396957 0.209378 -0.328223
v -0.439327 0.213962 -0.297243
v -0.466853 0.214763 -0.255870
v -0.380700 0.337470 -0.320938
v -0.405316 0.339118 -0.276903
v -0.457608 0.345338 -0.255662
v -0.461010 -0.442034 -0.377871
v -0.472302 -0.448144 -0.322946
v -0.489783 -0.454870 -0.272752
v -0.455697 -0.310501 -0.372809
v -0.486236 -0.315119 -0.325677
v -0.502145 -0.320205 -0.276882
v -0.486535 -0.178969 -0.393237
v -0.491742 -0.179770 -0.326328
v -0.532572 -0.184556 -0.285901
v -0.159328 -0.428835 -0.560822
v -0.159374 -0.295844 -0.543251
v -0.162265 -0.164180 -0.571147
v -0.103020 -0.426062 -0.587168
v -0.100701 -0.293073 -0.552721
v -0.101947 -0.161541 -0.575405
v -0.044470 -0.423100 -0.579563
v -0.042843 -0.288885 -0.555718
v -0.041517 -0.159071 -0.577630
v -0.152649 0.103619 -0.496285
v -0.142658 0.230981 -0.434192
v -0.135402 0.358025 -0.403309
v -0.094564 0.097837 -0.487269
v -0.093599 0.234560 -0.450680
v -0.092473 0.363712 -0.435277
v -0.046879 0.109314 -0.519066
v -0.040540 0.236583 -0.460808
v -0.041279 0.367907 -0.449669
v 0.060980 -0.408440 -0.536608
v 0.058175 -0.276552 -0.550218
v 0.069026 -0.151267 -0.590264
v 0.111334 -0.400504 -0.511673
v 0.108217 -0.268914 -0.527949
v 0.125303 -0.147007 -0.584236
v 0.150115 -0.389037 -0.474185
v 0.160341 -0.264423 -0.511007
v 0.175104 -0.140806 -0.554599
v 0.060513 0.115336 -0.544740
v 0.059652 0.242250 -0.498895
v 0.059315 0.371206 -0.483878
v 0.117154 0.111128 -0.531864
v 0.111989 0.243748 -0.515391
v 0.112607 0.370774 -0.488254
v 0.170411 0.110162 -0.523354
v 0.164883 0.240682 -0.504444
v 0.165111 0.370421 -0.510688
v -0.350036 -0.859077 -0.460201
v -0.375880 -0.775927 -0.506488
v -0.377611 -0.671946 -0.504405
v -0.302681 -0.875162 -0.483643
v -0.316337 -0.782115 -0.525108
v -0.322192 -0.675532 -0.537360
v -0.255812 -0.888424 -0.498570
v -0.263990 -0.788914 -0.536564
v -0.269997 -0.678677 -0.551365
v -0.369662 -0.432738 -0.479880
v -0.362786 -0.304051 -0.467032
v -0.369927 -0.172161 -0.475274
v -0.313115 -0.432739 -0.506068
v -0.319524 -0.303134 -0.509383
v -0.322848 -0.170609 -0.515125
v -0.277585 -0.431491 -0.558599
v -0.277071 -0.302197 -0.549884
v -0.269671 -0.169411 -0.533326
v -0.344287 0.083567 -0.426361
v -0.315662 0.212700 -0.380195
v -0.300838 0.338641 -0.364200
v -0.302948 0.097299 -0.465690
v -0.275229 0.219952 -0.399290
v -0.260083 0.342288 -0.373226
v -0.248058 0.088544 -0.454865
v -0.232790 0.225240 -0.412684
v -0.220043 0.346181 -0.377718
v -0.316845 0.567300 -0.389589
v -0.336612 0.666350 -0.427907
v -0.340297 0.761724 -0.427868
v -0.273329 0.579196 -0.399925
v -0.282469 0.686192 -0.426945
v -0.293770 0.781756 -0.446389
v -0.231569 0.590321 -0.418803
v -0.240522 0.701642 -0.445131
v -0.253042 0.801186 -0.466908
v -0.145671 0.603210 -0.477469
v -0.143644 0.725667 -0.478243
v -0.149764 0.831487 -0.491105
v -0.091099 0.614504 -0.473439
v -0.094073 0.732822 -0.498938
v -0.095313 0.843409 -0.505420
v -0.043611 0.617877 -0.497140
v -0.039679 0.740211 -0.501099
v -0.040284 0.852936 -0.520101
v 0.065596 0.624503 -0.493219
v 0.065924 0.743231 -0.522120
v 0.067947 0.857649 -0.527374
v 0.116743 0.621176 -0.502787
v 0.116705 0.738151 -0.509291
v 0.117589 0.847876 -0.506239
v 0.165311 0.613678 -0.500071
v 0.164768 0.728030 -0.493921
v 0.170402 0.835917 -0.495404
v 0.263086 0.596654 -0.468716
v 0.261913 0.703647 -0.463290
v 0.266594 0.802595 -0.458940
v 0.303656 0.589875 -0.439559
v 0.309787 0.691702 -0.446306
v 0.314831 0.785953 -0.446728
v 0.342244 0.586663 -0.404602
v 0.355050 0.682673 -0.421678
v 0.345920 0.764894 -0.406956
v 0.273127 0.111911 -0.498293
v 0.260267 0.236542 -0.470612
v 0.247043 0.361155 -0.442985
v 0.323451 0.113931 -0.475971
v 0.310653 0.238404 -0.453212
v 0.292457 0.359010 -0.423956
v 0.361429 0.111304 -0.433563
v 0.348581 0.236677 -0.415184
v 0.345296 0.359331 -0.408951
v 0.224850 -0.367507 -0.408795
v 0.247821 -0.247355 -0.452540
v 0.281662 -0.136916 -0.516167
v 0.263504 -0.360796 -0.382773
v 0.288893 -0.243031 -0.425853
v 0.324710 -0.131983 -0.481941
v 0.300186 -0.356435 -0.355144
v 0.328978 -0.239626 -0.393902
v 0.364861 -0.125831 -0.439982
v 0.194127 -0.765848 -0.319321
v 0.215321 -0.685310 -0.364424
v 0.217660 -0.589863 -0.380239
v 0.224179 -0.744018 -0.301833
v 0.241523 -0.665648 -0.335720
v 0.251681 -0.577549 -0.352455
v 0.249059 -0.723739 -0.282769
v 0.266553 -0.650790 -0.309702
v 0.289067 -0.570381 -0.335605
v 0.050211 -0.857708 -0.426327
v 0.056957 -0.756102 -0.465959
v 0.065017 -0.651292 -0.512012
v 0.101203 -0.840724 -0.411279
v 0.097141 -0.737303 -0.434656
v 0.101985 -0.634268 -0.469116
v 0.136738 -0.817566 -0.380219
v 0.133958 -0.718053 -0.405064
v 0.141739 -0.618788 -0.438655
v -0.148017 -0.901698 -0.514695
v -0.153653 -0.789885 -0.527005
v -0.155954 -0.680621 -0.569892
v -0.095192 -0.898403 -0.502421
v -0.096998 -0.789975 -0.529709
v -0.102172 -0.673568 -0.547330
v -0.042303 -0.889208 -0.482183
v -0.049997 -0.776646 -0.493556
v -0.046426 -0.667134 -0.535259
v -0.165222 -1.288611 -0.188750
v -0.103495 -1.298269 -0.186600
v -0.041477 -1.300069 -0.186507
v -0.171972 -1.324552 -0.127141
v -0.105953 -1.328323 -0.126742
v -0.043084 -1.331565 -0.127699
v -0.161985 -1.310185 -0.061687
v -0.111474 -1.360031 -0.064937
v -0.044024 -1.336081 -0.063623
v 0.084022 -1.298506 -0.199921
v 0.147738 -1.280178 -0.202328
v 0.205016 -1.248845 -0.196537
v 0.079609 -1.309235 -0.129597
v 0.145438 -1.292998 -0.132915
v 0.215407 -1.281080 -0.138015
v 0.084441 -1.354223 -0.070963
v 0.147907 -1.314030 -0.067218
v 0.215248 -1.288030 -0.067405
v -0.160478 -1.294719 0.055842
v -0.101018 -1.314135 0.053882
v -0.042138 -1.330006 0.056528
v -0.146642 -1.256643 0.096576
v -0.095031 -1.283060 0.102886
v -0.040026 -1.304974 0.112458
v -0.137819 -1.221948 0.139146
v -0.087640 -1.245480 0.148513
v -0.033671 -1.262954 0.160273
v 0.086496 -1.355005 0.066257
v 0.153247 -1.325814 0.064548
v 0.226821 -1.310022 0.064509
v 0.082974 -1.328657 0.129355
v 0.151032 -1.313579 0.129559
v 0.224775 -1.303835 0.133071
v 0.079072 -1.293615 0.190084
v 0.145750 -1.291150 0.196828
v 0.216228 -1.276262 0.198940
v -0.347362 -0.993118 -0.371669
v -0.300267 -1.025691 -0.386284
v -0.259075 -1.057186 -0.414032
v -0.388011 -1.060032 -0.353258
v -0.318990 -1.091218 -0.349149
v -0.267799 -1.122771 -0.363149
v -0.391804 -1.088630 -0.289013
v -0.336811 -1.140076 -0.301517
v -0.278319 -1.171844 -0.307994
v -0.144017 -1.080672 -0.421133
v -0.091289 -1.086568 -0.429858
v -0.038186 -1.085031 -0.429307
v -0.153204 -1.164197 -0.391436
v -0.092958 -1.162036 -0.387107
v -0.035193 -1.163039 -0.389738
v -0.157807 -1.209668 -0.319862
v -0.097495 -1.214394 -0.320296
v -0.036920 -1.212723 -0.319906
v 0.058960 -1.046960 -0.379363
v 0.101989 -1.021520 -0.355322
v 0.140927 -0.991820 -0.328776
v 0.066190 -1.129644 -0.352878
v 0.117154 -1.103974 -0.337607
v 0.170791 -1.072976 -0.327620
v 0.080143 -1.203827 -0.324126
v 0.126647 -1.174761 -0.300994
v 0.170340 -1.138443 -0.279022
v 0.209449 -0.922530 -0.284026
v 0.240531 -0.882348 -0.266902
v 0.252325 -0.838746 -0.243083
v 0.232671 -0.987467 -0.270658
v 0.255629 -0.937531 -0.245590
v 0.265812 -0.881684 -0.220295
v 0.248965 -1.044187 -0.241067
v 0.280956 -0.986458 -0.224970
v 0.283924 -0.920361 -0.196161
v 0.293437 -1.137491 -0.167112
v 0.312160 -1.064270 -0.144882
v 0.333092 -0.988104 -0.135127
v 0.323008 -1.175919 -0.124970
v 0.328846 -1.093910 -0.099635
v 0.339258 -1.014231 -0.088236
v 0.325001 -1.196599 -0.062274
v 0.345361 -1.117382 -0.053006
v 0.384477 -1.037060 -0.054052
v 0.350995 -1.222350 0.058076
v 0.373479 -1.137338 0.053481
v 0.364717 -1.046808 0.049687
v 0.342697 -1.211235 0.121978
v 0.351156 -1.127284 0.108734
v 0.362546 -1.040673 0.101274
v 0.320313 -1.185621 0.178805
v 0.346247 -1.111941 0.163383
v 0.363982 -1.028084 0.152071
v 0.292181 -1.113449 0.288454
v 0.332283 -1.054932 0.269046
v 0.345970 -0.982438 0.245733
v 0.286376 -1.064498 0.341470
v 0.306319 -1.009609 0.304663
v 0.342800 -0.951386 0.289276
v 0.269765 -0.999178 0.378982
v 0.300242 -0.957495 0.348617
v 0.324316 -0.909813 0.322026
v 0.075114 -1.191714 0.292177
v 0.134494 -1.196341 0.311632
v 0.196044 -1.185937 0.319229
v 0.070238 -1.141427 0.356222
v 0.129487 -1.137915 0.365821
v 0.187205 -1.128341 0.370747
v 0.070626 -1.060799 0.398337
v 0.123507 -1.067306 0.420303
v 0.179076 -1.060268 0.426510
v -0.132409 -1.140381 0.239470
v -0.083619 -1.160419 0.250899
v -0.034231 -1.178929 0.267340
v -0.131334 -1.085957 0.290025
v -0.083674 -1.105402 0.303243
v -0.043295 -1.135057 0.334354
v -0.138546 -1.034659 0.355234
v -0.091128 -1.051494 0.370365
v -0.037313 -1.055879 0.376599
v -0.308197 -1.004980 0.224825
v -0.261367 -1.047954 0.223133
v -0.214805 -1.078169 0.221371
v -0.310527 -0.973956 0.276892
v -0.264309 -1.011997 0.276049
v -0.222122 -1.043694 0.279386
v -0.313200 -0.936808 0.328608
v -0.267085 -0.964049 0.328318
v -0.226340 -0.992730 0.335716
v -0.329194 -1.097623 0.038217
v -0.276048 -1.149521 0.035265
v -0.235001 -1.201565 0.040183
v -0.318985 -1.080088 0.083673
v -0.269888 -1.133061 0.084099
v -0.220558 -1.175031 0.081071
v -0.310403 -1.057130 0.129843
v -0.257117 -1.101221 0.123118
v -0.213898 -1.144931 0.122098
v -0.395225 -1.129686 -0.171506
v -0.332006 -1.177811 -0.176508
v -0.279761 -1.222254 -0.180512
v -0.387502 -1.136763 -0.111276
v -0.319034 -1.179497 -0.116966
v -0.278223 -1.238144 -0.117345
v -0.355815 -1.118820 -0.061041
v -0.310345 -1.181267 -0.058495
v -0.257185 -1.225654 -0.059417
v 0.440555 0.395907 0.148947
v 0.493228 0.265836 0.156075
v 0.513710 0.134740 0.160076
v 0.451738 0.399933 0.100008
v 0.510431 0.271157 0.106579
v 0.537700 0.134354 0.111409
v 0.476863 0.405357 0.054280
v 0.524718 0.274711 0.057518
v 0.531304 0.137489 0.057556
v 0.429309 -0.138417 0.147418
v 0.472043 -0.272802 0.154956
v 0.500339 -0.403856 0.161111
v 0.438193 -0.137787 0.100536
v 0.461923 -0.276994 0.102798
v 0.508538 -0.404974 0.107111
v 0.463372 -0.136871 0.055835
v 0.472383 -0.275659 0.052791
v 0.506377 -0.404499 0.052909
v 0.493495 0.404794 -0.046259
v 0.510345 0.270682 -0.046633
v 0.541481 0.136177 -0.048838
v 0.503351 0.402393 -0.097218
v 0.508387 0.268107 -0.097510
v 0.548983 0.134185 -0.104494
v 0.498138 0.395915 -0.147884
v 0.480432 0.260330 -0.143049
v 0.539952 0.131869 -0.159225
v 0.476487 -0.136460 -0.044781
v 0.493310 -0.271633 -0.048599
v 0.512300 -0.400774 -0.052591
v 0.485239 -0.135796 -0.097159
v 0.524045 -0.266438 -0.098589
v 0.509105 -0.396256 -0.101324
v 0.491252 -0.135275 -0.149203
v 0.518608 -0.264678 -0.152731
v 0.495826 -0.389851 -0.146906
v 0.399042 0.796376 0.325415
v 0.409537 0.703172 0.329533
v 0.429916 0.605790 0.342377
v 0.436981 0.821700 0.298120
v 0.431665 0.721089 0.290113
v 0.442277 0.617631 0.295677
v 0.444378 0.846341 0.252076
v 0.444008 0.740778 0.246343
v 0.439152 0.631043 0.247311
v 0.419027 0.373832 0.345092
v 0.447111 0.251170 0.363335
v 0.439677 0.126986 0.355201
v 0.427244 0.379631 0.295040
v 0.459898 0.254114 0.309841
v 0.466425 0.128070 0.309088
v 0.430596 0.385532 0.246296
v 0.469030 0.257422 0.258333
v 0.493060 0.129020 0.263037
v 0.409341 -0.140061 0.331223
v 0.428229 -0.268498 0.343550
v 0.439365 -0.396729 0.352704
v 0.428321 -0.138830 0.287429
v 0.426143 -0.272809 0.290092
v 0.473581 -0.397208 0.309259
v 0.438322 -0.138157 0.242874
v 0.444693 -0.273068 0.246973
v 0.477612 -0.400692 0.258185
v 0.404467 -0.605216 0.330253
v 0.389768 -0.703121 0.317241
v 0.374435 -0.785252 0.308652
v 0.412645 -0.611803 0.286386
v 0.390775 -0.711847 0.276046
v 0.388920 -0.802446 0.272152
v 0.411384 -0.616927 0.242236
v 0.386248 -0.720690 0.233519
v 0.369039 -0.814189 0.230997
v 0.427178 -0.635645 0.144840
v 0.370280 -0.733824 0.142166
v 0.354525 -0.838196 0.142831
v 0.394169 -0.625829 0.098929
v 0.363752 -0.737170 0.095798
v 0.358939 -0.844901 0.096417
v 0.394569 -0.627448 0.050919
v 0.359919 -0.738072 0.050427
v 0.348557 -0.847922 0.049373
v 0.417497 -0.628501 -0.042280
v 0.377175 -0.734234 -0.039577
v 0.360377 -0.840258 -0.041062
v 0.422219 -0.621540 -0.086186
v 0.388928 -0.728127 -0.082630
v 0.368948 -0.829249 -0.081853
v 0.428658 -0.615995 -0.131573
v 0.370576 -0.712510 -0.115596
v 0.346734 -0.809686 -0.115125
v 0.386800 -0.587256 -0.204090
v 0.336924 -0.676585 -0.184968
v 0.299038 -0.763870 -0.172476
v 0.370254 -0.579097 -0.244447
v 0.336814 -0.669076 -0.229437
v 0.289495 -0.742752 -0.205733
v 0.337888 -0.569304 -0.271458
v 0.321919 -0.656311 -0.262590
v 0.295610 -0.731144 -0.244295
v 0.475578 -0.131032 -0.251168
v 0.472602 -0.253214 -0.242867
v 0.428838 -0.369097 -0.216118
v 0.466738 -0.127943 -0.305319
v 0.434650 -0.243955 -0.279516
v 0.407881 -0.366064 -0.263048
v 0.455727 -0.128936 -0.363132
v 0.415789 -0.246707 -0.330671
v 0.366975 -0.356277 -0.288261
v 0.442147 0.379861 -0.233959
v 0.468891 0.252025 -0.245404
v 0.490971 0.124063 -0.257530
v 0.417479 0.371427 -0.274984
v 0.433689 0.243027 -0.284695
v 0.487683 0.123691 -0.315497
v 0.403074 0.364517 -0.322524
v 0.424152 0.242454 -0.338317
v 0.436931 0.115170 -0.349810
v 0.464493 0.824784 -0.258220
v 0.501721 0.727034 -0.269816
v 0.472118 0.618626 -0.251970
v 0.441683 0.799022 -0.302649
v 0.459462 0.707620 -0.307334
v 0.460328 0.602002 -0.302847
v 0.430255 0.776874 -0.354254
v 0.439332 0.690081 -0.355819
v 0.433179 0.589440 -0.347356
v 0.512222 0.895710 -0.053999
v 0.515163 0.784883 -0.053766
v 0.496196 0.662528 -0.051370
v 0.526497 0.889931 -0.115468
v 0.515457 0.775581 -0.109794
v 0.492554 0.655667 -0.105105
v 0.504983 0.869676 -0.168834
v 0.520061 0.762869 -0.165594
v 0.497281 0.645898 -0.157124
v 0.492090 0.886240 0.160052
v 0.496766 0.773349 0.159612
v 0.450268 0.656815 0.152722
v 0.514073 0.900187 0.109567
v 0.495651 0.785327 0.105344
v 0.458953 0.664825 0.101861
v 0.541857 0.909326 0.056580
v 0.517373 0.788062 0.054202
v 0.486586 0.665097 0.052779
v 0.171186 0.373405 0.550429
v 0.118647 0.375682 0.582767
v 0.060241 0.372793 0.578356
v 0.187238 0.246838 0.613990
v 0.119152 0.246301 0.589673
v 0.063262 0.243142 0.622509
v 0.171698 0.115934 0.547151
v 0.114676 0.114384 0.556084
v 0.062048 0.110163 0.574959
v -0.055005 0.363162 0.595740
v -0.096220 0.354812 0.544604
v -0.145688 0.345863 0.520483
v -0.046700 0.233659 0.568809
v -0.095559 0.227665 0.541870
v -0.141898 0.221436 0.513481
v -0.050055 0.102307 0.581764
v -0.090950 0.097433 0.536562
v -0.141672 0.092861 0.514018
v 0.168512 -0.154429 0.526842
v 0.117950 -0.157176 0.549635
v 0.064115 -0.159849 0.570585
v 0.172544 -0.287877 0.543623
v 0.114430 -0.292933 0.546432
v 0.059438 -0.295718 0.558718
v 0.170954 -0.421354 0.554942
v 0.118355 -0.425713 0.579507
v 0.061004 -0.431519 0.579430
v -0.049357 -0.163555 0.600754
v -0.103254 -0.166649 0.579582
v -0.156968 -0.166826 0.562446
v -0.050812 -0.296928 0.602765
v -0.108316 -0.297057 0.599368
v -0.153867 -0.295240 0.560807
v -0.047209 -0.429672 0.584644
v -0.104466 -0.425718 0.580319
v -0.159316 -0.422828 0.560760
v 0.332605 0.786709 0.396004
v 0.292843 0.802505 0.419821
v 0.251686 0.818245 0.442702
v 0.331991 0.693977 0.395623
v 0.300487 0.705685 0.436835
v 0.249883 0.715120 0.452598
v 0.354104 0.597743 0.424638
v 0.299311 0.598852 0.440824
v 0.256461 0.606542 0.471416
v 0.157897 0.841629 0.491072
v 0.104980 0.847281 0.511703
v 0.053615 0.848396 0.526872
v 0.160867 0.733342 0.508250
v 0.105207 0.737599 0.525781
v 0.055590 0.739557 0.551227
v 0.165483 0.619908 0.526383
v 0.112254 0.622914 0.549012
v 0.057118 0.621413 0.551630
v -0.045842 0.824886 0.493432
v -0.096940 0.805783 0.468021
v -0.144025 0.785139 0.446608
v -0.038642 0.715458 0.502671
v -0.096038 0.701254 0.491302
v -0.153130 0.686561 0.487448
v -0.041264 0.601667 0.527778
v -0.097248 0.591011 0.517157
v -0.134542 0.571787 0.477533
v -0.218293 0.736689 0.394625
v -0.256546 0.712102 0.374779
v -0.291648 0.691156 0.356614
v -0.219500 0.643567 0.411987
v -0.256777 0.624959 0.385969
v -0.294084 0.610571 0.363084
v -0.226007 0.543011 0.436403
v -0.264111 0.528558 0.405846
v -0.319477 0.525281 0.398745
v -0.235187 0.328624 0.462985
v -0.266680 0.322227 0.418002
v -0.309384 0.314942 0.390705
v -0.223807 0.207414 0.446788
v -0.274791 0.201433 0.425617
v -0.318613 0.196690 0.396621
v -0.232914 0.084011 0.459346
v -0.268660 0.079854 0.421605
v -0.296581 0.075849 0.379797
v -0.248035 -0.168766 0.498373
v -0.296334 -0.169212 0.467081
v -0.335392 -0.170688 0.427219
v -0.245581 -0.290984 0.494045
v -0.295346 -0.291005 0.462757
v -0.319566 -0.288588 0.410688
v -0.252167 -0.414982 0.492749
v -0.293439 -0.412349 0.453966
v -0.322504 -0.410919 0.407697
v -0.246215 -0.646903 0.481357
v -0.278093 -0.639307 0.436900
v -0.325055 -0.633011 0.410548
v -0.242814 -0.752927 0.472635
v -0.291381 -0.742308 0.453473
v -0.318003 -0.734279 0.405695
v -0.242756 -0.846120 0.449354
v -0.283601 -0.829190 0.431930
v -0.324256 -0.814785 0.409751
v -0.046449 -0.674481 0.578790
v -0.096523 -0.669530 0.552046
v -0.154718 -0.664229 0.542463
v -0.047009 -0.789909 0.558339
v -0.097268 -0.781271 0.536852
v -0.149454 -0.773965 0.522736
v -0.040757 -0.887057 0.493399
v -0.091707 -0.877456 0.478507
v -0.142246 -0.867052 0.465592
v 0.164634 -0.655057 0.530894
v 0.116016 -0.665828 0.559066
v 0.058823 -0.667375 0.563325
v 0.164933 -0.767736 0.507304
v 0.111156 -0.777229 0.518972
v 0.056318 -0.783234 0.526691
v 0.162984 -0.871527 0.479199
v 0.108263 -0.882768 0.488100
v 0.061008 -0.894365 0.511738
v 0.340028 -0.607073 0.417004
v 0.308813 -0.623200 0.461477
v 0.274200 -0.639984 0.501457
v 0.328866 -0.704644 0.397033
v 0.299174 -0.722775 0.436051
v 0.255283 -0.737534 0.457624
v 0.318048 -0.787881 0.377047
v 0.291106 -0.811590 0.409994
v 0.249961 -0.832080 0.429835
v 0.352852 -0.144337 0.423148
v 0.321427 -0.146099 0.466131
v 0.270156 -0.149120 0.483486
v 0.356088 -0.271659 0.430782
v 0.313660 -0.275903 0.461283
v 0.271611 -0.280567 0.491316
v 0.362861 -0.398390 0.444155
v 0.315368 -0.403573 0.475909
v 0.275138 -0.408869 0.510408
v 0.378946 0.372850 0.460867
v 0.319377 0.368407 0.481087
v 0.276357 0.371242 0.509729
v 0.389357 0.248862 0.480618
v 0.340428 0.249330 0.515149
v 0.290319 0.249600 0.540004
v 0.371622 0.122306 0.451362
v 0.318578 0.124758 0.470969
v 0.274720 0.121158 0.500598
v 0.201684 1.282650 0.221638
v 0.205223 1.306318 0.148478
v 0.203702 1.309948 0.073719
v 0.131210 1.323942 0.241598
v 0.139338 1.362272 0.165547
v 0.142692 1.368920 0.081045
v 0.059976 1.290221 0.217554
v 0.061796 1.332822 0.153808
v 0.063185 1.365633 0.083679
v 0.216017 1.317362 -0.074520
v 0.209433 1.289542 -0.141388
v 0.189059 1.237968 -0.192556
v 0.133341 1.324630 -0.070545
v 0.132962 1.302736 -0.139875
v 0.128753 1.267331 -0.203598
v 0.065090 1.356223 -0.074124
v 0.063263 1.321260 -0.144795
v 0.070467 1.307778 -0.225423
v -0.057579 1.230232 0.190032
v -0.075269 1.292133 0.147162
v -0.074533 1.316111 0.078787
v -0.120855 1.211335 0.191287
v -0.131400 1.253131 0.138964
v -0.122752 1.260869 0.068741
v -0.170830 1.168441 0.180516
v -0.177942 1.201437 0.126077
v -0.184115 1.224003 0.067053
v -0.076651 1.340521 -0.069999
v -0.070641 1.322446 -0.145691
v -0.066809 1.295462 -0.217337
v -0.135005 1.292602 -0.065731
v -0.142871 1.301842 -0.139697
v -0.127604 1.259716 -0.200843
v -0.200695 1.256456 -0.060036
v -0.199280 1.250491 -0.126834
v -0.180404 1.211648 -0.182743
v 0.366338 0.932462 0.370732
v 0.388406 0.983250 0.332084
v 0.415821 1.027332 0.293795
v 0.323573 0.970031 0.395173
v 0.347668 1.036502 0.361131
v 0.373743 1.090729 0.319422
v 0.278978 1.000564 0.419498
v 0.291511 1.072754 0.375645
v 0.310329 1.128507 0.330873
v 0.448197 1.083394 0.183183
v 0.432269 1.084264 0.118519
v 0.428974 1.090566 0.060160
v 0.381197 1.138614 0.189133
v 0.375307 1.147987 0.122701
v 0.376383 1.157108 0.061320
v 0.329331 1.198683 0.199106
v 0.342665 1.226036 0.131218
v 0.325062 1.215648 0.063959
v 0.398101 1.067011 -0.050763
v 0.410411 1.065926 -0.113769
v 0.389942 1.034839 -0.163246
v 0.349307 1.132977 -0.052938
v 0.343128 1.115545 -0.109556
v 0.339401 1.093283 -0.165683
v 0.300918 1.189483 -0.055695
v 0.306595 1.180969 -0.118567
v 0.292098 1.146982 -0.171306
v 0.380911 0.981124 -0.272173
v 0.381589 0.951546 -0.328412
v 0.369971 0.905754 -0.372711
v 0.339060 1.038944 -0.283274
v 0.333905 0.996953 -0.338694
v 0.322239 0.941205 -0.382664
v 0.286490 1.078342 -0.289312
v 0.285466 1.033944 -0.350169
v 0.274332 0.970502 -0.396818
v 0.182234 1.149964 -0.318059
v 0.176052 1.087919 -0.374147
v 0.175750 1.021723 -0.434633
v 0.133808 1.186236 -0.344031
v 0.125272 1.111671 -0.392209
v 0.128523 1.045553 -0.460713
v 0.068744 1.191059 -0.344816
v 0.069972 1.123246 -0.402481
v 0.069745 1.053624 -0.465731
v -0.051350 1.177944 -0.329363
v -0.042585 1.103370 -0.371089
v -0.041779 1.032667 -0.426196
v -0.106515 1.149712 -0.307398
v -0.105265 1.092999 -0.366834
v -0.096722 1.015933 -0.408188
v -0.174061 1.135372 -0.311447
v -0.151817 1.061820 -0.341046
v -0.154771 1.001884 -0.403224
v -0.263044 1.045299 -0.267982
v -0.253491 0.998149 -0.319099
v -0.256819 0.952575 -0.381752
v -0.304619 0.989287 -0.252382
v -0.295900 0.949696 -0.303039
v -0.293380 0.907665 -0.357760
v -0.355334 0.931586 -0.248088
v -0.369638 0.923080 -0.313861
v -0.346766 0.875657 -0.352640
v -0.329456 1.160404 -0.051617
v -0.303818 1.135927 -0.108418
v -0.282221 1.108009 -0.160894
v -0.357249 1.078765 -0.046086
v -0.364809 1.079866 -0.109493
v -0.347621 1.059498 -0.163315
v -0.415306 1.007567 -0.046487
v -0.398683 0.996985 -0.100416
v -0.385696 0.982805 -0.153633
v -0.279265 1.074386 0.170301
v -0.286671 1.101430 0.117222
v -0.300009 1.126818 0.063812
v -0.334299 1.015177 0.167274
v -0.343817 1.041051 0.116192
v -0.359903 1.067370 0.065180
v -0.403767 0.960614 0.173156
v -0.406828 0.975658 0.117428
v -0.414625 0.991791 0.066037
v -0.244877 0.898928 0.362705
v -0.264682 0.959838 0.332340
v -0.265088 0.998165 0.275152
v -0.280789 0.859231 0.341123
v -0.300700 0.914646 0.309919
v -0.328877 0.961969 0.278580
v -0.310549 0.812715 0.319729
v -0.344516 0.860464 0.301874
v -0.360968 0.899144 0.260006
v -0.056369 1.010171 0.431508
v -0.062446 1.086712 0.380377
v -0.056592 1.136894 0.309503
v -0.105320 0.982608 0.408659
v -0.110776 1.054168 0.359081
v -0.112755 1.113825 0.302639
v -0.165956 0.966698 0.411291
v -0.160974 1.024255 0.346903
v -0.165468 1.083292 0.294749
v 0.166821 1.037598 0.451992
v 0.179715 1.118986 0.414268
v 0.188406 1.176845 0.346075
v 0.111344 1.046143 0.468946
v 0.118676 1.111709 0.400201
v 0.123432 1.182921 0.344289
v 0.050018 1.047401 0.469291
v 0.053617 1.115514 0.401591
v 0.060432 1.169751 0.329020
s 0
f 675 679 678
f 676 680 679
f 678 682 681
f 679 683 682
f 45 675 249
f 243 676 675
f 245 676 244
f 46 677 245
f 677 253 680
f 680 254 683
f 683 49 260
f 683 259 682
f 681 259 258
f 681 48 251
f 250 681 251
f 249 678 250
f 685 687 684
f 686 688 685
f 688 690 687
f 689 691 688
f 246 252 46
f 247 684 246
f 248 685 247
f 47 686 248
f 255 689 686
f 256 692 689
f 692 50 263
f 692 262 691
f 691 261 690
f 254 261 49
f 253 690 254
f 684 253 252
f 694 696 693
f 694 698 697
f 697 699 696
f 697 701 700
f 48 693 264
f 258 694 693
f 260 694 259
f 49 695 260
f 695 268 698
f 698 269 701
f 701 52 275
f 701 274 700
f 700 273 699
f 699 51 266
f 696 266 265
f 693 265 264
f 702 706 705
f 703 707 706
f 705 709 708
f 706 710 709
f 261 267 49
f 262 702 261
f 262 704 703
f 50 704 263
f 704 271 707
f 707 272 710
f 710 53 278
f 709 278 277
f 708 277 276
f 269 276 52
f 268 708 269
f 267 705 268
f 711 715 714
f 712 716 715
f 714 718 717
f 715 719 718
f 1 711 111
f 123 712 711
f 124 713 712
f 125 279 713
f 713 280 716
f 716 281 719
f 719 45 314
f 718 314 313
f 717 313 312
f 113 312 12
f 112 717 113
f 111 714 112
f 720 724 723
f 721 725 724
f 723 727 726
f 725 727 724
f 15 720 279
f 126 721 720
f 127 722 721
f 128 282 722
f 282 725 722
f 725 284 728
f 284 245 728
f 727 245 244
f 726 244 243
f 281 243 45
f 280 726 281
f 279 723 280
f 730 732 729
f 731 733 730
f 733 735 732
f 734 736 733
f 129 282 16
f 130 729 129
f 131 730 130
f 17 731 131
f 285 734 731
f 286 737 734
f 287 248 737
f 737 247 736
f 736 246 735
f 735 46 284
f 732 284 283
f 282 732 283
f 739 741 738
f 740 742 739
f 742 744 741
f 743 745 742
f 132 285 17
f 133 738 132
f 134 739 133
f 3 740 134
f 99 743 740
f 100 746 743
f 101 288 746
f 746 289 745
f 745 290 744
f 744 47 287
f 741 287 286
f 738 286 285
f 748 750 747
f 749 751 748
f 751 753 750
f 752 754 751
f 290 255 47
f 289 747 290
f 288 748 289
f 9 749 288
f 102 752 749
f 103 755 752
f 755 10 291
f 754 291 292
f 754 293 753
f 753 50 257
f 750 257 256
f 747 256 255
f 756 760 759
f 758 760 757
f 759 763 762
f 760 764 763
f 50 756 270
f 293 757 756
f 292 758 757
f 291 105 758
f 105 761 758
f 106 764 761
f 764 11 294
f 763 294 295
f 762 295 296
f 272 296 53
f 271 762 272
f 270 759 271
f 765 769 768
f 766 770 769
f 768 772 771
f 769 773 772
f 53 765 299
f 296 766 765
f 295 767 766
f 294 108 767
f 767 109 770
f 770 110 773
f 773 4 146
f 772 146 145
f 771 145 144
f 297 144 20
f 298 771 297
f 299 768 298
f 774 778 777
f 775 779 778
f 777 781 780
f 778 782 781
f 52 774 302
f 276 775 774
f 277 776 775
f 278 299 776
f 776 298 779
f 779 297 782
f 782 20 143
f 781 143 142
f 780 142 141
f 300 141 19
f 301 780 300
f 302 777 301
f 784 786 783
f 785 787 784
f 787 789 786
f 788 790 787
f 273 305 51
f 274 783 273
f 275 784 274
f 275 302 785
f 302 788 785
f 788 300 791
f 791 19 140
f 790 140 139
f 790 138 789
f 789 18 303
f 786 303 304
f 783 304 305
f 793 795 792
f 794 796 793
f 796 798 795
f 797 799 796
f 306 120 14
f 307 792 306
f 308 793 307
f 51 794 308
f 305 797 794
f 304 800 797
f 303 137 800
f 800 136 799
f 799 135 798
f 798 2 122
f 795 122 121
f 792 121 120
f 801 805 804
f 802 806 805
f 805 807 804
f 805 809 808
f 13 801 117
f 309 802 801
f 311 802 310
f 48 803 311
f 264 806 803
f 265 809 806
f 266 308 809
f 809 307 808
f 808 306 807
f 807 14 119
f 118 807 119
f 117 804 118
f 810 814 813
f 811 815 814
f 813 817 816
f 814 818 817
f 12 810 114
f 312 811 810
f 313 812 811
f 314 249 812
f 812 250 815
f 815 251 818
f 818 48 311
f 817 311 310
f 816 310 309
f 116 309 13
f 115 816 116
f 114 813 115
f 819 823 822
f 821 823 820
f 823 825 822
f 824 826 823
f 315 321 54
f 316 819 315
f 317 820 316
f 55 821 317
f 324 824 821
f 325 827 824
f 827 58 332
f 827 331 826
f 826 330 825
f 825 57 323
f 822 323 322
f 819 322 321
f 828 832 831
f 830 832 829
f 832 834 831
f 833 835 832
f 318 324 55
f 319 828 318
f 320 829 319
f 56 830 320
f 327 833 830
f 328 836 833
f 329 335 836
f 836 334 835
f 834 334 333
f 834 58 326
f 325 834 326
f 828 325 324
f 838 840 837
f 839 841 838
f 841 843 840
f 842 844 841
f 330 336 57
f 331 837 330
f 332 838 331
f 58 839 332
f 339 842 839
f 340 845 842
f 341 347 845
f 845 346 844
f 844 345 843
f 843 60 338
f 840 338 337
f 837 337 336
f 846 850 849
f 847 851 850
f 849 853 852
f 850 854 853
f 58 846 339
f 333 847 846
f 334 848 847
f 59 848 335
f 342 851 848
f 851 344 854
f 854 62 350
f 853 350 349
f 852 349 348
f 852 61 341
f 340 852 341
f 339 849 340
f 855 859 858
f 856 860 859
f 858 862 861
f 859 863 862
f 1 855 147
f 111 856 855
f 112 857 856
f 12 857 113
f 857 352 860
f 860 353 863
f 863 54 386
f 862 386 385
f 861 385 384
f 149 384 21
f 148 861 149
f 147 858 148
f 864 868 867
f 866 868 865
f 867 871 870
f 869 871 868
f 114 351 12
f 115 864 114
f 116 865 115
f 116 354 866
f 866 355 869
f 355 872 869
f 356 317 872
f 872 316 871
f 871 315 870
f 353 315 54
f 352 870 353
f 351 867 352
f 874 876 873
f 875 877 874
f 877 879 876
f 878 880 877
f 117 354 13
f 118 873 117
f 119 874 118
f 14 875 119
f 357 878 875
f 358 881 878
f 359 320 881
f 881 319 880
f 880 318 879
f 879 55 356
f 876 356 355
f 873 355 354
f 883 885 882
f 884 886 883
f 886 888 885
f 887 889 886
f 120 357 14
f 121 882 120
f 122 883 121
f 2 884 122
f 159 887 884
f 160 890 887
f 161 360 890
f 890 361 889
f 889 362 888
f 888 56 359
f 885 359 358
f 882 358 357
f 892 894 891
f 893 895 892
f 895 897 894
f 896 898 895
f 362 327 56
f 361 891 362
f 360 892 361
f 24 893 360
f 162 896 893
f 163 899 896
f 164 363 899
f 899 364 898
f 898 365 897
f 897 59 329
f 894 329 328
f 891 328 327
f 900 904 903
f 901 905 904
f 903 907 906
f 904 908 907
f 365 342 59
f 364 900 365
f 363 901 364
f 363 165 902
f 902 166 905
f 905 167 908
f 908 26 366
f 907 366 367
f 906 367 368
f 344 368 62
f 343 906 344
f 342 903 343
f 909 913 912
f 910 914 913
f 912 916 915
f 913 917 916
f 62 909 371
f 368 910 909
f 367 911 910
f 366 168 911
f 911 169 914
f 914 170 917
f 917 6 230
f 916 230 229
f 916 228 915
f 915 41 369
f 370 915 369
f 371 912 370
f 919 921 918
f 919 923 922
f 922 924 921
f 922 926 925
f 61 918 374
f 349 918 348
f 349 920 919
f 350 371 920
f 920 370 923
f 923 369 926
f 369 227 926
f 926 226 925
f 925 225 924
f 924 40 372
f 921 372 373
f 918 373 374
f 928 930 927
f 929 931 928
f 931 933 930
f 932 934 931
f 345 377 60
f 346 927 345
f 347 928 346
f 61 929 347
f 374 932 929
f 373 935 932
f 935 40 224
f 935 223 934
f 934 222 933
f 933 39 375
f 930 375 376
f 927 376 377
f 937 939 936
f 938 940 937
f 940 942 939
f 941 943 940
f 378 156 23
f 379 936 378
f 380 937 379
f 60 938 380
f 377 941 938
f 376 944 941
f 375 221 944
f 944 220 943
f 943 219 942
f 942 5 158
f 939 158 157
f 936 157 156
f 946 948 945
f 947 949 946
f 949 951 948
f 950 952 949
f 381 153 22
f 382 945 381
f 383 946 382
f 57 947 383
f 336 950 947
f 337 953 950
f 338 380 953
f 953 379 952
f 952 378 951
f 951 23 155
f 948 155 154
f 945 154 153
f 954 958 957
f 955 959 958
f 958 960 957
f 959 961 958
f 21 954 150
f 384 955 954
f 385 956 955
f 54 956 386
f 321 959 956
f 322 962 959
f 323 383 962
f 962 382 961
f 961 381 960
f 960 22 152
f 957 152 151
f 150 957 151
f 964 966 963
f 964 968 967
f 967 969 966
f 967 971 970
f 387 393 63
f 388 963 387
f 388 965 964
f 389 396 965
f 965 397 968
f 968 398 971
f 398 404 971
f 971 403 970
f 969 403 402
f 969 66 395
f 394 969 395
f 963 394 393
f 972 976 975
f 973 977 976
f 975 979 978
f 976 980 979
f 64 972 396
f 390 973 972
f 391 974 973
f 392 399 974
f 974 400 977
f 400 980 977
f 401 407 980
f 980 406 979
f 979 405 978
f 398 405 67
f 397 978 398
f 396 975 397
f 981 985 984
f 983 985 982
f 984 988 987
f 986 988 985
f 66 981 408
f 402 982 981
f 403 983 982
f 67 983 404
f 411 986 983
f 412 989 986
f 413 419 989
f 989 418 988
f 987 418 417
f 410 417 69
f 409 987 410
f 408 984 409
f 991 993 990
f 992 994 991
f 994 996 993
f 994 998 997
f 405 411 67
f 405 991 990
f 406 992 991
f 407 414 992
f 992 415 995
f 415 998 995
f 998 71 422
f 998 421 997
f 997 420 996
f 996 70 413
f 993 413 412
f 411 993 412
f 1000 1002 999
f 1001 1003 1000
f 1003 1005 1002
f 1004 1006 1003
f 147 123 1
f 148 999 147
f 149 1000 148
f 21 1001 149
f 423 1004 1001
f 424 1007 1004
f 425 458 1007
f 1007 457 1006
f 1006 456 1005
f 1005 15 125
f 1002 125 124
f 999 124 123
f 1008 1012 1011
f 1009 1013 1012
f 1011 1015 1014
f 1012 1016 1015
f 150 423 21
f 151 1008 150
f 151 1010 1009
f 152 426 1010
f 1010 427 1013
f 1013 428 1016
f 1016 64 389
f 1015 389 388
f 1015 387 1014
f 1014 63 425
f 424 1014 425
f 1008 424 423
f 1017 1021 1020
f 1018 1022 1021
f 1020 1024 1023
f 1021 1025 1024
f 22 1017 426
f 153 1018 1017
f 154 1019 1018
f 155 429 1019
f 1019 430 1022
f 1022 431 1025
f 1025 65 392
f 1024 392 391
f 1023 391 390
f 428 390 64
f 427 1023 428
f 426 1020 427
f 1026 1030 1029
f 1027 1031 1030
f 1029 1033 1032
f 1030 1034 1033
f 23 1026 429
f 156 1027 1026
f 157 1028 1027
f 158 171 1028
f 1028 172 1031
f 1031 173 1034
f 1034 27 432
f 1033 432 433
f 1032 433 434
f 431 434 65
f 430 1032 431
f 429 1029 430
f 1035 1039 1038
f 1036 1040 1039
f 1038 1042 1041
f 1039 1043 1042
f 65 1035 399
f 434 1036 1035
f 433 1037 1036
f 432 174 1037
f 1037 175 1040
f 1040 176 1043
f 1043 28 435
f 1042 435 436
f 1041 436 437
f 401 437 68
f 400 1041 401
f 399 1038 400
f 1045 1047 1044
f 1046 1048 1045
f 1048 1050 1047
f 1049 1051 1048
f 68 1044 414
f 437 1045 1044
f 436 1046 1045
f 435 177 1046
f 177 1049 1046
f 178 1052 1049
f 179 438 1052
f 1052 439 1051
f 1051 440 1050
f 1050 71 416
f 415 1050 416
f 414 1047 415
f 1054 1056 1053
f 1055 1057 1054
f 1057 1059 1056
f 1058 1060 1057
f 440 443 71
f 439 1053 440
f 438 1054 439
f 29 1055 438
f 180 1058 1055
f 181 1061 1058
f 182 218 1061
f 1061 217 1060
f 1060 216 1059
f 1059 38 441
f 1056 441 442
f 1053 442 443
f 1063 1065 1062
f 1064 1066 1063
f 1066 1068 1065
f 1067 1069 1066
f 420 446 70
f 421 1062 420
f 422 1063 421
f 71 1064 422
f 443 1067 1064
f 442 1070 1067
f 441 215 1070
f 1070 214 1069
f 1069 213 1068
f 1068 37 444
f 1065 444 445
f 1062 445 446
f 1071 1075 1074
f 1073 1075 1072
f 1074 1078 1077
f 1075 1079 1078
f 69 1071 449
f 417 1072 1071
f 418 1073 1072
f 70 1073 419
f 446 1076 1073
f 445 1079 1076
f 444 212 1079
f 1079 211 1078
f 1077 211 210
f 447 210 36
f 448 1077 447
f 449 1074 448
f 1080 1084 1083
f 1081 1085 1084
f 1083 1087 1086
f 1084 1088 1087
f 17 1080 132
f 450 1081 1080
f 451 1082 1081
f 452 449 1082
f 1082 448 1085
f 1085 447 1088
f 1088 36 209
f 1087 209 208
f 1086 208 207
f 134 207 3
f 133 1086 134
f 132 1083 133
f 1089 1093 1092
f 1090 1094 1093
f 1092 1096 1095
f 1093 1097 1096
f 16 1089 129
f 453 1090 1089
f 454 1091 1090
f 455 408 1091
f 1091 409 1094
f 1094 410 1097
f 1097 69 452
f 1096 452 451
f 1095 451 450
f 131 450 17
f 130 1095 131
f 129 1092 130
f 1099 1101 1098
f 1100 1102 1099
f 1102 1104 1101
f 1103 1105 1102
f 456 126 15
f 457 1098 456
f 458 1099 457
f 63 1100 458
f 393 1103 1100
f 394 1106 1103
f 1106 66 455
f 1106 454 1105
f 1105 453 1104
f 1104 16 128
f 1101 128 127
f 1098 127 126
f 1107 1111 1110
f 1108 1112 1111
f 1111 1113 1110
f 1111 1115 1114
f 72 1107 465
f 459 1108 1107
f 460 1109 1108
f 461 468 1109
f 1109 469 1112
f 469 1115 1112
f 1115 76 476
f 1115 475 1114
f 1113 475 474
f 467 474 75
f 466 1113 467
f 465 1110 466
f 1116 1120 1119
f 1118 1120 1117
f 1120 1122 1119
f 1120 1124 1123
f 462 468 73
f 462 1117 1116
f 463 1118 1117
f 74 1118 464
f 471 1121 1118
f 472 1124 1121
f 1124 77 479
f 1123 479 478
f 1123 477 1122
f 470 477 76
f 469 1122 470
f 468 1119 469
f 1126 1128 1125
f 1127 1129 1126
f 1129 1131 1128
f 1130 1132 1129
f 474 480 75
f 475 1125 474
f 476 1126 475
f 476 483 1127
f 1127 484 1130
f 1130 485 1133
f 485 491 1133
f 1133 490 1132
f 1132 489 1131
f 1131 78 482
f 1128 482 481
f 1125 481 480
f 1135 1137 1134
f 1135 1139 1138
f 1137 1141 1140
f 1138 1142 1141
f 76 1134 483
f 478 1134 477
f 479 1135 478
f 479 486 1136
f 1136 487 1139
f 1139 488 1142
f 1142 80 494
f 1141 494 493
f 1140 493 492
f 485 492 79
f 484 1140 485
f 483 1137 484
f 1143 1147 1146
f 1144 1148 1147
f 1146 1150 1149
f 1147 1151 1150
f 8 1143 206
f 194 1144 1143
f 193 1145 1144
f 192 495 1145
f 1145 496 1148
f 1148 497 1151
f 1151 72 530
f 1150 530 529
f 1149 529 528
f 204 528 35
f 205 1149 204
f 206 1146 205
f 1152 1156 1155
f 1153 1157 1156
f 1155 1159 1158
f 1156 1160 1159
f 32 1152 495
f 191 1153 1152
f 189 1153 190
f 31 1154 189
f 1154 499 1157
f 1157 500 1160
f 500 461 1160
f 1159 461 460
f 1158 460 459
f 497 459 72
f 496 1158 497
f 495 1155 496
f 1161 1165 1164
f 1163 1165 1162
f 1164 1168 1167
f 1165 1169 1168
f 31 1161 498
f 188 1162 1161
f 187 1163 1162
f 186 501 1163
f 501 1166 1163
f 502 1169 1166
f 1169 74 464
f 1169 463 1168
f 1167 463 462
f 500 462 73
f 1164 500 499
f 498 1164 499
f 1171 1173 1170
f 1172 1174 1171
f 1174 1176 1173
f 1175 1177 1174
f 185 501 30
f 184 1170 185
f 183 1171 184
f 7 1172 183
f 182 1175 1172
f 181 1178 1175
f 180 504 1178
f 1178 505 1177
f 1177 506 1176
f 1176 74 503
f 1173 503 502
f 1170 502 501
f 1180 1182 1179
f 1181 1183 1180
f 1183 1185 1182
f 1184 1186 1183
f 506 471 74
f 505 1179 506
f 504 1180 505
f 29 1181 504
f 179 1184 1181
f 178 1187 1184
f 1187 28 507
f 1186 507 508
f 1185 508 509
f 473 509 77
f 1182 473 472
f 1179 472 471
f 1188 1192 1191
f 1189 1193 1192
f 1191 1195 1194
f 1192 1196 1195
f 77 1188 486
f 509 1189 1188
f 508 1190 1189
f 507 176 1190
f 1190 175 1193
f 1193 174 1196
f 1196 27 510
f 1195 510 511
f 1194 511 512
f 488 512 80
f 487 1194 488
f 486 1191 487
f 1197 1201 1200
f 1198 1202 1201
f 1200 1204 1203
f 1201 1205 1204
f 80 1197 515
f 512 1198 1197
f 511 1199 1198
f 510 173 1199
f 1199 172 1202
f 1202 171 1205
f 1205 5 219
f 1204 219 220
f 1203 220 221
f 513 221 39
f 514 1203 513
f 515 1200 514
f 1206 1210 1209
f 1207 1211 1210
f 1209 1213 1212
f 1210 1214 1213
f 79 1206 518
f 492 1207 1206
f 493 1208 1207
f 494 515 1208
f 1208 514 1211
f 1211 513 1214
f 1214 39 222
f 1213 222 223
f 1212 223 224
f 516 224 40
f 517 1212 516
f 518 1209 517
f 1216 1218 1215
f 1217 1219 1216
f 1219 1221 1218
f 1220 1222 1219
f 489 521 78
f 490 1215 489
f 491 1216 490
f 79 1217 491
f 518 1220 1217
f 517 1223 1220
f 516 225 1223
f 1223 226 1222
f 1222 227 1221
f 1221 41 519
f 1218 519 520
f 1215 520 521
f 1225 1227 1224
f 1226 1228 1225
f 1228 1230 1227
f 1229 1231 1228
f 522 197 33
f 523 1224 522
f 524 1225 523
f 78 1226 524
f 521 1229 1226
f 520 1232 1229
f 519 228 1232
f 1232 229 1231
f 1231 230 1230
f 1230 6 195
f 1227 195 196
f 1224 196 197
f 1234 1236 1233
f 1235 1237 1234
f 1237 1239 1236
f 1238 1240 1237
f 525 200 34
f 526 1233 525
f 527 1234 526
f 75 1235 527
f 480 1238 1235
f 481 1241 1238
f 482 524 1241
f 1241 523 1240
f 1240 522 1239
f 1239 33 198
f 1236 198 199
f 1233 199 200
f 1242 1246 1245
f 1243 1247 1246
f 1245 1249 1248
f 1246 1250 1249
f 35 1242 203
f 528 1243 1242
f 529 1244 1243
f 530 465 1244
f 1244 466 1247
f 1247 467 1250
f 1250 75 527
f 1249 527 526
f 1249 525 1248
f 201 525 34
f 1245 201 202
f 203 1245 202
f 1251 1255 1254
f 1253 1255 1252
f 1255 1257 1254
f 1255 1259 1258
f 81 1251 537
f 532 1251 531
f 533 1252 532
f 82 1253 533
f 540 1256 1253
f 541 1259 1256
f 542 548 1259
f 1259 547 1258
f 1258 546 1257
f 1257 84 539
f 538 1257 539
f 1251 538 537
f 1261 1263 1260
f 1262 1264 1261
f 1264 1266 1263
f 1265 1267 1264
f 534 540 82
f 535 1260 534
f 536 1261 535
f 83 1262 536
f 543 1265 1262
f 544 1268 1265
f 545 551 1268
f 1268 550 1267
f 1266 550 549
f 1266 85 542
f 1263 542 541
f 1260 541 540
f 1270 1272 1269
f 1271 1273 1270
f 1273 1275 1272
f 1274 1276 1273
f 546 552 84
f 547 1269 546
f 548 1270 547
f 85 1271 548
f 555 1274 1271
f 556 1277 1274
f 1277 88 563
f 1277 562 1276
f 1276 561 1275
f 1275 87 554
f 1272 554 553
f 1269 553 552
f 1279 1281 1278
f 1279 1283 1282
f 1281 1285 1284
f 1283 1285 1282
f 549 555 85
f 550 1278 549
f 551 1279 550
f 86 1280 551
f 1280 559 1283
f 1283 560 1286
f 1286 89 566
f 1285 566 565
f 1284 565 564
f 557 564 88
f 556 1284 557
f 1278 556 555
f 1287 1291 1290
f 1288 1292 1291
f 1290 1294 1293
f 1291 1295 1294
f 8 1287 194
f 242 1288 1287
f 241 1289 1288
f 240 567 1289
f 1289 568 1292
f 1292 569 1295
f 1295 81 602
f 1294 602 601
f 1293 601 600
f 1293 32 192
f 193 1293 192
f 194 1290 193
f 1296 1300 1299
f 1298 1300 1297
f 1299 1303 1302
f 1300 1304 1303
f 44 1296 567
f 239 1297 1296
f 238 1298 1297
f 43 1298 237
f 570 1301 1298
f 571 1304 1301
f 572 533 1304
f 1304 532 1303
f 1302 532 531
f 569 531 81
f 568 1302 569
f 567 1299 568
f 1306 1308 1305
f 1307 1309 1306
f 1309 1311 1308
f 1310 1312 1309
f 236 570 43
f 235 1305 236
f 234 1306 235
f 42 1307 234
f 573 1310 1307
f 574 1313 1310
f 575 536 1313
f 1313 535 1312
f 1312 534 1311
f 1311 82 572
f 1308 572 571
f 1305 571 570
f 1315 1317 1314
f 1316 1318 1315
f 1318 1320 1317
f 1319 1321 1318
f 233 573 42
f 232 1314 233
f 231 1315 232
f 4 1316 231
f 110 1319 1316
f 109 1322 1319
f 108 576 1322
f 1322 577 1321
f 1321 578 1320
f 1320 83 575
f 1317 575 574
f 1314 574 573
f 1324 1326 1323
f 1325 1327 1324
f 1327 1329 1326
f 1328 1330 1327
f 578 543 83
f 577 1323 578
f 576 1324 577
f 11 1325 576
f 107 1328 1325
f 106 1331 1328
f 105 579 1331
f 1331 580 1330
f 1330 581 1329
f 1329 86 545
f 1326 545 544
f 1323 544 543
f 1333 1335 1332
f 1334 1336 1333
f 1336 1338 1335
f 1337 1339 1336
f 86 1332 558
f 581 1333 1332
f 580 1334 1333
f 10 1334 579
f 104 1337 1334
f 103 1340 1337
f 102 582 1340
f 1340 583 1339
f 1338 583 584
f 560 584 89
f 559 1338 560
f 1332 559 558
f 1341 1345 1344
f 1342 1346 1345
f 1344 1348 1347
f 1345 1349 1348
f 89 1341 587
f 584 1342 1341
f 583 1343 1342
f 582 101 1343
f 1343 100 1346
f 1346 99 1349
f 1349 3 207
f 1348 207 208
f 1347 208 209
f 585 209 36
f 586 1347 585
f 587 1344 586
f 1350 1354 1353
f 1351 1355 1354
f 1353 1357 1356
f 1354 1358 1357
f 88 1350 590
f 564 1351 1350
f 565 1352 1351
f 566 587 1352
f 1352 586 1355
f 1355 585 1358
f 1358 36 210
f 1357 210 211
f 1356 211 212
f 1356 37 588
f 589 1356 588
f 1350 589 590
f 1360 1362 1359
f 1361 1363 1360
f 1363 1365 1362
f 1364 1366 1363
f 561 593 87
f 562 1359 561
f 563 1360 562
f 88 1361 563
f 1361 589 1364
f 1364 588 1367
f 588 213 1367
f 1366 213 214
f 1366 215 1365
f 1365 38 591
f 1362 591 592
f 1359 592 593
f 1369 1371 1368
f 1370 1372 1369
f 1372 1374 1371
f 1373 1375 1372
f 594 185 30
f 595 1368 594
f 596 1369 595
f 87 1370 596
f 593 1373 1370
f 592 1376 1373
f 591 216 1376
f 1376 217 1375
f 1375 218 1374
f 1374 7 183
f 1371 183 184
f 1368 184 185
f 1378 1380 1377
f 1379 1381 1378
f 1381 1383 1380
f 1382 1384 1381
f 597 188 31
f 598 1377 597
f 599 1378 598
f 84 1379 599
f 552 1382 1379
f 553 1385 1382
f 554 596 1385
f 1385 595 1384
f 1384 594 1383
f 1383 30 186
f 1380 186 187
f 1377 187 188
f 1387 1389 1386
f 1387 1391 1390
f 1389 1393 1392
f 1390 1394 1393
f 600 191 32
f 600 1387 1386
f 601 1388 1387
f 602 537 1388
f 1388 538 1391
f 538 1394 1391
f 539 599 1394
f 1394 598 1393
f 1392 598 597
f 189 597 31
f 190 1392 189
f 1386 190 191
f 1395 1399 1398
f 1396 1400 1399
f 1398 1402 1401
f 1399 1403 1402
f 90 1395 609
f 604 1395 603
f 604 1397 1396
f 605 612 1397
f 1397 613 1400
f 1400 614 1403
f 1403 94 620
f 1402 620 619
f 1401 619 618
f 611 618 93
f 610 1401 611
f 1395 610 609
f 1404 1408 1407
f 1406 1408 1405
f 1407 1411 1410
f 1409 1411 1408
f 606 612 91
f 606 1405 1404
f 607 1406 1405
f 608 615 1406
f 1406 616 1409
f 1409 617 1412
f 1412 95 623
f 1411 623 622
f 1411 621 1410
f 1410 94 614
f 613 1410 614
f 612 1407 613
f 1413 1417 1416
f 1414 1418 1417
f 1416 1420 1419
f 1417 1421 1420
f 93 1413 624
f 618 1414 1413
f 619 1415 1414
f 620 627 1415
f 1415 628 1418
f 1418 629 1421
f 1421 97 635
f 1420 635 634
f 1419 634 633
f 626 633 96
f 625 1419 626
f 624 1416 625
f 1422 1426 1425
f 1423 1427 1426
f 1425 1429 1428
f 1427 1429 1426
f 621 627 94
f 621 1423 1422
f 622 1424 1423
f 623 630 1424
f 630 1427 1424
f 631 1430 1427
f 632 638 1430
f 1430 637 1429
f 1428 637 636
f 629 636 97
f 628 1428 629
f 627 1425 628
f 1432 1434 1431
f 1433 1435 1432
f 1435 1437 1434
f 1436 1438 1435
f 206 242 8
f 205 1431 206
f 204 1432 205
f 35 1433 204
f 639 1436 1433
f 640 1439 1436
f 641 674 1439
f 1438 674 673
f 1438 672 1437
f 1437 44 240
f 1434 240 241
f 1431 241 242
f 1441 1443 1440
f 1442 1444 1441
f 1444 1446 1443
f 1444 1448 1447
f 203 639 35
f 202 1440 203
f 201 1441 202
f 34 1442 201
f 642 1445 1442
f 643 1448 1445
f 1448 91 605
f 1448 604 1447
f 1446 604 603
f 1446 90 641
f 1443 641 640
f 1440 640 639
f 1449 1453 1452
f 1450 1454 1453
f 1452 1456 1455
f 1453 1457 1456
f 34 1449 642
f 200 1450 1449
f 199 1451 1450
f 198 645 1451
f 1451 646 1454
f 1454 647 1457
f 1457 92 608
f 1456 608 607
f 1455 607 606
f 644 606 91
f 643 1455 644
f 642 1452 643
f 1458 1462 1461
f 1459 1463 1462
f 1461 1465 1464
f 1462 1466 1465
f 33 1458 645
f 197 1459 1458
f 196 1460 1459
f 195 170 1460
f 1460 169 1463
f 1463 168 1466
f 1466 26 648
f 1465 648 649
f 1464 649 650
f 647 650 92
f 646 1464 647
f 645 1461 646
f 1467 1471 1470
f 1468 1472 1471
f 1470 1474 1473
f 1471 1475 1474
f 92 1467 615
f 650 1468 1467
f 649 1469 1468
f 648 167 1469
f 1469 166 1472
f 1472 165 1475
f 1475 25 651
f 1474 651 652
f 1473 652 653
f 617 653 95
f 616 1473 617
f 615 1470 616
f 1477 1479 1476
f 1478 1480 1477
f 1480 1482 1479
f 1481 1483 1480
f 95 1476 630
f 653 1477 1476
f 652 1478 1477
f 651 164 1478
f 164 1481 1478
f 163 1484 1481
f 162 654 1484
f 1484 655 1483
f 1483 656 1482
f 1482 98 632
f 1479 632 631
f 1476 631 630
f 1486 1488 1485
f 1487 1489 1486
f 1489 1491 1488
f 1490 1492 1489
f 656 659 98
f 655 1485 656
f 654 1486 655
f 24 1487 654
f 161 1490 1487
f 160 1493 1490
f 159 135 1493
f 1493 136 1492
f 1492 137 1491
f 1491 18 657
f 1488 657 658
f 1485 658 659
f 1495 1497 1494
f 1496 1498 1495
f 1497 1501 1500
f 1499 1501 1498
f 97 1494 662
f 636 1495 1494
f 638 1495 637
f 98 1496 638
f 659 1499 1496
f 658 1502 1499
f 657 138 1502
f 1502 139 1501
f 1500 139 140
f 660 140 19
f 661 1500 660
f 662 1497 661
f 1503 1507 1506
f 1504 1508 1507
f 1506 1510 1509
f 1507 1511 1510
f 96 1503 665
f 633 1504 1503
f 634 1505 1504
f 635 662 1505
f 1505 661 1508
f 1508 660 1511
f 1511 19 141
f 1510 141 142
f 1509 142 143
f 663 143 20
f 664 1509 663
f 665 1506 664
f 1512 1516 1515
f 1513 1517 1516
f 1515 1519 1518
f 1516 1520 1519
f 42 1512 233
f 666 1513 1512
f 667 1514 1513
f 668 665 1514
f 1514 664 1517
f 1517 663 1520
f 1520 20 144
f 1519 144 145
f 1518 145 146
f 231 146 4
f 232 1518 231
f 233 1515 232
f 1521 1525 1524
f 1522 1526 1525
f 1524 1528 1527
f 1525 1529 1528
f 43 1521 236
f 669 1522 1521
f 670 1523 1522
f 671 624 1523
f 1523 625 1526
f 1526 626 1529
f 1529 96 668
f 1528 668 667
f 1527 667 666
f 234 666 42
f 235 1527 234
f 236 1524 235
f 1530 1534 1533
f 1532 1534 1531
f 1533 1537 1536
f 1534 1538 1537
f 672 239 44
f 672 1531 1530
f 673 1532 1531
f 90 1532 674
f 1532 610 1535
f 1535 611 1538
f 1538 93 671
f 1537 671 670
f 1536 670 669
f 237 669 43
f 238 1536 237
f 239 1533 238
f 675 676 679
f 676 677 680
f 678 679 682
f 679 680 683
f 45 243 675
f 243 244 676
f 245 677 676
f 46 252 677
f 677 252 253
f 680 253 254
f 683 254 49
f 683 260 259
f 681 682 259
f 681 258 48
f 250 678 681
f 249 675 678
f 685 688 687
f 686 689 688
f 688 691 690
f 689 692 691
f 246 684 252
f 247 685 684
f 248 686 685
f 47 255 686
f 255 256 689
f 256 257 692
f 692 257 50
f 692 263 262
f 691 262 261
f 254 690 261
f 253 687 690
f 684 687 253
f 694 697 696
f 694 695 698
f 697 700 699
f 697 698 701
f 48 258 693
f 258 259 694
f 260 695 694
f 49 267 695
f 695 267 268
f 698 268 269
f 701 269 52
f 701 275 274
f 700 274 273
f 699 273 51
f 696 699 266
f 693 696 265
f 702 703 706
f 703 704 707
f 705 706 709
f 706 707 710
f 261 702 267
f 262 703 702
f 262 263 704
f 50 270 704
f 704 270 271
f 707 271 272
f 710 272 53
f 709 710 278
f 708 709 277
f 269 708 276
f 268 705 708
f 267 702 705
f 711 712 715
f 712 713 716
f 714 715 718
f 715 716 719
f 1 123 711
f 123 124 712
f 124 125 713
f 125 15 279
f 713 279 280
f 716 280 281
f 719 281 45
f 718 719 314
f 717 718 313
f 113 717 312
f 112 714 717
f 111 711 714
f 720 721 724
f 721 722 725
f 723 724 727
f 725 728 727
f 15 126 720
f 126 127 721
f 127 128 722
f 128 16 282
f 282 283 725
f 725 283 284
f 284 46 245
f 727 728 245
f 726 727 244
f 281 726 243
f 280 723 726
f 279 720 723
f 730 733 732
f 731 734 733
f 733 736 735
f 734 737 736
f 129 729 282
f 130 730 729
f 131 731 730
f 17 285 731
f 285 286 734
f 286 287 737
f 287 47 248
f 737 248 247
f 736 247 246
f 735 246 46
f 732 735 284
f 282 729 732
f 739 742 741
f 740 743 742
f 742 745 744
f 743 746 745
f 132 738 285
f 133 739 738
f 134 740 739
f 3 99 740
f 99 100 743
f 100 101 746
f 101 9 288
f 746 288 289
f 745 289 290
f 744 290 47
f 741 744 287
f 738 741 286
f 748 751 750
f 749 752 751
f 751 754 753
f 752 755 754
f 290 747 255
f 289 748 747
f 288 749 748
f 9 102 749
f 102 103 752
f 103 104 755
f 755 104 10
f 754 755 291
f 754 292 293
f 753 293 50
f 750 753 257
f 747 750 256
f 756 757 760
f 758 761 760
f 759 760 763
f 760 761 764
f 50 293 756
f 293 292 757
f 292 291 758
f 291 10 105
f 105 106 761
f 106 107 764
f 764 107 11
f 763 764 294
f 762 763 295
f 272 762 296
f 271 759 762
f 270 756 759
f 765 766 769
f 766 767 770
f 768 769 772
f 769 770 773
f 53 296 765
f 296 295 766
f 295 294 767
f 294 11 108
f 767 108 109
f 770 109 110
f 773 110 4
f 772 773 146
f 771 772 145
f 297 771 144
f 298 768 771
f 299 765 768
f 774 775 778
f 775 776 779
f 777 778 781
f 778 779 782
f 52 276 774
f 276 277 775
f 277 278 776
f 278 53 299
f 776 299 298
f 779 298 297
f 782 297 20
f 781 782 143
f 780 781 142
f 300 780 141
f 301 777 780
f 302 774 777
f 784 787 786
f 785 788 787
f 787 790 789
f 788 791 790
f 273 783 305
f 274 784 783
f 275 785 784
f 275 52 302
f 302 301 788
f 788 301 300
f 791 300 19
f 790 791 140
f 790 139 138
f 789 138 18
f 786 789 303
f 783 786 304
f 793 796 795
f 794 797 796
f 796 799 798
f 797 800 799
f 306 792 120
f 307 793 792
f 308 794 793
f 51 305 794
f 305 304 797
f 304 303 800
f 303 18 137
f 800 137 136
f 799 136 135
f 798 135 2
f 795 798 122
f 792 795 121
f 801 802 805
f 802 803 806
f 805 808 807
f 805 806 809
f 13 309 801
f 309 310 802
f 311 803 802
f 48 264 803
f 264 265 806
f 265 266 809
f 266 51 308
f 809 308 307
f 808 307 306
f 807 306 14
f 118 804 807
f 117 801 804
f 810 811 814
f 811 812 815
f 813 814 817
f 814 815 818
f 12 312 810
f 312 313 811
f 313 314 812
f 314 45 249
f 812 249 250
f 815 250 251
f 818 251 48
f 817 818 311
f 816 817 310
f 116 816 309
f 115 813 816
f 114 810 813
f 819 820 823
f 821 824 823
f 823 826 825
f 824 827 826
f 315 819 321
f 316 820 819
f 317 821 820
f 55 324 821
f 324 325 824
f 325 326 827
f 827 326 58
f 827 332 331
f 826 331 330
f 825 330 57
f 822 825 323
f 819 822 322
f 828 829 832
f 830 833 832
f 832 835 834
f 833 836 835
f 318 828 324
f 319 829 828
f 320 830 829
f 56 327 830
f 327 328 833
f 328 329 836
f 329 59 335
f 836 335 334
f 834 835 334
f 834 333 58
f 325 831 834
f 828 831 325
f 838 841 840
f 839 842 841
f 841 844 843
f 842 845 844
f 330 837 336
f 331 838 837
f 332 839 838
f 58 339 839
f 339 340 842
f 340 341 845
f 341 61 347
f 845 347 346
f 844 346 345
f 843 345 60
f 840 843 338
f 837 840 337
f 846 847 850
f 847 848 851
f 849 850 853
f 850 851 854
f 58 333 846
f 333 334 847
f 334 335 848
f 59 342 848
f 342 343 851
f 851 343 344
f 854 344 62
f 853 854 350
f 852 853 349
f 852 348 61
f 340 849 852
f 339 846 849
f 855 856 859
f 856 857 860
f 858 859 862
f 859 860 863
f 1 111 855
f 111 112 856
f 112 113 857
f 12 351 857
f 857 351 352
f 860 352 353
f 863 353 54
f 862 863 386
f 861 862 385
f 149 861 384
f 148 858 861
f 147 855 858
f 864 865 868
f 866 869 868
f 867 868 871
f 869 872 871
f 114 864 351
f 115 865 864
f 116 866 865
f 116 13 354
f 866 354 355
f 355 356 872
f 356 55 317
f 872 317 316
f 871 316 315
f 353 870 315
f 352 867 870
f 351 864 867
f 874 877 876
f 875 878 877
f 877 880 879
f 878 881 880
f 117 873 354
f 118 874 873
f 119 875 874
f 14 357 875
f 357 358 878
f 358 359 881
f 359 56 320
f 881 320 319
f 880 319 318
f 879 318 55
f 876 879 356
f 873 876 355
f 883 886 885
f 884 887 886
f 886 889 888
f 887 890 889
f 120 882 357
f 121 883 882
f 122 884 883
f 2 159 884
f 159 160 887
f 160 161 890
f 161 24 360
f 890 360 361
f 889 361 362
f 888 362 56
f 885 888 359
f 882 885 358
f 892 895 894
f 893 896 895
f 895 898 897
f 896 899 898
f 362 891 327
f 361 892 891
f 360 893 892
f 24 162 893
f 162 163 896
f 163 164 899
f 164 25 363
f 899 363 364
f 898 364 365
f 897 365 59
f 894 897 329
f 891 894 328
f 900 901 904
f 901 902 905
f 903 904 907
f 904 905 908
f 365 900 342
f 364 901 900
f 363 902 901
f 363 25 165
f 902 165 166
f 905 166 167
f 908 167 26
f 907 908 366
f 906 907 367
f 344 906 368
f 343 903 906
f 342 900 903
f 909 910 913
f 910 911 914
f 912 913 916
f 913 914 917
f 62 368 909
f 368 367 910
f 367 366 911
f 366 26 168
f 911 168 169
f 914 169 170
f 917 170 6
f 916 917 230
f 916 229 228
f 915 228 41
f 370 912 915
f 371 909 912
f 919 922 921
f 919 920 923
f 922 925 924
f 922 923 926
f 61 348 918
f 349 919 918
f 349 350 920
f 350 62 371
f 920 371 370
f 923 370 369
f 369 41 227
f 926 227 226
f 925 226 225
f 924 225 40
f 921 924 372
f 918 921 373
f 928 931 930
f 929 932 931
f 931 934 933
f 932 935 934
f 345 927 377
f 346 928 927
f 347 929 928
f 61 374 929
f 374 373 932
f 373 372 935
f 935 372 40
f 935 224 223
f 934 223 222
f 933 222 39
f 930 933 375
f 927 930 376
f 937 940 939
f 938 941 940
f 940 943 942
f 941 944 943
f 378 936 156
f 379 937 936
f 380 938 937
f 60 377 938
f 377 376 941
f 376 375 944
f 375 39 221
f 944 221 220
f 943 220 219
f 942 219 5
f 939 942 158
f 936 939 157
f 946 949 948
f 947 950 949
f 949 952 951
f 950 953 952
f 381 945 153
f 382 946 945
f 383 947 946
f 57 336 947
f 336 337 950
f 337 338 953
f 338 60 380
f 953 380 379
f 952 379 378
f 951 378 23
f 948 951 155
f 945 948 154
f 954 955 958
f 955 956 959
f 958 961 960
f 959 962 961
f 21 384 954
f 384 385 955
f 385 386 956
f 54 321 956
f 321 322 959
f 322 323 962
f 323 57 383
f 962 383 382
f 961 382 381
f 960 381 22
f 957 960 152
f 150 954 957
f 964 967 966
f 964 965 968
f 967 970 969
f 967 968 971
f 387 963 393
f 388 964 963
f 388 389 965
f 389 64 396
f 965 396 397
f 968 397 398
f 398 67 404
f 971 404 403
f 969 970 403
f 969 402 66
f 394 966 969
f 963 966 394
f 972 973 976
f 973 974 977
f 975 976 979
f 976 977 980
f 64 390 972
f 390 391 973
f 391 392 974
f 392 65 399
f 974 399 400
f 400 401 980
f 401 68 407
f 980 407 406
f 979 406 405
f 398 978 405
f 397 975 978
f 396 972 975
f 981 982 985
f 983 986 985
f 984 985 988
f 986 989 988
f 66 402 981
f 402 403 982
f 403 404 983
f 67 411 983
f 411 412 986
f 412 413 989
f 413 70 419
f 989 419 418
f 987 988 418
f 410 987 417
f 409 984 987
f 408 981 984
f 991 994 993
f 992 995 994
f 994 997 996
f 994 995 998
f 405 990 411
f 405 406 991
f 406 407 992
f 407 68 414
f 992 414 415
f 415 416 998
f 998 416 71
f 998 422 421
f 997 421 420
f 996 420 70
f 993 996 413
f 411 990 993
f 1000 1003 1002
f 1001 1004 1003
f 1003 1006 1005
f 1004 1007 1006
f 147 999 123
f 148 1000 999
f 149 1001 1000
f 21 423 1001
f 423 424 1004
f 424 425 1007
f 425 63 458
f 1007 458 457
f 1006 457 456
f 1005 456 15
f 1002 1005 125
f 999 1002 124
f 1008 1009 1012
f 1009 1010 1013
f 1011 1012 1015
f 1012 1013 1016
f 150 1008 423
f 151 1009 1008
f 151 152 1010
f 152 22 426
f 1010 426 427
f 1013 427 428
f 1016 428 64
f 1015 1016 389
f 1015 388 387
f 1014 387 63
f 424 1011 1014
f 1008 1011 424
f 1017 1018 1021
f 1018 1019 1022
f 1020 1021 1024
f 1021 1022 1025
f 22 153 1017
f 153 154 1018
f 154 155 1019
f 155 23 429
f 1019 429 430
f 1022 430 431
f 1025 431 65
f 1024 1025 392
f 1023 1024 391
f 428 1023 390
f 427 1020 1023
f 426 1017 1020
f 1026 1027 1030
f 1027 1028 1031
f 1029 1030 1033
f 1030 1031 1034
f 23 156 1026
f 156 157 1027
f 157 158 1028
f 158 5 171
f 1028 171 172
f 1031 172 173
f 1034 173 27
f 1033 1034 432
f 1032 1033 433
f 431 1032 434
f 430 1029 1032
f 429 1026 1029
f 1035 1036 1039
f 1036 1037 1040
f 1038 1039 1042
f 1039 1040 1043
f 65 434 1035
f 434 433 1036
f 433 432 1037
f 432 27 174
f 1037 174 175
f 1040 175 176
f 1043 176 28
f 1042 1043 435
f 1041 1042 436
f 401 1041 437
f 400 1038 1041
f 399 1035 1038
f 1045 1048 1047
f 1046 1049 1048
f 1048 1051 1050
f 1049 1052 1051
f 68 437 1044
f 437 436 1045
f 436 435 1046
f 435 28 177
f 177 178 1049
f 178 179 1052
f 179 29 438
f 1052 438 439
f 1051 439 440
f 1050 440 71
f 415 1047 1050
f 414 1044 1047
f 1054 1057 1056
f 1055 1058 1057
f 1057 1060 1059
f 1058 1061 1060
f 440 1053 443
f 439 1054 1053
f 438 1055 1054
f 29 180 1055
f 180 181 1058
f 181 182 1061
f 182 7 218
f 1061 218 217
f 1060 217 216
f 1059 216 38
f 1056 1059 441
f 1053 1056 442
f 1063 1066 1065
f 1064 1067 1066
f 1066 1069 1068
f 1067 1070 1069
f 420 1062 446
f 421 1063 1062
f 422 1064 1063
f 71 443 1064
f 443 442 1067
f 442 441 1070
f 441 38 215
f 1070 215 214
f 1069 214 213
f 1068 213 37
f 1065 1068 444
f 1062 1065 445
f 1071 1072 1075
f 1073 1076 1075
f 1074 1075 1078
f 1075 1076 1079
f 69 417 1071
f 417 418 1072
f 418 419 1073
f 70 446 1073
f 446 445 1076
f 445 444 1079
f 444 37 212
f 1079 212 211
f 1077 1078 211
f 447 1077 210
f 448 1074 1077
f 449 1071 1074
f 1080 1081 1084
f 1081 1082 1085
f 1083 1084 1087
f 1084 1085 1088
f 17 450 1080
f 450 451 1081
f 451 452 1082
f 452 69 449
f 1082 449 448
f 1085 448 447
f 1088 447 36
f 1087 1088 209
f 1086 1087 208
f 134 1086 207
f 133 1083 1086
f 132 1080 1083
f 1089 1090 1093
f 1090 1091 1094
f 1092 1093 1096
f 1093 1094 1097
f 16 453 1089
f 453 454 1090
f 454 455 1091
f 455 66 408
f 1091 408 409
f 1094 409 410
f 1097 410 69
f 1096 1097 452
f 1095 1096 451
f 131 1095 450
f 130 1092 1095
f 129 1089 1092
f 1099 1102 1101
f 1100 1103 1102
f 1102 1105 1104
f 1103 1106 1105
f 456 1098 126
f 457 1099 1098
f 458 1100 1099
f 63 393 1100
f 393 394 1103
f 394 395 1106
f 1106 395 66
f 1106 455 454
f 1105 454 453
f 1104 453 16
f 1101 1104 128
f 1098 1101 127
f 1107 1108 1111
f 1108 1109 1112
f 1111 1114 1113
f 1111 1112 1115
f 72 459 1107
f 459 460 1108
f 460 461 1109
f 461 73 468
f 1109 468 469
f 469 470 1115
f 1115 470 76
f 1115 476 475
f 1113 1114 475
f 467 1113 474
f 466 1110 1113
f 465 1107 1110
f 1116 1117 1120
f 1118 1121 1120
f 1120 1123 1122
f 1120 1121 1124
f 462 1116 468
f 462 463 1117
f 463 464 1118
f 74 471 1118
f 471 472 1121
f 472 473 1124
f 1124 473 77
f 1123 1124 479
f 1123 478 477
f 470 1122 477
f 469 1119 1122
f 468 1116 1119
f 1126 1129 1128
f 1127 1130 1129
f 1129 1132 1131
f 1130 1133 1132
f 474 1125 480
f 475 1126 1125
f 476 1127 1126
f 476 76 483
f 1127 483 484
f 1130 484 485
f 485 79 491
f 1133 491 490
f 1132 490 489
f 1131 489 78
f 1128 1131 482
f 1125 1128 481
f 1135 1138 1137
f 1135 1136 1139
f 1137 1138 1141
f 1138 1139 1142
f 76 477 1134
f 478 1135 1134
f 479 1136 1135
f 479 77 486
f 1136 486 487
f 1139 487 488
f 1142 488 80
f 1141 1142 494
f 1140 1141 493
f 485 1140 492
f 484 1137 1140
f 483 1134 1137
f 1143 1144 1147
f 1144 1145 1148
f 1146 1147 1150
f 1147 1148 1151
f 8 194 1143
f 194 193 1144
f 193 192 1145
f 192 32 495
f 1145 495 496
f 1148 496 497
f 1151 497 72
f 1150 1151 530
f 1149 1150 529
f 204 1149 528
f 205 1146 1149
f 206 1143 1146
f 1152 1153 1156
f 1153 1154 1157
f 1155 1156 1159
f 1156 1157 1160
f 32 191 1152
f 191 190 1153
f 189 1154 1153
f 31 498 1154
f 1154 498 499
f 1157 499 500
f 500 73 461
f 1159 1160 461
f 1158 1159 460
f 497 1158 459
f 496 1155 1158
f 495 1152 1155
f 1161 1162 1165
f 1163 1166 1165
f 1164 1165 1168
f 1165 1166 1169
f 31 188 1161
f 188 187 1162
f 187 186 1163
f 186 30 501
f 501 502 1166
f 502 503 1169
f 1169 503 74
f 1169 464 463
f 1167 1168 463
f 500 1167 462
f 1164 1167 500
f 498 1161 1164
f 1171 1174 1173
f 1172 1175 1174
f 1174 1177 1176
f 1175 1178 1177
f 185 1170 501
f 184 1171 1170
f 183 1172 1171
f 7 182 1172
f 182 181 1175
f 181 180 1178
f 180 29 504
f 1178 504 505
f 1177 505 506
f 1176 506 74
f 1173 1176 503
f 1170 1173 502
f 1180 1183 1182
f 1181 1184 1183
f 1183 1186 1185
f 1184 1187 1186
f 506 1179 471
f 505 1180 1179
f 504 1181 1180
f 29 179 1181
f 179 178 1184
f 178 177 1187
f 1187 177 28
f 1186 1187 507
f 1185 1186 508
f 473 1185 509
f 1182 1185 473
f 1179 1182 472
f 1188 1189 1192
f 1189 1190 1193
f 1191 1192 1195
f 1192 1193 1196
f 77 509 1188
f 509 508 1189
f 508 507 1190
f 507 28 176
f 1190 176 175
f 1193 175 174
f 1196 174 27
f 1195 1196 510
f 1194 1195 511
f 488 1194 512
f 487 1191 1194
f 486 1188 1191
f 1197 1198 1201
f 1198 1199 1202
f 1200 1201 1204
f 1201 1202 1205
f 80 512 1197
f 512 511 1198
f 511 510 1199
f 510 27 173
f 1199 173 172
f 1202 172 171
f 1205 171 5
f 1204 1205 219
f 1203 1204 220
f 513 1203 221
f 514 1200 1203
f 515 1197 1200
f 1206 1207 1210
f 1207 1208 1211
f 1209 1210 1213
f 1210 1211 1214
f 79 492 1206
f 492 493 1207
f 493 494 1208
f 494 80 515
f 1208 515 514
f 1211 514 513
f 1214 513 39
f 1213 1214 222
f 1212 1213 223
f 516 1212 224
f 517 1209 1212
f 518 1206 1209
f 1216 1219 1218
f 1217 1220 1219
f 1219 1222 1221
f 1220 1223 1222
f 489 1215 521
f 490 1216 1215
f 491 1217 1216
f 79 518 1217
f 518 517 1220
f 517 516 1223
f 516 40 225
f 1223 225 226
f 1222 226 227
f 1221 227 41
f 1218 1221 519
f 1215 1218 520
f 1225 1228 1227
f 1226 1229 1228
f 1228 1231 1230
f 1229 1232 1231
f 522 1224 197
f 523 1225 1224
f 524 1226 1225
f 78 521 1226
f 521 520 1229
f 520 519 1232
f 519 41 228
f 1232 228 229
f 1231 229 230
f 1230 230 6
f 1227 1230 195
f 1224 1227 196
f 1234 1237 1236
f 1235 1238 1237
f 1237 1240 1239
f 1238 1241 1240
f 525 1233 200
f 526 1234 1233
f 527 1235 1234
f 75 480 1235
f 480 481 1238
f 481 482 1241
f 482 78 524
f 1241 524 523
f 1240 523 522
f 1239 522 33
f 1236 1239 198
f 1233 1236 199
f 1242 1243 1246
f 1243 1244 1247
f 1245 1246 1249
f 1246 1247 1250
f 35 528 1242
f 528 529 1243
f 529 530 1244
f 530 72 465
f 1244 465 466
f 1247 466 467
f 1250 467 75
f 1249 1250 527
f 1249 526 525
f 201 1248 525
f 1245 1248 201
f 203 1242 1245
f 1251 1252 1255
f 1253 1256 1255
f 1255 1258 1257
f 1255 1256 1259
f 81 531 1251
f 532 1252 1251
f 533 1253 1252
f 82 540 1253
f 540 541 1256
f 541 542 1259
f 542 85 548
f 1259 548 547
f 1258 547 546
f 1257 546 84
f 538 1254 1257
f 1251 1254 538
f 1261 1264 1263
f 1262 1265 1264
f 1264 1267 1266
f 1265 1268 1267
f 534 1260 540
f 535 1261 1260
f 536 1262 1261
f 83 543 1262
f 543 544 1265
f 544 545 1268
f 545 86 551
f 1268 551 550
f 1266 1267 550
f 1266 549 85
f 1263 1266 542
f 1260 1263 541
f 1270 1273 1272
f 1271 1274 1273
f 1273 1276 1275
f 1274 1277 1276
f 546 1269 552
f 547 1270 1269
f 548 1271 1270
f 85 555 1271
f 555 556 1274
f 556 557 1277
f 1277 557 88
f 1277 563 562
f 1276 562 561
f 1275 561 87
f 1272 1275 554
f 1269 1272 553
f 1279 1282 1281
f 1279 1280 1283
f 1281 1282 1285
f 1283 1286 1285
f 549 1278 555
f 550 1279 1278
f 551 1280 1279
f 86 558 1280
f 1280 558 559
f 1283 559 560
f 1286 560 89
f 1285 1286 566
f 1284 1285 565
f 557 1284 564
f 556 1281 1284
f 1278 1281 556
f 1287 1288 1291
f 1288 1289 1292
f 1290 1291 1294
f 1291 1292 1295
f 8 242 1287
f 242 241 1288
f 241 240 1289
f 240 44 567
f 1289 567 568
f 1292 568 569
f 1295 569 81
f 1294 1295 602
f 1293 1294 601
f 1293 600 32
f 193 1290 1293
f 194 1287 1290
f 1296 1297 1300
f 1298 1301 1300
f 1299 1300 1303
f 1300 1301 1304
f 44 239 1296
f 239 238 1297
f 238 237 1298
f 43 570 1298
f 570 571 1301
f 571 572 1304
f 572 82 533
f 1304 533 532
f 1302 1303 532
f 569 1302 531
f 568 1299 1302
f 567 1296 1299
f 1306 1309 1308
f 1307 1310 1309
f 1309 1312 1311
f 1310 1313 1312
f 236 1305 570
f 235 1306 1305
f 234 1307 1306
f 42 573 1307
f 573 574 1310
f 574 575 1313
f 575 83 536
f 1313 536 535
f 1312 535 534
f 1311 534 82
f 1308 1311 572
f 1305 1308 571
f 1315 1318 1317
f 1316 1319 1318
f 1318 1321 1320
f 1319 1322 1321
f 233 1314 573
f 232 1315 1314
f 231 1316 1315
f 4 110 1316
f 110 109 1319
f 109 108 1322
f 108 11 576
f 1322 576 577
f 1321 577 578
f 1320 578 83
f 1317 1320 575
f 1314 1317 574
f 1324 1327 1326
f 1325 1328 1327
f 1327 1330 1329
f 1328 1331 1330
f 578 1323 543
f 577 1324 1323
f 576 1325 1324
f 11 107 1325
f 107 106 1328
f 106 105 1331
f 105 10 579
f 1331 579 580
f 1330 580 581
f 1329 581 86
f 1326 1329 545
f 1323 1326 544
f 1333 1336 1335
f 1334 1337 1336
f 1336 1339 1338
f 1337 1340 1339
f 86 581 1332
f 581 580 1333
f 580 579 1334
f 10 104 1334
f 104 103 1337
f 103 102 1340
f 102 9 582
f 1340 582 583
f 1338 1339 583
f 560 1338 584
f 559 1335 1338
f 1332 1335 559
f 1341 1342 1345
f 1342 1343 1346
f 1344 1345 1348
f 1345 1346 1349
f 89 584 1341
f 584 583 1342
f 583 582 1343
f 582 9 101
f 1343 101 100
f 1346 100 99
f 1349 99 3
f 1348 1349 207
f 1347 1348 208
f 585 1347 209
f 586 1344 1347
f 587 1341 1344
f 1350 1351 1354
f 1351 1352 1355
f 1353 1354 1357
f 1354 1355 1358
f 88 564 1350
f 564 565 1351
f 565 566 1352
f 566 89 587
f 1352 587 586
f 1355 586 585
f 1358 585 36
f 1357 1358 210
f 1356 1357 211
f 1356 212 37
f 589 1353 1356
f 1350 1353 589
f 1360 1363 1362
f 1361 1364 1363
f 1363 1366 1365
f 1364 1367 1366
f 561 1359 593
f 562 1360 1359
f 563 1361 1360
f 88 590 1361
f 1361 590 589
f 1364 589 588
f 588 37 213
f 1366 1367 213
f 1366 214 215
f 1365 215 38
f 1362 1365 591
f 1359 1362 592
f 1369 1372 1371
f 1370 1373 1372
f 1372 1375 1374
f 1373 1376 1375
f 594 1368 185
f 595 1369 1368
f 596 1370 1369
f 87 593 1370
f 593 592 1373
f 592 591 1376
f 591 38 216
f 1376 216 217
f 1375 217 218
f 1374 218 7
f 1371 1374 183
f 1368 1371 184
f 1378 1381 1380
f 1379 1382 1381
f 1381 1384 1383
f 1382 1385 1384
f 597 1377 188
f 598 1378 1377
f 599 1379 1378
f 84 552 1379
f 552 553 1382
f 553 554 1385
f 554 87 596
f 1385 596 595
f 1384 595 594
f 1383 594 30
f 1380 1383 186
f 1377 1380 187
f 1387 1390 1389
f 1387 1388 1391
f 1389 1390 1393
f 1390 1391 1394
f 600 1386 191
f 600 601 1387
f 601 602 1388
f 602 81 537
f 1388 537 538
f 538 539 1394
f 539 84 599
f 1394 599 598
f 1392 1393 598
f 189 1392 597
f 190 1389 1392
f 1386 1389 190
f 1395 1396 1399
f 1396 1397 1400
f 1398 1399 1402
f 1399 1400 1403
f 90 603 1395
f 604 1396 1395
f 604 605 1397
f 605 91 612
f 1397 612 613
f 1400 613 614
f 1403 614 94
f 1402 1403 620
f 1401 1402 619
f 611 1401 618
f 610 1398 1401
f 1395 1398 610
f 1404 1405 1408
f 1406 1409 1408
f 1407 1408 1411
f 1409 1412 1411
f 606 1404 612
f 606 607 1405
f 607 608 1406
f 608 92 615
f 1406 615 616
f 1409 616 617
f 1412 617 95
f 1411 1412 623
f 1411 622 621
f 1410 621 94
f 613 1407 1410
f 612 1404 1407
f 1413 1414 1417
f 1414 1415 1418
f 1416 1417 1420
f 1417 1418 1421
f 93 618 1413
f 618 619 1414
f 619 620 1415
f 620 94 627
f 1415 627 628
f 1418 628 629
f 1421 629 97
f 1420 1421 635
f 1419 1420 634
f 626 1419 633
f 625 1416 1419
f 624 1413 1416
f 1422 1423 1426
f 1423 1424 1427
f 1425 1426 1429
f 1427 1430 1429
f 621 1422 627
f 621 622 1423
f 622 623 1424
f 623 95 630
f 630 631 1427
f 631 632 1430
f 632 98 638
f 1430 638 637
f 1428 1429 637
f 629 1428 636
f 628 1425 1428
f 627 1422 1425
f 1432 1435 1434
f 1433 1436 1435
f 1435 1438 1437
f 1436 1439 1438
f 206 1431 242
f 205 1432 1431
f 204 1433 1432
f 35 639 1433
f 639 640 1436
f 640 641 1439
f 641 90 674
f 1438 1439 674
f 1438 673 672
f 1437 672 44
f 1434 1437 240
f 1431 1434 241
f 1441 1444 1443
f 1442 1445 1444
f 1444 1447 1446
f 1444 1445 1448
f 203 1440 639
f 202 1441 1440
f 201 1442 1441
f 34 642 1442
f 642 643 1445
f 643 644 1448
f 1448 644 91
f 1448 605 604
f 1446 1447 604
f 1446 603 90
f 1443 1446 641
f 1440 1443 640
f 1449 1450 1453
f 1450 1451 1454
f 1452 1453 1456
f 1453 1454 1457
f 34 200 1449
f 200 199 1450
f 199 198 1451
f 198 33 645
f 1451 645 646
f 1454 646 647
f 1457 647 92
f 1456 1457 608
f 1455 1456 607
f 644 1455 606
f 643 1452 1455
f 642 1449 1452
f 1458 1459 1462
f 1459 1460 1463
f 1461 1462 1465
f 1462 1463 1466
f 33 197 1458
f 197 196 1459
f 196 195 1460
f 195 6 170
f 1460 170 169
f 1463 169 168
f 1466 168 26
f 1465 1466 648
f 1464 1465 649
f 647 1464 650
f 646 1461 1464
f 645 1458 1461
f 1467 1468 1471
f 1468 1469 1472
f 1470 1471 1474
f 1471 1472 1475
f 92 650 1467
f 650 649 1468
f 649 648 1469
f 648 26 167
f 1469 167 166
f 1472 166 165
f 1475 165 25
f 1474 1475 651
f 1473 1474 652
f 617 1473 653
f 616 1470 1473
f 615 1467 1470
f 1477 1480 1479
f 1478 1481 1480
f 1480 1483 1482
f 1481 1484 1483
f 95 653 1476
f 653 652 1477
f 652 651 1478
f 651 25 164
f 164 163 1481
f 163 162 1484
f 162 24 654
f 1484 654 655
f 1483 655 656
f 1482 656 98
f 1479 1482 632
f 1476 1479 631
f 1486 1489 1488
f 1487 1490 1489
f 1489 1492 1491
f 1490 1493 1492
f 656 1485 659
f 655 1486 1485
f 654 1487 1486
f 24 161 1487
f 161 160 1490
f 160 159 1493
f 159 2 135
f 1493 135 136
f 1492 136 137
f 1491 137 18
f 1488 1491 657
f 1485 1488 658
f 1495 1498 1497
f 1496 1499 1498
f 1497 1498 1501
f 1499 1502 1501
f 97 636 1494
f 636 637 1495
f 638 1496 1495
f 98 659 1496
f 659 658 1499
f 658 657 1502
f 657 18 138
f 1502 138 139
f 1500 1501 139
f 660 1500 140
f 661 1497 1500
f 662 1494 1497
f 1503 1504 1507
f 1504 1505 1508
f 1506 1507 1510
f 1507 1508 1511
f 96 633 1503
f 633 634 1504
f 634 635 1505
f 635 97 662
f 1505 662 661
f 1508 661 660
f 1511 660 19
f 1510 1511 141
f 1509 1510 142
f 663 1509 143
f 664 1506 1509
f 665 1503 1506
f 1512 1513 1516
f 1513 1514 1517
f 1515 1516 1519
f 1516 1517 1520
f 42 666 1512
f 666 667 1513
f 667 668 1514
f 668 96 665
f 1514 665 664
f 1517 664 663
f 1520 663 20
f 1519 1520 144
f 1518 1519 145
f 231 1518 146
f 232 1515 1518
f 233 1512 1515
f 1521 1522 1525
f 1522 1523 1526
f 1524 1525 1528
f 1525 1526 1529
f 43 669 1521
f 669 670 1522
f 670 671 1523
f 671 93 624
f 1523 624 625
f 1526 625 626
f 1529 626 96
f 1528 1529 668
f 1527 1528 667
f 234 1527 666
f 235 1524 1527
f 236 1521 1524
f 1530 1531 1534
f 1532 1535 1534
f 1533 1534 1537
f 1534 1535 1538
f 672 1530 239
f 672 673 1531
f 673 674 1532
f 90 609 1532
f 1532 609 610
f 1535 610 611
f 1538 611 93
f 1537 1538 671
f 1536 1537 670
f 237 1536 669
f 238 1533 1536
f 239 1530 1533
