o xaxis
v -0.119455 0.062370 -0.000000
v 2.431234 0.062370 0.000000
v -0.119455 0.061171 -0.012168
v 2.431234 0.061171 -0.012168
v -0.119455 0.057622 -0.023868
v 2.431234 0.057622 -0.023868
v -0.119455 0.051858 -0.034651
v 2.431234 0.051858 -0.034651
v -0.119455 0.044102 -0.044102
v 2.431234 0.044102 -0.044102
v -0.119455 0.034651 -0.051858
v 2.431234 0.034651 -0.051858
v -0.119455 0.023868 -0.057622
v 2.431234 0.023868 -0.057622
v -0.119455 0.012168 -0.061171
v 2.431234 0.012168 -0.061171
v -0.119455 0.000000 -0.062370
v 2.431234 0.000000 -0.062369
v -0.119455 -0.012168 -0.061171
v 2.431234 -0.012168 -0.061171
v -0.119455 -0.023868 -0.057622
v 2.431234 -0.023868 -0.057622
v -0.119455 -0.034651 -0.051858
v 2.431234 -0.034651 -0.051858
v -0.119455 -0.044102 -0.044102
v 2.431234 -0.044102 -0.044102
v -0.119455 -0.051858 -0.034651
v 2.431234 -0.051858 -0.034651
v -0.119455 -0.057622 -0.023868
v 2.431234 -0.057622 -0.023868
v -0.119455 -0.061171 -0.012168
v 2.431234 -0.061171 -0.012168
v -0.119455 -0.062370 -0.000000
v 2.431234 -0.062370 0.000000
v -0.119455 -0.061171 0.012168
v 2.431234 -0.061171 0.012168
v -0.119455 -0.057622 0.023868
v 2.431234 -0.057622 0.023868
v -0.119455 -0.051858 0.034651
v 2.431234 -0.051858 0.034651
v -0.119455 -0.044102 0.044102
v 2.431234 -0.044102 0.044102
v -0.119455 -0.034651 0.051858
v 2.431234 -0.034651 0.051858
v -0.119455 -0.023868 0.057622
v 2.431234 -0.023868 0.057622
v -0.119455 -0.012168 0.061171
v 2.431234 -0.012168 0.061171
v -0.119455 0.000000 0.062370
v 2.431234 0.000000 0.062370
v -0.119455 0.012168 0.061171
v 2.431234 0.012168 0.061171
v -0.119455 0.023868 0.057622
v 2.431234 0.023868 0.057622
v -0.119455 0.034651 0.051858
v 2.431234 0.034651 0.051858
v -0.119455 0.044102 0.044102
v 2.431234 0.044102 0.044102
v -0.119455 0.051858 0.034651
v 2.431234 0.051858 0.034651
v -0.119455 0.057622 0.023868
v 2.431234 0.057622 0.023868
v -0.119455 0.061171 0.012168
v 2.431234 0.061171 0.012168
v 2.431234 0.138700 0.000000
v 2.431234 0.136035 -0.027059
v 2.431234 0.128143 -0.053078
v 2.431234 0.115325 -0.077058
v 2.431234 0.098076 -0.098076
v 2.431234 0.077058 -0.115325
v 2.431234 0.053078 -0.128143
v 2.431234 0.027059 -0.136035
v 2.431234 -0.000000 -0.138700
v 2.431234 -0.027059 -0.136035
v 2.431234 -0.053078 -0.128143
v 2.431234 -0.077058 -0.115325
v 2.431234 -0.098076 -0.098076
v 2.431234 -0.115325 -0.077058
v 2.431234 -0.128143 -0.053078
v 2.431234 -0.136035 -0.027059
v 2.431234 -0.138700 0.000000
v 2.431234 -0.136035 0.027059
v 2.431234 -0.128143 0.053078
v 2.431234 -0.115325 0.077058
v 2.431234 -0.098076 0.098076
v 2.431234 -0.077058 0.115325
v 2.431234 -0.053078 0.128143
v 2.431234 -0.027059 0.136035
v 2.431234 -0.000000 0.138701
v 2.431234 0.027059 0.136035
v 2.431234 0.053078 0.128143
v 2.431234 0.077058 0.115325
v 2.431234 0.098076 0.098076
v 2.431234 0.115325 0.077058
v 2.431234 0.128143 0.053078
v 2.431234 0.136035 0.027059
v 2.981785 -0.000000 0.000000
f 2 3 1
f 4 5 3
f 6 7 5
f 8 9 7
f 10 11 9
f 12 13 11
f 14 15 13
f 16 17 15
f 18 19 17
f 20 21 19
f 22 23 21
f 24 25 23
f 26 27 25
f 28 29 27
f 30 31 29
f 32 33 31
f 34 35 33
f 36 37 35
f 38 39 37
f 40 41 39
f 42 43 41
f 44 45 43
f 46 47 45
f 48 49 47
f 50 51 49
f 52 53 51
f 54 55 53
f 56 57 55
f 58 59 57
f 60 61 59
f 18 74 20
f 61 64 63
f 64 1 63
f 63 15 31
f 36 83 38
f 54 92 56
f 10 70 12
f 28 79 30
f 46 88 48
f 2 66 4
f 64 65 2
f 22 74 75
f 38 84 40
f 56 93 58
f 12 71 14
f 30 80 32
f 48 89 50
f 4 67 6
f 22 76 24
f 42 84 85
f 58 94 60
f 14 72 16
f 34 80 81
f 50 90 52
f 6 68 8
f 24 77 26
f 42 86 44
f 60 95 62
f 18 72 73
f 34 82 36
f 54 90 91
f 8 69 10
f 26 78 28
f 46 86 87
f 62 96 64
f 89 88 97
f 76 75 97
f 90 89 97
f 77 76 97
f 91 90 97
f 78 77 97
f 92 91 97
f 79 78 97
f 66 65 97
f 93 92 97
f 80 79 97
f 67 66 97
f 94 93 97
f 81 80 97
f 68 67 97
f 95 94 97
f 82 81 97
f 69 68 97
f 96 95 97
f 83 82 97
f 70 69 97
f 65 96 97
f 84 83 97
f 71 70 97
f 85 84 97
f 72 71 97
f 86 85 97
f 73 72 97
f 87 86 97
f 74 73 97
f 88 87 97
f 75 74 97
f 2 4 3
f 4 6 5
f 6 8 7
f 8 10 9
f 10 12 11
f 12 14 13
f 14 16 15
f 16 18 17
f 18 20 19
f 20 22 21
f 22 24 23
f 24 26 25
f 26 28 27
f 28 30 29
f 30 32 31
f 32 34 33
f 34 36 35
f 36 38 37
f 38 40 39
f 40 42 41
f 42 44 43
f 44 46 45
f 46 48 47
f 48 50 49
f 50 52 51
f 52 54 53
f 54 56 55
f 56 58 57
f 58 60 59
f 60 62 61
f 18 73 74
f 61 62 64
f 64 2 1
f 63 1 3
f 3 5 7
f 7 9 15
f 9 11 15
f 11 13 15
f 15 17 23
f 17 19 23
f 19 21 23
f 23 25 27
f 27 29 23
f 29 31 23
f 31 33 35
f 35 37 39
f 39 41 47
f 41 43 47
f 43 45 47
f 47 49 55
f 49 51 55
f 51 53 55
f 55 57 63
f 57 59 63
f 59 61 63
f 63 3 15
f 3 7 15
f 31 35 47
f 35 39 47
f 15 23 31
f 47 55 31
f 55 63 31
f 36 82 83
f 54 91 92
f 10 69 70
f 28 78 79
f 46 87 88
f 2 65 66
f 64 96 65
f 22 20 74
f 38 83 84
f 56 92 93
f 12 70 71
f 30 79 80
f 48 88 89
f 4 66 67
f 22 75 76
f 42 40 84
f 58 93 94
f 14 71 72
f 34 32 80
f 50 89 90
f 6 67 68
f 24 76 77
f 42 85 86
f 60 94 95
f 18 16 72
f 34 81 82
f 54 52 90
f 8 68 69
f 26 77 78
f 46 44 86
f 62 95 96
