v -0.389171722954245 -0.097006892943115 -0.045133688250507
v -0.392037475016708 -0.096950691417273 0.005655902229633
v -0.391750510382114 -0.042875555766301 -0.045339093118643
v -0.394616262444577 -0.042819354240459 0.005450497361496
v -0.394329297809983 0.011255781410514 -0.045544497986780
v -0.397195049872447 0.011311982936356 0.005245092493360
v -0.327434639587560 -0.202755385146821 -0.092484568052735
v -0.330300391650024 -0.202699183620979 -0.041694977572595
v -0.333166143712487 -0.202642982095137 0.009094612907545
v -0.327147674952966 -0.148680249495848 -0.143479563401011
v -0.330013427015430 -0.148624047970007 -0.092689972920871
v -0.332879179077893 -0.148567846444165 -0.041900382440731
v -0.335744931140356 -0.148511644918323 0.008889208039409
v -0.338610683202819 -0.148455443392481 0.059678798519549
v -0.326860710318372 -0.094605113844876 -0.194474558749287
v -0.329726462380835 -0.094548912319034 -0.143684968269147
v -0.332592214443299 -0.094492710793192 -0.092895377789007
v -0.335457966505762 -0.094436509267350 -0.042105787308867
v -0.338323718568225 -0.094380307741508 0.008683803171272
v -0.341189470630688 -0.094324106215666 0.059473393651412
v -0.344055222693152 -0.094267904689824 0.110262984131552
v -0.329439497746241 -0.040473776668062 -0.194679963617423
v -0.332305249808704 -0.040417575142220 -0.143890373137283
v -0.335171001871168 -0.040361373616378 -0.093100782657144
v -0.338036753933631 -0.040305172090536 -0.042311192177004
v -0.340902505996094 -0.040248970564694 0.008478398303136
v -0.343768258058558 -0.040192769038852 0.059267988783276
v -0.346634010121021 -0.040136567513010 0.110057579263416
v -0.332018285174110 0.013657560508753 -0.194885368485559
v -0.334884037236574 0.013713762034595 -0.144095778005420
v -0.337749789299037 0.013769963560437 -0.093306187525280
v -0.340615541361500 0.013826165086279 -0.042516597045140
v -0.343481293423963 0.013882366612121 0.008272993435000
v -0.346347045486427 0.013938568137963 0.059062583915140
v -0.349212797548890 0.013994769663804 0.109852174395279
v -0.352078549611353 0.014050971189646 0.160641764875419
v -0.337462824664443 0.067845099211409 -0.144301182873556
v -0.340328576726906 0.067901300737251 -0.093511592393416
v -0.343194328789369 0.067957502263093 -0.042722001913276
v -0.346060080851832 0.068013703788935 0.008067588566863
v -0.348925832914296 0.068069905314777 0.058857179047003
v -0.351791584976759 0.068126106840619 0.109646769527143
v -0.354657337039222 0.068182308366461 0.160436360007283
v -0.340041612092312 0.121976436388224 -0.144506587741692
v -0.342907364154775 0.122032637914066 -0.093716997261552
v -0.345773116217238 0.122088839439907 -0.042927406781413
v -0.348638868279702 0.122145040965749 0.007862183698727
v -0.351504620342165 0.122201242491591 0.058651774178867
v -0.354370372404628 0.122257444017433 0.109441364659007
v -0.348351903645107 0.176220176616722 -0.043132811649549
v -0.271429060345802 -0.308391474298843 -0.038256266894682
v -0.268276343648745 -0.254372540173712 -0.140040852723098
v -0.271142095711208 -0.254316338647870 -0.089251262242958
v -0.274007847773671 -0.254260137122028 -0.038461671762819
v -0.276873599836135 -0.254203935596186 0.012327918717321
v -0.279739351898598 -0.254147734070345 0.063117509197461
v -0.270855131076614 -0.200241202996898 -0.140246257591235
v -0.273720883139077 -0.200185001471056 -0.089456667111095
v -0.276586635201540 -0.200128799945214 -0.038667076630955
v -0.279452387264004 -0.200072598419372 0.012122513849185
v -0.282318139326467 -0.200016396893530 0.062912104329325
v -0.285183891388930 -0.199960195367688 0.113701694809465
v -0.267702414379556 -0.146222268871767 -0.242030843419651
v -0.270568166442020 -0.146166067345925 -0.191241252939511
v -0.273433918504483 -0.146109865820083 -0.140451662459371
v -0.276299670566946 -0.146053664294241 -0.089662071979231
v -0.279165422629410 -0.145997462768400 -0.038872481499091
v -0.282031174691873 -0.145941261242558 0.011917108981049
v -0.284896926754336 -0.145885059716716 0.062706699461188
v -0.287762678816799 -0.145828858190874 0.113496289941328
v -0.290628430879263 -0.145772656665032 0.164285880421468
v -0.270281201807426 -0.092090931694953 -0.242236248287787
v -0.273146953869889 -0.092034730169111 -0.191446657807647
v -0.276012705932352 -0.091978528643269 -0.140657067327507
v -0.278878457994815 -0.091922327117427 -0.089867476847367
v -0.281744210057279 -0.091866125591585 -0.039077886367228
v -0.284609962119742 -0.091809924065743 0.011711704112912
v -0.287475714182205 -0.091753722539901 0.062501294593052
v -0.290341466244669 -0.091697521014059 0.113290885073192
v -0.293207218307132 -0.091641319488217 0.164080475553332
v -0.272859989235295 -0.037959594518138 -0.242441653155923
v -0.275725741297758 -0.037903392992296 -0.191652062675783
v -0.278591493360221 -0.037847191466455 -0.140862472195644
v -0.281457245422684 -0.037790989940613 -0.090072881715504
v -0.284322997485148 -0.037734788414771 -0.039283291235364
v -0.287188749547611 -0.037678586888929 0.011506299244776
v -0.290054501610074 -0.037622385363087 0.062295889724916
v -0.292920253672538 -0.037566183837245 0.113085480205056
v -0.295786005735001 -0.037509982311403 0.163875070685195
v -0.298651757797464 -0.037453780785561 0.214664661165335
v -0.275438776663164 0.016171742658676 -0.242647058024060
v -0.278304528725627 0.016227944184518 -0.191857467543920
v -0.281170280788090 0.016284145710360 -0.141067877063780
v -0.284036032850554 0.016340347236202 -0.090278286583640
v -0.286901784913017 0.016396548762044 -0.039488696103500
v -0.289767536975480 0.016452750287886 0.011300894376640
v -0.292633289037943 0.016508951813728 0.062090484856779
v -0.295499041100407 0.016565153339570 0.112880075336919
v -0.298364793162870 0.016621354865411 0.163669665817059
v -0.301230545225333 0.016677556391253 0.214459256297199
v -0.278017564091033 0.070303079835490 -0.242852462892196
v -0.280883316153496 0.070359281361332 -0.192062872412056
v -0.283749068215959 0.070415482887174 -0.141273281931916
v -0.286614820278423 0.070471684413016 -0.090483691451776
v -0.289480572340886 0.070527885938858 -0.039694100971637
v -0.292346324403349 0.070584087464700 0.011095489508503
v -0.295212076465813 0.070640288990542 0.061885079988643
v -0.298077828528276 0.070696490516384 0.112674670468783
v -0.300943580590739 0.070752692042226 0.163464260948923
v -0.303809332653202 0.070808893568068 0.214253851429063
v -0.283462103581365 0.124490618538147 -0.192268277280192
v -0.286327855643829 0.124546820063989 -0.141478686800053
v -0.289193607706292 0.124603021589831 -0.090689096319913
v -0.292059359768755 0.124659223115672 -0.039899505839773
v -0.294925111831218 0.124715424641514 0.010890084640367
v -0.297790863893682 0.124771626167356 0.061679675120507
v -0.300656615956145 0.124827827693198 0.112469265600647
v -0.303522368018608 0.124884029219040 0.163258856080786
v -0.306388120081071 0.124940230744882 0.214048446560926
v -0.288906643071698 0.178678157240803 -0.141684091668189
v -0.291772395134161 0.178734358766645 -0.090894501188049
v -0.294638147196624 0.178790560292487 -0.040104910707909
v -0.297503899259087 0.178846761818329 0.010684679772231
v -0.300369651321551 0.178902963344171 0.061474270252370
v -0.303235403384014 0.178959164870013 0.112263860732510
v -0.306101155446477 0.179015366395855 0.163053451212650
v -0.294351182562030 0.232865695943459 -0.091099906056185
v -0.297216934624493 0.232921897469301 -0.040310315576046
v -0.300082686686957 0.232978098995143 0.010479274904094
v -0.215136516469450 -0.359952427799892 -0.035022961084906
v -0.214849551834856 -0.305877292148920 -0.086017956433182
v -0.217715303897319 -0.305821090623078 -0.035228365953042
v -0.220581055959782 -0.305764889097236 0.015561224527097
v -0.223446808022246 -0.305708687571394 0.066350815007237
v -0.214562587200262 -0.251802156497947 -0.137012951781458
v -0.217428339262725 -0.251745954972105 -0.086223361301319
v -0.220294091325188 -0.251689753446263 -0.035433770821179
v -0.223159843387651 -0.251633551920421 0.015355819658961
v -0.226025595450115 -0.251577350394579 0.066145410139101
v -0.228891347512578 -0.251521148868737 0.116935000619241
v -0.231757099575041 -0.251464947342896 0.167724591099380
v -0.214275622565667 -0.197727020846975 -0.188007947129735
v -0.217141374628131 -0.197670819321133 -0.137218356649595
v -0.220007126690594 -0.197614617795291 -0.086428766169455
v -0.222872878753057 -0.197558416269449 -0.035639175689315
v -0.225738630815520 -0.197502214743607 0.015150414790825
v -0.228604382877984 -0.197446013217765 0.065940005270965
v -0.231470134940447 -0.197389811691923 0.116729595751104
v -0.234335887002910 -0.197333610166081 0.167519186231244
v -0.237201639065374 -0.197277408640239 0.218308776711384
v -0.211122905868610 -0.143708086721844 -0.289792532958151
v -0.213988657931073 -0.143651885196002 -0.239002942478011
v -0.216854409993536 -0.143595683670160 -0.188213351997871
v -0.219720162056000 -0.143539482144318 -0.137423761517731
v -0.222585914118463 -0.143483280618476 -0.086634171037591
v -0.225451666180926 -0.143427079092634 -0.035844580557451
v -0.228317418243390 -0.143370877566792 0.014945009922688
v -0.231183170305853 -0.143314676040951 0.065734600402828
v -0.234048922368316 -0.143258474515109 0.116524190882968
v -0.236914674430779 -0.143202272989267 0.167313781363108
v -0.239780426493243 -0.143146071463425 0.218103371843248
v -0.213701693296479 -0.089576749545030 -0.289997937826287
v -0.216567445358942 -0.089520548019188 -0.239208347346147
v -0.219433197421406 -0.089464346493346 -0.188418756866007
v -0.222298949483869 -0.089408144967504 -0.137629166385867
v -0.225164701546332 -0.089351943441662 -0.086839575905728
v -0.228030453608795 -0.089295741915820 -0.036049985425588
v -0.230896205671259 -0.089239540389978 0.014739605054552
v -0.233761957733722 -0.089183338864136 0.065529195534692
v -0.236627709796185 -0.089127137338294 0.116318786014832
v -0.239493461858649 -0.089070935812452 0.167108376494971
v -0.242359213921112 -0.089014734286610 0.217897966975111
v -0.216280480724348 -0.035445412368215 -0.290203342694423
v -0.219146232786811 -0.035389210842373 -0.239413752214283
v -0.222011984849275 -0.035333009316531 -0.188624161734144
v -0.224877736911738 -0.035276807790689 -0.137834571254004
v -0.227743488974201 -0.035220606264848 -0.087044980773864
v -0.230609241036664 -0.035164404739006 -0.036255390293724
v -0.233474993099128 -0.035108203213164 0.014534200186416
v -0.236340745161591 -0.035052001687322 0.065323790666556
v -0.239206497224054 -0.034995800161480 0.116113381146695
v -0.242072249286518 -0.034939598635638 0.166902971626835
v -0.244938001348981 -0.034883397109796 0.217692562106975
v -0.247803753411444 -0.034827195583954 0.268482152587115
v -0.218859268152217 0.018685924808599 -0.290408747562560
v -0.221725020214680 0.018742126334441 -0.239619157082420
v -0.224590772277144 0.018798327860283 -0.188829566602280
v -0.227456524339607 0.018854529386125 -0.138039976122140
v -0.230322276402070 0.018910730911967 -0.087250385642000
v -0.233188028464534 0.018966932437809 -0.036460795161860
v -0.236053780526997 0.019023133963651 0.014328795318279
v -0.238919532589460 0.019079335489493 0.065118385798419
v -0.241785284651923 0.019135537015335 0.115907976278559
v -0.244651036714387 0.019191738541177 0.166697566758699
v -0.247516788776850 0.019247940067018 0.217487157238839
v -0.250382540839313 0.019304141592860 0.268276747718978
v -0.221438055580086 0.072817261985414 -0.290614152430696
v -0.224303807642550 0.072873463511255 -0.239824561950556
v -0.227169559705013 0.072929665037097 -0.189034971470416
v -0.230035311767476 0.072985866562939 -0.138245380990276
v -0.232901063829939 0.073042068088781 -0.087455790510137
v -0.235766815892403 0.073098269614623 -0.036666200029997
v -0.238632567954866 0.073154471140465 0.014123390450143
v -0.241498320017329 0.073210672666307 0.064912980930283
v -0.244364072079792 0.073266874192149 0.115702571410423
v -0.247229824142256 0.073323075717991 0.166492161890563
v -0.250095576204719 0.073379277243833 0.217281752370702
v -0.252961328267182 0.073435478769675 0.268071342850842
v -0.226882595070419 0.127004800688070 -0.240029966818692
v -0.229748347132882 0.127061002213912 -0.189240376338553
v -0.232614099195345 0.127117203739754 -0.138450785858413
v -0.235479851257808 0.127173405265596 -0.087661195378273
v -0.238345603320272 0.127229606791438 -0.036871604898133
v -0.241211355382735 0.127285808317280 0.013917985582007
v -0.244077107445198 0.127342009843121 0.064707576062147
v -0.246942859507662 0.127398211368963 0.115497166542286
v -0.249808611570125 0.127454412894805 0.166286757022426
v -0.252674363632588 0.127510614420647 0.217076347502566
v -0.255540115695051 0.127566815946489 0.267865937982706
v -0.232327134560751 0.181192339390726 -0.189445781206689
v -0.235192886623214 0.181248540916568 -0.138656190726549
v -0.238058638685678 0.181304742442410 -0.087866600246409
v -0.240924390748141 0.181360943968252 -0.037077009766269
v -0.243790142810604 0.181417145494094 0.013712580713870
v -0.246655894873067 0.181473347019936 0.064502171194010
v -0.249521646935531 0.181529548545778 0.115291761674150
v -0.252387398997994 0.181585750071620 0.166081352154290
v -0.255253151060457 0.181641951597462 0.216870942634430
v -0.237771674051083 0.235379878093383 -0.138861595594685
v -0.240637426113547 0.235436079619224 -0.088072005114546
v -0.243503178176010 0.235492281145066 -0.037282414634406
v -0.246368930238473 0.235548482670908 0.013507175845734
v -0.249234682300937 0.235604684196750 0.064296766325874
v -0.252100434363400 0.235660885722592 0.115086356806014
v -0.254966186425863 0.235717087248434 0.165875947286154
v -0.243216213541416 0.289567416796039 -0.088277409982682
v -0.246081965603879 0.289623618321881 -0.037487819502542
v -0.248947717666342 0.289679819847723 0.013301770977598
v -0.158557007958503 -0.357438245649969 -0.082784650623406
v -0.161422760020967 -0.357382044124127 -0.031995060143266
v -0.164288512083430 -0.357325842598285 0.018794530336873
v -0.158270043323909 -0.303363109998996 -0.133779645971682
v -0.161135795386372 -0.303306908473155 -0.082990055491543
v -0.164001547448836 -0.303250706947313 -0.032200465011403
v -0.166867299511299 -0.303194505421471 0.018589125468737
v -0.169733051573762 -0.303138303895629 0.069378715948877
v -0.172598803636226 -0.303082102369787 0.120168306429017
v -0.157983078689315 -0.249287974348024 -0.184774641319959
v -0.160848830751778 -0.249231772822182 -0.133985050839819
v -0.163714582814242 -0.249175571296340 -0.083195460359679
v -0.166580334876705 -0.249119369770498 -0.032405869879539
v -0.169446086939168 -0.249063168244656 0.018383720600601
v -0.172311839001631 -0.249006966718814 0.069173311080741
v -0.175177591064095 -0.248950765192972 0.119962901560880
v -0.178043343126558 -0.248894563667131 0.170752492041020
v -0.180909095189021 -0.248838362141289 0.221542082521160
v -0.157696114054721 -0.195212838697051 -0.235769636668235
v -0.160561866117184 -0.195156637171210 -0.184980046188095
v -0.163427618179647 -0.195100435645368 -0.134190455707955
v -0.166293370242111 -0.195044234119526 -0.083400865227815
v -0.169159122304574 -0.194988032593684 -0.032611274747675
v -0.172024874367037 -0.194931831067842 0.018178315732464
v -0.174890626429500 -0.194875629542000 0.068967906212604
v -0.177756378491964 -0.194819428016158 0.119757496692744
v -0.180622130554427 -0.194763226490316 0.170547087172884
v -0.183487882616890 -0.194707024964474 0.221336677653024
v -0.154543397357663 -0.141193904571921 -0.337554222496651
v -0.157409149420127 -0.141137703046079 -0.286764632016511
v -0.160274901482590 -0.141081501520237 -0.235975041536371
v -0.163140653545053 -0.141025299994395 -0.185185451056231
v -0.166006405607516 -0.140969098468553 -0.134395860576091
v -0.168872157669980 -0.140912896942711 -0.083606270095952
v -0.171737909732443 -0.140856695416869 -0.032816679615812
v -0.174603661794906 -0.140800493891027 0.017972910864328
v -0.177469413857370 -0.140744292365185 0.068762501344468
v -0.180335165919833 -0.140688090839344 0.119552091824608
v -0.183200917982296 -0.140631889313502 0.170341682304748
v -0.186066670044759 -0.140575687787660 0.221131272784887
v -0.188932422107223 -0.140519486261818 0.271920863265027
v -0.157122184785532 -0.087062567395106 -0.337759627364787
v -0.159987936847996 -0.087006365869265 -0.286970036884647
v -0.162853688910459 -0.086950164343423 -0.236180446404507
v -0.165719440972922 -0.086893962817581 -0.185390855924367
v -0.168585193035386 -0.086837761291739 -0.134601265444228
v -0.171450945097849 -0.086781559765897 -0.083811674964088
v -0.174316697160312 -0.086725358240055 -0.033022084483948
v -0.177182449222775 -0.086669156714213 0.017767505996192
v -0.180048201285239 -0.086612955188371 0.068557096476332
v -0.182913953347702 -0.086556753662529 0.119346686956471
v -0.185779705410165 -0.086500552136687 0.170136277436611
v -0.188645457472629 -0.086444350610845 0.220925867916751
v -0.191511209535092 -0.086388149085003 0.271715458396891
v -0.159700972213402 -0.032931230218292 -0.337965032232923
v -0.162566724275865 -0.032875028692450 -0.287175441752783
v -0.165432476338328 -0.032818827166608 -0.236385851272644
v -0.168298228400791 -0.032762625640766 -0.185596260792504
v -0.171163980463255 -0.032706424114924 -0.134806670312364
v -0.174029732525718 -0.032650222589082 -0.084017079832224
v -0.176895484588181 -0.032594021063241 -0.033227489352084
v -0.179761236650644 -0.032537819537399 0.017562101128055
v -0.182626988713108 -0.032481618011557 0.068351691608195
v -0.185492740775571 -0.032425416485715 0.119141282088335
v -0.188358492838034 -0.032369214959873 0.169930872568475
v -0.191224244900498 -0.032313013434031 0.220720463048615
v -0.194089996962961 -0.032256811908189 0.271510053528755
v -0.196955749025424 -0.032200610382347 0.322299644008894
v -0.162279759641271 0.021200106958522 -0.338170437101060
v -0.165145511703734 0.021256308484364 -0.287380846620920
v -0.168011263766197 0.021312510010206 -0.236591256140780
v -0.170877015828660 0.021368711536048 -0.185801665660640
v -0.173742767891124 0.021424913061890 -0.135012075180500
v -0.176608519953587 0.021481114587732 -0.084222484700361
v -0.179474272016050 0.021537316113574 -0.033432894220221
v -0.182340024078514 0.021593517639416 0.017356696259919
v -0.185205776140977 0.021649719165258 0.068146286740059
v -0.188071528203440 0.021705920691100 0.118935877220199
v -0.190937280265903 0.021762122216942 0.169725467700339
v -0.193803032328367 0.021818323742784 0.220515058180478
v -0.196668784390830 0.021874525268625 0.271304648660618
v -0.199534536453293 0.021930726794467 0.322094239140758
v -0.167724299131603 0.075387645661179 -0.287586251489056
v -0.170590051194066 0.075443847187021 -0.236796661008916
v -0.173455803256530 0.075500048712862 -0.186007070528776
v -0.176321555318993 0.075556250238704 -0.135217480048637
v -0.179187307381456 0.075612451764546 -0.084427889568497
v -0.182053059443919 0.075668653290388 -0.033638299088357
v -0.184918811506383 0.075724854816230 0.017151291391783
v -0.187784563568846 0.075781056342072 0.067940881871923
v -0.190650315631309 0.075837257867914 0.118730472352062
v -0.193516067693772 0.075893459393756 0.169520062832202
v -0.196381819756236 0.075949660919598 0.220309653312342
v -0.199247571818699 0.076005862445440 0.271099243792482
v -0.202113323881162 0.076062063971282 0.321888834272622
v -0.170303086559472 0.129518982837993 -0.287791656357192
v -0.173168838621935 0.129575184363835 -0.237002065877053
v -0.176034590684399 0.129631385889677 -0.186212475396913
v -0.178900342746862 0.129687587415519 -0.135422884916773
v -0.181766094809325 0.129743788941361 -0.084633294436633
v -0.184631846871788 0.129799990467203 -0.033843703956493
v -0.187497598934252 0.129856191993045 0.016945886523647
v -0.190363350996715 0.129912393518887 0.067735477003786
v -0.193229103059178 0.129968595044728 0.118525067483926
v -0.196094855121642 0.130024796570570 0.169314657964066
v -0.198960607184105 0.130080998096412 0.220104248444206
v -0.201826359246568 0.130137199622254 0.270893838924346
v -0.204692111309031 0.130193401148096 0.321683429404486
v -0.175747626049804 0.183706521540649 -0.237207470745189
v -0.178613378112268 0.183762723066491 -0.186417880265049
v -0.181479130174731 0.183818924592333 -0.135628289784909
v -0.184344882237194 0.183875126118175 -0.084838699304769
v -0.187210634299658 0.183931327644017 -0.034049108824630
v -0.190076386362121 0.183987529169859 0.016740481655510
v -0.192942138424584 0.184043730695701 0.067530072135650
v -0.195807890487047 0.184099932221543 0.118319662615790
v -0.198673642549511 0.184156133747385 0.169109253095930
v -0.201539394611974 0.184212335273227 0.219898843576069
v -0.204405146674437 0.184268536799069 0.270688434056209
v -0.181192165540137 0.237894060243306 -0.186623285133185
v -0.184057917602600 0.237950261769148 -0.135833694653046
v -0.186923669665063 0.238006463294990 -0.085044104172906
v -0.189789421727527 0.238062664820831 -0.034254513692766
v -0.192655173789990 0.238118866346673 0.016535076787374
v -0.195520925852453 0.238175067872515 0.067324667267514
v -0.198386677914917 0.238231269398357 0.118114257747654
v -0.201252429977380 0.238287470924199 0.168903848227793
v -0.204118182039843 0.238343672450041 0.219693438707933
v -0.186636705030469 0.292081598945962 -0.136039099521182
v -0.189502457092932 0.292137800471804 -0.085249509041042
v -0.192368209155396 0.292194001997646 -0.034459918560902
v -0.195233961217859 0.292250203523488 0.016329671919238
v -0.198099713280322 0.292306405049330 0.067119262399377
v -0.104843251510020 -0.354867861974204 -0.079756749681766
v -0.107709003572483 -0.354811660448362 -0.028967159201627
v -0.110574755634947 -0.354755458922520 0.021822431278513
v -0.113440507697410 -0.354699257396678 0.072612021758653
v -0.104556286875426 -0.300792726323231 -0.130751745030043
v -0.107422038937889 -0.300736524797389 -0.079962154549903
v -0.110287791000352 -0.300680323271547 -0.029172564069763
v -0.113153543062816 -0.300624121745706 0.021617026410377
v -0.116019295125279 -0.300567920219864 0.072406616890517
v -0.118885047187742 -0.300511718694022 0.123196207370657
v -0.121750799250206 -0.300455517168180 0.173985797850796
v -0.101403570178368 -0.246773792198101 -0.232536330858459
v -0.104269322240832 -0.246717590672259 -0.181746740378319
v -0.107135074303295 -0.246661389146417 -0.130957149898179
v -0.110000826365758 -0.246605187620575 -0.080167559418039
v -0.112866578428222 -0.246548986094733 -0.029377968937899
v -0.115732330490685 -0.246492784568891 0.021411621542241
v -0.118598082553148 -0.246436583043049 0.072201212022380
v -0.121463834615611 -0.246380381517207 0.122990802502520
v -0.124329586678075 -0.246324179991365 0.173780392982660
v -0.127195338740538 -0.246267978465524 0.224569983462800
v -0.098250853481311 -0.192754858072970 -0.334320916686875
v -0.101116605543774 -0.192698656547128 -0.283531326206735
v -0.103982357606238 -0.192642455021286 -0.232741735726595
v -0.106848109668701 -0.192586253495445 -0.181952145246455
v -0.109713861731164 -0.192530051969603 -0.131162554766315
v -0.112579613793627 -0.192473850443761 -0.080372964286175
v -0.115445365856091 -0.192417648917919 -0.029583373806036
v -0.118311117918554 -0.192361447392077 0.021206216674104
v -0.121176869981017 -0.192305245866235 0.071995807154244
v -0.124042622043481 -0.192249044340393 0.122785397634384
v -0.126908374105944 -0.192192842814551 0.173574988114524
v -0.129774126168407 -0.192136641288709 0.224364578594663
v -0.132639878230870 -0.192080439762867 0.275154169074803
v -0.100829640909180 -0.138623520896156 -0.334526321555011
v -0.103695392971643 -0.138567319370314 -0.283736731074871
v -0.106561145034107 -0.138511117844472 -0.232947140594731
v -0.109426897096570 -0.138454916318630 -0.182157550114591
v -0.112292649159033 -0.138398714792788 -0.131367959634452
v -0.115158401221496 -0.138342513266946 -0.080578369154312
v -0.118024153283960 -0.138286311741104 -0.029788778674172
v -0.120889905346423 -0.138230110215262 0.021000811805968
v -0.123755657408886 -0.138173908689420 0.071790402286108
v -0.126621409471350 -0.138117707163579 0.122579992766248
v -0.129487161533813 -0.138061505637737 0.173369583246387
v -0.132352913596276 -0.138005304111895 0.224159173726527
v -0.135218665658739 -0.137949102586053 0.274948764206667
v -0.103408428337049 -0.084492183719341 -0.334731726423147
v -0.106274180399512 -0.084435982193500 -0.283942135943007
v -0.109139932461976 -0.084379780667658 -0.233152545462868
v -0.112005684524439 -0.084323579141816 -0.182362954982728
v -0.114871436586902 -0.084267377615974 -0.131573364502588
v -0.117737188649366 -0.084211176090132 -0.080783774022448
v -0.120602940711829 -0.084154974564290 -0.029994183542308
v -0.123468692774292 -0.084098773038448 0.020795406937832
v -0.126334444836755 -0.084042571512606 0.071584997417971
v -0.129200196899219 -0.083986369986764 0.122374587898111
v -0.132065948961682 -0.083930168460922 0.173164178378251
v -0.134931701024145 -0.083873966935080 0.223953768858391
v -0.137797453086609 -0.083817765409238 0.274743359338531
v -0.140663205149072 -0.083761563883396 0.325532949818671
v -0.105987215764918 -0.030360846542527 -0.334937131291283
v -0.108852967827382 -0.030304645016685 -0.284147540811144
v -0.111718719889845 -0.030248443490843 -0.233357950331004
v -0.114584471952308 -0.030192241965001 -0.182568359850864
v -0.117450224014771 -0.030136040439159 -0.131778769370724
v -0.120315976077235 -0.030079838913317 -0.080989178890584
v -0.123181728139698 -0.030023637387475 -0.030199588410445
v -0.126047480202161 -0.029967435861634 0.020590002069695
v -0.128913232264625 -0.029911234335792 0.071379592549835
v -0.131778984327088 -0.029855032809950 0.122169183029975
v -0.134644736389551 -0.029798831284108 0.172958773510115
v -0.137510488452014 -0.029742629758266 0.223748363990254
v -0.140376240514478 -0.029686428232424 0.274537954470394
v -0.143241992576941 -0.029630226706582 0.325327544950534
v -0.108566003192787 0.023770490634287 -0.335142536159420
v -0.111431755255251 0.023826692160129 -0.284352945679280
v -0.114297507317714 0.023882893685971 -0.233563355199140
v -0.117163259380177 0.023939095211813 -0.182773764719000
v -0.120029011442641 0.023995296737655 -0.131984174238861
v -0.122894763505104 0.024051498263497 -0.081194583758721
v -0.125760515567567 0.024107699789339 -0.030404993278581
v -0.128626267630030 0.024163901315181 0.020384597201559
v -0.131492019692494 0.024220102841023 0.071174187681699
v -0.134357771754957 0.024276304366865 0.121963778161839
v -0.137223523817420 0.024332505892707 0.172753368641978
v -0.140089275879883 0.024388707418549 0.223542959122118
v -0.142955027942347 0.024444908944391 0.274332549602258
v -0.145820780004810 0.024501110470232 0.325122140082398
v -0.111144790620656 0.077901827811102 -0.335347941027556
v -0.114010542683120 0.077958029336944 -0.284558350547416
v -0.116876294745583 0.078014230862786 -0.233768760067277
v -0.119742046808046 0.078070432388628 -0.182979169587137
v -0.122607798870510 0.078126633914470 -0.132189579106997
v -0.125473550932973 0.078182835440311 -0.081399988626857
v -0.128339302995436 0.078239036966153 -0.030610398146717
v -0.131205055057899 0.078295238491995 0.020179192333423
v -0.134070807120363 0.078351440017837 0.070968782813562
v -0.136936559182826 0.078407641543679 0.121758373293702
v -0.139802311245289 0.078463843069521 0.172547963773842
v -0.142668063307753 0.078520044595363 0.223337554253982
v -0.145533815370216 0.078576246121205 0.274127144734122
v -0.148399567432679 0.078632447647047 0.324916735214262
v -0.151265319495142 0.078688649172889 0.375706325694401
v -0.113723578048526 0.132033164987916 -0.335553345895692
v -0.116589330110989 0.132089366513758 -0.284763755415553
v -0.119455082173452 0.132145568039600 -0.233974164935413
v -0.122320834235915 0.132201769565442 -0.183184574455273
v -0.125186586298379 0.132257971091284 -0.132394983975133
v -0.128052338360842 0.132314172617126 -0.081605393494993
v -0.130918090423305 0.132370374142968 -0.030815803014854
v -0.133783842485769 0.132426575668810 0.019973787465286
v -0.136649594548232 0.132482777194652 0.070763377945426
v -0.139515346610695 0.132538978720493 0.121552968425566
v -0.142381098673158 0.132595180246335 0.172342558905706
v -0.145246850735622 0.132651381772177 0.223132149385846
v -0.148112602798085 0.132707583298019 0.273921739865985
v -0.150978354860548 0.132763784823861 0.324711330346125
v -0.119168117538858 0.186220703690573 -0.284969160283689
v -0.122033869601321 0.186276905216415 -0.234179569803549
v -0.124899621663785 0.186333106742256 -0.183389979323409
v -0.127765373726248 0.186389308268098 -0.132600388843270
v -0.130631125788711 0.186445509793940 -0.081810798363130
v -0.133496877851174 0.186501711319782 -0.031021207882990
v -0.136362629913638 0.186557912845624 0.019768382597150
v -0.139228381976101 0.186614114371466 0.070557973077290
v -0.142094134038564 0.186670315897308 0.121347563557430
v -0.144959886101027 0.186726517423150 0.172137154037569
v -0.147825638163491 0.186782718948992 0.222926744517709
v -0.150691390225954 0.186838920474834 0.273716334997849
v -0.124612657029190 0.240408242393229 -0.234384974671685
v -0.127478409091654 0.240464443919071 -0.183595384191546
v -0.130344161154117 0.240520645444913 -0.132805793711406
v -0.133209913216580 0.240576846970755 -0.082016203231266
v -0.136075665279043 0.240633048496597 -0.031226612751126
v -0.138941417341507 0.240689250022438 0.019562977729014
v -0.141807169403970 0.240745451548280 0.070352568209153
v -0.144672921466433 0.240801653074122 0.121142158689293
v -0.147538673528897 0.240857854599964 0.171931749169433
v -0.150404425591360 0.240914056125806 0.222721339649573
v -0.130057196519523 0.294595781095885 -0.183800789059682
v -0.132922948581986 0.294651982621727 -0.133011198579542
v -0.135788700644449 0.294708184147569 -0.082221608099402
v -0.138654452706913 0.294764385673411 -0.031432017619263
v -0.141520204769376 0.294820587199253 0.019357572860877
v -0.144385956831839 0.294876788725095 0.070147163341017
v -0.147251708894302 0.294932990250937 0.120936753821157
v -0.150117460956766 0.294989191776779 0.171726344301297
v -0.138367488072318 0.348839521324383 -0.082427012967539
v -0.141233240134782 0.348895722850225 -0.031637422487399
v -0.144098992197245 0.348951924376067 0.019152167992741
v -0.051416459696131 -0.406372613949411 -0.025733853391851
v -0.048263742999074 -0.352353679824281 -0.127518439220267
v -0.051129495061537 -0.352297478298439 -0.076728848740127
v -0.053995247124000 -0.352241276772597 -0.025939258259987
v -0.056860999186463 -0.352185075246755 0.024850332220153
v -0.059726751248927 -0.352128873720913 0.075639922700293
v -0.062592503311390 -0.352072672195071 0.126429513180433
v -0.047976778364479 -0.298278544173308 -0.178513434568543
v -0.050842530426943 -0.298222342647466 -0.127723844088403
v -0.053708282489406 -0.298166141121624 -0.076934253608263
v -0.056574034551869 -0.298109939595782 -0.026144663128123
v -0.059439786614332 -0.298053738069941 0.024644927352017
v -0.062305538676796 -0.297997536544099 0.075434517832157
v -0.065171290739259 -0.297941335018257 0.126224108312296
v -0.068037042801722 -0.297885133492415 0.177013698792436
v -0.070902794864186 -0.297828931966573 0.227803289272576
v -0.044824061667422 -0.244259610048178 -0.280298020396959
v -0.047689813729885 -0.244203408522336 -0.229508429916819
v -0.050555565792348 -0.244147206996494 -0.178718839436679
v -0.053421317854812 -0.244091005470652 -0.127929248956539
v -0.056287069917275 -0.244034803944810 -0.077139658476399
v -0.059152821979738 -0.243978602418968 -0.026350067996259
v -0.062018574042202 -0.243922400893126 0.024439522483880
v -0.064884326104665 -0.243866199367284 0.075229112964020
v -0.067750078167128 -0.243809997841442 0.126018703444160
v -0.070615830229591 -0.243753796315600 0.176808293924300
v -0.073481582292055 -0.243697594789758 0.227597884404440
v -0.044537097032828 -0.190184474397205 -0.331293015745235
v -0.047402849095291 -0.190128272871363 -0.280503425265095
v -0.050268601157754 -0.190072071345521 -0.229713834784955
v -0.053134353220218 -0.190015869819679 -0.178924244304815
v -0.056000105282681 -0.189959668293837 -0.128134653824675
v -0.058865857345144 -0.189903466767996 -0.077345063344536
v -0.061731609407607 -0.189847265242154 -0.026555472864396
v -0.064597361470071 -0.189791063716312 0.024234117615744
v -0.067463113532534 -0.189734862190470 0.075023708095884
v -0.070328865594997 -0.189678660664628 0.125813298576024
v -0.073194617657461 -0.189622459138786 0.176602889056163
v -0.076060369719924 -0.189566257612944 0.227392479536303
v -0.078926121782387 -0.189510056087102 0.278182070016443
v -0.047115884460697 -0.136053137220391 -0.331498420613371
v -0.049981636523160 -0.135996935694549 -0.280708830133231
v -0.052847388585623 -0.135940734168707 -0.229919239653091
v -0.055713140648087 -0.135884532642865 -0.179129649172952
v -0.058578892710550 -0.135828331117023 -0.128340058692812
v -0.061444644773013 -0.135772129591181 -0.077550468212672
v -0.064310396835476 -0.135715928065339 -0.026760877732532
v -0.067176148897940 -0.135659726539497 0.024028712747608
v -0.070041900960403 -0.135603525013655 0.074818303227748
v -0.072907653022866 -0.135547323487813 0.125607893707887
v -0.075773405085330 -0.135491121961971 0.176397484188027
v -0.078639157147793 -0.135434920436130 0.227187074668167
v -0.081504909210256 -0.135378718910288 0.277976665148307
v -0.084370661272719 -0.135322517384446 0.328766255628447
v -0.049694671888566 -0.081921800043576 -0.331703825481507
v -0.052560423951029 -0.081865598517734 -0.280914235001368
v -0.055426176013492 -0.081809396991893 -0.230124644521228
v -0.058291928075956 -0.081753195466051 -0.179335054041088
v -0.061157680138419 -0.081696993940209 -0.128545463560948
v -0.064023432200882 -0.081640792414367 -0.077755873080808
v -0.066889184263346 -0.081584590888525 -0.026966282600668
v -0.069754936325809 -0.081528389362683 0.023823307879471
v -0.072620688388272 -0.081472187836841 0.074612898359611
v -0.075486440450735 -0.081415986310999 0.125402488839751
v -0.078352192513199 -0.081359784785157 0.176192079319891
v -0.081217944575662 -0.081303583259315 0.226981669800031
v -0.084083696638125 -0.081247381733473 0.277771260280170
v -0.086949448700589 -0.081191180207631 0.328560850760310
v -0.052273459316435 -0.027790462866762 -0.331909230349644
v -0.055139211378898 -0.027734261340920 -0.281119639869504
v -0.058004963441362 -0.027678059815078 -0.230330049389364
v -0.060870715503825 -0.027621858289236 -0.179540458909224
v -0.063736467566288 -0.027565656763394 -0.128750868429084
v -0.066602219628751 -0.027509455237552 -0.077961277948945
v -0.069467971691215 -0.027453253711710 -0.027171687468805
v -0.072333723753678 -0.027397052185868 0.023617903011335
v -0.075199475816141 -0.027340850660027 0.074407493491475
v -0.078065227878605 -0.027284649134185 0.125197083971615
v -0.080930979941068 -0.027228447608343 0.175986674451755
v -0.083796732003531 -0.027172246082501 0.226776264931894
v -0.086662484065994 -0.027116044556659 0.277565855412034
v -0.089528236128458 -0.027059843030817 0.328355445892174
v -0.054852246744304 0.026340874310052 -0.332114635217780
v -0.057717998806767 0.026397075835894 -0.281325044737640
v -0.060583750869231 0.026453277361736 -0.230535454257500
v -0.063449502931694 0.026509478887578 -0.179745863777361
v -0.066315254994157 0.026565680413420 -0.128956273297221
v -0.069181007056621 0.026621881939262 -0.078166682817081
v -0.072046759119084 0.026678083465104 -0.027377092336941
v -0.074912511181547 0.026734284990946 0.023412498143199
v -0.077778263244010 0.026790486516788 0.074202088623339
v -0.080644015306474 0.026846688042630 0.124991679103478
v -0.083509767368937 0.026902889568472 0.175781269583618
v -0.086375519431400 0.026959091094314 0.226570860063758
v -0.089241271493863 0.027015292620156 0.277360450543898
v -0.092107023556327 0.027071494145998 0.328150041024038
v -0.094972775618790 0.027127695671839 0.378939631504178
v -0.057431034172173 0.080472211486867 -0.332320040085916
v -0.060296786234636 0.080528413012709 -0.281530449605777
v -0.063162538297100 0.080584614538551 -0.230740859125637
v -0.066028290359563 0.080640816064393 -0.179951268645497
v -0.068894042422026 0.080697017590235 -0.129161678165357
v -0.071759794484490 0.080753219116076 -0.078372087685217
v -0.074625546546953 0.080809420641918 -0.027582497205077
v -0.077491298609416 0.080865622167760 0.023207093275062
v -0.080357050671879 0.080921823693602 0.073996683755202
v -0.083222802734343 0.080978025219444 0.124786274235342
v -0.086088554796806 0.081034226745286 0.175575864715482
v -0.088954306859269 0.081090428271128 0.226365455195622
v -0.091820058921733 0.081146629796970 0.277155045675761
v -0.094685810984196 0.081202831322812 0.327944636155901
v -0.097551563046659 0.081259032848654 0.378734226636041
v -0.060009821600042 0.134603548663681 -0.332525444954053
v -0.062875573662506 0.134659750189523 -0.281735854473913
v -0.065741325724969 0.134715951715365 -0.230946263993773
v -0.068607077787432 0.134772153241207 -0.180156673513633
v -0.071472829849895 0.134828354767049 -0.129367083033493
v -0.074338581912359 0.134884556292891 -0.078577492553354
v -0.077204333974822 0.134940757818733 -0.027787902073214
v -0.080070086037285 0.134996959344575 0.023001688406926
v -0.082935838099749 0.135053160870417 0.073791278887066
v -0.085801590162212 0.135109362396259 0.124580869367206
v -0.088667342224675 0.135165563922100 0.175370459847346
v -0.091533094287138 0.135221765447942 0.226160050327485
v -0.094398846349602 0.135277966973784 0.276949640807625
v -0.097264598412065 0.135334168499626 0.327739231287765
v -0.100130350474528 0.135390370025468 0.378528821767905
v -0.062588609027911 0.188734885840496 -0.332730849822189
v -0.065454361090375 0.188791087366338 -0.281941259342049
v -0.068320113152838 0.188847288892180 -0.231151668861909
v -0.071185865215301 0.188903490418022 -0.180362078381770
v -0.074051617277765 0.188959691943863 -0.129572487901630
v -0.076917369340228 0.189015893469705 -0.078782897421490
v -0.079783121402691 0.189072094995547 -0.027993306941350
v -0.082648873465154 0.189128296521389 0.022796283538790
v -0.085514625527618 0.189184498047231 0.073585874018930
v -0.088380377590081 0.189240699573073 0.124375464499069
v -0.091246129652544 0.189296901098915 0.175165054979209
v -0.094111881715007 0.189353102624757 0.225954645459349
v -0.096977633777471 0.189409304150599 0.276744235939489
v -0.099843385839934 0.189465505676441 0.327533826419629
v -0.068033148518244 0.242922424543152 -0.282146664210186
v -0.070898900580707 0.242978626068994 -0.231357073730046
v -0.073764652643170 0.243034827594836 -0.180567483249906
v -0.076630404705634 0.243091029120678 -0.129777892769766
v -0.079496156768097 0.243147230646520 -0.078988302289626
v -0.082361908830560 0.243203432172362 -0.028198711809486
v -0.085227660893023 0.243259633698204 0.022590878670653
v -0.088093412955487 0.243315835224045 0.073380469150793
v -0.090959165017950 0.243372036749887 0.124170059630933
v -0.093824917080413 0.243428238275729 0.174959650111073
v -0.096690669142877 0.243484439801571 0.225749240591213
v -0.099556421205340 0.243540641327413 0.276538831071352
v -0.073477688008576 0.297109963245808 -0.231562478598182
v -0.076343440071039 0.297166164771650 -0.180772888118042
v -0.079209192133503 0.297222366297492 -0.129983297637902
v -0.082074944195966 0.297278567823334 -0.079193707157763
v -0.084940696258429 0.297334769349176 -0.028404116677623
v -0.087806448320893 0.297390970875018 0.022385473802517
v -0.090672200383356 0.297447172400860 0.073175064282657
v -0.093537952445819 0.297503373926702 0.123964654762797
v -0.096403704508282 0.297559575452544 0.174754245242937
v -0.099269456570746 0.297615776978386 0.225543835723076
v -0.081787979561372 0.351353703474307 -0.130188702506039
v -0.084653731623835 0.351409905000148 -0.079399112025899
v -0.087519483686298 0.351466106525990 -0.028609521545759
v -0.090385235748762 0.351522308051832 0.022180068934381
v -0.093250987811225 0.351578509577674 0.072969659414521
v 0.002297296752352 -0.403802230273646 -0.022705952450211
v 0.005450013449410 -0.349783296148516 -0.124490538278627
v 0.002584261386946 -0.349727094622674 -0.073700947798487
v -0.000281490675517 -0.349670893096832 -0.022911357318347
v -0.003147242737980 -0.349614691570990 0.027878233161793
v -0.006012994800443 -0.349558490045148 0.078667823641933
v -0.008878746862907 -0.349502288519306 0.129457414122072
v -0.011744498925370 -0.349446086993464 0.180247004602212
v 0.005736978084004 -0.295708160497543 -0.175485533626903
v 0.002871226021541 -0.295651958971701 -0.124695943146763
v 0.000005473959077 -0.295595757445859 -0.073906352666623
v -0.002860278103386 -0.295539555920017 -0.023116762186483
v -0.005726030165849 -0.295483354394175 0.027672828293656
v -0.008591782228313 -0.295427152868334 0.078462418773796
v -0.011457534290776 -0.295370951342492 0.129252009253936
v -0.014323286353239 -0.295314749816650 0.180041599734076
v -0.017189038415702 -0.295258548290808 0.230831190214216
v 0.008889694781061 -0.241689226372413 -0.277270119455319
v 0.006023942718598 -0.241633024846571 -0.226480528975179
v 0.003158190656135 -0.241576823320729 -0.175690938495039
v 0.000292438593672 -0.241520621794887 -0.124901348014899
v -0.002573313468792 -0.241464420269045 -0.074111757534760
v -0.005439065531255 -0.241408218743203 -0.023322167054620
v -0.008304817593718 -0.241352017217361 0.027467423425520
v -0.011170569656182 -0.241295815691519 0.078257013905660
v -0.014036321718645 -0.241239614165677 0.129046604385800
v -0.016902073781108 -0.241183412639835 0.179836194865940
v -0.019767825843571 -0.241127211113993 0.230625785346079
v -0.022633577906035 -0.241071009588151 0.281415375826219
v 0.009176659415656 -0.187614090721440 -0.328265114803595
v 0.006310907353192 -0.187557889195598 -0.277475524323455
v 0.003445155290729 -0.187501687669756 -0.226685933843315
v 0.000579403228266 -0.187445486143914 -0.175896343363176
v -0.002286348834198 -0.187389284618072 -0.125106752883036
v -0.005152100896661 -0.187333083092231 -0.074317162402896
v -0.008017852959124 -0.187276881566389 -0.023527571922756
v -0.010883605021587 -0.187220680040547 0.027262018557384
v -0.013749357084051 -0.187164478514705 0.078051609037524
v -0.016615109146514 -0.187108276988863 0.128841199517663
v -0.019480861208977 -0.187052075463021 0.179630789997803
v -0.022346613271441 -0.186995873937179 0.230420380477943
v -0.025212365333904 -0.186939672411337 0.281209970958083
v 0.006597871987786 -0.133482753544626 -0.328470519671731
v 0.003732119925323 -0.133426552018784 -0.277680929191592
v 0.000866367862860 -0.133370350492942 -0.226891338711452
v -0.001999384199603 -0.133314148967100 -0.176101748231312
v -0.004865136262067 -0.133257947441258 -0.125312157751172
v -0.007730888324530 -0.133201745915416 -0.074522567271032
v -0.010596640386993 -0.133145544389574 -0.023732976790892
v -0.013462392449457 -0.133089342863732 0.027056613689247
v -0.016328144511920 -0.133033141337890 0.077846204169387
v -0.019193896574383 -0.132976939812048 0.128635794649527
v -0.022059648636846 -0.132920738286206 0.179425385129667
v -0.024925400699310 -0.132864536760364 0.230214975609807
v -0.027791152761773 -0.132808335234523 0.281004566089947
v -0.030656904824236 -0.132752133708681 0.331794156570086
v 0.004019084559917 -0.079351416367811 -0.328675924539868
v 0.001153332497454 -0.079295214841969 -0.277886334059728
v -0.001712419565009 -0.079239013316127 -0.227096743579588
v -0.004578171627473 -0.079182811790286 -0.176307153099448
v -0.007443923689936 -0.079126610264444 -0.125517562619308
v -0.010309675752399 -0.079070408738602 -0.074727972139169
v -0.013175427814862 -0.079014207212760 -0.023938381659029
v -0.016041179877326 -0.078958005686918 0.026851208821111
v -0.018906931939789 -0.078901804161076 0.077640799301251
v -0.021772684002252 -0.078845602635234 0.128430389781391
v -0.024638436064715 -0.078789401109392 0.179219980261531
v -0.027504188127179 -0.078733199583550 0.230009570741670
v -0.030369940189642 -0.078676998057708 0.280799161221810
v -0.033235692252105 -0.078620796531866 0.331588751701950
v 0.004306049194512 -0.025276280716839 -0.379670919888144
v 0.001440297132048 -0.025220079190997 -0.328881329408004
v -0.001425454930415 -0.025163877665155 -0.278091738927864
v -0.004291206992878 -0.025107676139313 -0.227302148447724
v -0.007156959055342 -0.025051474613471 -0.176512557967584
v -0.010022711117805 -0.024995273087629 -0.125722967487445
v -0.012888463180268 -0.024939071561787 -0.074933377007305
v -0.015754215242731 -0.024882870035945 -0.024143786527165
v -0.018619967305195 -0.024826668510103 0.026645803952975
v -0.021485719367658 -0.024770466984261 0.077435394433115
v -0.024351471430121 -0.024714265458420 0.128224984913254
v -0.027217223492585 -0.024658063932578 0.179014575393394
v -0.030082975555048 -0.024601862406736 0.229804165873534
v -0.032948727617511 -0.024545660880894 0.280593756353674
v -0.035814479679974 -0.024489459355052 0.331383346833814
v 0.001727261766642 0.028855056459976 -0.379876324756280
v -0.001138490295821 0.028911257985818 -0.329086734276140
v -0.004004242358284 0.028967459511659 -0.278297143796001
v -0.006869994420747 0.029023661037501 -0.227507553315861
v -0.009735746483211 0.029079862563343 -0.176717962835721
v -0.012601498545674 0.029136064089185 -0.125928372355581
v -0.015467250608137 0.029192265615027 -0.075138781875441
v -0.018333002670601 0.029248467140869 -0.024349191395301
v -0.021198754733064 0.029304668666711 0.026440399084838
v -0.024064506795527 0.029360870192553 0.077229989564978
v -0.026930258857990 0.029417071718395 0.128019580045118
v -0.029796010920454 0.029473273244237 0.178809170525258
v -0.032661762982917 0.029529474770079 0.229598761005398
v -0.035527515045380 0.029585676295921 0.280388351485538
v -0.038393267107843 0.029641877821763 0.331177941965677
v -0.003717277723690 0.083042595162632 -0.329292139144277
v -0.006583029786153 0.083098796688474 -0.278502548664137
v -0.009448781848617 0.083154998214316 -0.227712958183997
v -0.012314533911080 0.083211199740158 -0.176923367703857
v -0.015180285973543 0.083267401266000 -0.126133777223717
v -0.018046038036006 0.083323602791842 -0.075344186743577
v -0.020911790098470 0.083379804317683 -0.024554596263438
v -0.023777542160933 0.083436005843525 0.026234994216702
v -0.026643294223396 0.083492207369367 0.077024584696842
v -0.029509046285859 0.083548408895209 0.127814175176982
v -0.032374798348323 0.083604610421051 0.178603765657122
v -0.035240550410786 0.083660811946893 0.229393356137261
v -0.038106302473249 0.083717013472735 0.280182946617401
v -0.040972054535713 0.083773214998577 0.330972537097541
v -0.043837806598176 0.083829416524419 0.381762127577681
v -0.006296065151559 0.137173932339446 -0.329497544012413
v -0.009161817214022 0.137230133865288 -0.278707953532273
v -0.012027569276486 0.137286335391130 -0.227918363052133
v -0.014893321338949 0.137342536916972 -0.177128772571993
v -0.017759073401412 0.137398738442814 -0.126339182091854
v -0.020624825463875 0.137454939968656 -0.075549591611714
v -0.023490577526339 0.137511141494498 -0.024760001131574
v -0.026356329588802 0.137567343020340 0.026029589348566
v -0.029222081651265 0.137623544546182 0.076819179828706
v -0.032087833713729 0.137679746072024 0.127608770308845
v -0.034953585776192 0.137735947597866 0.178398360788985
v -0.037819337838655 0.137792149123707 0.229187951269125
v -0.040685089901118 0.137848350649549 0.279977541749265
v -0.043550841963582 0.137904552175391 0.330767132229405
v -0.008874852579428 0.191305269516261 -0.329702948880549
v -0.011740604641891 0.191361471042103 -0.278913358400409
v -0.014606356704355 0.191417672567945 -0.228123767920270
v -0.017472108766818 0.191473874093787 -0.177334177440130
v -0.020337860829281 0.191530075619629 -0.126544586959990
v -0.023203612891745 0.191586277145470 -0.075754996479850
v -0.026069364954208 0.191642478671312 -0.024965405999710
v -0.028935117016671 0.191698680197154 0.025824184480430
v -0.031800869079134 0.191754881722996 0.076613774960569
v -0.034666621141598 0.191811083248838 0.127403365440709
v -0.037532373204061 0.191867284774680 0.178192955920849
v -0.040398125266524 0.191923486300522 0.228982546400989
v -0.043263877328988 0.191979687826364 0.279772136881129
v -0.046129629391451 0.192035889352206 0.330561727361268
v -0.014319392069761 0.245492808218917 -0.279118763268546
v -0.017185144132224 0.245549009744759 -0.228329172788406
v -0.020050896194687 0.245605211270601 -0.177539582308266
v -0.022916648257150 0.245661412796443 -0.126749991828126
v -0.025782400319614 0.245717614322285 -0.075960401347986
v -0.028648152382077 0.245773815848127 -0.025170810867847
v -0.031513904444540 0.245830017373969 0.025618779612293
v -0.034379656507003 0.245886218899811 0.076408370092433
v -0.037245408569467 0.245942420425652 0.127197960572573
v -0.040111160631930 0.245998621951494 0.177987551052713
v -0.042976912694393 0.246054823477336 0.228777141532852
v -0.045842664756857 0.246111025003178 0.279566732012992
v -0.019763931560093 0.299680346921573 -0.228534577656542
v -0.022629683622556 0.299736548447415 -0.177744987176402
v -0.025495435685019 0.299792749973257 -0.126955396696263
v -0.028361187747483 0.299848951499099 -0.076165806216123
v -0.031226939809946 0.299905153024941 -0.025376215735983
v -0.034092691872409 0.299961354550783 0.025413374744157
v -0.036958443934873 0.300017556076625 0.076202965224297
v -0.039824195997336 0.300073757602467 0.126992555704437
v -0.042689948059799 0.300129959128309 0.177782146184576
v -0.045555700122262 0.300186160654151 0.228571736664716
v -0.028074223112889 0.353924087150072 -0.127160801564399
v -0.030939975175352 0.353980288675914 -0.076371211084259
v -0.033805727237815 0.354036490201755 -0.025581620604119
v -0.036671479300278 0.354092691727597 0.025207969876021
v -0.039537231362742 0.354148893253439 0.075997560356160
v 0.056011053200836 -0.401231846597881 -0.019678051508571
v 0.059163769897893 -0.347212912472751 -0.121462637336987
v 0.056298017835430 -0.347156710946909 -0.070673046856847
v 0.053432265772966 -0.347100509421067 -0.019883456376707
v 0.050566513710503 -0.347044307895225 0.030906134103433
v 0.047700761648040 -0.346988106369383 0.081695724583572
v 0.044835009585577 -0.346931904843541 0.132485315063712
v 0.041969257523113 -0.346875703317699 0.183274905543852
v 0.059450734532487 -0.293137776821778 -0.172457632685263
v 0.056584982470024 -0.293081575295936 -0.121668042205123
v 0.053719230407561 -0.293025373770094 -0.070878451724983
v 0.050853478345097 -0.292969172244252 -0.020088861244844
v 0.047987726282634 -0.292912970718410 0.030700729235296
v 0.045121974220171 -0.292856769192568 0.081490319715436
v 0.042256222157707 -0.292800567666727 0.132279910195576
v 0.039390470095244 -0.292744366140885 0.183069500675716
v 0.036524718032781 -0.292688164615043 0.233859091155855
v 0.062603451229545 -0.239118842696648 -0.274242218513679
v 0.059737699167081 -0.239062641170806 -0.223452628033539
v 0.056871947104618 -0.239006439644964 -0.172663037553399
v 0.054006195042155 -0.238950238119122 -0.121873447073260
v 0.051140442979692 -0.238894036593280 -0.071083856593120
v 0.048274690917228 -0.238837835067438 -0.020294266112980
v 0.045408938854765 -0.238781633541596 0.030495324367160
v 0.042543186792302 -0.238725432015754 0.081284914847300
v 0.039677434729838 -0.238669230489912 0.132074505327440
v 0.036811682667375 -0.238613028964070 0.182864095807579
v 0.033945930604912 -0.238556827438228 0.233653686287719
v 0.060024663801676 -0.184987505519833 -0.274447623381815
v 0.057158911739212 -0.184931303993991 -0.223658032901676
v 0.054293159676749 -0.184875102468149 -0.172868442421536
v 0.051427407614286 -0.184818900942307 -0.122078851941396
v 0.048561655551822 -0.184762699416465 -0.071289261461256
v 0.045695903489359 -0.184706497890624 -0.020499670981116
v 0.042830151426896 -0.184650296364782 0.030289919499024
v 0.039964399364433 -0.184594094838940 0.081079509979163
v 0.037098647301969 -0.184537893313098 0.131869100459303
v 0.034232895239506 -0.184481691787256 0.182658690939443
v 0.031367143177043 -0.184425490261414 0.233448281419583
v 0.028501391114579 -0.184369288735572 0.284237871899723
v 0.060311628436270 -0.130912369868861 -0.325442618730092
v 0.057445876373806 -0.130856168343019 -0.274653028249952
v 0.054580124311343 -0.130799966817177 -0.223863437769812
v 0.051714372248880 -0.130743765291335 -0.173073847289672
v 0.048848620186417 -0.130687563765493 -0.122284256809532
v 0.045982868123953 -0.130631362239651 -0.071494666329392
v 0.043117116061490 -0.130575160713809 -0.020705075849253
v 0.040251363999027 -0.130518959187967 0.030084514630887
v 0.037385611936563 -0.130462757662125 0.080874105111027
v 0.034519859874100 -0.130406556136283 0.131663695591167
v 0.031654107811637 -0.130350354610441 0.182453286071307
v 0.028788355749174 -0.130294153084599 0.233242876551446
v 0.025922603686710 -0.130237951558758 0.284032467031586
v 0.023056851624247 -0.130181750032916 0.334822057511726
v 0.057732841008401 -0.076781032692046 -0.325648023598228
v 0.054867088945937 -0.076724831166204 -0.274858433118088
v 0.052001336883474 -0.076668629640362 -0.224068842637948
v 0.049135584821011 -0.076612428114520 -0.173279252157808
v 0.046269832758547 -0.076556226588679 -0.122489661677669
v 0.043404080696084 -0.076500025062837 -0.071700071197529
v 0.040538328633621 -0.076443823536995 -0.020910480717389
v 0.037672576571158 -0.076387622011153 0.029879109762751
v 0.034806824508694 -0.076331420485311 0.080668700242891
v 0.031941072446231 -0.076275218959469 0.131458290723031
v 0.029075320383768 -0.076219017433627 0.182247881203170
v 0.026209568321305 -0.076162815907785 0.233037471683310
v 0.023343816258841 -0.076106614381943 0.283827062163450
v 0.020478064196378 -0.076050412856101 0.334616652643590
v 0.058019805642995 -0.022705897041074 -0.376643018946504
v 0.055154053580532 -0.022649695515232 -0.325853428466364
v 0.052288301518068 -0.022593493989390 -0.275063837986224
v 0.049422549455605 -0.022537292463548 -0.224274247506085
v 0.046556797393142 -0.022481090937706 -0.173484657025945
v 0.043691045330678 -0.022424889411864 -0.122695066545805
v 0.040825293268215 -0.022368687886022 -0.071905476065665
v 0.037959541205752 -0.022312486360180 -0.021115885585525
v 0.035093789143289 -0.022256284834338 0.029673704894615
v 0.032228037080825 -0.022200083308496 0.080463295374754
v 0.029362285018362 -0.022143881782654 0.131252885854894
v 0.026496532955899 -0.022087680256813 0.182042476335034
v 0.023630780893435 -0.022031478730971 0.232832066815174
v 0.020765028830972 -0.021975277205129 0.283621657295314
v 0.017899276768509 -0.021919075679287 0.334411247775454
v 0.055441018215126 0.031425440135741 -0.376848423814640
v 0.052575266152662 0.031481641661583 -0.326058833334500
v 0.049709514090199 0.031537843187425 -0.275269242854361
v 0.046843762027736 0.031594044713266 -0.224479652374221
v 0.043978009965273 0.031650246239108 -0.173690061894081
v 0.041112257902809 0.031706447764950 -0.122900471413941
v 0.038246505840346 0.031762649290792 -0.072110880933801
v 0.035380753777883 0.031818850816634 -0.021321290453662
v 0.032515001715419 0.031875052342476 0.029468300026478
v 0.029649249652956 0.031931253868318 0.080257890506618
v 0.026783497590493 0.031987455394160 0.131047480986758
v 0.023917745528030 0.032043656920002 0.181837071466898
v 0.021051993465566 0.032099858445844 0.232626661947038
v 0.018186241403103 0.032156059971686 0.283416252427177
v 0.015320489340640 0.032212261497528 0.334205842907317
v 0.052862230787257 0.085556777312555 -0.377053828682777
v 0.049996478724793 0.085612978838397 -0.326264238202637
v 0.047130726662330 0.085669180364239 -0.275474647722497
v 0.044264974599867 0.085725381890081 -0.224685057242357
v 0.041399222537403 0.085781583415923 -0.173895466762217
v 0.038533470474940 0.085837784941765 -0.123105876282078
v 0.035667718412477 0.085893986467607 -0.072316285801938
v 0.032801966350014 0.085950187993449 -0.021526695321798
v 0.029936214287550 0.086006389519290 0.029262895158342
v 0.027070462225087 0.086062591045132 0.080052485638482
v 0.024204710162624 0.086118792570974 0.130842076118622
v 0.021338958100161 0.086174994096816 0.181631666598761
v 0.018473206037697 0.086231195622658 0.232421257078901
v 0.015607453975234 0.086287397148500 0.283210847559041
v 0.012741701912771 0.086343598674342 0.334000438039181
v 0.009875949850307 0.086399800200184 0.384790028519321
v 0.047417691296924 0.139744316015211 -0.326469643070773
v 0.044551939234461 0.139800517541053 -0.275680052590633
v 0.041686187171998 0.139856719066895 -0.224890462110493
v 0.038820435109534 0.139912920592737 -0.174100871630354
v 0.035954683047071 0.139969122118579 -0.123311281150214
v 0.033088930984608 0.140025323644421 -0.072521690670074
v 0.030223178922145 0.140081525170263 -0.021732100189934
v 0.027357426859681 0.140137726696105 0.029057490290206
v 0.024491674797218 0.140193928221947 0.079847080770345
v 0.021625922734755 0.140250129747789 0.130636671250485
v 0.018760170672291 0.140306331273631 0.181426261730625
v 0.015894418609828 0.140362532799473 0.232215852210765
v 0.013028666547365 0.140418734325314 0.283005442690905
v 0.010162914484902 0.140474935851156 0.333795033171045
v 0.044838903869055 0.193875653192026 -0.326675047938909
v 0.041973151806592 0.193931854717868 -0.275885457458770
v 0.039107399744129 0.193988056243710 -0.225095866978630
v 0.036241647681665 0.194044257769552 -0.174306276498490
v 0.033375895619202 0.194100459295394 -0.123516686018350
v 0.030510143556739 0.194156660821236 -0.072727095538210
v 0.027644391494275 0.194212862347077 -0.021937505058071
v 0.024778639431812 0.194269063872919 0.028852085422069
v 0.021912887369349 0.194325265398761 0.079641675902209
v 0.019047135306886 0.194381466924603 0.130431266382349
v 0.016181383244422 0.194437668450445 0.181220856862489
v 0.013315631181959 0.194493869976287 0.232010447342629
v 0.010449879119496 0.194550071502129 0.282800037822768
v 0.007584127057032 0.194606273027971 0.333589628302908
v 0.039394364378723 0.248063191894682 -0.276090862326906
v 0.036528612316259 0.248119393420524 -0.225301271846766
v 0.033662860253796 0.248175594946366 -0.174511681366626
v 0.030797108191333 0.248231796472208 -0.123722090886487
v 0.027931356128870 0.248287997998050 -0.072932500406347
v 0.025065604066406 0.248344199523892 -0.022142909926207
v 0.022199852003943 0.248400401049734 0.028646680553933
v 0.019334099941480 0.248456602575576 0.079436271034073
v 0.016468347879017 0.248512804101417 0.130225861514213
v 0.013602595816553 0.248569005627259 0.181015451994352
v 0.010736843754090 0.248625207153101 0.231805042474492
v 0.007871091691627 0.248681408678943 0.282594632954632
v 0.033949824888390 0.302250730597339 -0.225506676714902
v 0.031084072825927 0.302306932123180 -0.174717086234763
v 0.028218320763464 0.302363133649022 -0.123927495754623
v 0.025352568701001 0.302419335174864 -0.073137905274483
v 0.022486816638537 0.302475536700706 -0.022348314794343
v 0.019621064576074 0.302531738226548 0.028441275685797
v 0.016755312513611 0.302587939752390 0.079230866165936
v 0.013889560451147 0.302644141278232 0.130020456646076
v 0.011023808388684 0.302700342804074 0.180810047126216
v 0.025639533335595 0.356494470825837 -0.124132900622759
v 0.022773781273131 0.356550672351679 -0.073343310142619
v 0.019908029210668 0.356606873877521 -0.022553719662479
v 0.017042277148205 0.356663075403362 0.028235870817660
v 0.014176525085742 0.356719276929204 0.079025461297800
v 0.017329241782799 0.410738211054335 -0.022759124530616
v 0.112877526346376 -0.344642528796986 -0.118434736395347
v 0.110011774283913 -0.344586327271144 -0.067645145915207
v 0.107146022221450 -0.344530125745302 -0.016855555435068
v 0.104280270158986 -0.344473924219460 0.033934035045072
v 0.101414518096523 -0.344417722693618 0.084723625525212
v 0.098548766034060 -0.344361521167776 0.135513216005352
v 0.113164490980970 -0.290567393146013 -0.169429731743623
v 0.110298738918507 -0.290511191620171 -0.118640141263483
v 0.107432986856044 -0.290454990094329 -0.067850550783344
v 0.104567234793581 -0.290398788568487 -0.017060960303204
v 0.101701482731117 -0.290342587042645 0.033728630176936
v 0.098835730668654 -0.290286385516803 0.084518220657076
v 0.095969978606191 -0.290230183990961 0.135307811137216
v 0.093104226543728 -0.290173982465120 0.186097401617355
v 0.090238474481264 -0.290117780939278 0.236886992097495
v 0.113451455615565 -0.236492257495041 -0.220424727091899
v 0.110585703553101 -0.236436055969199 -0.169635136611760
v 0.107719951490638 -0.236379854443357 -0.118845546131620
v 0.104854199428175 -0.236323652917515 -0.068055955651480
v 0.101988447365712 -0.236267451391673 -0.017266365171340
v 0.099122695303248 -0.236211249865831 0.033523225308800
v 0.096256943240785 -0.236155048339989 0.084312815788940
v 0.093391191178322 -0.236098846814147 0.135102406269079
v 0.090525439115858 -0.236042645288305 0.185891996749219
v 0.087659687053395 -0.235986443762463 0.236681587229359
v 0.113738420250159 -0.182417121844068 -0.271419722440176
v 0.110872668187696 -0.182360920318226 -0.220630131960036
v 0.108006916125232 -0.182304718792384 -0.169840541479896
v 0.105141164062769 -0.182248517266542 -0.119050950999756
v 0.102275412000306 -0.182192315740700 -0.068261360519616
v 0.099409659937842 -0.182136114214858 -0.017471770039476
v 0.096543907875379 -0.182079912689016 0.033317820440663
v 0.093678155812916 -0.182023711163175 0.084107410920803
v 0.090812403750453 -0.181967509637333 0.134897001400943
v 0.087946651687989 -0.181911308111491 0.185686591881083
v 0.085080899625526 -0.181855106585649 0.236476182361223
v 0.082215147563063 -0.181798905059807 0.287265772841362
v 0.114025384884753 -0.128341986193096 -0.322414717788452
v 0.111159632822290 -0.128285784667254 -0.271625127308312
v 0.108293880759826 -0.128229583141412 -0.220835536828172
v 0.105428128697363 -0.128173381615570 -0.170045946348032
v 0.102562376634900 -0.128117180089728 -0.119256355867892
v 0.099696624572437 -0.128060978563886 -0.068466765387753
v 0.096830872509973 -0.128004777038044 -0.017677174907613
v 0.093965120447510 -0.127948575512202 0.033112415572527
v 0.091099368385047 -0.127892373986360 0.083902006052667
v 0.088233616322584 -0.127836172460518 0.134691596532807
v 0.085367864260120 -0.127779970934676 0.185481187012946
v 0.082502112197657 -0.127723769408834 0.236270777493086
v 0.079636360135194 -0.127667567882992 0.287060367973226
v 0.111446597456884 -0.074210649016281 -0.322620122656588
v 0.108580845394421 -0.074154447490439 -0.271830532176448
v 0.105715093331957 -0.074098245964597 -0.221040941696308
v 0.102849341269494 -0.074042044438755 -0.170251351216169
v 0.099983589207031 -0.073985842912913 -0.119461760736029
v 0.097117837144568 -0.073929641387072 -0.068672170255889
v 0.094252085082104 -0.073873439861230 -0.017882579775749
v 0.091386333019641 -0.073817238335388 0.032907010704391
v 0.088520580957178 -0.073761036809546 0.083696601184531
v 0.085654828894714 -0.073704835283704 0.134486191664670
v 0.082789076832251 -0.073648633757862 0.185275782144810
v 0.079923324769788 -0.073592432232020 0.236065372624950
v 0.077057572707325 -0.073536230706178 0.286854963105090
v 0.074191820644861 -0.073480029180336 0.337644553585230
v 0.108867810029015 -0.020079311839467 -0.322825527524724
v 0.106002057966552 -0.020023110313625 -0.272035937044585
v 0.103136305904088 -0.019966908787783 -0.221246346564445
v 0.100270553841625 -0.019910707261941 -0.170456756084305
v 0.097404801779162 -0.019854505736099 -0.119667165604165
v 0.094539049716698 -0.019798304210257 -0.068877575124025
v 0.091673297654235 -0.019742102684415 -0.018087984643885
v 0.088807545591772 -0.019685901158573 0.032701605836254
v 0.085941793529309 -0.019629699632731 0.083491196316394
v 0.083076041466845 -0.019573498106889 0.134280786796534
v 0.080210289404382 -0.019517296581047 0.185070377276674
v 0.077344537341919 -0.019461095055206 0.235859967756814
v 0.074478785279455 -0.019404893529364 0.286649558236953
v 0.071613033216992 -0.019348692003522 0.337439148717093
v 0.109154774663609 0.033995823811506 -0.373820522873001
v 0.106289022601146 0.034052025337348 -0.323030932392861
v 0.103423270538682 0.034108226863190 -0.272241341912721
v 0.100557518476219 0.034164428389032 -0.221451751432581
v 0.097691766413756 0.034220629914873 -0.170662160952441
v 0.094826014351293 0.034276831440715 -0.119872570472301
v 0.091960262288829 0.034333032966557 -0.069082979992162
v 0.089094510226366 0.034389234492399 -0.018293389512022
v 0.086228758163903 0.034445436018241 0.032496200968118
v 0.083363006101439 0.034501637544083 0.083285791448258
v 0.080497254038976 0.034557839069925 0.134075381928398
v 0.077631501976513 0.034614040595767 0.184864972408538
v 0.074765749914050 0.034670242121609 0.235654562888677
v 0.071899997851586 0.034726443647451 0.286444153368817
v 0.069034245789123 0.034782645173293 0.337233743848957
v 0.106575987235740 0.088127160988320 -0.374025927741137
v 0.103710235173277 0.088183362514162 -0.323236337260997
v 0.100844483110813 0.088239564040004 -0.272446746780857
v 0.097978731048350 0.088295765565846 -0.221657156300717
v 0.095112978985887 0.088351967091688 -0.170867565820578
v 0.092247226923424 0.088408168617530 -0.120077975340438
v 0.089381474860960 0.088464370143372 -0.069288384860298
v 0.086515722798497 0.088520571669214 -0.018498794380158
v 0.083649970736034 0.088576773195056 0.032290796099982
v 0.080784218673570 0.088632974720897 0.083080386580122
v 0.077918466611107 0.088689176246739 0.133869977060261
v 0.075052714548644 0.088745377772581 0.184659567540401
v 0.072186962486181 0.088801579298423 0.235449158020541
v 0.069321210423717 0.088857780824265 0.286238748500681
v 0.066455458361254 0.088913982350107 0.337028338980821
v 0.101131447745408 0.142314699690976 -0.323441742129133
v 0.098265695682944 0.142370901216818 -0.272652151648994
v 0.095399943620481 0.142427102742660 -0.221862561168854
v 0.092534191558018 0.142483304268502 -0.171072970688714
v 0.089668439495554 0.142539505794344 -0.120283380208574
v 0.086802687433091 0.142595707320186 -0.069493789728434
v 0.083936935370628 0.142651908846028 -0.018704199248294
v 0.081071183308165 0.142708110371870 0.032085391231845
v 0.078205431245701 0.142764311897712 0.082874981711985
v 0.075339679183238 0.142820513423554 0.133664572192125
v 0.072473927120775 0.142876714949396 0.184454162672265
v 0.069608175058311 0.142932916475238 0.235243753152405
v 0.066742422995848 0.142989118001080 0.286033343632544
v 0.063876670933385 0.143045319526922 0.336822934112684
v 0.098552660317538 0.196446036867791 -0.323647146997270
v 0.095686908255075 0.196502238393633 -0.272857556517130
v 0.092821156192612 0.196558439919475 -0.222067966036990
v 0.089955404130149 0.196614641445317 -0.171278375556850
v 0.087089652067685 0.196670842971159 -0.120488785076710
v 0.084223900005222 0.196727044497001 -0.069699194596571
v 0.081358147942759 0.196783246022843 -0.018909604116431
v 0.078492395880295 0.196839447548684 0.031879986363709
v 0.075626643817832 0.196895649074526 0.082669576843849
v 0.072760891755369 0.196951850600368 0.133459167323989
v 0.069895139692906 0.197008052126210 0.184248757804129
v 0.067029387630442 0.197064253652052 0.235038348284268
v 0.064163635567979 0.197120455177894 0.285827938764408
v 0.061297883505516 0.197176656703736 0.336617529244548
v 0.093108120827206 0.250633575570447 -0.273062961385266
v 0.090242368764743 0.250689777096289 -0.222273370905126
v 0.087376616702279 0.250745978622131 -0.171483780424987
v 0.084510864639816 0.250802180147973 -0.120694189944847
v 0.081645112577353 0.250858381673815 -0.069904599464707
v 0.078779360514890 0.250914583199657 -0.019115008984567
v 0.075913608452426 0.250970784725499 0.031674581495573
v 0.073047856389963 0.251026986251341 0.082464171975713
v 0.070182104327500 0.251083187777183 0.133253762455852
v 0.067316352265037 0.251139389303024 0.184043352935992
v 0.064450600202573 0.251195590828866 0.234832943416132
v 0.087663581336874 0.304821114273104 -0.222478775773263
v 0.084797829274410 0.304877315798946 -0.171689185293123
v 0.081932077211947 0.304933517324787 -0.120899594812983
v 0.079066325149484 0.304989718850629 -0.070110004332843
v 0.076200573087021 0.305045920376471 -0.019320413852703
v 0.073334821024557 0.305102121902313 0.031469176627436
v 0.070469068962094 0.305158323428155 0.082258767107576
v 0.067603316899631 0.305214524953997 0.133048357587716
v 0.064737564837167 0.305270726479839 0.183837948067856
v 0.079353289784078 0.359064854501602 -0.121104999681119
v 0.076487537721615 0.359121056027444 -0.070315409200980
v 0.073621785659151 0.359177257553286 -0.019525818720840
v 0.070756033596688 0.359233459079128 0.031263771759300
v 0.163725530732396 -0.342015943595379 -0.064617244973568
v 0.160859778669933 -0.341959742069537 -0.013827654493428
v 0.157994026607470 -0.341903540543695 0.036961935986712
v 0.155128274545006 -0.341847339017853 0.087751526466852
v 0.166878247429454 -0.287997009470248 -0.166401830801984
v 0.164012495366990 -0.287940807944406 -0.115612240321844
v 0.161146743304527 -0.287884606418564 -0.064822649841704
v 0.158280991242064 -0.287828404892722 -0.014033059361564
v 0.155415239179601 -0.287772203366880 0.036756531118576
v 0.152549487117137 -0.287716001841038 0.087546121598716
v 0.149683735054674 -0.287659800315196 0.138335712078855
v 0.146817982992211 -0.287603598789354 0.189125302558995
v 0.167165212064048 -0.233921873819275 -0.217396826150260
v 0.164299460001585 -0.233865672293434 -0.166607235670120
v 0.161433707939121 -0.233809470767592 -0.115817645189980
v 0.158567955876658 -0.233753269241750 -0.065028054709840
v 0.155702203814195 -0.233697067715908 -0.014238464229700
v 0.152836451751731 -0.233640866190066 0.036551126250439
v 0.149970699689268 -0.233584664664224 0.087340716730579
v 0.147104947626805 -0.233528463138382 0.138130307210719
v 0.144239195564342 -0.233472261612540 0.188919897690859
v 0.141373443501878 -0.233416060086698 0.239709488170999
v 0.167452176698642 -0.179846738168303 -0.268391821498536
v 0.164586424636179 -0.179790536642461 -0.217602231018396
v 0.161720672573715 -0.179734335116619 -0.166812640538256
v 0.158854920511252 -0.179678133590777 -0.116023050058116
v 0.155989168448789 -0.179621932064935 -0.065233459577977
v 0.153123416386326 -0.179565730539093 -0.014443869097837
v 0.150257664323862 -0.179509529013251 0.036345721382303
v 0.147391912261399 -0.179453327487409 0.087135311862443
v 0.144526160198936 -0.179397125961568 0.137924902342583
v 0.141660408136472 -0.179340924435726 0.188714492822723
v 0.138794656074009 -0.179284722909884 0.239504083302862
v 0.164873389270773 -0.125715400991489 -0.268597226366672
v 0.162007637208310 -0.125659199465647 -0.217807635886532
v 0.159141885145846 -0.125602997939805 -0.167018045406393
v 0.156276133083383 -0.125546796413963 -0.116228454926253
v 0.153410381020920 -0.125490594888121 -0.065438864446113
v 0.150544628958457 -0.125434393362279 -0.014649273965973
v 0.147678876895993 -0.125378191836437 0.036140316514167
v 0.144813124833530 -0.125321990310595 0.086929906994307
v 0.141947372771067 -0.125265788784753 0.137719497474446
v 0.139081620708603 -0.125209587258911 0.188509087954586
v 0.136215868646140 -0.125153385733069 0.239298678434726
v 0.133350116583677 -0.125097184207227 0.290088268914866
v 0.165160353905367 -0.071640265340516 -0.319592221714948
v 0.162294601842904 -0.071584063814674 -0.268802631234809
v 0.159428849780441 -0.071527862288832 -0.218013040754669
v 0.156563097717977 -0.071471660762990 -0.167223450274529
v 0.153697345655514 -0.071415459237148 -0.116433859794389
v 0.150831593593051 -0.071359257711306 -0.065644269314249
v 0.147965841530587 -0.071303056185465 -0.014854678834109
v 0.145100089468124 -0.071246854659623 0.035934911646030
v 0.142234337405661 -0.071190653133781 0.086724502126170
v 0.139368585343198 -0.071134451607939 0.137514092606310
v 0.136502833280734 -0.071078250082097 0.188303683086450
v 0.133637081218271 -0.071022048556255 0.239093273566590
v 0.130771329155808 -0.070965847030413 0.289882864046730
v 0.162581566477498 -0.017508928163702 -0.319797626583085
v 0.159715814415035 -0.017452726637860 -0.269008036102945
v 0.156850062352571 -0.017396525112018 -0.218218445622805
v 0.153984310290108 -0.017340323586176 -0.167428855142665
v 0.151118558227645 -0.017284122060334 -0.116639264662525
v 0.148252806165182 -0.017227920534492 -0.065849674182386
v 0.145387054102718 -0.017171719008650 -0.015060083702246
v 0.142521302040255 -0.017115517482808 0.035729506777894
v 0.139655549977792 -0.017059315956966 0.086519097258034
v 0.136789797915328 -0.017003114431124 0.137308687738174
v 0.133924045852865 -0.016946912905282 0.188098278218314
v 0.131058293790402 -0.016890711379440 0.238887868698453
v 0.128192541727939 -0.016834509853599 0.289677459178593
v 0.125326789665475 -0.016778308327757 0.340467049658733
v 0.162868531112092 0.036566207487271 -0.370792621931361
v 0.160002779049629 0.036622409013113 -0.320003031451221
v 0.157137026987166 0.036678610538955 -0.269213440971081
v 0.154271274924702 0.036734812064797 -0.218423850490941
v 0.151405522862239 0.036791013590639 -0.167634260010801
v 0.148539770799776 0.036847215116480 -0.116844669530662
v 0.145674018737313 0.036903416642322 -0.066055079050522
v 0.142808266674849 0.036959618168164 -0.015265488570382
v 0.139942514612386 0.037015819694006 0.035524101909758
v 0.137076762549923 0.037072021219848 0.086313692389898
v 0.134211010487459 0.037128222745690 0.137103282870037
v 0.131345258424996 0.037184424271532 0.187892873350177
v 0.128479506362533 0.037240625797374 0.238682463830317
v 0.125613754300070 0.037296827323216 0.289472054310457
v 0.122748002237606 0.037353028849058 0.340261644790597
v 0.157423991621760 0.090753746189927 -0.320208436319357
v 0.154558239559297 0.090809947715769 -0.269418845839217
v 0.151692487496833 0.090866149241611 -0.218629255359078
v 0.148826735434370 0.090922350767453 -0.167839664878938
v 0.145960983371907 0.090978552293295 -0.117050074398798
v 0.143095231309443 0.091034753819137 -0.066260483918658
v 0.140229479246980 0.091090955344979 -0.015470893438518
v 0.137363727184517 0.091147156870821 0.035318697041621
v 0.134497975122054 0.091203358396663 0.086108287521761
v 0.131632223059590 0.091259559922504 0.136897878001901
v 0.128766470997127 0.091315761448346 0.187687468482041
v 0.125900718934664 0.091371962974188 0.238477058962181
v 0.123034966872200 0.091428164500030 0.289266649442321
v 0.120169214809737 0.091484366025872 0.340056239922460
v 0.154845204193891 0.144885083366742 -0.320413841187494
v 0.151979452131427 0.144941284892583 -0.269624250707354
v 0.149113700068964 0.144997486418425 -0.218834660227214
v 0.146247948006501 0.145053687944267 -0.168045069747074
v 0.143382195944038 0.145109889470109 -0.117255479266934
v 0.140516443881574 0.145166090995951 -0.066465888786794
v 0.137650691819111 0.145222292521793 -0.015676298306655
v 0.134784939756648 0.145278494047635 0.035113292173485
v 0.131919187694184 0.145334695573477 0.085902882653625
v 0.129053435631721 0.145390897099319 0.136692473133765
v 0.126187683569258 0.145447098625161 0.187482063613905
v 0.123321931506795 0.145503300151003 0.238271654094044
v 0.120456179444331 0.145559501676845 0.289061244574184
v 0.117590427381868 0.145615703202687 0.339850835054324
v 0.149400664703558 0.199072622069398 -0.269829655575490
v 0.146534912641095 0.199128823595240 -0.219040065095350
v 0.143669160578632 0.199185025121082 -0.168250474615210
v 0.140803408516168 0.199241226646924 -0.117460884135071
v 0.137937656453705 0.199297428172766 -0.066671293654931
v 0.135071904391242 0.199353629698608 -0.015881703174791
v 0.132206152328779 0.199409831224450 0.034907887305349
v 0.129340400266315 0.199466032750291 0.085697477785489
v 0.126474648203852 0.199522234276133 0.136487068265629
v 0.123608896141389 0.199578435801975 0.187276658745768
v 0.120743144078926 0.199634637327817 0.238066249225908
v 0.117877392016462 0.199690838853659 0.288855839706048
v 0.146821877275689 0.253203959246212 -0.270035060443626
v 0.143956125213226 0.253260160772054 -0.219245469963487
v 0.141090373150763 0.253316362297896 -0.168455879483347
v 0.138224621088299 0.253372563823738 -0.117666289003207
v 0.135358869025836 0.253428765349580 -0.066876698523067
v 0.132493116963373 0.253484966875422 -0.016087108042927
v 0.129627364900910 0.253541168401264 0.034702482437213
v 0.126761612838446 0.253597369927106 0.085492072917352
v 0.123895860775983 0.253653571452948 0.136281663397492
v 0.121030108713520 0.253709772978790 0.187071253877632
v 0.118164356651056 0.253765974504632 0.237860844357772
v 0.138511585722894 0.307447699474711 -0.168661284351483
v 0.135645833660430 0.307503901000553 -0.117871693871343
v 0.132780081597967 0.307560102526394 -0.067082103391203
v 0.129914329535504 0.307616304052236 -0.016292512911064
v 0.127048577473040 0.307672505578078 0.034497077569076
v 0.124182825410577 0.307728707103920 0.085286668049216
v 0.121317073348114 0.307784908629762 0.136076258529356
v 0.130201294170098 0.361691439703209 -0.067287508259340
v 0.127335542107635 0.361747641229051 -0.016497917779200
v 0.124469790045171 0.361803842754893 0.034291672700940
v 0.214573535118416 -0.339389358393771 -0.010799753551788
v 0.217726251815474 -0.285370424268641 -0.112584339380204
v 0.214860499753010 -0.285314222742799 -0.061794748900064
v 0.211994747690547 -0.285258021216957 -0.011005158419924
v 0.209128995628084 -0.285201819691115 0.039784432060216
v 0.206263243565621 -0.285145618165273 0.090574022540355
v 0.203397491503157 -0.285089416639431 0.141363613020495
v 0.218013216450068 -0.231295288617668 -0.163579334728480
v 0.215147464387605 -0.231239087091827 -0.112789744248340
v 0.212281712325141 -0.231182885565985 -0.062000153768200
v 0.209415960262678 -0.231126684040143 -0.011210563288061
v 0.206550208200215 -0.231070482514301 0.039579027192079
v 0.203684456137751 -0.231014280988459 0.090368617672219
v 0.200818704075288 -0.230958079462617 0.141158208152359
v 0.197952952012825 -0.230901877936775 0.191947798632499
v 0.218300181084662 -0.177220152966696 -0.214574330076756
v 0.215434429022199 -0.177163951440854 -0.163784739596616
v 0.212568676959735 -0.177107749915012 -0.112995149116477
v 0.209702924897272 -0.177051548389170 -0.062205558636337
v 0.206837172834809 -0.176995346863328 -0.011415968156197
v 0.203971420772346 -0.176939145337486 0.039373622323943
v 0.201105668709882 -0.176882943811644 0.090163212804083
v 0.198239916647419 -0.176826742285803 0.140952803284223
v 0.195374164584956 -0.176770540759961 0.191742393764362
v 0.192508412522493 -0.176714339234119 0.242531984244502
v 0.218587145719256 -0.123145017315723 -0.265569325425032
v 0.215721393656793 -0.123088815789882 -0.214779734944893
v 0.212855641594330 -0.123032614264040 -0.163990144464753
v 0.209989889531866 -0.122976412738198 -0.113200553984613
v 0.207124137469403 -0.122920211212356 -0.062410963504473
v 0.204258385406940 -0.122864009686514 -0.011621373024333
v 0.201392633344477 -0.122807808160672 0.039168217455807
v 0.198526881282013 -0.122751606634830 0.089957807935946
v 0.195661129219550 -0.122695405108988 0.140747398416086
v 0.192795377157087 -0.122639203583146 0.191536988896226
v 0.189929625094623 -0.122583002057304 0.242326579376366
v 0.216008358291387 -0.069013680138909 -0.265774730293169
v 0.213142606228924 -0.068957478613067 -0.214985139813029
v 0.210276854166461 -0.068901277087225 -0.164195549332889
v 0.207411102103997 -0.068845075561383 -0.113405958852749
v 0.204545350041534 -0.068788874035541 -0.062616368372609
v 0.201679597979071 -0.068732672509699 -0.011826777892470
v 0.198813845916607 -0.068676470983858 0.038962812587670
v 0.195948093854144 -0.068620269458016 0.089752403067810
v 0.193082341791681 -0.068564067932174 0.140541993547950
v 0.190216589729218 -0.068507866406332 0.191331584028090
v 0.187350837666754 -0.068451664880490 0.242121174508230
v 0.184485085604291 -0.068395463354648 0.292910764988369
v 0.213429570863518 -0.014882342962095 -0.265980135161305
v 0.210563818801055 -0.014826141436253 -0.215190544681165
v 0.207698066738591 -0.014769939910411 -0.164400954201025
v 0.204832314676128 -0.014713738384569 -0.113611363720886
v 0.201966562613665 -0.014657536858727 -0.062821773240746
v 0.199100810551202 -0.014601335332885 -0.012032182760606
v 0.196235058488738 -0.014545133807043 0.038757407719534
v 0.193369306426275 -0.014488932281201 0.089546998199674
v 0.190503554363812 -0.014432730755359 0.140336588679814
v 0.187637802301348 -0.014376529229517 0.191126179159953
v 0.184772050238885 -0.014320327703675 0.241915769640093
v 0.181906298176422 -0.014264126177833 0.292705360120233
v 0.213716535498112 0.039192792688878 -0.316975130509581
v 0.210850783435649 0.039248994214720 -0.266185540029441
v 0.207985031373186 0.039305195740562 -0.215395949549302
v 0.205119279310722 0.039361397266404 -0.164606359069162
v 0.202253527248259 0.039417598792246 -0.113816768589022
v 0.199387775185796 0.039473800318087 -0.063027178108882
v 0.196522023123333 0.039530001843929 -0.012237587628742
v 0.193656271060869 0.039586203369771 0.038552002851398
v 0.190790518998406 0.039642404895613 0.089341593331537
v 0.187924766935943 0.039698606421455 0.140131183811677
v 0.185059014873479 0.039754807947297 0.190920774291817
v 0.182193262811016 0.039811009473139 0.241710364771957
v 0.179327510748553 0.039867210998981 0.292499955252097
v 0.176461758686090 0.039923412524823 0.343289545732237
v 0.211137748070243 0.093324129865692 -0.317180535377717
v 0.208271996007780 0.093380331391534 -0.266390944897578
v 0.205406243945317 0.093436532917376 -0.215601354417438
v 0.202540491882853 0.093492734443218 -0.164811763937298
v 0.199674739820390 0.093548935969060 -0.114022173457158
v 0.196808987757927 0.093605137494902 -0.063232582977018
v 0.193943235695463 0.093661339020744 -0.012442992496879
v 0.191077483633000 0.093717540546586 0.038346597983261
v 0.188211731570537 0.093773742072428 0.089136188463401
v 0.185345979508074 0.093829943598270 0.139925778943541
v 0.182480227445610 0.093886145124111 0.190715369423681
v 0.179614475383147 0.093942346649953 0.241504959903821
v 0.176748723320684 0.093998548175795 0.292294550383960
v 0.173882971258220 0.094054749701637 0.343084140864100
v 0.205693208579911 0.147511668568349 -0.266596349765714
v 0.202827456517447 0.147567870094190 -0.215806759285574
v 0.199961704454984 0.147624071620032 -0.165017168805434
v 0.197095952392521 0.147680273145874 -0.114227578325295
v 0.194230200330058 0.147736474671716 -0.063437987845155
v 0.191364448267594 0.147792676197558 -0.012648397365015
v 0.188498696205131 0.147848877723400 0.038141193115125
v 0.185632944142668 0.147905079249242 0.088930783595265
v 0.182767192080205 0.147961280775084 0.139720374075405
v 0.179901440017741 0.148017482300926 0.190509964555544
v 0.177035687955278 0.148073683826768 0.241299555035684
v 0.174169935892815 0.148129885352610 0.292089145515824
v 0.203114421152042 0.201643005745163 -0.266801754633850
v 0.200248669089578 0.201699207271005 -0.216012164153710
v 0.197382917027115 0.201755408796847 -0.165222573673571
v 0.194517164964652 0.201811610322689 -0.114432983193431
v 0.191651412902189 0.201867811848531 -0.063643392713291
v 0.188785660839725 0.201924013374373 -0.012853802233151
v 0.185919908777262 0.201980214900215 0.037935788246989
v 0.183054156714799 0.202036416426057 0.088725378727128
v 0.180188404652335 0.202092617951898 0.139514969207268
v 0.177322652589872 0.202148819477740 0.190304559687408
v 0.174456900527409 0.202205021003582 0.241094150167548
v 0.197669881661709 0.255830544447819 -0.216217569021847
v 0.194804129599246 0.255886745973661 -0.165427978541707
v 0.191938377536783 0.255942947499503 -0.114638388061567
v 0.189072625474319 0.255999149025345 -0.063848797581427
v 0.186206873411856 0.256055350551187 -0.013059207101288
v 0.183341121349393 0.256111552077029 0.037730383378852
v 0.180475369286930 0.256167753602871 0.088519973858992
v 0.177609617224466 0.256223955128713 0.139309564339132
v 0.174743865162003 0.256280156654555 0.190099154819272
v 0.189359590108914 0.310074284676318 -0.114843792929703
v 0.186493838046450 0.310130486202160 -0.064054202449564
v 0.183628085983987 0.310186687728002 -0.013264611969424
v 0.180762333921524 0.310242889253843 0.037524978510716
v 0.177896581859060 0.310299090779685 0.088314568990856
v 0.268574256201494 -0.282743839067034 -0.058766847958424
v 0.265708504139030 -0.282687637541192 -0.007977257478284
v 0.262842752076567 -0.282631436015350 0.042812333001855
v 0.259977000014104 -0.282575234489508 0.093601923481995
v 0.268861220836088 -0.228668703416061 -0.109761843306700
v 0.265995468773625 -0.228612501890220 -0.058972252826561
v 0.263129716711161 -0.228556300364378 -0.008182662346421
v 0.260263964648698 -0.228500098838536 0.042606928133719
v 0.257398212586235 -0.228443897312694 0.093396518613859
v 0.254532460523771 -0.228387695786852 0.144186109093999
v 0.269148185470682 -0.174593567765089 -0.160756838654977
v 0.266282433408219 -0.174537366239247 -0.109967248174837
v 0.263416681345756 -0.174481164713405 -0.059177657694697
v 0.260550929283292 -0.174424963187563 -0.008388067214557
v 0.257685177220829 -0.174368761661721 0.042401523265583
v 0.254819425158366 -0.174312560135879 0.093191113745723
v 0.251953673095902 -0.174256358610037 0.143980704225862
v 0.249087921033439 -0.174200157084196 0.194770294706002
v 0.269435150105276 -0.120518432114116 -0.211751834003253
v 0.266569398042813 -0.120462230588275 -0.160962243523113
v 0.263703645980350 -0.120406029062433 -0.110172653042973
v 0.260837893917886 -0.120349827536591 -0.059383062562833
v 0.257972141855423 -0.120293626010749 -0.008593472082693
v 0.255106389792960 -0.120237424484907 0.042196118397446
v 0.252240637730497 -0.120181222959065 0.092985708877586
v 0.249374885668033 -0.120125021433223 0.143775299357726
v 0.246509133605570 -0.120068819907381 0.194564889837866
v 0.243643381543107 -0.120012618381539 0.245354480318006
v 0.266856362677407 -0.066387094937302 -0.211957238871389
v 0.263990610614944 -0.066330893411460 -0.161167648391249
v 0.261124858552481 -0.066274691885618 -0.110378057911109
v 0.258259106490017 -0.066218490359776 -0.059588467430970
v 0.255393354427554 -0.066162288833934 -0.008798876950830
v 0.252527602365091 -0.066106087308092 0.041990713529310
v 0.249661850302627 -0.066049885782251 0.092780304009450
v 0.246796098240164 -0.065993684256409 0.143569894489590
v 0.243930346177701 -0.065937482730567 0.194359484969729
v 0.241064594115238 -0.065881281204725 0.245149075449869
v 0.267143327312001 -0.012311959286330 -0.262952234219665
v 0.264277575249538 -0.012255757760488 -0.212162643739525
v 0.261411823187075 -0.012199556234646 -0.161373053259386
v 0.258546071124611 -0.012143354708804 -0.110583462779246
v 0.255680319062148 -0.012087153182962 -0.059793872299106
v 0.252814566999685 -0.012030951657120 -0.009004281818966
v 0.249948814937222 -0.011974750131278 0.041785308661174
v 0.247083062874758 -0.011918548605436 0.092574899141314
v 0.244217310812295 -0.011862347079594 0.143364489621453
v 0.241351558749832 -0.011806145553752 0.194154080101593
v 0.238485806687369 -0.011749944027910 0.244943670581733
v 0.235620054624905 -0.011693742502068 0.295733261061873
v 0.264564539884132 0.041819377890485 -0.263157639087802
v 0.261698787821669 0.041875579416327 -0.212368048607662
v 0.258833035759206 0.041931780942169 -0.161578458127522
v 0.255967283696742 0.041987982468011 -0.110788867647382
v 0.253101531634279 0.042044183993853 -0.059999277167242
v 0.250235779571816 0.042100385519694 -0.009209686687102
v 0.247370027509353 0.042156587045536 0.041579903793037
v 0.244504275446889 0.042212788571378 0.092369494273177
v 0.241638523384426 0.042268990097220 0.143159084753317
v 0.238772771321963 0.042325191623062 0.193948675233457
v 0.235907019259499 0.042381393148904 0.244738265713597
v 0.233041267197036 0.042437594674746 0.295527856193736
v 0.259120000393800 0.096006916593141 -0.212573453475798
v 0.256254248331337 0.096063118118983 -0.161783862995658
v 0.253388496268873 0.096119319644825 -0.110994272515518
v 0.250522744206410 0.096175521170667 -0.060204682035379
v 0.247656992143947 0.096231722696509 -0.009415091555239
v 0.244791240081483 0.096287924222351 0.041374498924901
v 0.241925488019020 0.096344125748193 0.092164089405041
v 0.239059735956557 0.096400327274035 0.142953679885181
v 0.236193983894094 0.096456528799877 0.193743270365321
v 0.233328231831630 0.096512730325718 0.244532860845460
v 0.230462479769167 0.096568931851560 0.295322451325600
v 0.256541212965931 0.150138253769956 -0.212778858343934
v 0.253675460903467 0.150194455295797 -0.161989267863795
v 0.250809708841004 0.150250656821639 -0.111199677383655
v 0.247943956778541 0.150306858347481 -0.060410086903515
v 0.245078204716078 0.150363059873323 -0.009620496423375
v 0.242212452653614 0.150419261399165 0.041169094056765
v 0.239346700591151 0.150475462925007 0.091958684536905
v 0.236480948528688 0.150531664450849 0.142748275017044
v 0.233615196466225 0.150587865976691 0.193537865497184
v 0.230749444403761 0.150644067502533 0.244327455977324
v 0.251096673475598 0.204325792472612 -0.162194672731931
v 0.248230921413135 0.204381993998454 -0.111405082251791
v 0.245365169350672 0.204438195524296 -0.060615491771651
v 0.242499417288209 0.204494397050138 -0.009825901291511
v 0.239633665225745 0.204550598575980 0.040963689188628
v 0.236767913163282 0.204606800101822 0.091753279668768
v 0.233902161100819 0.204663001627663 0.142542870148908
v 0.231036409038355 0.204719203153505 0.193332460629048
v 0.245652133985266 0.258513331175268 -0.111610487119927
v 0.242786381922803 0.258569532701110 -0.060820896639788
v 0.239920629860339 0.258625734226952 -0.010031306159648
v 0.237054877797876 0.258681935752794 0.040758284320492
v 0.234189125735413 0.258738137278636 0.091547874800632
v 0.231323373672950 0.258794338804478 0.142337465280772
v 0.319709225222108 -0.226042118214454 -0.055944351884921
v 0.316843473159645 -0.225985916688613 -0.005154761404781
v 0.313977721097181 -0.225929715162771 0.045634829075359
v 0.311111969034718 -0.225873513636929 0.096424419555499
v 0.319996189856702 -0.171966982563482 -0.106939347233197
v 0.317130437794239 -0.171910781037640 -0.056149756753057
v 0.314264685731776 -0.171854579511798 -0.005360166272917
v 0.311398933669312 -0.171798377985956 0.045429424207222
v 0.308533181606849 -0.171742176460114 0.096219014687362
v 0.305667429544386 -0.171685974934272 0.147008605167502
v 0.320283154491296 -0.117891846912509 -0.157934342581473
v 0.317417402428833 -0.117835645386668 -0.107144752101333
v 0.314551650366370 -0.117779443860826 -0.056355161621194
v 0.311685898303906 -0.117723242334984 -0.005565571141054
v 0.308820146241443 -0.117667040809142 0.045224019339086
v 0.305954394178980 -0.117610839283300 0.096013609819226
v 0.303088642116517 -0.117554637757458 0.146803200299366
v 0.300222890054053 -0.117498436231616 0.197592790779506
v 0.317704367063427 -0.063760509735695 -0.158139747449610
v 0.314838615000964 -0.063704308209853 -0.107350156969470
v 0.311972862938501 -0.063648106684011 -0.056560566489330
v 0.309107110876037 -0.063591905158169 -0.005770976009190
v 0.306241358813574 -0.063535703632327 0.045018614470950
v 0.303375606751111 -0.063479502106485 0.095808204951090
v 0.300509854688647 -0.063423300580644 0.146597795431229
v 0.297644102626184 -0.063367099054802 0.197387385911369
v 0.315125579635558 -0.009629172558881 -0.158345152317746
v 0.312259827573095 -0.009572971033039 -0.107555561837606
v 0.309394075510632 -0.009516769507197 -0.056765971357466
v 0.306528323448168 -0.009460567981355 -0.005976380877326
v 0.303662571385705 -0.009404366455513 0.044813209602813
v 0.300796819323242 -0.009348164929671 0.095602800082953
v 0.297931067260778 -0.009291963403829 0.146392390563093
v 0.295065315198315 -0.009235761877987 0.197181981043233
v 0.292199563135852 -0.009179560352145 0.247971571523373
v 0.312546792207689 0.044502164617934 -0.158550557185882
v 0.309681040145226 0.044558366143776 -0.107760966705742
v 0.306815288082762 0.044614567669618 -0.056971376225603
v 0.303949536020299 0.044670769195460 -0.006181785745463
v 0.301083783957836 0.044726970721301 0.044607804734677
v 0.298218031895373 0.044783172247143 0.095397395214817
v 0.295352279832909 0.044839373772985 0.146186985694957
v 0.292486527770446 0.044895575298827 0.196976576175097
v 0.289620775707983 0.044951776824669 0.247766166655236
v 0.309968004779820 0.098633501794748 -0.158755962054018
v 0.307102252717357 0.098689703320590 -0.107966371573879
v 0.304236500654893 0.098745904846432 -0.057176781093739
v 0.301370748592430 0.098802106372274 -0.006387190613599
v 0.298504996529967 0.098858307898116 0.044402399866541
v 0.295639244467503 0.098914509423958 0.095191990346681
v 0.292773492405040 0.098970710949800 0.145981580826821
v 0.289907740342577 0.099026912475642 0.196771171306960
v 0.287041988280114 0.099083114001484 0.247560761787100
v 0.304523465289487 0.152821040497404 -0.108171776442015
v 0.301657713227024 0.152877242023246 -0.057382185961875
v 0.298791961164561 0.152933443549088 -0.006592595481735
v 0.295926209102098 0.152989645074930 0.044196994998405
v 0.293060457039634 0.153045846600772 0.094986585478544
v 0.290194704977171 0.153102048126614 0.145776175958684
v 0.287328952914708 0.153158249652456 0.196565766438824
v 0.301944677861618 0.206952377674219 -0.108377181310151
v 0.299078925799155 0.207008579200061 -0.057587590830011
v 0.296213173736692 0.207064780725903 -0.006798000349872
v 0.293347421674229 0.207120982251745 0.043991590130268
v 0.290481669611765 0.207177183777587 0.094781180610408
v 0.287615917549302 0.207233385303429 0.145570771090548
v 0.367978442180259 -0.169284195836033 -0.002332265331278
v 0.365112690117795 -0.169227994310191 0.048457325148862
v 0.368265406814853 -0.115209060185061 -0.053327260679554
v 0.365399654752390 -0.115152858659219 -0.002537670199414
v 0.362533902689926 -0.115096657133377 0.048251920280726
v 0.359668150627463 -0.115040455607535 0.099041510760866
v 0.368552371449447 -0.061133924534088 -0.104322256027830
v 0.365686619386984 -0.061077723008246 -0.053532665547690
v 0.362820867324520 -0.061021521482404 -0.002743075067550
v 0.359955115262057 -0.060965319956562 0.048046515412590
v 0.357089363199594 -0.060909118430720 0.098836105892729
v 0.354223611137131 -0.060852916904878 0.149625696372869
v 0.365973584021578 -0.007002587357274 -0.104527660895966
v 0.363107831959115 -0.006946385831432 -0.053738070415826
v 0.360242079896651 -0.006890184305590 -0.002948479935687
v 0.357376327834188 -0.006833982779748 0.047841110544453
v 0.354510575771725 -0.006777781253906 0.098630701024593
v 0.351644823709262 -0.006721579728064 0.149420291504733
v 0.363394796593709 0.047128749819541 -0.104733065764103
v 0.360529044531246 0.047184951345383 -0.053943475283963
v 0.357663292468782 0.047241152871225 -0.003153884803823
v 0.354797540406319 0.047297354397067 0.047635705676317
v 0.351931788343856 0.047353555922908 0.098425296156457
v 0.349066036281392 0.047409757448750 0.149214886636597
v 0.357950257103376 0.101316288522197 -0.054148880152099
v 0.355084505040913 0.101372490048039 -0.003359289671959
v 0.352218752978450 0.101428691573881 0.047430300808181
v 0.349353000915987 0.101484893099723 0.098219891288320
v 0.346487248853523 0.101541094625565 0.149009481768460
v 0.355371469675507 0.155447625699011 -0.054354285020235
v 0.352505717613044 0.155503827224853 -0.003564694540096
v 0.349639965550581 0.155560028750695 0.047224895940044
v 0.346774213488117 0.155616230276537 0.098014486420184
v 0.416534623773004 -0.058451137806639 0.000284825874090
v 0.413955836345135 -0.004319800629825 0.000079421005953
v 0.411377048917266 0.049811536546990 -0.000125983862183
