v -0.085090910844491 -0.036363635549255 -0.018136363813950
v -0.085090910844491 -0.036363635549255 -0.006045454604650
v -0.085090910844491 -0.036363635549255 0.006045454604650
v -0.085090910844491 -0.036363635549255 0.018136363813950
v -0.085090910844491 -0.021818181329553 -0.030227273023251
v -0.085090910844491 -0.021818181329553 -0.018136363813950
v -0.085090910844491 -0.021818181329553 -0.006045454604650
v -0.085090910844491 -0.021818181329553 0.006045454604650
v -0.085090910844491 -0.021818181329553 0.018136363813950
v -0.085090910844491 -0.021818181329553 0.030227273023250
v -0.085090910844491 -0.007272727109851 -0.030227273023251
v -0.085090910844491 -0.007272727109851 -0.018136363813950
v -0.085090910844491 -0.007272727109851 -0.006045454604650
v -0.085090910844491 -0.007272727109851 0.006045454604650
v -0.085090910844491 -0.007272727109851 0.018136363813950
v -0.085090910844491 -0.007272727109851 0.030227273023250
v -0.085090910844491 0.007272727109851 -0.030227273023251
v -0.085090910844491 0.007272727109851 -0.018136363813950
v -0.085090910844491 0.007272727109851 -0.006045454604650
v -0.085090910844491 0.007272727109851 0.006045454604650
v -0.085090910844491 0.007272727109851 0.018136363813950
v -0.085090910844491 0.007272727109851 0.030227273023250
v -0.085090910844491 0.021818181329553 -0.030227273023251
v -0.085090910844491 0.021818181329553 -0.018136363813950
v -0.085090910844491 0.021818181329553 -0.006045454604650
v -0.085090910844491 0.021818181329553 0.006045454604650
v -0.085090910844491 0.021818181329553 0.018136363813950
v -0.085090910844491 0.021818181329553 0.030227273023250
v -0.085090910844491 0.036363635549255 -0.018136363813950
v -0.085090910844491 0.036363635549255 -0.006045454604650
v -0.085090910844491 0.036363635549255 0.006045454604650
v -0.085090910844491 0.036363635549255 0.018136363813950
v -0.066181819545716 -0.050909089768957 -0.018136363813950
v -0.066181819545716 -0.050909089768957 -0.006045454604650
v -0.066181819545716 -0.050909089768957 0.006045454604650
v -0.066181819545716 -0.050909089768957 0.018136363813950
v -0.066181819545716 -0.036363635549255 -0.030227273023251
v -0.066181819545716 -0.036363635549255 -0.018136363813950
v -0.066181819545716 -0.036363635549255 -0.006045454604650
v -0.066181819545716 -0.036363635549255 0.006045454604650
v -0.066181819545716 -0.036363635549255 0.018136363813950
v -0.066181819545716 -0.036363635549255 0.030227273023250
v -0.066181819545716 -0.021818181329553 -0.042318182232551
v -0.066181819545716 -0.021818181329553 -0.030227273023251
v -0.066181819545716 -0.021818181329553 -0.018136363813950
v -0.066181819545716 -0.021818181329553 -0.006045454604650
v -0.066181819545716 -0.021818181329553 0.006045454604650
v -0.066181819545716 -0.021818181329553 0.018136363813950
v -0.066181819545716 -0.021818181329553 0.030227273023250
v -0.066181819545716 -0.021818181329553 0.042318182232551
v -0.066181819545716 -0.007272727109851 -0.042318182232551
v -0.066181819545716 -0.007272727109851 -0.030227273023251
v -0.066181819545716 -0.007272727109851 -0.018136363813950
v -0.066181819545716 -0.007272727109851 -0.006045454604650
v -0.066181819545716 -0.007272727109851 0.006045454604650
v -0.066181819545716 -0.007272727109851 0.018136363813950
v -0.066181819545716 -0.007272727109851 0.030227273023250
v -0.066181819545716 -0.007272727109851 0.042318182232551
v -0.066181819545716 0.007272727109851 -0.042318182232551
v -0.066181819545716 0.007272727109851 -0.030227273023251
v -0.066181819545716 0.007272727109851 -0.018136363813950
v -0.066181819545716 0.007272727109851 -0.006045454604650
v -0.066181819545716 0.007272727109851 0.006045454604650
v -0.066181819545716 0.007272727109851 0.018136363813950
v -0.066181819545716 0.007272727109851 0.030227273023250
v -0.066181819545716 0.007272727109851 0.042318182232551
v -0.066181819545716 0.021818181329553 -0.042318182232551
v -0.066181819545716 0.021818181329553 -0.030227273023251
v -0.066181819545716 0.021818181329553 -0.018136363813950
v -0.066181819545716 0.021818181329553 -0.006045454604650
v -0.066181819545716 0.021818181329553 0.006045454604650
v -0.066181819545716 0.021818181329553 0.018136363813950
v -0.066181819545716 0.021818181329553 0.030227273023250
v -0.066181819545716 0.021818181329553 0.042318182232551
v -0.066181819545716 0.036363635549255 -0.030227273023251
v -0.066181819545716 0.036363635549255 -0.018136363813950
v -0.066181819545716 0.036363635549255 -0.006045454604650
v -0.066181819545716 0.036363635549255 0.006045454604650
v -0.066181819545716 0.036363635549255 0.018136363813950
v -0.066181819545716 0.036363635549255 0.030227273023250
v -0.066181819545716 0.050909089768957 -0.018136363813950
v -0.066181819545716 0.050909089768957 -0.006045454604650
v -0.066181819545716 0.050909089768957 0.006045454604650
v -0.066181819545716 0.050909089768957 0.018136363813950
v -0.047272728246940 -0.065454543988659 -0.018136363813950
v -0.047272728246940 -0.065454543988659 -0.006045454604650
v -0.047272728246940 -0.065454543988659 0.006045454604650
v -0.047272728246940 -0.065454543988659 0.018136363813950
v -0.047272728246940 -0.050909089768957 -0.030227273023251
v -0.047272728246940 -0.050909089768957 -0.018136363813950
v -0.047272728246940 -0.050909089768957 -0.006045454604650
v -0.047272728246940 -0.050909089768957 0.006045454604650
v -0.047272728246940 -0.050909089768957 0.018136363813950
v -0.047272728246940 -0.050909089768957 0.030227273023250
v -0.047272728246940 -0.036363635549255 -0.042318182232551
v -0.047272728246940 -0.036363635549255 -0.030227273023251
v -0.047272728246940 -0.036363635549255 -0.018136363813950
v -0.047272728246940 -0.036363635549255 -0.006045454604650
v -0.047272728246940 -0.036363635549255 0.006045454604650
v -0.047272728246940 -0.036363635549255 0.018136363813950
v -0.047272728246940 -0.036363635549255 0.030227273023250
v -0.047272728246940 -0.036363635549255 0.042318182232551
v -0.047272728246940 -0.021818181329553 -0.054409091441851
v -0.047272728246940 -0.021818181329553 -0.042318182232551
v -0.047272728246940 -0.021818181329553 -0.030227273023251
v -0.047272728246940 -0.021818181329553 -0.018136363813950
v -0.047272728246940 -0.021818181329553 -0.006045454604650
v -0.047272728246940 -0.021818181329553 0.006045454604650
v -0.047272728246940 -0.021818181329553 0.018136363813950
v -0.047272728246940 -0.021818181329553 0.030227273023250
v -0.047272728246940 -0.021818181329553 0.042318182232551
v -0.047272728246940 -0.021818181329553 0.054409091441851
v -0.047272728246940 -0.007272727109851 -0.054409091441851
v -0.047272728246940 -0.007272727109851 -0.042318182232551
v -0.047272728246940 -0.007272727109851 -0.030227273023251
v -0.047272728246940 -0.007272727109851 -0.018136363813950
v -0.047272728246940 -0.007272727109851 -0.006045454604650
v -0.047272728246940 -0.007272727109851 0.006045454604650
v -0.047272728246940 -0.007272727109851 0.018136363813950
v -0.047272728246940 -0.007272727109851 0.030227273023250
v -0.047272728246940 -0.007272727109851 0.042318182232551
v -0.047272728246940 -0.007272727109851 0.054409091441851
v -0.047272728246940 0.007272727109851 -0.054409091441851
v -0.047272728246940 0.007272727109851 -0.042318182232551
v -0.047272728246940 0.007272727109851 -0.030227273023251
v -0.047272728246940 0.007272727109851 -0.018136363813950
v -0.047272728246940 0.007272727109851 -0.006045454604650
v -0.047272728246940 0.007272727109851 0.006045454604650
v -0.047272728246940 0.007272727109851 0.018136363813950
v -0.047272728246940 0.007272727109851 0.030227273023250
v -0.047272728246940 0.007272727109851 0.042318182232551
v -0.047272728246940 0.007272727109851 0.054409091441851
v -0.047272728246940 0.021818181329553 -0.054409091441851
v -0.047272728246940 0.021818181329553 -0.042318182232551
v -0.047272728246940 0.021818181329553 -0.030227273023251
v -0.047272728246940 0.021818181329553 -0.018136363813950
v -0.047272728246940 0.021818181329553 -0.006045454604650
v -0.047272728246940 0.021818181329553 0.006045454604650
v -0.047272728246940 0.021818181329553 0.018136363813950
v -0.047272728246940 0.021818181329553 0.030227273023250
v -0.047272728246940 0.021818181329553 0.042318182232551
v -0.047272728246940 0.021818181329553 0.054409091441851
v -0.047272728246940 0.036363635549255 -0.042318182232551
v -0.047272728246940 0.036363635549255 -0.030227273023251
v -0.047272728246940 0.036363635549255 -0.018136363813950
v -0.047272728246940 0.036363635549255 -0.006045454604650
v -0.047272728246940 0.036363635549255 0.006045454604650
v -0.047272728246940 0.036363635549255 0.018136363813950
v -0.047272728246940 0.036363635549255 0.030227273023250
v -0.047272728246940 0.036363635549255 0.042318182232551
v -0.047272728246940 0.050909089768957 -0.030227273023251
v -0.047272728246940 0.050909089768957 -0.018136363813950
v -0.047272728246940 0.050909089768957 -0.006045454604650
v -0.047272728246940 0.050909089768957 0.006045454604650
v -0.047272728246940 0.050909089768957 0.018136363813950
v -0.047272728246940 0.050909089768957 0.030227273023250
v -0.047272728246940 0.065454543988659 -0.018136363813950
v -0.047272728246940 0.065454543988659 -0.006045454604650
v -0.047272728246940 0.065454543988659 0.006045454604650
v -0.047272728246940 0.065454543988659 0.018136363813950
v -0.028363636948164 -0.065454543988659 -0.030227273023251
v -0.028363636948164 -0.065454543988659 -0.018136363813950
v -0.028363636948164 -0.065454543988659 -0.006045454604650
v -0.028363636948164 -0.065454543988659 0.006045454604650
v -0.028363636948164 -0.065454543988659 0.018136363813950
v -0.028363636948164 -0.065454543988659 0.030227273023250
v -0.028363636948164 -0.050909089768957 -0.042318182232551
v -0.028363636948164 -0.050909089768957 -0.030227273023251
v -0.028363636948164 -0.050909089768957 -0.018136363813950
v -0.028363636948164 -0.050909089768957 -0.006045454604650
v -0.028363636948164 -0.050909089768957 0.006045454604650
v -0.028363636948164 -0.050909089768957 0.018136363813950
v -0.028363636948164 -0.050909089768957 0.030227273023250
v -0.028363636948164 -0.050909089768957 0.042318182232551
v -0.028363636948164 -0.036363635549255 -0.054409091441851
v -0.028363636948164 -0.036363635549255 -0.042318182232551
v -0.028363636948164 -0.036363635549255 -0.030227273023251
v -0.028363636948164 -0.036363635549255 -0.018136363813950
v -0.028363636948164 -0.036363635549255 -0.006045454604650
v -0.028363636948164 -0.036363635549255 0.006045454604650
v -0.028363636948164 -0.036363635549255 0.018136363813950
v -0.028363636948164 -0.036363635549255 0.030227273023250
v -0.028363636948164 -0.036363635549255 0.042318182232551
v -0.028363636948164 -0.036363635549255 0.054409091441851
v -0.028363636948164 -0.021818181329553 -0.054409091441851
v -0.028363636948164 -0.021818181329553 -0.042318182232551
v -0.028363636948164 -0.021818181329553 -0.030227273023251
v -0.028363636948164 -0.021818181329553 -0.018136363813950
v -0.028363636948164 -0.021818181329553 -0.006045454604650
v -0.028363636948164 -0.021818181329553 0.006045454604650
v -0.028363636948164 -0.021818181329553 0.018136363813950
v -0.028363636948164 -0.021818181329553 0.030227273023250
v -0.028363636948164 -0.021818181329553 0.042318182232551
v -0.028363636948164 -0.021818181329553 0.054409091441851
v -0.028363636948164 -0.007272727109851 -0.054409091441851
v -0.028363636948164 -0.007272727109851 -0.042318182232551
v -0.028363636948164 -0.007272727109851 -0.030227273023251
v -0.028363636948164 -0.007272727109851 -0.018136363813950
v -0.028363636948164 -0.007272727109851 -0.006045454604650
v -0.028363636948164 -0.007272727109851 0.006045454604650
v -0.028363636948164 -0.007272727109851 0.018136363813950
v -0.028363636948164 -0.007272727109851 0.030227273023250
v -0.028363636948164 -0.007272727109851 0.042318182232551
v -0.028363636948164 -0.007272727109851 0.054409091441851
v -0.028363636948164 0.007272727109851 -0.054409091441851
v -0.028363636948164 0.007272727109851 -0.042318182232551
v -0.028363636948164 0.007272727109851 -0.030227273023251
v -0.028363636948164 0.007272727109851 -0.018136363813950
v -0.028363636948164 0.007272727109851 -0.006045454604650
v -0.028363636948164 0.007272727109851 0.006045454604650
v -0.028363636948164 0.007272727109851 0.018136363813950
v -0.028363636948164 0.007272727109851 0.030227273023250
v -0.028363636948164 0.007272727109851 0.042318182232551
v -0.028363636948164 0.007272727109851 0.054409091441851
v -0.028363636948164 0.021818181329553 -0.054409091441851
v -0.028363636948164 0.021818181329553 -0.042318182232551
v -0.028363636948164 0.021818181329553 -0.030227273023251
v -0.028363636948164 0.021818181329553 -0.018136363813950
v -0.028363636948164 0.021818181329553 -0.006045454604650
v -0.028363636948164 0.021818181329553 0.006045454604650
v -0.028363636948164 0.021818181329553 0.018136363813950
v -0.028363636948164 0.021818181329553 0.030227273023250
v -0.028363636948164 0.021818181329553 0.042318182232551
v -0.028363636948164 0.021818181329553 0.054409091441851
v -0.028363636948164 0.036363635549255 -0.054409091441851
v -0.028363636948164 0.036363635549255 -0.042318182232551
v -0.028363636948164 0.036363635549255 -0.030227273023251
v -0.028363636948164 0.036363635549255 -0.018136363813950
v -0.028363636948164 0.036363635549255 -0.006045454604650
v -0.028363636948164 0.036363635549255 0.006045454604650
v -0.028363636948164 0.036363635549255 0.018136363813950
v -0.028363636948164 0.036363635549255 0.030227273023250
v -0.028363636948164 0.036363635549255 0.042318182232551
v -0.028363636948164 0.036363635549255 0.054409091441851
v -0.028363636948164 0.050909089768957 -0.042318182232551
v -0.028363636948164 0.050909089768957 -0.030227273023251
v -0.028363636948164 0.050909089768957 -0.018136363813950
v -0.028363636948164 0.050909089768957 -0.006045454604650
v -0.028363636948164 0.050909089768957 0.006045454604650
v -0.028363636948164 0.050909089768957 0.018136363813950
v -0.028363636948164 0.050909089768957 0.030227273023250
v -0.028363636948164 0.050909089768957 0.042318182232551
v -0.028363636948164 0.065454543988659 -0.030227273023251
v -0.028363636948164 0.065454543988659 -0.018136363813950
v -0.028363636948164 0.065454543988659 -0.006045454604650
v -0.028363636948164 0.065454543988659 0.006045454604650
v -0.028363636948164 0.065454543988659 0.018136363813950
v -0.028363636948164 0.065454543988659 0.030227273023250
v -0.009454545649388 -0.065454543988659 -0.030227273023251
v -0.009454545649388 -0.065454543988659 -0.018136363813950
v -0.009454545649388 -0.065454543988659 -0.006045454604650
v -0.009454545649388 -0.065454543988659 0.006045454604650
v -0.009454545649388 -0.065454543988659 0.018136363813950
v -0.009454545649388 -0.065454543988659 0.030227273023250
v -0.009454545649388 -0.050909089768957 -0.042318182232551
v -0.009454545649388 -0.050909089768957 -0.030227273023251
v -0.009454545649388 -0.050909089768957 -0.018136363813950
v -0.009454545649388 -0.050909089768957 -0.006045454604650
v -0.009454545649388 -0.050909089768957 0.006045454604650
v -0.009454545649388 -0.050909089768957 0.018136363813950
v -0.009454545649388 -0.050909089768957 0.030227273023250
v -0.009454545649388 -0.050909089768957 0.042318182232551
v -0.009454545649388 -0.036363635549255 -0.054409091441851
v -0.009454545649388 -0.036363635549255 -0.042318182232551
v -0.009454545649388 -0.036363635549255 -0.030227273023251
v -0.009454545649388 -0.036363635549255 -0.018136363813950
v -0.009454545649388 -0.036363635549255 -0.006045454604650
v -0.009454545649388 -0.036363635549255 0.006045454604650
v -0.009454545649388 -0.036363635549255 0.018136363813950
v -0.009454545649388 -0.036363635549255 0.030227273023250
v -0.009454545649388 -0.036363635549255 0.042318182232551
v -0.009454545649388 -0.036363635549255 0.054409091441851
v -0.009454545649388 -0.021818181329553 -0.054409091441851
v -0.009454545649388 -0.021818181329553 -0.042318182232551
v -0.009454545649388 -0.021818181329553 -0.030227273023251
v -0.009454545649388 -0.021818181329553 -0.018136363813950
v -0.009454545649388 -0.021818181329553 -0.006045454604650
v -0.009454545649388 -0.021818181329553 0.006045454604650
v -0.009454545649388 -0.021818181329553 0.018136363813950
v -0.009454545649388 -0.021818181329553 0.030227273023250
v -0.009454545649388 -0.021818181329553 0.042318182232551
v -0.009454545649388 -0.021818181329553 0.054409091441851
v -0.009454545649388 -0.007272727109851 -0.054409091441851
v -0.009454545649388 -0.007272727109851 -0.042318182232551
v -0.009454545649388 -0.007272727109851 -0.030227273023251
v -0.009454545649388 -0.007272727109851 -0.018136363813950
v -0.009454545649388 -0.007272727109851 -0.006045454604650
v -0.009454545649388 -0.007272727109851 0.006045454604650
v -0.009454545649388 -0.007272727109851 0.018136363813950
v -0.009454545649388 -0.007272727109851 0.030227273023250
v -0.009454545649388 -0.007272727109851 0.042318182232551
v -0.009454545649388 -0.007272727109851 0.054409091441851
v -0.009454545649388 0.007272727109851 -0.054409091441851
v -0.009454545649388 0.007272727109851 -0.042318182232551
v -0.009454545649388 0.007272727109851 -0.030227273023251
v -0.009454545649388 0.007272727109851 -0.018136363813950
v -0.009454545649388 0.007272727109851 -0.006045454604650
v -0.009454545649388 0.007272727109851 0.006045454604650
v -0.009454545649388 0.007272727109851 0.018136363813950
v -0.009454545649388 0.007272727109851 0.030227273023250
v -0.009454545649388 0.007272727109851 0.042318182232551
v -0.009454545649388 0.007272727109851 0.054409091441851
v -0.009454545649388 0.021818181329553 -0.054409091441851
v -0.009454545649388 0.021818181329553 -0.042318182232551
v -0.009454545649388 0.021818181329553 -0.030227273023251
v -0.009454545649388 0.021818181329553 -0.018136363813950
v -0.009454545649388 0.021818181329553 -0.006045454604650
v -0.009454545649388 0.021818181329553 0.006045454604650
v -0.009454545649388 0.021818181329553 0.018136363813950
v -0.009454545649388 0.021818181329553 0.030227273023250
v -0.009454545649388 0.021818181329553 0.042318182232551
v -0.009454545649388 0.021818181329553 0.054409091441851
v -0.009454545649388 0.036363635549255 -0.054409091441851
v -0.009454545649388 0.036363635549255 -0.042318182232551
v -0.009454545649388 0.036363635549255 -0.030227273023251
v -0.009454545649388 0.036363635549255 -0.018136363813950
v -0.009454545649388 0.036363635549255 -0.006045454604650
v -0.009454545649388 0.036363635549255 0.006045454604650
v -0.009454545649388 0.036363635549255 0.018136363813950
v -0.009454545649388 0.036363635549255 0.030227273023250
v -0.009454545649388 0.036363635549255 0.042318182232551
v -0.009454545649388 0.036363635549255 0.054409091441851
v -0.009454545649388 0.050909089768957 -0.042318182232551
v -0.009454545649388 0.050909089768957 -0.030227273023251
v -0.009454545649388 0.050909089768957 -0.018136363813950
v -0.009454545649388 0.050909089768957 -0.006045454604650
v -0.009454545649388 0.050909089768957 0.006045454604650
v -0.009454545649388 0.050909089768957 0.018136363813950
v -0.009454545649388 0.050909089768957 0.030227273023250
v -0.009454545649388 0.050909089768957 0.042318182232551
v -0.009454545649388 0.065454543988659 -0.030227273023251
v -0.009454545649388 0.065454543988659 -0.018136363813950
v -0.009454545649388 0.065454543988659 -0.006045454604650
v -0.009454545649388 0.065454543988659 0.006045454604650
v -0.009454545649388 0.065454543988659 0.018136363813950
v -0.009454545649388 0.065454543988659 0.030227273023250
v 0.009454545649388 -0.065454543988659 -0.030227273023251
v 0.009454545649388 -0.065454543988659 -0.018136363813950
v 0.009454545649388 -0.065454543988659 -0.006045454604650
v 0.009454545649388 -0.065454543988659 0.006045454604650
v 0.009454545649388 -0.065454543988659 0.018136363813950
v 0.009454545649388 -0.065454543988659 0.030227273023250
v 0.009454545649388 -0.050909089768957 -0.042318182232551
v 0.009454545649388 -0.050909089768957 -0.030227273023251
v 0.009454545649388 -0.050909089768957 -0.018136363813950
v 0.009454545649388 -0.050909089768957 -0.006045454604650
v 0.009454545649388 -0.050909089768957 0.006045454604650
v 0.009454545649388 -0.050909089768957 0.018136363813950
v 0.009454545649388 -0.050909089768957 0.030227273023250
v 0.009454545649388 -0.050909089768957 0.042318182232551
v 0.009454545649388 -0.036363635549255 -0.054409091441851
v 0.009454545649388 -0.036363635549255 -0.042318182232551
v 0.009454545649388 -0.036363635549255 -0.030227273023251
v 0.009454545649388 -0.036363635549255 -0.018136363813950
v 0.009454545649388 -0.036363635549255 -0.006045454604650
v 0.009454545649388 -0.036363635549255 0.006045454604650
v 0.009454545649388 -0.036363635549255 0.018136363813950
v 0.009454545649388 -0.036363635549255 0.030227273023250
v 0.009454545649388 -0.036363635549255 0.042318182232551
v 0.009454545649388 -0.036363635549255 0.054409091441851
v 0.009454545649388 -0.021818181329553 -0.054409091441851
v 0.009454545649388 -0.021818181329553 -0.042318182232551
v 0.009454545649388 -0.021818181329553 -0.030227273023251
v 0.009454545649388 -0.021818181329553 -0.018136363813950
v 0.009454545649388 -0.021818181329553 -0.006045454604650
v 0.009454545649388 -0.021818181329553 0.006045454604650
v 0.009454545649388 -0.021818181329553 0.018136363813950
v 0.009454545649388 -0.021818181329553 0.030227273023250
v 0.009454545649388 -0.021818181329553 0.042318182232551
v 0.009454545649388 -0.021818181329553 0.054409091441851
v 0.009454545649388 -0.007272727109851 -0.054409091441851
v 0.009454545649388 -0.007272727109851 -0.042318182232551
v 0.009454545649388 -0.007272727109851 -0.030227273023251
v 0.009454545649388 -0.007272727109851 -0.018136363813950
v 0.009454545649388 -0.007272727109851 -0.006045454604650
v 0.009454545649388 -0.007272727109851 0.006045454604650
v 0.009454545649388 -0.007272727109851 0.018136363813950
v 0.009454545649388 -0.007272727109851 0.030227273023250
v 0.009454545649388 -0.007272727109851 0.042318182232551
v 0.009454545649388 -0.007272727109851 0.054409091441851
v 0.009454545649388 0.007272727109851 -0.054409091441851
v 0.009454545649388 0.007272727109851 -0.042318182232551
v 0.009454545649388 0.007272727109851 -0.030227273023251
v 0.009454545649388 0.007272727109851 -0.018136363813950
v 0.009454545649388 0.007272727109851 -0.006045454604650
v 0.009454545649388 0.007272727109851 0.006045454604650
v 0.009454545649388 0.007272727109851 0.018136363813950
v 0.009454545649388 0.007272727109851 0.030227273023250
v 0.009454545649388 0.007272727109851 0.042318182232551
v 0.009454545649388 0.007272727109851 0.054409091441851
v 0.009454545649388 0.021818181329553 -0.054409091441851
v 0.009454545649388 0.021818181329553 -0.042318182232551
v 0.009454545649388 0.021818181329553 -0.030227273023251
v 0.009454545649388 0.021818181329553 -0.018136363813950
v 0.009454545649388 0.021818181329553 -0.006045454604650
v 0.009454545649388 0.021818181329553 0.006045454604650
v 0.009454545649388 0.021818181329553 0.018136363813950
v 0.009454545649388 0.021818181329553 0.030227273023250
v 0.009454545649388 0.021818181329553 0.042318182232551
v 0.009454545649388 0.021818181329553 0.054409091441851
v 0.009454545649388 0.036363635549255 -0.054409091441851
v 0.009454545649388 0.036363635549255 -0.042318182232551
v 0.009454545649388 0.036363635549255 -0.030227273023251
v 0.009454545649388 0.036363635549255 -0.018136363813950
v 0.009454545649388 0.036363635549255 -0.006045454604650
v 0.009454545649388 0.036363635549255 0.006045454604650
v 0.009454545649388 0.036363635549255 0.018136363813950
v 0.009454545649388 0.036363635549255 0.030227273023250
v 0.009454545649388 0.036363635549255 0.042318182232551
v 0.009454545649388 0.036363635549255 0.054409091441851
v 0.009454545649388 0.050909089768957 -0.042318182232551
v 0.009454545649388 0.050909089768957 -0.030227273023251
v 0.009454545649388 0.050909089768957 -0.018136363813950
v 0.009454545649388 0.050909089768957 -0.006045454604650
v 0.009454545649388 0.050909089768957 0.006045454604650
v 0.009454545649388 0.050909089768957 0.018136363813950
v 0.009454545649388 0.050909089768957 0.030227273023250
v 0.009454545649388 0.050909089768957 0.042318182232551
v 0.009454545649388 0.065454543988659 -0.030227273023251
v 0.009454545649388 0.065454543988659 -0.018136363813950
v 0.009454545649388 0.065454543988659 -0.006045454604650
v 0.009454545649388 0.065454543988659 0.006045454604650
v 0.009454545649388 0.065454543988659 0.018136363813950
v 0.009454545649388 0.065454543988659 0.030227273023250
v 0.028363636948164 -0.065454543988659 -0.030227273023251
v 0.028363636948164 -0.065454543988659 -0.018136363813950
v 0.028363636948164 -0.065454543988659 -0.006045454604650
v 0.028363636948164 -0.065454543988659 0.006045454604650
v 0.028363636948164 -0.065454543988659 0.018136363813950
v 0.028363636948164 -0.065454543988659 0.030227273023250
v 0.028363636948164 -0.050909089768957 -0.042318182232551
v 0.028363636948164 -0.050909089768957 -0.030227273023251
v 0.028363636948164 -0.050909089768957 -0.018136363813950
v 0.028363636948164 -0.050909089768957 -0.006045454604650
v 0.028363636948164 -0.050909089768957 0.006045454604650
v 0.028363636948164 -0.050909089768957 0.018136363813950
v 0.028363636948164 -0.050909089768957 0.030227273023250
v 0.028363636948164 -0.050909089768957 0.042318182232551
v 0.028363636948164 -0.036363635549255 -0.054409091441851
v 0.028363636948164 -0.036363635549255 -0.042318182232551
v 0.028363636948164 -0.036363635549255 -0.030227273023251
v 0.028363636948164 -0.036363635549255 -0.018136363813950
v 0.028363636948164 -0.036363635549255 -0.006045454604650
v 0.028363636948164 -0.036363635549255 0.006045454604650
v 0.028363636948164 -0.036363635549255 0.018136363813950
v 0.028363636948164 -0.036363635549255 0.030227273023250
v 0.028363636948164 -0.036363635549255 0.042318182232551
v 0.028363636948164 -0.036363635549255 0.054409091441851
v 0.028363636948164 -0.021818181329553 -0.054409091441851
v 0.028363636948164 -0.021818181329553 -0.042318182232551
v 0.028363636948164 -0.021818181329553 -0.030227273023251
v 0.028363636948164 -0.021818181329553 -0.018136363813950
v 0.028363636948164 -0.021818181329553 -0.006045454604650
v 0.028363636948164 -0.021818181329553 0.006045454604650
v 0.028363636948164 -0.021818181329553 0.018136363813950
v 0.028363636948164 -0.021818181329553 0.030227273023250
v 0.028363636948164 -0.021818181329553 0.042318182232551
v 0.028363636948164 -0.021818181329553 0.054409091441851
v 0.028363636948164 -0.007272727109851 -0.054409091441851
v 0.028363636948164 -0.007272727109851 -0.042318182232551
v 0.028363636948164 -0.007272727109851 -0.030227273023251
v 0.028363636948164 -0.007272727109851 -0.018136363813950
v 0.028363636948164 -0.007272727109851 -0.006045454604650
v 0.028363636948164 -0.007272727109851 0.006045454604650
v 0.028363636948164 -0.007272727109851 0.018136363813950
v 0.028363636948164 -0.007272727109851 0.030227273023250
v 0.028363636948164 -0.007272727109851 0.042318182232551
v 0.028363636948164 -0.007272727109851 0.054409091441851
v 0.028363636948164 0.007272727109851 -0.054409091441851
v 0.028363636948164 0.007272727109851 -0.042318182232551
v 0.028363636948164 0.007272727109851 -0.030227273023251
v 0.028363636948164 0.007272727109851 -0.018136363813950
v 0.028363636948164 0.007272727109851 -0.006045454604650
v 0.028363636948164 0.007272727109851 0.006045454604650
v 0.028363636948164 0.007272727109851 0.018136363813950
v 0.028363636948164 0.007272727109851 0.030227273023250
v 0.028363636948164 0.007272727109851 0.042318182232551
v 0.028363636948164 0.007272727109851 0.054409091441851
v 0.028363636948164 0.021818181329553 -0.054409091441851
v 0.028363636948164 0.021818181329553 -0.042318182232551
v 0.028363636948164 0.021818181329553 -0.030227273023251
v 0.028363636948164 0.021818181329553 -0.018136363813950
v 0.028363636948164 0.021818181329553 -0.006045454604650
v 0.028363636948164 0.021818181329553 0.006045454604650
v 0.028363636948164 0.021818181329553 0.018136363813950
v 0.028363636948164 0.021818181329553 0.030227273023250
v 0.028363636948164 0.021818181329553 0.042318182232551
v 0.028363636948164 0.021818181329553 0.054409091441851
v 0.028363636948164 0.036363635549255 -0.054409091441851
v 0.028363636948164 0.036363635549255 -0.042318182232551
v 0.028363636948164 0.036363635549255 -0.030227273023251
v 0.028363636948164 0.036363635549255 -0.018136363813950
v 0.028363636948164 0.036363635549255 -0.006045454604650
v 0.028363636948164 0.036363635549255 0.006045454604650
v 0.028363636948164 0.036363635549255 0.018136363813950
v 0.028363636948164 0.036363635549255 0.030227273023250
v 0.028363636948164 0.036363635549255 0.042318182232551
v 0.028363636948164 0.036363635549255 0.054409091441851
v 0.028363636948164 0.050909089768957 -0.042318182232551
v 0.028363636948164 0.050909089768957 -0.030227273023251
v 0.028363636948164 0.050909089768957 -0.018136363813950
v 0.028363636948164 0.050909089768957 -0.006045454604650
v 0.028363636948164 0.050909089768957 0.006045454604650
v 0.028363636948164 0.050909089768957 0.018136363813950
v 0.028363636948164 0.050909089768957 0.030227273023250
v 0.028363636948164 0.050909089768957 0.042318182232551
v 0.028363636948164 0.065454543988659 -0.030227273023251
v 0.028363636948164 0.065454543988659 -0.018136363813950
v 0.028363636948164 0.065454543988659 -0.006045454604650
v 0.028363636948164 0.065454543988659 0.006045454604650
v 0.028363636948164 0.065454543988659 0.018136363813950
v 0.028363636948164 0.065454543988659 0.030227273023250
v 0.047272728246940 -0.065454543988659 -0.018136363813950
v 0.047272728246940 -0.065454543988659 -0.006045454604650
v 0.047272728246940 -0.065454543988659 0.006045454604650
v 0.047272728246940 -0.065454543988659 0.018136363813950
v 0.047272728246940 -0.050909089768957 -0.030227273023251
v 0.047272728246940 -0.050909089768957 -0.018136363813950
v 0.047272728246940 -0.050909089768957 -0.006045454604650
v 0.047272728246940 -0.050909089768957 0.006045454604650
v 0.047272728246940 -0.050909089768957 0.018136363813950
v 0.047272728246940 -0.050909089768957 0.030227273023250
v 0.047272728246940 -0.036363635549255 -0.042318182232551
v 0.047272728246940 -0.036363635549255 -0.030227273023251
v 0.047272728246940 -0.036363635549255 -0.018136363813950
v 0.047272728246940 -0.036363635549255 -0.006045454604650
v 0.047272728246940 -0.036363635549255 0.006045454604650
v 0.047272728246940 -0.036363635549255 0.018136363813950
v 0.047272728246940 -0.036363635549255 0.030227273023250
v 0.047272728246940 -0.036363635549255 0.042318182232551
v 0.047272728246940 -0.021818181329553 -0.054409091441851
v 0.047272728246940 -0.021818181329553 -0.042318182232551
v 0.047272728246940 -0.021818181329553 -0.030227273023251
v 0.047272728246940 -0.021818181329553 -0.018136363813950
v 0.047272728246940 -0.021818181329553 -0.006045454604650
v 0.047272728246940 -0.021818181329553 0.006045454604650
v 0.047272728246940 -0.021818181329553 0.018136363813950
v 0.047272728246940 -0.021818181329553 0.030227273023250
v 0.047272728246940 -0.021818181329553 0.042318182232551
v 0.047272728246940 -0.021818181329553 0.054409091441851
v 0.047272728246940 -0.007272727109851 -0.054409091441851
v 0.047272728246940 -0.007272727109851 -0.042318182232551
v 0.047272728246940 -0.007272727109851 -0.030227273023251
v 0.047272728246940 -0.007272727109851 -0.018136363813950
v 0.047272728246940 -0.007272727109851 -0.006045454604650
v 0.047272728246940 -0.007272727109851 0.006045454604650
v 0.047272728246940 -0.007272727109851 0.018136363813950
v 0.047272728246940 -0.007272727109851 0.030227273023250
v 0.047272728246940 -0.007272727109851 0.042318182232551
v 0.047272728246940 -0.007272727109851 0.054409091441851
v 0.047272728246940 0.007272727109851 -0.054409091441851
v 0.047272728246940 0.007272727109851 -0.042318182232551
v 0.047272728246940 0.007272727109851 -0.030227273023251
v 0.047272728246940 0.007272727109851 -0.018136363813950
v 0.047272728246940 0.007272727109851 -0.006045454604650
v 0.047272728246940 0.007272727109851 0.006045454604650
v 0.047272728246940 0.007272727109851 0.018136363813950
v 0.047272728246940 0.007272727109851 0.030227273023250
v 0.047272728246940 0.007272727109851 0.042318182232551
v 0.047272728246940 0.007272727109851 0.054409091441851
v 0.047272728246940 0.021818181329553 -0.054409091441851
v 0.047272728246940 0.021818181329553 -0.042318182232551
v 0.047272728246940 0.021818181329553 -0.030227273023251
v 0.047272728246940 0.021818181329553 -0.018136363813950
v 0.047272728246940 0.021818181329553 -0.006045454604650
v 0.047272728246940 0.021818181329553 0.006045454604650
v 0.047272728246940 0.021818181329553 0.018136363813950
v 0.047272728246940 0.021818181329553 0.030227273023250
v 0.047272728246940 0.021818181329553 0.042318182232551
v 0.047272728246940 0.021818181329553 0.054409091441851
v 0.047272728246940 0.036363635549255 -0.042318182232551
v 0.047272728246940 0.036363635549255 -0.030227273023251
v 0.047272728246940 0.036363635549255 -0.018136363813950
v 0.047272728246940 0.036363635549255 -0.006045454604650
v 0.047272728246940 0.036363635549255 0.006045454604650
v 0.047272728246940 0.036363635549255 0.018136363813950
v 0.047272728246940 0.036363635549255 0.030227273023250
v 0.047272728246940 0.036363635549255 0.042318182232551
v 0.047272728246940 0.050909089768957 -0.030227273023251
v 0.047272728246940 0.050909089768957 -0.018136363813950
v 0.047272728246940 0.050909089768957 -0.006045454604650
v 0.047272728246940 0.050909089768957 0.006045454604650
v 0.047272728246940 0.050909089768957 0.018136363813950
v 0.047272728246940 0.050909089768957 0.030227273023250
v 0.047272728246940 0.065454543988659 -0.018136363813950
v 0.047272728246940 0.065454543988659 -0.006045454604650
v 0.047272728246940 0.065454543988659 0.006045454604650
v 0.047272728246940 0.065454543988659 0.018136363813950
v 0.066181819545715 -0.050909089768957 -0.018136363813950
v 0.066181819545715 -0.050909089768957 -0.006045454604650
v 0.066181819545715 -0.050909089768957 0.006045454604650
v 0.066181819545715 -0.050909089768957 0.018136363813950
v 0.066181819545715 -0.036363635549255 -0.030227273023251
v 0.066181819545715 -0.036363635549255 -0.018136363813950
v 0.066181819545715 -0.036363635549255 -0.006045454604650
v 0.066181819545715 -0.036363635549255 0.006045454604650
v 0.066181819545715 -0.036363635549255 0.018136363813950
v 0.066181819545715 -0.036363635549255 0.030227273023250
v 0.066181819545715 -0.021818181329553 -0.042318182232551
v 0.066181819545715 -0.021818181329553 -0.030227273023251
v 0.066181819545715 -0.021818181329553 -0.018136363813950
v 0.066181819545715 -0.021818181329553 -0.006045454604650
v 0.066181819545715 -0.021818181329553 0.006045454604650
v 0.066181819545715 -0.021818181329553 0.018136363813950
v 0.066181819545715 -0.021818181329553 0.030227273023250
v 0.066181819545715 -0.021818181329553 0.042318182232551
v 0.066181819545715 -0.007272727109851 -0.042318182232551
v 0.066181819545715 -0.007272727109851 -0.030227273023251
v 0.066181819545715 -0.007272727109851 -0.018136363813950
v 0.066181819545715 -0.007272727109851 -0.006045454604650
v 0.066181819545715 -0.007272727109851 0.006045454604650
v 0.066181819545715 -0.007272727109851 0.018136363813950
v 0.066181819545715 -0.007272727109851 0.030227273023250
v 0.066181819545715 -0.007272727109851 0.042318182232551
v 0.066181819545715 0.007272727109851 -0.042318182232551
v 0.066181819545715 0.007272727109851 -0.030227273023251
v 0.066181819545715 0.007272727109851 -0.018136363813950
v 0.066181819545715 0.007272727109851 -0.006045454604650
v 0.066181819545715 0.007272727109851 0.006045454604650
v 0.066181819545715 0.007272727109851 0.018136363813950
v 0.066181819545715 0.007272727109851 0.030227273023250
v 0.066181819545715 0.007272727109851 0.042318182232551
v 0.066181819545715 0.021818181329553 -0.042318182232551
v 0.066181819545715 0.021818181329553 -0.030227273023251
v 0.066181819545715 0.021818181329553 -0.018136363813950
v 0.066181819545715 0.021818181329553 -0.006045454604650
v 0.066181819545715 0.021818181329553 0.006045454604650
v 0.066181819545715 0.021818181329553 0.018136363813950
v 0.066181819545715 0.021818181329553 0.030227273023250
v 0.066181819545715 0.021818181329553 0.042318182232551
v 0.066181819545715 0.036363635549255 -0.030227273023251
v 0.066181819545715 0.036363635549255 -0.018136363813950
v 0.066181819545715 0.036363635549255 -0.006045454604650
v 0.066181819545715 0.036363635549255 0.006045454604650
v 0.066181819545715 0.036363635549255 0.018136363813950
v 0.066181819545715 0.036363635549255 0.030227273023250
v 0.066181819545715 0.050909089768957 -0.018136363813950
v 0.066181819545715 0.050909089768957 -0.006045454604650
v 0.066181819545715 0.050909089768957 0.006045454604650
v 0.066181819545715 0.050909089768957 0.018136363813950
v 0.085090910844491 -0.036363635549255 -0.018136363813950
v 0.085090910844491 -0.036363635549255 -0.006045454604650
v 0.085090910844491 -0.036363635549255 0.006045454604650
v 0.085090910844491 -0.036363635549255 0.018136363813950
v 0.085090910844491 -0.021818181329553 -0.030227273023251
v 0.085090910844491 -0.021818181329553 -0.018136363813950
v 0.085090910844491 -0.021818181329553 -0.006045454604650
v 0.085090910844491 -0.021818181329553 0.006045454604650
v 0.085090910844491 -0.021818181329553 0.018136363813950
v 0.085090910844491 -0.021818181329553 0.030227273023250
v 0.085090910844491 -0.007272727109851 -0.030227273023251
v 0.085090910844491 -0.007272727109851 -0.018136363813950
v 0.085090910844491 -0.007272727109851 -0.006045454604650
v 0.085090910844491 -0.007272727109851 0.006045454604650
v 0.085090910844491 -0.007272727109851 0.018136363813950
v 0.085090910844491 -0.007272727109851 0.030227273023250
v 0.085090910844491 0.007272727109851 -0.030227273023251
v 0.085090910844491 0.007272727109851 -0.018136363813950
v 0.085090910844491 0.007272727109851 -0.006045454604650
v 0.085090910844491 0.007272727109851 0.006045454604650
v 0.085090910844491 0.007272727109851 0.018136363813950
v 0.085090910844491 0.007272727109851 0.030227273023250
v 0.085090910844491 0.021818181329553 -0.030227273023251
v 0.085090910844491 0.021818181329553 -0.018136363813950
v 0.085090910844491 0.021818181329553 -0.006045454604650
v 0.085090910844491 0.021818181329553 0.006045454604650
v 0.085090910844491 0.021818181329553 0.018136363813950
v 0.085090910844491 0.021818181329553 0.030227273023250
v 0.085090910844491 0.036363635549255 -0.018136363813950
v 0.085090910844491 0.036363635549255 -0.006045454604650
v 0.085090910844491 0.036363635549255 0.006045454604650
v 0.085090910844491 0.036363635549255 0.018136363813950
