v -0.098057142857143 -0.025142857142857 -0.000000000000000
v -0.098057142857143 -0.012571428571429 -0.010450000000000
v -0.098057142857143 -0.012571428571429 -0.000000000000000
v -0.098057142857143 -0.012571428571429 0.010450000000000
v -0.098057142857143 0.000000000000000 -0.020900000000000
v -0.098057142857143 0.000000000000000 -0.010450000000000
v -0.098057142857143 0.000000000000000 -0.000000000000000
v -0.098057142857143 0.000000000000000 0.010450000000000
v -0.098057142857143 0.000000000000000 0.020900000000000
v -0.098057142857143 0.012571428571429 -0.010450000000000
v -0.098057142857143 0.012571428571429 -0.000000000000000
v -0.098057142857143 0.012571428571429 0.010450000000000
v -0.098057142857143 0.025142857142857 -0.000000000000000
v -0.081714285714286 -0.037714285714286 -0.020900000000000
v -0.081714285714286 -0.037714285714286 -0.010450000000000
v -0.081714285714286 -0.037714285714286 0.000000000000000
v -0.081714285714286 -0.037714285714286 0.010450000000000
v -0.081714285714286 -0.037714285714286 0.020900000000000
v -0.081714285714286 -0.025142857142857 -0.031350000000000
v -0.081714285714286 -0.025142857142857 -0.020900000000000
v -0.081714285714286 -0.025142857142857 -0.010450000000000
v -0.081714285714286 -0.025142857142857 -0.000000000000000
v -0.081714285714286 -0.025142857142857 0.010450000000000
v -0.081714285714286 -0.025142857142857 0.020900000000000
v -0.081714285714286 -0.025142857142857 0.031350000000000
v -0.081714285714286 -0.012571428571429 -0.031350000000000
v -0.081714285714286 -0.012571428571429 -0.020900000000000
v -0.081714285714286 -0.012571428571429 -0.010450000000000
v -0.081714285714286 -0.012571428571429 -0.000000000000000
v -0.081714285714286 -0.012571428571429 0.010450000000000
v -0.081714285714286 -0.012571428571429 0.020900000000000
v -0.081714285714286 -0.012571428571429 0.031350000000000
v -0.081714285714286 0.000000000000000 -0.031350000000000
v -0.081714285714286 0.000000000000000 -0.020900000000000
v -0.081714285714286 0.000000000000000 -0.010450000000000
v -0.081714285714286 0.000000000000000 -0.000000000000000
v -0.081714285714286 0.000000000000000 0.010450000000000
v -0.081714285714286 0.000000000000000 0.020900000000000
v -0.081714285714286 0.000000000000000 0.031350000000000
v -0.081714285714286 0.012571428571429 -0.031350000000000
v -0.081714285714286 0.012571428571429 -0.020900000000000
v -0.081714285714286 0.012571428571429 -0.010450000000000
v -0.081714285714286 0.012571428571429 -0.000000000000000
v -0.081714285714286 0.012571428571429 0.010450000000000
v -0.081714285714286 0.012571428571429 0.020900000000000
v -0.081714285714286 0.012571428571429 0.031350000000000
v -0.081714285714286 0.025142857142857 -0.031350000000000
v -0.081714285714286 0.025142857142857 -0.020900000000000
v -0.081714285714286 0.025142857142857 -0.010450000000000
v -0.081714285714286 0.025142857142857 -0.000000000000000
v -0.081714285714286 0.025142857142857 0.010450000000000
v -0.081714285714286 0.025142857142857 0.020900000000000
v -0.081714285714286 0.025142857142857 0.031350000000000
v -0.081714285714286 0.037714285714286 -0.020900000000000
v -0.081714285714286 0.037714285714286 -0.010450000000000
v -0.081714285714286 0.037714285714286 -0.000000000000000
v -0.081714285714286 0.037714285714286 0.010450000000000
v -0.081714285714286 0.037714285714286 0.020900000000000
v -0.065371428571429 -0.050285714285714 -0.020900000000000
v -0.065371428571429 -0.050285714285714 -0.010450000000000
v -0.065371428571429 -0.050285714285714 0.000000000000000
v -0.065371428571429 -0.050285714285714 0.010450000000000
v -0.065371428571429 -0.050285714285714 0.020900000000000
v -0.065371428571429 -0.037714285714286 -0.031350000000000
v -0.065371428571429 -0.037714285714286 -0.020900000000000
v -0.065371428571429 -0.037714285714286 -0.010450000000000
v -0.065371428571429 -0.037714285714286 0.000000000000000
v -0.065371428571429 -0.037714285714286 0.010450000000000
v -0.065371428571429 -0.037714285714286 0.020900000000000
v -0.065371428571429 -0.037714285714286 0.031350000000000
v -0.065371428571429 -0.025142857142857 -0.041800000000000
v -0.065371428571429 -0.025142857142857 -0.031350000000000
v -0.065371428571429 -0.025142857142857 -0.020900000000000
v -0.065371428571429 -0.025142857142857 -0.010450000000000
v -0.065371428571429 -0.025142857142857 -0.000000000000000
v -0.065371428571429 -0.025142857142857 0.010450000000000
v -0.065371428571429 -0.025142857142857 0.020900000000000
v -0.065371428571429 -0.025142857142857 0.031350000000000
v -0.065371428571429 -0.025142857142857 0.041800000000000
v -0.065371428571429 -0.012571428571429 -0.041800000000000
v -0.065371428571429 -0.012571428571429 -0.031350000000000
v -0.065371428571429 -0.012571428571429 -0.020900000000000
v -0.065371428571429 -0.012571428571429 -0.010450000000000
v -0.065371428571429 -0.012571428571429 -0.000000000000000
v -0.065371428571429 -0.012571428571429 0.010450000000000
v -0.065371428571429 -0.012571428571429 0.020900000000000
v -0.065371428571429 -0.012571428571429 0.031350000000000
v -0.065371428571429 -0.012571428571429 0.041800000000000
v -0.065371428571429 0.000000000000000 -0.041800000000000
v -0.065371428571429 0.000000000000000 -0.031350000000000
v -0.065371428571429 0.000000000000000 -0.020900000000000
v -0.065371428571429 0.000000000000000 -0.010450000000000
v -0.065371428571429 0.000000000000000 -0.000000000000000
v -0.065371428571429 0.000000000000000 0.010450000000000
v -0.065371428571429 0.000000000000000 0.020900000000000
v -0.065371428571429 0.000000000000000 0.031350000000000
v -0.065371428571429 0.000000000000000 0.041800000000000
v -0.065371428571429 0.012571428571429 -0.041800000000000
v -0.065371428571429 0.012571428571429 -0.031350000000000
v -0.065371428571429 0.012571428571429 -0.020900000000000
v -0.065371428571429 0.012571428571429 -0.010450000000000
v -0.065371428571429 0.012571428571429 -0.000000000000000
v -0.065371428571429 0.012571428571429 0.010450000000000
v -0.065371428571429 0.012571428571429 0.020900000000000
v -0.065371428571429 0.012571428571429 0.031350000000000
v -0.065371428571429 0.012571428571429 0.041800000000000
v -0.065371428571429 0.025142857142857 -0.041800000000000
v -0.065371428571429 0.025142857142857 -0.031350000000000
v -0.065371428571429 0.025142857142857 -0.020900000000000
v -0.065371428571429 0.025142857142857 -0.010450000000000
v -0.065371428571429 0.025142857142857 -0.000000000000000
v -0.065371428571429 0.025142857142857 0.010450000000000
v -0.065371428571429 0.025142857142857 0.020900000000000
v -0.065371428571429 0.025142857142857 0.031350000000000
v -0.065371428571429 0.025142857142857 0.041800000000000
v -0.065371428571429 0.037714285714286 -0.031350000000000
v -0.065371428571429 0.037714285714286 -0.020900000000000
v -0.065371428571429 0.037714285714286 -0.010450000000000
v -0.065371428571429 0.037714285714286 -0.000000000000000
v -0.065371428571429 0.037714285714286 0.010450000000000
v -0.065371428571429 0.037714285714286 0.020900000000000
v -0.065371428571429 0.037714285714286 0.031350000000000
v -0.065371428571429 0.050285714285714 -0.020900000000000
v -0.065371428571429 0.050285714285714 -0.010450000000000
v -0.065371428571429 0.050285714285714 -0.000000000000000
v -0.065371428571429 0.050285714285714 0.010450000000000
v -0.065371428571429 0.050285714285714 0.020900000000000
v -0.049028571428571 -0.062857142857143 -0.020900000000000
v -0.049028571428571 -0.062857142857143 -0.010450000000000
v -0.049028571428571 -0.062857142857143 0.000000000000000
v -0.049028571428571 -0.062857142857143 0.010450000000000
v -0.049028571428571 -0.062857142857143 0.020900000000000
v -0.049028571428571 -0.050285714285714 -0.031350000000000
v -0.049028571428571 -0.050285714285714 -0.020900000000000
v -0.049028571428571 -0.050285714285714 -0.010450000000000
v -0.049028571428571 -0.050285714285714 0.000000000000000
v -0.049028571428571 -0.050285714285714 0.010450000000000
v -0.049028571428571 -0.050285714285714 0.020900000000000
v -0.049028571428571 -0.050285714285714 0.031350000000000
v -0.049028571428571 -0.037714285714286 -0.041800000000000
v -0.049028571428571 -0.037714285714286 -0.031350000000000
v -0.049028571428571 -0.037714285714286 -0.020900000000000
v -0.049028571428571 -0.037714285714286 -0.010450000000000
v -0.049028571428571 -0.037714285714286 0.000000000000000
v -0.049028571428571 -0.037714285714286 0.010450000000000
v -0.049028571428571 -0.037714285714286 0.020900000000000
v -0.049028571428571 -0.037714285714286 0.031350000000000
v -0.049028571428571 -0.037714285714286 0.041800000000000
v -0.049028571428571 -0.025142857142857 -0.052250000000000
v -0.049028571428571 -0.025142857142857 -0.041800000000000
v -0.049028571428571 -0.025142857142857 -0.031350000000000
v -0.049028571428571 -0.025142857142857 -0.020900000000000
v -0.049028571428571 -0.025142857142857 -0.010450000000000
v -0.049028571428571 -0.025142857142857 -0.000000000000000
v -0.049028571428571 -0.025142857142857 0.010450000000000
v -0.049028571428571 -0.025142857142857 0.020900000000000
v -0.049028571428571 -0.025142857142857 0.031350000000000
v -0.049028571428571 -0.025142857142857 0.041800000000000
v -0.049028571428571 -0.025142857142857 0.052250000000000
v -0.049028571428571 -0.012571428571429 -0.052250000000000
v -0.049028571428571 -0.012571428571429 -0.041800000000000
v -0.049028571428571 -0.012571428571429 -0.031350000000000
v -0.049028571428571 -0.012571428571429 -0.020900000000000
v -0.049028571428571 -0.012571428571429 -0.010450000000000
v -0.049028571428571 -0.012571428571429 -0.000000000000000
v -0.049028571428571 -0.012571428571429 0.010450000000000
v -0.049028571428571 -0.012571428571429 0.020900000000000
v -0.049028571428571 -0.012571428571429 0.031350000000000
v -0.049028571428571 -0.012571428571429 0.041800000000000
v -0.049028571428571 -0.012571428571429 0.052250000000000
v -0.049028571428571 0.000000000000000 -0.052250000000000
v -0.049028571428571 0.000000000000000 -0.041800000000000
v -0.049028571428571 0.000000000000000 -0.031350000000000
v -0.049028571428571 0.000000000000000 -0.020900000000000
v -0.049028571428571 0.000000000000000 -0.010450000000000
v -0.049028571428571 0.000000000000000 -0.000000000000000
v -0.049028571428571 0.000000000000000 0.010450000000000
v -0.049028571428571 0.000000000000000 0.020900000000000
v -0.049028571428571 0.000000000000000 0.031350000000000
v -0.049028571428571 0.000000000000000 0.041800000000000
v -0.049028571428571 0.000000000000000 0.052250000000000
v -0.049028571428571 0.012571428571429 -0.052250000000000
v -0.049028571428571 0.012571428571429 -0.041800000000000
v -0.049028571428571 0.012571428571429 -0.031350000000000
v -0.049028571428571 0.012571428571429 -0.020900000000000
v -0.049028571428571 0.012571428571429 -0.010450000000000
v -0.049028571428571 0.012571428571429 -0.000000000000000
v -0.049028571428571 0.012571428571429 0.010450000000000
v -0.049028571428571 0.012571428571429 0.020900000000000
v -0.049028571428571 0.012571428571429 0.031350000000000
v -0.049028571428571 0.012571428571429 0.041800000000000
v -0.049028571428571 0.012571428571429 0.052250000000000
v -0.049028571428571 0.025142857142857 -0.052250000000000
v -0.049028571428571 0.025142857142857 -0.041800000000000
v -0.049028571428571 0.025142857142857 -0.031350000000000
v -0.049028571428571 0.025142857142857 -0.020900000000000
v -0.049028571428571 0.025142857142857 -0.010450000000000
v -0.049028571428571 0.025142857142857 -0.000000000000000
v -0.049028571428571 0.025142857142857 0.010450000000000
v -0.049028571428571 0.025142857142857 0.020900000000000
v -0.049028571428571 0.025142857142857 0.031350000000000
v -0.049028571428571 0.025142857142857 0.041800000000000
v -0.049028571428571 0.025142857142857 0.052250000000000
v -0.049028571428571 0.037714285714286 -0.041800000000000
v -0.049028571428571 0.037714285714286 -0.031350000000000
v -0.049028571428571 0.037714285714286 -0.020900000000000
v -0.049028571428571 0.037714285714286 -0.010450000000000
v -0.049028571428571 0.037714285714286 -0.000000000000000
v -0.049028571428571 0.037714285714286 0.010450000000000
v -0.049028571428571 0.037714285714286 0.020900000000000
v -0.049028571428571 0.037714285714286 0.031350000000000
v -0.049028571428571 0.037714285714286 0.041800000000000
v -0.049028571428571 0.050285714285714 -0.031350000000000
v -0.049028571428571 0.050285714285714 -0.020900000000000
v -0.049028571428571 0.050285714285714 -0.010450000000000
v -0.049028571428571 0.050285714285714 -0.000000000000000
v -0.049028571428571 0.050285714285714 0.010450000000000
v -0.049028571428571 0.050285714285714 0.020900000000000
v -0.049028571428571 0.050285714285714 0.031350000000000
v -0.049028571428571 0.062857142857143 -0.020900000000000
v -0.049028571428571 0.062857142857143 -0.010450000000000
v -0.049028571428571 0.062857142857143 -0.000000000000000
v -0.049028571428571 0.062857142857143 0.010450000000000
v -0.049028571428571 0.062857142857143 0.020900000000000
v -0.032685714285714 -0.075428571428571 0.000000000000000
v -0.032685714285714 -0.062857142857143 -0.031350000000000
v -0.032685714285714 -0.062857142857143 -0.020900000000000
v -0.032685714285714 -0.062857142857143 -0.010450000000000
v -0.032685714285714 -0.062857142857143 0.000000000000000
v -0.032685714285714 -0.062857142857143 0.010450000000000
v -0.032685714285714 -0.062857142857143 0.020900000000000
v -0.032685714285714 -0.062857142857143 0.031350000000000
v -0.032685714285714 -0.050285714285714 -0.041800000000000
v -0.032685714285714 -0.050285714285714 -0.031350000000000
v -0.032685714285714 -0.050285714285714 -0.020900000000000
v -0.032685714285714 -0.050285714285714 -0.010450000000000
v -0.032685714285714 -0.050285714285714 0.000000000000000
v -0.032685714285714 -0.050285714285714 0.010450000000000
v -0.032685714285714 -0.050285714285714 0.020900000000000
v -0.032685714285714 -0.050285714285714 0.031350000000000
v -0.032685714285714 -0.050285714285714 0.041800000000000
v -0.032685714285714 -0.037714285714286 -0.052250000000000
v -0.032685714285714 -0.037714285714286 -0.041800000000000
v -0.032685714285714 -0.037714285714286 -0.031350000000000
v -0.032685714285714 -0.037714285714286 -0.020900000000000
v -0.032685714285714 -0.037714285714286 -0.010450000000000
v -0.032685714285714 -0.037714285714286 0.000000000000000
v -0.032685714285714 -0.037714285714286 0.010450000000000
v -0.032685714285714 -0.037714285714286 0.020900000000000
v -0.032685714285714 -0.037714285714286 0.031350000000000
v -0.032685714285714 -0.037714285714286 0.041800000000000
v -0.032685714285714 -0.037714285714286 0.052250000000000
v -0.032685714285714 -0.025142857142857 -0.052250000000000
v -0.032685714285714 -0.025142857142857 -0.041800000000000
v -0.032685714285714 -0.025142857142857 -0.031350000000000
v -0.032685714285714 -0.025142857142857 -0.020900000000000
v -0.032685714285714 -0.025142857142857 -0.010450000000000
v -0.032685714285714 -0.025142857142857 -0.000000000000000
v -0.032685714285714 -0.025142857142857 0.010450000000000
v -0.032685714285714 -0.025142857142857 0.020900000000000
v -0.032685714285714 -0.025142857142857 0.031350000000000
v -0.032685714285714 -0.025142857142857 0.041800000000000
v -0.032685714285714 -0.025142857142857 0.052250000000000
v -0.032685714285714 -0.012571428571429 -0.052250000000000
v -0.032685714285714 -0.012571428571429 -0.041800000000000
v -0.032685714285714 -0.012571428571429 -0.031350000000000
v -0.032685714285714 -0.012571428571429 -0.020900000000000
v -0.032685714285714 -0.012571428571429 -0.010450000000000
v -0.032685714285714 -0.012571428571429 -0.000000000000000
v -0.032685714285714 -0.012571428571429 0.010450000000000
v -0.032685714285714 -0.012571428571429 0.020900000000000
v -0.032685714285714 -0.012571428571429 0.031350000000000
v -0.032685714285714 -0.012571428571429 0.041800000000000
v -0.032685714285714 -0.012571428571429 0.052250000000000
v -0.032685714285714 0.000000000000000 -0.062700000000000
v -0.032685714285714 0.000000000000000 -0.052250000000000
v -0.032685714285714 0.000000000000000 -0.041800000000000
v -0.032685714285714 0.000000000000000 -0.031350000000000
v -0.032685714285714 0.000000000000000 -0.020900000000000
v -0.032685714285714 0.000000000000000 -0.010450000000000
v -0.032685714285714 0.000000000000000 -0.000000000000000
v -0.032685714285714 0.000000000000000 0.010450000000000
v -0.032685714285714 0.000000000000000 0.020900000000000
v -0.032685714285714 0.000000000000000 0.031350000000000
v -0.032685714285714 0.000000000000000 0.041800000000000
v -0.032685714285714 0.000000000000000 0.052250000000000
v -0.032685714285714 0.000000000000000 0.062700000000000
v -0.032685714285714 0.012571428571429 -0.052250000000000
v -0.032685714285714 0.012571428571429 -0.041800000000000
v -0.032685714285714 0.012571428571429 -0.031350000000000
v -0.032685714285714 0.012571428571429 -0.020900000000000
v -0.032685714285714 0.012571428571429 -0.010450000000000
v -0.032685714285714 0.012571428571429 -0.000000000000000
v -0.032685714285714 0.012571428571429 0.010450000000000
v -0.032685714285714 0.012571428571429 0.020900000000000
v -0.032685714285714 0.012571428571429 0.031350000000000
v -0.032685714285714 0.012571428571429 0.041800000000000
v -0.032685714285714 0.012571428571429 0.052250000000000
v -0.032685714285714 0.025142857142857 -0.052250000000000
v -0.032685714285714 0.025142857142857 -0.041800000000000
v -0.032685714285714 0.025142857142857 -0.031350000000000
v -0.032685714285714 0.025142857142857 -0.020900000000000
v -0.032685714285714 0.025142857142857 -0.010450000000000
v -0.032685714285714 0.025142857142857 -0.000000000000000
v -0.032685714285714 0.025142857142857 0.010450000000000
v -0.032685714285714 0.025142857142857 0.020900000000000
v -0.032685714285714 0.025142857142857 0.031350000000000
v -0.032685714285714 0.025142857142857 0.041800000000000
v -0.032685714285714 0.025142857142857 0.052250000000000
v -0.032685714285714 0.037714285714286 -0.052250000000000
v -0.032685714285714 0.037714285714286 -0.041800000000000
v -0.032685714285714 0.037714285714286 -0.031350000000000
v -0.032685714285714 0.037714285714286 -0.020900000000000
v -0.032685714285714 0.037714285714286 -0.010450000000000
v -0.032685714285714 0.037714285714286 -0.000000000000000
v -0.032685714285714 0.037714285714286 0.010450000000000
v -0.032685714285714 0.037714285714286 0.020900000000000
v -0.032685714285714 0.037714285714286 0.031350000000000
v -0.032685714285714 0.037714285714286 0.041800000000000
v -0.032685714285714 0.037714285714286 0.052250000000000
v -0.032685714285714 0.050285714285714 -0.041800000000000
v -0.032685714285714 0.050285714285714 -0.031350000000000
v -0.032685714285714 0.050285714285714 -0.020900000000000
v -0.032685714285714 0.050285714285714 -0.010450000000000
v -0.032685714285714 0.050285714285714 -0.000000000000000
v -0.032685714285714 0.050285714285714 0.010450000000000
v -0.032685714285714 0.050285714285714 0.020900000000000
v -0.032685714285714 0.050285714285714 0.031350000000000
v -0.032685714285714 0.050285714285714 0.041800000000000
v -0.032685714285714 0.062857142857143 -0.031350000000000
v -0.032685714285714 0.062857142857143 -0.020900000000000
v -0.032685714285714 0.062857142857143 -0.010450000000000
v -0.032685714285714 0.062857142857143 -0.000000000000000
v -0.032685714285714 0.062857142857143 0.010450000000000
v -0.032685714285714 0.062857142857143 0.020900000000000
v -0.032685714285714 0.062857142857143 0.031350000000000
v -0.032685714285714 0.075428571428571 -0.000000000000000
v -0.016342857142857 -0.075428571428571 -0.010450000000000
v -0.016342857142857 -0.075428571428571 0.000000000000000
v -0.016342857142857 -0.075428571428571 0.010450000000000
v -0.016342857142857 -0.062857142857143 -0.031350000000000
v -0.016342857142857 -0.062857142857143 -0.020900000000000
v -0.016342857142857 -0.062857142857143 -0.010450000000000
v -0.016342857142857 -0.062857142857143 0.000000000000000
v -0.016342857142857 -0.062857142857143 0.010450000000000
v -0.016342857142857 -0.062857142857143 0.020900000000000
v -0.016342857142857 -0.062857142857143 0.031350000000000
v -0.016342857142857 -0.050285714285714 -0.041800000000000
v -0.016342857142857 -0.050285714285714 -0.031350000000000
v -0.016342857142857 -0.050285714285714 -0.020900000000000
v -0.016342857142857 -0.050285714285714 -0.010450000000000
v -0.016342857142857 -0.050285714285714 0.000000000000000
v -0.016342857142857 -0.050285714285714 0.010450000000000
v -0.016342857142857 -0.050285714285714 0.020900000000000
v -0.016342857142857 -0.050285714285714 0.031350000000000
v -0.016342857142857 -0.050285714285714 0.041800000000000
v -0.016342857142857 -0.037714285714286 -0.052250000000000
v -0.016342857142857 -0.037714285714286 -0.041800000000000
v -0.016342857142857 -0.037714285714286 -0.031350000000000
v -0.016342857142857 -0.037714285714286 -0.020900000000000
v -0.016342857142857 -0.037714285714286 -0.010450000000000
v -0.016342857142857 -0.037714285714286 0.000000000000000
v -0.016342857142857 -0.037714285714286 0.010450000000000
v -0.016342857142857 -0.037714285714286 0.020900000000000
v -0.016342857142857 -0.037714285714286 0.031350000000000
v -0.016342857142857 -0.037714285714286 0.041800000000000
v -0.016342857142857 -0.037714285714286 0.052250000000000
v -0.016342857142857 -0.025142857142857 -0.052250000000000
v -0.016342857142857 -0.025142857142857 -0.041800000000000
v -0.016342857142857 -0.025142857142857 -0.031350000000000
v -0.016342857142857 -0.025142857142857 -0.020900000000000
v -0.016342857142857 -0.025142857142857 -0.010450000000000
v -0.016342857142857 -0.025142857142857 -0.000000000000000
v -0.016342857142857 -0.025142857142857 0.010450000000000
v -0.016342857142857 -0.025142857142857 0.020900000000000
v -0.016342857142857 -0.025142857142857 0.031350000000000
v -0.016342857142857 -0.025142857142857 0.041800000000000
v -0.016342857142857 -0.025142857142857 0.052250000000000
v -0.016342857142857 -0.012571428571429 -0.062700000000000
v -0.016342857142857 -0.012571428571429 -0.052250000000000
v -0.016342857142857 -0.012571428571429 -0.041800000000000
v -0.016342857142857 -0.012571428571429 -0.031350000000000
v -0.016342857142857 -0.012571428571429 -0.020900000000000
v -0.016342857142857 -0.012571428571429 -0.010450000000000
v -0.016342857142857 -0.012571428571429 -0.000000000000000
v -0.016342857142857 -0.012571428571429 0.010450000000000
v -0.016342857142857 -0.012571428571429 0.020900000000000
v -0.016342857142857 -0.012571428571429 0.031350000000000
v -0.016342857142857 -0.012571428571429 0.041800000000000
v -0.016342857142857 -0.012571428571429 0.052250000000000
v -0.016342857142857 -0.012571428571429 0.062700000000000
v -0.016342857142857 0.000000000000000 -0.062700000000000
v -0.016342857142857 0.000000000000000 -0.052250000000000
v -0.016342857142857 0.000000000000000 -0.041800000000000
v -0.016342857142857 0.000000000000000 -0.031350000000000
v -0.016342857142857 0.000000000000000 -0.020900000000000
v -0.016342857142857 0.000000000000000 -0.010450000000000
v -0.016342857142857 0.000000000000000 -0.000000000000000
v -0.016342857142857 0.000000000000000 0.010450000000000
v -0.016342857142857 0.000000000000000 0.020900000000000
v -0.016342857142857 0.000000000000000 0.031350000000000
v -0.016342857142857 0.000000000000000 0.041800000000000
v -0.016342857142857 0.000000000000000 0.052250000000000
v -0.016342857142857 0.000000000000000 0.062700000000000
v -0.016342857142857 0.012571428571429 -0.062700000000000
v -0.016342857142857 0.012571428571429 -0.052250000000000
v -0.016342857142857 0.012571428571429 -0.041800000000000
v -0.016342857142857 0.012571428571429 -0.031350000000000
v -0.016342857142857 0.012571428571429 -0.020900000000000
v -0.016342857142857 0.012571428571429 -0.010450000000000
v -0.016342857142857 0.012571428571429 -0.000000000000000
v -0.016342857142857 0.012571428571429 0.010450000000000
v -0.016342857142857 0.012571428571429 0.020900000000000
v -0.016342857142857 0.012571428571429 0.031350000000000
v -0.016342857142857 0.012571428571429 0.041800000000000
v -0.016342857142857 0.012571428571429 0.052250000000000
v -0.016342857142857 0.012571428571429 0.062700000000000
v -0.016342857142857 0.025142857142857 -0.052250000000000
v -0.016342857142857 0.025142857142857 -0.041800000000000
v -0.016342857142857 0.025142857142857 -0.031350000000000
v -0.016342857142857 0.025142857142857 -0.020900000000000
v -0.016342857142857 0.025142857142857 -0.010450000000000
v -0.016342857142857 0.025142857142857 -0.000000000000000
v -0.016342857142857 0.025142857142857 0.010450000000000
v -0.016342857142857 0.025142857142857 0.020900000000000
v -0.016342857142857 0.025142857142857 0.031350000000000
v -0.016342857142857 0.025142857142857 0.041800000000000
v -0.016342857142857 0.025142857142857 0.052250000000000
v -0.016342857142857 0.037714285714286 -0.052250000000000
v -0.016342857142857 0.037714285714286 -0.041800000000000
v -0.016342857142857 0.037714285714286 -0.031350000000000
v -0.016342857142857 0.037714285714286 -0.020900000000000
v -0.016342857142857 0.037714285714286 -0.010450000000000
v -0.016342857142857 0.037714285714286 -0.000000000000000
v -0.016342857142857 0.037714285714286 0.010450000000000
v -0.016342857142857 0.037714285714286 0.020900000000000
v -0.016342857142857 0.037714285714286 0.031350000000000
v -0.016342857142857 0.037714285714286 0.041800000000000
v -0.016342857142857 0.037714285714286 0.052250000000000
v -0.016342857142857 0.050285714285714 -0.041800000000000
v -0.016342857142857 0.050285714285714 -0.031350000000000
v -0.016342857142857 0.050285714285714 -0.020900000000000
v -0.016342857142857 0.050285714285714 -0.010450000000000
v -0.016342857142857 0.050285714285714 -0.000000000000000
v -0.016342857142857 0.050285714285714 0.010450000000000
v -0.016342857142857 0.050285714285714 0.020900000000000
v -0.016342857142857 0.050285714285714 0.031350000000000
v -0.016342857142857 0.050285714285714 0.041800000000000
v -0.016342857142857 0.062857142857143 -0.031350000000000
v -0.016342857142857 0.062857142857143 -0.020900000000000
v -0.016342857142857 0.062857142857143 -0.010450000000000
v -0.016342857142857 0.062857142857143 -0.000000000000000
v -0.016342857142857 0.062857142857143 0.010450000000000
v -0.016342857142857 0.062857142857143 0.020900000000000
v -0.016342857142857 0.062857142857143 0.031350000000000
v -0.016342857142857 0.075428571428571 -0.010450000000000
v -0.016342857142857 0.075428571428571 -0.000000000000000
v -0.016342857142857 0.075428571428571 0.010450000000000
v -0.000000000000000 -0.075428571428571 -0.020900000000000
v -0.000000000000000 -0.075428571428571 -0.010450000000000
v -0.000000000000000 -0.075428571428571 0.000000000000000
v -0.000000000000000 -0.075428571428571 0.010450000000000
v -0.000000000000000 -0.075428571428571 0.020900000000000
v -0.000000000000000 -0.062857142857143 -0.031350000000000
v -0.000000000000000 -0.062857142857143 -0.020900000000000
v -0.000000000000000 -0.062857142857143 -0.010450000000000
v -0.000000000000000 -0.062857142857143 0.000000000000000
v -0.000000000000000 -0.062857142857143 0.010450000000000
v -0.000000000000000 -0.062857142857143 0.020900000000000
v -0.000000000000000 -0.062857142857143 0.031350000000000
v -0.000000000000000 -0.050285714285714 -0.041800000000000
v -0.000000000000000 -0.050285714285714 -0.031350000000000
v -0.000000000000000 -0.050285714285714 -0.020900000000000
v -0.000000000000000 -0.050285714285714 -0.010450000000000
v -0.000000000000000 -0.050285714285714 0.000000000000000
v -0.000000000000000 -0.050285714285714 0.010450000000000
v -0.000000000000000 -0.050285714285714 0.020900000000000
v -0.000000000000000 -0.050285714285714 0.031350000000000
v -0.000000000000000 -0.050285714285714 0.041800000000000
v -0.000000000000000 -0.037714285714286 -0.052250000000000
v -0.000000000000000 -0.037714285714286 -0.041800000000000
v -0.000000000000000 -0.037714285714286 -0.031350000000000
v -0.000000000000000 -0.037714285714286 -0.020900000000000
v -0.000000000000000 -0.037714285714286 -0.010450000000000
v -0.000000000000000 -0.037714285714286 0.000000000000000
v -0.000000000000000 -0.037714285714286 0.010450000000000
v -0.000000000000000 -0.037714285714286 0.020900000000000
v -0.000000000000000 -0.037714285714286 0.031350000000000
v -0.000000000000000 -0.037714285714286 0.041800000000000
v -0.000000000000000 -0.037714285714286 0.052250000000000
v -0.000000000000000 -0.025142857142857 -0.062700000000000
v -0.000000000000000 -0.025142857142857 -0.052250000000000
v -0.000000000000000 -0.025142857142857 -0.041800000000000
v -0.000000000000000 -0.025142857142857 -0.031350000000000
v -0.000000000000000 -0.025142857142857 -0.020900000000000
v -0.000000000000000 -0.025142857142857 -0.010450000000000
v -0.000000000000000 -0.025142857142857 -0.000000000000000
v -0.000000000000000 -0.025142857142857 0.010450000000000
v -0.000000000000000 -0.025142857142857 0.020900000000000
v -0.000000000000000 -0.025142857142857 0.031350000000000
v -0.000000000000000 -0.025142857142857 0.041800000000000
v -0.000000000000000 -0.025142857142857 0.052250000000000
v -0.000000000000000 -0.025142857142857 0.062700000000000
v -0.000000000000000 -0.012571428571429 -0.062700000000000
v -0.000000000000000 -0.012571428571429 -0.052250000000000
v -0.000000000000000 -0.012571428571429 -0.041800000000000
v -0.000000000000000 -0.012571428571429 -0.031350000000000
v -0.000000000000000 -0.012571428571429 -0.020900000000000
v -0.000000000000000 -0.012571428571429 -0.010450000000000
v -0.000000000000000 -0.012571428571429 -0.000000000000000
v -0.000000000000000 -0.012571428571429 0.010450000000000
v -0.000000000000000 -0.012571428571429 0.020900000000000
v -0.000000000000000 -0.012571428571429 0.031350000000000
v -0.000000000000000 -0.012571428571429 0.041800000000000
v -0.000000000000000 -0.012571428571429 0.052250000000000
v -0.000000000000000 -0.012571428571429 0.062700000000000
v -0.000000000000000 0.000000000000000 -0.062700000000000
v -0.000000000000000 0.000000000000000 -0.052250000000000
v -0.000000000000000 0.000000000000000 -0.041800000000000
v -0.000000000000000 0.000000000000000 -0.031350000000000
v -0.000000000000000 0.000000000000000 -0.020900000000000
v -0.000000000000000 0.000000000000000 -0.010450000000000
v -0.000000000000000 0.000000000000000 -0.000000000000000
v -0.000000000000000 0.000000000000000 0.010450000000000
v -0.000000000000000 0.000000000000000 0.020900000000000
v -0.000000000000000 0.000000000000000 0.031350000000000
v -0.000000000000000 0.000000000000000 0.041800000000000
v -0.000000000000000 0.000000000000000 0.052250000000000
v -0.000000000000000 0.000000000000000 0.062700000000000
v -0.000000000000000 0.012571428571429 -0.062700000000000
v -0.000000000000000 0.012571428571429 -0.052250000000000
v -0.000000000000000 0.012571428571429 -0.041800000000000
v -0.000000000000000 0.012571428571429 -0.031350000000000
v -0.000000000000000 0.012571428571429 -0.020900000000000
v -0.000000000000000 0.012571428571429 -0.010450000000000
v -0.000000000000000 0.012571428571429 -0.000000000000000
v -0.000000000000000 0.012571428571429 0.010450000000000
v -0.000000000000000 0.012571428571429 0.020900000000000
v -0.000000000000000 0.012571428571429 0.031350000000000
v -0.000000000000000 0.012571428571429 0.041800000000000
v -0.000000000000000 0.012571428571429 0.052250000000000
v -0.000000000000000 0.012571428571429 0.062700000000000
v -0.000000000000000 0.025142857142857 -0.062700000000000
v -0.000000000000000 0.025142857142857 -0.052250000000000
v -0.000000000000000 0.025142857142857 -0.041800000000000
v -0.000000000000000 0.025142857142857 -0.031350000000000
v -0.000000000000000 0.025142857142857 -0.020900000000000
v -0.000000000000000 0.025142857142857 -0.010450000000000
v -0.000000000000000 0.025142857142857 -0.000000000000000
v -0.000000000000000 0.025142857142857 0.010450000000000
v -0.000000000000000 0.025142857142857 0.020900000000000
v -0.000000000000000 0.025142857142857 0.031350000000000
v -0.000000000000000 0.025142857142857 0.041800000000000
v -0.000000000000000 0.025142857142857 0.052250000000000
v -0.000000000000000 0.025142857142857 0.062700000000000
v -0.000000000000000 0.037714285714286 -0.052250000000000
v -0.000000000000000 0.037714285714286 -0.041800000000000
v -0.000000000000000 0.037714285714286 -0.031350000000000
v -0.000000000000000 0.037714285714286 -0.020900000000000
v -0.000000000000000 0.037714285714286 -0.010450000000000
v -0.000000000000000 0.037714285714286 -0.000000000000000
v -0.000000000000000 0.037714285714286 0.010450000000000
v -0.000000000000000 0.037714285714286 0.020900000000000
v -0.000000000000000 0.037714285714286 0.031350000000000
v -0.000000000000000 0.037714285714286 0.041800000000000
v -0.000000000000000 0.037714285714286 0.052250000000000
v -0.000000000000000 0.050285714285714 -0.041800000000000
v -0.000000000000000 0.050285714285714 -0.031350000000000
v -0.000000000000000 0.050285714285714 -0.020900000000000
v -0.000000000000000 0.050285714285714 -0.010450000000000
v -0.000000000000000 0.050285714285714 -0.000000000000000
v -0.000000000000000 0.050285714285714 0.010450000000000
v -0.000000000000000 0.050285714285714 0.020900000000000
v -0.000000000000000 0.050285714285714 0.031350000000000
v -0.000000000000000 0.050285714285714 0.041800000000000
v -0.000000000000000 0.062857142857143 -0.031350000000000
v -0.000000000000000 0.062857142857143 -0.020900000000000
v -0.000000000000000 0.062857142857143 -0.010450000000000
v -0.000000000000000 0.062857142857143 -0.000000000000000
v -0.000000000000000 0.062857142857143 0.010450000000000
v -0.000000000000000 0.062857142857143 0.020900000000000
v -0.000000000000000 0.062857142857143 0.031350000000000
v -0.000000000000000 0.075428571428571 -0.020900000000000
v -0.000000000000000 0.075428571428571 -0.010450000000000
v -0.000000000000000 0.075428571428571 -0.000000000000000
v -0.000000000000000 0.075428571428571 0.010450000000000
v -0.000000000000000 0.075428571428571 0.020900000000000
v 0.016342857142857 -0.075428571428571 -0.010450000000000
v 0.016342857142857 -0.075428571428571 0.000000000000000
v 0.016342857142857 -0.075428571428571 0.010450000000000
v 0.016342857142857 -0.062857142857143 -0.031350000000000
v 0.016342857142857 -0.062857142857143 -0.020900000000000
v 0.016342857142857 -0.062857142857143 -0.010450000000000
v 0.016342857142857 -0.062857142857143 0.000000000000000
v 0.016342857142857 -0.062857142857143 0.010450000000000
v 0.016342857142857 -0.062857142857143 0.020900000000000
v 0.016342857142857 -0.062857142857143 0.031350000000000
v 0.016342857142857 -0.050285714285714 -0.041800000000000
v 0.016342857142857 -0.050285714285714 -0.031350000000000
v 0.016342857142857 -0.050285714285714 -0.020900000000000
v 0.016342857142857 -0.050285714285714 -0.010450000000000
v 0.016342857142857 -0.050285714285714 0.000000000000000
v 0.016342857142857 -0.050285714285714 0.010450000000000
v 0.016342857142857 -0.050285714285714 0.020900000000000
v 0.016342857142857 -0.050285714285714 0.031350000000000
v 0.016342857142857 -0.050285714285714 0.041800000000000
v 0.016342857142857 -0.037714285714286 -0.052250000000000
v 0.016342857142857 -0.037714285714286 -0.041800000000000
v 0.016342857142857 -0.037714285714286 -0.031350000000000
v 0.016342857142857 -0.037714285714286 -0.020900000000000
v 0.016342857142857 -0.037714285714286 -0.010450000000000
v 0.016342857142857 -0.037714285714286 0.000000000000000
v 0.016342857142857 -0.037714285714286 0.010450000000000
v 0.016342857142857 -0.037714285714286 0.020900000000000
v 0.016342857142857 -0.037714285714286 0.031350000000000
v 0.016342857142857 -0.037714285714286 0.041800000000000
v 0.016342857142857 -0.037714285714286 0.052250000000000
v 0.016342857142857 -0.025142857142857 -0.052250000000000
v 0.016342857142857 -0.025142857142857 -0.041800000000000
v 0.016342857142857 -0.025142857142857 -0.031350000000000
v 0.016342857142857 -0.025142857142857 -0.020900000000000
v 0.016342857142857 -0.025142857142857 -0.010450000000000
v 0.016342857142857 -0.025142857142857 -0.000000000000000
v 0.016342857142857 -0.025142857142857 0.010450000000000
v 0.016342857142857 -0.025142857142857 0.020900000000000
v 0.016342857142857 -0.025142857142857 0.031350000000000
v 0.016342857142857 -0.025142857142857 0.041800000000000
v 0.016342857142857 -0.025142857142857 0.052250000000000
v 0.016342857142857 -0.012571428571429 -0.062700000000000
v 0.016342857142857 -0.012571428571429 -0.052250000000000
v 0.016342857142857 -0.012571428571429 -0.041800000000000
v 0.016342857142857 -0.012571428571429 -0.031350000000000
v 0.016342857142857 -0.012571428571429 -0.020900000000000
v 0.016342857142857 -0.012571428571429 -0.010450000000000
v 0.016342857142857 -0.012571428571429 -0.000000000000000
v 0.016342857142857 -0.012571428571429 0.010450000000000
v 0.016342857142857 -0.012571428571429 0.020900000000000
v 0.016342857142857 -0.012571428571429 0.031350000000000
v 0.016342857142857 -0.012571428571429 0.041800000000000
v 0.016342857142857 -0.012571428571429 0.052250000000000
v 0.016342857142857 -0.012571428571429 0.062700000000000
v 0.016342857142857 0.000000000000000 -0.062700000000000
v 0.016342857142857 0.000000000000000 -0.052250000000000
v 0.016342857142857 0.000000000000000 -0.041800000000000
v 0.016342857142857 0.000000000000000 -0.031350000000000
v 0.016342857142857 0.000000000000000 -0.020900000000000
v 0.016342857142857 0.000000000000000 -0.010450000000000
v 0.016342857142857 0.000000000000000 -0.000000000000000
v 0.016342857142857 0.000000000000000 0.010450000000000
v 0.016342857142857 0.000000000000000 0.020900000000000
v 0.016342857142857 0.000000000000000 0.031350000000000
v 0.016342857142857 0.000000000000000 0.041800000000000
v 0.016342857142857 0.000000000000000 0.052250000000000
v 0.016342857142857 0.000000000000000 0.062700000000000
v 0.016342857142857 0.012571428571429 -0.062700000000000
v 0.016342857142857 0.012571428571429 -0.052250000000000
v 0.016342857142857 0.012571428571429 -0.041800000000000
v 0.016342857142857 0.012571428571429 -0.031350000000000
v 0.016342857142857 0.012571428571429 -0.020900000000000
v 0.016342857142857 0.012571428571429 -0.010450000000000
v 0.016342857142857 0.012571428571429 -0.000000000000000
v 0.016342857142857 0.012571428571429 0.010450000000000
v 0.016342857142857 0.012571428571429 0.020900000000000
v 0.016342857142857 0.012571428571429 0.031350000000000
v 0.016342857142857 0.012571428571429 0.041800000000000
v 0.016342857142857 0.012571428571429 0.052250000000000
v 0.016342857142857 0.012571428571429 0.062700000000000
v 0.016342857142857 0.025142857142857 -0.052250000000000
v 0.016342857142857 0.025142857142857 -0.041800000000000
v 0.016342857142857 0.025142857142857 -0.031350000000000
v 0.016342857142857 0.025142857142857 -0.020900000000000
v 0.016342857142857 0.025142857142857 -0.010450000000000
v 0.016342857142857 0.025142857142857 -0.000000000000000
v 0.016342857142857 0.025142857142857 0.010450000000000
v 0.016342857142857 0.025142857142857 0.020900000000000
v 0.016342857142857 0.025142857142857 0.031350000000000
v 0.016342857142857 0.025142857142857 0.041800000000000
v 0.016342857142857 0.025142857142857 0.052250000000000
v 0.016342857142857 0.037714285714286 -0.052250000000000
v 0.016342857142857 0.037714285714286 -0.041800000000000
v 0.016342857142857 0.037714285714286 -0.031350000000000
v 0.016342857142857 0.037714285714286 -0.020900000000000
v 0.016342857142857 0.037714285714286 -0.010450000000000
v 0.016342857142857 0.037714285714286 -0.000000000000000
v 0.016342857142857 0.037714285714286 0.010450000000000
v 0.016342857142857 0.037714285714286 0.020900000000000
v 0.016342857142857 0.037714285714286 0.031350000000000
v 0.016342857142857 0.037714285714286 0.041800000000000
v 0.016342857142857 0.037714285714286 0.052250000000000
v 0.016342857142857 0.050285714285714 -0.041800000000000
v 0.016342857142857 0.050285714285714 -0.031350000000000
v 0.016342857142857 0.050285714285714 -0.020900000000000
v 0.016342857142857 0.050285714285714 -0.010450000000000
v 0.016342857142857 0.050285714285714 -0.000000000000000
v 0.016342857142857 0.050285714285714 0.010450000000000
v 0.016342857142857 0.050285714285714 0.020900000000000
v 0.016342857142857 0.050285714285714 0.031350000000000
v 0.016342857142857 0.050285714285714 0.041800000000000
v 0.016342857142857 0.062857142857143 -0.031350000000000
v 0.016342857142857 0.062857142857143 -0.020900000000000
v 0.016342857142857 0.062857142857143 -0.010450000000000
v 0.016342857142857 0.062857142857143 -0.000000000000000
v 0.016342857142857 0.062857142857143 0.010450000000000
v 0.016342857142857 0.062857142857143 0.020900000000000
v 0.016342857142857 0.062857142857143 0.031350000000000
v 0.016342857142857 0.075428571428571 -0.010450000000000
v 0.016342857142857 0.075428571428571 -0.000000000000000
v 0.016342857142857 0.075428571428571 0.010450000000000
v 0.032685714285714 -0.075428571428571 0.000000000000000
v 0.032685714285714 -0.062857142857143 -0.031350000000000
v 0.032685714285714 -0.062857142857143 -0.020900000000000
v 0.032685714285714 -0.062857142857143 -0.010450000000000
v 0.032685714285714 -0.062857142857143 0.000000000000000
v 0.032685714285714 -0.062857142857143 0.010450000000000
v 0.032685714285714 -0.062857142857143 0.020900000000000
v 0.032685714285714 -0.062857142857143 0.031350000000000
v 0.032685714285714 -0.050285714285714 -0.041800000000000
v 0.032685714285714 -0.050285714285714 -0.031350000000000
v 0.032685714285714 -0.050285714285714 -0.020900000000000
v 0.032685714285714 -0.050285714285714 -0.010450000000000
v 0.032685714285714 -0.050285714285714 0.000000000000000
v 0.032685714285714 -0.050285714285714 0.010450000000000
v 0.032685714285714 -0.050285714285714 0.020900000000000
v 0.032685714285714 -0.050285714285714 0.031350000000000
v 0.032685714285714 -0.050285714285714 0.041800000000000
v 0.032685714285714 -0.037714285714286 -0.052250000000000
v 0.032685714285714 -0.037714285714286 -0.041800000000000
v 0.032685714285714 -0.037714285714286 -0.031350000000000
v 0.032685714285714 -0.037714285714286 -0.020900000000000
v 0.032685714285714 -0.037714285714286 -0.010450000000000
v 0.032685714285714 -0.037714285714286 0.000000000000000
v 0.032685714285714 -0.037714285714286 0.010450000000000
v 0.032685714285714 -0.037714285714286 0.020900000000000
v 0.032685714285714 -0.037714285714286 0.031350000000000
v 0.032685714285714 -0.037714285714286 0.041800000000000
v 0.032685714285714 -0.037714285714286 0.052250000000000
v 0.032685714285714 -0.025142857142857 -0.052250000000000
v 0.032685714285714 -0.025142857142857 -0.041800000000000
v 0.032685714285714 -0.025142857142857 -0.031350000000000
v 0.032685714285714 -0.025142857142857 -0.020900000000000
v 0.032685714285714 -0.025142857142857 -0.010450000000000
v 0.032685714285714 -0.025142857142857 -0.000000000000000
v 0.032685714285714 -0.025142857142857 0.010450000000000
v 0.032685714285714 -0.025142857142857 0.020900000000000
v 0.032685714285714 -0.025142857142857 0.031350000000000
v 0.032685714285714 -0.025142857142857 0.041800000000000
v 0.032685714285714 -0.025142857142857 0.052250000000000
v 0.032685714285714 -0.012571428571429 -0.052250000000000
v 0.032685714285714 -0.012571428571429 -0.041800000000000
v 0.032685714285714 -0.012571428571429 -0.031350000000000
v 0.032685714285714 -0.012571428571429 -0.020900000000000
v 0.032685714285714 -0.012571428571429 -0.010450000000000
v 0.032685714285714 -0.012571428571429 -0.000000000000000
v 0.032685714285714 -0.012571428571429 0.010450000000000
v 0.032685714285714 -0.012571428571429 0.020900000000000
v 0.032685714285714 -0.012571428571429 0.031350000000000
v 0.032685714285714 -0.012571428571429 0.041800000000000
v 0.032685714285714 -0.012571428571429 0.052250000000000
v 0.032685714285714 0.000000000000000 -0.062700000000000
v 0.032685714285714 0.000000000000000 -0.052250000000000
v 0.032685714285714 0.000000000000000 -0.041800000000000
v 0.032685714285714 0.000000000000000 -0.031350000000000
v 0.032685714285714 0.000000000000000 -0.020900000000000
v 0.032685714285714 0.000000000000000 -0.010450000000000
v 0.032685714285714 0.000000000000000 -0.000000000000000
v 0.032685714285714 0.000000000000000 0.010450000000000
v 0.032685714285714 0.000000000000000 0.020900000000000
v 0.032685714285714 0.000000000000000 0.031350000000000
v 0.032685714285714 0.000000000000000 0.041800000000000
v 0.032685714285714 0.000000000000000 0.052250000000000
v 0.032685714285714 0.000000000000000 0.062700000000000
v 0.032685714285714 0.012571428571429 -0.052250000000000
v 0.032685714285714 0.012571428571429 -0.041800000000000
v 0.032685714285714 0.012571428571429 -0.031350000000000
v 0.032685714285714 0.012571428571429 -0.020900000000000
v 0.032685714285714 0.012571428571429 -0.010450000000000
v 0.032685714285714 0.012571428571429 -0.000000000000000
v 0.032685714285714 0.012571428571429 0.010450000000000
v 0.032685714285714 0.012571428571429 0.020900000000000
v 0.032685714285714 0.012571428571429 0.031350000000000
v 0.032685714285714 0.012571428571429 0.041800000000000
v 0.032685714285714 0.012571428571429 0.052250000000000
v 0.032685714285714 0.025142857142857 -0.052250000000000
v 0.032685714285714 0.025142857142857 -0.041800000000000
v 0.032685714285714 0.025142857142857 -0.031350000000000
v 0.032685714285714 0.025142857142857 -0.020900000000000
v 0.032685714285714 0.025142857142857 -0.010450000000000
v 0.032685714285714 0.025142857142857 -0.000000000000000
v 0.032685714285714 0.025142857142857 0.010450000000000
v 0.032685714285714 0.025142857142857 0.020900000000000
v 0.032685714285714 0.025142857142857 0.031350000000000
v 0.032685714285714 0.025142857142857 0.041800000000000
v 0.032685714285714 0.025142857142857 0.052250000000000
v 0.032685714285714 0.037714285714286 -0.052250000000000
v 0.032685714285714 0.037714285714286 -0.041800000000000
v 0.032685714285714 0.037714285714286 -0.031350000000000
v 0.032685714285714 0.037714285714286 -0.020900000000000
v 0.032685714285714 0.037714285714286 -0.010450000000000
v 0.032685714285714 0.037714285714286 -0.000000000000000
v 0.032685714285714 0.037714285714286 0.010450000000000
v 0.032685714285714 0.037714285714286 0.020900000000000
v 0.032685714285714 0.037714285714286 0.031350000000000
v 0.032685714285714 0.037714285714286 0.041800000000000
v 0.032685714285714 0.037714285714286 0.052250000000000
v 0.032685714285714 0.050285714285714 -0.041800000000000
v 0.032685714285714 0.050285714285714 -0.031350000000000
v 0.032685714285714 0.050285714285714 -0.020900000000000
v 0.032685714285714 0.050285714285714 -0.010450000000000
v 0.032685714285714 0.050285714285714 -0.000000000000000
v 0.032685714285714 0.050285714285714 0.010450000000000
v 0.032685714285714 0.050285714285714 0.020900000000000
v 0.032685714285714 0.050285714285714 0.031350000000000
v 0.032685714285714 0.050285714285714 0.041800000000000
v 0.032685714285714 0.062857142857143 -0.031350000000000
v 0.032685714285714 0.062857142857143 -0.020900000000000
v 0.032685714285714 0.062857142857143 -0.010450000000000
v 0.032685714285714 0.062857142857143 -0.000000000000000
v 0.032685714285714 0.062857142857143 0.010450000000000
v 0.032685714285714 0.062857142857143 0.020900000000000
v 0.032685714285714 0.062857142857143 0.031350000000000
v 0.032685714285714 0.075428571428571 -0.000000000000000
v 0.049028571428571 -0.062857142857143 -0.020900000000000
v 0.049028571428571 -0.062857142857143 -0.010450000000000
v 0.049028571428571 -0.062857142857143 0.000000000000000
v 0.049028571428571 -0.062857142857143 0.010450000000000
v 0.049028571428571 -0.062857142857143 0.020900000000000
v 0.049028571428571 -0.050285714285714 -0.031350000000000
v 0.049028571428571 -0.050285714285714 -0.020900000000000
v 0.049028571428571 -0.050285714285714 -0.010450000000000
v 0.049028571428571 -0.050285714285714 0.000000000000000
v 0.049028571428571 -0.050285714285714 0.010450000000000
v 0.049028571428571 -0.050285714285714 0.020900000000000
v 0.049028571428571 -0.050285714285714 0.031350000000000
v 0.049028571428571 -0.037714285714286 -0.041800000000000
v 0.049028571428571 -0.037714285714286 -0.031350000000000
v 0.049028571428571 -0.037714285714286 -0.020900000000000
v 0.049028571428571 -0.037714285714286 -0.010450000000000
v 0.049028571428571 -0.037714285714286 0.000000000000000
v 0.049028571428571 -0.037714285714286 0.010450000000000
v 0.049028571428571 -0.037714285714286 0.020900000000000
v 0.049028571428571 -0.037714285714286 0.031350000000000
v 0.049028571428571 -0.037714285714286 0.041800000000000
v 0.049028571428571 -0.025142857142857 -0.052250000000000
v 0.049028571428571 -0.025142857142857 -0.041800000000000
v 0.049028571428571 -0.025142857142857 -0.031350000000000
v 0.049028571428571 -0.025142857142857 -0.020900000000000
v 0.049028571428571 -0.025142857142857 -0.010450000000000
v 0.049028571428571 -0.025142857142857 -0.000000000000000
v 0.049028571428571 -0.025142857142857 0.010450000000000
v 0.049028571428571 -0.025142857142857 0.020900000000000
v 0.049028571428571 -0.025142857142857 0.031350000000000
v 0.049028571428571 -0.025142857142857 0.041800000000000
v 0.049028571428571 -0.025142857142857 0.052250000000000
v 0.049028571428571 -0.012571428571429 -0.052250000000000
v 0.049028571428571 -0.012571428571429 -0.041800000000000
v 0.049028571428571 -0.012571428571429 -0.031350000000000
v 0.049028571428571 -0.012571428571429 -0.020900000000000
v 0.049028571428571 -0.012571428571429 -0.010450000000000
v 0.049028571428571 -0.012571428571429 -0.000000000000000
v 0.049028571428571 -0.012571428571429 0.010450000000000
v 0.049028571428571 -0.012571428571429 0.020900000000000
v 0.049028571428571 -0.012571428571429 0.031350000000000
v 0.049028571428571 -0.012571428571429 0.041800000000000
v 0.049028571428571 -0.012571428571429 0.052250000000000
v 0.049028571428571 0.000000000000000 -0.052250000000000
v 0.049028571428571 0.000000000000000 -0.041800000000000
v 0.049028571428571 0.000000000000000 -0.031350000000000
v 0.049028571428571 0.000000000000000 -0.020900000000000
v 0.049028571428571 0.000000000000000 -0.010450000000000
v 0.049028571428571 0.000000000000000 -0.000000000000000
v 0.049028571428571 0.000000000000000 0.010450000000000
v 0.049028571428571 0.000000000000000 0.020900000000000
v 0.049028571428571 0.000000000000000 0.031350000000000
v 0.049028571428571 0.000000000000000 0.041800000000000
v 0.049028571428571 0.000000000000000 0.052250000000000
v 0.049028571428571 0.012571428571429 -0.052250000000000
v 0.049028571428571 0.012571428571429 -0.041800000000000
v 0.049028571428571 0.012571428571429 -0.031350000000000
v 0.049028571428571 0.012571428571429 -0.020900000000000
v 0.049028571428571 0.012571428571429 -0.010450000000000
v 0.049028571428571 0.012571428571429 -0.000000000000000
v 0.049028571428571 0.012571428571429 0.010450000000000
v 0.049028571428571 0.012571428571429 0.020900000000000
v 0.049028571428571 0.012571428571429 0.031350000000000
v 0.049028571428571 0.012571428571429 0.041800000000000
v 0.049028571428571 0.012571428571429 0.052250000000000
v 0.049028571428571 0.025142857142857 -0.052250000000000
v 0.049028571428571 0.025142857142857 -0.041800000000000
v 0.049028571428571 0.025142857142857 -0.031350000000000
v 0.049028571428571 0.025142857142857 -0.020900000000000
v 0.049028571428571 0.025142857142857 -0.010450000000000
v 0.049028571428571 0.025142857142857 -0.000000000000000
v 0.049028571428571 0.025142857142857 0.010450000000000
v 0.049028571428571 0.025142857142857 0.020900000000000
v 0.049028571428571 0.025142857142857 0.031350000000000
v 0.049028571428571 0.025142857142857 0.041800000000000
v 0.049028571428571 0.025142857142857 0.052250000000000
v 0.049028571428571 0.037714285714286 -0.041800000000000
v 0.049028571428571 0.037714285714286 -0.031350000000000
v 0.049028571428571 0.037714285714286 -0.020900000000000
v 0.049028571428571 0.037714285714286 -0.010450000000000
v 0.049028571428571 0.037714285714286 -0.000000000000000
v 0.049028571428571 0.037714285714286 0.010450000000000
v 0.049028571428571 0.037714285714286 0.020900000000000
v 0.049028571428571 0.037714285714286 0.031350000000000
v 0.049028571428571 0.037714285714286 0.041800000000000
v 0.049028571428571 0.050285714285714 -0.031350000000000
v 0.049028571428571 0.050285714285714 -0.020900000000000
v 0.049028571428571 0.050285714285714 -0.010450000000000
v 0.049028571428571 0.050285714285714 -0.000000000000000
v 0.049028571428571 0.050285714285714 0.010450000000000
v 0.049028571428571 0.050285714285714 0.020900000000000
v 0.049028571428571 0.050285714285714 0.031350000000000
v 0.049028571428571 0.062857142857143 -0.020900000000000
v 0.049028571428571 0.062857142857143 -0.010450000000000
v 0.049028571428571 0.062857142857143 -0.000000000000000
v 0.049028571428571 0.062857142857143 0.010450000000000
v 0.049028571428571 0.062857142857143 0.020900000000000
v 0.065371428571429 -0.050285714285714 -0.020900000000000
v 0.065371428571429 -0.050285714285714 -0.010450000000000
v 0.065371428571429 -0.050285714285714 0.000000000000000
v 0.065371428571429 -0.050285714285714 0.010450000000000
v 0.065371428571429 -0.050285714285714 0.020900000000000
v 0.065371428571429 -0.037714285714286 -0.031350000000000
v 0.065371428571429 -0.037714285714286 -0.020900000000000
v 0.065371428571429 -0.037714285714286 -0.010450000000000
v 0.065371428571429 -0.037714285714286 0.000000000000000
v 0.065371428571429 -0.037714285714286 0.010450000000000
v 0.065371428571429 -0.037714285714286 0.020900000000000
v 0.065371428571429 -0.037714285714286 0.031350000000000
v 0.065371428571429 -0.025142857142857 -0.041800000000000
v 0.065371428571429 -0.025142857142857 -0.031350000000000
v 0.065371428571429 -0.025142857142857 -0.020900000000000
v 0.065371428571429 -0.025142857142857 -0.010450000000000
v 0.065371428571429 -0.025142857142857 -0.000000000000000
v 0.065371428571429 -0.025142857142857 0.010450000000000
v 0.065371428571429 -0.025142857142857 0.020900000000000
v 0.065371428571429 -0.025142857142857 0.031350000000000
v 0.065371428571429 -0.025142857142857 0.041800000000000
v 0.065371428571429 -0.012571428571429 -0.041800000000000
v 0.065371428571429 -0.012571428571429 -0.031350000000000
v 0.065371428571429 -0.012571428571429 -0.020900000000000
v 0.065371428571429 -0.012571428571429 -0.010450000000000
v 0.065371428571429 -0.012571428571429 -0.000000000000000
v 0.065371428571429 -0.012571428571429 0.010450000000000
v 0.065371428571429 -0.012571428571429 0.020900000000000
v 0.065371428571429 -0.012571428571429 0.031350000000000
v 0.065371428571429 -0.012571428571429 0.041800000000000
v 0.065371428571429 0.000000000000000 -0.041800000000000
v 0.065371428571429 0.000000000000000 -0.031350000000000
v 0.065371428571429 0.000000000000000 -0.020900000000000
v 0.065371428571429 0.000000000000000 -0.010450000000000
v 0.065371428571429 0.000000000000000 -0.000000000000000
v 0.065371428571429 0.000000000000000 0.010450000000000
v 0.065371428571429 0.000000000000000 0.020900000000000
v 0.065371428571429 0.000000000000000 0.031350000000000
v 0.065371428571429 0.000000000000000 0.041800000000000
v 0.065371428571429 0.012571428571429 -0.041800000000000
v 0.065371428571429 0.012571428571429 -0.031350000000000
v 0.065371428571429 0.012571428571429 -0.020900000000000
v 0.065371428571429 0.012571428571429 -0.010450000000000
v 0.065371428571429 0.012571428571429 -0.000000000000000
v 0.065371428571429 0.012571428571429 0.010450000000000
v 0.065371428571429 0.012571428571429 0.020900000000000
v 0.065371428571429 0.012571428571429 0.031350000000000
v 0.065371428571429 0.012571428571429 0.041800000000000
v 0.065371428571429 0.025142857142857 -0.041800000000000
v 0.065371428571429 0.025142857142857 -0.031350000000000
v 0.065371428571429 0.025142857142857 -0.020900000000000
v 0.065371428571429 0.025142857142857 -0.010450000000000
v 0.065371428571429 0.025142857142857 -0.000000000000000
v 0.065371428571429 0.025142857142857 0.010450000000000
v 0.065371428571429 0.025142857142857 0.020900000000000
v 0.065371428571429 0.025142857142857 0.031350000000000
v 0.065371428571429 0.025142857142857 0.041800000000000
v 0.065371428571429 0.037714285714286 -0.031350000000000
v 0.065371428571429 0.037714285714286 -0.020900000000000
v 0.065371428571429 0.037714285714286 -0.010450000000000
v 0.065371428571429 0.037714285714286 -0.000000000000000
v 0.065371428571429 0.037714285714286 0.010450000000000
v 0.065371428571429 0.037714285714286 0.020900000000000
v 0.065371428571429 0.037714285714286 0.031350000000000
v 0.065371428571429 0.050285714285714 -0.020900000000000
v 0.065371428571429 0.050285714285714 -0.010450000000000
v 0.065371428571429 0.050285714285714 -0.000000000000000
v 0.065371428571429 0.050285714285714 0.010450000000000
v 0.065371428571429 0.050285714285714 0.020900000000000
v 0.081714285714286 -0.037714285714286 -0.020900000000000
v 0.081714285714286 -0.037714285714286 -0.010450000000000
v 0.081714285714286 -0.037714285714286 0.000000000000000
v 0.081714285714286 -0.037714285714286 0.010450000000000
v 0.081714285714286 -0.037714285714286 0.020900000000000
v 0.081714285714286 -0.025142857142857 -0.031350000000000
v 0.081714285714286 -0.025142857142857 -0.020900000000000
v 0.081714285714286 -0.025142857142857 -0.010450000000000
v 0.081714285714286 -0.025142857142857 -0.000000000000000
v 0.081714285714286 -0.025142857142857 0.010450000000000
v 0.081714285714286 -0.025142857142857 0.020900000000000
v 0.081714285714286 -0.025142857142857 0.031350000000000
v 0.081714285714286 -0.012571428571429 -0.031350000000000
v 0.081714285714286 -0.012571428571429 -0.020900000000000
v 0.081714285714286 -0.012571428571429 -0.010450000000000
v 0.081714285714286 -0.012571428571429 -0.000000000000000
v 0.081714285714286 -0.012571428571429 0.010450000000000
v 0.081714285714286 -0.012571428571429 0.020900000000000
v 0.081714285714286 -0.012571428571429 0.031350000000000
v 0.081714285714286 0.000000000000000 -0.031350000000000
v 0.081714285714286 0.000000000000000 -0.020900000000000
v 0.081714285714286 0.000000000000000 -0.010450000000000
v 0.081714285714286 0.000000000000000 -0.000000000000000
v 0.081714285714286 0.000000000000000 0.010450000000000
v 0.081714285714286 0.000000000000000 0.020900000000000
v 0.081714285714286 0.000000000000000 0.031350000000000
v 0.081714285714286 0.012571428571429 -0.031350000000000
v 0.081714285714286 0.012571428571429 -0.020900000000000
v 0.081714285714286 0.012571428571429 -0.010450000000000
v 0.081714285714286 0.012571428571429 -0.000000000000000
v 0.081714285714286 0.012571428571429 0.010450000000000
v 0.081714285714286 0.012571428571429 0.020900000000000
v 0.081714285714286 0.012571428571429 0.031350000000000
v 0.081714285714286 0.025142857142857 -0.031350000000000
v 0.081714285714286 0.025142857142857 -0.020900000000000
v 0.081714285714286 0.025142857142857 -0.010450000000000
v 0.081714285714286 0.025142857142857 -0.000000000000000
v 0.081714285714286 0.025142857142857 0.010450000000000
v 0.081714285714286 0.025142857142857 0.020900000000000
v 0.081714285714286 0.025142857142857 0.031350000000000
v 0.081714285714286 0.037714285714286 -0.020900000000000
v 0.081714285714286 0.037714285714286 -0.010450000000000
v 0.081714285714286 0.037714285714286 -0.000000000000000
v 0.081714285714286 0.037714285714286 0.010450000000000
v 0.081714285714286 0.037714285714286 0.020900000000000
v 0.098057142857143 -0.025142857142857 -0.000000000000000
v 0.098057142857143 -0.012571428571429 -0.010450000000000
v 0.098057142857143 -0.012571428571429 -0.000000000000000
v 0.098057142857143 -0.012571428571429 0.010450000000000
v 0.098057142857143 0.000000000000000 -0.020900000000000
v 0.098057142857143 0.000000000000000 -0.010450000000000
v 0.098057142857143 0.000000000000000 -0.000000000000000
v 0.098057142857143 0.000000000000000 0.010450000000000
v 0.098057142857143 0.000000000000000 0.020900000000000
v 0.098057142857143 0.012571428571429 -0.010450000000000
v 0.098057142857143 0.012571428571429 -0.000000000000000
v 0.098057142857143 0.012571428571429 0.010450000000000
v 0.098057142857143 0.025142857142857 -0.000000000000000
