# Blender 4.0.2
# www.blender.org
o masc_shift_rot
v -0.076072 0.067130 -0.022861
v -0.030437 0.078885 -0.045574
v -0.047219 0.055837 -0.057409
v -0.043898 0.063164 -0.046944
v -0.040577 0.070492 -0.036479
v -0.037256 0.077819 -0.026013
v -0.033935 0.085146 -0.015548
v -0.057359 0.047443 -0.048315
v -0.054038 0.054770 -0.037849
v -0.050717 0.062098 -0.027384
v -0.047396 0.069425 -0.016919
v -0.044076 0.076752 -0.006453
v -0.070820 0.031722 -0.049685
v -0.067500 0.039049 -0.039220
v -0.064179 0.046376 -0.028754
v -0.060858 0.053704 -0.018289
v -0.057537 0.061031 -0.007824
v -0.054216 0.068358 0.002641
v -0.050895 0.075686 0.013107
v -0.077640 0.030655 -0.030125
v -0.074319 0.037983 -0.019660
v -0.070998 0.045310 -0.009194
v -0.067677 0.052637 0.001271
v -0.064356 0.059964 0.011736
v -0.087780 0.022261 -0.021030
v -0.084459 0.029589 -0.010565
v -0.081138 0.036916 -0.000099
v -0.077818 0.044243 0.010366
v -0.074497 0.051571 0.020831
v -0.091279 0.028522 0.008995
v -0.005082 0.073853 -0.050096
v -0.021864 0.050805 -0.061932
v -0.018543 0.058132 -0.051467
v -0.015222 0.065459 -0.041001
v -0.011901 0.072787 -0.030536
v -0.008580 0.080114 -0.020071
v -0.035325 0.035084 -0.063302
v -0.032004 0.042411 -0.052837
v -0.028683 0.049738 -0.042372
v -0.025363 0.057066 -0.031906
v -0.022042 0.064393 -0.021441
v -0.018721 0.071720 -0.010976
v -0.015400 0.079047 -0.000511
v -0.045466 0.026690 -0.054208
v -0.042145 0.034017 -0.043742
v -0.038824 0.041344 -0.033277
v -0.035503 0.048672 -0.022812
v -0.032182 0.055999 -0.012346
v -0.028861 0.063326 -0.001881
v -0.025540 0.070654 0.008584
v -0.058927 0.010969 -0.055578
v -0.055606 0.018296 -0.045113
v -0.052285 0.025623 -0.034647
v -0.048964 0.032950 -0.024182
v -0.045643 0.040278 -0.013717
v -0.042322 0.047605 -0.003252
v -0.039001 0.054932 0.007214
v -0.035681 0.062260 0.017679
v -0.032360 0.069587 0.028144
v -0.065746 0.009902 -0.036018
v -0.062425 0.017229 -0.025553
v -0.059105 0.024557 -0.015087
v -0.055784 0.031884 -0.004622
v -0.052463 0.039211 0.005843
v -0.049142 0.046539 0.016309
v -0.045821 0.053866 0.026774
v -0.075887 0.001508 -0.026923
v -0.072566 0.008835 -0.016458
v -0.069245 0.016163 -0.005992
v -0.065924 0.023490 0.004473
v -0.062603 0.030817 0.014938
v -0.059282 0.038145 0.025403
v -0.055961 0.045472 0.035869
v -0.082706 0.000442 -0.007363
v -0.079385 0.007769 0.003102
v -0.076064 0.015096 0.013568
v -0.072743 0.022423 0.024033
v -0.069423 0.029751 0.034498
v -0.086205 0.006702 0.022662
v 0.003491 0.045773 -0.066454
v 0.006812 0.053100 -0.055989
v 0.010133 0.060427 -0.045524
v 0.013454 0.067755 -0.035059
v 0.016774 0.075082 -0.024593
v -0.009970 0.030052 -0.067825
v -0.006650 0.037379 -0.057360
v -0.003329 0.044706 -0.046894
v -0.000008 0.052034 -0.036429
v 0.003313 0.059361 -0.025964
v 0.006634 0.066688 -0.015498
v 0.009955 0.074015 -0.005033
v -0.023432 0.014330 -0.069195
v -0.020111 0.021658 -0.058730
v -0.016790 0.028985 -0.048265
v -0.013469 0.036312 -0.037799
v -0.010148 0.043640 -0.027334
v -0.006827 0.050967 -0.016869
v -0.003506 0.058294 -0.006404
v -0.000185 0.065622 0.004062
v 0.003136 0.072949 0.014527
v -0.033572 0.005937 -0.060101
v -0.030251 0.013264 -0.049635
v -0.026930 0.020591 -0.039170
v -0.023609 0.027918 -0.028705
v -0.020288 0.035246 -0.018239
v -0.016968 0.042573 -0.007774
v -0.013647 0.049900 0.002691
v -0.010326 0.057228 0.013156
v -0.007005 0.064555 0.023622
v -0.043712 -0.002457 -0.051006
v -0.040392 0.004870 -0.040540
v -0.037071 0.012197 -0.030075
v -0.033750 0.019525 -0.019610
v -0.030429 0.026852 -0.009145
v -0.027108 0.034179 0.001321
v -0.023787 0.041506 0.011786
v -0.020466 0.048834 0.022251
v -0.017145 0.056161 0.032717
v -0.053853 -0.010851 -0.041911
v -0.050532 -0.003524 -0.031446
v -0.047211 0.003803 -0.020980
v -0.043890 0.011131 -0.010515
v -0.040569 0.018458 -0.000050
v -0.037248 0.025785 0.010416
v -0.033927 0.033113 0.020881
v -0.030606 0.040440 0.031346
v -0.027286 0.047767 0.041811
v -0.063993 -0.019245 -0.032816
v -0.060672 -0.011918 -0.022351
v -0.057351 -0.004591 -0.011885
v -0.054030 0.002737 -0.001420
v -0.050710 0.010064 0.009045
v -0.047389 0.017391 0.019510
v -0.044068 0.024719 0.029976
v -0.040747 0.032046 0.040441
v -0.037426 0.039373 0.050906
v -0.070813 -0.020312 -0.013256
v -0.067492 -0.012984 -0.002791
v -0.064171 -0.005657 0.007675
v -0.060850 0.001670 0.018140
v -0.057529 0.008998 0.028605
v -0.054208 0.016325 0.039070
v -0.050887 0.023652 0.049536
v -0.077632 -0.021378 0.006304
v -0.074311 -0.014051 0.016769
v -0.070990 -0.006724 0.027235
v -0.067669 0.000604 0.037700
v -0.064348 0.007931 0.048165
v 0.018705 0.032347 -0.061882
v 0.022026 0.039674 -0.051417
v 0.025347 0.047001 -0.040952
v 0.028668 0.054329 -0.030486
v 0.031989 0.061656 -0.020021
v 0.005244 0.016626 -0.063253
v 0.008565 0.023953 -0.052787
v 0.011886 0.031280 -0.042322
v 0.015207 0.038608 -0.031857
v 0.018528 0.045935 -0.021391
v 0.021848 0.053262 -0.010926
v 0.025169 0.060590 -0.000461
v -0.008217 0.000904 -0.064623
v -0.004896 0.008232 -0.054158
v -0.001576 0.015559 -0.043692
v 0.001745 0.022886 -0.033227
v 0.005066 0.030214 -0.022762
v 0.008387 0.037541 -0.012297
v 0.011708 0.044868 -0.001831
v 0.015029 0.052196 0.008634
v 0.018350 0.059523 0.019099
v -0.018358 -0.007489 -0.055528
v -0.015037 -0.000162 -0.045063
v -0.011716 0.007165 -0.034598
v -0.008395 0.014493 -0.024132
v -0.005074 0.021820 -0.013667
v -0.001753 0.029147 -0.003202
v 0.001568 0.036474 0.007263
v 0.004889 0.043802 0.017729
v 0.008210 0.051129 0.028194
v -0.028498 -0.015883 -0.046433
v -0.025177 -0.008556 -0.035968
v -0.021856 -0.001229 -0.025503
v -0.018535 0.006099 -0.015038
v -0.015214 0.013426 -0.004572
v -0.011894 0.020753 0.005893
v -0.008573 0.028081 0.016358
v -0.005252 0.035408 0.026824
v -0.001931 0.042735 0.037289
v -0.038638 -0.024277 -0.037339
v -0.035318 -0.016950 -0.026873
v -0.031997 -0.009623 -0.016408
v -0.028676 -0.002295 -0.005943
v -0.025355 0.005032 0.004523
v -0.022034 0.012359 0.014988
v -0.018713 0.019687 0.025453
v -0.015392 0.027014 0.035918
v -0.012071 0.034341 0.046384
v -0.048779 -0.032671 -0.028244
v -0.045458 -0.025344 -0.017778
v -0.042137 -0.018016 -0.007313
v -0.038816 -0.010689 0.003152
v -0.035495 -0.003362 0.013617
v -0.032174 0.003965 0.024083
v -0.028853 0.011293 0.034548
v -0.025532 0.018620 0.045013
v -0.022212 0.025947 0.055478
v -0.055598 -0.033738 -0.008684
v -0.052277 -0.026410 0.001782
v -0.048956 -0.019083 0.012247
v -0.045636 -0.011756 0.022712
v -0.042315 -0.004428 0.033177
v -0.038994 0.002899 0.043643
v -0.035673 0.010226 0.054108
v -0.062418 -0.034804 0.010876
v -0.059097 -0.027477 0.021342
v -0.055776 -0.020150 0.031807
v -0.052455 -0.012822 0.042272
v -0.049134 -0.005495 0.052738
v 0.050702 0.041969 -0.045474
v 0.030599 0.011594 -0.067775
v 0.033920 0.018921 -0.057310
v 0.037241 0.026248 -0.046845
v 0.040561 0.033576 -0.036379
v 0.043882 0.040903 -0.025914
v 0.047203 0.048230 -0.015449
v 0.050524 0.055557 -0.004983
v 0.017137 -0.004128 -0.069146
v 0.020458 0.003200 -0.058680
v 0.023779 0.010527 -0.048215
v 0.027100 0.017854 -0.037750
v 0.030421 0.025182 -0.027284
v 0.033742 0.032509 -0.016819
v 0.037063 0.039836 -0.006354
v 0.040384 0.047164 0.004111
v 0.043705 0.054491 0.014577
v 0.006997 -0.012521 -0.060051
v 0.010318 -0.005194 -0.049585
v 0.013639 0.002133 -0.039120
v 0.016960 0.009460 -0.028655
v 0.020281 0.016788 -0.018190
v 0.023602 0.024115 -0.007724
v 0.026923 0.031442 0.002741
v 0.030243 0.038770 0.013206
v 0.033564 0.046097 0.023672
v -0.003143 -0.020915 -0.050956
v 0.000178 -0.013588 -0.040491
v 0.003499 -0.006261 -0.030025
v 0.006819 0.001067 -0.019560
v 0.010140 0.008394 -0.009095
v 0.013461 0.015721 0.001370
v 0.016782 0.023049 0.011836
v 0.020103 0.030376 0.022301
v 0.023424 0.037703 0.032766
v -0.016605 -0.036637 -0.052326
v -0.013284 -0.029309 -0.041861
v -0.009963 -0.021982 -0.031396
v -0.006642 -0.014655 -0.020931
v -0.003321 -0.007327 -0.010465
v 0.000000 0.000000 0.000000
v 0.003321 0.007327 0.010465
v 0.006642 0.014655 0.020931
v 0.009963 0.021982 0.031396
v 0.013284 0.029309 0.041861
v 0.016605 0.036637 0.052326
v -0.023424 -0.037703 -0.032766
v -0.020103 -0.030376 -0.022301
v -0.016782 -0.023049 -0.011836
v -0.013461 -0.015721 -0.001370
v -0.010140 -0.008394 0.009095
v -0.006819 -0.001067 0.019560
v -0.003499 0.006261 0.030025
v -0.000178 0.013588 0.040491
v 0.003143 0.020915 0.050956
v -0.033564 -0.046097 -0.023672
v -0.030243 -0.038770 -0.013206
v -0.026923 -0.031442 -0.002741
v -0.023602 -0.024115 0.007724
v -0.020281 -0.016788 0.018190
v -0.016960 -0.009460 0.028655
v -0.013639 -0.002133 0.039120
v -0.010318 0.005194 0.049585
v -0.006997 0.012521 0.060051
v -0.043705 -0.054491 -0.014577
v -0.040384 -0.047164 -0.004111
v -0.037063 -0.039836 0.006354
v -0.033742 -0.032509 0.016819
v -0.030421 -0.025182 0.027284
v -0.027100 -0.017854 0.037750
v -0.023779 -0.010527 0.048215
v -0.020458 -0.003200 0.058680
v -0.017137 0.004128 0.069146
v -0.050524 -0.055557 0.004983
v -0.047203 -0.048230 0.015449
v -0.043882 -0.040903 0.025914
v -0.040561 -0.033576 0.036379
v -0.037241 -0.026248 0.046845
v -0.033920 -0.018921 0.057310
v -0.030599 -0.011594 0.067775
v -0.050702 -0.041969 0.045474
v 0.049134 0.005495 -0.052738
v 0.052455 0.012822 -0.042272
v 0.055776 0.020150 -0.031807
v 0.059097 0.027477 -0.021342
v 0.062418 0.034804 -0.010876
v 0.035673 -0.010226 -0.054108
v 0.038994 -0.002899 -0.043643
v 0.042315 0.004428 -0.033177
v 0.045636 0.011756 -0.022712
v 0.048956 0.019083 -0.012247
v 0.052277 0.026410 -0.001782
v 0.055598 0.033738 0.008684
v 0.022212 -0.025947 -0.055478
v 0.025532 -0.018620 -0.045013
v 0.028853 -0.011293 -0.034548
v 0.032174 -0.003965 -0.024083
v 0.035495 0.003362 -0.013617
v 0.038816 0.010689 -0.003152
v 0.042137 0.018016 0.007313
v 0.045458 0.025344 0.017778
v 0.048779 0.032671 0.028244
v 0.012071 -0.034341 -0.046384
v 0.015392 -0.027014 -0.035918
v 0.018713 -0.019687 -0.025453
v 0.022034 -0.012359 -0.014988
v 0.025355 -0.005032 -0.004523
v 0.028676 0.002295 0.005943
v 0.031997 0.009623 0.016408
v 0.035318 0.016950 0.026873
v 0.038638 0.024277 0.037339
v 0.001931 -0.042735 -0.037289
v 0.005252 -0.035408 -0.026824
v 0.008573 -0.028081 -0.016358
v 0.011894 -0.020753 -0.005893
v 0.015214 -0.013426 0.004572
v 0.018535 -0.006099 0.015038
v 0.021856 0.001229 0.025503
v 0.025177 0.008556 0.035968
v 0.028498 0.015883 0.046433
v -0.008210 -0.051129 -0.028194
v -0.004889 -0.043802 -0.017729
v -0.001568 -0.036474 -0.007263
v 0.001753 -0.029147 0.003202
v 0.005074 -0.021820 0.013667
v 0.008395 -0.014493 0.024132
v 0.011716 -0.007165 0.034598
v 0.015037 0.000162 0.045063
v 0.018358 0.007489 0.055528
v -0.018350 -0.059523 -0.019099
v -0.015029 -0.052196 -0.008634
v -0.011708 -0.044868 0.001831
v -0.008387 -0.037541 0.012297
v -0.005066 -0.030214 0.022762
v -0.001745 -0.022886 0.033227
v 0.001576 -0.015559 0.043692
v 0.004896 -0.008232 0.054158
v 0.008217 -0.000904 0.064623
v -0.025169 -0.060590 0.000461
v -0.021848 -0.053262 0.010926
v -0.018528 -0.045935 0.021391
v -0.015207 -0.038608 0.031857
v -0.011886 -0.031280 0.042322
v -0.008565 -0.023953 0.052787
v -0.005244 -0.016626 0.063253
v -0.031989 -0.061656 0.020021
v -0.028668 -0.054329 0.030486
v -0.025347 -0.047001 0.040952
v -0.022026 -0.039674 0.051417
v -0.018705 -0.032347 0.061882
v 0.064348 -0.007931 -0.048165
v 0.067669 -0.000604 -0.037700
v 0.070990 0.006724 -0.027235
v 0.074311 0.014051 -0.016769
v 0.077632 0.021378 -0.006304
v 0.050887 -0.023652 -0.049536
v 0.054208 -0.016325 -0.039070
v 0.057529 -0.008998 -0.028605
v 0.060850 -0.001670 -0.018140
v 0.064171 0.005657 -0.007675
v 0.067492 0.012984 0.002791
v 0.070813 0.020312 0.013256
v 0.037426 -0.039373 -0.050906
v 0.040747 -0.032046 -0.040441
v 0.044068 -0.024719 -0.029976
v 0.047389 -0.017391 -0.019510
v 0.050710 -0.010064 -0.009045
v 0.054030 -0.002737 0.001420
v 0.057351 0.004591 0.011885
v 0.060672 0.011918 0.022351
v 0.063993 0.019245 0.032816
v 0.027286 -0.047767 -0.041811
v 0.030606 -0.040440 -0.031346
v 0.033927 -0.033113 -0.020881
v 0.037248 -0.025785 -0.010416
v 0.040569 -0.018458 0.000050
v 0.043890 -0.011131 0.010515
v 0.047211 -0.003803 0.020980
v 0.050532 0.003524 0.031446
v 0.053853 0.010851 0.041911
v 0.017145 -0.056161 -0.032717
v 0.020466 -0.048834 -0.022251
v 0.023787 -0.041506 -0.011786
v 0.027108 -0.034179 -0.001321
v 0.030429 -0.026852 0.009145
v 0.033750 -0.019525 0.019610
v 0.037071 -0.012197 0.030075
v 0.040392 -0.004870 0.040540
v 0.043712 0.002457 0.051006
v 0.007005 -0.064555 -0.023622
v 0.010326 -0.057228 -0.013156
v 0.013647 -0.049900 -0.002691
v 0.016968 -0.042573 0.007774
v 0.020288 -0.035246 0.018239
v 0.023609 -0.027918 0.028705
v 0.026930 -0.020591 0.039170
v 0.030251 -0.013264 0.049635
v 0.033572 -0.005937 0.060101
v -0.003136 -0.072949 -0.014527
v 0.000185 -0.065622 -0.004062
v 0.003506 -0.058294 0.006404
v 0.006827 -0.050967 0.016869
v 0.010148 -0.043640 0.027334
v 0.013469 -0.036312 0.037799
v 0.016790 -0.028985 0.048265
v 0.020111 -0.021658 0.058730
v 0.023432 -0.014330 0.069195
v -0.009955 -0.074015 0.005033
v -0.006634 -0.066688 0.015498
v -0.003313 -0.059361 0.025964
v 0.000008 -0.052034 0.036429
v 0.003329 -0.044706 0.046894
v 0.006650 -0.037379 0.057360
v 0.009970 -0.030052 0.067825
v -0.016774 -0.075082 0.024593
v -0.013454 -0.067755 0.035059
v -0.010133 -0.060427 0.045524
v -0.006812 -0.053100 0.055989
v -0.003491 -0.045773 0.066454
v 0.086205 -0.006702 -0.022662
v 0.069423 -0.029751 -0.034498
v 0.072743 -0.022423 -0.024033
v 0.076064 -0.015096 -0.013568
v 0.079385 -0.007769 -0.003102
v 0.082706 -0.000442 0.007363
v 0.055961 -0.045472 -0.035869
v 0.059282 -0.038145 -0.025403
v 0.062603 -0.030817 -0.014938
v 0.065924 -0.023490 -0.004473
v 0.069245 -0.016163 0.005992
v 0.072566 -0.008835 0.016458
v 0.075887 -0.001508 0.026923
v 0.045821 -0.053866 -0.026774
v 0.049142 -0.046539 -0.016309
v 0.052463 -0.039211 -0.005843
v 0.055784 -0.031884 0.004622
v 0.059105 -0.024557 0.015087
v 0.062425 -0.017229 0.025553
v 0.065746 -0.009902 0.036018
v 0.032360 -0.069587 -0.028144
v 0.035681 -0.062260 -0.017679
v 0.039001 -0.054932 -0.007214
v 0.042322 -0.047605 0.003252
v 0.045643 -0.040278 0.013717
v 0.048964 -0.032950 0.024182
v 0.052285 -0.025623 0.034647
v 0.055606 -0.018296 0.045113
v 0.058927 -0.010969 0.055578
v 0.025540 -0.070654 -0.008584
v 0.028861 -0.063326 0.001881
v 0.032182 -0.055999 0.012346
v 0.035503 -0.048672 0.022812
v 0.038824 -0.041344 0.033277
v 0.042145 -0.034017 0.043742
v 0.045466 -0.026690 0.054208
v 0.015400 -0.079047 0.000511
v 0.018721 -0.071720 0.010976
v 0.022042 -0.064393 0.021441
v 0.025363 -0.057066 0.031906
v 0.028683 -0.049738 0.042372
v 0.032004 -0.042411 0.052837
v 0.035325 -0.035084 0.063302
v 0.008580 -0.080114 0.020071
v 0.011901 -0.072787 0.030536
v 0.015222 -0.065459 0.041001
v 0.018543 -0.058132 0.051467
v 0.021864 -0.050805 0.061932
v 0.005082 -0.073853 0.050096
v 0.091279 -0.028522 -0.008995
v 0.074497 -0.051571 -0.020831
v 0.077818 -0.044243 -0.010366
v 0.081138 -0.036916 0.000099
v 0.084459 -0.029589 0.010565
v 0.087780 -0.022261 0.021030
v 0.064356 -0.059964 -0.011736
v 0.067677 -0.052637 -0.001271
v 0.070998 -0.045310 0.009194
v 0.074319 -0.037983 0.019660
v 0.077640 -0.030655 0.030125
v 0.050895 -0.075686 -0.013107
v 0.054216 -0.068358 -0.002641
v 0.057537 -0.061031 0.007824
v 0.060858 -0.053704 0.018289
v 0.064179 -0.046376 0.028754
v 0.067500 -0.039049 0.039220
v 0.070820 -0.031722 0.049685
v 0.044076 -0.076752 0.006453
v 0.047396 -0.069425 0.016919
v 0.050717 -0.062098 0.027384
v 0.054038 -0.054770 0.037849
v 0.057359 -0.047443 0.048315
v 0.033935 -0.085146 0.015548
v 0.037256 -0.077819 0.026013
v 0.040577 -0.070492 0.036479
v 0.043898 -0.063164 0.046944
v 0.047219 -0.055837 0.057409
v 0.030437 -0.078885 0.045574
v 0.076072 -0.067130 0.022861
