o Menoetius
v 0.000000 0.000000 -45.000000
v 42.331028 -28.389166 -20.124878
v -16.168699 -45.935059 -20.124893
v -52.323933 0.000000 -20.124702
v -16.168699 45.935059 -20.124893
v 42.331028 28.389166 -20.124878
v 16.168699 -45.935059 20.124893
v -42.331028 -28.389166 20.124878
v -42.331028 28.389166 20.124878
v 16.168699 45.935059 20.124893
v 52.323933 0.000000 20.124702
v 0.000000 0.000000 45.000000
v -15.089286 -42.868462 -24.780838
v -13.620058 -38.694408 -29.588366
v -11.740274 -33.353970 -34.218136
v -9.503650 -26.999744 -38.279446
v -7.044140 -20.012310 -41.442966
v -4.539989 -12.898048 -43.557739
v -2.155592 -6.124010 -44.678928
v 5.643528 -3.784814 -44.678925
v 11.886084 -7.971364 -43.557732
v 18.442169 -12.368181 -41.442963
v 24.881372 -16.686613 -38.279438
v 30.737049 -20.613707 -34.218124
v 35.658478 -23.914244 -29.588348
v 39.505043 -26.493931 -24.780825
v 37.349468 -32.618031 -21.464432
v 31.118542 -36.812473 -22.603577
v 23.692993 -40.626263 -23.380760
v 15.377823 -43.686630 -23.658194
v 6.701988 -45.722393 -23.380762
v -1.733899 -46.665947 -22.603586
v -9.445718 -46.653370 -21.464447
v 45.148617 22.709084 -21.464409
v 47.544659 15.942837 -22.603527
v 49.179352 8.245494 -23.380688
v 49.762901 -0.000001 -23.658115
v 49.179352 -8.245495 -23.380688
v 47.544659 -15.942837 -22.603527
v 45.148617 -22.709084 -21.464409
v 5.643528 3.784814 -44.678925
v 11.886084 7.971364 -43.557732
v 18.442169 12.368181 -41.442963
v 24.881372 16.686613 -38.279438
v 30.737049 20.613707 -34.218124
v 35.658478 23.914244 -29.588348
v 39.505043 26.493931 -24.780825
v -48.830879 0.000000 -24.780634
v -44.076340 0.000000 -29.588163
v -37.993176 0.000000 -34.217964
v -30.755196 0.000000 -38.279324
v -22.795897 0.000000 -41.442890
v -14.692101 0.000000 -43.557705
v -6.975832 0.000000 -44.678917
v -22.065207 -42.868507 -21.464441
v -28.312330 -38.694485 -22.603577
v -34.536396 -33.354069 -23.380730
v -40.259079 -26.999830 -23.658127
v -45.037518 -20.012375 -23.380655
v -48.616463 -12.898084 -22.603439
v -50.986542 -6.124022 -21.464270
v -15.089286 42.868462 -24.780838
v -13.620058 38.694408 -29.588366
v -11.740274 33.353970 -34.218136
v -9.503650 26.999744 -38.279446
v -7.044140 20.012310 -41.442966
v -4.539989 12.898048 -43.557739
v -2.155592 6.124010 -44.678928
v -50.986542 6.124024 -21.464272
v -48.616459 12.898085 -22.603439
v -45.037514 20.012377 -23.380655
v -40.259075 26.999836 -23.658129
v -34.536392 33.354069 -23.380730
v -28.312326 38.694485 -22.603577
v -22.065205 42.868507 -21.464441
v -9.445718 46.653370 -21.464447
v -1.733897 46.665943 -22.603586
v 6.701992 45.722397 -23.380766
v 15.377826 43.686630 -23.658194
v 23.692995 40.626263 -23.380760
v 31.118542 36.812469 -22.603577
v 37.349472 32.618031 -21.464436
v 54.474495 -3.784823 16.098206
v 55.962608 -7.971392 11.301725
v 56.435616 -12.368231 5.845166
v 55.636883 -16.686682 0.000000
v 53.533253 -20.613779 -5.845184
v 50.350811 -23.914309 -11.301788
v 46.480999 -26.493965 -16.098330
v 46.480999 26.493963 -16.098330
v 50.350811 23.914305 -11.301788
v 53.533257 20.613779 -5.845184
v 55.636883 16.686680 0.000000
v 56.435616 12.368230 5.845167
v 55.962608 7.971390 11.301726
v 54.474495 3.784823 16.098206
v 12.933703 -48.992638 16.098352
v 9.080083 -51.592789 11.301819
v 4.696146 -53.366745 5.845209
v -0.000001 -53.999996 0.000000
v -4.696146 -53.366741 -5.845209
v -9.080083 -51.592789 -11.301819
v -12.933703 -48.992638 -16.098352
v 41.660789 -32.618103 -16.098362
v 40.198772 -36.812634 -11.301836
v 37.781597 -40.626495 -5.845223
v 34.385456 -43.686905 0.000000
v 30.182816 -45.722656 5.845224
v 25.506399 -46.666145 11.301842
v 20.732937 -46.653469 16.098370
v -46.480999 -26.493963 16.098330
v -50.350811 -23.914305 11.301788
v -53.533257 -20.613779 5.845184
v -55.636883 -16.686680 0.000000
v -56.435616 -12.368230 -5.845167
v -55.962608 -7.971390 -11.301726
v -54.474495 -3.784823 -16.098206
v -20.732937 -46.653469 -16.098370
v -25.506401 -46.666142 -11.301842
v -30.182821 -45.722656 -5.845225
v -34.385456 -43.686901 0.000000
v -37.781597 -40.626492 5.845223
v -40.198776 -36.812626 11.301838
v -41.660793 -32.618099 16.098362
v -41.660789 32.618103 16.098362
v -40.198772 36.812634 11.301836
v -37.781597 40.626495 5.845223
v -34.385456 43.686905 0.000000
v -30.182816 45.722656 -5.845224
v -25.506399 46.666145 -11.301842
v -20.732937 46.653469 -16.098370
v -54.474495 3.784823 -16.098206
v -55.962608 7.971392 -11.301725
v -56.435616 12.368231 -5.845166
v -55.636883 16.686682 0.000000
v -53.533253 20.613779 5.845184
v -50.350811 23.914309 11.301788
v -46.480999 26.493965 16.098330
v 20.732937 46.653469 16.098370
v 25.506401 46.666142 11.301842
v 30.182821 45.722656 5.845225
v 34.385456 43.686901 0.000000
v 37.781597 40.626492 -5.845223
v 40.198776 36.812626 -11.301838
v 41.660793 32.618099 -16.098362
v -12.933703 48.992638 -16.098352
v -9.080083 51.592789 -11.301819
v -4.696146 53.366745 -5.845209
v 0.000001 53.999996 0.000000
v 4.696146 53.366741 5.845209
v 9.080083 51.592789 11.301819
v 12.933703 48.992638 16.098352
v 50.986542 -6.124024 21.464272
v 48.616459 -12.898085 22.603439
v 45.037514 -20.012377 23.380655
v 40.259075 -26.999836 23.658129
v 34.536392 -33.354069 23.380730
v 28.312326 -38.694485 22.603577
v 22.065205 -42.868507 21.464441
v 9.445718 -46.653370 21.464447
v 1.733897 -46.665943 22.603586
v -6.701992 -45.722397 23.380766
v -15.377826 -43.686630 23.658194
v -23.692995 -40.626263 23.380760
v -31.118542 -36.812469 22.603577
v -37.349472 -32.618031 21.464436
v -45.148617 -22.709084 21.464409
v -47.544659 -15.942837 22.603527
v -49.179352 -8.245494 23.380688
v -49.762901 0.000001 23.658115
v -49.179352 8.245495 23.380688
v -47.544659 15.942837 22.603527
v -45.148617 22.709084 21.464409
v -37.349468 32.618031 21.464432
v -31.118542 36.812473 22.603577
v -23.692993 40.626263 23.380760
v -15.377823 43.686630 23.658194
v -6.701988 45.722393 23.380762
v 1.733899 46.665947 22.603586
v 9.445718 46.653370 21.464447
v 22.065207 42.868507 21.464441
v 28.312330 38.694485 22.603577
v 34.536396 33.354069 23.380730
v 40.259079 26.999830 23.658127
v 45.037518 20.012375 23.380655
v 48.616463 12.898084 22.603439
v 50.986542 6.124022 21.464270
v 2.155593 -6.124010 44.678928
v 4.539989 -12.898048 43.557735
v 7.044140 -20.012310 41.442963
v 9.503650 -26.999743 38.279446
v 11.740275 -33.353966 34.218136
v 13.620059 -38.694405 29.588366
v 15.089288 -42.868462 24.780838
v 48.830879 0.000000 24.780634
v 44.076340 0.000000 29.588163
v 37.993176 0.000000 34.217964
v 30.755196 0.000000 38.279324
v 22.795897 0.000000 41.442890
v 14.692101 0.000000 43.557705
v 6.975832 0.000000 44.678917
v -5.643528 -3.784814 44.678925
v -11.886084 -7.971364 43.557732
v -18.442169 -12.368181 41.442963
v -24.881372 -16.686613 38.279438
v -30.737049 -20.613707 34.218124
v -35.658478 -23.914244 29.588348
v -39.505043 -26.493931 24.780825
v -5.643528 3.784814 44.678925
v -11.886084 7.971364 43.557732
v -18.442169 12.368181 41.442963
v -24.881372 16.686613 38.279438
v -30.737049 20.613707 34.218124
v -35.658478 23.914244 29.588348
v -39.505043 26.493931 24.780825
v 2.155593 6.124010 44.678928
v 4.539989 12.898048 43.557735
v 7.044140 20.012310 41.442963
v 9.503650 26.999743 38.279446
v 11.740275 33.353966 34.218136
v 13.620059 38.694405 29.588366
v 15.089288 42.868462 24.780838
v 9.722564 6.520461 44.040218
v 17.969284 6.831966 42.444363
v 12.591822 13.663933 42.444389
v 26.405424 7.005454 39.728416
v 21.165318 14.194599 40.249313
v 15.377417 21.016363 39.728481
v 34.385296 7.005468 35.934719
v 29.643625 14.385742 36.896042
v 23.982119 21.578613 36.896080
v 17.843290 28.021877 35.934830
v 41.316078 6.832005 31.345110
v 37.334324 14.194660 32.562450
v 32.175480 21.578661 33.000900
v 26.161739 28.389320 32.562523
v 19.806257 34.160027 31.345253
v 46.859764 6.520519 26.384884
v 43.720917 13.664041 27.645390
v 39.317078 21.016497 28.347393
v 33.803078 28.021996 28.347427
v 27.588545 34.160099 27.645483
v 21.198391 39.123108 26.385040
v -3.713734 10.550292 44.040226
v -1.486366 17.886274 42.444397
v -10.187087 15.276662 42.444397
v 0.941743 25.345924 39.728493
v -8.084539 22.967251 40.249344
v -16.901581 19.994158 39.728489
v 3.407600 32.351437 35.934841
v -5.661582 30.469383 36.896111
v -14.821919 27.721914 36.896107
v -23.357435 24.323776 35.934837
v 5.728025 38.382374 31.345261
v -3.088188 37.161987 32.562557
v -12.290119 34.914841 33.000957
v -21.165512 31.740036 32.562550
v -29.075043 27.943857 31.345253
v 7.762029 43.152950 26.385052
v -0.567945 42.604813 27.645512
v -9.504076 41.010731 28.347479
v -18.425785 38.334831 28.347473
v -26.670284 34.775909 27.645502
v -33.758369 30.699697 26.385042
v -12.017746 0.000000 44.040218
v -18.887800 4.222347 42.444378
v -18.887800 -4.222348 42.444378
v -25.823229 8.659133 39.728462
v -26.161776 -0.000001 40.249310
v -25.823229 -8.659133 39.728462
v -32.279091 12.988721 35.934803
v -33.142551 4.445389 36.896057
v -33.142551 -4.445390 36.896057
v -32.279091 -12.988721 35.934803
v -37.775780 16.889469 31.345222
v -39.242775 8.772679 32.562492
v -39.771111 -0.000001 33.000889
v -39.242775 -8.772682 32.562492
v -37.775772 -16.889469 31.345217
v -42.062405 20.149296 26.385014
v -44.071762 12.667107 27.645445
v -45.190800 4.329580 28.347401
v -45.190800 -4.329580 28.347401
v -44.071762 -12.667108 27.645445
v -42.062405 -20.149296 26.385014
v -3.713735 -10.550292 44.040226
v -10.187087 -15.276663 42.444397
v -1.486366 -17.886278 42.444397
v -16.901581 -19.994158 39.728489
v -8.084538 -22.967253 40.249348
v 0.941743 -25.345922 39.728493
v -23.357435 -24.323776 35.934837
v -14.821916 -27.721910 36.896107
v -5.661580 -30.469378 36.896111
v 3.407602 -32.351433 35.934841
v -29.075043 -27.943857 31.345253
v -21.165512 -31.740036 32.562550
v -12.290119 -34.914841 33.000957
v -3.088188 -37.161983 32.562557
v 5.728025 -38.382374 31.345261
v -33.758369 -30.699697 26.385042
v -26.670282 -34.775909 27.645504
v -18.425783 -38.334831 28.347481
v -9.504074 -41.010731 28.347481
v -0.567943 -42.604813 27.645512
v 7.762030 -43.152950 26.385054
v 9.722563 -6.520461 44.040218
v 12.591822 -13.663933 42.444389
v 17.969284 -6.831966 42.444363
v 15.377417 -21.016363 39.728481
v 21.165319 -14.194599 40.249313
v 26.405424 -7.005454 39.728416
v 17.843290 -28.021877 35.934830
v 23.982121 -21.578613 36.896080
v 29.643625 -14.385740 36.896042
v 34.385296 -7.005467 35.934719
v 19.806257 -34.160027 31.345253
v 26.161739 -28.389320 32.562523
v 32.175480 -21.578663 33.000900
v 37.334324 -14.194660 32.562450
v 41.316078 -6.832006 31.345110
v 21.198391 -39.123108 26.385038
v 27.588545 -34.160103 27.645483
v 33.803078 -28.021999 28.347427
v 39.317081 -21.016502 28.347395
v 43.720913 -13.664041 27.645386
v 46.859768 -6.520520 26.384884
v 52.868771 10.550328 17.140375
v 53.908207 15.276731 11.972827
v 50.017029 17.886354 17.959240
v 53.753094 19.994265 6.138434
v 50.415550 22.967381 12.437828
v 45.773117 25.346046 18.415298
v 52.229115 24.323902 -0.000001
v 49.529594 27.722088 6.302656
v 45.432861 30.469570 12.605315
v 40.259132 32.351593 18.415333
v 49.449478 27.943989 -5.986447
v 47.327625 31.740232 0.000000
v 43.868114 34.915077 6.302674
v 39.243000 37.162212 12.437883
v 33.884720 38.382545 17.959343
v 45.776337 30.699806 -11.427007
v 44.072052 34.776108 -5.986459
v 41.201164 38.335087 0.000002
v 37.211163 41.011002 6.138478
v 32.398460 42.605042 11.972925
v 27.207455 43.153103 17.140516
v 5.466887 49.673607 17.140499
v 0.918438 52.046680 11.972897
v -2.972754 49.436989 17.959333
v -3.989992 53.368290 6.138453
v -8.084612 51.356976 12.437867
v -11.969979 48.016399 18.415356
v -8.921751 53.368317 -0.000015
v -13.257154 52.048489 6.302656
v -17.353884 49.300964 12.605330
v -20.891727 45.340500 18.415359
v -13.510451 52.046738 -5.986475
v -18.077461 51.357059 -0.000022
v -22.417595 49.301025 6.302660
v -26.162081 45.935032 12.437877
v -29.075195 41.608082 17.959337
v -17.484787 49.673691 -11.427032
v -22.211300 49.437141 -5.986481
v -26.765314 48.016575 -0.000017
v -30.755318 45.340652 6.138461
v -33.884884 41.608170 11.972912
v -36.053654 37.220345 17.140507
v -49.489952 20.149330 17.140450
v -53.340515 16.889524 11.972850
v -51.854145 12.667135 17.959265
v -56.218964 12.988775 6.138428
v -55.411976 8.772713 12.437815
v -53.170795 4.329592 18.415283
v -57.742977 8.659169 0.000005
v -57.722836 4.445404 6.302643
v -56.158001 -0.000004 12.605283
v -53.170788 -4.329591 18.415289
v -57.799332 4.222354 -5.986393
v -58.499996 -0.000019 0.000029
v -57.722820 -4.445430 6.302668
v -55.411953 -8.772726 12.437847
v -51.854130 -12.667138 17.959290
v -56.582508 -0.000022 -11.426885
v -57.799328 -4.222404 -5.986357
v -57.742970 -8.659220 0.000066
v -56.218948 -12.988818 6.138497
v -53.340485 -16.889549 11.972908
v -49.489925 -20.149342 17.140482
v -36.053673 -37.220341 17.140499
v -33.884907 -41.608154 11.972902
v -29.075222 -41.608074 17.959328
v -30.755348 -45.340633 6.138449
v -26.162125 -45.935020 12.437858
v -20.891762 -45.340492 18.415346
v -26.765350 -48.016560 -0.000028
v -22.417648 -49.301006 6.302640
v -17.353937 -49.300949 12.605309
v -11.970016 -48.016396 18.415346
v -22.211327 -49.437130 -5.986488
v -18.077505 -51.357048 -0.000035
v -13.257202 -52.048473 6.302640
v -8.084657 -51.356972 12.437855
v -2.972781 -49.436985 17.959328
v -17.484802 -49.673687 -11.427032
v -13.510474 -52.046730 -5.986479
v -8.921782 -53.368313 -0.000022
v -3.990023 -53.368294 6.138446
v 0.918414 -52.046680 11.972893
v 5.466875 -49.673611 17.140499
v 27.207451 -43.153107 17.140503
v 32.398453 -42.605064 11.972895
v 33.884716 -38.382572 17.959312
v 37.211143 -41.011021 6.138434
v 39.242985 -37.162251 12.437825
v 40.259129 -32.351635 18.415298
v 41.201138 -38.335106 -0.000049
v 43.868088 -34.915131 6.302597
v 45.432842 -30.469627 12.605243
v 45.773109 -25.346092 18.415257
v 44.072018 -34.776127 -5.986509
v 47.327587 -31.740288 -0.000086
v 49.529564 -27.722162 6.302562
v 50.415539 -22.967457 12.437751
v 50.017036 -17.886398 17.959198
v 45.776302 -30.699825 -11.427052
v 49.449429 -27.944033 -5.986527
v 52.229073 -24.323973 -0.000102
v 53.753082 -19.994347 6.138335
v 53.908218 -15.276800 11.972754
v 52.868782 -10.550368 17.140337
v 17.484804 49.673691 11.427026
v 22.211329 49.437130 5.986467
v 13.510479 52.046738 5.986463
v 26.765348 48.016563 0.000000
v 18.077507 51.357048 0.000000
v 8.921782 53.368313 0.000000
v 30.755348 45.340633 -6.138479
v 22.417637 49.301006 -6.302685
v 13.257196 52.048473 -6.302681
v 3.990020 53.368290 -6.138469
v 33.884903 41.608150 -11.972925
v 26.162111 45.935009 -12.437898
v 17.353922 49.300941 -12.605352
v 8.084646 51.356968 -12.437891
v -0.918419 52.046677 -11.972913
v 36.053665 37.220337 -17.140512
v 29.075212 41.608070 -17.959351
v 20.891743 45.340488 -18.415375
v 11.969998 48.016388 -18.415373
v 2.972769 49.436981 -17.959347
v -5.466880 49.673599 -17.140505
v -45.776325 30.699823 11.427009
v -44.072021 34.776127 5.986460
v -49.449451 27.944021 5.986446
v -41.201122 38.335121 0.000000
v -47.327579 31.740297 0.000000
v -52.229084 24.323956 0.000000
v -37.211105 41.011044 -6.138474
v -43.868042 34.915157 -6.302673
v -49.529530 27.722178 -6.302661
v -53.753063 19.994328 -6.138438
v -32.398399 42.605083 -11.972919
v -39.242912 37.162296 -12.437880
v -45.432766 30.469683 -12.605316
v -50.415482 22.967491 -12.437835
v -53.908188 15.276798 -11.972836
v -27.207399 43.153133 -17.140509
v -33.884621 38.382622 -17.959330
v -40.259029 32.351711 -18.415331
v -45.773022 25.346176 -18.415302
v -50.016979 17.886463 -17.959251
v -52.868752 10.550390 -17.140385
v -45.776329 -30.699816 11.427009
v -49.449459 -27.944017 5.986446
v -44.072025 -34.776127 5.986460
v -52.229080 -24.323950 0.000000
v -47.327579 -31.740294 0.000000
v -41.201122 -38.335121 0.000000
v -53.753067 -19.994328 -6.138438
v -49.529530 -27.722178 -6.302660
v -43.868042 -34.915154 -6.302672
v -37.211109 -41.011040 -6.138474
v -53.908192 -15.276796 -11.972836
v -50.415485 -22.967489 -12.437835
v -45.432774 -30.469681 -12.605316
v -39.242912 -37.162296 -12.437878
v -32.398403 -42.605080 -11.972919
v -52.868748 -10.550390 -17.140385
v -50.016975 -17.886463 -17.959251
v -45.773022 -25.346174 -18.415304
v -40.259029 -32.351711 -18.415333
v -33.884621 -38.382622 -17.959332
v -27.207399 -43.153130 -17.140509
v 17.484804 -49.673691 11.427026
v 13.510475 -52.046738 5.986462
v 22.211325 -49.437130 5.986466
v 8.921782 -53.368313 0.000000
v 18.077505 -51.357048 0.000000
v 26.765348 -48.016563 0.000000
v 3.990022 -53.368294 -6.138469
v 13.257198 -52.048473 -6.302681
v 22.417635 -49.301003 -6.302683
v 30.755344 -45.340633 -6.138478
v -0.918418 -52.046677 -11.972909
v 8.084646 -51.356964 -12.437887
v 17.353922 -49.300945 -12.605351
v 26.162107 -45.935009 -12.437894
v 33.884899 -41.608154 -11.972922
v -5.466879 -49.673607 -17.140505
v 2.972769 -49.436981 -17.959345
v 11.969998 -48.016384 -18.415369
v 20.891743 -45.340485 -18.415371
v 29.075209 -41.608070 -17.959351
v 36.053661 -37.220341 -17.140512
v 56.582500 -0.000001 11.426914
v 57.799324 -4.222365 5.986409
v 57.799324 4.222365 5.986409
v 57.742973 -8.659172 0.000000
v 58.500000 -0.000001 0.000000
v 57.742973 8.659169 0.000000
v 56.218971 -12.988775 -6.138433
v 57.722832 -4.445409 -6.302636
v 57.722836 4.445407 -6.302636
v 56.218967 12.988770 -6.138432
v 53.340515 -16.889519 -11.972859
v 55.411968 -8.772709 -12.437820
v 56.157997 -0.000002 -12.605274
v 55.411976 8.772707 -12.437821
v 53.340515 16.889517 -11.972859
v 49.489952 -20.149326 -17.140457
v 51.854137 -12.667128 -17.959274
v 53.170792 -4.329588 -18.415285
v 53.170792 4.329588 -18.415285
v 51.854137 12.667128 -17.959274
v 49.489952 20.149326 -17.140457
v 33.758369 30.699701 -26.385038
v 29.075041 27.943876 -31.345242
v 26.670282 34.775925 -27.645493
v 23.357431 24.323807 -35.934822
v 21.165504 31.740078 -32.562523
v 18.425779 38.334858 -28.347454
v 16.901573 19.994209 -39.728474
v 14.821902 27.721985 -36.896072
v 12.290102 34.914902 -33.000912
v 9.504065 41.010761 -28.347446
v 10.187074 15.276723 -42.444386
v 8.084514 22.967350 -40.249313
v 5.661550 30.469481 -36.896053
v 3.088163 37.162064 -32.562496
v 0.567932 42.604851 -27.645475
v 3.713715 10.550355 -44.040218
v 1.486331 17.886385 -42.444363
v -0.941786 25.346050 -39.728432
v -3.407642 32.351551 -35.934765
v -5.728054 38.382454 -31.345190
v -7.762043 43.152988 -26.385008
v -21.198446 39.123081 -26.385046
v -19.806307 34.160000 -31.345249
v -27.588634 34.160034 -27.645489
v -17.843338 28.021858 -35.934830
v -26.161821 28.389267 -32.562519
v -33.803177 28.021902 -28.347422
v -15.377453 21.016352 -39.728481
v -23.982189 21.578573 -36.896069
v -32.175560 21.578587 -33.000881
v -39.317165 21.016394 -28.347376
v -12.591846 13.663924 -42.444386
v -21.165369 14.194578 -40.249302
v -29.643688 14.385698 -36.896019
v -37.334393 14.194592 -32.562424
v -43.720970 13.663952 -27.645363
v -9.722580 6.520459 -44.040215
v -17.969316 6.831958 -42.444355
v -26.405470 7.005438 -39.728405
v -34.385345 7.005440 -35.934704
v -41.316116 6.831964 -31.345083
v -46.859791 6.520470 -26.384863
v -46.859787 -6.520479 -26.384869
v -41.316109 -6.831987 -31.345089
v -43.720959 -13.663973 -27.645363
v -34.385334 -7.005476 -35.934704
v -37.334377 -14.194638 -32.562416
v -39.317162 -21.016424 -28.347366
v -26.405462 -7.005486 -39.728401
v -29.643688 -14.385773 -36.896008
v -32.175556 -21.578655 -33.000854
v -33.803169 -28.021940 -28.347399
v -17.969315 -6.832015 -42.444347
v -21.165377 -14.194672 -40.249275
v -23.982189 -21.578671 -36.896023
v -26.161816 -28.389343 -32.562469
v -27.588631 -34.160072 -27.645456
v -9.722590 -6.520520 -44.040207
v -12.591871 -13.664034 -42.444359
v -15.377478 -21.016479 -39.728428
v -17.843355 -28.021973 -35.934761
v -19.806314 -34.160080 -31.345184
v -21.198446 -39.123127 -26.385006
v 42.062397 20.149296 -26.385012
v 44.071766 12.667104 -27.645445
v 37.775780 16.889463 -31.345215
v 45.190811 4.329570 -28.347393
v 39.242790 8.772667 -32.562477
v 32.279106 12.988712 -35.934795
v 45.190815 -4.329597 -28.347382
v 39.771145 -0.000026 -33.000866
v 33.142590 4.445364 -36.896034
v 25.823256 8.659117 -39.728451
v 44.071781 -12.667128 -27.645418
v 39.242828 -8.772718 -32.562450
v 33.142620 -4.445435 -36.896015
v 26.161842 -0.000040 -40.249283
v 18.887842 4.222325 -42.444370
v 42.062428 -20.149319 -26.384974
v 37.775833 -16.889513 -31.345158
v 32.279182 -12.988785 -35.934738
v 25.823332 -8.659201 -39.728413
v 18.887886 -4.222402 -42.444347
v 12.017795 -0.000030 -44.040211
v -7.762019 -43.152962 -26.385048
v -5.728002 -38.382389 -31.345249
v 0.567969 -42.604824 -27.645498
v -3.407569 -32.351456 -35.934826
v 3.088234 -37.162010 -32.562531
v 9.504108 -41.010742 -28.347460
v -0.941701 -25.345957 -39.728481
v 5.661648 -30.469425 -36.896080
v 12.290189 -34.914875 -33.000919
v 18.425827 -38.334850 -28.347446
v 1.486413 -17.886311 -42.444382
v 8.084622 -22.967312 -40.249313
v 14.822010 -27.721970 -36.896053
v 21.165590 -31.740074 -32.562492
v 26.670326 -34.775925 -27.645464
v 3.713786 -10.550331 -44.040218
v 10.187179 -15.276729 -42.444366
v 16.901693 -19.994234 -39.728432
v 23.357538 -24.323839 -35.934761
v 29.075117 -27.943901 -31.345184
v 33.758400 -30.699713 -26.385000
s 0
f 1 20 19
f 2 26 40
f 1 19 54
f 1 54 68
f 1 68 41
f 2 40 89
f 3 33 103
f 4 61 117
f 5 75 131
f 6 82 145
f 2 89 104
f 3 103 118
f 4 117 132
f 5 131 146
f 6 145 90
f 7 159 194
f 8 166 208
f 9 173 215
f 10 180 222
f 11 187 195
f 201 216 12
f 200 223 201
f 199 224 200
f 198 226 199
f 197 229 198
f 196 233 197
f 195 238 196
f 201 223 216
f 223 217 216
f 200 224 223
f 224 225 223
f 223 225 217
f 225 218 217
f 199 226 224
f 226 227 224
f 224 227 225
f 227 228 225
f 225 228 218
f 228 219 218
f 198 229 226
f 229 230 226
f 226 230 227
f 230 231 227
f 227 231 228
f 231 232 228
f 228 232 219
f 232 220 219
f 197 233 229
f 233 234 229
f 229 234 230
f 234 235 230
f 230 235 231
f 235 236 231
f 231 236 232
f 236 237 232
f 232 237 220
f 237 221 220
f 196 238 233
f 238 239 233
f 233 239 234
f 239 240 234
f 234 240 235
f 240 241 235
f 235 241 236
f 241 242 236
f 236 242 237
f 242 243 237
f 237 243 221
f 243 222 221
f 195 187 238
f 187 186 238
f 238 186 239
f 186 185 239
f 239 185 240
f 185 184 240
f 240 184 241
f 184 183 241
f 241 183 242
f 183 182 242
f 242 182 243
f 182 181 243
f 243 181 222
f 181 10 222
f 216 209 12
f 217 244 216
f 218 245 217
f 219 247 218
f 220 250 219
f 221 254 220
f 222 259 221
f 216 244 209
f 244 210 209
f 217 245 244
f 245 246 244
f 244 246 210
f 246 211 210
f 218 247 245
f 247 248 245
f 245 248 246
f 248 249 246
f 246 249 211
f 249 212 211
f 219 250 247
f 250 251 247
f 247 251 248
f 251 252 248
f 248 252 249
f 252 253 249
f 249 253 212
f 253 213 212
f 220 254 250
f 254 255 250
f 250 255 251
f 255 256 251
f 251 256 252
f 256 257 252
f 252 257 253
f 257 258 253
f 253 258 213
f 258 214 213
f 221 259 254
f 259 260 254
f 254 260 255
f 260 261 255
f 255 261 256
f 261 262 256
f 256 262 257
f 262 263 257
f 257 263 258
f 263 264 258
f 258 264 214
f 264 215 214
f 222 180 259
f 180 179 259
f 259 179 260
f 179 178 260
f 260 178 261
f 178 177 261
f 261 177 262
f 177 176 262
f 262 176 263
f 176 175 263
f 263 175 264
f 175 174 264
f 264 174 215
f 174 9 215
f 209 202 12
f 210 265 209
f 211 266 210
f 212 268 211
f 213 271 212
f 214 275 213
f 215 280 214
f 209 265 202
f 265 203 202
f 210 266 265
f 266 267 265
f 265 267 203
f 267 204 203
f 211 268 266
f 268 269 266
f 266 269 267
f 269 270 267
f 267 270 204
f 270 205 204
f 212 271 268
f 271 272 268
f 268 272 269
f 272 273 269
f 269 273 270
f 273 274 270
f 270 274 205
f 274 206 205
f 213 275 271
f 275 276 271
f 271 276 272
f 276 277 272
f 272 277 273
f 277 278 273
f 273 278 274
f 278 279 274
f 274 279 206
f 279 207 206
f 214 280 275
f 280 281 275
f 275 281 276
f 281 282 276
f 276 282 277
f 282 283 277
f 277 283 278
f 283 284 278
f 278 284 279
f 284 285 279
f 279 285 207
f 285 208 207
f 215 173 280
f 173 172 280
f 280 172 281
f 172 171 281
f 281 171 282
f 171 170 282
f 282 170 283
f 170 169 283
f 283 169 284
f 169 168 284
f 284 168 285
f 168 167 285
f 285 167 208
f 167 8 208
f 202 188 12
f 203 286 202
f 204 287 203
f 205 289 204
f 206 292 205
f 207 296 206
f 208 301 207
f 202 286 188
f 286 189 188
f 203 287 286
f 287 288 286
f 286 288 189
f 288 190 189
f 204 289 287
f 289 290 287
f 287 290 288
f 290 291 288
f 288 291 190
f 291 191 190
f 205 292 289
f 292 293 289
f 289 293 290
f 293 294 290
f 290 294 291
f 294 295 291
f 291 295 191
f 295 192 191
f 206 296 292
f 296 297 292
f 292 297 293
f 297 298 293
f 293 298 294
f 298 299 294
f 294 299 295
f 299 300 295
f 295 300 192
f 300 193 192
f 207 301 296
f 301 302 296
f 296 302 297
f 302 303 297
f 297 303 298
f 303 304 298
f 298 304 299
f 304 305 299
f 299 305 300
f 305 306 300
f 300 306 193
f 306 194 193
f 208 166 301
f 166 165 301
f 301 165 302
f 165 164 302
f 302 164 303
f 164 163 303
f 303 163 304
f 163 162 304
f 304 162 305
f 162 161 305
f 305 161 306
f 161 160 306
f 306 160 194
f 160 7 194
f 188 201 12
f 189 307 188
f 190 308 189
f 191 310 190
f 192 313 191
f 193 317 192
f 194 322 193
f 188 307 201
f 307 200 201
f 189 308 307
f 308 309 307
f 307 309 200
f 309 199 200
f 190 310 308
f 310 311 308
f 308 311 309
f 311 312 309
f 309 312 199
f 312 198 199
f 191 313 310
f 313 314 310
f 310 314 311
f 314 315 311
f 311 315 312
f 315 316 312
f 312 316 198
f 316 197 198
f 192 317 313
f 317 318 313
f 313 318 314
f 318 319 314
f 314 319 315
f 319 320 315
f 315 320 316
f 320 321 316
f 316 321 197
f 321 196 197
f 193 322 317
f 322 323 317
f 317 323 318
f 323 324 318
f 318 324 319
f 324 325 319
f 319 325 320
f 325 326 320
f 320 326 321
f 326 327 321
f 321 327 196
f 327 195 196
f 194 159 322
f 159 158 322
f 322 158 323
f 158 157 323
f 323 157 324
f 157 156 324
f 324 156 325
f 156 155 325
f 325 155 326
f 155 154 326
f 326 154 327
f 154 153 327
f 327 153 195
f 153 11 195
f 96 187 11
f 95 328 96
f 94 329 95
f 93 331 94
f 92 334 93
f 91 338 92
f 90 343 91
f 96 328 187
f 328 186 187
f 95 329 328
f 329 330 328
f 328 330 186
f 330 185 186
f 94 331 329
f 331 332 329
f 329 332 330
f 332 333 330
f 330 333 185
f 333 184 185
f 93 334 331
f 334 335 331
f 331 335 332
f 335 336 332
f 332 336 333
f 336 337 333
f 333 337 184
f 337 183 184
f 92 338 334
f 338 339 334
f 334 339 335
f 339 340 335
f 335 340 336
f 340 341 336
f 336 341 337
f 341 342 337
f 337 342 183
f 342 182 183
f 91 343 338
f 343 344 338
f 338 344 339
f 344 345 339
f 339 345 340
f 345 346 340
f 340 346 341
f 346 347 341
f 341 347 342
f 347 348 342
f 342 348 182
f 348 181 182
f 90 145 343
f 145 144 343
f 343 144 344
f 144 143 344
f 344 143 345
f 143 142 345
f 345 142 346
f 142 141 346
f 346 141 347
f 141 140 347
f 347 140 348
f 140 139 348
f 348 139 181
f 139 10 181
f 152 180 10
f 151 349 152
f 150 350 151
f 149 352 150
f 148 355 149
f 147 359 148
f 146 364 147
f 152 349 180
f 349 179 180
f 151 350 349
f 350 351 349
f 349 351 179
f 351 178 179
f 150 352 350
f 352 353 350
f 350 353 351
f 353 354 351
f 351 354 178
f 354 177 178
f 149 355 352
f 355 356 352
f 352 356 353
f 356 357 353
f 353 357 354
f 357 358 354
f 354 358 177
f 358 176 177
f 148 359 355
f 359 360 355
f 355 360 356
f 360 361 356
f 356 361 357
f 361 362 357
f 357 362 358
f 362 363 358
f 358 363 176
f 363 175 176
f 147 364 359
f 364 365 359
f 359 365 360
f 365 366 360
f 360 366 361
f 366 367 361
f 361 367 362
f 367 368 362
f 362 368 363
f 368 369 363
f 363 369 175
f 369 174 175
f 146 131 364
f 131 130 364
f 364 130 365
f 130 129 365
f 365 129 366
f 129 128 366
f 366 128 367
f 128 127 367
f 367 127 368
f 127 126 368
f 368 126 369
f 126 125 369
f 369 125 174
f 125 9 174
f 138 173 9
f 137 370 138
f 136 371 137
f 135 373 136
f 134 376 135
f 133 380 134
f 132 385 133
f 138 370 173
f 370 172 173
f 137 371 370
f 371 372 370
f 370 372 172
f 372 171 172
f 136 373 371
f 373 374 371
f 371 374 372
f 374 375 372
f 372 375 171
f 375 170 171
f 135 376 373
f 376 377 373
f 373 377 374
f 377 378 374
f 374 378 375
f 378 379 375
f 375 379 170
f 379 169 170
f 134 380 376
f 380 381 376
f 376 381 377
f 381 382 377
f 377 382 378
f 382 383 378
f 378 383 379
f 383 384 379
f 379 384 169
f 384 168 169
f 133 385 380
f 385 386 380
f 380 386 381
f 386 387 381
f 381 387 382
f 387 388 382
f 382 388 383
f 388 389 383
f 383 389 384
f 389 390 384
f 384 390 168
f 390 167 168
f 132 117 385
f 117 116 385
f 385 116 386
f 116 115 386
f 386 115 387
f 115 114 387
f 387 114 388
f 114 113 388
f 388 113 389
f 113 112 389
f 389 112 390
f 112 111 390
f 390 111 167
f 111 8 167
f 124 166 8
f 123 391 124
f 122 392 123
f 121 394 122
f 120 397 121
f 119 401 120
f 118 406 119
f 124 391 166
f 391 165 166
f 123 392 391
f 392 393 391
f 391 393 165
f 393 164 165
f 122 394 392
f 394 395 392
f 392 395 393
f 395 396 393
f 393 396 164
f 396 163 164
f 121 397 394
f 397 398 394
f 394 398 395
f 398 399 395
f 395 399 396
f 399 400 396
f 396 400 163
f 400 162 163
f 120 401 397
f 401 402 397
f 397 402 398
f 402 403 398
f 398 403 399
f 403 404 399
f 399 404 400
f 404 405 400
f 400 405 162
f 405 161 162
f 119 406 401
f 406 407 401
f 401 407 402
f 407 408 402
f 402 408 403
f 408 409 403
f 403 409 404
f 409 410 404
f 404 410 405
f 410 411 405
f 405 411 161
f 411 160 161
f 118 103 406
f 103 102 406
f 406 102 407
f 102 101 407
f 407 101 408
f 101 100 408
f 408 100 409
f 100 99 409
f 409 99 410
f 99 98 410
f 410 98 411
f 98 97 411
f 411 97 160
f 97 7 160
f 110 159 7
f 109 412 110
f 108 413 109
f 107 415 108
f 106 418 107
f 105 422 106
f 104 427 105
f 110 412 159
f 412 158 159
f 109 413 412
f 413 414 412
f 412 414 158
f 414 157 158
f 108 415 413
f 415 416 413
f 413 416 414
f 416 417 414
f 414 417 157
f 417 156 157
f 107 418 415
f 418 419 415
f 415 419 416
f 419 420 416
f 416 420 417
f 420 421 417
f 417 421 156
f 421 155 156
f 106 422 418
f 422 423 418
f 418 423 419
f 423 424 419
f 419 424 420
f 424 425 420
f 420 425 421
f 425 426 421
f 421 426 155
f 426 154 155
f 105 427 422
f 427 428 422
f 422 428 423
f 428 429 423
f 423 429 424
f 429 430 424
f 424 430 425
f 430 431 425
f 425 431 426
f 431 432 426
f 426 432 154
f 432 153 154
f 104 89 427
f 89 88 427
f 427 88 428
f 88 87 428
f 428 87 429
f 87 86 429
f 429 86 430
f 86 85 430
f 430 85 431
f 85 84 431
f 431 84 432
f 84 83 432
f 432 83 153
f 83 11 153
f 139 152 10
f 140 433 139
f 141 434 140
f 142 436 141
f 143 439 142
f 144 443 143
f 145 448 144
f 139 433 152
f 433 151 152
f 140 434 433
f 434 435 433
f 433 435 151
f 435 150 151
f 141 436 434
f 436 437 434
f 434 437 435
f 437 438 435
f 435 438 150
f 438 149 150
f 142 439 436
f 439 440 436
f 436 440 437
f 440 441 437
f 437 441 438
f 441 442 438
f 438 442 149
f 442 148 149
f 143 443 439
f 443 444 439
f 439 444 440
f 444 445 440
f 440 445 441
f 445 446 441
f 441 446 442
f 446 447 442
f 442 447 148
f 447 147 148
f 144 448 443
f 448 449 443
f 443 449 444
f 449 450 444
f 444 450 445
f 450 451 445
f 445 451 446
f 451 452 446
f 446 452 447
f 452 453 447
f 447 453 147
f 453 146 147
f 145 82 448
f 82 81 448
f 448 81 449
f 81 80 449
f 449 80 450
f 80 79 450
f 450 79 451
f 79 78 451
f 451 78 452
f 78 77 452
f 452 77 453
f 77 76 453
f 453 76 146
f 76 5 146
f 125 138 9
f 126 454 125
f 127 455 126
f 128 457 127
f 129 460 128
f 130 464 129
f 131 469 130
f 125 454 138
f 454 137 138
f 126 455 454
f 455 456 454
f 454 456 137
f 456 136 137
f 127 457 455
f 457 458 455
f 455 458 456
f 458 459 456
f 456 459 136
f 459 135 136
f 128 460 457
f 460 461 457
f 457 461 458
f 461 462 458
f 458 462 459
f 462 463 459
f 459 463 135
f 463 134 135
f 129 464 460
f 464 465 460
f 460 465 461
f 465 466 461
f 461 466 462
f 466 467 462
f 462 467 463
f 467 468 463
f 463 468 134
f 468 133 134
f 130 469 464
f 469 470 464
f 464 470 465
f 470 471 465
f 465 471 466
f 471 472 466
f 466 472 467
f 472 473 467
f 467 473 468
f 473 474 468
f 468 474 133
f 474 132 133
f 131 75 469
f 75 74 469
f 469 74 470
f 74 73 470
f 470 73 471
f 73 72 471
f 471 72 472
f 72 71 472
f 472 71 473
f 71 70 473
f 473 70 474
f 70 69 474
f 474 69 132
f 69 4 132
f 111 124 8
f 112 475 111
f 113 476 112
f 114 478 113
f 115 481 114
f 116 485 115
f 117 490 116
f 111 475 124
f 475 123 124
f 112 476 475
f 476 477 475
f 475 477 123
f 477 122 123
f 113 478 476
f 478 479 476
f 476 479 477
f 479 480 477
f 477 480 122
f 480 121 122
f 114 481 478
f 481 482 478
f 478 482 479
f 482 483 479
f 479 483 480
f 483 484 480
f 480 484 121
f 484 120 121
f 115 485 481
f 485 486 481
f 481 486 482
f 486 487 482
f 482 487 483
f 487 488 483
f 483 488 484
f 488 489 484
f 484 489 120
f 489 119 120
f 116 490 485
f 490 491 485
f 485 491 486
f 491 492 486
f 486 492 487
f 492 493 487
f 487 493 488
f 493 494 488
f 488 494 489
f 494 495 489
f 489 495 119
f 495 118 119
f 117 61 490
f 61 60 490
f 490 60 491
f 60 59 491
f 491 59 492
f 59 58 492
f 492 58 493
f 58 57 493
f 493 57 494
f 57 56 494
f 494 56 495
f 56 55 495
f 495 55 118
f 55 3 118
f 97 110 7
f 98 496 97
f 99 497 98
f 100 499 99
f 101 502 100
f 102 506 101
f 103 511 102
f 97 496 110
f 496 109 110
f 98 497 496
f 497 498 496
f 496 498 109
f 498 108 109
f 99 499 497
f 499 500 497
f 497 500 498
f 500 501 498
f 498 501 108
f 501 107 108
f 100 502 499
f 502 503 499
f 499 503 500
f 503 504 500
f 500 504 501
f 504 505 501
f 501 505 107
f 505 106 107
f 101 506 502
f 506 507 502
f 502 507 503
f 507 508 503
f 503 508 504
f 508 509 504
f 504 509 505
f 509 510 505
f 505 510 106
f 510 105 106
f 102 511 506
f 511 512 506
f 506 512 507
f 512 513 507
f 507 513 508
f 513 514 508
f 508 514 509
f 514 515 509
f 509 515 510
f 515 516 510
f 510 516 105
f 516 104 105
f 103 33 511
f 33 32 511
f 511 32 512
f 32 31 512
f 512 31 513
f 31 30 513
f 513 30 514
f 30 29 514
f 514 29 515
f 29 28 515
f 515 28 516
f 28 27 516
f 516 27 104
f 27 2 104
f 83 96 11
f 84 517 83
f 85 518 84
f 86 520 85
f 87 523 86
f 88 527 87
f 89 532 88
f 83 517 96
f 517 95 96
f 84 518 517
f 518 519 517
f 517 519 95
f 519 94 95
f 85 520 518
f 520 521 518
f 518 521 519
f 521 522 519
f 519 522 94
f 522 93 94
f 86 523 520
f 523 524 520
f 520 524 521
f 524 525 521
f 521 525 522
f 525 526 522
f 522 526 93
f 526 92 93
f 87 527 523
f 527 528 523
f 523 528 524
f 528 529 524
f 524 529 525
f 529 530 525
f 525 530 526
f 530 531 526
f 526 531 92
f 531 91 92
f 88 532 527
f 532 533 527
f 527 533 528
f 533 534 528
f 528 534 529
f 534 535 529
f 529 535 530
f 535 536 530
f 530 536 531
f 536 537 531
f 531 537 91
f 537 90 91
f 89 40 532
f 40 39 532
f 532 39 533
f 39 38 533
f 533 38 534
f 38 37 534
f 534 37 535
f 37 36 535
f 535 36 536
f 36 35 536
f 536 35 537
f 35 34 537
f 537 34 90
f 34 6 90
f 47 82 6
f 46 538 47
f 45 539 46
f 44 541 45
f 43 544 44
f 42 548 43
f 41 553 42
f 47 538 82
f 538 81 82
f 46 539 538
f 539 540 538
f 538 540 81
f 540 80 81
f 45 541 539
f 541 542 539
f 539 542 540
f 542 543 540
f 540 543 80
f 543 79 80
f 44 544 541
f 544 545 541
f 541 545 542
f 545 546 542
f 542 546 543
f 546 547 543
f 543 547 79
f 547 78 79
f 43 548 544
f 548 549 544
f 544 549 545
f 549 550 545
f 545 550 546
f 550 551 546
f 546 551 547
f 551 552 547
f 547 552 78
f 552 77 78
f 42 553 548
f 553 554 548
f 548 554 549
f 554 555 549
f 549 555 550
f 555 556 550
f 550 556 551
f 556 557 551
f 551 557 552
f 557 558 552
f 552 558 77
f 558 76 77
f 41 68 553
f 68 67 553
f 553 67 554
f 67 66 554
f 554 66 555
f 66 65 555
f 555 65 556
f 65 64 556
f 556 64 557
f 64 63 557
f 557 63 558
f 63 62 558
f 558 62 76
f 62 5 76
f 62 75 5
f 63 559 62
f 64 560 63
f 65 562 64
f 66 565 65
f 67 569 66
f 68 574 67
f 62 559 75
f 559 74 75
f 63 560 559
f 560 561 559
f 559 561 74
f 561 73 74
f 64 562 560
f 562 563 560
f 560 563 561
f 563 564 561
f 561 564 73
f 564 72 73
f 65 565 562
f 565 566 562
f 562 566 563
f 566 567 563
f 563 567 564
f 567 568 564
f 564 568 72
f 568 71 72
f 66 569 565
f 569 570 565
f 565 570 566
f 570 571 566
f 566 571 567
f 571 572 567
f 567 572 568
f 572 573 568
f 568 573 71
f 573 70 71
f 67 574 569
f 574 575 569
f 569 575 570
f 575 576 570
f 570 576 571
f 576 577 571
f 571 577 572
f 577 578 572
f 572 578 573
f 578 579 573
f 573 579 70
f 579 69 70
f 68 54 574
f 54 53 574
f 574 53 575
f 53 52 575
f 575 52 576
f 52 51 576
f 576 51 577
f 51 50 577
f 577 50 578
f 50 49 578
f 578 49 579
f 49 48 579
f 579 48 69
f 48 4 69
f 48 61 4
f 49 580 48
f 50 581 49
f 51 583 50
f 52 586 51
f 53 590 52
f 54 595 53
f 48 580 61
f 580 60 61
f 49 581 580
f 581 582 580
f 580 582 60
f 582 59 60
f 50 583 581
f 583 584 581
f 581 584 582
f 584 585 582
f 582 585 59
f 585 58 59
f 51 586 583
f 586 587 583
f 583 587 584
f 587 588 584
f 584 588 585
f 588 589 585
f 585 589 58
f 589 57 58
f 52 590 586
f 590 591 586
f 586 591 587
f 591 592 587
f 587 592 588
f 592 593 588
f 588 593 589
f 593 594 589
f 589 594 57
f 594 56 57
f 53 595 590
f 595 596 590
f 590 596 591
f 596 597 591
f 591 597 592
f 597 598 592
f 592 598 593
f 598 599 593
f 593 599 594
f 599 600 594
f 594 600 56
f 600 55 56
f 54 19 595
f 19 18 595
f 595 18 596
f 18 17 596
f 596 17 597
f 17 16 597
f 597 16 598
f 16 15 598
f 598 15 599
f 15 14 599
f 599 14 600
f 14 13 600
f 600 13 55
f 13 3 55
f 34 47 6
f 35 601 34
f 36 602 35
f 37 604 36
f 38 607 37
f 39 611 38
f 40 616 39
f 34 601 47
f 601 46 47
f 35 602 601
f 602 603 601
f 601 603 46
f 603 45 46
f 36 604 602
f 604 605 602
f 602 605 603
f 605 606 603
f 603 606 45
f 606 44 45
f 37 607 604
f 607 608 604
f 604 608 605
f 608 609 605
f 605 609 606
f 609 610 606
f 606 610 44
f 610 43 44
f 38 611 607
f 611 612 607
f 607 612 608
f 612 613 608
f 608 613 609
f 613 614 609
f 609 614 610
f 614 615 610
f 610 615 43
f 615 42 43
f 39 616 611
f 616 617 611
f 611 617 612
f 617 618 612
f 612 618 613
f 618 619 613
f 613 619 614
f 619 620 614
f 614 620 615
f 620 621 615
f 615 621 42
f 621 41 42
f 40 26 616
f 26 25 616
f 616 25 617
f 25 24 617
f 617 24 618
f 24 23 618
f 618 23 619
f 23 22 619
f 619 22 620
f 22 21 620
f 620 21 621
f 21 20 621
f 621 20 41
f 20 1 41
f 13 33 3
f 14 622 13
f 15 623 14
f 16 625 15
f 17 628 16
f 18 632 17
f 19 637 18
f 13 622 33
f 622 32 33
f 14 623 622
f 623 624 622
f 622 624 32
f 624 31 32
f 15 625 623
f 625 626 623
f 623 626 624
f 626 627 624
f 624 627 31
f 627 30 31
f 16 628 625
f 628 629 625
f 625 629 626
f 629 630 626
f 626 630 627
f 630 631 627
f 627 631 30
f 631 29 30
f 17 632 628
f 632 633 628
f 628 633 629
f 633 634 629
f 629 634 630
f 634 635 630
f 630 635 631
f 635 636 631
f 631 636 29
f 636 28 29
f 18 637 632
f 637 638 632
f 632 638 633
f 638 639 633
f 633 639 634
f 639 640 634
f 634 640 635
f 640 641 635
f 635 641 636
f 641 642 636
f 636 642 28
f 642 27 28
f 19 20 637
f 20 21 637
f 637 21 638
f 21 22 638
f 638 22 639
f 22 23 639
f 639 23 640
f 23 24 640
f 640 24 641
f 24 25 641
f 641 25 642
f 25 26 642
f 642 26 27
f 26 2 27
