o Patroclus
v 0.000000 0.000000 -49.000000
v 45.949062 -30.754930 -21.913757
v -17.550640 -49.762981 -21.913773
v -56.796066 0.000000 -21.913565
v -17.550640 49.762981 -21.913773
v 45.949062 30.754930 -21.913757
v 17.550640 -49.762981 21.913773
v -45.949062 -30.754930 21.913757
v -45.949062 30.754930 21.913757
v 17.550640 49.762981 21.913773
v 56.796066 0.000000 21.913565
v 0.000000 0.000000 49.000000
v -16.378967 -46.440834 -26.983580
v -14.784165 -41.918941 -32.218441
v -12.743716 -36.133469 -37.259747
v -10.315928 -29.249723 -41.682064
v -7.646203 -21.680002 -45.126785
v -4.928022 -13.972885 -47.429539
v -2.339831 -6.634344 -48.650391
v 6.125881 -4.100215 -48.650383
v 12.901989 -8.635644 -47.429527
v 20.018423 -13.398863 -45.126781
v 27.007986 -18.077166 -41.682056
v 33.364147 -22.331514 -37.259735
v 38.706211 -25.907097 -32.218426
v 42.881542 -28.701757 -26.983564
v 40.541733 -35.336197 -23.372383
v 33.778244 -39.880177 -24.612783
v 25.718035 -44.011784 -25.459049
v 16.692167 -47.327183 -25.761145
v 7.274808 -49.532593 -25.459053
v -1.882095 -50.554775 -24.612795
v -10.253044 -50.541149 -23.372398
v 49.007473 24.601507 -23.372356
v 51.608307 17.271406 -24.612730
v 53.382713 8.932618 -25.458971
v 54.016140 -0.000001 -25.761061
v 53.382713 -8.932619 -25.458971
v 51.608307 -17.271406 -24.612730
v 49.007473 -24.601507 -23.372356
v 6.125881 4.100215 -48.650383
v 12.901989 8.635644 -47.429527
v 20.018423 13.398863 -45.126781
v 27.007986 18.077166 -41.682056
v 33.364147 22.331514 -37.259735
v 38.706211 25.907097 -32.218426
v 42.881542 28.701757 -26.983564
v -53.004459 0.000000 -26.983356
v -47.843548 0.000000 -32.218224
v -41.240456 0.000000 -37.259560
v -33.383846 0.000000 -41.681931
v -24.744263 0.000000 -45.126701
v -15.947837 0.000000 -47.429504
v -7.572058 0.000000 -48.650379
v -23.951122 -46.440884 -23.372393
v -30.732187 -41.919025 -24.612783
v -37.488228 -36.133572 -25.459017
v -43.700027 -29.249817 -25.761072
v -48.886875 -21.680073 -25.458935
v -52.771717 -13.972923 -24.612635
v -55.344364 -6.634358 -23.372204
v -16.378967 46.440834 -26.983580
v -14.784165 41.918941 -32.218441
v -12.743716 36.133469 -37.259747
v -10.315928 29.249723 -41.682064
v -7.646203 21.680002 -45.126785
v -4.928022 13.972885 -47.429539
v -2.339831 6.634344 -48.650391
v -55.344364 6.634359 -23.372208
v -52.771713 13.972925 -24.612635
v -48.886871 21.680075 -25.458935
v -43.700024 29.249823 -25.761074
v -37.488224 36.133572 -25.459017
v -30.732183 41.919025 -24.612783
v -23.951120 46.440884 -23.372393
v -10.253044 50.541149 -23.372398
v -1.882093 50.554771 -24.612795
v 7.274812 49.532597 -25.459055
v 16.692171 47.327179 -25.761145
v 25.718037 44.011784 -25.459049
v 33.778244 39.880177 -24.612783
v 40.541737 35.336197 -23.372385
v 59.130432 -4.100225 17.529158
v 60.745735 -8.635674 12.306323
v 61.259171 -13.398916 6.364737
v 60.392174 -18.077238 0.000000
v 58.108742 -22.331594 -6.364757
v 54.654301 -25.907167 -12.306392
v 50.453732 -28.701796 -17.529291
v 50.453732 28.701794 -17.529291
v 54.654301 25.907164 -12.306392
v 58.108749 22.331593 -6.364757
v 60.392174 18.077236 0.000000
v 61.259171 13.398915 6.364738
v 60.745735 8.635673 12.306324
v 59.130432 4.100224 17.529158
v 14.039148 -53.075359 17.529316
v 9.856159 -55.892189 12.306425
v 5.097526 -57.813976 6.364783
v -0.000001 -58.499996 0.000000
v -5.097526 -57.813969 -6.364783
v -9.856159 -55.892189 -12.306425
v -14.039148 -53.075359 -17.529316
v 45.221542 -35.336277 -17.529327
v 43.634567 -39.880352 -12.306444
v 41.010796 -44.012039 -6.364798
v 37.324383 -47.327480 0.000000
v 32.762543 -49.532879 6.364799
v 27.686432 -50.554993 12.306450
v 22.504984 -50.541256 17.529337
v -50.453732 -28.701794 17.529291
v -54.654301 -25.907164 12.306392
v -58.108749 -22.331593 6.364757
v -60.392174 -18.077236 0.000000
v -61.259171 -13.398915 -6.364738
v -60.745735 -8.635673 -12.306324
v -59.130432 -4.100224 -17.529158
v -22.504984 -50.541256 -17.529337
v -27.686434 -50.554989 -12.306450
v -32.762550 -49.532879 -6.364800
v -37.324387 -47.327477 0.000000
v -41.010796 -44.012032 6.364798
v -43.634571 -39.880344 12.306445
v -45.221546 -35.336277 17.529327
v -45.221542 35.336277 17.529327
v -43.634567 39.880352 12.306444
v -41.010796 44.012039 6.364798
v -37.324383 47.327480 0.000000
v -32.762543 49.532879 -6.364799
v -27.686432 50.554993 -12.306450
v -22.504984 50.541256 -17.529337
v -59.130432 4.100225 -17.529158
v -60.745735 8.635674 -12.306323
v -61.259171 13.398916 -6.364737
v -60.392174 18.077238 0.000000
v -58.108742 22.331594 6.364757
v -54.654301 25.907167 12.306392
v -50.453732 28.701796 17.529291
v 22.504984 50.541256 17.529337
v 27.686434 50.554989 12.306450
v 32.762550 49.532879 6.364800
v 37.324387 47.327477 0.000000
v 41.010796 44.012032 -6.364798
v 43.634571 39.880344 -12.306445
v 45.221546 35.336277 -17.529327
v -14.039148 53.075359 -17.529316
v -9.856159 55.892189 -12.306425
v -5.097526 57.813976 -6.364783
v 0.000001 58.499996 0.000000
v 5.097526 57.813969 6.364783
v 9.856159 55.892189 12.306425
v 14.039148 53.075359 17.529316
v 55.344364 -6.634359 23.372208
v 52.771713 -13.972925 24.612635
v 48.886871 -21.680075 25.458935
v 43.700024 -29.249823 25.761074
v 37.488224 -36.133572 25.459017
v 30.732183 -41.919025 24.612783
v 23.951120 -46.440884 23.372393
v 10.253044 -50.541149 23.372398
v 1.882093 -50.554771 24.612795
v -7.274812 -49.532597 25.459055
v -16.692171 -47.327179 25.761145
v -25.718037 -44.011784 25.459049
v -33.778244 -39.880177 24.612783
v -40.541737 -35.336197 23.372385
v -49.007473 -24.601507 23.372356
v -51.608307 -17.271406 24.612730
v -53.382713 -8.932618 25.458971
v -54.016140 0.000001 25.761061
v -53.382713 8.932619 25.458971
v -51.608307 17.271406 24.612730
v -49.007473 24.601507 23.372356
v -40.541733 35.336197 23.372383
v -33.778244 39.880177 24.612783
v -25.718035 44.011784 25.459049
v -16.692167 47.327183 25.761145
v -7.274808 49.532593 25.459053
v 1.882095 50.554775 24.612795
v 10.253044 50.541149 23.372398
v 23.951122 46.440884 23.372393
v 30.732187 41.919025 24.612783
v 37.488228 36.133572 25.459017
v 43.700027 29.249817 25.761072
v 48.886875 21.680073 25.458935
v 52.771717 13.972923 24.612635
v 55.344364 6.634358 23.372204
v 2.339831 -6.634345 48.650391
v 4.928022 -13.972885 47.429535
v 7.646203 -21.680002 45.126785
v 10.315928 -29.249722 41.682064
v 12.743717 -36.133465 37.259747
v 14.784166 -41.918938 32.218441
v 16.378969 -46.440834 26.983580
v 53.004459 0.000000 26.983356
v 47.843548 0.000000 32.218224
v 41.240456 0.000000 37.259560
v 33.383846 0.000000 41.681931
v 24.744263 0.000000 45.126701
v 15.947837 0.000000 47.429504
v 7.572058 0.000000 48.650379
v -6.125881 -4.100215 48.650383
v -12.901989 -8.635644 47.429527
v -20.018423 -13.398863 45.126781
v -27.007986 -18.077166 41.682056
v -33.364147 -22.331514 37.259735
v -38.706211 -25.907097 32.218426
v -42.881542 -28.701757 26.983564
v -6.125881 4.100215 48.650383
v -12.901989 8.635644 47.429527
v -20.018423 13.398863 45.126781
v -27.007986 18.077166 41.682056
v -33.364147 22.331514 37.259735
v -38.706211 25.907097 32.218426
v -42.881542 28.701757 26.983564
v 2.339831 6.634345 48.650391
v 4.928022 13.972885 47.429535
v 7.646203 21.680002 45.126785
v 10.315928 29.249722 41.682064
v 12.743717 36.133465 37.259747
v 14.784166 41.918938 32.218441
v 16.378969 46.440834 26.983580
v 10.553553 7.063832 47.954906
v 19.505121 7.401297 46.217194
v 13.668046 14.802593 46.217224
v 28.662298 7.589242 43.259830
v 22.974319 15.377482 43.827026
v 16.691725 22.767727 43.259903
v 37.324211 7.589257 39.128918
v 32.177269 15.584554 40.175694
v 26.031872 23.376829 40.175732
v 19.368359 30.357033 39.129040
v 44.847366 7.401339 34.131340
v 40.525291 15.377549 35.456894
v 34.925518 23.376883 35.934311
v 28.397785 30.755098 35.456970
v 21.499100 37.006695 34.131496
v 50.864872 7.063896 28.730207
v 47.457745 14.802711 30.102757
v 42.677509 22.767872 30.867161
v 36.692230 30.357162 30.867199
v 29.946541 37.006771 30.102859
v 23.010220 42.383369 28.730377
v -4.031147 11.429482 47.954910
v -1.613406 19.376797 46.217232
v -11.057778 16.549717 46.217232
v 1.022234 27.458084 43.259914
v -8.775526 24.881189 43.827065
v -18.346159 21.660337 43.259911
v 3.698848 35.047386 39.129051
v -6.145479 33.008499 40.175766
v -16.088751 30.032074 40.175762
v -25.353798 26.350758 39.129044
v 6.217600 41.580902 34.131504
v -3.352136 40.258816 35.457005
v -13.340557 37.824413 35.934376
v -22.974529 34.385040 35.457001
v -31.560089 30.272511 34.131496
v 8.425450 46.749031 28.730389
v -0.616488 46.155216 30.102892
v -10.316390 44.428295 30.867254
v -20.000637 41.529404 30.867249
v -28.949797 37.673901 30.102879
v -36.643700 33.258007 28.730381
v -13.044904 0.000000 47.954903
v -20.502142 4.574209 46.217213
v -20.502142 -4.574210 46.217213
v -28.030342 9.380728 43.259880
v -28.397825 -0.000001 43.827026
v -28.030342 -9.380728 43.259880
v -35.037987 14.071115 39.129009
v -35.975250 4.815838 40.175705
v -35.975250 -4.815839 40.175705
v -35.037987 -14.071115 39.129009
v -41.004478 18.296925 34.131466
v -42.596859 9.503736 35.456936
v -43.170349 -0.000001 35.934299
v -42.596859 -9.503739 35.456936
v -41.004471 -18.296925 34.131458
v -45.657482 21.828405 28.730349
v -47.838577 13.722699 30.102818
v -49.053261 4.690379 30.867170
v -49.053261 -4.690379 30.867170
v -47.838577 -13.722699 30.102818
v -45.657482 -21.828405 28.730349
v -4.031148 -11.429482 47.954910
v -11.057777 -16.549719 46.217232
v -1.613405 -19.376801 46.217232
v -18.346159 -21.660337 43.259911
v -8.775524 -24.881191 43.827065
v 1.022233 -27.458082 43.259914
v -25.353796 -26.350758 39.129044
v -16.088747 -30.032070 40.175762
v -6.145476 -33.008492 40.175766
v 3.698850 -35.047386 39.129051
v -31.560089 -30.272511 34.131496
v -22.974529 -34.385040 35.457001
v -13.340557 -37.824409 35.934376
v -3.352136 -40.258816 35.457005
v 6.217600 -41.580902 34.131504
v -36.643700 -33.258007 28.730381
v -28.949795 -37.673901 30.102882
v -20.000635 -41.529404 30.867258
v -10.316388 -44.428295 30.867258
v -0.616485 -46.155212 30.102892
v 8.425451 -46.749031 28.730392
v 10.553552 -7.063832 47.954906
v 13.668046 -14.802593 46.217224
v 19.505121 -7.401297 46.217194
v 16.691725 -22.767727 43.259903
v 22.974321 -15.377482 43.827026
v 28.662298 -7.589242 43.259830
v 19.368359 -30.357033 39.129040
v 26.031874 -23.376829 40.175728
v 32.177269 -15.584552 40.175690
v 37.324211 -7.589256 39.128918
v 21.499100 -37.006695 34.131496
v 28.397785 -30.755098 35.456970
v 34.925518 -23.376884 35.934311
v 40.525291 -15.377549 35.456894
v 44.847366 -7.401340 34.131340
v 23.010220 -42.383369 28.730373
v 29.946541 -37.006775 30.102859
v 36.692230 -30.357166 30.867199
v 42.677513 -22.767878 30.867165
v 47.457741 -14.802711 30.102755
v 50.864876 -7.063897 28.730207
v 57.387470 11.429523 18.663963
v 58.515747 16.549791 13.037079
v 54.291988 19.376884 19.555616
v 58.347378 21.660452 6.684072
v 54.724571 24.881330 13.543413
v 49.685349 27.458218 20.052214
v 56.693142 26.350895 -0.000002
v 53.762894 30.032263 6.862892
v 49.316013 33.008701 13.725787
v 43.700085 35.047558 20.052250
v 53.675930 30.272654 -6.518576
v 51.372723 34.385250 0.000000
v 47.617523 37.824669 6.862912
v 42.597103 40.259060 13.543473
v 36.780849 41.581093 19.555729
v 49.688843 33.258125 -12.442741
v 47.838894 37.674114 -6.518589
v 44.722633 41.529678 0.000003
v 40.391605 44.428585 6.684121
v 35.167561 46.155464 13.037185
v 29.532879 46.749195 18.664118
v 5.934143 53.813076 18.664101
v 0.996937 56.383904 13.037154
v -3.226835 53.556740 19.555719
v -4.331017 57.815651 6.684093
v -8.775604 55.636723 13.543455
v -12.993054 52.017765 20.052277
v -9.684295 57.815678 -0.000017
v -14.390244 56.385860 6.862892
v -18.837122 53.409378 13.725803
v -22.677345 49.118874 20.052280
v -14.665191 56.383968 -6.518606
v -19.622543 55.636814 -0.000024
v -24.333630 53.409447 6.862896
v -28.398155 49.762951 13.543466
v -31.560253 45.075420 19.555723
v -18.979214 53.813168 -12.442767
v -24.109701 53.556904 -6.518612
v -29.052948 52.017956 -0.000019
v -33.383976 49.119038 6.684102
v -36.781025 45.075516 13.037170
v -39.135162 40.322041 18.664106
v -53.719860 21.828442 18.664043
v -57.899532 18.296984 13.037104
v -56.286121 13.722730 19.555645
v -61.024006 14.071173 6.684066
v -60.148041 9.503772 13.543399
v -57.715305 4.690392 20.052197
v -62.678272 9.380767 0.000005
v -62.656410 4.815855 6.862878
v -60.957829 -0.000005 13.725752
v -57.715298 -4.690390 20.052204
v -62.739445 4.574217 -6.518517
v -63.499996 -0.000021 0.000031
v -62.656395 -4.815882 6.862906
v -60.148018 -9.503786 13.543433
v -56.286106 -13.722733 19.555672
v -61.418617 -0.000024 -12.442608
v -62.739441 -4.574271 -6.518478
v -62.678265 -9.380821 0.000071
v -61.023987 -14.071219 6.684141
v -57.899498 -18.297012 13.037166
v -53.719833 -21.828453 18.664080
v -39.135181 -40.322033 18.664101
v -36.781052 -45.075497 13.037160
v -31.560284 -45.075417 19.555714
v -33.384010 -49.119019 6.684088
v -28.398203 -49.762939 13.543446
v -22.677382 -49.118870 20.052267
v -29.052988 -52.017941 -0.000031
v -24.333685 -53.409420 6.862875
v -18.837179 -53.409363 13.725781
v -12.993094 -52.017761 20.052265
v -24.109730 -53.556892 -6.518620
v -19.622591 -55.636799 -0.000039
v -14.390296 -56.385845 6.862875
v -8.775653 -55.636719 13.543443
v -3.226865 -53.556736 19.555712
v -18.979229 -53.813160 -12.442769
v -14.665215 -56.383957 -6.518610
v -9.684327 -57.815674 -0.000024
v -4.331051 -57.815651 6.684086
v 0.996911 -56.383904 13.037150
v 5.934129 -53.813080 18.664099
v 29.532875 -46.749195 18.664103
v 35.167553 -46.155487 13.037151
v 36.780846 -41.581120 19.555696
v 40.391582 -44.428608 6.684072
v 42.597084 -40.259102 13.543410
v 43.700081 -35.047604 20.052214
v 44.722603 -41.529697 -0.000054
v 47.617496 -37.824722 6.862828
v 49.315994 -33.008762 13.725708
v 49.685341 -27.458267 20.052170
v 47.838860 -37.674137 -6.518644
v 51.372681 -34.385311 -0.000093
v 53.762863 -30.032343 6.862790
v 54.724560 -24.881413 13.543328
v 54.291996 -19.376932 19.555573
v 49.688808 -33.258144 -12.442789
v 53.675877 -30.272703 -6.518663
v 56.693096 -26.350969 -0.000112
v 58.347363 -21.660542 6.683964
v 58.515759 -16.549866 13.036998
v 57.387482 -11.429565 18.663921
v 18.979233 53.813168 12.442761
v 24.109734 53.556892 6.518598
v 14.665221 56.383965 6.518592
v 29.052986 52.017944 0.000000
v 19.622593 55.636799 0.000000
v 9.684328 57.815674 0.000000
v 33.384010 49.119022 -6.684121
v 24.333673 53.409420 -6.862924
v 14.390290 56.385845 -6.862920
v 4.331048 57.815651 -6.684110
v 36.781048 45.075497 -13.037185
v 28.398190 49.762924 -13.543489
v 18.837162 53.409351 -13.725828
v 8.775641 55.636715 -13.543482
v -0.996916 56.383900 -13.037172
v 39.135174 40.322033 -18.664114
v 31.560272 45.075413 -19.555738
v 22.677362 49.118862 -20.052298
v 12.993075 52.017754 -20.052294
v 3.226852 53.556732 -19.555735
v -5.934134 53.813065 -18.664106
v -49.688831 33.258141 12.442742
v -47.838863 37.674141 6.518589
v -53.675900 30.272690 6.518575
v -44.722588 41.529716 0.000000
v -51.372669 34.385323 0.000000
v -56.693108 26.350952 0.000000
v -40.391544 44.428631 -6.684115
v -47.617447 37.824753 -6.862910
v -53.762825 30.032360 -6.862897
v -58.347343 21.660522 -6.684077
v -35.167496 46.155510 -13.037179
v -42.597008 40.259155 -13.543468
v -49.315910 33.008823 -13.725789
v -54.724499 24.881449 -13.543421
v -58.515724 16.549866 -13.037088
v -29.532818 46.749229 -18.664108
v -36.780743 41.581177 -19.555716
v -43.699974 35.047688 -20.052250
v -49.685246 27.458359 -20.052219
v -54.291935 19.377001 -19.555628
v -57.387447 11.429590 -18.663975
v -49.688835 -33.258133 12.442742
v -53.675907 -30.272686 6.518575
v -47.838867 -37.674137 6.518589
v -56.693104 -26.350945 0.000000
v -51.372669 -34.385319 0.000000
v -44.722588 -41.529713 0.000000
v -58.347347 -21.660522 -6.684077
v -53.762825 -30.032360 -6.862896
v -47.617447 -37.824753 -6.862910
v -40.391548 -44.428623 -6.684115
v -58.515728 -16.549864 -13.037088
v -54.724503 -24.881447 -13.543421
v -49.315918 -33.008820 -13.725789
v -42.597008 -40.259151 -13.543468
v -35.167500 -46.155506 -13.037179
v -57.387444 -11.429590 -18.663975
v -54.291931 -19.377001 -19.555630
v -49.685246 -27.458357 -20.052219
v -43.699974 -35.047688 -20.052250
v -36.780743 -41.581177 -19.555716
v -29.532818 -46.749226 -18.664110
v 18.979233 -53.813168 12.442761
v 14.665217 -56.383965 6.518592
v 24.109728 -53.556892 6.518597
v 9.684326 -57.815674 0.000000
v 19.622591 -55.636799 0.000000
v 29.052984 -52.017944 0.000000
v 4.331049 -57.815651 -6.684110
v 14.390291 -56.385845 -6.862919
v 24.333672 -53.409420 -6.862922
v 33.384007 -49.119022 -6.684121
v -0.996915 -56.383896 -13.037168
v 8.775641 -55.636711 -13.543477
v 18.837162 -53.409355 -13.725826
v 28.398186 -49.762928 -13.543485
v 36.781044 -45.075497 -13.037182
v -5.934134 -53.813072 -18.664106
v 3.226852 -53.556728 -19.555731
v 12.993075 -52.017750 -20.052292
v 22.677361 -49.118858 -20.052294
v 31.560268 -45.075413 -19.555737
v 39.135170 -40.322033 -18.664114
v 61.418610 -0.000001 12.442640
v 62.739437 -4.574229 6.518534
v 62.739437 4.574229 6.518534
v 62.678268 -9.380770 0.000000
v 63.500000 -0.000001 0.000000
v 62.678268 9.380767 0.000000
v 61.024014 -14.071173 -6.684072
v 62.656406 -4.815860 -6.862870
v 62.656410 4.815858 -6.862870
v 61.024010 14.071168 -6.684070
v 57.899532 -18.296980 -13.037113
v 60.148033 -9.503768 -13.543405
v 60.957825 -0.000002 -13.725743
v 60.148041 9.503766 -13.543406
v 57.899532 18.296976 -13.037113
v 53.719860 -21.828436 -18.664053
v 56.286114 -13.722721 -19.555655
v 57.715302 -4.690387 -20.052200
v 57.715302 4.690387 -20.052200
v 56.286114 13.722721 -19.555655
v 53.719860 21.828436 -18.664053
v 36.643700 33.258011 -28.730373
v 31.560087 30.272532 -34.131485
v 28.949795 37.673920 -30.102871
v 25.353792 26.350792 -39.129028
v 22.974522 34.385086 -35.456966
v 20.000631 41.529430 -30.867228
v 18.346151 21.660393 -43.259892
v 16.088732 30.032150 -40.175724
v 13.340538 37.824474 -35.934326
v 10.316378 44.428326 -30.867220
v 11.057764 16.549784 -46.217220
v 8.775497 24.881294 -43.827026
v 6.145443 33.008602 -40.175705
v 3.352109 40.258900 -35.456944
v 0.616474 46.155254 -30.102850
v 4.031127 11.429551 -47.954903
v 1.613368 19.376917 -46.217197
v -1.022280 27.458221 -43.259850
v -3.698894 35.047512 -39.128967
v -6.217631 41.580990 -34.131428
v -8.425466 46.749073 -28.730343
v -23.010279 42.383339 -28.730383
v -21.499153 37.006664 -34.131493
v -29.946638 37.006702 -30.102865
v -19.368408 30.357012 -39.129036
v -28.397873 30.755039 -35.456966
v -36.692337 30.357061 -30.867193
v -16.691765 22.767714 -43.259899
v -26.031950 23.376789 -40.175716
v -34.925606 23.376802 -35.934292
v -42.677605 22.767761 -30.867144
v -13.668074 14.802585 -46.217220
v -22.974375 15.377460 -43.827015
v -32.177338 15.584507 -40.175667
v -40.525368 15.377476 -35.456863
v -47.457806 14.802614 -30.102728
v -10.553569 7.063830 -47.954899
v -19.505156 7.401288 -46.217190
v -28.662348 7.589224 -43.259819
v -37.324265 7.589227 -39.128899
v -44.847408 7.401295 -34.131313
v -50.864899 7.063842 -28.730185
v -50.864895 -7.063852 -28.730190
v -44.847401 -7.401320 -34.131317
v -47.457794 -14.802637 -30.102728
v -37.324253 -7.589265 -39.128902
v -40.525352 -15.377524 -35.456852
v -42.677601 -22.767792 -30.867132
v -28.662340 -7.589276 -43.259811
v -32.177338 -15.584587 -40.175652
v -34.925602 -23.376877 -35.934261
v -36.692329 -30.357103 -30.867167
v -19.505154 -7.401349 -46.217178
v -22.974382 -15.377561 -43.826992
v -26.031950 -23.376892 -40.175671
v -28.397867 -30.755121 -35.456913
v -29.946634 -37.006744 -30.102829
v -10.553581 -7.063897 -47.954891
v -13.668099 -14.802703 -46.217190
v -16.691792 -22.767853 -43.259842
v -19.368427 -30.357138 -39.128963
v -21.499163 -37.006756 -34.131424
v -23.010281 -42.383385 -28.730339
v 45.657475 21.828403 -28.730345
v 47.838581 13.722696 -30.102818
v 41.004478 18.296919 -34.131454
v 49.053276 4.690368 -30.867161
v 42.596878 9.503722 -35.456921
v 35.038002 14.071105 -39.129002
v 49.053280 -4.690397 -30.867149
v 43.170387 -0.000028 -35.934273
v 35.975288 4.815811 -40.175678
v 28.030373 9.380710 -43.259869
v 47.838600 -13.722721 -30.102789
v 42.596916 -9.503778 -35.456894
v 35.975323 -4.815887 -40.175663
v 28.397896 -0.000043 -43.826996
v 20.502188 4.574185 -46.217201
v 45.657505 -21.828428 -28.730305
v 41.004536 -18.296972 -34.131393
v 35.038086 -14.071183 -39.128941
v 28.030455 -9.380800 -43.259827
v 20.502235 -4.574269 -46.217178
v 13.044956 -0.000033 -47.954899
v -8.425439 -46.749039 -28.730387
v -6.217575 -41.580921 -34.131493
v 0.616513 -46.155228 -30.102877
v -3.698815 -35.047413 -39.129032
v 3.352186 -40.258846 -35.456978
v 10.316425 -44.428303 -30.867233
v -1.022188 -27.458118 -43.259899
v 6.145549 -33.008545 -40.175728
v 13.340632 -37.824448 -35.934334
v 20.000685 -41.529419 -30.867220
v 1.613457 -19.376837 -46.217216
v 8.775616 -24.881254 -43.827030
v 16.088848 -30.032133 -40.175705
v 22.974615 -34.385082 -35.456936
v 28.949842 -37.673920 -30.102839
v 4.031204 -11.429525 -47.954903
v 11.057878 -16.549789 -46.217201
v 18.346283 -21.660421 -43.259850
v 25.353910 -26.350826 -39.128963
v 31.560171 -30.272560 -34.131424
v 36.643734 -33.258022 -28.730333
s 0
f 1 20 19
f 2 26 40
f 1 19 54
f 1 54 68
f 1 68 41
f 2 40 89
f 3 33 103
f 4 61 117
f 5 75 131
f 6 82 145
f 2 89 104
f 3 103 118
f 4 117 132
f 5 131 146
f 6 145 90
f 7 159 194
f 8 166 208
f 9 173 215
f 10 180 222
f 11 187 195
f 201 216 12
f 200 223 201
f 199 224 200
f 198 226 199
f 197 229 198
f 196 233 197
f 195 238 196
f 201 223 216
f 223 217 216
f 200 224 223
f 224 225 223
f 223 225 217
f 225 218 217
f 199 226 224
f 226 227 224
f 224 227 225
f 227 228 225
f 225 228 218
f 228 219 218
f 198 229 226
f 229 230 226
f 226 230 227
f 230 231 227
f 227 231 228
f 231 232 228
f 228 232 219
f 232 220 219
f 197 233 229
f 233 234 229
f 229 234 230
f 234 235 230
f 230 235 231
f 235 236 231
f 231 236 232
f 236 237 232
f 232 237 220
f 237 221 220
f 196 238 233
f 238 239 233
f 233 239 234
f 239 240 234
f 234 240 235
f 240 241 235
f 235 241 236
f 241 242 236
f 236 242 237
f 242 243 237
f 237 243 221
f 243 222 221
f 195 187 238
f 187 186 238
f 238 186 239
f 186 185 239
f 239 185 240
f 185 184 240
f 240 184 241
f 184 183 241
f 241 183 242
f 183 182 242
f 242 182 243
f 182 181 243
f 243 181 222
f 181 10 222
f 216 209 12
f 217 244 216
f 218 245 217
f 219 247 218
f 220 250 219
f 221 254 220
f 222 259 221
f 216 244 209
f 244 210 209
f 217 245 244
f 245 246 244
f 244 246 210
f 246 211 210
f 218 247 245
f 247 248 245
f 245 248 246
f 248 249 246
f 246 249 211
f 249 212 211
f 219 250 247
f 250 251 247
f 247 251 248
f 251 252 248
f 248 252 249
f 252 253 249
f 249 253 212
f 253 213 212
f 220 254 250
f 254 255 250
f 250 255 251
f 255 256 251
f 251 256 252
f 256 257 252
f 252 257 253
f 257 258 253
f 253 258 213
f 258 214 213
f 221 259 254
f 259 260 254
f 254 260 255
f 260 261 255
f 255 261 256
f 261 262 256
f 256 262 257
f 262 263 257
f 257 263 258
f 263 264 258
f 258 264 214
f 264 215 214
f 222 180 259
f 180 179 259
f 259 179 260
f 179 178 260
f 260 178 261
f 178 177 261
f 261 177 262
f 177 176 262
f 262 176 263
f 176 175 263
f 263 175 264
f 175 174 264
f 264 174 215
f 174 9 215
f 209 202 12
f 210 265 209
f 211 266 210
f 212 268 211
f 213 271 212
f 214 275 213
f 215 280 214
f 209 265 202
f 265 203 202
f 210 266 265
f 266 267 265
f 265 267 203
f 267 204 203
f 211 268 266
f 268 269 266
f 266 269 267
f 269 270 267
f 267 270 204
f 270 205 204
f 212 271 268
f 271 272 268
f 268 272 269
f 272 273 269
f 269 273 270
f 273 274 270
f 270 274 205
f 274 206 205
f 213 275 271
f 275 276 271
f 271 276 272
f 276 277 272
f 272 277 273
f 277 278 273
f 273 278 274
f 278 279 274
f 274 279 206
f 279 207 206
f 214 280 275
f 280 281 275
f 275 281 276
f 281 282 276
f 276 282 277
f 282 283 277
f 277 283 278
f 283 284 278
f 278 284 279
f 284 285 279
f 279 285 207
f 285 208 207
f 215 173 280
f 173 172 280
f 280 172 281
f 172 171 281
f 281 171 282
f 171 170 282
f 282 170 283
f 170 169 283
f 283 169 284
f 169 168 284
f 284 168 285
f 168 167 285
f 285 167 208
f 167 8 208
f 202 188 12
f 203 286 202
f 204 287 203
f 205 289 204
f 206 292 205
f 207 296 206
f 208 301 207
f 202 286 188
f 286 189 188
f 203 287 286
f 287 288 286
f 286 288 189
f 288 190 189
f 204 289 287
f 289 290 287
f 287 290 288
f 290 291 288
f 288 291 190
f 291 191 190
f 205 292 289
f 292 293 289
f 289 293 290
f 293 294 290
f 290 294 291
f 294 295 291
f 291 295 191
f 295 192 191
f 206 296 292
f 296 297 292
f 292 297 293
f 297 298 293
f 293 298 294
f 298 299 294
f 294 299 295
f 299 300 295
f 295 300 192
f 300 193 192
f 207 301 296
f 301 302 296
f 296 302 297
f 302 303 297
f 297 303 298
f 303 304 298
f 298 304 299
f 304 305 299
f 299 305 300
f 305 306 300
f 300 306 193
f 306 194 193
f 208 166 301
f 166 165 301
f 301 165 302
f 165 164 302
f 302 164 303
f 164 163 303
f 303 163 304
f 163 162 304
f 304 162 305
f 162 161 305
f 305 161 306
f 161 160 306
f 306 160 194
f 160 7 194
f 188 201 12
f 189 307 188
f 190 308 189
f 191 310 190
f 192 313 191
f 193 317 192
f 194 322 193
f 188 307 201
f 307 200 201
f 189 308 307
f 308 309 307
f 307 309 200
f 309 199 200
f 190 310 308
f 310 311 308
f 308 311 309
f 311 312 309
f 309 312 199
f 312 198 199
f 191 313 310
f 313 314 310
f 310 314 311
f 314 315 311
f 311 315 312
f 315 316 312
f 312 316 198
f 316 197 198
f 192 317 313
f 317 318 313
f 313 318 314
f 318 319 314
f 314 319 315
f 319 320 315
f 315 320 316
f 320 321 316
f 316 321 197
f 321 196 197
f 193 322 317
f 322 323 317
f 317 323 318
f 323 324 318
f 318 324 319
f 324 325 319
f 319 325 320
f 325 326 320
f 320 326 321
f 326 327 321
f 321 327 196
f 327 195 196
f 194 159 322
f 159 158 322
f 322 158 323
f 158 157 323
f 323 157 324
f 157 156 324
f 324 156 325
f 156 155 325
f 325 155 326
f 155 154 326
f 326 154 327
f 154 153 327
f 327 153 195
f 153 11 195
f 96 187 11
f 95 328 96
f 94 329 95
f 93 331 94
f 92 334 93
f 91 338 92
f 90 343 91
f 96 328 187
f 328 186 187
f 95 329 328
f 329 330 328
f 328 330 186
f 330 185 186
f 94 331 329
f 331 332 329
f 329 332 330
f 332 333 330
f 330 333 185
f 333 184 185
f 93 334 331
f 334 335 331
f 331 335 332
f 335 336 332
f 332 336 333
f 336 337 333
f 333 337 184
f 337 183 184
f 92 338 334
f 338 339 334
f 334 339 335
f 339 340 335
f 335 340 336
f 340 341 336
f 336 341 337
f 341 342 337
f 337 342 183
f 342 182 183
f 91 343 338
f 343 344 338
f 338 344 339
f 344 345 339
f 339 345 340
f 345 346 340
f 340 346 341
f 346 347 341
f 341 347 342
f 347 348 342
f 342 348 182
f 348 181 182
f 90 145 343
f 145 144 343
f 343 144 344
f 144 143 344
f 344 143 345
f 143 142 345
f 345 142 346
f 142 141 346
f 346 141 347
f 141 140 347
f 347 140 348
f 140 139 348
f 348 139 181
f 139 10 181
f 152 180 10
f 151 349 152
f 150 350 151
f 149 352 150
f 148 355 149
f 147 359 148
f 146 364 147
f 152 349 180
f 349 179 180
f 151 350 349
f 350 351 349
f 349 351 179
f 351 178 179
f 150 352 350
f 352 353 350
f 350 353 351
f 353 354 351
f 351 354 178
f 354 177 178
f 149 355 352
f 355 356 352
f 352 356 353
f 356 357 353
f 353 357 354
f 357 358 354
f 354 358 177
f 358 176 177
f 148 359 355
f 359 360 355
f 355 360 356
f 360 361 356
f 356 361 357
f 361 362 357
f 357 362 358
f 362 363 358
f 358 363 176
f 363 175 176
f 147 364 359
f 364 365 359
f 359 365 360
f 365 366 360
f 360 366 361
f 366 367 361
f 361 367 362
f 367 368 362
f 362 368 363
f 368 369 363
f 363 369 175
f 369 174 175
f 146 131 364
f 131 130 364
f 364 130 365
f 130 129 365
f 365 129 366
f 129 128 366
f 366 128 367
f 128 127 367
f 367 127 368
f 127 126 368
f 368 126 369
f 126 125 369
f 369 125 174
f 125 9 174
f 138 173 9
f 137 370 138
f 136 371 137
f 135 373 136
f 134 376 135
f 133 380 134
f 132 385 133
f 138 370 173
f 370 172 173
f 137 371 370
f 371 372 370
f 370 372 172
f 372 171 172
f 136 373 371
f 373 374 371
f 371 374 372
f 374 375 372
f 372 375 171
f 375 170 171
f 135 376 373
f 376 377 373
f 373 377 374
f 377 378 374
f 374 378 375
f 378 379 375
f 375 379 170
f 379 169 170
f 134 380 376
f 380 381 376
f 376 381 377
f 381 382 377
f 377 382 378
f 382 383 378
f 378 383 379
f 383 384 379
f 379 384 169
f 384 168 169
f 133 385 380
f 385 386 380
f 380 386 381
f 386 387 381
f 381 387 382
f 387 388 382
f 382 388 383
f 388 389 383
f 383 389 384
f 389 390 384
f 384 390 168
f 390 167 168
f 132 117 385
f 117 116 385
f 385 116 386
f 116 115 386
f 386 115 387
f 115 114 387
f 387 114 388
f 114 113 388
f 388 113 389
f 113 112 389
f 389 112 390
f 112 111 390
f 390 111 167
f 111 8 167
f 124 166 8
f 123 391 124
f 122 392 123
f 121 394 122
f 120 397 121
f 119 401 120
f 118 406 119
f 124 391 166
f 391 165 166
f 123 392 391
f 392 393 391
f 391 393 165
f 393 164 165
f 122 394 392
f 394 395 392
f 392 395 393
f 395 396 393
f 393 396 164
f 396 163 164
f 121 397 394
f 397 398 394
f 394 398 395
f 398 399 395
f 395 399 396
f 399 400 396
f 396 400 163
f 400 162 163
f 120 401 397
f 401 402 397
f 397 402 398
f 402 403 398
f 398 403 399
f 403 404 399
f 399 404 400
f 404 405 400
f 400 405 162
f 405 161 162
f 119 406 401
f 406 407 401
f 401 407 402
f 407 408 402
f 402 408 403
f 408 409 403
f 403 409 404
f 409 410 404
f 404 410 405
f 410 411 405
f 405 411 161
f 411 160 161
f 118 103 406
f 103 102 406
f 406 102 407
f 102 101 407
f 407 101 408
f 101 100 408
f 408 100 409
f 100 99 409
f 409 99 410
f 99 98 410
f 410 98 411
f 98 97 411
f 411 97 160
f 97 7 160
f 110 159 7
f 109 412 110
f 108 413 109
f 107 415 108
f 106 418 107
f 105 422 106
f 104 427 105
f 110 412 159
f 412 158 159
f 109 413 412
f 413 414 412
f 412 414 158
f 414 157 158
f 108 415 413
f 415 416 413
f 413 416 414
f 416 417 414
f 414 417 157
f 417 156 157
f 107 418 415
f 418 419 415
f 415 419 416
f 419 420 416
f 416 420 417
f 420 421 417
f 417 421 156
f 421 155 156
f 106 422 418
f 422 423 418
f 418 423 419
f 423 424 419
f 419 424 420
f 424 425 420
f 420 425 421
f 425 426 421
f 421 426 155
f 426 154 155
f 105 427 422
f 427 428 422
f 422 428 423
f 428 429 423
f 423 429 424
f 429 430 424
f 424 430 425
f 430 431 425
f 425 431 426
f 431 432 426
f 426 432 154
f 432 153 154
f 104 89 427
f 89 88 427
f 427 88 428
f 88 87 428
f 428 87 429
f 87 86 429
f 429 86 430
f 86 85 430
f 430 85 431
f 85 84 431
f 431 84 432
f 84 83 432
f 432 83 153
f 83 11 153
f 139 152 10
f 140 433 139
f 141 434 140
f 142 436 141
f 143 439 142
f 144 443 143
f 145 448 144
f 139 433 152
f 433 151 152
f 140 434 433
f 434 435 433
f 433 435 151
f 435 150 151
f 141 436 434
f 436 437 434
f 434 437 435
f 437 438 435
f 435 438 150
f 438 149 150
f 142 439 436
f 439 440 436
f 436 440 437
f 440 441 437
f 437 441 438
f 441 442 438
f 438 442 149
f 442 148 149
f 143 443 439
f 443 444 439
f 439 444 440
f 444 445 440
f 440 445 441
f 445 446 441
f 441 446 442
f 446 447 442
f 442 447 148
f 447 147 148
f 144 448 443
f 448 449 443
f 443 449 444
f 449 450 444
f 444 450 445
f 450 451 445
f 445 451 446
f 451 452 446
f 446 452 447
f 452 453 447
f 447 453 147
f 453 146 147
f 145 82 448
f 82 81 448
f 448 81 449
f 81 80 449
f 449 80 450
f 80 79 450
f 450 79 451
f 79 78 451
f 451 78 452
f 78 77 452
f 452 77 453
f 77 76 453
f 453 76 146
f 76 5 146
f 125 138 9
f 126 454 125
f 127 455 126
f 128 457 127
f 129 460 128
f 130 464 129
f 131 469 130
f 125 454 138
f 454 137 138
f 126 455 454
f 455 456 454
f 454 456 137
f 456 136 137
f 127 457 455
f 457 458 455
f 455 458 456
f 458 459 456
f 456 459 136
f 459 135 136
f 128 460 457
f 460 461 457
f 457 461 458
f 461 462 458
f 458 462 459
f 462 463 459
f 459 463 135
f 463 134 135
f 129 464 460
f 464 465 460
f 460 465 461
f 465 466 461
f 461 466 462
f 466 467 462
f 462 467 463
f 467 468 463
f 463 468 134
f 468 133 134
f 130 469 464
f 469 470 464
f 464 470 465
f 470 471 465
f 465 471 466
f 471 472 466
f 466 472 467
f 472 473 467
f 467 473 468
f 473 474 468
f 468 474 133
f 474 132 133
f 131 75 469
f 75 74 469
f 469 74 470
f 74 73 470
f 470 73 471
f 73 72 471
f 471 72 472
f 72 71 472
f 472 71 473
f 71 70 473
f 473 70 474
f 70 69 474
f 474 69 132
f 69 4 132
f 111 124 8
f 112 475 111
f 113 476 112
f 114 478 113
f 115 481 114
f 116 485 115
f 117 490 116
f 111 475 124
f 475 123 124
f 112 476 475
f 476 477 475
f 475 477 123
f 477 122 123
f 113 478 476
f 478 479 476
f 476 479 477
f 479 480 477
f 477 480 122
f 480 121 122
f 114 481 478
f 481 482 478
f 478 482 479
f 482 483 479
f 479 483 480
f 483 484 480
f 480 484 121
f 484 120 121
f 115 485 481
f 485 486 481
f 481 486 482
f 486 487 482
f 482 487 483
f 487 488 483
f 483 488 484
f 488 489 484
f 484 489 120
f 489 119 120
f 116 490 485
f 490 491 485
f 485 491 486
f 491 492 486
f 486 492 487
f 492 493 487
f 487 493 488
f 493 494 488
f 488 494 489
f 494 495 489
f 489 495 119
f 495 118 119
f 117 61 490
f 61 60 490
f 490 60 491
f 60 59 491
f 491 59 492
f 59 58 492
f 492 58 493
f 58 57 493
f 493 57 494
f 57 56 494
f 494 56 495
f 56 55 495
f 495 55 118
f 55 3 118
f 97 110 7
f 98 496 97
f 99 497 98
f 100 499 99
f 101 502 100
f 102 506 101
f 103 511 102
f 97 496 110
f 496 109 110
f 98 497 496
f 497 498 496
f 496 498 109
f 498 108 109
f 99 499 497
f 499 500 497
f 497 500 498
f 500 501 498
f 498 501 108
f 501 107 108
f 100 502 499
f 502 503 499
f 499 503 500
f 503 504 500
f 500 504 501
f 504 505 501
f 501 505 107
f 505 106 107
f 101 506 502
f 506 507 502
f 502 507 503
f 507 508 503
f 503 508 504
f 508 509 504
f 504 509 505
f 509 510 505
f 505 510 106
f 510 105 106
f 102 511 506
f 511 512 506
f 506 512 507
f 512 513 507
f 507 513 508
f 513 514 508
f 508 514 509
f 514 515 509
f 509 515 510
f 515 516 510
f 510 516 105
f 516 104 105
f 103 33 511
f 33 32 511
f 511 32 512
f 32 31 512
f 512 31 513
f 31 30 513
f 513 30 514
f 30 29 514
f 514 29 515
f 29 28 515
f 515 28 516
f 28 27 516
f 516 27 104
f 27 2 104
f 83 96 11
f 84 517 83
f 85 518 84
f 86 520 85
f 87 523 86
f 88 527 87
f 89 532 88
f 83 517 96
f 517 95 96
f 84 518 517
f 518 519 517
f 517 519 95
f 519 94 95
f 85 520 518
f 520 521 518
f 518 521 519
f 521 522 519
f 519 522 94
f 522 93 94
f 86 523 520
f 523 524 520
f 520 524 521
f 524 525 521
f 521 525 522
f 525 526 522
f 522 526 93
f 526 92 93
f 87 527 523
f 527 528 523
f 523 528 524
f 528 529 524
f 524 529 525
f 529 530 525
f 525 530 526
f 530 531 526
f 526 531 92
f 531 91 92
f 88 532 527
f 532 533 527
f 527 533 528
f 533 534 528
f 528 534 529
f 534 535 529
f 529 535 530
f 535 536 530
f 530 536 531
f 536 537 531
f 531 537 91
f 537 90 91
f 89 40 532
f 40 39 532
f 532 39 533
f 39 38 533
f 533 38 534
f 38 37 534
f 534 37 535
f 37 36 535
f 535 36 536
f 36 35 536
f 536 35 537
f 35 34 537
f 537 34 90
f 34 6 90
f 47 82 6
f 46 538 47
f 45 539 46
f 44 541 45
f 43 544 44
f 42 548 43
f 41 553 42
f 47 538 82
f 538 81 82
f 46 539 538
f 539 540 538
f 538 540 81
f 540 80 81
f 45 541 539
f 541 542 539
f 539 542 540
f 542 543 540
f 540 543 80
f 543 79 80
f 44 544 541
f 544 545 541
f 541 545 542
f 545 546 542
f 542 546 543
f 546 547 543
f 543 547 79
f 547 78 79
f 43 548 544
f 548 549 544
f 544 549 545
f 549 550 545
f 545 550 546
f 550 551 546
f 546 551 547
f 551 552 547
f 547 552 78
f 552 77 78
f 42 553 548
f 553 554 548
f 548 554 549
f 554 555 549
f 549 555 550
f 555 556 550
f 550 556 551
f 556 557 551
f 551 557 552
f 557 558 552
f 552 558 77
f 558 76 77
f 41 68 553
f 68 67 553
f 553 67 554
f 67 66 554
f 554 66 555
f 66 65 555
f 555 65 556
f 65 64 556
f 556 64 557
f 64 63 557
f 557 63 558
f 63 62 558
f 558 62 76
f 62 5 76
f 62 75 5
f 63 559 62
f 64 560 63
f 65 562 64
f 66 565 65
f 67 569 66
f 68 574 67
f 62 559 75
f 559 74 75
f 63 560 559
f 560 561 559
f 559 561 74
f 561 73 74
f 64 562 560
f 562 563 560
f 560 563 561
f 563 564 561
f 561 564 73
f 564 72 73
f 65 565 562
f 565 566 562
f 562 566 563
f 566 567 563
f 563 567 564
f 567 568 564
f 564 568 72
f 568 71 72
f 66 569 565
f 569 570 565
f 565 570 566
f 570 571 566
f 566 571 567
f 571 572 567
f 567 572 568
f 572 573 568
f 568 573 71
f 573 70 71
f 67 574 569
f 574 575 569
f 569 575 570
f 575 576 570
f 570 576 571
f 576 577 571
f 571 577 572
f 577 578 572
f 572 578 573
f 578 579 573
f 573 579 70
f 579 69 70
f 68 54 574
f 54 53 574
f 574 53 575
f 53 52 575
f 575 52 576
f 52 51 576
f 576 51 577
f 51 50 577
f 577 50 578
f 50 49 578
f 578 49 579
f 49 48 579
f 579 48 69
f 48 4 69
f 48 61 4
f 49 580 48
f 50 581 49
f 51 583 50
f 52 586 51
f 53 590 52
f 54 595 53
f 48 580 61
f 580 60 61
f 49 581 580
f 581 582 580
f 580 582 60
f 582 59 60
f 50 583 581
f 583 584 581
f 581 584 582
f 584 585 582
f 582 585 59
f 585 58 59
f 51 586 583
f 586 587 583
f 583 587 584
f 587 588 584
f 584 588 585
f 588 589 585
f 585 589 58
f 589 57 58
f 52 590 586
f 590 591 586
f 586 591 587
f 591 592 587
f 587 592 588
f 592 593 588
f 588 593 589
f 593 594 589
f 589 594 57
f 594 56 57
f 53 595 590
f 595 596 590
f 590 596 591
f 596 597 591
f 591 597 592
f 597 598 592
f 592 598 593
f 598 599 593
f 593 599 594
f 599 600 594
f 594 600 56
f 600 55 56
f 54 19 595
f 19 18 595
f 595 18 596
f 18 17 596
f 596 17 597
f 17 16 597
f 597 16 598
f 16 15 598
f 598 15 599
f 15 14 599
f 599 14 600
f 14 13 600
f 600 13 55
f 13 3 55
f 34 47 6
f 35 601 34
f 36 602 35
f 37 604 36
f 38 607 37
f 39 611 38
f 40 616 39
f 34 601 47
f 601 46 47
f 35 602 601
f 602 603 601
f 601 603 46
f 603 45 46
f 36 604 602
f 604 605 602
f 602 605 603
f 605 606 603
f 603 606 45
f 606 44 45
f 37 607 604
f 607 608 604
f 604 608 605
f 608 609 605
f 605 609 606
f 609 610 606
f 606 610 44
f 610 43 44
f 38 611 607
f 611 612 607
f 607 612 608
f 612 613 608
f 608 613 609
f 613 614 609
f 609 614 610
f 614 615 610
f 610 615 43
f 615 42 43
f 39 616 611
f 616 617 611
f 611 617 612
f 617 618 612
f 612 618 613
f 618 619 613
f 613 619 614
f 619 620 614
f 614 620 615
f 620 621 615
f 615 621 42
f 621 41 42
f 40 26 616
f 26 25 616
f 616 25 617
f 25 24 617
f 617 24 618
f 24 23 618
f 618 23 619
f 23 22 619
f 619 22 620
f 22 21 620
f 620 21 621
f 21 20 621
f 621 20 41
f 20 1 41
f 13 33 3
f 14 622 13
f 15 623 14
f 16 625 15
f 17 628 16
f 18 632 17
f 19 637 18
f 13 622 33
f 622 32 33
f 14 623 622
f 623 624 622
f 622 624 32
f 624 31 32
f 15 625 623
f 625 626 623
f 623 626 624
f 626 627 624
f 624 627 31
f 627 30 31
f 16 628 625
f 628 629 625
f 625 629 626
f 629 630 626
f 626 630 627
f 630 631 627
f 627 631 30
f 631 29 30
f 17 632 628
f 632 633 628
f 628 633 629
f 633 634 629
f 629 634 630
f 634 635 630
f 630 635 631
f 635 636 631
f 631 636 29
f 636 28 29
f 18 637 632
f 637 638 632
f 632 638 633
f 638 639 633
f 633 639 634
f 639 640 634
f 634 640 635
f 640 641 635
f 635 641 636
f 641 642 636
f 636 642 28
f 642 27 28
f 19 20 637
f 20 21 637
f 637 21 638
f 21 22 638
f 638 22 639
f 22 23 639
f 639 23 640
f 23 24 640
f 640 24 641
f 24 25 641
f 641 25 642
f 25 26 642
f 642 26 27
f 26 2 27
