v 0.000003306032654 -0.000000577658770 -49.000000176724662
v 45.949063364989797 -30.754930488651020 -21.913753782879379
v -17.550638662218489 -49.762981397752867 -21.913774121537529
v -56.796064590998469 -0.000000341572832 -21.913569154505968
v -17.550638519749512 49.762980602247126 -21.913774690272572
v 45.949063453039656 30.754929511348976 -21.913754134373725
v 17.550638268266187 -49.762981197549635 21.913774336822993
v -45.949063704522970 -30.754930106651482 21.913753780924146
v -45.949063616473111 30.754929893348514 21.913753429429800
v 17.550638410735164 49.762980802450357 21.913773768087950
v 56.796064339515148 -0.000000253729673 21.913568801056389
v -0.000003557515980 -0.000000017643735 48.999999823275083
v -16.378965302392846 -46.440834428401196 -26.983581058462189
v -14.784162929290048 -41.918941460598397 -32.218441972608360
v -12.743713567934320 -36.133469492327492 -37.259747862763767
v -10.315925248358090 -29.249723521073872 -41.682064732067424
v -7.646199996267020 -21.680002544580166 -45.126785588346706
v -4.928018823958314 -13.972885561630124 -47.429539442017457
v -2.339827727949531 -6.634344572311541 -48.650391302686010
v 6.125884275677431 -4.100215584429951 -48.650382724260744
v 12.901992183680932 -8.635644587153271 -47.429526223770388
v 20.018426015586876 -13.398863584181369 -45.126779698143203
v 27.007988767634497 -18.077166574502080 -41.682054181886826
v 33.364149451821902 -22.331514558329680 -37.259732712414198
v 38.706213093629337 -25.907097537168461 -32.218423317843836
v 42.881543722998948 -28.701757513231041 -26.983561009449577
v 40.541734460588479 -35.336197489245791 -23.372380135408836
v 33.778245540956810 -39.880177486652222 -24.612780583131677
v 25.718036594311798 -44.011784479950158 -25.459047124028356
v 16.692168610723574 -47.327183468756168 -25.761143737220298
v 7.274809586409223 -49.532593453549161 -25.459052384173759
v -1.882093474322687 -50.554775435605393 -24.612795019647347
v -10.253042561175867 -50.541149416534417 -23.372398605994764
v 49.007474546385914 24.601506498635860 -23.372352885010844
v 51.608308622764156 17.271405487824790 -24.612726660970868
v 53.382714670094892 8.932617480448982 -25.458967489046696
v 54.016141678465296 -0.000001522184027 -25.761057393638964
v 53.382714644521243 -8.932619519551015 -25.458967386956889
v 51.608308573316961 -17.271406512175201 -24.612726463578074
v 49.007474475953011 -24.601507501364136 -23.372352603843218
v 6.125884287416145 4.100214415570048 -48.650382771121606
v 12.901992208404357 8.635643412846724 -47.429526322466110
v 20.018426053947163 13.398862415818629 -45.126779851277178
v 27.007988819388540 18.077165425497910 -41.682054388488552
v 33.364149515755926 22.331513441670310 -37.259732967638350
v 38.706213167800087 25.907096462831532 -32.218423613932892
v 42.881543805170672 28.701756486768954 -26.983561337478459
v -53.004457235929529 -0.000000375971435 -26.983359888956173
v -47.843545869299227 -0.000000413273485 -32.218227527505505
v -41.240453516223170 -0.000000451534055 -37.259563065049960
v -33.383843206497083 -0.000000488051966 -41.681933514802751
v -24.744259965238470 -0.000000520104243 -45.126702909719086
v -15.947833803958895 -0.000000545855335 -47.429505293650742
v -7.572054718453457 -0.000000564821670 -48.650379707042916
v -23.951120555306758 -46.440884396925931 -23.372394588786950
v -30.732185461961596 -41.919025394307141 -24.612785089546932
v -37.488226394412813 -36.133572389471787 -25.459019595775061
v -43.700025363404080 -29.249817382305828 -25.761075070162718
v -48.886873373728704 -21.680073373154439 -25.458938476686740
v -52.771715421967748 -13.972923362757257 -24.612638792808394
v -55.344362498337844 -6.634358351986211 -23.372208014922624
v -16.378965169435016 46.440833571598795 -26.983581589228820
v -14.784162809278174 41.918940539401582 -32.218442451694827
v -12.743713464485969 36.133468507672490 -37.259748275728775
v -10.315925164617566 29.249722478926120 -41.682065066358945
v -7.646199934198237 21.680001455419831 -45.126785836124810
v -4.928018783954629 13.972884438369872 -47.429539601711852
v -2.339827708955729 6.634343427688457 -48.650391378509120
v -55.344362479343722 6.634358648013764 -23.372212090745901
v -52.771711381963947 13.972924637242734 -24.612638952502959
v -48.886869311659709 21.680074626845546 -25.458938724465384
v -43.700022279663145 29.249822617694150 -25.761077404455136
v -37.488222290964174 36.133571610528193 -25.459020008740968
v -30.732181341949481 41.919024605692840 -24.612785568634077
v -23.951118422348781 46.440883603074049 -23.372395119554010
v -10.253042416479035 50.541148583465564 -23.372399183623394
v -1.882091329586850 50.554770564394595 -24.612795597431543
v 7.274813728218754 49.532596546450804 -25.459054950275466
v 16.692172746218969 47.327178531243810 -25.761144278116596
v 25.718038720315377 44.011783520049818 -25.459047627033527
v 33.778245655131805 39.880176513347770 -24.612781038917358
v 40.541738561754414 35.336196510754178 -23.372382539261647
v 59.130430640713023 -4.100225282125685 17.529161987977034
v 60.745734000008206 -8.635674314283524 12.306327127024296
v 61.259170409315914 -13.398916348971326 6.364741190202681
v 60.392173848381070 -18.077238384101143 0.000004156215498
v 58.108742288054529 -22.331594417203480 -6.364752979396152
v 54.654301699065783 -25.907167446211648 -12.306388200899701
v 50.453733060857417 -28.701796470044577 -17.529287479121884
v 50.453733143029247 28.701793529955417 -17.529287807151199
v 54.654301773236732 25.907163553788347 -12.306388496989538
v 58.108749351988791 22.331592582796503 -6.364753234620721
v 60.392173900135312 18.077235615898850 0.000003949612960
v 61.259170447676283 13.398914651028676 6.364742037068109
v 60.745734024731647 8.635672685716479 12.306328028328236
v 59.130430652451764 4.100223717874313 17.529161941116069
v 14.039146570595362 -53.075359217577727 17.529317109819793
v 9.856157932354641 -55.892189241435780 12.306425832955711
v 5.097525345733753 -57.813976268577065 6.364783510661039
v -0.000001209482973 -58.499996297651251 0.000000157569800
v -5.097525762735648 -57.813969326725434 -6.364783203361777
v -9.856158343854563 -55.892189353866719 -12.306425547620281
v -14.039146974030841 -53.075359377724766 -17.529316856677568
v 45.221543051362850 -35.336277462555039 -17.529323807652304
v 43.634567679067189 -39.880352430437469 -12.306440892831198
v 41.010796257022420 -44.012039392728440 -6.364795052979917
v 37.324382806510123 -47.327480351080176 0.000002707783555
v 32.762542357586760 -49.532879308178757 6.364801400892170
v 27.686430939992913 -50.554993266959229 12.306452051221383
v 22.504982574221376 -50.541256229696245 17.529338688253890
v -50.453733394512575 -28.701794125257919 17.529287453701620
v -54.654302024720053 -25.907164149090853 12.306388143539955
v -58.108749603472106 -22.331593178099006 6.364752881171141
v -60.392174151618626 -18.077236211201352 -0.000004303062542
v -61.259170699159604 -13.398915246331180 -6.364742390517690
v -60.745734276214968 -8.635673281018983 -12.306328381777819
v -59.130430903935085 -4.100224313176818 -17.529162294565648
v -22.504982970401841 -50.541256365606252 -17.529338464073618
v -27.686433336212698 -50.554989328343268 -12.306451826884278
v -32.762549750880204 -49.532879287123734 -6.364802188237006
v -37.324387193489692 -47.327477244222322 -0.000002520333435
v -41.010796634510037 -44.012032202574062 6.364795202538525
v -43.634572044726063 -39.880344164865015 12.306441995168969
v -45.221547404012192 -35.336277132747462 17.529323858056447
v -45.221543302846172 35.336276867252522 17.529323454202725
v -43.634567930550503 39.880351835134960 12.306440539381615
v -41.010796508505734 44.012038797425923 6.364794699530337
v -37.324383057993437 47.327479755777667 -0.000003061233137
v -32.762542609070074 49.532878712876247 -6.364801754341751
v -27.686431191476238 50.554992671656720 -12.306452404670965
v -22.504982825704701 50.541255634393728 -17.529339041703469
v -59.130430892196344 4.100224686823180 -17.529162341426613
v -60.745734251491534 8.635673718981019 -12.306327480473879
v -61.259170660799228 13.398915753668822 -6.364741543652261
v -60.392174099864384 18.077237788798641 -0.000004509665079
v -58.108742539537850 22.331593821900977 6.364752625946571
v -54.654301950549112 25.907166850909142 12.306387847450118
v -50.453733312340738 28.701795874742075 17.529287125672305
v 22.504982718918516 50.541255770303735 17.529338110624039
v 27.686433084729373 50.554988733040759 12.306451473434695
v 32.762549499396890 49.532878691821224 6.364801834787426
v 37.324386942006377 47.327476648919813 0.000002166883854
v 41.010796383026722 44.012031607271545 -6.364795555988105
v 43.634571793242742 39.880343569562505 -12.306442348618551
v 45.221547152528871 35.336276537444945 -17.529324211506026
v -14.039146822078688 53.075358622275218 -17.529317463269372
v -9.856158183837966 55.892188646133270 -12.306426186405293
v -5.097525597217079 57.813975673274548 -6.364783864110620
v 0.000000957999648 58.499995702348741 -0.000000511019382
v 5.097525511252322 57.813968731422918 6.364782849912197
v 9.856158092371238 55.892188758564210 12.306425194170698
v 14.039146722547514 53.075358782422256 17.529316503227989
v 55.344362227860401 -6.634359243316270 23.372211737296322
v 52.771711130480625 -13.972925232545238 24.612638599053380
v 48.886869060176394 -21.680075222148051 25.458938371015805
v 43.700022028179824 -29.249823212996656 25.761077051005557
v 37.488222039480853 -36.133572205830703 25.459019655291389
v 30.732181090466153 -41.919025200995350 24.612785215184498
v 23.951118170865453 -46.440884198376565 23.372394766104431
v 10.253042164995707 -50.541149178768080 23.372398830173815
v 1.882091078103524 -50.554771159697104 24.612795243981964
v -7.274813979702079 -49.532597141753314 25.459054596825887
v -16.692172997702297 -47.327179126546326 25.761143924667017
v -25.718038971798705 -44.011784115352327 25.459047273583948
v -33.778245906615126 -39.880177108650287 24.612780685467779
v -40.541738813237728 -35.336197106056687 23.372382185812068
v -49.007474797869236 -24.601507093938366 23.372352531561265
v -51.608308874247470 -17.271406083127296 24.612726307521289
v -53.382714921578213 -8.932618075751487 25.458967135597117
v -54.016141929948617 0.000000926881522 25.761057040189385
v -53.382714896004558 8.932618924248510 25.458967033507310
v -51.608308824800275 17.271405916872695 24.612726110128495
v -49.007474727436332 24.601506906061630 23.372352250393639
v -40.541734712071801 35.336196893943274 23.372379781959257
v -33.778245792440131 39.880176891349706 24.612780229682098
v -25.718036845795126 44.011783884647649 25.459046770578777
v -16.692168862206898 47.327182873453651 25.761143383770719
v -7.274809837892549 49.532592858246652 25.459052030724180
v 1.882093222839361 50.554774840302883 24.612794666197768
v 10.253042309692539 50.541148821231900 23.372398252545185
v 23.951120303823430 46.440883801623414 23.372394235337371
v 30.732185210478267 41.919024799004625 24.612784736097353
v 37.488226142929491 36.133571794169278 25.459019242325482
v 43.700025111920766 29.249816787003322 25.761074716713139
v 48.886873122245390 21.680072777851933 25.458938123237161
v 52.771715170484427 13.972922767454751 24.612638439358815
v 55.344362246854530 6.634357756683705 23.372207661473045
v 2.339827457472402 -6.634345022990964 48.650391025059548
v 4.928018532471583 -13.972885033672400 47.429535248262276
v 7.646199682714911 -21.680002050722333 45.126785482675231
v 10.315924913134241 -29.249722074228622 41.682064712909359
v 12.743714213002651 -36.133465102975002 37.259747922279246
v 14.784163557794853 -41.918938134704092 32.218442098245305
v 16.378966917951693 -46.440834166901311 26.983581235779379
v 53.004456984446207 -0.000000219331070 26.983359535506594
v 47.843545617815906 -0.000000182029020 32.218227174055926
v 41.240453264739855 -0.000000143768450 37.259562711600381
v 33.383842955013769 -0.000000107250539 41.681933161353172
v 24.744259713755145 -0.000000075198262 45.126702556269507
v 15.947833552475570 -0.000000049447170 47.429504940201163
v 7.572054466970132 -0.000000030480835 48.650379353593337
v -6.125884538899472 -4.100215010872554 48.650382417672027
v -12.901992459887683 -8.635644008149228 47.429525969016531
v -20.018426305430491 -13.398863011121133 45.126779497827599
v -27.007989070871865 -18.077166020800416 41.682054035038973
v -33.364149767239240 -22.331514036972813 37.259732614188771
v -38.706213419283415 -25.907097058134035 32.218423260483313
v -42.881544056653986 -28.701757082071456 26.983560984028880
v -6.125884527160758 4.100214989127445 48.650382370811165
v -12.901992435164258 8.635643991850767 47.429525870320809
v -20.018426267070204 13.398862988878864 45.126779344693624
v -27.007989019117822 18.077165979199574 41.682053828437247
v -33.364149703305216 22.331513963027177 37.259732358964619
v -38.706213345112666 25.907096941865959 32.218422964394257
v -42.881543974482263 28.701756917928538 26.983560655999998
v 2.339827476466207 6.634344977009034 48.650390949236424
v 4.928018572475268 13.972884966327596 47.429535088567881
v 7.646199744783694 21.680001949277663 45.126785234897127
v 10.315924996874761 29.249721925771368 41.682064378617852
v 12.743714316450991 36.133464897024986 37.259747509314280
v 14.784163677806719 41.918937865295888 32.218441619158874
v 16.378967050909523 46.440833833098679 26.983580705012749
v 10.553549525790119 7.063831961276989 47.954906522040112
v 19.505117647975936 7.401296938532993 46.217195147045587
v 13.668042658568622 14.802592946888792 46.217224695944722
v 28.662294855367520 7.589241908525046 43.259831787305572
v 22.974315826791951 15.377481919908455 43.827027344435656
v 16.691721877090071 22.767726925661037 43.259903862195479
v 37.324208144680945 7.589256872519888 39.128920393953067
v 32.177266082813802 15.584553885869346 40.175695987792118
v 26.031869093965607 23.376828894666545 40.175733512863310
v 19.368356177263959 30.357032898223938 39.129041006288169
v 44.847363494423355 7.401338833192324 34.131342921920194
v 40.525288413004340 15.377548846954063 35.456896573638865
v 34.925515391018720 23.376882857698167 35.934313135740275
v 28.397782435011617 30.755097864314720 35.456971636400233
v 21.499097536791819 37.006694866615668 34.131497117518116
v 50.864869872215181 7.063895793713968 28.730210345291820
v 47.457742787164925 14.802710806434540 30.102760062446563
v 42.677506745030897 22.767871817645467 30.867163682140522
v 36.692227755892141 30.357161826213460 30.867201219585727
v 29.946538818942379 37.006770831501967 30.102860709144444
v 23.010217922762301 42.383368833588172 28.730378192626571
v -4.031150467960803 11.429481982154647 47.954909475635752
v -1.613409334884040 19.376796968763855 46.217231599550722
v -11.057781338930914 16.549716982283240 46.217230954257879
v 1.022230883803464 27.458083948091588 43.259913737960950
v -8.775529159606380 24.881188965357786 43.827064066488468
v -18.346162124495610 21.660336975816939 43.259909414602973
v 3.698845183977348 35.047385920654513 39.129050882052255
v -6.145481892249197 33.008498940727812 40.175765204243994
v -16.088753896509573 30.032073954961341 40.175760524863499
v -25.353800828471101 26.350757962242614 39.129041897011376
v 6.217597543339163 41.580901888490807 34.131504021120740
v -3.352138551386414 40.258815909764138 35.457004358447669
v -13.340559588304435 37.824412926790217 35.934374672807756
v -22.974531559794251 34.385039937853072 35.456999017734951
v -31.560091472847869 30.272510942568584 34.131493439935667
v 8.425447929010835 46.749030854465978 28.730389146217238
v -0.616490167964083 46.155215875252374 30.102891516347480
v -10.316392223969123 44.428294893505438 30.867252846871487
v -20.000639228118438 41.529403907368170 30.867247185189061
v -28.949799180103899 37.673900915810719 30.102876580455845
v -36.643702090300565 33.258006918981295 28.730378066838394
v -13.044907484321314 -0.000000004942423 47.954901909659448
v -20.502145356072205 4.574208995802502 46.217211361243720
v -20.502145369167945 -4.574210004197496 46.217211413521802
v -28.030345142071379 9.380727989679434 43.259877806530568
v -28.397828195220416 -0.000001006553601 43.827023834399050
v -28.030345168927944 -9.380728010320562 43.259877913741761
v -35.037989846046628 14.071114976105093 39.129006288938754
v -35.975252932601954 4.815837983428042 40.175702276185113
v -35.975252946389467 -4.815839016571957 40.175702331224748
v -35.037989886331545 -14.071115023894905 39.129006449755806
v -41.004480489988495 18.296924956087818 34.131462846920208
v -42.596861595406622 9.503735965941591 35.456932785644014
v -43.170351642443684 -0.000001030509609 35.934295799787478
v -42.596861622615357 -9.503739034058405 35.456932894261065
v -41.004473542371137 -18.296925043912232 34.131455056034028
v -45.657484106659489 21.828404931884123 28.730345500861024
v -47.838579214385142 13.722698942849199 30.102814394424954
v -49.053263280846991 4.690378948955832 30.867166360967733
v -49.053263294275311 -4.690379051044166 30.867166414573504
v -47.838579253672556 -13.722699057150798 30.102814551260007
v -45.657484169153143 -21.828405068115870 28.730345750335204
v -4.031151500682849 -11.429482017845348 47.954909606261836
v -11.057780386311945 -16.549719017716757 46.217231143402657
v -1.613408390358866 -19.376801031236141 46.217231821005868
v -18.346162186508092 -21.660337024183050 43.259909662156318
v -8.775527230840011 -24.881191034642210 43.827064350852694
v 1.022229805192318 -27.458082051908406 43.259914051775958
v -25.353798903912029 -26.350758037757377 39.129042198171113
v -16.088749982489926 -30.032070045038662 40.175760868096674
v -6.145478986750902 -33.008492059272179 40.175765581494275
v 3.698847083638400 -35.047386079345479 39.129051282604699
v -31.560091559516582 -30.272511057431412 34.131493785916504
v -22.974531658236934 -34.385040062146906 35.456999410717380
v -13.340559696593870 -37.824409073209772 35.934375105098340
v -3.352138666645430 -40.258816090235854 35.457004818560769
v 6.217597424295080 -41.580902111509182 34.131504496343794
v -36.643702185516602 -33.258007081018690 28.730378446940101
v -28.949797287962642 -37.673901084189247 30.102880011026407
v -20.000637347015719 -41.529404092631772 30.867256659823695
v -10.316390351165433 -44.428295106494531 30.867257354637193
v -0.616487300104198 -46.155212124747621 30.102892043850005
v 8.425448795170441 -46.749031145533998 28.730392680506281
v 10.553548505566713 -7.063832038723007 47.954906602771722
v 13.668042616189524 -14.802593053111204 46.217224865121757
v 19.505117626786387 -7.401297061467004 46.217195231634108
v 16.691721811907183 -22.767727074338957 43.259904122405054
v 22.974317782766970 -15.377482080091546 43.827027520183158
v 28.662294833639891 -7.589242091474952 43.259831874042099
v 19.368356090353263 -30.357033101776057 39.129041353234996
v 26.031871027039170 -23.376829105333478 40.175729780034381
v 32.177266038196279 -15.584552114130675 40.175692165906071
v 37.324208122953273 -7.589256127480110 39.128920480689750
v 21.499097430843467 -37.006695133384319 34.131497540463123
v 28.397782346961279 -30.755098135685273 35.456971987896502
v 34.925515324091847 -23.376884142301826 35.934313402911833
v 40.525288368979169 -15.377549153045933 35.456896749386999
v 44.847363473233685 -7.401340166807675 34.131343006509198
v 23.010217801421074 -42.383369166411839 28.730374677020926
v 29.946538712993799 -37.006775168498017 30.102861132090343
v 36.692227668981069 -30.357166173786531 30.867201566534053
v 42.677510679847309 -22.767878182354508 30.867167942352069
v 47.457738744785615 -14.802711193565463 30.102758231624662
v 50.864873851991597 -7.063897206286035 28.730210426024509
v 57.387468583466045 11.429522726854092 18.663966777162784
v 58.515745984881207 16.549790693084503 13.037082826923582
v 54.291986532394503 19.376883736380492 19.555619514952241
v 58.347377437137531 21.660451657021650 6.684075785927111
v 54.724569961345892 24.881329701404891 13.543416513793908
v 49.685347509182911 27.458217745812561 20.052217146140411
v 56.693141911979005 26.350894621193913 0.000001643267456
v 53.762893436597714 30.032262664606080 6.862895417007020
v 49.316011960207256 33.008700710189267 13.725790088555634
v 43.700083520044352 35.047557754380513 20.052252683586381
v 53.675930374129138 30.272653588262980 -6.518572590457275
v 51.372722923479856 34.385249628809966 0.000003224733639
v 47.617522447750957 37.824668673403131 6.862914942079294
v 42.597101983354563 40.259059718765400 13.543475576556906
v 36.780847564171410 41.581092761447891 19.555731161653824
v 49.688843793308834 33.258124560117110 -12.442737886758016
v 47.838894384725073 37.674113596618476 -6.518586041556349
v 44.722632933706741 41.529677638329417 0.000005718160137
v 40.391604469726161 44.428584682725159 6.684123398265704
v 35.167560027253636 46.155463726507449 13.037187022525297
v 29.532877634014493 46.749194766728124 18.664119624500671
v 5.934141644127514 53.813075800509026 18.664100931368509
v 0.996936041897649 56.383903775421672 13.037153570894482
v -3.226836418684947 53.556739818717830 19.555718291233138
v -4.331017511108509 57.815650746744325 6.684092189563161
v -8.775604994631301 55.636722792304049 13.543453890732463
v -12.993055455664969 52.017764835535480 20.052275616038550
v -9.684295042978723 57.815677716211461 -0.000018185360282
v -14.390244525677598 56.385859762165587 6.862890493223474
v -18.837123010590631 53.409377807748868 13.725801198789897
v -22.677346459814846 49.118873849398327 20.052277954353041
v -14.665190588490898 56.383967686091417 -6.518607526021926
v -19.622543046097199 55.636813730437787 -0.000025868946526
v -24.333630529938517 53.409446776399328 6.862893813834929
v -28.398156003040182 49.762950820393300 13.543463550008664
v -31.560254430825960 45.075419859276444 19.555720355333897
v -18.979213177265137 53.813167658413569 -12.442768813469055
v -24.109700592537326 53.556903699610970 -6.518614171324532
v -29.052948051277834 52.017955743937200 -0.000021508736612
v -33.383976523558054 49.119037788332967 6.684099204500273
v -36.781025974291047 45.075515829499977 13.037166989690276
v -39.135163375184810 40.322040865024640 18.664102851978875
v -53.719861401653496 21.828441885901920 18.664038936202438
v -57.899533012619194 18.296983859730219 13.037099663654361
v -56.286122475701049 13.722729894670470 19.555640802790833
v -61.024006573725629 14.071172827898778 6.684061468976199
v -60.148042060665439 9.503771865842097 13.543394556425586
v -57.715306523407229 4.690391899553827 20.052192754310948
v -62.678272112313515 9.380766792071162 0.000000379920733
v -62.656410599497697 4.815854831257335 6.862873407537759
v -60.957830087041174 -0.000005131956664 13.725747554019856
v -57.715299536836078 -4.690390100446141 20.052199807917344
v -62.739444662661398 4.574216754909030 -6.518521596896838
v -63.499996125743706 -0.000021206752413 0.000026375976239
v -62.656395613287259 -4.815882168742525 6.862901462578783
v -60.148019087876669 -9.503786134157737 13.543428665044727
v -56.286107514990441 -13.722733105329395 19.555667959627311
v -61.418616254308432 -0.000024280834558 -12.442612478251814
v -62.739440675759958 -4.574271245090752 -6.518482544618081
v -62.678265139174897 -9.380821207928468 0.000066487133174
v -61.023987614016022 -14.071219172100815 6.684136629795514
v -57.899499065006950 -18.297012140269466 13.037161872770900
v -53.719834464149869 -21.828453114097893 18.664076185678994
v -39.135182490624480 -40.322033134975342 18.664098312813184
v -36.781053103339325 -45.075497170500029 13.037157504850853
v -31.560285559874039 -45.075417140723552 19.555711870493187
v -33.384010664182455 -49.119019211667059 6.684085765873279
v -28.398204145507655 -49.762939179606732 13.543444118739931
v -22.677383600438862 -49.118870150601680 20.052265515724049
v -29.052988200201828 -52.017941256062798 -0.000032914232623
v -24.333685682845637 -53.409420223600698 6.862873424240980
v -18.837180163497500 -53.409363192251156 13.725779809195087
v -12.993095604588433 -52.017761164464517 20.052264210540415
v -24.109729745867536 -53.556892300389030 -6.518621559231306
v -19.622591205381600 -55.636799269562225 -0.000040233083610
v -14.390296687106341 -56.385845237834417 6.862874137646865
v -8.775654153915667 -55.636719207695940 13.543442526594333
v -3.226866572014773 -53.556736181282147 19.555711903324468
v -18.979228331329445 -53.813160341586411 -12.442770198446016
v -14.665214749915137 -56.383957313908560 -6.518610881618174
v -9.684327208501680 -57.815674283788510 -0.000024524594211
v -4.331051676631395 -57.815651253255659 6.684085850328806
v 0.996909880473576 -56.383904224578302 13.037150215297427
v 5.934127490063450 -53.813080199490948 18.664099546390638
v 29.532873500174890 -46.749195233271941 18.664105158791241
v 35.167551895115153 -46.155487273492717 13.037153550030038
v 36.780844445129048 -41.581120238552273 19.555698636879011
v 40.391581342532703 -44.428608317275064 6.684074906033106
v 42.597082868099207 -40.259102281234924 13.543413036671703
v 43.700079419707365 -35.047604245619674 20.052217084140629
v 44.722602814813271 -41.529697361670848 -0.000050807204229
v 47.617495339466601 -37.824722326597296 6.862831374371236
v 49.315992865710413 -33.008762289811138 13.725711465807070
v 49.685339430574381 -27.458267254187671 20.052173459956759
v 47.838860276869745 -37.674137403381778 -6.518640610985742
v 51.372680825042991 -34.385311371190497 -0.000089382284124
v 53.762862350623848 -30.032343335394451 6.862793760240378
v 54.724558890117699 -24.881413298595568 13.543331798159301
v 54.291994476922369 -19.376932263619757 19.555576736409119
v 49.688808698095791 -33.258144439883104 -12.442785506657303
v 53.675877287466037 -30.272703411737432 -6.518659244478235
v 56.693095836545282 -26.350969378806642 -0.000108055574176
v 58.347362375132157 -21.660542342978939 6.683968033481239
v 58.515757937505533 -16.549866306915970 13.037002016070394
v 57.387480550746758 -11.429565273146162 18.663924907790488
v 18.979232079846692 53.813167746283838 12.442761844996669
v 24.109733494385750 53.556891705086386 6.518599205782005
v 14.665220498433085 56.383964718605938 6.518592528168968
v 29.052985948720679 52.017943660760110 0.000001560782884
v 19.622592953901002 55.636798674259488 0.000000879634168
v 9.684327957020034 57.815673688485866 0.000000171144700
v 33.384010412701443 49.119021616364357 -6.684119119322877
v 24.333673431365742 53.409419628297933 -6.862922777691401
v 14.390290435626166 56.385844642531659 -6.862919491096866
v 4.331048425149749 57.815650657953015 -6.684110203778597
v 36.781048851857754 45.075496575197384 -13.037182858300714
v 28.398190894027319 49.762923584303991 -13.543487472190337
v 18.837162912017448 53.409350596948400 -13.725827162645793
v 8.775641902435066 55.636714612393227 -13.543481880044732
v -0.996915131955366 56.383899629275668 -13.037172568747335
v 39.135175239142065 40.322032539672762 -18.664111666263256
v 31.560273308392397 45.075412545420917 -19.555736223943587
v 22.677363348957691 49.118861555299027 -20.052296869174981
v 12.993076353107130 52.017753569161854 -20.052293563991288
v 3.226853320533052 53.556731585979513 -19.555735256774931
v -5.934132741546308 53.813064604188405 -18.664106899840480
v -49.688831949575828 33.258140844580360 12.442738153206129
v -47.838863528349208 37.674140808078960 6.518585257535929
v -53.675900538943203 30.272689816434461 6.518570891027117
v -44.722588066292779 41.529715766368007 -0.000003546244411
v -51.372669076519784 34.385322775887431 -0.000003971164686
v -56.693108088020786 26.350951783503518 -0.000004297876148
v -40.391543594012980 44.428630721972262 -6.684118259480157
v -47.617446590944127 37.824752731294247 -6.862913727817562
v -53.762824602099649 30.032359740091284 -6.862901113687395
v -58.347342626607585 21.660521747675762 -6.684081386929305
v -35.167495146596472 46.155509678189965 -13.037181903475760
v -42.597007119578379 40.259154685931968 -13.543471390116267
v -49.315909117187971 33.008822694508048 -13.725792819251119
v -54.724498141594459 24.881448703292445 -13.543425151604815
v -58.515723188982548 16.549865711612902 -13.037092369517525
v -29.532816751657819 46.749228637969324 -18.664110512237020
v -36.780741696610889 41.581176643249506 -19.555718990321701
v -43.699972671188036 35.047687650316796 -20.052253437583197
v -49.685244682054140 27.458358658884752 -20.052222813400210
v -54.291933728401744 19.377000668316850 -19.555632089854821
v -57.387445802226260 11.429589677843298 -18.663979261237760
v -49.688836044792239 -33.258133155419628 12.442738533309042
v -53.675907625612432 -30.272686183565522 6.518571237009487
v -47.838867636208420 -37.674137191921020 6.518585688108790
v -56.693104163462252 -26.350945216496481 -0.000003996714091
v -51.372669174963271 -34.385319224112557 -0.000003578179044
v -44.722588185190318 -41.529713233631981 -0.000003071606367
v -58.347346688620597 -21.660522252324224 -6.684081139374121
v -53.762824688080883 -30.032360259908707 -6.862899770451214
v -47.617446699234534 -37.824753268705742 -6.862913295523072
v -40.391547721209960 -44.428623278027722 -6.684117751711076
v -58.515727236364000 -16.549864288387084 -13.037092180371417
v -54.724502212828824 -24.881447296707542 -13.543424867238061
v -49.315917211690611 -33.008820305491923 -13.725792441997884
v -42.597007234838365 -40.259151314068021 -13.543470929999316
v -35.167499278737431 -46.155506321810016 -13.037181375970366
v -57.387442834948615 -11.429590322156702 -18.663979130610159
v -54.291929783877009 -19.377001331683157 -19.555633868397159
v -49.685244760666073 -27.458357341115242 -20.052222499581983
v -43.699972771527854 -35.047688349683192 -20.052253037027445
v -36.780741815655759 -41.581177356750473 -19.555718515095499
v -29.532816885498423 -46.749226362030676 -18.664111977945801
v 18.979231925782230 -53.813168253716142 12.442762460020804
v 14.665216337008555 -56.383965281394048 6.518593172574149
v 24.109727341055066 -53.556892294913595 6.518598817876773
v 9.684325791496594 -57.815674311514123 0.000000831912848
v 19.622590794615576 -55.636799325740505 0.000001515500220
v 29.052983799795850 -52.017944339239868 0.000002155289484
v 4.331049259626374 -57.815651342046984 -6.684109543010501
v 14.390291274196185 -56.385845357468327 -6.862917846669848
v 24.333672278457051 -53.409420371702041 -6.862920167281723
v 33.384007272076083 -49.119022383635631 -6.684118557947773
v -0.996914293379983 -56.383896370724294 -13.037167924342569
v 8.775641743149533 -55.636711387606731 -13.543476244179523
v 18.837162759108949 -53.409355403051570 -13.725824552236809
v 28.398186751558217 -49.762928415695967 -13.543482903456205
v 36.781044722808602 -45.075497424802577 -13.037179343138636
v -5.934132895610485 -53.813072395811581 -18.664106284817482
v 3.226853167202479 -53.556728414020441 -19.555730644681599
v 12.993076204182715 -52.017750430838113 -20.052290969486744
v 22.677362208332525 -49.118858444700940 -20.052292307801590
v 31.560269179343624 -45.075413454579049 -19.555734708782467
v 39.135171123702065 -40.322033460327212 -18.664111205427940
v 61.418609002822841 -0.000001314467754 12.442644124801886
v 62.739436411176868 -4.574229350211427 6.518538243446765
v 62.739436424272661 4.574228649788571 6.518538191168459
v 62.678267860829848 -9.380770387373630 0.000004266629422
v 63.499999874258187 -0.000001388549921 0.000004270574585
v 62.678267887686530 9.380766612626367 0.000004159417763
v 61.024014322242728 -14.071173423201330 -6.684067822425219
v 62.656406348013803 -4.815860426559790 -6.862865760987591
v 62.656410361801377 4.815857573440203 -6.862865816027177
v 61.024010362527655 14.071167576798686 -6.684065983243192
v 57.899532761136513 -18.296980455032777 -13.037109017103967
v 60.148033809182543 -9.503768461144626 -13.543400909875752
v 60.957825835557216 -0.000002463345784 -13.725738907469678
v 60.148041836391428 9.503765538855355 -13.543402018492584
v 57.899532813519862 18.296975544967218 -13.037109226217897
v 53.719861150170885 -21.828436481204484 -18.664049289652048
v 56.286115224218435 -13.722721489973020 -19.555651156240959
v 57.715303271924128 -4.690387494856346 -20.052196107760764
v 57.715303285352476 4.690386505143652 -20.052196161366627
v 56.286115263505913 13.722720510026976 -19.555651313076261
v 53.719861212664625 21.828435518795509 -18.664049539126584
v 36.643701934032727 33.258010485716227 -28.730370800389704
v 31.560089308032516 30.272531462128974 -34.131483139366345
v 28.949797036478571 37.673919488886803 -30.102869364476092
v 25.353794652427631 26.350791442454973 -39.129026551621166
v 22.974524406751225 34.385085466844608 -35.456964764167715
v 20.000633095530326 41.529429497329438 -30.867227013273705
v 18.346153935023519 21.660392428880666 -43.259891015606776
v 16.088734731004049 30.032149449736398 -40.175723221547763
v 13.340540445107136 37.824473477907574 -35.934325458549615
v 10.316380099679492 44.428325511192249 -30.867219708087649
v 11.057767134827873 16.549783422414340 -46.217219496853509
v 8.775499979354098 24.881293439339967 -43.827025704304752
v 6.145445735263460 33.008601463970074 -40.175704934946793
v 3.352111415157953 40.258899494933729 -35.456944172012712
v 0.616476048617991 46.155253529445368 -30.102850397300593
v 4.031130249199132 11.429550422542913 -47.954902959713280
v 1.613371138873255 19.376916435933889 -46.217197174458697
v -1.022277056679927 27.458220456606337 -43.259850405229621
v -3.698891335127428 35.047511484043504 -39.128967636058086
v -6.217628675783602 41.580989516207154 -34.131428849796052
v -8.425464046657138 46.749072550231787 -28.730344033957156
v -23.010277052903742 42.383338571109356 -28.730385030474466
v -21.499150682327045 37.006663538081902 -34.131494893916233
v -29.946635964476808 37.006701573195613 -30.102867485546298
v -19.368405341836890 30.357011506473647 -39.129037706687882
v -28.397870598444971 30.755038540382920 -35.456968341351903
v -36.692334920464951 30.357060578484219 -30.867195919990525
v -16.691762063390808 22.767713479036534 -43.259900475857357
v -26.031947278523390 23.376788510031147 -40.175718133489056
v -34.925603575576616 23.376801546999559 -35.934294756367102
v -42.677602931332260 22.767760587052255 -30.867147295807424
v -13.668070867673141 14.802584457808765 -46.217221218573243
v -22.974372034251097 15.377459484789181 -43.827016873636403
v -32.177335289681267 15.584506518828400 -40.175669519360220
v -40.525365620464761 15.377475557743715 -35.456866102841552
v -47.457803996270968 14.802613598263207 -30.102731585078239
v -10.553565757050533 7.063829443420566 -47.954899956222469
v -19.505152878270007 7.401287466164572 -46.217191585086091
v -28.662345085124016 7.589223496172581 -43.259821227495074
v -37.324262374437964 7.589226532177790 -39.128901834142944
v -44.847405724718953 7.401294571505383 -34.131316359961460
v -50.864897103476537 7.063841610983689 -28.730188779475384
v -50.864893123699630 -7.063852389016344 -28.730193698743260
v -44.847398745908258 -7.401320428494649 -34.131320275372332
v -47.457792038650162 -14.802637401736808 -30.102731415899996
v -37.324250396165397 -7.589265467822242 -39.128904747405535
v -40.525349664490555 -15.377524442256240 -35.456854927092856
v -42.677598996516139 -22.767792412947671 -30.867135035597002
v -28.662337106852224 -7.589276503827383 -43.259813140757899
v -32.177335334300111 -15.584587481171512 -40.175654341246336
v -34.925599642505532 -23.376877453000265 -35.934263489195772
v -36.692327007377614 -30.357103421515639 -30.867169573042574
v -19.505150899460457 -7.401349533835360 -46.217179500497181
v -22.974379078277767 -15.377561515210674 -43.826993697889193
v -26.031947345453290 -23.376892489968590 -40.175672866317996
v -28.397864686498973 -30.755121459616781 -35.456914989855427
v -29.946632070427764 -37.006744426804168 -30.102831062600693
v -10.553577777274588 -7.063897556579370 -47.954891875491285
v -13.668095910054486 -14.802703542191026 -46.217191049397385
v -16.691789128577845 -22.767853520963097 -43.259843215649028
v -19.368424428752828 -30.357138493525905 -39.128964359741907
v -21.499160788280275 -37.006756461917682 -34.131425470971763
v -23.010279174248311 -42.383385428890378 -28.730340546080331
v 45.657476917669534 21.828402472813398 -28.730342103785262
v 47.838583002189225 13.722695461848286 -30.102814904709287
v 41.004480290887535 18.296918448609738 -34.131451409483077
v 49.053278042791348 4.690367455741691 -30.867157768021965
v 42.596880371130958 9.503721438755960 -35.456918247709218
v 35.038004634847724 14.071104428592419 -39.128999803204273
v 49.053282029362180 -4.690397544258245 -30.867145714415880
v 43.170389390958498 -0.000028564792802 -35.934270153234223
v 35.975290694904210 4.815810421269551 -40.175675684671504
v 28.030375917443820 9.380709415018078 -43.259867267189065
v 47.838601962899752 -13.722721538151569 -30.102785747872797
v 42.596918343920301 -9.503778561243937 -35.456891139089358
v 35.975325681115621 -4.815887578730412 -40.175660629629299
v 28.397898943734926 -0.000043588748835 -43.826994187843411
v 20.502191117683740 4.574184408894993 -46.217199766968015
v 45.657506855173054 -21.828428527186411 -28.730301854308863
v 41.004538238500004 -18.296972551389988 -34.131390200365459
v 35.038088594558452 -14.071183571407349 -39.128938642381002
v 28.030457890584234 -9.380800584981797 -43.259825159971818
v 20.502238104586343 -4.574269591104941 -46.217176714686438
v 13.044959232837661 -0.000033590360134 -47.954898263105193
v -8.425437180494312 -46.749039449768489 -28.730387499666001
v -6.217572794823288 -41.580921483793283 -34.131493374568457
v 0.616514916479689 -46.155228470554832 -30.102876869795239
v -3.698812435462044 -35.047413515956961 -39.129032235499373
v 3.352188299901155 -40.258846505066565 -35.456977711893572
v 10.316426972484315 -44.428303488807877 -30.867232200318568
v -1.022185135287889 -27.458118543394068 -43.259899091407107
v 6.145551640763143 -33.008545536030198 -40.175727557688404
v 13.340634336818116 -37.824448522092588 -35.934333026251885
v 20.000686976633062 -41.529419502670578 -30.867218538635193
v 1.613460083399536 -19.376837564066339 -46.217215952996504
v 8.775618908120512 -24.881254560660217 -43.827029419931378
v 16.088850645022170 -30.032133550263659 -40.175703878305953
v 22.974617308306314 -34.385082533155341 -35.456934371178271
v 28.949843928617742 -37.673920511113067 -30.102836933902161
v 4.031207216476925 -11.429525577457193 -47.954902829081092
v 11.057881087445313 -16.549789577585710 -46.217200307700040
v 18.346285873007893 -21.660421571119272 -43.259848768043383
v 25.353912576982005 -26.350826557544817 -39.128961250452718
v 31.560173221359431 -30.272560537870788 -34.131421793379225
v 36.643735838813853 -33.258022514283581 -28.730330420285508
f 1 20 19
f 2 26 40
f 1 19 54
f 1 54 68
f 1 68 41
f 2 40 89
f 3 33 103
f 4 61 117
f 5 75 131
f 6 82 145
f 2 89 104
f 3 103 118
f 4 117 132
f 5 131 146
f 6 145 90
f 7 159 194
f 8 166 208
f 9 173 215
f 10 180 222
f 11 187 195
f 201 216 12
f 200 223 201
f 199 224 200
f 198 226 199
f 197 229 198
f 196 233 197
f 195 238 196
f 201 223 216
f 223 217 216
f 200 224 223
f 224 225 223
f 223 225 217
f 225 218 217
f 199 226 224
f 226 227 224
f 224 227 225
f 227 228 225
f 225 228 218
f 228 219 218
f 198 229 226
f 229 230 226
f 226 230 227
f 230 231 227
f 227 231 228
f 231 232 228
f 228 232 219
f 232 220 219
f 197 233 229
f 233 234 229
f 229 234 230
f 234 235 230
f 230 235 231
f 235 236 231
f 231 236 232
f 236 237 232
f 232 237 220
f 237 221 220
f 196 238 233
f 238 239 233
f 233 239 234
f 239 240 234
f 234 240 235
f 240 241 235
f 235 241 236
f 241 242 236
f 236 242 237
f 242 243 237
f 237 243 221
f 243 222 221
f 195 187 238
f 187 186 238
f 238 186 239
f 186 185 239
f 239 185 240
f 185 184 240
f 240 184 241
f 184 183 241
f 241 183 242
f 183 182 242
f 242 182 243
f 182 181 243
f 243 181 222
f 181 10 222
f 216 209 12
f 217 244 216
f 218 245 217
f 219 247 218
f 220 250 219
f 221 254 220
f 222 259 221
f 216 244 209
f 244 210 209
f 217 245 244
f 245 246 244
f 244 246 210
f 246 211 210
f 218 247 245
f 247 248 245
f 245 248 246
f 248 249 246
f 246 249 211
f 249 212 211
f 219 250 247
f 250 251 247
f 247 251 248
f 251 252 248
f 248 252 249
f 252 253 249
f 249 253 212
f 253 213 212
f 220 254 250
f 254 255 250
f 250 255 251
f 255 256 251
f 251 256 252
f 256 257 252
f 252 257 253
f 257 258 253
f 253 258 213
f 258 214 213
f 221 259 254
f 259 260 254
f 254 260 255
f 260 261 255
f 255 261 256
f 261 262 256
f 256 262 257
f 262 263 257
f 257 263 258
f 263 264 258
f 258 264 214
f 264 215 214
f 222 180 259
f 180 179 259
f 259 179 260
f 179 178 260
f 260 178 261
f 178 177 261
f 261 177 262
f 177 176 262
f 262 176 263
f 176 175 263
f 263 175 264
f 175 174 264
f 264 174 215
f 174 9 215
f 209 202 12
f 210 265 209
f 211 266 210
f 212 268 211
f 213 271 212
f 214 275 213
f 215 280 214
f 209 265 202
f 265 203 202
f 210 266 265
f 266 267 265
f 265 267 203
f 267 204 203
f 211 268 266
f 268 269 266
f 266 269 267
f 269 270 267
f 267 270 204
f 270 205 204
f 212 271 268
f 271 272 268
f 268 272 269
f 272 273 269
f 269 273 270
f 273 274 270
f 270 274 205
f 274 206 205
f 213 275 271
f 275 276 271
f 271 276 272
f 276 277 272
f 272 277 273
f 277 278 273
f 273 278 274
f 278 279 274
f 274 279 206
f 279 207 206
f 214 280 275
f 280 281 275
f 275 281 276
f 281 282 276
f 276 282 277
f 282 283 277
f 277 283 278
f 283 284 278
f 278 284 279
f 284 285 279
f 279 285 207
f 285 208 207
f 215 173 280
f 173 172 280
f 280 172 281
f 172 171 281
f 281 171 282
f 171 170 282
f 282 170 283
f 170 169 283
f 283 169 284
f 169 168 284
f 284 168 285
f 168 167 285
f 285 167 208
f 167 8 208
f 202 188 12
f 203 286 202
f 204 287 203
f 205 289 204
f 206 292 205
f 207 296 206
f 208 301 207
f 202 286 188
f 286 189 188
f 203 287 286
f 287 288 286
f 286 288 189
f 288 190 189
f 204 289 287
f 289 290 287
f 287 290 288
f 290 291 288
f 288 291 190
f 291 191 190
f 205 292 289
f 292 293 289
f 289 293 290
f 293 294 290
f 290 294 291
f 294 295 291
f 291 295 191
f 295 192 191
f 206 296 292
f 296 297 292
f 292 297 293
f 297 298 293
f 293 298 294
f 298 299 294
f 294 299 295
f 299 300 295
f 295 300 192
f 300 193 192
f 207 301 296
f 301 302 296
f 296 302 297
f 302 303 297
f 297 303 298
f 303 304 298
f 298 304 299
f 304 305 299
f 299 305 300
f 305 306 300
f 300 306 193
f 306 194 193
f 208 166 301
f 166 165 301
f 301 165 302
f 165 164 302
f 302 164 303
f 164 163 303
f 303 163 304
f 163 162 304
f 304 162 305
f 162 161 305
f 305 161 306
f 161 160 306
f 306 160 194
f 160 7 194
f 188 201 12
f 189 307 188
f 190 308 189
f 191 310 190
f 192 313 191
f 193 317 192
f 194 322 193
f 188 307 201
f 307 200 201
f 189 308 307
f 308 309 307
f 307 309 200
f 309 199 200
f 190 310 308
f 310 311 308
f 308 311 309
f 311 312 309
f 309 312 199
f 312 198 199
f 191 313 310
f 313 314 310
f 310 314 311
f 314 315 311
f 311 315 312
f 315 316 312
f 312 316 198
f 316 197 198
f 192 317 313
f 317 318 313
f 313 318 314
f 318 319 314
f 314 319 315
f 319 320 315
f 315 320 316
f 320 321 316
f 316 321 197
f 321 196 197
f 193 322 317
f 322 323 317
f 317 323 318
f 323 324 318
f 318 324 319
f 324 325 319
f 319 325 320
f 325 326 320
f 320 326 321
f 326 327 321
f 321 327 196
f 327 195 196
f 194 159 322
f 159 158 322
f 322 158 323
f 158 157 323
f 323 157 324
f 157 156 324
f 324 156 325
f 156 155 325
f 325 155 326
f 155 154 326
f 326 154 327
f 154 153 327
f 327 153 195
f 153 11 195
f 96 187 11
f 95 328 96
f 94 329 95
f 93 331 94
f 92 334 93
f 91 338 92
f 90 343 91
f 96 328 187
f 328 186 187
f 95 329 328
f 329 330 328
f 328 330 186
f 330 185 186
f 94 331 329
f 331 332 329
f 329 332 330
f 332 333 330
f 330 333 185
f 333 184 185
f 93 334 331
f 334 335 331
f 331 335 332
f 335 336 332
f 332 336 333
f 336 337 333
f 333 337 184
f 337 183 184
f 92 338 334
f 338 339 334
f 334 339 335
f 339 340 335
f 335 340 336
f 340 341 336
f 336 341 337
f 341 342 337
f 337 342 183
f 342 182 183
f 91 343 338
f 343 344 338
f 338 344 339
f 344 345 339
f 339 345 340
f 345 346 340
f 340 346 341
f 346 347 341
f 341 347 342
f 347 348 342
f 342 348 182
f 348 181 182
f 90 145 343
f 145 144 343
f 343 144 344
f 144 143 344
f 344 143 345
f 143 142 345
f 345 142 346
f 142 141 346
f 346 141 347
f 141 140 347
f 347 140 348
f 140 139 348
f 348 139 181
f 139 10 181
f 152 180 10
f 151 349 152
f 150 350 151
f 149 352 150
f 148 355 149
f 147 359 148
f 146 364 147
f 152 349 180
f 349 179 180
f 151 350 349
f 350 351 349
f 349 351 179
f 351 178 179
f 150 352 350
f 352 353 350
f 350 353 351
f 353 354 351
f 351 354 178
f 354 177 178
f 149 355 352
f 355 356 352
f 352 356 353
f 356 357 353
f 353 357 354
f 357 358 354
f 354 358 177
f 358 176 177
f 148 359 355
f 359 360 355
f 355 360 356
f 360 361 356
f 356 361 357
f 361 362 357
f 357 362 358
f 362 363 358
f 358 363 176
f 363 175 176
f 147 364 359
f 364 365 359
f 359 365 360
f 365 366 360
f 360 366 361
f 366 367 361
f 361 367 362
f 367 368 362
f 362 368 363
f 368 369 363
f 363 369 175
f 369 174 175
f 146 131 364
f 131 130 364
f 364 130 365
f 130 129 365
f 365 129 366
f 129 128 366
f 366 128 367
f 128 127 367
f 367 127 368
f 127 126 368
f 368 126 369
f 126 125 369
f 369 125 174
f 125 9 174
f 138 173 9
f 137 370 138
f 136 371 137
f 135 373 136
f 134 376 135
f 133 380 134
f 132 385 133
f 138 370 173
f 370 172 173
f 137 371 370
f 371 372 370
f 370 372 172
f 372 171 172
f 136 373 371
f 373 374 371
f 371 374 372
f 374 375 372
f 372 375 171
f 375 170 171
f 135 376 373
f 376 377 373
f 373 377 374
f 377 378 374
f 374 378 375
f 378 379 375
f 375 379 170
f 379 169 170
f 134 380 376
f 380 381 376
f 376 381 377
f 381 382 377
f 377 382 378
f 382 383 378
f 378 383 379
f 383 384 379
f 379 384 169
f 384 168 169
f 133 385 380
f 385 386 380
f 380 386 381
f 386 387 381
f 381 387 382
f 387 388 382
f 382 388 383
f 388 389 383
f 383 389 384
f 389 390 384
f 384 390 168
f 390 167 168
f 132 117 385
f 117 116 385
f 385 116 386
f 116 115 386
f 386 115 387
f 115 114 387
f 387 114 388
f 114 113 388
f 388 113 389
f 113 112 389
f 389 112 390
f 112 111 390
f 390 111 167
f 111 8 167
f 124 166 8
f 123 391 124
f 122 392 123
f 121 394 122
f 120 397 121
f 119 401 120
f 118 406 119
f 124 391 166
f 391 165 166
f 123 392 391
f 392 393 391
f 391 393 165
f 393 164 165
f 122 394 392
f 394 395 392
f 392 395 393
f 395 396 393
f 393 396 164
f 396 163 164
f 121 397 394
f 397 398 394
f 394 398 395
f 398 399 395
f 395 399 396
f 399 400 396
f 396 400 163
f 400 162 163
f 120 401 397
f 401 402 397
f 397 402 398
f 402 403 398
f 398 403 399
f 403 404 399
f 399 404 400
f 404 405 400
f 400 405 162
f 405 161 162
f 119 406 401
f 406 407 401
f 401 407 402
f 407 408 402
f 402 408 403
f 408 409 403
f 403 409 404
f 409 410 404
f 404 410 405
f 410 411 405
f 405 411 161
f 411 160 161
f 118 103 406
f 103 102 406
f 406 102 407
f 102 101 407
f 407 101 408
f 101 100 408
f 408 100 409
f 100 99 409
f 409 99 410
f 99 98 410
f 410 98 411
f 98 97 411
f 411 97 160
f 97 7 160
f 110 159 7
f 109 412 110
f 108 413 109
f 107 415 108
f 106 418 107
f 105 422 106
f 104 427 105
f 110 412 159
f 412 158 159
f 109 413 412
f 413 414 412
f 412 414 158
f 414 157 158
f 108 415 413
f 415 416 413
f 413 416 414
f 416 417 414
f 414 417 157
f 417 156 157
f 107 418 415
f 418 419 415
f 415 419 416
f 419 420 416
f 416 420 417
f 420 421 417
f 417 421 156
f 421 155 156
f 106 422 418
f 422 423 418
f 418 423 419
f 423 424 419
f 419 424 420
f 424 425 420
f 420 425 421
f 425 426 421
f 421 426 155
f 426 154 155
f 105 427 422
f 427 428 422
f 422 428 423
f 428 429 423
f 423 429 424
f 429 430 424
f 424 430 425
f 430 431 425
f 425 431 426
f 431 432 426
f 426 432 154
f 432 153 154
f 104 89 427
f 89 88 427
f 427 88 428
f 88 87 428
f 428 87 429
f 87 86 429
f 429 86 430
f 86 85 430
f 430 85 431
f 85 84 431
f 431 84 432
f 84 83 432
f 432 83 153
f 83 11 153
f 139 152 10
f 140 433 139
f 141 434 140
f 142 436 141
f 143 439 142
f 144 443 143
f 145 448 144
f 139 433 152
f 433 151 152
f 140 434 433
f 434 435 433
f 433 435 151
f 435 150 151
f 141 436 434
f 436 437 434
f 434 437 435
f 437 438 435
f 435 438 150
f 438 149 150
f 142 439 436
f 439 440 436
f 436 440 437
f 440 441 437
f 437 441 438
f 441 442 438
f 438 442 149
f 442 148 149
f 143 443 439
f 443 444 439
f 439 444 440
f 444 445 440
f 440 445 441
f 445 446 441
f 441 446 442
f 446 447 442
f 442 447 148
f 447 147 148
f 144 448 443
f 448 449 443
f 443 449 444
f 449 450 444
f 444 450 445
f 450 451 445
f 445 451 446
f 451 452 446
f 446 452 447
f 452 453 447
f 447 453 147
f 453 146 147
f 145 82 448
f 82 81 448
f 448 81 449
f 81 80 449
f 449 80 450
f 80 79 450
f 450 79 451
f 79 78 451
f 451 78 452
f 78 77 452
f 452 77 453
f 77 76 453
f 453 76 146
f 76 5 146
f 125 138 9
f 126 454 125
f 127 455 126
f 128 457 127
f 129 460 128
f 130 464 129
f 131 469 130
f 125 454 138
f 454 137 138
f 126 455 454
f 455 456 454
f 454 456 137
f 456 136 137
f 127 457 455
f 457 458 455
f 455 458 456
f 458 459 456
f 456 459 136
f 459 135 136
f 128 460 457
f 460 461 457
f 457 461 458
f 461 462 458
f 458 462 459
f 462 463 459
f 459 463 135
f 463 134 135
f 129 464 460
f 464 465 460
f 460 465 461
f 465 466 461
f 461 466 462
f 466 467 462
f 462 467 463
f 467 468 463
f 463 468 134
f 468 133 134
f 130 469 464
f 469 470 464
f 464 470 465
f 470 471 465
f 465 471 466
f 471 472 466
f 466 472 467
f 472 473 467
f 467 473 468
f 473 474 468
f 468 474 133
f 474 132 133
f 131 75 469
f 75 74 469
f 469 74 470
f 74 73 470
f 470 73 471
f 73 72 471
f 471 72 472
f 72 71 472
f 472 71 473
f 71 70 473
f 473 70 474
f 70 69 474
f 474 69 132
f 69 4 132
f 111 124 8
f 112 475 111
f 113 476 112
f 114 478 113
f 115 481 114
f 116 485 115
f 117 490 116
f 111 475 124
f 475 123 124
f 112 476 475
f 476 477 475
f 475 477 123
f 477 122 123
f 113 478 476
f 478 479 476
f 476 479 477
f 479 480 477
f 477 480 122
f 480 121 122
f 114 481 478
f 481 482 478
f 478 482 479
f 482 483 479
f 479 483 480
f 483 484 480
f 480 484 121
f 484 120 121
f 115 485 481
f 485 486 481
f 481 486 482
f 486 487 482
f 482 487 483
f 487 488 483
f 483 488 484
f 488 489 484
f 484 489 120
f 489 119 120
f 116 490 485
f 490 491 485
f 485 491 486
f 491 492 486
f 486 492 487
f 492 493 487
f 487 493 488
f 493 494 488
f 488 494 489
f 494 495 489
f 489 495 119
f 495 118 119
f 117 61 490
f 61 60 490
f 490 60 491
f 60 59 491
f 491 59 492
f 59 58 492
f 492 58 493
f 58 57 493
f 493 57 494
f 57 56 494
f 494 56 495
f 56 55 495
f 495 55 118
f 55 3 118
f 97 110 7
f 98 496 97
f 99 497 98
f 100 499 99
f 101 502 100
f 102 506 101
f 103 511 102
f 97 496 110
f 496 109 110
f 98 497 496
f 497 498 496
f 496 498 109
f 498 108 109
f 99 499 497
f 499 500 497
f 497 500 498
f 500 501 498
f 498 501 108
f 501 107 108
f 100 502 499
f 502 503 499
f 499 503 500
f 503 504 500
f 500 504 501
f 504 505 501
f 501 505 107
f 505 106 107
f 101 506 502
f 506 507 502
f 502 507 503
f 507 508 503
f 503 508 504
f 508 509 504
f 504 509 505
f 509 510 505
f 505 510 106
f 510 105 106
f 102 511 506
f 511 512 506
f 506 512 507
f 512 513 507
f 507 513 508
f 513 514 508
f 508 514 509
f 514 515 509
f 509 515 510
f 515 516 510
f 510 516 105
f 516 104 105
f 103 33 511
f 33 32 511
f 511 32 512
f 32 31 512
f 512 31 513
f 31 30 513
f 513 30 514
f 30 29 514
f 514 29 515
f 29 28 515
f 515 28 516
f 28 27 516
f 516 27 104
f 27 2 104
f 83 96 11
f 84 517 83
f 85 518 84
f 86 520 85
f 87 523 86
f 88 527 87
f 89 532 88
f 83 517 96
f 517 95 96
f 84 518 517
f 518 519 517
f 517 519 95
f 519 94 95
f 85 520 518
f 520 521 518
f 518 521 519
f 521 522 519
f 519 522 94
f 522 93 94
f 86 523 520
f 523 524 520
f 520 524 521
f 524 525 521
f 521 525 522
f 525 526 522
f 522 526 93
f 526 92 93
f 87 527 523
f 527 528 523
f 523 528 524
f 528 529 524
f 524 529 525
f 529 530 525
f 525 530 526
f 530 531 526
f 526 531 92
f 531 91 92
f 88 532 527
f 532 533 527
f 527 533 528
f 533 534 528
f 528 534 529
f 534 535 529
f 529 535 530
f 535 536 530
f 530 536 531
f 536 537 531
f 531 537 91
f 537 90 91
f 89 40 532
f 40 39 532
f 532 39 533
f 39 38 533
f 533 38 534
f 38 37 534
f 534 37 535
f 37 36 535
f 535 36 536
f 36 35 536
f 536 35 537
f 35 34 537
f 537 34 90
f 34 6 90
f 47 82 6
f 46 538 47
f 45 539 46
f 44 541 45
f 43 544 44
f 42 548 43
f 41 553 42
f 47 538 82
f 538 81 82
f 46 539 538
f 539 540 538
f 538 540 81
f 540 80 81
f 45 541 539
f 541 542 539
f 539 542 540
f 542 543 540
f 540 543 80
f 543 79 80
f 44 544 541
f 544 545 541
f 541 545 542
f 545 546 542
f 542 546 543
f 546 547 543
f 543 547 79
f 547 78 79
f 43 548 544
f 548 549 544
f 544 549 545
f 549 550 545
f 545 550 546
f 550 551 546
f 546 551 547
f 551 552 547
f 547 552 78
f 552 77 78
f 42 553 548
f 553 554 548
f 548 554 549
f 554 555 549
f 549 555 550
f 555 556 550
f 550 556 551
f 556 557 551
f 551 557 552
f 557 558 552
f 552 558 77
f 558 76 77
f 41 68 553
f 68 67 553
f 553 67 554
f 67 66 554
f 554 66 555
f 66 65 555
f 555 65 556
f 65 64 556
f 556 64 557
f 64 63 557
f 557 63 558
f 63 62 558
f 558 62 76
f 62 5 76
f 62 75 5
f 63 559 62
f 64 560 63
f 65 562 64
f 66 565 65
f 67 569 66
f 68 574 67
f 62 559 75
f 559 74 75
f 63 560 559
f 560 561 559
f 559 561 74
f 561 73 74
f 64 562 560
f 562 563 560
f 560 563 561
f 563 564 561
f 561 564 73
f 564 72 73
f 65 565 562
f 565 566 562
f 562 566 563
f 566 567 563
f 563 567 564
f 567 568 564
f 564 568 72
f 568 71 72
f 66 569 565
f 569 570 565
f 565 570 566
f 570 571 566
f 566 571 567
f 571 572 567
f 567 572 568
f 572 573 568
f 568 573 71
f 573 70 71
f 67 574 569
f 574 575 569
f 569 575 570
f 575 576 570
f 570 576 571
f 576 577 571
f 571 577 572
f 577 578 572
f 572 578 573
f 578 579 573
f 573 579 70
f 579 69 70
f 68 54 574
f 54 53 574
f 574 53 575
f 53 52 575
f 575 52 576
f 52 51 576
f 576 51 577
f 51 50 577
f 577 50 578
f 50 49 578
f 578 49 579
f 49 48 579
f 579 48 69
f 48 4 69
f 48 61 4
f 49 580 48
f 50 581 49
f 51 583 50
f 52 586 51
f 53 590 52
f 54 595 53
f 48 580 61
f 580 60 61
f 49 581 580
f 581 582 580
f 580 582 60
f 582 59 60
f 50 583 581
f 583 584 581
f 581 584 582
f 584 585 582
f 582 585 59
f 585 58 59
f 51 586 583
f 586 587 583
f 583 587 584
f 587 588 584
f 584 588 585
f 588 589 585
f 585 589 58
f 589 57 58
f 52 590 586
f 590 591 586
f 586 591 587
f 591 592 587
f 587 592 588
f 592 593 588
f 588 593 589
f 593 594 589
f 589 594 57
f 594 56 57
f 53 595 590
f 595 596 590
f 590 596 591
f 596 597 591
f 591 597 592
f 597 598 592
f 592 598 593
f 598 599 593
f 593 599 594
f 599 600 594
f 594 600 56
f 600 55 56
f 54 19 595
f 19 18 595
f 595 18 596
f 18 17 596
f 596 17 597
f 17 16 597
f 597 16 598
f 16 15 598
f 598 15 599
f 15 14 599
f 599 14 600
f 14 13 600
f 600 13 55
f 13 3 55
f 34 47 6
f 35 601 34
f 36 602 35
f 37 604 36
f 38 607 37
f 39 611 38
f 40 616 39
f 34 601 47
f 601 46 47
f 35 602 601
f 602 603 601
f 601 603 46
f 603 45 46
f 36 604 602
f 604 605 602
f 602 605 603
f 605 606 603
f 603 606 45
f 606 44 45
f 37 607 604
f 607 608 604
f 604 608 605
f 608 609 605
f 605 609 606
f 609 610 606
f 606 610 44
f 610 43 44
f 38 611 607
f 611 612 607
f 607 612 608
f 612 613 608
f 608 613 609
f 613 614 609
f 609 614 610
f 614 615 610
f 610 615 43
f 615 42 43
f 39 616 611
f 616 617 611
f 611 617 612
f 617 618 612
f 612 618 613
f 618 619 613
f 613 619 614
f 619 620 614
f 614 620 615
f 620 621 615
f 615 621 42
f 621 41 42
f 40 26 616
f 26 25 616
f 616 25 617
f 25 24 617
f 617 24 618
f 24 23 618
f 618 23 619
f 23 22 619
f 619 22 620
f 22 21 620
f 620 21 621
f 21 20 621
f 621 20 41
f 20 1 41
f 13 33 3
f 14 622 13
f 15 623 14
f 16 625 15
f 17 628 16
f 18 632 17
f 19 637 18
f 13 622 33
f 622 32 33
f 14 623 622
f 623 624 622
f 622 624 32
f 624 31 32
f 15 625 623
f 625 626 623
f 623 626 624
f 626 627 624
f 624 627 31
f 627 30 31
f 16 628 625
f 628 629 625
f 625 629 626
f 629 630 626
f 626 630 627
f 630 631 627
f 627 631 30
f 631 29 30
f 17 632 628
f 632 633 628
f 628 633 629
f 633 634 629
f 629 634 630
f 634 635 630
f 630 635 631
f 635 636 631
f 631 636 29
f 636 28 29
f 18 637 632
f 637 638 632
f 632 638 633
f 638 639 633
f 633 639 634
f 639 640 634
f 634 640 635
f 640 641 635
f 635 641 636
f 641 642 636
f 636 642 28
f 642 27 28
f 19 20 637
f 20 21 637
f 637 21 638
f 21 22 638
f 638 22 639
f 22 23 639
f 639 23 640
f 23 24 640
f 640 24 641
f 24 25 641
f 641 25 642
f 25 26 642
f 642 26 27
f 26 2 27
