# Blender 4.0.2
# www.blender.org
o churyumov_gerasimenko_malmer
v -2.253644 -1.254681 -0.019107
v -2.332861 -1.068373 -0.299356
v -2.345222 -1.141024 -0.111464
v -2.371746 -0.875000 -0.346481
v -2.485834 -0.875000 -0.125000
v -2.346569 -0.625000 -0.362217
v -2.452641 -0.625000 -0.125000
v -2.299291 -0.429842 -0.320338
v -2.333102 -0.391835 -0.125000
v -2.058538 -1.309747 -0.282816
v -2.135123 -1.327276 -0.111464
v -2.005920 -1.005175 -0.503295
v -2.115562 -1.120107 -0.374419
v -2.225204 -1.235040 -0.185774
v -2.063041 -0.875000 -0.544704
v -2.188041 -0.875000 -0.471481
v -2.113694 -0.625000 -0.601939
v -2.238694 -0.625000 -0.487218
v -2.067536 -0.375000 -0.571869
v -2.198318 -0.357905 -0.392203
v -2.236971 -0.266835 -0.125000
v -2.016591 -0.237493 -0.516218
v -2.067805 -0.197550 -0.375000
v -2.111971 -0.147176 -0.125000
v -1.782011 -1.285604 -0.531913
v -1.869207 -1.353763 -0.369689
v -1.875000 -1.450076 -0.125000
v -1.869207 -1.103105 -0.570529
v -1.948678 -1.171841 -0.449482
v -1.795984 -0.831045 -0.789752
v -1.877590 -0.898627 -0.685168
v -1.844447 -0.625000 -0.833847
v -1.969447 -0.625000 -0.726939
v -1.833552 -0.375000 -0.833861
v -1.958552 -0.375000 -0.696869
v -1.781458 -0.221676 -0.789772
v -1.868875 -0.188690 -0.609731
v -1.868172 -0.071228 -0.372148
v -1.956637 -0.022176 -0.125000
v -1.517020 -1.261484 -0.760189
v -1.610212 -1.309065 -0.619148
v -1.625000 -1.429894 -0.375000
v -1.625000 -1.459095 -0.125000
v -1.574246 -1.125000 -0.799171
v -1.699246 -1.125000 -0.710690
v -1.529717 -0.784505 -1.025658
v -1.639179 -0.891109 -0.880896
v -1.748641 -0.997712 -0.749007
v -1.575042 -0.625000 -1.074019
v -1.700042 -0.625000 -0.958847
v -1.596155 -0.375000 -1.099199
v -1.721155 -0.375000 -0.958861
v -1.557868 -0.188366 -1.059231
v -1.624249 -0.121688 -0.872893
v -1.691899 -0.057743 -0.625000
v -1.731903 -0.021981 -0.453579
v -1.375000 -1.281185 -0.780516
v -1.375000 -1.350907 -0.625000
v -1.375000 -1.410727 -0.375000
v -1.375000 -1.423725 -0.125000
v -1.256737 -1.003953 -1.002466
v -1.354043 -1.102372 -0.907636
v -1.354043 -0.870703 -1.058637
v -1.423404 -0.951172 -0.972039
v -1.320388 -0.565187 -1.286172
v -1.392233 -0.639112 -1.200978
v -1.311117 -0.375000 -1.280279
v -1.436117 -0.375000 -1.224199
v -1.261101 -0.242835 -1.254200
v -1.358933 -0.132267 -1.126673
v -1.456765 -0.021699 -0.956014
v -1.125000 -1.283007 -0.788550
v -1.125000 -1.339127 -0.625000
v -1.125000 -1.370346 -0.375000
v -1.125000 -1.399866 -0.125000
v -1.125000 -1.023863 -1.018061
v -1.125000 -1.148863 -0.913550
v -1.049217 -0.768117 -1.272410
v -1.129531 -0.860870 -1.156212
v -1.129531 -0.639112 -1.323447
v -1.215884 -0.731853 -1.236273
v -1.125000 -0.375000 -1.348730
v -1.101702 -0.145701 -1.269816
v -1.169504 -0.076168 -1.194115
v -0.970700 -1.263913 -0.770901
v -0.882420 -1.287884 -0.620997
v -0.875000 -1.346350 -0.375000
v -0.875000 -1.382246 -0.125000
v -0.875000 -1.030056 -1.032146
v -0.882420 -1.159902 -0.862541
v -0.804034 -1.226429 -0.701662
v -0.875000 -0.797504 -1.313594
v -0.875000 -0.922504 -1.157146
v -0.768246 -0.524786 -1.505765
v -0.860948 -0.614871 -1.439173
v -0.768246 -0.485237 -1.505765
v -0.860948 -0.391142 -1.438682
v -0.875000 -0.125000 -1.346758
v -0.625000 -1.280265 -0.558939
v -0.600421 -1.297992 -0.350715
v -0.663110 -1.304002 -0.125000
v -0.625000 -1.015610 -1.028271
v -0.625000 -1.106308 -0.875000
v -0.625000 -1.215699 -0.683939
v -0.500701 -1.249464 -0.251192
v -0.538110 -1.224626 -0.125000
v -0.544869 -0.765959 -1.533127
v -0.626922 -0.816553 -1.387429
v -0.625000 -0.946222 -1.153271
v -0.626922 -0.614871 -1.543581
v -0.711536 -0.691452 -1.479048
v -0.608267 -0.391142 -1.526796
v -0.680445 -0.318571 -1.473203
v -0.513778 -0.192992 -1.505151
v -0.608267 -0.115795 -1.458641
v -0.469360 -1.274344 -0.543591
v -0.469360 -1.274344 -0.417859
v -0.455195 -1.008601 -1.016449
v -0.373117 -1.060637 -0.890268
v -0.381616 -1.177236 -0.626154
v -0.381616 -1.189011 -0.350715
v -0.364025 -1.097274 -0.120850
v -0.375000 -0.773754 -1.539956
v -0.375000 -0.841705 -1.375000
v -0.373117 -0.948943 -1.109870
v -0.288528 -0.990970 -0.983780
v -0.273375 -0.977111 -0.034749
v -0.375000 -0.625000 -1.594134
v -0.375000 -0.375000 -1.586984
v -0.395864 -0.115795 -1.541524
v -0.493106 -0.026325 -1.497551
v -0.208634 -1.031291 -0.817113
v -0.167835 -1.050668 -0.625000
v -0.109087 -1.042121 -0.369376
v -0.125000 -1.025451 -0.172698
v -0.228093 -0.765713 -1.520148
v -0.201880 -0.792430 -1.375000
v -0.161979 -0.836373 -1.125000
v -0.108429 -0.893373 -0.902318
v -0.042835 -0.966979 -0.625000
v -0.015146 -0.993531 -0.448960
v -0.125000 -0.980566 -0.047698
v -0.189777 -0.625000 -1.543982
v -0.076470 -0.602320 -1.355276
v -0.036979 -0.681840 -1.125000
v -0.008224 -0.738586 -0.987523
v -0.114966 -0.385473 -1.566238
v -0.024943 -0.475788 -1.425460
v -0.125000 -0.125000 -1.599150
v -2.253644 -1.254681 0.045824
v -2.339124 -1.147906 0.127494
v -2.335371 -1.099292 0.375000
v -2.291131 -1.052545 0.531222
v -2.480960 -0.875000 0.125000
v -2.442846 -0.875000 0.375000
v -2.311977 -0.851424 0.618733
v -2.251997 -0.752373 0.751663
v -2.468417 -0.625000 0.125000
v -2.447756 -0.625000 0.375000
v -2.362888 -0.625000 0.625000
v -2.277477 -0.625000 0.772912
v -2.336695 -0.355563 0.116201
v -2.375435 -0.375000 0.375000
v -2.321343 -0.356263 0.643597
v -2.284639 -0.427105 0.778887
v -2.266321 -0.232003 0.193668
v -2.285154 -0.202223 0.375000
v -2.280552 -0.204294 0.572661
v -2.146857 -1.315647 0.127494
v -2.070464 -1.283078 0.375000
v -2.015857 -1.253739 0.505761
v -2.244761 -1.246511 0.212490
v -2.195464 -1.224292 0.375000
v -2.109514 -1.131527 0.566538
v -2.125000 -0.930665 0.703851
v -2.125000 -0.805665 0.789054
v -2.105977 -0.609566 0.898575
v -2.009962 -0.515944 1.009386
v -2.242145 -0.259271 0.027001
v -2.245355 -0.260438 0.739327
v -2.176200 -0.356263 0.867471
v -2.036233 -0.375000 1.067900
v -2.132447 -0.117832 0.102435
v -2.180791 -0.077223 0.375000
v -2.201206 -0.122577 0.643597
v -2.132399 -0.125000 0.902071
v -2.040718 -0.125000 1.191181
v -1.875000 -1.408711 0.125000
v -1.875000 -1.336616 0.375000
v -1.875000 -1.274979 0.530709
v -1.890175 -1.122240 0.668915
v -1.816958 -1.037067 0.780217
v -1.983625 -0.988513 0.740580
v -1.890175 -0.893108 0.846373
v -1.875000 -0.695616 0.972803
v -1.875000 -0.570616 1.045299
v -1.873410 -0.366381 1.226355
v -1.763755 -0.277301 1.401989
v -1.995230 -0.003662 0.011201
v -1.927479 -0.125000 1.384355
v -1.779869 -0.125000 1.537689
v -1.625000 -1.417261 0.125000
v -1.625000 -1.360774 0.375000
v -1.625000 -1.287933 0.541241
v -1.625000 -1.171387 0.666241
v -1.625000 -1.046387 0.792502
v -1.625000 -0.875000 0.914853
v -1.625000 -0.745968 0.997351
v -1.625000 -0.620968 1.093527
v -1.624767 -0.443481 1.268462
v -1.600012 -0.318480 1.412369
v -1.570782 -0.125000 1.677880
v -1.375000 -1.419241 0.125000
v -1.375000 -1.367840 0.375000
v -1.375000 -1.281318 0.532002
v -1.375000 -1.156971 0.657002
v -1.375000 -1.031971 0.780184
v -1.375000 -0.875000 0.885141
v -1.375000 -0.718869 0.979957
v -1.375000 -0.593869 1.077150
v -1.374996 -0.429480 1.242337
v -1.362466 -0.304480 1.386647
v -1.387448 -0.125000 1.612363
v -1.125000 -1.408479 0.125000
v -1.127876 -1.320719 0.377028
v -1.213126 -1.270746 0.522865
v -1.046459 -1.213582 0.461713
v -1.136500 -1.115713 0.614300
v -1.226540 -1.017845 0.763793
v -1.059874 -0.943532 0.705734
v -1.135924 -0.866119 0.804872
v -1.125000 -0.675806 0.933246
v -1.125000 -0.550806 1.045764
v -1.125935 -0.398210 1.187286
v -1.164479 -0.273210 1.322947
v -1.248369 -0.125000 1.470866
v -0.871464 -1.330491 0.126067
v -0.952440 -1.287062 0.295046
v -0.785773 -1.221357 0.210112
v -0.857821 -1.134136 0.392293
v -0.929870 -1.046915 0.539067
v -0.763203 -0.991000 0.489540
v -0.855490 -0.883933 0.637401
v -0.947777 -0.776865 0.770857
v -0.781111 -0.732325 0.735735
v -0.868690 -0.628994 0.870723
v -0.956270 -0.525663 1.031910
v -0.789603 -0.467753 0.970588
v -0.879811 -0.370033 1.125748
v -1.016614 -0.272312 1.284804
v -0.854122 -0.198093 1.223521
v -1.011095 -0.118856 1.328509
v -0.716779 -1.282370 0.043446
v -0.618469 -1.135698 0.138477
v -0.686825 -1.054690 0.322873
v -0.520158 -0.982304 0.233508
v -0.595730 -0.903319 0.409115
v -0.671303 -0.824334 0.569069
v -0.504636 -0.745386 0.495357
v -0.598121 -0.655522 0.649289
v -0.691607 -0.565659 0.803921
v -0.524940 -0.464554 0.729510
v -0.614523 -0.382820 0.879048
v -0.704205 -0.301086 1.052918
v -0.537439 -0.195909 0.954175
v -0.659791 -0.113668 1.117424
v -0.850594 -0.031427 1.275470
v -0.440042 -1.050039 0.066841
v -0.348918 -0.896374 0.154920
v -0.424461 -0.815637 0.328690
v -0.257794 -0.740954 0.242999
v -0.349452 -0.659837 0.400583
v -0.441110 -0.578719 0.562843
v -0.274443 -0.458419 0.472476
v -0.372705 -0.378153 0.628752
v -0.470968 -0.297887 0.787508
v -0.304301 -0.174606 0.694660
v -0.386333 -0.101924 0.858518
v -0.468364 -0.029242 1.015262
v -0.125000 -0.855566 0.104730
v -0.125000 -0.715686 0.229730
v -0.125000 -0.590686 0.309896
v -0.127107 -0.375051 0.432170
v -0.211846 -0.291752 0.527994
v -0.045179 -0.191310 0.473755
v -0.144948 -0.099624 0.603128
v -0.244718 -0.007939 0.762860
v -1.780286 0.015745 -0.286913
v -1.831636 0.057532 -0.125000
v -1.523963 0.029065 -0.789347
v -1.566899 0.067293 -0.625000
v -1.619467 0.121535 -0.359674
v -1.674462 0.182532 -0.125000
v -1.507030 0.258582 -0.265769
v -1.549462 0.303075 -0.125000
v -1.290099 0.031909 -1.027448
v -1.374613 0.113820 -0.875391
v -1.446531 0.192293 -0.625000
v -1.469581 0.227325 -0.432435
v -1.292460 0.292148 -0.794768
v -1.321531 0.335807 -0.625000
v -1.372958 0.373755 -0.373674
v -1.444441 0.428075 -0.125000
v -1.276335 0.534565 -0.314912
v -1.319441 0.578780 -0.125000
v -1.002837 0.003079 -1.251388
v -1.100930 0.100827 -1.111791
v -1.199024 0.198576 -0.961435
v -1.032357 0.287551 -1.029468
v -1.114184 0.373183 -0.874192
v -1.203526 0.460807 -0.625000
v -1.242024 0.488928 -0.481579
v -1.029343 0.528305 -0.786950
v -1.064636 0.616983 -0.602786
v -1.172762 0.620739 -0.388947
v -1.209620 0.703780 -0.125000
v -1.003026 0.753229 -0.504643
v -1.034434 0.785580 -0.375000
v -1.084620 0.831102 -0.125000
v -0.875000 0.063470 -1.283778
v -0.875000 0.188470 -1.208860
v -0.877721 0.372531 -1.089747
v -0.962869 0.454218 -0.953617
v -0.796202 0.551465 -1.037766
v -0.873664 0.623218 -0.876238
v -0.951126 0.694972 -0.671310
v -0.784459 0.795486 -0.798858
v -0.855610 0.857691 -0.596318
v -0.915150 0.910580 -0.375000
v -0.955958 0.956102 -0.125000
v -0.760094 1.011160 -0.521326
v -0.790150 1.037876 -0.375000
v -0.830958 1.083037 -0.125000
v -0.649089 0.148929 -1.356961
v -0.748481 0.248214 -1.249012
v -0.581917 0.375000 -1.306596
v -0.706917 0.375000 -1.215083
v -0.527408 0.565985 -1.271726
v -0.627085 0.642058 -1.140195
v -0.726761 0.718132 -0.965525
v -0.562735 0.875000 -1.080450
v -0.683875 0.877292 -0.879315
v -0.722812 0.962153 -0.687993
v -0.523552 1.031075 -1.031308
v -0.559773 1.074475 -0.875000
v -0.626958 1.123026 -0.624970
v -0.671562 1.162876 -0.375000
v -0.701062 1.208037 -0.125000
v -0.531103 1.298375 -0.561948
v -0.546562 1.310643 -0.375000
v -0.576062 1.318748 -0.125000
v -0.329917 0.125000 -1.530836
v -0.454917 0.125000 -1.475965
v -0.280116 0.327791 -1.515649
v -0.368070 0.396675 -1.444561
v -0.395547 0.639591 -1.347685
v -0.492578 0.732651 -1.242625
v -0.320668 0.875000 -1.306817
v -0.445668 0.875000 -1.205450
v -0.268312 1.016682 -1.266815
v -0.352473 1.107212 -1.108188
v -0.441808 1.199475 -0.875000
v -0.485777 1.234892 -0.728614
v -0.269967 1.272828 -1.018402
v -0.316808 1.327232 -0.875000
v -0.392372 1.397595 -0.653441
v -0.446717 1.435643 -0.375000
v -0.450832 1.443748 -0.125000
v -0.298967 1.537798 -0.578268
v -0.321717 1.562230 -0.375000
v -0.325832 1.560979 -0.125000
v -0.125000 0.125000 -1.574282
v -0.148511 0.396675 -1.546772
v -0.247519 0.494458 -1.498808
v -0.094231 0.625000 -1.548632
v -0.219231 0.625000 -1.480812
v -0.044790 0.803313 -1.525634
v -0.126874 0.881988 -1.434743
v -0.125000 1.071386 -1.311723
v -0.125000 1.196386 -1.197757
v -0.105708 1.363697 -1.061996
v -0.192699 1.452232 -0.875000
v -0.247420 1.496816 -0.744935
v -0.009513 1.506445 -1.006318
v -0.067699 1.561059 -0.875000
v -0.136625 1.639715 -0.651856
v -0.161376 1.687230 -0.375000
v -0.113602 1.688286 -0.123860
v -0.025831 1.768536 -0.558777
v -0.036376 1.775584 -0.375000
v -0.022671 1.765576 -0.206433
v -2.022748 0.022547 0.177868
v -2.055791 0.048659 0.375000
v -2.067491 0.082152 0.634875
v -2.044621 0.089577 0.954534
v -1.996131 0.052232 1.231390
v -1.884689 0.125089 0.108115
v -1.917001 0.173659 0.375000
v -1.952805 0.207152 0.652302
v -1.976541 0.214577 0.988433
v -1.910618 0.131339 1.396978
v -1.754814 0.125000 1.830893
v -1.774148 0.273856 0.205028
v -1.792001 0.295187 0.375000
v -1.816664 0.371836 0.690036
v -1.864406 0.375000 1.026931
v -1.840474 0.375000 1.494948
v -1.672507 0.375000 1.994277
v -1.757328 0.512839 0.819922
v -1.751125 0.539862 1.036267
v -1.751415 0.565919 1.524900
v -1.666985 0.547581 1.920394
v -1.725586 0.227631 0.038362
v -1.449628 0.125000 1.991007
v -1.622863 0.376354 0.122031
v -1.673846 0.420187 0.375000
v -1.711655 0.453060 0.597205
v -1.330891 0.363688 2.106465
v -1.234046 0.439480 2.087028
v -1.520140 0.521752 0.205700
v -1.548846 0.567784 0.375000
v -1.625907 0.624066 0.662044
v -1.670912 0.664862 1.017210
v -1.636431 0.690919 1.487368
v -1.447636 0.622848 1.953742
v -1.252389 0.531448 2.072851
v -1.540158 0.797031 0.712733
v -1.559432 0.814440 0.971101
v -1.522850 0.789091 1.406849
v -1.475737 0.763232 1.677643
v -1.284416 0.143929 1.875500
v -1.213296 0.239881 1.863486
v -1.482920 0.478851 0.039033
v -1.225197 0.272813 1.993679
v -1.165866 0.363688 1.954037
v -1.374622 0.629447 0.122635
v -1.440632 0.692784 0.375000
v -1.487852 0.735294 0.518262
v -1.256768 0.694704 1.838431
v -1.167977 0.569704 1.936554
v -1.266324 0.762770 0.206238
v -1.315632 0.798203 0.375000
v -1.389558 0.882599 0.615747
v -1.421561 0.939440 0.923451
v -1.340851 0.921813 1.271951
v -1.347509 0.810599 1.635999
v -1.291264 1.028446 0.709724
v -1.296575 1.034369 0.892539
v -1.266329 1.017379 1.097050
v -1.273940 0.116884 1.666786
v -1.220914 0.241884 1.728562
v -1.170368 0.375000 1.742353
v -1.236608 0.737141 0.039571
v -1.113262 0.708154 1.677137
v -1.116165 0.583154 1.720615
v -1.119015 0.871681 0.142171
v -1.160903 0.923203 0.375000
v -1.213115 0.968168 0.542072
v -1.222325 0.984233 1.312988
v -1.151000 0.890540 1.502202
v -1.001423 1.001312 0.244771
v -1.035903 1.029734 0.375000
v -1.107979 1.116723 0.644234
v -1.127886 1.159369 0.875000
v -1.116361 1.112480 1.120481
v -1.066521 1.040915 1.334632
v -1.002843 1.251969 0.746395
v -1.002886 1.252104 0.875000
v -1.001005 1.250837 1.001327
v -1.165402 0.149578 1.498208
v -1.198714 0.249297 1.618865
v -1.074704 0.375000 1.518454
v -1.150054 0.375000 1.616199
v -0.985043 0.629629 1.509012
v -1.077417 0.549381 1.609403
v -0.981173 0.980591 0.078105
v -0.903081 0.875000 1.415599
v -0.866406 1.119677 0.158735
v -0.902893 1.154734 0.375000
v -0.952218 1.205000 0.579729
v -0.829412 1.232092 0.983071
v -0.897647 1.173497 1.100796
v -0.877730 1.042803 1.306924
v -0.751640 1.251831 0.239365
v -0.777893 1.278507 0.375000
v -0.871331 1.306489 0.647837
v -0.897647 1.285284 0.889843
v -0.996079 1.250837 1.001327
v -0.600174 0.125000 1.197907
v -0.828408 0.125000 1.323519
v -0.537568 0.251485 1.248613
v -0.707355 0.350891 1.355230
v -0.669727 0.625000 1.383931
v -0.627212 0.875000 1.340132
v -0.737104 1.238041 0.072699
v -0.625000 1.235436 0.984846
v -0.625000 1.130948 1.125000
v -0.625000 1.020512 1.276788
v -0.620704 1.363839 0.155631
v -0.635522 1.403507 0.375000
v -0.605836 1.431893 0.606699
v -0.625000 1.325233 0.859846
v -0.504304 1.504153 0.238563
v -0.510522 1.506977 0.375000
v -0.509726 1.505151 0.511165
v -0.301697 0.041746 0.929527
v -0.381019 0.125047 1.075458
v -0.376673 0.295752 1.207876
v -0.376332 0.420752 1.305849
v -0.375000 0.625000 1.335654
v -0.305176 0.923098 1.233142
v -0.383106 0.853859 1.279705
v -0.493437 1.248490 0.996723
v -0.399307 1.129842 1.125609
v -0.471843 1.011193 1.259768
v -0.471119 1.475848 0.071896
v -0.291033 1.495361 0.475291
v -0.374620 1.467043 0.606699
v -0.396062 1.340755 0.898034
v -0.326770 1.284882 1.018077
v -0.382672 1.530964 0.143138
v -0.374620 1.512376 0.385175
v -0.457699 1.505151 0.511165
v -0.061743 0.125000 0.691782
v -0.178458 0.125047 0.857716
v -0.215106 0.208412 1.028555
v -0.004272 0.256684 0.744115
v -0.039534 0.300486 0.875000
v -0.138539 0.393408 1.105496
v -0.228638 0.476185 1.270823
v -0.107549 0.625000 1.141108
v -0.232549 0.625000 1.266770
v -0.002275 0.975293 0.997512
v -0.125184 0.865862 1.119424
v -0.248094 0.756432 1.251537
v -0.022806 1.125000 0.988669
v -0.147806 1.125000 1.063414
v -0.243451 1.495361 0.475291
v -0.234575 1.488071 0.625000
v -0.132057 1.386808 0.892721
v -0.194799 1.284882 1.018077
v -0.125000 1.610081 0.125000
v -0.146071 1.556009 0.385175
v -0.109575 1.570268 0.625000
v -0.069315 1.545150 0.798062
v 0.226560 -1.003150 -0.517070
v 0.135936 -1.034199 -0.369376
v 0.103212 -1.055844 -0.117309
v 0.069863 -0.795775 -0.822697
v 0.148212 -0.894653 -0.631356
v 0.059894 -0.993531 -0.448960
v 0.005353 -0.996976 -0.028848
v 0.001776 -0.503867 -1.258793
v 0.037740 -0.556840 -1.125000
v 0.142537 -0.655018 -0.904106
v 0.236529 -0.738116 -0.782411
v 0.047426 -0.309121 -1.533313
v 0.068846 -0.385473 -1.355276
v 0.169517 -0.374020 -1.131526
v 0.215211 -0.456700 -0.977647
v 0.089417 -0.125000 -1.551109
v 0.210859 -0.126975 -1.387290
v 0.232208 -0.211625 -1.219209
v 0.468299 -1.273958 -0.304704
v 0.454141 -1.286283 -0.125000
v 0.375000 -1.037256 -0.589860
v 0.380980 -1.159326 -0.396833
v 0.329141 -1.191321 -0.125000
v 0.375000 -0.875000 -0.728258
v 0.375000 -0.563888 -0.873671
v 0.375000 -0.688888 -0.831947
v 0.280723 -0.290034 -1.057533
v 0.368434 -0.374020 -0.942568
v 0.268216 -0.044959 -1.312150
v 0.315468 -0.126975 -1.131526
v 0.443172 -0.125000 -0.956991
v 0.706863 -1.276075 -0.688540
v 0.624118 -1.325567 -0.436952
v 0.625000 -1.404917 -0.126026
v 0.624118 -1.127915 -0.767670
v 0.540196 -1.213192 -0.544001
v 0.709241 -0.802197 -1.102873
v 0.625545 -0.881318 -0.969913
v 0.625545 -0.608241 -1.006385
v 0.542574 -0.680401 -0.932726
v 0.639055 -0.370546 -0.925441
v 0.731758 -0.284243 -0.881193
v 0.610480 -0.125000 -0.862957
v 0.735480 -0.125000 -0.807049
v 0.993996 -1.504774 -0.635888
v 0.944742 -1.525706 -0.438043
v 0.888572 -1.557253 -0.126367
v 0.976875 -1.290039 -1.100935
v 0.902102 -1.366390 -0.816033
v 0.819742 -1.451491 -0.446914
v 0.763572 -1.493634 -0.126696
v 0.932482 -1.125000 -1.221588
v 0.807482 -1.125000 -1.028700
v 0.859861 -0.881318 -1.269896
v 0.766435 -0.968864 -1.100182
v 0.875000 -0.625000 -1.238925
v 0.864053 -0.370546 -1.033582
v 0.773422 -0.284243 -0.895191
v 0.940088 -0.200566 -0.917768
v 0.864053 -0.120339 -0.823265
v 1.247217 -1.750903 -0.003269
v 1.125000 -1.516840 -0.661865
v 1.125000 -1.583258 -0.425886
v 1.148331 -1.681236 -0.101962
v 1.125000 -1.311166 -1.128807
v 1.125000 -1.436166 -0.873780
v 1.125000 -1.125000 -1.334105
v 1.125000 -0.875000 -1.435656
v 1.125000 -0.625000 -1.339904
v 1.125000 -0.375000 -1.144825
v 1.133301 -0.120339 -0.905474
v 1.055501 -0.033899 -0.799960
v 1.251788 -1.750903 -0.003269
v 1.303867 -1.517679 -0.644589
v 1.382320 -1.554928 -0.424678
v 1.351073 -1.665623 -0.101962
v 1.316552 -1.291515 -1.101974
v 1.393543 -1.390246 -0.831945
v 1.470534 -1.488977 -0.542818
v 1.389931 -1.131477 -1.191730
v 1.483219 -1.219129 -1.021076
v 1.375000 -0.875000 -1.312682
v 1.375000 -0.625000 -1.242699
v 1.375000 -0.375000 -1.088014
v 1.375000 -0.125000 -0.911822
v 1.521223 -1.514811 -0.318936
v 1.549026 -1.537737 -0.125000
v 1.625000 -1.316421 -0.693270
v 1.612734 -1.428042 -0.421165
v 1.674026 -1.444923 -0.125000
v 1.525710 -1.052462 -1.087427
v 1.615426 -1.131477 -0.911979
v 1.581474 -0.875000 -1.100789
v 1.706474 -0.875000 -0.943752
v 1.621949 -0.625000 -1.038106
v 1.746949 -0.625000 -0.913691
v 1.608691 -0.375000 -0.934752
v 1.733691 -0.375000 -0.837047
v 1.589507 -0.125000 -0.828979
v 1.714507 -0.125000 -0.758408
v 1.771064 -1.266251 -0.584011
v 1.811225 -1.293320 -0.396472
v 1.837557 -1.319923 -0.125000
v 1.821768 -1.125000 -0.631945
v 1.943755 -1.138423 -0.406866
v 1.962557 -1.213369 -0.125000
v 1.894776 -0.877424 -0.659787
v 1.991293 -0.962374 -0.513582
v 1.875000 -0.625000 -0.727294
v 1.875000 -0.375000 -0.701007
v 1.875000 -0.125000 -0.669751
v 2.067842 -1.064038 -0.325498
v 2.086097 -1.088369 -0.125000
v 2.008915 -0.795707 -0.525709
v 2.121712 -0.883722 -0.383463
v 2.211097 -0.923955 -0.125000
v 2.032898 -0.625000 -0.533742
v 2.157898 -0.625000 -0.424986
v 2.069151 -0.375000 -0.549376
v 2.194151 -0.375000 -0.451652
v 2.087423 -0.125000 -0.556556
v 2.212423 -0.125000 -0.470470
v 2.282357 -0.805071 -0.274762
v 2.277532 -0.798955 -0.125000
v 2.310531 -0.625000 -0.299986
v 2.316395 -0.625000 -0.125000
v 2.322920 -0.375000 -0.326652
v 2.328519 -0.375000 -0.125000
v 2.329709 -0.125000 -0.345470
v 2.367027 -0.125000 -0.125000
v 0.172020 -1.039226 0.075588
v 0.103212 -0.898186 0.130476
v 0.125000 -0.674375 0.231405
v 0.125000 -0.549375 0.268983
v 0.125000 -0.375000 0.339429
v 0.114914 -0.114786 0.443292
v 0.024857 -0.024643 0.511595
v 0.465049 -1.280897 0.125000
v 0.482843 -1.266777 0.285349
v 0.325279 -1.123536 0.145353
v 0.428682 -1.125000 0.338771
v 0.258725 -0.875000 0.240615
v 0.383725 -0.875000 0.355841
v 0.256233 -0.685872 0.245232
v 0.353740 -0.611524 0.327758
v 0.396143 -0.361807 0.414997
v 0.493571 -0.269678 0.504521
v 0.396143 -0.145030 0.436923
v 0.493571 -0.241717 0.504521
v 0.740200 -1.507958 0.177419
v 0.732402 -1.521193 0.375000
v 0.736335 -1.520300 0.516974
v 0.644120 -1.424078 0.106451
v 0.598565 -1.360066 0.371210
v 0.693056 -1.375000 0.573759
v 0.516032 -1.125000 0.463771
v 0.646672 -1.147536 0.648823
v 0.723077 -1.079226 0.782483
v 0.519983 -0.875000 0.480841
v 0.616992 -0.875000 0.625000
v 0.722009 -0.875000 0.823644
v 0.530882 -0.625000 0.471253
v 0.630722 -0.625000 0.628307
v 0.724840 -0.625000 0.889476
v 0.514835 -0.436345 0.486896
v 0.591271 -0.361807 0.604365
v 0.727963 -0.375000 0.885370
v 0.567151 -0.075050 0.463140
v 0.655459 -0.156626 0.597645
v 0.743767 -0.238201 0.830526
v 0.851462 -1.568455 0.106451
v 0.875000 -1.618449 0.375000
v 0.883208 -1.574049 0.610185
v 0.972014 -1.532737 0.784712
v 0.752436 -1.498933 0.010752
v 0.792891 -1.375000 0.698759
v 0.917892 -1.375000 0.829701
v 0.751842 -1.245893 0.748038
v 0.861785 -1.151297 0.892078
v 0.971728 -1.056701 1.086091
v 0.801670 -0.875000 0.991550
v 0.926670 -0.875000 1.200188
v 0.766059 -0.625000 1.064707
v 0.899426 -0.624528 1.369201
v 0.977631 -0.540879 1.577689
v 0.772030 -0.375000 1.068924
v 0.857916 -0.375000 1.360450
v 0.960887 -0.375000 1.609311
v 0.783908 -0.071535 0.718994
v 0.809662 -0.142921 0.967103
v 0.921448 -0.119881 1.369285
v 0.970218 -0.199802 1.588780
v 1.240559 -1.752457 0.125000
v 1.240194 -1.752374 0.265881
v 1.115559 -1.704600 0.125000
v 1.144117 -1.719595 0.359529
v 1.125000 -1.655389 0.625000
v 1.125000 -1.550367 0.811932
v 1.126435 -1.364565 0.942981
v 1.210725 -1.274274 1.030854
v 1.044058 -1.223368 1.008979
v 1.126435 -1.134021 1.099405
v 1.125000 -0.875000 1.366317
v 1.125000 -0.711678 1.558702
v 1.125000 -0.586678 1.667088
v 1.125000 -0.375000 1.756850
v 1.125000 -0.028338 1.540425
v 1.125000 -0.153338 1.675996
v 1.254963 -1.752457 0.125000
v 1.254830 -1.752374 0.265881
v 1.379963 -1.679773 0.125000
v 1.352898 -1.677706 0.359529
v 1.375751 -1.575841 0.622941
v 1.292917 -1.534418 0.797865
v 1.459584 -1.469557 0.704902
v 1.367398 -1.371916 0.887337
v 1.275212 -1.274274 1.034142
v 1.441879 -1.213557 1.020662
v 1.365127 -1.128135 1.128993
v 1.375000 -0.875000 1.421706
v 1.397811 -0.644815 1.658829
v 1.329685 -0.574692 1.732026
v 1.496352 -0.467889 1.719020
v 1.397811 -0.380733 1.786825
v 1.274095 -0.004649 1.592665
v 1.364457 -0.102790 1.689595
v 1.565910 -1.554773 0.125000
v 1.555200 -1.544895 0.375000
v 1.529865 -1.522333 0.538235
v 1.690910 -1.450789 0.125000
v 1.680200 -1.431592 0.375000
v 1.629389 -1.372842 0.624985
v 1.562246 -1.302890 0.810672
v 1.728912 -1.222792 0.712412
v 1.637004 -1.134841 0.934520
v 1.545096 -1.046891 1.152410
v 1.711763 -0.967153 1.089266
v 1.627058 -0.880292 1.297772
v 1.625000 -0.625000 1.555893
v 1.624617 -0.380733 1.664926
v 1.541028 -0.301222 1.712969
v 1.682189 -0.125000 1.592938
v 1.557189 -0.125000 1.656248
v 1.831416 -1.325788 0.125000
v 1.805717 -1.306592 0.375000
v 1.771907 -1.276126 0.545068
v 1.956416 -1.197844 0.125000
v 1.930717 -1.171195 0.375000
v 1.867675 -1.120523 0.621072
v 1.796776 -1.056125 0.832469
v 1.963443 -0.952134 0.708166
v 1.881808 -0.876310 0.962772
v 1.800172 -0.800486 1.221087
v 1.966839 -0.676389 1.087229
v 1.880103 -0.605833 1.278784
v 1.875000 -0.375000 1.395581
v 1.875000 -0.125000 1.368062
v 2.055732 -1.072844 0.125000
v 2.031261 -1.046195 0.375000
v 2.014326 -1.018255 0.530410
v 2.179072 -0.856122 0.106618
v 2.107361 -0.875000 0.375000
v 2.046312 -0.871280 0.620381
v 2.018872 -0.785467 0.832146
v 2.217370 -0.625000 0.142961
v 2.164351 -0.625000 0.375000
v 2.119217 -0.625000 0.633538
v 2.039920 -0.605833 0.962628
v 2.003553 -0.509722 1.161307
v 2.231475 -0.375000 0.156681
v 2.197488 -0.375000 0.375000
v 2.173905 -0.375000 0.631551
v 2.098791 -0.375000 0.956002
v 2.015900 -0.375000 1.181643
v 2.242952 -0.233147 0.195989
v 2.234237 -0.207758 0.375000
v 2.228519 -0.126318 0.640266
v 2.122636 -0.125000 0.928071
v 2.014011 -0.125000 1.151067
v 2.254353 -0.760203 0.011030
v 2.255864 -0.625000 0.017961
v 2.255599 -0.375000 0.031681
v 2.298983 -0.139888 0.117594
v 2.287201 -0.082758 0.375000
v 2.267721 -0.043864 0.566805
v 0.115834 0.125000 -1.543446
v 0.240834 0.125000 -1.483829
v 0.149589 0.365505 -1.537694
v 0.249315 0.275842 -1.499622
v 0.125000 0.625000 -1.568882
v 0.125000 0.821950 -1.539088
v 0.125000 0.946950 -1.468575
v 0.114663 1.147100 -1.330494
v 0.024439 1.245166 -1.245274
v 0.191106 1.262979 -1.259391
v 0.114663 1.357788 -1.171270
v 0.125000 1.534909 -1.030132
v 0.112592 1.672907 -0.870821
v 0.020986 1.741633 -0.725444
v 0.019270 1.732505 -0.039766
v 0.187652 1.772550 -0.784702
v 0.112592 1.794610 -0.635266
v 0.125000 1.822024 -0.375000
v 0.111562 1.800564 -0.123860
v 0.299477 0.125000 -1.358829
v 0.425686 0.121190 -1.120535
v 0.476840 0.035316 -0.983316
v 0.250731 0.442509 -1.500518
v 0.317798 0.365505 -1.399773
v 0.459200 0.375000 -1.189351
v 0.271298 0.625000 -1.520251
v 0.379544 0.625000 -1.375000
v 0.483246 0.625000 -1.222227
v 0.277666 0.792620 -1.526483
v 0.359637 0.875572 -1.385571
v 0.491298 0.875000 -1.238237
v 0.319575 1.125000 -1.301506
v 0.444575 1.125000 -1.212543
v 0.267518 1.262979 -1.259391
v 0.383104 1.380905 -1.122163
v 0.498690 1.498831 -0.998883
v 0.332023 1.540100 -1.033858
v 0.391577 1.624997 -0.891793
v 0.433477 1.695992 -0.625000
v 0.443164 1.709548 -0.375000
v 0.472908 1.733392 -0.125000
v 0.284465 1.772550 -0.784702
v 0.308477 1.791860 -0.625000
v 0.318164 1.796441 -0.375000
v 0.347908 1.801523 -0.125000
v 0.527889 0.201983 -1.034225
v 0.638386 0.103611 -0.876315
v 0.748883 0.005240 -0.769051
v 0.551750 0.375000 -1.064351
v 0.676750 0.375000 -0.918279
v 0.579694 0.625000 -1.097227
v 0.704694 0.625000 -0.954816
v 0.585033 0.875000 -1.113237
v 0.710033 0.875000 -0.961522
v 0.568687 1.125000 -1.087543
v 0.693687 1.125000 -0.925349
v 0.543352 1.332164 -1.043801
v 0.626209 1.383581 -0.884285
v 0.702038 1.424350 -0.625000
v 0.732619 1.472913 -0.375000
v 0.749839 1.499749 -0.249131
v 0.542398 1.543227 -0.832216
v 0.577038 1.570992 -0.625000
v 0.607619 1.584548 -0.375000
v 0.649903 1.594549 -0.149479
v 0.769332 0.171906 -0.769202
v 0.861599 0.103144 -0.715694
v 0.790599 0.375000 -0.793279
v 0.915599 0.375000 -0.676696
v 0.823314 0.625000 -0.829816
v 0.948314 0.625000 -0.699403
v 0.962888 0.720438 -0.022624
v 0.831830 0.875000 -0.836522
v 0.953674 0.884217 -0.636722
v 0.968469 0.960729 -0.375000
v 0.944169 0.884367 -0.113574
v 0.791549 1.125000 -0.800349
v 0.857036 1.125000 -0.625000
v 0.889169 1.125000 -0.375000
v 0.885181 1.125000 -0.125000
v 0.759244 1.268332 -0.769687
v 0.774658 1.299350 -0.625000
v 0.795700 1.347913 -0.375000
v 0.798261 1.399850 -0.149479
v 0.760920 1.513058 -0.082464
v 1.222167 0.009662 -0.802481
v 1.133301 0.105797 -0.689947
v 1.135788 0.384979 -0.560234
v 1.226313 0.474964 -0.483994
v 1.076453 0.625000 -0.574403
v 1.198783 0.638279 -0.390397
v 1.137621 0.713788 -0.113574
v 1.042291 0.807028 -0.561203
v 1.078744 0.835729 -0.375000
v 1.062701 0.807278 -0.189291
v 1.375000 0.032067 -0.794985
v 1.375000 0.157067 -0.690349
v 1.375000 0.353948 -0.565045
v 1.375000 0.478948 -0.485712
v 1.375000 0.587916 -0.360712
v 1.375000 0.703915 -0.125000
v 1.554100 0.033094 -0.776160
v 1.632460 0.119856 -0.708362
v 1.606292 0.398180 -0.572362
v 1.510486 0.496966 -0.496955
v 1.677152 0.517996 -0.514060
v 1.606292 0.582122 -0.398173
v 1.608120 0.720877 -0.106489
v 1.680199 0.752660 -0.010815
v 1.875000 0.125000 -0.635695
v 1.875645 0.379612 -0.550705
v 1.959409 0.466019 -0.482159
v 1.792742 0.517996 -0.514060
v 1.875645 0.580517 -0.389295
v 1.858111 0.711694 -0.106489
v 1.763518 0.752660 -0.010815
v 2.066790 0.125000 -0.541691
v 2.191790 0.125000 -0.452543
v 2.029742 0.299352 -0.519168
v 2.138955 0.398049 -0.384287
v 2.248168 0.496745 -0.242269
v 2.081501 0.550749 -0.315492
v 2.148901 0.580826 -0.145361
v 2.314081 0.125000 -0.327543
v 2.398627 0.125000 -0.125000
v 2.278039 0.330079 -0.286415
v 2.313644 0.398047 -0.145361
v 2.261065 0.514003 -0.075602
v 0.191524 0.065877 0.478225
v 0.114914 0.139526 0.557590
v 0.126338 0.354010 0.664257
v 0.043520 0.425486 0.875000
v 0.014131 0.477298 1.015771
v 0.217366 0.625000 0.697959
v 0.106738 0.625000 0.875000
v 0.014372 0.625000 1.016108
v 0.235491 0.875000 0.730539
v 0.091412 0.885176 0.898507
v 0.005032 0.808626 1.005707
v 0.236105 1.125000 0.735199
v 0.111105 1.125000 0.863669
v 0.226410 1.375000 0.724086
v 0.101410 1.375000 0.839082
v 0.076006 1.699491 0.125000
v 0.149242 1.680880 0.351666
v 0.133082 1.587879 0.630798
v 0.055136 1.545150 0.798062
v 0.201006 1.780665 0.125000
v 0.248737 1.750847 0.252777
v 0.355403 0.139526 0.435197
v 0.259006 0.232544 0.506940
v 0.393092 0.375000 0.412440
v 0.268092 0.375000 0.522235
v 0.419538 0.625000 0.415754
v 0.294538 0.625000 0.572959
v 0.454332 0.875000 0.449092
v 0.329332 0.875000 0.605539
v 0.479247 1.125000 0.477743
v 0.354247 1.125000 0.610199
v 0.488583 1.375000 0.486888
v 0.363583 1.375000 0.599086
v 0.499830 1.749888 0.000432
v 0.394374 1.631665 0.406877
v 0.323957 1.552775 0.551330
v 0.399898 1.783164 0.100259
v 0.375000 1.761425 0.266645
v 0.640291 0.106688 0.404153
v 0.733818 0.011146 0.516990
v 0.695914 0.436315 0.224108
v 0.617548 0.361789 0.285843
v 0.670271 0.625000 0.192829
v 0.545271 0.625000 0.290754
v 0.691441 0.875000 0.191888
v 0.566441 0.875000 0.324092
v 0.713671 1.125000 0.207008
v 0.588671 1.125000 0.352743
v 0.702782 1.375000 0.181628
v 0.577782 1.375000 0.361888
v 0.613259 1.631473 0.094723
v 0.544888 1.625000 0.319013
v 0.516896 1.764387 0.167099
v 0.516896 1.764387 0.269417
v 0.824554 0.177813 0.426485
v 0.856124 0.106688 0.621711
v 0.914856 0.125000 0.956756
v 0.963116 0.125000 1.215540
v 0.875000 0.440868 0.212788
v 0.894732 0.309572 0.355891
v 0.982224 0.274775 0.631547
v 0.981623 0.281145 0.923095
v 0.990419 0.269958 1.120993
v 0.877733 0.632263 0.090029
v 0.822004 0.875000 0.066888
v 0.811499 1.125000 0.082008
v 0.782351 1.375000 0.056628
v 0.760920 1.513058 0.022347
v 1.125000 0.125000 1.416175
v 1.035646 0.484842 0.226276
v 1.068994 0.434730 0.375000
v 1.077070 0.399775 0.625626
v 1.076022 0.406145 0.900593
v 1.132969 0.361975 1.162788
v 1.121388 0.587284 0.135766
v 1.193994 0.531680 0.375000
v 1.202070 0.541713 0.625000
v 1.201022 0.539632 0.880656
v 1.221616 0.519841 1.039335
v 1.364457 0.106813 1.509751
v 1.440762 0.011356 1.602381
v 1.375000 0.375000 1.211512
v 1.375000 0.675421 0.125000
v 1.375000 0.622734 0.375000
v 1.375000 0.617938 0.625000
v 1.375000 0.570030 0.879308
v 1.375000 0.515405 1.041573
v 1.621135 0.106813 1.426046
v 1.535224 0.011356 1.589279
v 1.667681 0.432500 0.994334
v 1.600609 0.359500 1.120287
v 1.550840 0.731644 0.125000
v 1.632553 0.716048 0.373924
v 1.625000 0.670382 0.625000
v 1.600609 0.556440 0.878882
v 1.501014 0.500699 1.030501
v 1.675840 0.759933 0.125000
v 1.720921 0.760584 0.289872
v 1.931445 0.167824 1.015248
v 1.858867 0.100694 1.193829
v 1.976514 0.466128 0.718606
v 1.870646 0.365980 0.885414
v 1.764778 0.265833 1.105296
v 1.939640 0.738434 0.125000
v 1.893602 0.715193 0.373924
v 1.885909 0.598542 0.631164
v 1.809848 0.553535 0.792490
v 1.814640 0.759933 0.125000
v 1.822670 0.760584 0.289872
v 2.209842 0.125000 0.710014
v 2.068495 0.100694 0.899544
v 2.001035 0.001157 1.105937
v 2.204538 0.463826 0.429228
v 2.119620 0.381643 0.632576
v 2.034703 0.299461 0.780984
v 2.125000 0.629249 0.125000
v 2.122723 0.576240 0.357537
v 2.037871 0.538695 0.551940
v 2.408252 0.125000 0.125000
v 2.370084 0.125000 0.375000
v 2.296378 0.125000 0.585014
v 2.364288 0.375000 0.125000
v 2.321079 0.378295 0.357537
v 2.294117 0.297159 0.546546
v 2.264265 0.515816 0.125000
v 2.257954 0.507085 0.262561
s 0
f 5 2 3
f 7 4 5
f 8 7 9
f 14 10 11
f 14 2 13
f 14 1 3
f 16 12 13
f 16 2 4
f 17 16 18
f 6 16 4
f 19 18 20
f 8 18 6
f 21 8 9
f 22 20 23
f 23 21 24
f 27 10 26
f 29 25 26
f 29 12 28
f 29 10 13
f 31 12 15
f 33 30 31
f 33 15 17
f 34 33 35
f 35 17 19
f 36 35 37
f 22 35 19
f 38 22 23
f 39 23 24
f 42 25 41
f 27 42 43
f 45 40 41
f 45 25 28
f 48 44 45
f 48 30 47
f 48 28 31
f 50 46 47
f 50 30 32
f 51 50 52
f 52 32 34
f 53 52 54
f 36 52 34
f 55 36 37
f 56 37 38
f 58 40 57
f 59 41 58
f 60 42 59
f 62 40 44
f 64 61 62
f 64 46 63
f 64 44 47
f 66 46 49
f 68 65 66
f 68 49 51
f 69 68 70
f 53 68 51
f 71 53 54
f 73 57 72
f 74 58 73
f 75 59 74
f 77 61 76
f 77 57 62
f 79 61 63
f 81 78 79
f 81 65 80
f 81 63 66
f 82 65 67
f 69 82 67
f 84 69 70
f 73 85 86
f 87 73 86
f 88 74 87
f 77 89 90
f 77 85 72
f 91 85 90
f 93 78 92
f 93 76 79
f 95 78 80
f 96 95 97
f 82 95 80
f 98 82 83
f 87 99 100
f 101 87 100
f 103 89 102
f 91 103 104
f 91 99 86
f 105 101 100
f 109 92 108
f 109 89 93
f 111 107 108
f 111 94 110
f 111 92 95
f 96 110 94
f 113 96 97
f 114 113 115
f 98 113 97
f 117 99 116
f 103 118 119
f 120 103 119
f 104 116 99
f 121 116 120
f 105 117 121
f 122 105 121
f 124 107 123
f 109 124 125
f 109 118 102
f 126 118 125
f 128 107 110
f 112 128 110
f 114 129 112
f 131 114 115
f 120 132 133
f 121 133 134
f 135 121 134
f 124 136 137
f 138 124 137
f 126 138 139
f 126 132 119
f 140 132 139
f 141 133 140
f 127 135 142
f 128 136 123
f 143 137 136
f 145 137 144
f 146 138 145
f 129 143 128
f 148 143 147
f 149 129 130
f 151 1 150
f 154 3 151
f 154 152 155
f 155 153 156
f 158 5 154
f 158 155 159
f 159 156 160
f 160 157 161
f 9 158 162
f 163 158 159
f 163 160 164
f 165 160 161
f 166 163 167
f 168 163 164
f 169 1 11
f 172 150 169
f 172 170 173
f 152 172 173
f 173 171 174
f 153 173 174
f 175 153 174
f 157 175 176
f 177 157 176
f 179 9 162
f 165 180 164
f 165 177 181
f 181 178 182
f 24 179 183
f 166 179 162
f 184 166 167
f 168 184 167
f 168 180 185
f 186 180 181
f 186 182 187
f 188 11 27
f 170 188 189
f 171 189 190
f 191 171 190
f 193 174 191
f 193 192 194
f 176 193 194
f 195 176 194
f 178 195 196
f 182 196 197
f 199 24 183
f 187 197 200
f 200 198 201
f 202 27 43
f 203 188 202
f 204 189 203
f 205 190 204
f 192 205 206
f 207 192 206
f 195 207 208
f 209 195 208
f 210 196 209
f 198 210 211
f 201 211 212
f 202 60 213
f 214 202 213
f 215 203 214
f 205 215 216
f 206 216 217
f 218 206 217
f 219 207 218
f 209 219 220
f 221 209 220
f 211 221 222
f 223 211 222
f 224 60 75
f 214 224 225
f 226 214 225
f 227 226 225
f 216 226 228
f 229 216 228
f 230 229 228
f 218 229 231
f 232 218 231
f 220 232 233
f 234 220 233
f 235 221 234
f 236 222 235
f 224 88 237
f 238 224 237
f 239 238 237
f 227 238 240
f 241 227 240
f 242 241 240
f 230 241 243
f 244 230 243
f 245 244 243
f 232 244 246
f 247 232 246
f 248 247 246
f 234 247 249
f 250 234 249
f 251 250 249
f 252 235 250
f 253 88 101
f 106 253 101
f 239 253 254
f 255 239 254
f 256 255 254
f 242 255 257
f 258 242 257
f 259 258 257
f 245 258 260
f 261 245 260
f 262 261 260
f 248 261 263
f 264 248 263
f 265 264 263
f 251 264 266
f 267 251 266
f 268 106 122
f 127 268 122
f 256 268 269
f 270 256 269
f 271 270 269
f 259 270 272
f 273 259 272
f 274 273 272
f 262 273 275
f 276 262 275
f 277 276 275
f 265 276 278
f 279 265 278
f 280 127 142
f 271 280 281
f 282 271 281
f 274 282 283
f 284 274 283
f 285 284 283
f 277 284 286
f 287 277 286
f 288 39 289
f 290 55 291
f 291 56 292
f 288 56 38
f 293 288 289
f 294 293 295
f 296 71 297
f 290 71 54
f 298 290 291
f 299 291 292
f 300 298 301
f 301 299 302
f 294 299 292
f 303 294 295
f 304 303 305
f 306 84 307
f 296 84 70
f 308 296 297
f 309 308 310
f 300 308 297
f 311 300 301
f 312 301 302
f 313 311 314
f 314 312 315
f 304 312 302
f 316 304 305
f 317 315 318
f 318 316 319
f 306 98 83
f 321 306 307
f 309 321 307
f 323 309 310
f 324 323 325
f 313 323 310
f 326 313 314
f 327 326 328
f 317 326 314
f 329 317 318
f 319 329 318
f 331 329 332
f 332 330 333
f 334 98 320
f 335 320 321
f 336 335 337
f 322 335 321
f 338 337 339
f 324 337 322
f 340 324 325
f 341 340 342
f 327 340 325
f 343 327 328
f 344 342 345
f 345 343 346
f 331 343 328
f 347 331 332
f 333 347 332
f 349 347 350
f 351 347 348
f 352 131 353
f 334 131 115
f 354 353 355
f 336 353 334
f 338 355 336
f 357 338 339
f 358 357 359
f 341 357 339
f 360 359 361
f 344 359 341
f 362 344 345
f 363 345 346
f 364 362 365
f 365 363 366
f 349 363 346
f 367 349 350
f 368 350 351
f 369 367 370
f 371 367 368
f 352 149 130
f 354 372 352
f 374 354 355
f 375 374 376
f 356 374 355
f 377 376 378
f 358 376 356
f 360 378 358
f 380 360 361
f 364 380 361
f 382 364 365
f 383 365 366
f 384 382 385
f 385 383 386
f 369 383 366
f 387 369 370
f 371 387 370
f 389 387 390
f 391 387 388
f 392 184 393
f 394 184 185
f 394 186 395
f 395 187 396
f 289 199 397
f 392 199 183
f 398 392 393
f 394 398 393
f 395 399 394
f 396 400 395
f 396 200 401
f 401 201 402
f 403 398 404
f 404 399 405
f 405 400 406
f 406 401 407
f 407 402 408
f 409 406 410
f 410 407 411
f 412 407 408
f 413 289 397
f 402 212 414
f 295 413 415
f 403 413 397
f 416 403 404
f 417 404 405
f 408 414 418
f 420 416 421
f 421 417 422
f 409 417 405
f 423 409 410
f 424 410 411
f 412 424 411
f 425 408 418
f 426 418 419
f 427 423 428
f 429 423 424
f 430 424 425
f 431 212 223
f 433 295 415
f 434 414 431
f 434 432 435
f 419 434 435
f 305 433 436
f 420 433 415
f 437 420 421
f 438 421 422
f 440 425 426
f 440 419 435
f 441 437 442
f 442 438 443
f 427 438 422
f 444 427 428
f 445 428 429
f 446 429 430
f 430 439 446
f 447 444 448
f 449 444 445
f 450 223 236
f 451 431 450
f 452 432 451
f 453 305 436
f 455 439 440
f 440 452 455
f 319 453 456
f 441 453 436
f 457 441 442
f 458 442 443
f 460 445 446
f 446 454 460
f 461 457 462
f 462 458 463
f 447 458 443
f 464 447 448
f 449 464 448
f 449 459 465
f 466 459 460
f 467 464 468
f 469 464 465
f 470 236 252
f 471 450 470
f 472 471 470
f 452 471 473
f 475 472 474
f 475 454 455
f 455 473 475
f 476 319 456
f 460 474 477
f 333 476 478
f 461 476 456
f 479 461 462
f 480 462 463
f 483 465 466
f 466 477 483
f 484 479 485
f 485 480 486
f 467 480 463
f 487 467 468
f 488 481 487
f 488 468 469
f 469 482 488
f 489 267 266
f 490 252 267
f 492 489 491
f 472 490 492
f 474 492 493
f 477 493 494
f 495 333 478
f 497 481 482
f 483 497 482
f 483 494 498
f 351 495 499
f 484 495 478
f 500 484 485
f 501 485 486
f 502 486 487
f 502 481 496
f 503 500 504
f 505 500 501
f 506 279 278
f 489 279 507
f 491 507 508
f 509 491 508
f 493 509 510
f 494 510 512
f 497 513 496
f 515 511 514
f 515 497 498
f 515 494 512
f 516 351 499
f 519 501 502
f 502 513 519
f 520 513 514
f 371 516 521
f 503 516 499
f 522 503 504
f 523 517 522
f 523 504 505
f 505 518 523
f 524 287 286
f 506 287 525
f 526 506 525
f 527 525 524
f 528 526 525
f 508 526 529
f 530 508 529
f 531 530 529
f 510 530 532
f 535 531 534
f 535 511 512
f 535 510 532
f 537 533 536
f 537 511 534
f 539 517 518
f 519 539 518
f 541 536 540
f 520 540 519
f 520 537 541
f 542 371 521
f 543 521 522
f 522 538 543
f 544 538 539
f 545 539 540
f 135 547 548
f 140 549 550
f 551 546 547
f 551 140 550
f 141 547 134
f 552 135 548
f 145 553 554
f 146 554 555
f 146 549 139
f 556 549 555
f 148 557 558
f 148 553 144
f 559 553 558
f 560 554 559
f 149 557 147
f 562 557 561
f 563 558 562
f 567 546 566
f 568 564 565
f 568 547 567
f 550 566 546
f 571 555 570
f 556 569 550
f 560 572 573
f 560 570 555
f 563 574 575
f 563 572 559
f 576 572 575
f 579 564 578
f 581 577 578
f 581 566 580
f 581 564 567
f 569 580 566
f 585 582 583
f 585 570 584
f 585 569 571
f 586 570 573
f 576 586 573
f 588 587 586
f 595 590 591
f 595 577 594
f 595 592 596
f 579 595 596
f 598 593 594
f 598 577 580
f 600 597 598
f 600 582 599
f 583 598 580
f 601 582 584
f 602 584 586
f 603 586 587
f 604 603 605
f 589 603 587
f 608 590 607
f 592 608 609
f 611 593 610
f 611 590 594
f 597 610 593
f 599 612 597
f 614 599 601
f 615 601 602
f 604 615 602
f 617 604 605
f 608 619 620
f 621 608 620
f 609 618 606
f 611 622 623
f 611 619 607
f 624 619 623
f 612 622 610
f 626 622 625
f 627 612 613
f 614 627 613
f 615 628 614
f 616 629 615
f 621 631 632
f 624 633 634
f 624 631 620
f 635 631 634
f 626 636 637
f 637 623 626
f 627 636 625
f 639 636 638
f 628 638 627
f 640 639 638
f 629 640 628
f 642 641 640
f 630 642 629
f 644 643 642
f 634 646 647
f 635 647 648
f 649 633 637
f 650 646 649
f 651 647 650
f 639 649 637
f 653 649 652
f 654 639 641
f 643 654 641
f 645 655 643
f 651 657 658
f 653 659 660
f 653 657 650
f 661 657 660
f 654 659 652
f 663 659 662
f 655 662 654
f 664 663 662
f 656 664 655
f 666 665 664
f 661 668 669
f 663 668 660
f 671 668 670
f 665 670 663
f 673 670 672
f 674 665 667
f 675 672 674
f 552 676 677
f 280 552 677
f 281 677 678
f 282 678 679
f 680 282 679
f 285 680 681
f 682 285 681
f 568 683 685
f 676 568 685
f 685 684 686
f 687 676 685
f 687 686 688
f 678 687 689
f 689 688 690
f 679 689 690
f 680 690 691
f 693 680 691
f 694 691 692
f 683 579 698
f 699 695 696
f 684 698 699
f 699 697 700
f 701 684 699
f 701 700 702
f 704 686 701
f 705 701 702
f 705 703 706
f 707 688 704
f 707 705 708
f 708 706 709
f 710 690 707
f 710 708 711
f 692 710 711
f 712 708 709
f 694 713 693
f 694 711 714
f 715 711 712
f 717 695 716
f 697 717 718
f 720 592 716
f 720 579 596
f 720 695 698
f 721 697 718
f 721 719 722
f 723 700 721
f 723 722 724
f 703 723 724
f 726 703 724
f 726 725 727
f 709 726 728
f 728 727 729
f 712 728 731
f 732 728 729
f 732 730 733
f 715 734 714
f 735 712 731
f 736 731 732
f 737 732 733
f 740 606 738
f 740 592 609
f 740 739 741
f 717 740 741
f 742 717 741
f 719 742 743
f 744 719 743
f 746 722 744
f 746 745 747
f 725 746 747
f 748 725 747
f 729 748 749
f 730 749 750
f 733 750 751
f 737 752 736
f 737 751 753
f 754 606 618
f 755 738 754
f 756 618 621
f 756 755 754
f 741 755 757
f 742 757 758
f 759 742 758
f 760 759 758
f 744 759 761
f 762 744 761
f 763 762 761
f 747 762 764
f 748 764 765
f 749 765 766
f 750 766 767
f 768 767 766
f 751 767 769
f 753 770 752
f 753 769 771
f 772 621 632
f 773 756 772
f 774 757 773
f 635 772 632
f 775 773 772
f 776 774 773
f 760 774 777
f 778 760 777
f 779 778 777
f 763 778 780
f 781 763 780
f 782 781 780
f 765 781 783
f 784 765 783
f 768 784 785
f 786 768 785
f 787 786 785
f 771 786 788
f 775 648 789
f 790 775 789
f 791 776 790
f 792 648 651
f 793 789 792
f 793 791 790
f 779 791 794
f 795 779 794
f 796 795 794
f 782 795 797
f 798 782 797
f 799 798 797
f 784 798 800
f 801 784 800
f 787 801 802
f 803 651 658
f 793 803 804
f 805 793 804
f 661 803 658
f 807 803 806
f 807 805 804
f 796 805 808
f 809 796 808
f 811 806 810
f 812 807 811
f 812 809 808
f 799 809 813
f 814 799 813
f 815 811 810
f 817 811 816
f 818 812 817
f 818 814 813
f 801 814 819
f 820 816 815
f 821 817 816
f 823 817 822
f 824 818 823
f 802 819 824
f 825 661 669
f 671 825 669
f 810 825 826
f 673 826 671
f 827 810 826
f 675 827 673
f 820 827 828
f 829 820 828
f 830 821 829
f 372 561 149
f 832 561 831
f 833 372 373
f 834 831 833
f 375 833 373
f 377 835 375
f 837 377 378
f 379 837 378
f 839 379 380
f 840 839 841
f 381 839 380
f 384 841 381
f 843 384 385
f 844 385 386
f 846 844 847
f 389 844 386
f 848 389 390
f 391 848 390
f 391 845 849
f 832 574 562
f 851 574 850
f 852 575 851
f 834 853 854
f 834 850 832
f 855 850 854
f 835 853 833
f 857 853 856
f 857 855 854
f 859 835 836
f 859 857 856
f 837 859 836
f 861 857 860
f 862 837 838
f 862 861 860
f 840 862 838
f 864 863 862
f 841 864 840
f 867 841 842
f 867 866 865
f 843 867 842
f 872 843 846
f 872 869 868
f 873 846 847
f 874 869 873
f 848 873 847
f 875 870 874
f 849 874 848
f 852 876 877
f 852 588 576
f 878 588 877
f 855 876 851
f 880 876 879
f 881 855 858
f 882 879 881
f 883 858 861
f 884 881 883
f 885 861 863
f 885 884 883
f 887 863 865
f 887 886 885
f 866 887 865
f 892 866 868
f 892 889 888
f 869 892 868
f 893 890 889
f 870 893 869
f 894 891 890
f 871 894 870
f 878 896 897
f 878 605 589
f 880 896 877
f 899 896 898
f 900 880 882
f 900 899 898
f 903 882 884
f 903 901 900
f 886 903 884
f 908 903 907
f 908 905 904
f 910 905 909
f 911 886 888
f 911 908 907
f 889 911 888
f 912 909 908
f 913 889 890
f 913 910 909
f 891 913 890
f 915 891 895
f 916 617 917
f 897 617 605
f 899 917 897
f 920 899 901
f 920 919 918
f 923 901 904
f 923 921 920
f 905 923 904
f 925 921 924
f 925 905 906
f 925 902 922
f 916 630 616
f 927 916 917
f 918 927 917
f 919 928 918
f 930 919 921
f 931 921 922
f 926 644 630
f 932 645 644
f 927 932 926
f 934 927 928
f 935 928 929
f 936 935 937
f 930 935 929
f 938 930 931
f 940 645 933
f 934 940 933
f 943 934 936
f 943 942 941
f 937 943 936
f 945 937 938
f 946 938 939
f 940 666 656
f 948 666 947
f 949 940 941
f 949 948 947
f 942 949 941
f 952 942 944
f 952 951 950
f 945 952 944
f 948 674 667
f 954 675 674
f 956 948 950
f 956 955 954
f 951 956 950
f 958 951 953
f 959 682 681
f 524 682 960
f 527 960 961
f 962 527 961
f 963 528 962
f 964 962 961
f 965 963 962
f 531 963 966
f 967 965 964
f 969 965 968
f 969 533 534
f 969 531 966
f 971 967 970
f 971 533 968
f 973 970 972
f 973 536 971
f 542 845 388
f 975 542 543
f 976 543 544
f 977 972 976
f 977 544 545
f 545 973 977
f 978 845 974
f 979 974 975
f 959 693 980
f 981 959 980
f 982 981 980
f 961 981 983
f 984 983 982
f 964 983 985
f 986 985 984
f 987 964 985
f 989 986 988
f 970 987 989
f 991 988 990
f 972 989 991
f 994 990 993
f 994 975 976
f 994 972 991
f 875 992 871
f 978 875 849
f 979 995 978
f 979 993 996
f 980 713 997
f 998 713 714
f 982 997 1000
f 1002 999 1001
f 1002 982 1000
f 1004 1001 1003
f 1004 984 1002
f 1005 1004 1003
f 1006 986 1004
f 1007 1006 1005
f 1008 988 1006
f 992 895 871
f 1010 1007 1009
f 1010 990 1008
f 1011 992 995
f 1011 1010 1009
f 996 1011 995
f 1012 993 1010
f 998 1013 997
f 998 734 1014
f 1015 734 735
f 1016 735 736
f 1018 999 1000
f 1000 1013 1018
f 1019 1013 1014
f 1019 1015 1020
f 1021 1015 1016
f 1001 1017 1022
f 1023 902 906
f 1023 1001 1022
f 910 1023 906
f 1024 1003 1023
f 1025 910 914
f 1007 1024 1025
f 915 1025 914
f 1026 895 1009
f 1026 1007 1025
f 1027 736 752
f 1018 1028 1017
f 1019 1029 1018
f 1031 1019 1020
f 1021 1031 1020
f 1032 1016 1027
f 1033 902 1022
f 1022 1028 1033
f 1034 1028 1029
f 1035 1029 1030
f 1036 1030 1031
f 1037 1031 1032
f 1027 770 1038
f 1039 770 771
f 1040 1027 1038
f 1041 922 1033
f 1034 1041 1033
f 1035 1042 1034
f 1044 1035 1036
f 1037 1044 1036
f 1037 1040 1045
f 1047 787 1046
f 1047 1038 1039
f 1039 788 1047
f 1040 1046 1049
f 1050 931 1041
f 1042 1050 1041
f 1052 1042 1043
f 1053 1043 1044
f 1054 1048 1053
f 1054 1044 1045
f 1054 1040 1049
f 939 1050 1055
f 1056 1050 1051
f 1046 802 1058
f 1061 1057 1060
f 1061 1048 1049
f 1061 1046 1058
f 1052 1063 1051
f 1065 1059 1064
f 1065 1052 1053
f 1065 1048 1060
f 946 1062 945
f 1055 946 939
f 1067 1062 1066
f 1056 1066 1055
f 1056 1063 1067
f 1068 823 822
f 1070 823 1069
f 1070 1057 1058
f 1058 824 1070
f 1073 1068 1072
f 1073 1059 1060
f 1073 1057 1069
f 1074 945 1062
f 1075 1062 1063
f 1076 1071 1075
f 1076 1063 1064
f 1076 1059 1072
f 1077 675 955
f 1077 829 828
f 1078 830 829
f 1068 830 1079
f 1080 955 957
f 1080 1078 1077
f 1082 1078 1081
f 1082 1071 1072
f 1082 1068 1079
f 958 1080 957
f 1074 958 953
f 1084 1080 1083
f 1084 1074 1075
f 1084 1071 1081
f 5 4 2
f 7 6 4
f 8 6 7
f 14 13 10
f 14 3 2
f 14 11 1
f 16 15 12
f 16 13 2
f 17 15 16
f 6 18 16
f 19 17 18
f 8 20 18
f 21 20 8
f 22 19 20
f 23 20 21
f 27 11 10
f 29 28 25
f 29 13 12
f 29 26 10
f 31 28 12
f 33 32 30
f 33 31 15
f 34 32 33
f 35 33 17
f 36 34 35
f 22 37 35
f 38 37 22
f 39 38 23
f 42 26 25
f 27 26 42
f 45 44 40
f 45 41 25
f 48 47 44
f 48 31 30
f 48 45 28
f 50 49 46
f 50 47 30
f 51 49 50
f 52 50 32
f 53 51 52
f 36 54 52
f 55 54 36
f 56 55 37
f 58 41 40
f 59 42 41
f 60 43 42
f 62 57 40
f 64 63 61
f 64 47 46
f 64 62 44
f 66 63 46
f 68 67 65
f 68 66 49
f 69 67 68
f 53 70 68
f 71 70 53
f 73 58 57
f 74 59 58
f 75 60 59
f 77 62 61
f 77 72 57
f 79 76 61
f 81 80 78
f 81 66 65
f 81 79 63
f 82 80 65
f 69 83 82
f 84 83 69
f 73 72 85
f 87 74 73
f 88 75 74
f 77 76 89
f 77 90 85
f 91 86 85
f 93 79 78
f 93 89 76
f 95 92 78
f 96 94 95
f 82 97 95
f 98 97 82
f 87 86 99
f 101 88 87
f 103 90 89
f 91 90 103
f 91 104 99
f 105 106 101
f 109 93 92
f 109 102 89
f 111 110 107
f 111 95 94
f 111 108 92
f 96 112 110
f 113 112 96
f 114 112 113
f 98 115 113
f 117 100 99
f 103 102 118
f 120 104 103
f 104 120 116
f 121 117 116
f 105 100 117
f 122 106 105
f 124 108 107
f 109 108 124
f 109 125 118
f 126 119 118
f 128 123 107
f 112 129 128
f 114 130 129
f 131 130 114
f 120 119 132
f 121 120 133
f 135 122 121
f 124 123 136
f 138 125 124
f 126 125 138
f 126 139 132
f 140 133 132
f 141 134 133
f 127 122 135
f 128 143 136
f 143 144 137
f 145 138 137
f 146 139 138
f 129 147 143
f 148 144 143
f 149 147 129
f 151 3 1
f 154 5 3
f 154 151 152
f 155 152 153
f 158 7 5
f 158 154 155
f 159 155 156
f 160 156 157
f 9 7 158
f 163 162 158
f 163 159 160
f 165 164 160
f 166 162 163
f 168 167 163
f 169 150 1
f 172 151 150
f 172 169 170
f 152 151 172
f 173 170 171
f 153 152 173
f 175 156 153
f 157 156 175
f 177 161 157
f 179 21 9
f 165 181 180
f 165 161 177
f 181 177 178
f 24 21 179
f 166 183 179
f 184 183 166
f 168 185 184
f 168 164 180
f 186 185 180
f 186 181 182
f 188 169 11
f 170 169 188
f 171 170 189
f 191 174 171
f 193 175 174
f 193 191 192
f 176 175 193
f 195 177 176
f 178 177 195
f 182 178 196
f 199 39 24
f 187 182 197
f 200 197 198
f 202 188 27
f 203 189 188
f 204 190 189
f 205 191 190
f 192 191 205
f 207 194 192
f 195 194 207
f 209 196 195
f 210 197 196
f 198 197 210
f 201 198 211
f 202 43 60
f 214 203 202
f 215 204 203
f 205 204 215
f 206 205 216
f 218 207 206
f 219 208 207
f 209 208 219
f 221 210 209
f 211 210 221
f 223 212 211
f 224 213 60
f 214 213 224
f 226 215 214
f 227 228 226
f 216 215 226
f 229 217 216
f 230 231 229
f 218 217 229
f 232 219 218
f 220 219 232
f 234 221 220
f 235 222 221
f 236 223 222
f 224 75 88
f 238 225 224
f 239 240 238
f 227 225 238
f 241 228 227
f 242 243 241
f 230 228 241
f 244 231 230
f 245 246 244
f 232 231 244
f 247 233 232
f 248 249 247
f 234 233 247
f 250 235 234
f 251 252 250
f 252 236 235
f 253 237 88
f 106 254 253
f 239 237 253
f 255 240 239
f 256 257 255
f 242 240 255
f 258 243 242
f 259 260 258
f 245 243 258
f 261 246 245
f 262 263 261
f 248 246 261
f 264 249 248
f 265 266 264
f 251 249 264
f 267 252 251
f 268 254 106
f 127 269 268
f 256 254 268
f 270 257 256
f 271 272 270
f 259 257 270
f 273 260 259
f 274 275 273
f 262 260 273
f 276 263 262
f 277 278 276
f 265 263 276
f 279 266 265
f 280 269 127
f 271 269 280
f 282 272 271
f 274 272 282
f 284 275 274
f 285 286 284
f 277 275 284
f 287 278 277
f 288 38 39
f 290 54 55
f 291 55 56
f 288 292 56
f 293 292 288
f 294 292 293
f 296 70 71
f 290 297 71
f 298 297 290
f 299 298 291
f 300 297 298
f 301 298 299
f 294 302 299
f 303 302 294
f 304 302 303
f 306 83 84
f 296 307 84
f 308 307 296
f 309 307 308
f 300 310 308
f 311 310 300
f 312 311 301
f 313 310 311
f 314 311 312
f 304 315 312
f 316 315 304
f 317 314 315
f 318 315 316
f 306 320 98
f 321 320 306
f 309 322 321
f 323 322 309
f 324 322 323
f 313 325 323
f 326 325 313
f 327 325 326
f 317 328 326
f 329 328 317
f 319 330 329
f 331 328 329
f 332 329 330
f 334 115 98
f 335 334 320
f 336 334 335
f 322 337 335
f 338 336 337
f 324 339 337
f 340 339 324
f 341 339 340
f 327 342 340
f 343 342 327
f 344 341 342
f 345 342 343
f 331 346 343
f 347 346 331
f 333 348 347
f 349 346 347
f 351 350 347
f 352 130 131
f 334 353 131
f 354 352 353
f 336 355 353
f 338 356 355
f 357 356 338
f 358 356 357
f 341 359 357
f 360 358 359
f 344 361 359
f 362 361 344
f 363 362 345
f 364 361 362
f 365 362 363
f 349 366 363
f 367 366 349
f 368 367 350
f 369 366 367
f 371 370 367
f 352 372 149
f 354 373 372
f 374 373 354
f 375 373 374
f 356 376 374
f 377 375 376
f 358 378 376
f 360 379 378
f 380 379 360
f 364 381 380
f 382 381 364
f 383 382 365
f 384 381 382
f 385 382 383
f 369 386 383
f 387 386 369
f 371 388 387
f 389 386 387
f 391 390 387
f 392 183 184
f 394 393 184
f 394 185 186
f 395 186 187
f 289 39 199
f 392 397 199
f 398 397 392
f 394 399 398
f 395 400 399
f 396 401 400
f 396 187 200
f 401 200 201
f 403 397 398
f 404 398 399
f 405 399 400
f 406 400 401
f 407 401 402
f 409 405 406
f 410 406 407
f 412 411 407
f 413 293 289
f 402 201 212
f 295 293 413
f 403 415 413
f 416 415 403
f 417 416 404
f 408 402 414
f 420 415 416
f 421 416 417
f 409 422 417
f 423 422 409
f 424 423 410
f 412 425 424
f 425 412 408
f 426 425 418
f 427 422 423
f 429 428 423
f 430 429 424
f 431 414 212
f 433 303 295
f 434 418 414
f 434 431 432
f 419 418 434
f 305 303 433
f 420 436 433
f 437 436 420
f 438 437 421
f 440 439 425
f 440 426 419
f 441 436 437
f 442 437 438
f 427 443 438
f 444 443 427
f 445 444 428
f 446 445 429
f 430 425 439
f 447 443 444
f 449 448 444
f 450 431 223
f 451 432 431
f 452 435 432
f 453 316 305
f 455 454 439
f 440 435 452
f 319 316 453
f 441 456 453
f 457 456 441
f 458 457 442
f 460 459 445
f 446 439 454
f 461 456 457
f 462 457 458
f 447 463 458
f 464 463 447
f 449 465 464
f 449 445 459
f 466 465 459
f 467 463 464
f 469 468 464
f 470 450 236
f 471 451 450
f 472 473 471
f 452 451 471
f 475 473 472
f 475 474 454
f 455 452 473
f 476 330 319
f 460 454 474
f 333 330 476
f 461 478 476
f 479 478 461
f 480 479 462
f 483 482 465
f 466 460 477
f 484 478 479
f 485 479 480
f 467 486 480
f 487 486 467
f 488 482 481
f 488 487 468
f 469 465 482
f 489 490 267
f 490 470 252
f 492 490 489
f 472 470 490
f 474 472 492
f 477 474 493
f 495 348 333
f 497 496 481
f 483 498 497
f 483 477 494
f 351 348 495
f 484 499 495
f 500 499 484
f 501 500 485
f 502 501 486
f 502 487 481
f 503 499 500
f 505 504 500
f 506 507 279
f 489 266 279
f 491 489 507
f 509 492 491
f 493 492 509
f 494 493 510
f 497 514 513
f 515 512 511
f 515 514 497
f 515 498 494
f 516 368 351
f 519 518 501
f 502 496 513
f 520 519 513
f 371 368 516
f 503 521 516
f 522 521 503
f 523 518 517
f 523 522 504
f 505 501 518
f 524 525 287
f 506 278 287
f 526 507 506
f 527 528 525
f 528 529 526
f 508 507 526
f 530 509 508
f 531 532 530
f 510 509 530
f 535 532 531
f 535 534 511
f 535 512 510
f 537 534 533
f 537 514 511
f 539 538 517
f 519 540 539
f 541 537 536
f 520 541 540
f 520 514 537
f 542 388 371
f 543 542 521
f 522 517 538
f 544 543 538
f 545 544 539
f 135 134 547
f 140 139 549
f 551 550 546
f 551 141 140
f 141 551 547
f 552 142 135
f 145 144 553
f 146 145 554
f 146 555 549
f 556 550 549
f 148 147 557
f 148 558 553
f 559 554 553
f 560 555 554
f 149 561 557
f 562 558 557
f 563 559 558
f 567 547 546
f 568 567 564
f 568 548 547
f 550 569 566
f 571 556 555
f 556 571 569
f 560 559 572
f 560 573 570
f 563 562 574
f 563 575 572
f 576 573 572
f 579 565 564
f 581 580 577
f 581 567 566
f 581 578 564
f 569 583 580
f 585 584 582
f 585 571 570
f 585 583 569
f 586 584 570
f 576 588 586
f 588 589 587
f 595 594 590
f 595 578 577
f 595 591 592
f 579 578 595
f 598 597 593
f 598 594 577
f 600 599 597
f 600 583 582
f 583 600 598
f 601 599 582
f 602 601 584
f 603 602 586
f 604 602 603
f 589 605 603
f 608 591 590
f 592 591 608
f 611 594 593
f 611 607 590
f 597 612 610
f 599 613 612
f 614 613 599
f 615 614 601
f 604 616 615
f 617 616 604
f 608 607 619
f 621 609 608
f 609 621 618
f 611 610 622
f 611 623 619
f 624 620 619
f 612 625 622
f 626 623 622
f 627 625 612
f 614 628 627
f 615 629 628
f 616 630 629
f 621 620 631
f 624 623 633
f 624 634 631
f 635 632 631
f 626 625 636
f 637 633 623
f 627 638 636
f 639 637 636
f 628 640 638
f 640 641 639
f 629 642 640
f 642 643 641
f 630 644 642
f 644 645 643
f 634 633 646
f 635 634 647
f 649 646 633
f 650 647 646
f 651 648 647
f 639 652 649
f 653 650 649
f 654 652 639
f 643 655 654
f 645 656 655
f 651 650 657
f 653 652 659
f 653 660 657
f 661 658 657
f 654 662 659
f 663 660 659
f 655 664 662
f 664 665 663
f 656 666 664
f 666 667 665
f 661 660 668
f 663 670 668
f 671 669 668
f 665 672 670
f 673 671 670
f 674 672 665
f 675 673 672
f 552 548 676
f 280 142 552
f 281 280 677
f 282 281 678
f 680 283 282
f 285 283 680
f 682 286 285
f 568 565 683
f 676 548 568
f 685 683 684
f 687 677 676
f 687 685 686
f 678 677 687
f 689 687 688
f 679 678 689
f 680 679 690
f 693 681 680
f 694 693 691
f 683 565 579
f 699 698 695
f 684 683 698
f 699 696 697
f 701 686 684
f 701 699 700
f 704 688 686
f 705 704 701
f 705 702 703
f 707 690 688
f 707 704 705
f 708 705 706
f 710 691 690
f 710 707 708
f 692 691 710
f 712 711 708
f 694 714 713
f 694 692 711
f 715 714 711
f 717 696 695
f 697 696 717
f 720 596 592
f 720 698 579
f 720 716 695
f 721 700 697
f 721 718 719
f 723 702 700
f 723 721 722
f 703 702 723
f 726 706 703
f 726 724 725
f 709 706 726
f 728 726 727
f 712 709 728
f 732 731 728
f 732 729 730
f 715 735 734
f 735 715 712
f 736 735 731
f 737 736 732
f 740 609 606
f 740 716 592
f 740 738 739
f 717 716 740
f 742 718 717
f 719 718 742
f 744 722 719
f 746 724 722
f 746 744 745
f 725 724 746
f 748 727 725
f 729 727 748
f 730 729 749
f 733 730 750
f 737 753 752
f 737 733 751
f 754 738 606
f 755 739 738
f 756 754 618
f 756 757 755
f 741 739 755
f 742 741 757
f 759 743 742
f 760 761 759
f 744 743 759
f 762 745 744
f 763 764 762
f 747 745 762
f 748 747 764
f 749 748 765
f 750 749 766
f 768 769 767
f 751 750 767
f 753 771 770
f 753 751 769
f 772 756 621
f 773 757 756
f 774 758 757
f 635 775 772
f 775 776 773
f 776 777 774
f 760 758 774
f 778 761 760
f 779 780 778
f 763 761 778
f 781 764 763
f 782 783 781
f 765 764 781
f 784 766 765
f 768 766 784
f 786 769 768
f 787 788 786
f 771 769 786
f 775 635 648
f 790 776 775
f 791 777 776
f 792 789 648
f 793 790 789
f 793 794 791
f 779 777 791
f 795 780 779
f 796 797 795
f 782 780 795
f 798 783 782
f 799 800 798
f 784 783 798
f 801 785 784
f 787 785 801
f 803 792 651
f 793 792 803
f 805 794 793
f 661 806 803
f 807 804 803
f 807 808 805
f 796 794 805
f 809 797 796
f 811 807 806
f 812 808 807
f 812 813 809
f 799 797 809
f 814 800 799
f 815 816 811
f 817 812 811
f 818 813 812
f 818 819 814
f 801 800 814
f 820 821 816
f 821 822 817
f 823 818 817
f 824 819 818
f 802 801 819
f 825 806 661
f 671 826 825
f 810 806 825
f 673 827 826
f 827 815 810
f 675 828 827
f 820 815 827
f 829 821 820
f 830 822 821
f 372 831 561
f 832 562 561
f 833 831 372
f 834 832 831
f 375 835 833
f 377 836 835
f 837 836 377
f 379 838 837
f 839 838 379
f 840 838 839
f 381 841 839
f 384 842 841
f 843 842 384
f 844 843 385
f 846 843 844
f 389 847 844
f 848 847 389
f 391 849 848
f 391 388 845
f 832 850 574
f 851 575 574
f 852 576 575
f 834 833 853
f 834 854 850
f 855 851 850
f 835 856 853
f 857 854 853
f 857 858 855
f 859 856 835
f 859 860 857
f 837 860 859
f 861 858 857
f 862 860 837
f 862 863 861
f 840 864 862
f 864 865 863
f 841 865 864
f 867 865 841
f 867 868 866
f 843 868 867
f 872 868 843
f 872 873 869
f 873 872 846
f 874 870 869
f 848 874 873
f 875 871 870
f 849 875 874
f 852 851 876
f 852 877 588
f 878 589 588
f 855 879 876
f 880 877 876
f 881 879 855
f 882 880 879
f 883 881 858
f 884 882 881
f 885 883 861
f 885 886 884
f 887 885 863
f 887 888 886
f 866 888 887
f 892 888 866
f 892 893 889
f 869 893 892
f 893 894 890
f 870 894 893
f 894 895 891
f 871 895 894
f 878 877 896
f 878 897 605
f 880 898 896
f 899 897 896
f 900 898 880
f 900 901 899
f 903 900 882
f 903 904 901
f 886 907 903
f 908 904 903
f 908 909 905
f 910 906 905
f 911 907 886
f 911 912 908
f 889 912 911
f 912 913 909
f 913 912 889
f 913 914 910
f 891 914 913
f 915 914 891
f 916 616 617
f 897 917 617
f 899 918 917
f 920 918 899
f 920 921 919
f 923 920 901
f 923 924 921
f 905 924 923
f 925 922 921
f 925 924 905
f 925 906 902
f 916 926 630
f 927 926 916
f 918 928 927
f 919 929 928
f 930 929 919
f 931 930 921
f 926 932 644
f 932 933 645
f 927 933 932
f 934 933 927
f 935 934 928
f 936 934 935
f 930 937 935
f 938 937 930
f 940 656 645
f 934 941 940
f 943 941 934
f 943 944 942
f 937 944 943
f 945 944 937
f 946 945 938
f 940 947 666
f 948 667 666
f 949 947 940
f 949 950 948
f 942 950 949
f 952 950 942
f 952 953 951
f 945 953 952
f 948 954 674
f 954 955 675
f 956 954 948
f 956 957 955
f 951 957 956
f 958 957 951
f 959 960 682
f 524 286 682
f 527 524 960
f 962 528 527
f 963 529 528
f 964 965 962
f 965 966 963
f 531 529 963
f 967 968 965
f 969 966 965
f 969 968 533
f 969 534 531
f 971 968 967
f 971 536 533
f 973 971 970
f 973 540 536
f 542 974 845
f 975 974 542
f 976 975 543
f 977 973 972
f 977 976 544
f 545 540 973
f 978 849 845
f 979 978 974
f 959 681 693
f 981 960 959
f 982 983 981
f 961 960 981
f 984 985 983
f 964 961 983
f 986 987 985
f 987 967 964
f 989 987 986
f 970 967 987
f 991 989 988
f 972 970 989
f 994 991 990
f 994 993 975
f 994 976 972
f 875 995 992
f 978 995 875
f 979 996 995
f 979 975 993
f 980 693 713
f 998 997 713
f 982 980 997
f 1002 1000 999
f 1002 984 982
f 1004 1002 1001
f 1004 986 984
f 1005 1006 1004
f 1006 988 986
f 1007 1008 1006
f 1008 990 988
f 992 1009 895
f 1010 1008 1007
f 1010 993 990
f 1011 1009 992
f 1011 1012 1010
f 996 1012 1011
f 1012 996 993
f 998 1014 1013
f 998 714 734
f 1015 1014 734
f 1016 1015 735
f 1018 1017 999
f 1000 997 1013
f 1019 1018 1013
f 1019 1014 1015
f 1021 1020 1015
f 1001 999 1017
f 1023 1022 902
f 1023 1003 1001
f 910 1024 1023
f 1024 1005 1003
f 1025 1024 910
f 1007 1005 1024
f 915 1026 1025
f 1026 915 895
f 1026 1009 1007
f 1027 1016 736
f 1018 1029 1028
f 1019 1030 1029
f 1031 1030 1019
f 1021 1032 1031
f 1032 1021 1016
f 1033 922 902
f 1022 1017 1028
f 1034 1033 1028
f 1035 1034 1029
f 1036 1035 1030
f 1037 1036 1031
f 1027 752 770
f 1039 1038 770
f 1040 1032 1027
f 1041 931 922
f 1034 1042 1041
f 1035 1043 1042
f 1044 1043 1035
f 1037 1045 1044
f 1037 1032 1040
f 1047 788 787
f 1047 1046 1038
f 1039 771 788
f 1040 1038 1046
f 1050 938 931
f 1042 1051 1050
f 1052 1051 1042
f 1053 1052 1043
f 1054 1049 1048
f 1054 1053 1044
f 1054 1045 1040
f 939 938 1050
f 1056 1055 1050
f 1046 787 802
f 1061 1058 1057
f 1061 1060 1048
f 1061 1049 1046
f 1052 1064 1063
f 1065 1060 1059
f 1065 1064 1052
f 1065 1053 1048
f 946 1066 1062
f 1055 1066 946
f 1067 1063 1062
f 1056 1067 1066
f 1056 1051 1063
f 1068 1069 823
f 1070 824 823
f 1070 1069 1057
f 1058 802 824
f 1073 1069 1068
f 1073 1072 1059
f 1073 1060 1057
f 1074 953 945
f 1075 1074 1062
f 1076 1072 1071
f 1076 1075 1063
f 1076 1064 1059
f 1077 828 675
f 1077 1078 829
f 1078 1079 830
f 1068 822 830
f 1080 1077 955
f 1080 1081 1078
f 1082 1079 1078
f 1082 1081 1071
f 1082 1072 1068
f 958 1083 1080
f 1074 1083 958
f 1084 1081 1080
f 1084 1083 1074
f 1084 1075 1071
